<svg width="262" height="58" viewBox="0 0 262 58" fill="none" xmlns="http://www.w3.org/2000/svg">
<path d="M83.5945 49.404C82.5508 49.404 81.423 49.3535 80.211 49.2525C79.0327 49.1852 77.8207 49.0505 76.575 48.8485C75.3293 48.6465 74.1342 48.3603 72.9895 47.99V11.428H79.403V26.2245C80.413 25.1472 81.5577 24.2887 82.837 23.649C84.15 22.9757 85.665 22.639 87.382 22.639C89.402 22.639 91.119 23.1945 92.533 24.3055C93.947 25.4165 95.0243 26.9483 95.765 28.901C96.5393 30.8537 96.9265 33.1093 96.9265 35.668C96.9265 38.294 96.4888 40.6338 95.6135 42.6875C94.7382 44.7412 93.3242 46.374 91.3715 47.586C89.4188 48.798 86.8265 49.404 83.5945 49.404ZM84.049 44.6065C85.463 44.6065 86.6245 44.2867 87.5335 43.647C88.4762 42.9737 89.1663 41.9805 89.604 40.6675C90.0753 39.3545 90.311 37.7217 90.311 35.769C90.311 33.0757 89.8902 31.0388 89.0485 29.6585C88.2405 28.2445 86.9443 27.5375 85.16 27.5375C83.8807 27.5375 82.7865 27.8068 81.8775 28.3455C81.0022 28.8505 80.1773 29.608 79.403 30.618V44.0005C80.3793 44.2362 81.2042 44.4045 81.8775 44.5055C82.5508 44.5728 83.2747 44.6065 84.049 44.6065ZM74.2015 11.428L73.5955 16.5285L70.6665 15.9225C70.2288 15.8215 69.8753 15.6532 69.606 15.4175C69.3367 15.1818 69.202 14.8283 69.202 14.357V11.428H74.2015ZM103.396 49V23.043H109.759V49H103.396ZM99.6081 49V46.071C99.6081 45.5997 99.726 45.2462 99.9616 45.0105C100.231 44.7748 100.601 44.6065 101.073 44.5055L103.951 43.8995L104.608 49H99.6081ZM108.547 49L109.203 43.8995L112.082 44.5055C112.553 44.6065 112.906 44.7748 113.142 45.0105C113.411 45.2462 113.546 45.5997 113.546 46.071V49H108.547ZM104.608 23.043L103.951 28.1435L101.073 27.5375C100.601 27.4365 100.231 27.2682 99.9616 27.0325C99.726 26.7968 99.6081 26.4433 99.6081 25.972V23.043H104.608ZM106.678 19.4575C105.601 19.4575 104.658 19.0703 103.85 18.296C103.042 17.5217 102.638 16.5958 102.638 15.5185C102.638 14.4075 103.042 13.4648 103.85 12.6905C104.658 11.8825 105.601 11.4785 106.678 11.4785C107.789 11.4785 108.749 11.8825 109.557 12.6905C110.365 13.4648 110.769 14.4075 110.769 15.5185C110.769 16.5958 110.365 17.5217 109.557 18.296C108.749 19.0703 107.789 19.4575 106.678 19.4575ZM125.884 49.404C123.628 49.404 121.878 48.7643 120.632 47.485C119.42 46.2057 118.814 44.4382 118.814 42.1825V27.7395H116.188C115.851 27.7395 115.565 27.6385 115.329 27.4365C115.094 27.2345 114.976 26.9147 114.976 26.477V23.952L119.167 23.245L120.48 16.2255C120.615 15.5185 121.086 15.165 121.894 15.165H125.177V23.2955H131.994V27.7395H125.177V41.7785C125.177 42.5865 125.379 43.2262 125.783 43.6975C126.187 44.1352 126.726 44.354 127.399 44.354C127.769 44.354 128.106 44.2867 128.409 44.152C128.712 43.9837 128.998 43.8322 129.267 43.6975C129.537 43.5628 129.772 43.4955 129.974 43.4955C130.277 43.4955 130.547 43.6807 130.782 44.051L132.701 47.1315C131.792 47.8385 130.749 48.394 129.57 48.798C128.392 49.202 127.163 49.404 125.884 49.404ZM146.682 49.404C144.46 49.404 142.456 48.8485 140.672 47.7375C138.921 46.5928 137.524 45.0273 136.481 43.041C135.471 41.021 134.966 38.6643 134.966 35.971C134.966 33.3787 135.454 31.0893 136.43 29.103C137.406 27.083 138.837 25.5007 140.723 24.356C142.608 23.2113 144.914 22.639 147.641 22.639C148.92 22.639 150.25 22.8073 151.631 23.144C153.045 23.447 154.442 23.9015 155.822 24.5075V28.194L152.59 28.598C151.917 28.194 151.227 27.9078 150.52 27.7395C149.846 27.5375 149.021 27.4365 148.045 27.4365C146.564 27.4365 145.335 27.79 144.359 28.497C143.416 29.204 142.709 30.1972 142.238 31.4765C141.8 32.7558 141.581 34.254 141.581 35.971C141.581 38.6643 142.12 40.7853 143.197 42.334C144.308 43.849 145.857 44.6065 147.843 44.6065C148.92 44.6065 149.829 44.4213 150.57 44.051C151.311 43.647 151.95 43.243 152.489 42.839C153.028 42.435 153.516 42.233 153.954 42.233C154.223 42.233 154.442 42.2835 154.61 42.3845C154.812 42.4855 154.98 42.6202 155.115 42.7885L156.933 45.1115C155.553 46.7275 153.97 47.8553 152.186 48.495C150.402 49.101 148.567 49.404 146.682 49.404ZM151.328 27.083L155.822 28.194V32.133H153.499C153.028 32.133 152.674 31.9983 152.439 31.729C152.203 31.4597 152.035 31.1062 151.934 30.6685L151.328 27.083ZM166.905 49.404C165.424 49.404 164.111 49.1347 162.966 48.596C161.822 48.0573 160.929 47.2662 160.29 46.2225C159.65 45.1788 159.33 43.8827 159.33 42.334C159.33 41.3913 159.583 40.4487 160.088 39.506C160.626 38.5297 161.485 37.6543 162.663 36.88C163.875 36.1393 165.474 35.5165 167.461 35.0115C169.447 34.4728 171.905 34.1698 174.834 34.1025V32.638C174.834 30.8873 174.463 29.608 173.723 28.8C173.016 27.9583 171.972 27.5375 170.592 27.5375C169.615 27.5375 168.706 27.7395 167.865 28.1435C167.057 28.5138 166.299 28.901 165.592 29.305C164.919 29.6753 164.262 29.8605 163.623 29.8605C163.185 29.8605 162.798 29.7427 162.461 29.507C162.158 29.2713 161.923 29.002 161.754 28.699L160.593 26.679C162.108 25.2987 163.757 24.2718 165.542 23.5985C167.36 22.9252 169.312 22.5885 171.4 22.5885C173.42 22.5885 175.154 23.0093 176.601 23.851C178.049 24.6927 179.16 25.871 179.934 27.386C180.709 28.901 181.096 30.6517 181.096 32.638V49H178.217C177.578 49 177.089 48.9158 176.753 48.7475C176.45 48.5792 176.197 48.2088 175.995 47.6365L175.49 45.8185C174.177 46.9632 172.864 47.8553 171.551 48.495C170.272 49.101 168.723 49.404 166.905 49.404ZM168.925 45.061C170.137 45.061 171.198 44.8422 172.107 44.4045C173.049 43.9332 173.958 43.243 174.834 42.334V37.991C173.352 38.0247 172.023 38.1425 170.844 38.3445C169.7 38.5128 168.723 38.7653 167.915 39.102C167.141 39.405 166.535 39.809 166.097 40.314C165.693 40.7853 165.491 41.3577 165.491 42.031C165.491 43.142 165.794 43.9332 166.4 44.4045C167.04 44.8422 167.882 45.061 168.925 45.061ZM179.833 49L180.49 43.8995L183.419 44.5055C183.856 44.6065 184.21 44.7748 184.479 45.0105C184.749 45.2462 184.883 45.5997 184.883 46.071V49H179.833ZM190.883 49V23.043H194.771C195.613 23.043 196.152 23.4302 196.387 24.2045L196.791 26.1235C197.7 25.1472 198.71 24.3223 199.821 23.649C200.932 22.9757 202.245 22.639 203.76 22.639C205.41 22.639 206.757 23.0935 207.8 24.0025C208.844 24.8778 209.618 26.0393 210.123 27.487C210.931 25.8037 212.093 24.5748 213.608 23.8005C215.123 23.0262 216.739 22.639 218.456 22.639C221.351 22.639 223.556 23.5143 225.071 25.265C226.62 27.0157 227.394 29.4228 227.394 32.4865V49H221.031V32.4865C221.031 30.8705 220.678 29.6417 219.971 28.8C219.264 27.9583 218.203 27.5375 216.789 27.5375C215.544 27.5375 214.483 27.9752 213.608 28.8505C212.766 29.7258 212.345 30.9378 212.345 32.4865V49H205.932V32.4865C205.932 30.7695 205.578 29.5238 204.871 28.7495C204.198 27.9415 203.205 27.5375 201.892 27.5375C200.983 27.5375 200.141 27.7732 199.367 28.2445C198.626 28.6822 197.919 29.2713 197.246 30.012V49H190.883ZM187.095 49V46.071C187.095 45.5997 187.213 45.2462 187.449 45.0105C187.718 44.7748 188.089 44.6065 188.56 44.5055L191.438 43.8995L192.095 49H187.095ZM196.034 49L196.69 43.8995L199.569 44.5055C200.04 44.6065 200.394 44.7748 200.629 45.0105C200.899 45.2462 201.033 45.5997 201.033 46.071V49H196.034ZM211.133 49L211.739 43.8995L214.668 44.5055C215.106 44.6065 215.46 44.7748 215.729 45.0105C215.998 45.2462 216.133 45.5997 216.133 46.071V49H211.133ZM192.095 23.043L191.438 28.1435L188.56 27.5375C188.089 27.4365 187.718 27.2682 187.449 27.0325C187.213 26.7968 187.095 26.4433 187.095 25.972V23.043H192.095ZM226.182 49L226.839 43.8995L229.717 44.5055C230.189 44.6065 230.542 44.7748 230.778 45.0105C231.047 45.2462 231.182 45.5997 231.182 46.071V49H226.182ZM237.191 57.484V23.043H241.08C241.955 23.043 242.494 23.4302 242.696 24.2045L243.201 26.6285C244.278 25.4165 245.49 24.4402 246.837 23.6995C248.217 22.9588 249.782 22.5885 251.533 22.5885C253.587 22.5885 255.321 23.144 256.735 24.255C258.149 25.366 259.226 26.9147 259.967 28.901C260.741 30.8873 261.128 33.1935 261.128 35.8195C261.128 38.3445 260.674 40.6338 259.765 42.6875C258.856 44.7075 257.576 46.3403 255.927 47.586C254.277 48.798 252.291 49.404 249.968 49.404C248.52 49.404 247.291 49.1852 246.281 48.7475C245.305 48.2762 244.396 47.6365 243.554 46.8285V57.484H237.191ZM248.503 44.6065C249.816 44.6065 250.91 44.2698 251.786 43.5965C252.695 42.9232 253.368 41.93 253.806 40.617C254.277 39.304 254.513 37.7048 254.513 35.8195C254.513 33.0925 254.092 31.0388 253.25 29.6585C252.442 28.2445 251.146 27.5375 249.362 27.5375C248.082 27.5375 246.988 27.8068 246.079 28.3455C245.204 28.8505 244.362 29.608 243.554 30.618V42.2835C244.261 43.1252 245.019 43.7312 245.827 44.1015C246.668 44.4382 247.56 44.6065 248.503 44.6065ZM238.403 23.043L237.747 28.1435L234.868 27.5375C234.397 27.4365 234.026 27.2682 233.757 27.0325C233.521 26.7968 233.404 26.4433 233.404 25.972V23.043H238.403ZM233.404 57.484V54.555C233.404 54.0837 233.521 53.7302 233.757 53.4945C234.026 53.2588 234.397 53.0905 234.868 52.9895L237.747 52.3835L238.403 57.484H233.404ZM242.342 57.484L242.999 52.3835L245.877 52.9895C246.348 53.0905 246.702 53.2588 246.938 53.4945C247.207 53.7302 247.342 54.0837 247.342 54.555V57.484H242.342Z" fill="#FF6F3F"/>
<path d="M56.965 51.6345C56.965 54.5825 54.5795 56.968 51.631 56.968C48.6835 56.968 46.2905 54.5825 46.2905 51.6345C46.2905 48.6855 48.6835 46.29 51.631 46.29C54.5795 46.2895 56.965 48.685 56.965 51.6345Z" fill="#7F6C5F"/>
<path d="M3.88208 46.4995L3.88308 46.504C3.93858 46.488 3.99608 46.4745 4.05208 46.46L3.88208 46.4995Z" fill="#7F6C5F"/>
<path d="M56.965 40.9468C56.965 37.9993 54.5795 35.6133 51.631 35.6133C51.1525 35.6133 50.691 35.6823 50.2495 35.8003L50.2475 35.7928L4.375 46.3858C4.697 46.3248 5.0285 46.2898 5.368 46.2898C8.3165 46.2898 10.707 48.6853 10.707 51.6343C10.707 54.1033 9.0285 56.1713 6.7515 56.7808L6.7535 56.7878L53.0395 46.1048L53.037 46.0958C55.3015 45.4768 56.965 43.4078 56.965 40.9468Z" fill="#7F6C5F"/>
<path d="M10.707 51.6345C10.707 54.5825 8.31703 56.968 5.36803 56.968C2.41953 56.968 0.0350342 54.5825 0.0350342 51.6345C0.0350342 48.6855 2.41903 46.29 5.36803 46.29C8.31703 46.2895 10.707 48.685 10.707 51.6345Z" fill="#A58D7C"/>
<path d="M46.2905 51.6348C46.2905 48.6858 48.6835 46.2903 51.631 46.2903C51.97 46.2903 52.3 46.3253 52.621 46.3858L6.75351 35.7928L6.75151 35.7963C6.30651 35.6898 5.85701 35.6133 5.36801 35.6133C2.41951 35.6133 0.161011 37.9993 0.161011 40.9468C0.161011 43.3818 1.99051 45.4393 4.13101 46.0803L4.11001 46.0978C4.25051 46.1408 4.31951 46.1798 4.46401 46.1918L50.2475 56.7878L50.2495 56.7813C47.972 56.1728 46.2905 54.1038 46.2905 51.6348Z" fill="#A58D7C"/>
<path d="M53.1151 46.5039L53.1161 46.4999L52.9561 46.4629C53.0091 46.4764 53.0626 46.4889 53.1151 46.5039Z" fill="#A58D7C"/>
<path d="M24.944 14.2756V10.7061H21.387V14.2756H14.2755V28.4996H17.831V17.8321H28.5V14.2756H24.944Z" fill="#FF6F3F"/>
<path d="M21.387 3.58789V7.14389H17.831V10.7054H14.2755V14.2749H21.387V10.7054H24.944V3.58789H21.387Z" fill="#FF3F46"/>
<path d="M28.5 0.0322266H24.944V3.58823H28.5V0.0322266Z" fill="#FF3F46"/>
<path d="M39.1676 10.7061H35.6116V14.2756H39.1676V10.7061Z" fill="#FF3F46"/>
<path d="M35.6111 7.14453H32.0551V10.706H35.6111V7.14453Z" fill="#FF3F46"/>
<path d="M39.1676 17.8319V14.2754H32.0551V17.8319H35.6116V21.3879H39.1676V28.4994H42.7231V17.8319H39.1676Z" fill="#FF6F3F"/>
<path d="M35.6116 21.388V17.832H17.8311V32.057H21.3871V21.388H32.0551V24.945H35.6116V32.057H39.1676V21.388H35.6116Z" fill="#FFAF3F"/>
<path d="M32.055 24.9452V21.3887H21.387V35.6142H35.611V24.9452H32.055ZM32.055 32.0572H24.944V24.9452H28.5V28.4997H32.055V32.0572Z" fill="#FFEF3F"/>
<path d="M28.5 28.4988V24.9443H24.944V32.0563H32.055V28.4988H28.5Z" fill="white"/>
</svg>
