<svg width="573" height="233" viewBox="0 0 573 233" fill="none" xmlns="http://www.w3.org/2000/svg">
<g filter="url(#filter0_dd_211_494)">
<path d="M38.0485 65.2L55.4565 60.336L84.2565 73.648L71.7125 84.144L69.0245 86.576L60.0645 94.128L53.2805 93.616L50.7205 89.648L50.4645 93.36L44.9605 92.976V84.016L41.3765 92.592L30.6245 91.824L12.0645 80.048L4.8965 45.232C4.8965 45.232 6.5605 43.44 6.5605 42.544C6.5605 41.648 5.6645 39.984 5.5365 38.192C5.4085 37.168 4.0005 36.144 2.8485 35.504L1.4405 27.952L21.0245 8.112L39.3285 6.448C39.9685 7.088 41.2485 7.6 43.0405 7.6C46.1125 7.6 49.6965 5.808 50.3365 6.70399C50.7205 7.088 51.2325 6.31999 51.7445 5.424L63.2645 4.39999L88.6085 30L62.4965 43.184L55.7125 31.28L39.4565 34.096L29.6005 43.184L34.2085 55.472L27.2965 57.904L35.7445 59.312L38.0485 65.2ZM164.226 66.224L168.834 79.792L157.442 93.232L139.778 90.416L135.682 77.36L114.562 78.384L113.41 81.84L107.778 82.736L112.514 84.784L110.466 91.44L90.6255 94.128L87.9375 69.296L102.658 33.2L110.466 32.048L105.346 26.8L114.562 4.39999L136.706 9.392L139.266 15.536L140.802 10.416L145.922 11.568L155.521 40.368L155.778 40.88L157.442 46L159.234 51.248L162.434 60.848L158.21 60.336L164.226 66.224ZM115.714 55.472L132.61 54.064L123.65 29.744L115.714 55.472ZM260.473 65.584C260.473 65.584 262.649 68.272 262.649 69.04L263.033 76.72L259.449 89.648L240.632 94.128L233.593 86.32V80.048C236.025 78.768 242.553 75.184 242.553 75.184L233.465 75.824L233.209 51.376L221.945 69.296L208.121 65.84L200.953 45.36L199.801 72.368L193.785 73.904L199.673 75.824L199.289 86.576L190.585 94.128L170.361 87.728L170.105 69.168L178.297 64.176L169.977 65.584V61.36L172.153 48.432L174.457 46.384C174.457 46.384 174.713 46.256 174.457 44.592C174.201 43.056 174.713 43.568 174.585 41.904C174.329 40.368 174.585 38.448 174.585 38.448C174.585 38.448 174.713 39.6 174.585 37.424C174.457 35.248 174.585 34.48 174.585 34.48L176.121 25.904L181.753 4.39999H199.929L204.793 11.44C204.793 11.44 208.121 17.456 208.121 18.608C208.121 19.888 207.225 20.144 208.121 20.528C209.017 21.04 209.017 21.04 209.017 21.04L211.449 22.832C211.449 22.832 210.809 23.984 211.449 23.984C211.833 23.984 212.729 23.984 213.497 23.984L218.233 30.896L232.057 10.672L242.169 4.39999L259.961 17.072L260.601 27.952L249.337 31.536L260.729 32.176L261.881 52.656C261.241 53.296 260.473 54.704 260.473 54.704L259.705 57.52V59.184C259.705 59.184 260.217 60.592 260.473 61.872C260.729 63.28 259.961 63.024 259.833 64.688C259.577 66.224 260.473 65.584 260.473 65.584ZM327.143 38.448C327.143 39.472 327.783 40.112 328.423 41.008L326.887 46.768L312.807 61.104L294.247 62.256L293.863 73.776L289.511 93.616H275.559L266.983 85.168L267.879 68.656L275.943 62.256H268.263L270.567 24.88L278.759 23.216L270.823 20.272L271.207 12.592L286.183 4.784L322.023 7.216L334.183 19.76L332.519 25.904L328.295 27.056V30.512C328.295 30.512 327.655 33.2 327.143 33.2C326.759 33.328 327.143 36.784 327.143 38.448ZM306.279 43.952L313.447 29.744L305.127 23.984L294.119 22.448L293.991 27.568L292.199 28.976C292.199 28.976 292.199 31.792 292.199 32.56C292.199 33.328 293.735 35.76 293.735 36.528L293.607 40.496L306.279 43.952ZM401.275 15.536L398.331 29.488L384.891 30C384.891 29.36 385.531 29.232 383.611 29.232C380.923 29.232 380.155 28.464 380.155 28.464C380.155 28.464 381.819 28.08 379.259 28.464C376.571 28.848 377.595 28.976 376.187 28.976C374.779 28.976 373.883 28.592 373.499 28.976C373.243 29.232 372.603 30 372.219 30.64L367.227 30.896L366.971 38.448H388.347L390.395 47.152L382.715 58.416L366.458 59.952L366.331 65.584C366.331 65.968 364.539 67.632 363.003 69.68C361.339 71.6 363.515 70.576 364.283 71.856C365.179 73.264 364.283 71.856 364.283 73.136C364.283 74.416 364.411 74.16 365.307 76.976C365.562 77.616 365.691 78.128 365.947 78.384L365.819 81.456L361.979 94.128H343.547L335.611 85.552L337.786 45.488H347.387L338.043 40.24L339.579 12.208L364.795 6.31999L373.115 4.39999L387.195 10.032L380.795 14.64L391.163 11.568L401.275 15.536ZM431.539 78.384C431.539 78.384 432.435 79.152 432.691 79.664C432.947 80.048 434.099 82.096 434.099 82.096L425.139 94.128H412.211L402.483 87.984L402.867 79.024L410.675 76.208L403.123 74.928L403.763 63.152C405.171 62.512 406.451 61.744 406.067 60.336C405.683 58.416 404.915 57.904 404.915 57.008C404.915 56.112 405.939 54.448 406.195 52.656C406.323 50.992 407.731 51.504 406.579 49.2C405.299 46.896 404.659 45.36 404.659 45.36L406.195 15.28L421.811 4.39999L425.395 10.672C425.651 11.056 424.627 11.44 425.395 12.848C426.163 14.384 426.291 15.152 426.291 16.432C426.291 17.584 429.363 17.712 429.491 17.968L434.099 26.16V38.704L425.395 41.648L434.099 43.312V70.576C433.203 70.832 432.051 71.216 431.539 72.24C430.515 74.032 431.539 74.672 431.539 75.696C431.667 76.72 431.539 78.384 431.539 78.384ZM502.604 74.672L506.061 78.896L502.477 94.128L481.357 90.16L474.444 77.872C474.829 77.232 475.213 76.72 475.213 76.72L474.317 74.8C474.317 74.8 473.549 74.8 473.549 73.52C473.421 72.112 473.805 71.6 473.549 71.088C473.165 70.704 472.269 69.936 472.269 69.936L471.117 69.168C471.117 69.168 470.477 69.424 470.221 68.144C469.965 66.864 471.117 66.096 470.221 66.224C469.708 66.224 469.069 66.608 468.557 66.992L465.869 62.256L465.485 73.648L461.133 93.488H447.181L438.605 85.04L439.245 73.392C439.501 73.264 439.885 73.008 440.397 72.752C442.573 71.344 443.341 74.928 442.573 71.344C441.805 67.632 441.549 66.736 441.549 66.736C441.549 66.736 441.549 65.2 441.549 65.072C441.549 64.944 443.469 63.664 442.957 62C442.317 60.336 441.805 59.952 441.549 58.928C441.293 58.16 440.909 55.984 440.397 54.832L441.549 35.632L446.285 33.968C446.285 33.968 443.981 31.792 441.805 29.744L442.829 12.208L457.805 4.39999L493.645 6.83199L497.869 11.184L488.269 17.2L500.429 13.872L505.805 19.376L498.509 46.512L488.141 57.008L500.045 71.6C495.693 70.32 488.013 68.144 488.013 68.144L502.604 74.672ZM477.901 43.696L485.069 29.36L476.749 23.6L465.741 22.064L465.229 40.24L477.901 43.696ZM557.784 73.648L567.128 76.336L572.376 82.864L565.848 93.872H527.704H520.408L506.84 64.816L507.992 53.168C507.992 53.168 508.376 48.432 509.4 47.408C510.424 46.384 510.04 45.36 510.552 43.184C511.064 41.008 512.984 41.648 512.856 41.392C512.728 41.008 512.6 40.24 511.96 37.424C511.576 35.888 510.68 35.504 509.656 35.376L511.064 21.808L520.408 21.424L511.448 17.968L511.832 14.128L522.2 4.39999H544.088C544.984 5.808 546.392 7.6 547.8 7.47199C549.976 7.216 549.208 5.168 551.64 6.576C552.92 7.216 553.944 5.808 554.712 4.39999H563.672L572.376 21.936L566.744 25.648H538.712V36.528H560.216V46.128L556.12 55.984L538.712 58.8V68.784L558.04 65.072L564.056 72.496L557.784 73.648ZM145.8 169.656L161.288 162.232L170.504 174.008L166.024 191.288C162.696 192.824 162.568 193.976 162.568 193.976C162.568 193.976 162.951 193.464 162.312 195.128C161.672 196.664 160.904 198.2 160.904 198.2C160.904 198.2 161.416 197.56 161.16 199.352C160.904 201.144 160.007 202.808 160.007 202.808V205.24L162.184 206.648L158.984 219.064L150.152 224.568L136.712 209.976L115.976 208.312L97.5435 196.664L94.3435 179.64L101 177.592L93.7035 176.184L87.9435 144.312L91.6555 140.472C92.5515 140.856 93.3195 140.984 93.3195 140.984L95.1115 139.192H96.5195C96.5195 139.192 97.5435 139.704 100.744 135.864C103.944 132.024 100.744 135.864 101.896 132.536C102.536 130.616 102.28 130.36 101.768 130.232L106.376 125.624L148.232 121.784L156.808 130.488L141.576 131.768L160.776 134.456L173.32 147.256L147.464 160.184L140.808 148.408L124.68 151.352L114.824 160.184L123.272 182.072L142.088 180.664L144.008 175.032L149.256 174.392L144.648 172.984L145.8 169.656ZM249.476 183.224L254.084 196.792L242.692 210.232L225.028 207.416L220.932 194.36L199.812 195.384L198.66 198.84L193.028 199.736L197.764 201.784L195.716 208.44L175.876 211.128L173.188 186.296L187.908 150.2L195.716 149.048L190.596 143.8L199.812 121.4L221.956 126.392L224.516 132.536L226.052 127.416L231.172 128.568L240.771 157.368L241.028 157.88L242.692 163L244.484 168.248L247.684 177.848L243.46 177.336L249.476 183.224ZM200.964 172.472L217.86 171.064L208.9 146.744L200.964 172.472ZM345.723 182.584C345.723 182.584 347.899 185.272 347.899 186.04L348.283 193.72L344.699 206.648L325.882 211.128L318.843 203.32V197.048C321.275 195.768 327.803 192.184 327.803 192.184L318.715 192.824L318.459 168.376L307.195 186.296L293.371 182.84L286.203 162.36L285.051 189.368L279.035 190.904L284.923 192.824L284.539 203.576L275.835 211.128L255.611 204.728L255.355 186.168L263.547 181.176L255.227 182.584V178.36L257.403 165.432L259.707 163.384C259.707 163.384 259.963 163.256 259.707 161.592C259.451 160.056 259.963 160.568 259.835 158.904C259.579 157.368 259.835 155.448 259.835 155.448C259.835 155.448 259.963 156.6 259.835 154.424C259.707 152.248 259.835 151.48 259.835 151.48L261.371 142.904L267.003 121.4H285.179L290.043 128.44C290.043 128.44 293.371 134.456 293.371 135.608C293.371 136.888 292.475 137.144 293.371 137.528C294.267 138.04 294.267 138.04 294.267 138.04L296.699 139.832C296.699 139.832 296.059 140.984 296.699 140.984C297.083 140.984 297.979 140.984 298.747 140.984L303.483 147.896L317.307 127.672L327.419 121.4L345.211 134.072L345.851 144.952L334.587 148.536L345.979 149.176L347.131 169.656C346.491 170.296 345.723 171.704 345.723 171.704L344.955 174.52V176.184C344.955 176.184 345.467 177.592 345.723 178.872C345.979 180.28 345.211 180.024 345.083 181.688C344.827 183.224 345.723 182.584 345.723 182.584ZM402.409 190.648L411.753 193.336L417.001 199.864L410.473 210.872H372.329H365.033L351.465 181.816L352.617 170.168C352.617 170.168 353.001 165.432 354.025 164.408C355.049 163.384 354.665 162.36 355.177 160.184C355.689 158.008 357.609 158.648 357.481 158.392C357.353 158.008 357.225 157.24 356.585 154.424C356.201 152.888 355.305 152.504 354.281 152.376L355.689 138.808L365.033 138.424L356.073 134.968L356.457 131.128L366.825 121.4H388.713C389.609 122.808 391.017 124.6 392.425 124.472C394.601 124.216 393.833 122.168 396.265 123.576C397.545 124.216 398.569 122.808 399.337 121.4H408.297L417.001 138.936L411.369 142.648H383.337V153.528H404.841V163.128L400.745 172.984L383.337 175.8V185.784L402.665 182.072L408.681 189.496L402.409 190.648ZM476.833 198.584C477.217 201.4 477.217 201.4 477.217 201.4L475.425 207.288L430.241 211.128L425.889 204.216L432.289 201.144C432.289 201.144 427.681 201.272 424.097 201.528L417.569 191.16L429.729 179L455.713 186.808L455.969 181.176L433.825 172.216L417.697 148.28L421.281 142.392C421.793 142.136 422.433 141.88 423.073 141.624C424.993 140.984 424.225 141.24 425.121 139.832C425.76 138.936 425.505 138.936 425.249 138.936C425.633 138.808 426.529 138.168 426.401 137.4C426.273 136.504 427.169 135.48 427.169 134.84C427.169 134.2 428.705 133.816 428.705 133.816L429.857 132.408C429.857 132.408 429.857 131.384 428.961 129.72C428.961 129.592 428.961 129.464 428.833 129.464L433.697 121.4L473.249 123.192L476.321 127.288L466.209 128.952L478.881 131.128L484.769 139.32C484.769 139.32 473.761 148.28 472.993 148.28L442.529 140.856L444.193 150.968L453.537 154.552L459.297 161.464L460.065 157.112L478.113 164.152L485.665 174.264L481.697 187.448L480.161 187.96L479.137 190.264L478.753 192.696L477.473 194.36C476.833 195.512 476.705 196.024 476.833 196.92C476.961 197.816 476.321 195.64 476.833 198.584Z" fill="#F98F37"/>
</g>
<defs>
<filter id="filter0_dd_211_494" x="0.440498" y="0.399902" width="571.935" height="232.168" filterUnits="userSpaceOnUse" color-interpolation-filters="sRGB">
<feFlood flood-opacity="0" result="BackgroundImageFix"/>
<feColorMatrix in="SourceAlpha" type="matrix" values="0 0 0 0 0 0 0 0 0 0 0 0 0 0 0 0 0 0 127 0" result="hardAlpha"/>
<feOffset dy="8"/>
<feComposite in2="hardAlpha" operator="out"/>
<feColorMatrix type="matrix" values="0 0 0 0 0.666623 0 0 0 0 0.28887 0 0 0 0 0.0999935 0 0 0 1 0"/>
<feBlend mode="normal" in2="BackgroundImageFix" result="effect1_dropShadow_211_494"/>
<feColorMatrix in="SourceAlpha" type="matrix" values="0 0 0 0 0 0 0 0 0 0 0 0 0 0 0 0 0 0 127 0" result="hardAlpha"/>
<feOffset dx="-1" dy="-4"/>
<feComposite in2="hardAlpha" operator="out"/>
<feColorMatrix type="matrix" values="0 0 0 0 1 0 0 0 0 0.811462 0 0 0 0 0.655555 0 0 0 1 0"/>
<feBlend mode="normal" in2="effect1_dropShadow_211_494" result="effect2_dropShadow_211_494"/>
<feBlend mode="normal" in="SourceGraphic" in2="effect2_dropShadow_211_494" result="shape"/>
</filter>
</defs>
</svg>
