<svg width="312" height="176" viewBox="0 0 312 176" fill="none" xmlns="http://www.w3.org/2000/svg">
<path d="M53 97.821C50.344 97.821 47.96 97.373 45.848 96.477C43.768 95.581 42.008 94.349 40.568 92.781C39.096 91.181 37.96 89.293 37.16 87.117C36.392 84.941 36.008 82.637 36.008 80.205C36.008 77.549 36.44 75.133 37.304 72.957C38.2 70.749 39.432 68.861 41 67.293C42.6 65.725 44.504 64.509 46.712 63.645C48.92 62.749 51.304 62.301 53.864 62.301C55.304 62.301 56.68 62.429 57.992 62.685C59.304 62.941 60.536 63.277 61.688 63.693C62.84 64.109 63.912 64.541 64.904 64.989V69.261L61.64 69.453C60.712 68.941 59.56 68.557 58.184 68.301C56.808 68.013 55.48 67.869 54.2 67.869C51.832 67.869 49.784 68.381 48.056 69.405C46.36 70.429 45.064 71.853 44.168 73.677C43.272 75.501 42.824 77.645 42.824 80.109C42.824 82.445 43.24 84.541 44.072 86.397C44.904 88.221 46.136 89.661 47.768 90.717C49.4 91.773 51.384 92.301 53.72 92.301C55.032 92.301 56.264 92.109 57.416 91.725C58.6 91.309 59.72 90.621 60.776 89.661C60.936 89.533 61.112 89.437 61.304 89.373C61.496 89.277 61.688 89.229 61.88 89.229C62.232 89.229 62.536 89.357 62.792 89.613L65.432 92.397C64.088 94.093 62.376 95.421 60.296 96.381C58.216 97.341 55.784 97.821 53 97.821ZM60.248 68.157L64.904 69.261V73.485H62.408C61.992 73.485 61.672 73.373 61.448 73.149C61.224 72.893 61.064 72.541 60.968 72.093L60.248 68.157ZM75.5585 97.821C74.1505 97.821 72.9025 97.565 71.8145 97.053C70.7265 96.541 69.8785 95.789 69.2705 94.797C68.6625 93.805 68.3585 92.573 68.3585 91.101C68.3585 90.205 68.5985 89.309 69.0785 88.413C69.5905 87.485 70.4065 86.653 71.5265 85.917C72.6785 85.213 74.1985 84.621 76.0865 84.141C77.9745 83.629 80.3105 83.341 83.0945 83.277V81.885C83.0945 80.221 82.7425 79.005 82.0385 78.237C81.3665 77.437 80.3745 77.037 79.0625 77.037C78.1345 77.037 77.2705 77.229 76.4705 77.613C75.7025 77.965 74.9825 78.333 74.3105 78.717C73.6705 79.069 73.0465 79.245 72.4385 79.245C72.0225 79.245 71.6545 79.133 71.3345 78.909C71.0465 78.685 70.8225 78.429 70.6625 78.141L69.5585 76.221C70.9985 74.909 72.5665 73.933 74.2625 73.293C75.9905 72.653 77.8465 72.333 79.8305 72.333C81.7505 72.333 83.3985 72.733 84.7745 73.533C86.1505 74.333 87.2065 75.453 87.9425 76.893C88.6785 78.333 89.0465 79.997 89.0465 81.885V97.437H86.3105C85.7025 97.437 85.2385 97.357 84.9185 97.197C84.6305 97.037 84.3905 96.685 84.1985 96.141L83.7185 94.413C82.4705 95.501 81.2225 96.349 79.9745 96.957C78.7585 97.533 77.2865 97.821 75.5585 97.821ZM77.4785 93.693C78.6305 93.693 79.6385 93.485 80.5025 93.069C81.3985 92.621 82.2625 91.965 83.0945 91.101V86.973C81.6865 87.005 80.4225 87.117 79.3025 87.309C78.2145 87.469 77.2865 87.709 76.5185 88.029C75.7825 88.317 75.2065 88.701 74.7905 89.181C74.4065 89.629 74.2145 90.173 74.2145 90.813C74.2145 91.869 74.5025 92.621 75.0785 93.069C75.6865 93.485 76.4865 93.693 77.4785 93.693ZM87.8465 97.437L88.4705 92.589L91.2545 93.165C91.6705 93.261 92.0065 93.421 92.2625 93.645C92.5185 93.869 92.6465 94.205 92.6465 94.653V97.437H87.8465ZM98.3491 97.437V72.765H102.045C102.845 72.765 103.357 73.133 103.581 73.869L103.965 75.693C104.829 74.765 105.789 73.981 106.845 73.341C107.901 72.701 109.149 72.381 110.589 72.381C112.157 72.381 113.437 72.813 114.429 73.677C115.421 74.509 116.157 75.613 116.637 76.989C117.405 75.389 118.509 74.221 119.949 73.485C121.389 72.749 122.925 72.381 124.557 72.381C127.309 72.381 129.405 73.213 130.845 74.877C132.317 76.541 133.053 78.829 133.053 81.741V97.437H127.005V81.741C127.005 80.205 126.669 79.037 125.997 78.237C125.325 77.437 124.317 77.037 122.973 77.037C121.789 77.037 120.781 77.453 119.949 78.285C119.149 79.117 118.749 80.269 118.749 81.741V97.437H112.653V81.741C112.653 80.109 112.317 78.925 111.645 78.189C111.005 77.421 110.061 77.037 108.813 77.037C107.949 77.037 107.149 77.261 106.413 77.709C105.709 78.125 105.037 78.685 104.397 79.389V97.437H98.3491ZM94.7491 97.437V94.653C94.7491 94.205 94.8611 93.869 95.0851 93.645C95.3411 93.421 95.6931 93.261 96.1411 93.165L98.8771 92.589L99.5011 97.437H94.7491ZM103.245 97.437L103.869 92.589L106.605 93.165C107.053 93.261 107.389 93.421 107.613 93.645C107.869 93.869 107.997 94.205 107.997 94.653V97.437H103.245ZM117.597 97.437L118.173 92.589L120.957 93.165C121.373 93.261 121.709 93.421 121.965 93.645C122.221 93.869 122.349 94.205 122.349 94.653V97.437H117.597ZM99.5011 72.765L98.8771 77.613L96.1411 77.037C95.6931 76.941 95.3411 76.781 95.0851 76.557C94.8611 76.333 94.7491 75.997 94.7491 75.549V72.765H99.5011ZM131.901 97.437L132.525 92.589L135.261 93.165C135.709 93.261 136.045 93.421 136.269 93.645C136.525 93.869 136.653 94.205 136.653 94.653V97.437H131.901ZM142.365 105.501V72.765H146.061C146.893 72.765 147.405 73.133 147.597 73.869L148.077 76.173C149.101 75.021 150.253 74.093 151.533 73.389C152.845 72.685 154.333 72.333 155.997 72.333C157.949 72.333 159.597 72.861 160.941 73.917C162.285 74.973 163.309 76.445 164.013 78.333C164.749 80.221 165.117 82.413 165.117 84.909C165.117 87.309 164.685 89.485 163.821 91.437C162.957 93.357 161.741 94.909 160.173 96.093C158.605 97.245 156.717 97.821 154.509 97.821C153.133 97.821 151.965 97.613 151.005 97.197C150.077 96.749 149.213 96.141 148.413 95.373V105.501H142.365ZM153.117 93.261C154.365 93.261 155.405 92.941 156.237 92.301C157.101 91.661 157.741 90.717 158.157 89.469C158.605 88.221 158.829 86.701 158.829 84.909C158.829 82.317 158.429 80.365 157.629 79.053C156.861 77.709 155.629 77.037 153.933 77.037C152.717 77.037 151.677 77.293 150.813 77.805C149.981 78.285 149.181 79.005 148.413 79.965V91.053C149.085 91.853 149.805 92.429 150.573 92.781C151.373 93.101 152.221 93.261 153.117 93.261ZM143.517 72.765L142.893 77.613L140.157 77.037C139.709 76.941 139.357 76.781 139.101 76.557C138.877 76.333 138.765 75.997 138.765 75.549V72.765H143.517ZM138.765 105.501V102.717C138.765 102.269 138.877 101.933 139.101 101.709C139.357 101.485 139.709 101.325 140.157 101.229L142.893 100.653L143.517 105.501H138.765ZM147.261 105.501L147.885 100.653L150.621 101.229C151.069 101.325 151.405 101.485 151.629 101.709C151.885 101.933 152.013 102.269 152.013 102.717V105.501H147.261ZM171.384 97.437V77.277L169.32 76.941C168.872 76.845 168.488 76.685 168.168 76.461C167.88 76.237 167.736 75.901 167.736 75.453V73.005H171.384V71.565C171.384 69.677 171.848 68.029 172.776 66.621C173.736 65.181 175.144 64.077 177 63.309C178.856 62.509 181.128 62.109 183.816 62.109C186.376 62.109 188.456 62.317 190.056 62.733C191.688 63.117 192.888 63.677 193.656 64.413C194.456 65.117 194.856 65.933 194.856 66.861C194.856 67.821 194.52 68.685 193.848 69.453C193.208 70.189 192.36 70.557 191.304 70.557C190.312 70.557 189.512 70.253 188.904 69.645C188.296 69.005 187.96 68.397 187.896 67.821C187.832 67.629 187.784 67.437 187.752 67.245C187.752 67.053 187.752 66.909 187.752 66.813C187.336 66.685 186.808 66.605 186.168 66.573C185.56 66.509 184.856 66.477 184.056 66.477C182.52 66.477 181.256 66.685 180.264 67.101C179.272 67.517 178.52 68.173 178.008 69.069C177.528 69.933 177.288 71.053 177.288 72.429V73.005H194.376L193.608 77.229H177.48V97.437H171.384ZM188.28 97.437V73.005H194.376V97.437H188.28ZM167.784 97.437V94.653C167.784 94.205 167.912 93.869 168.168 93.645C168.424 93.421 168.76 93.261 169.176 93.165L171.96 92.589L172.536 97.437H167.784ZM176.328 97.437L176.952 92.589L179.688 93.165C180.136 93.261 180.472 93.421 180.696 93.645C180.952 93.869 181.08 94.205 181.08 94.653V97.437H176.328ZM184.68 97.437V94.653C184.68 94.205 184.808 93.869 185.064 93.645C185.32 93.421 185.656 93.261 186.072 93.165L188.856 92.589L189.432 97.437H184.68ZM193.176 97.437L193.8 92.589L196.584 93.165C197 93.261 197.336 93.421 197.592 93.645C197.848 93.869 197.976 94.205 197.976 94.653V97.437H193.176ZM203.677 97.437V72.765H207.229C207.869 72.765 208.301 72.893 208.525 73.149C208.781 73.373 208.957 73.757 209.053 74.301L209.389 77.229C210.285 75.693 211.309 74.493 212.461 73.629C213.645 72.765 214.973 72.333 216.445 72.333C217.053 72.333 217.597 72.413 218.077 72.573C218.589 72.701 219.037 72.893 219.421 73.149L218.653 77.661C218.621 77.949 218.509 78.157 218.317 78.285C218.157 78.381 217.949 78.429 217.693 78.429C217.533 78.429 217.165 78.381 216.589 78.285C216.013 78.189 215.501 78.141 215.053 78.141C213.837 78.141 212.797 78.477 211.933 79.149C211.069 79.821 210.333 80.797 209.725 82.077V97.437H203.677ZM208.573 97.437L209.197 92.589L211.933 93.165C212.381 93.261 212.717 93.421 212.941 93.645C213.197 93.869 213.325 94.205 213.325 94.653V97.437H208.573ZM200.077 97.437V94.653C200.077 94.205 200.189 93.869 200.413 93.645C200.669 93.421 201.021 93.261 201.469 93.165L204.205 92.589L204.829 97.437H200.077ZM204.829 72.765L204.205 77.613L201.469 77.037C201.021 76.941 200.669 76.781 200.413 76.557C200.189 76.333 200.077 75.997 200.077 75.549V72.765H204.829ZM233.22 97.821C230.756 97.821 228.612 97.277 226.788 96.189C224.964 95.069 223.54 93.517 222.516 91.533C221.524 89.517 221.028 87.197 221.028 84.573C221.028 82.269 221.524 80.205 222.516 78.381C223.508 76.525 224.9 75.069 226.692 74.013C228.484 72.925 230.564 72.381 232.932 72.381C235.076 72.381 236.948 72.845 238.548 73.773C240.18 74.669 241.428 75.949 242.292 77.613C243.188 79.277 243.636 81.261 243.636 83.565C243.636 84.429 243.556 85.037 243.396 85.389C243.236 85.709 242.852 85.869 242.244 85.869H227.124C227.124 85.965 227.124 86.061 227.124 86.157C227.124 86.253 227.14 86.349 227.172 86.445C227.428 88.685 228.116 90.365 229.236 91.485C230.388 92.605 231.892 93.165 233.748 93.165C234.612 93.165 235.476 92.989 236.34 92.637C237.236 92.285 238.052 91.933 238.788 91.581C239.524 91.197 240.116 91.005 240.564 91.005C241.012 91.005 241.38 91.181 241.668 91.533L243.444 93.741C242.58 94.733 241.572 95.533 240.42 96.141C239.3 96.749 238.116 97.181 236.868 97.437C235.652 97.693 234.436 97.821 233.22 97.821ZM227.22 82.269H238.212C238.212 80.669 237.78 79.341 236.916 78.285C236.052 77.229 234.772 76.701 233.076 76.701C231.38 76.701 230.036 77.181 229.044 78.141C228.084 79.101 227.476 80.477 227.22 82.269ZM53.768 155.821C51.208 155.821 48.84 155.389 46.664 154.525C44.488 153.661 42.6 152.429 41 150.829C39.464 149.229 38.248 147.341 37.352 145.165C36.456 142.989 36.008 140.605 36.008 138.013C36.008 135.453 36.44 133.085 37.304 130.909C38.168 128.701 39.384 126.813 40.952 125.245C42.52 123.677 44.408 122.461 46.616 121.597C48.856 120.733 51.368 120.301 54.152 120.301C55.816 120.301 57.32 120.413 58.664 120.637C60.04 120.861 61.368 121.181 62.648 121.597C63.928 121.981 65.224 122.445 66.536 122.989V127.261L62.888 127.453C61.704 126.909 60.344 126.509 58.808 126.253C57.304 125.997 55.736 125.869 54.104 125.869C51.736 125.869 49.704 126.381 48.008 127.405C46.344 128.429 45.064 129.853 44.168 131.677C43.272 133.501 42.824 135.629 42.824 138.061C42.824 140.589 43.288 142.797 44.216 144.685C45.144 146.573 46.456 148.045 48.152 149.101C49.88 150.125 51.896 150.637 54.2 150.637C55.512 150.637 56.696 150.509 57.752 150.253C58.84 149.965 59.848 149.597 60.776 149.149V142.909H56.504C56.088 142.909 55.752 142.797 55.496 142.573C55.272 142.317 55.16 142.013 55.16 141.661V138.013H66.776V152.077C65.048 153.325 63.096 154.269 60.92 154.909C58.776 155.517 56.392 155.821 53.768 155.821ZM61.88 126.157L66.536 127.261V131.485H64.088C63.64 131.485 63.304 131.373 63.08 131.149C62.856 130.893 62.696 130.541 62.6 130.093L61.88 126.157ZM78.6523 155.821C77.2443 155.821 75.9963 155.565 74.9083 155.053C73.8203 154.541 72.9723 153.789 72.3643 152.797C71.7563 151.805 71.4523 150.573 71.4523 149.101C71.4523 148.205 71.6923 147.309 72.1723 146.413C72.6843 145.485 73.5003 144.653 74.6203 143.917C75.7723 143.213 77.2923 142.621 79.1803 142.141C81.0683 141.629 83.4043 141.341 86.1883 141.277V139.885C86.1883 138.221 85.8363 137.005 85.1323 136.237C84.4603 135.437 83.4683 135.037 82.1562 135.037C81.2283 135.037 80.3643 135.229 79.5643 135.613C78.7963 135.965 78.0763 136.333 77.4043 136.717C76.7643 137.069 76.1403 137.245 75.5323 137.245C75.1163 137.245 74.7483 137.133 74.4283 136.909C74.1403 136.685 73.9163 136.429 73.7563 136.141L72.6523 134.221C74.0923 132.909 75.6603 131.933 77.3563 131.293C79.0843 130.653 80.9403 130.333 82.9243 130.333C84.8443 130.333 86.4923 130.733 87.8683 131.533C89.2443 132.333 90.3003 133.453 91.0363 134.893C91.7723 136.333 92.1403 137.997 92.1403 139.885V155.437H89.4043C88.7963 155.437 88.3323 155.357 88.0123 155.197C87.7243 155.037 87.4843 154.685 87.2923 154.141L86.8123 152.413C85.5643 153.501 84.3163 154.349 83.0683 154.957C81.8523 155.533 80.3803 155.821 78.6523 155.821ZM80.5723 151.693C81.7243 151.693 82.7323 151.485 83.5963 151.069C84.4923 150.621 85.3563 149.965 86.1883 149.101V144.973C84.7803 145.005 83.5163 145.117 82.3963 145.309C81.3083 145.469 80.3803 145.709 79.6123 146.029C78.8763 146.317 78.3003 146.701 77.8843 147.181C77.5003 147.629 77.3083 148.173 77.3083 148.813C77.3083 149.869 77.5963 150.621 78.1723 151.069C78.7803 151.485 79.5803 151.693 80.5723 151.693ZM90.9403 155.437L91.5643 150.589L94.3483 151.165C94.7643 151.261 95.1003 151.421 95.3563 151.645C95.6123 151.869 95.7403 152.205 95.7403 152.653V155.437H90.9403ZM101.443 155.437V130.765H105.139C105.939 130.765 106.451 131.133 106.675 131.869L107.059 133.693C107.923 132.765 108.883 131.981 109.939 131.341C110.995 130.701 112.243 130.381 113.683 130.381C115.251 130.381 116.531 130.813 117.523 131.677C118.515 132.509 119.251 133.613 119.731 134.989C120.499 133.389 121.603 132.221 123.043 131.485C124.483 130.749 126.019 130.381 127.651 130.381C130.403 130.381 132.499 131.213 133.939 132.877C135.411 134.541 136.147 136.829 136.147 139.741V155.437H130.099V139.741C130.099 138.205 129.763 137.037 129.091 136.237C128.419 135.437 127.411 135.037 126.067 135.037C124.883 135.037 123.875 135.453 123.043 136.285C122.243 137.117 121.843 138.269 121.843 139.741V155.437H115.747V139.741C115.747 138.109 115.411 136.925 114.739 136.189C114.099 135.421 113.155 135.037 111.907 135.037C111.043 135.037 110.243 135.261 109.507 135.709C108.803 136.125 108.131 136.685 107.491 137.389V155.437H101.443ZM97.8429 155.437V152.653C97.8429 152.205 97.9549 151.869 98.1789 151.645C98.4349 151.421 98.7869 151.261 99.2349 151.165L101.971 150.589L102.595 155.437H97.8429ZM106.339 155.437L106.963 150.589L109.699 151.165C110.147 151.261 110.483 151.421 110.707 151.645C110.963 151.869 111.091 152.205 111.091 152.653V155.437H106.339ZM120.691 155.437L121.267 150.589L124.051 151.165C124.467 151.261 124.803 151.421 125.059 151.645C125.315 151.869 125.443 152.205 125.443 152.653V155.437H120.691ZM102.595 130.765L101.971 135.613L99.2349 135.037C98.7869 134.941 98.4349 134.781 98.1789 134.557C97.9549 134.333 97.8429 133.997 97.8429 133.549V130.765H102.595ZM134.995 155.437L135.619 150.589L138.355 151.165C138.803 151.261 139.139 151.421 139.363 151.645C139.619 151.869 139.747 152.205 139.747 152.653V155.437H134.995ZM153.955 155.821C151.491 155.821 149.347 155.277 147.523 154.189C145.699 153.069 144.275 151.517 143.251 149.533C142.259 147.517 141.763 145.197 141.763 142.573C141.763 140.269 142.259 138.205 143.251 136.381C144.243 134.525 145.635 133.069 147.427 132.013C149.219 130.925 151.299 130.381 153.667 130.381C155.811 130.381 157.683 130.845 159.283 131.773C160.915 132.669 162.163 133.949 163.027 135.613C163.923 137.277 164.371 139.261 164.371 141.565C164.371 142.429 164.291 143.037 164.131 143.389C163.971 143.709 163.587 143.869 162.979 143.869H147.859C147.859 143.965 147.859 144.061 147.859 144.157C147.859 144.253 147.875 144.349 147.907 144.445C148.163 146.685 148.851 148.365 149.971 149.485C151.123 150.605 152.627 151.165 154.483 151.165C155.347 151.165 156.211 150.989 157.075 150.637C157.971 150.285 158.787 149.933 159.523 149.581C160.259 149.197 160.851 149.005 161.299 149.005C161.747 149.005 162.115 149.181 162.403 149.533L164.179 151.741C163.315 152.733 162.307 153.533 161.155 154.141C160.035 154.749 158.851 155.181 157.603 155.437C156.387 155.693 155.171 155.821 153.955 155.821ZM147.955 140.269H158.947C158.947 138.669 158.515 137.341 157.651 136.285C156.787 135.229 155.507 134.701 153.811 134.701C152.115 134.701 150.771 135.181 149.779 136.141C148.819 137.101 148.211 138.477 147.955 140.269ZM175.289 155.821C173.881 155.821 172.473 155.693 171.065 155.437C169.657 155.181 168.425 154.877 167.369 154.525V150.445L170.249 150.349C170.633 150.669 171.321 150.973 172.313 151.261C173.305 151.517 174.345 151.645 175.433 151.645C176.777 151.645 177.785 151.373 178.457 150.829C179.129 150.285 179.465 149.581 179.465 148.717C179.465 147.917 179.161 147.309 178.553 146.893C177.977 146.445 177.225 146.077 176.297 145.789C175.401 145.501 174.473 145.197 173.513 144.877C172.393 144.493 171.369 144.029 170.441 143.485C169.513 142.941 168.777 142.221 168.233 141.325C167.689 140.429 167.417 139.325 167.417 138.013C167.417 136.509 167.801 135.181 168.569 134.029C169.369 132.877 170.457 131.981 171.833 131.341C173.241 130.701 174.873 130.381 176.729 130.381C178.105 130.381 179.369 130.573 180.521 130.957C181.705 131.309 182.873 131.741 184.025 132.253V135.277L181.001 135.661C180.425 135.469 179.801 135.277 179.129 135.085C178.457 134.861 177.721 134.749 176.921 134.749C176.185 134.749 175.529 134.861 174.953 135.085C174.377 135.309 173.929 135.613 173.609 135.997C173.321 136.381 173.177 136.845 173.177 137.389C173.177 138.125 173.497 138.717 174.137 139.165C174.777 139.581 175.577 139.949 176.537 140.269C177.497 140.557 178.393 140.845 179.225 141.133C180.281 141.485 181.257 141.933 182.153 142.477C183.081 142.989 183.817 143.661 184.361 144.493C184.905 145.325 185.177 146.397 185.177 147.709C185.177 149.309 184.777 150.717 183.977 151.933C183.177 153.149 182.041 154.109 180.569 154.813C179.097 155.485 177.337 155.821 175.289 155.821ZM179.753 133.981L184.025 135.037V138.781H181.817C181.369 138.781 181.033 138.653 180.809 138.397C180.585 138.141 180.425 137.805 180.329 137.389L179.753 133.981ZM171.641 152.317L167.369 151.261V147.517H169.577C170.057 147.517 170.393 147.645 170.585 147.901C170.809 148.157 170.969 148.493 171.065 148.909L171.641 152.317Z" fill="#FFF7EB"/>
<g filter="url(#filter0_f_1153_1423)">
<path d="M53 97.821C50.344 97.821 47.96 97.373 45.848 96.477C43.768 95.581 42.008 94.349 40.568 92.781C39.096 91.181 37.96 89.293 37.16 87.117C36.392 84.941 36.008 82.637 36.008 80.205C36.008 77.549 36.44 75.133 37.304 72.957C38.2 70.749 39.432 68.861 41 67.293C42.6 65.725 44.504 64.509 46.712 63.645C48.92 62.749 51.304 62.301 53.864 62.301C55.304 62.301 56.68 62.429 57.992 62.685C59.304 62.941 60.536 63.277 61.688 63.693C62.84 64.109 63.912 64.541 64.904 64.989V69.261L61.64 69.453C60.712 68.941 59.56 68.557 58.184 68.301C56.808 68.013 55.48 67.869 54.2 67.869C51.832 67.869 49.784 68.381 48.056 69.405C46.36 70.429 45.064 71.853 44.168 73.677C43.272 75.501 42.824 77.645 42.824 80.109C42.824 82.445 43.24 84.541 44.072 86.397C44.904 88.221 46.136 89.661 47.768 90.717C49.4 91.773 51.384 92.301 53.72 92.301C55.032 92.301 56.264 92.109 57.416 91.725C58.6 91.309 59.72 90.621 60.776 89.661C60.936 89.533 61.112 89.437 61.304 89.373C61.496 89.277 61.688 89.229 61.88 89.229C62.232 89.229 62.536 89.357 62.792 89.613L65.432 92.397C64.088 94.093 62.376 95.421 60.296 96.381C58.216 97.341 55.784 97.821 53 97.821ZM60.248 68.157L64.904 69.261V73.485H62.408C61.992 73.485 61.672 73.373 61.448 73.149C61.224 72.893 61.064 72.541 60.968 72.093L60.248 68.157ZM75.5585 97.821C74.1505 97.821 72.9025 97.565 71.8145 97.053C70.7265 96.541 69.8785 95.789 69.2705 94.797C68.6625 93.805 68.3585 92.573 68.3585 91.101C68.3585 90.205 68.5985 89.309 69.0785 88.413C69.5905 87.485 70.4065 86.653 71.5265 85.917C72.6785 85.213 74.1985 84.621 76.0865 84.141C77.9745 83.629 80.3105 83.341 83.0945 83.277V81.885C83.0945 80.221 82.7425 79.005 82.0385 78.237C81.3665 77.437 80.3745 77.037 79.0625 77.037C78.1345 77.037 77.2705 77.229 76.4705 77.613C75.7025 77.965 74.9825 78.333 74.3105 78.717C73.6705 79.069 73.0465 79.245 72.4385 79.245C72.0225 79.245 71.6545 79.133 71.3345 78.909C71.0465 78.685 70.8225 78.429 70.6625 78.141L69.5585 76.221C70.9985 74.909 72.5665 73.933 74.2625 73.293C75.9905 72.653 77.8465 72.333 79.8305 72.333C81.7505 72.333 83.3985 72.733 84.7745 73.533C86.1505 74.333 87.2065 75.453 87.9425 76.893C88.6785 78.333 89.0465 79.997 89.0465 81.885V97.437H86.3105C85.7025 97.437 85.2385 97.357 84.9185 97.197C84.6305 97.037 84.3905 96.685 84.1985 96.141L83.7185 94.413C82.4705 95.501 81.2225 96.349 79.9745 96.957C78.7585 97.533 77.2865 97.821 75.5585 97.821ZM77.4785 93.693C78.6305 93.693 79.6385 93.485 80.5025 93.069C81.3985 92.621 82.2625 91.965 83.0945 91.101V86.973C81.6865 87.005 80.4225 87.117 79.3025 87.309C78.2145 87.469 77.2865 87.709 76.5185 88.029C75.7825 88.317 75.2065 88.701 74.7905 89.181C74.4065 89.629 74.2145 90.173 74.2145 90.813C74.2145 91.869 74.5025 92.621 75.0785 93.069C75.6865 93.485 76.4865 93.693 77.4785 93.693ZM87.8465 97.437L88.4705 92.589L91.2545 93.165C91.6705 93.261 92.0065 93.421 92.2625 93.645C92.5185 93.869 92.6465 94.205 92.6465 94.653V97.437H87.8465ZM98.3491 97.437V72.765H102.045C102.845 72.765 103.357 73.133 103.581 73.869L103.965 75.693C104.829 74.765 105.789 73.981 106.845 73.341C107.901 72.701 109.149 72.381 110.589 72.381C112.157 72.381 113.437 72.813 114.429 73.677C115.421 74.509 116.157 75.613 116.637 76.989C117.405 75.389 118.509 74.221 119.949 73.485C121.389 72.749 122.925 72.381 124.557 72.381C127.309 72.381 129.405 73.213 130.845 74.877C132.317 76.541 133.053 78.829 133.053 81.741V97.437H127.005V81.741C127.005 80.205 126.669 79.037 125.997 78.237C125.325 77.437 124.317 77.037 122.973 77.037C121.789 77.037 120.781 77.453 119.949 78.285C119.149 79.117 118.749 80.269 118.749 81.741V97.437H112.653V81.741C112.653 80.109 112.317 78.925 111.645 78.189C111.005 77.421 110.061 77.037 108.813 77.037C107.949 77.037 107.149 77.261 106.413 77.709C105.709 78.125 105.037 78.685 104.397 79.389V97.437H98.3491ZM94.7491 97.437V94.653C94.7491 94.205 94.8611 93.869 95.0851 93.645C95.3411 93.421 95.6931 93.261 96.1411 93.165L98.8771 92.589L99.5011 97.437H94.7491ZM103.245 97.437L103.869 92.589L106.605 93.165C107.053 93.261 107.389 93.421 107.613 93.645C107.869 93.869 107.997 94.205 107.997 94.653V97.437H103.245ZM117.597 97.437L118.173 92.589L120.957 93.165C121.373 93.261 121.709 93.421 121.965 93.645C122.221 93.869 122.349 94.205 122.349 94.653V97.437H117.597ZM99.5011 72.765L98.8771 77.613L96.1411 77.037C95.6931 76.941 95.3411 76.781 95.0851 76.557C94.8611 76.333 94.7491 75.997 94.7491 75.549V72.765H99.5011ZM131.901 97.437L132.525 92.589L135.261 93.165C135.709 93.261 136.045 93.421 136.269 93.645C136.525 93.869 136.653 94.205 136.653 94.653V97.437H131.901ZM142.365 105.501V72.765H146.061C146.893 72.765 147.405 73.133 147.597 73.869L148.077 76.173C149.101 75.021 150.253 74.093 151.533 73.389C152.845 72.685 154.333 72.333 155.997 72.333C157.949 72.333 159.597 72.861 160.941 73.917C162.285 74.973 163.309 76.445 164.013 78.333C164.749 80.221 165.117 82.413 165.117 84.909C165.117 87.309 164.685 89.485 163.821 91.437C162.957 93.357 161.741 94.909 160.173 96.093C158.605 97.245 156.717 97.821 154.509 97.821C153.133 97.821 151.965 97.613 151.005 97.197C150.077 96.749 149.213 96.141 148.413 95.373V105.501H142.365ZM153.117 93.261C154.365 93.261 155.405 92.941 156.237 92.301C157.101 91.661 157.741 90.717 158.157 89.469C158.605 88.221 158.829 86.701 158.829 84.909C158.829 82.317 158.429 80.365 157.629 79.053C156.861 77.709 155.629 77.037 153.933 77.037C152.717 77.037 151.677 77.293 150.813 77.805C149.981 78.285 149.181 79.005 148.413 79.965V91.053C149.085 91.853 149.805 92.429 150.573 92.781C151.373 93.101 152.221 93.261 153.117 93.261ZM143.517 72.765L142.893 77.613L140.157 77.037C139.709 76.941 139.357 76.781 139.101 76.557C138.877 76.333 138.765 75.997 138.765 75.549V72.765H143.517ZM138.765 105.501V102.717C138.765 102.269 138.877 101.933 139.101 101.709C139.357 101.485 139.709 101.325 140.157 101.229L142.893 100.653L143.517 105.501H138.765ZM147.261 105.501L147.885 100.653L150.621 101.229C151.069 101.325 151.405 101.485 151.629 101.709C151.885 101.933 152.013 102.269 152.013 102.717V105.501H147.261ZM171.384 97.437V77.277L169.32 76.941C168.872 76.845 168.488 76.685 168.168 76.461C167.88 76.237 167.736 75.901 167.736 75.453V73.005H171.384V71.565C171.384 69.677 171.848 68.029 172.776 66.621C173.736 65.181 175.144 64.077 177 63.309C178.856 62.509 181.128 62.109 183.816 62.109C186.376 62.109 188.456 62.317 190.056 62.733C191.688 63.117 192.888 63.677 193.656 64.413C194.456 65.117 194.856 65.933 194.856 66.861C194.856 67.821 194.52 68.685 193.848 69.453C193.208 70.189 192.36 70.557 191.304 70.557C190.312 70.557 189.512 70.253 188.904 69.645C188.296 69.005 187.96 68.397 187.896 67.821C187.832 67.629 187.784 67.437 187.752 67.245C187.752 67.053 187.752 66.909 187.752 66.813C187.336 66.685 186.808 66.605 186.168 66.573C185.56 66.509 184.856 66.477 184.056 66.477C182.52 66.477 181.256 66.685 180.264 67.101C179.272 67.517 178.52 68.173 178.008 69.069C177.528 69.933 177.288 71.053 177.288 72.429V73.005H194.376L193.608 77.229H177.48V97.437H171.384ZM188.28 97.437V73.005H194.376V97.437H188.28ZM167.784 97.437V94.653C167.784 94.205 167.912 93.869 168.168 93.645C168.424 93.421 168.76 93.261 169.176 93.165L171.96 92.589L172.536 97.437H167.784ZM176.328 97.437L176.952 92.589L179.688 93.165C180.136 93.261 180.472 93.421 180.696 93.645C180.952 93.869 181.08 94.205 181.08 94.653V97.437H176.328ZM184.68 97.437V94.653C184.68 94.205 184.808 93.869 185.064 93.645C185.32 93.421 185.656 93.261 186.072 93.165L188.856 92.589L189.432 97.437H184.68ZM193.176 97.437L193.8 92.589L196.584 93.165C197 93.261 197.336 93.421 197.592 93.645C197.848 93.869 197.976 94.205 197.976 94.653V97.437H193.176ZM203.677 97.437V72.765H207.229C207.869 72.765 208.301 72.893 208.525 73.149C208.781 73.373 208.957 73.757 209.053 74.301L209.389 77.229C210.285 75.693 211.309 74.493 212.461 73.629C213.645 72.765 214.973 72.333 216.445 72.333C217.053 72.333 217.597 72.413 218.077 72.573C218.589 72.701 219.037 72.893 219.421 73.149L218.653 77.661C218.621 77.949 218.509 78.157 218.317 78.285C218.157 78.381 217.949 78.429 217.693 78.429C217.533 78.429 217.165 78.381 216.589 78.285C216.013 78.189 215.501 78.141 215.053 78.141C213.837 78.141 212.797 78.477 211.933 79.149C211.069 79.821 210.333 80.797 209.725 82.077V97.437H203.677ZM208.573 97.437L209.197 92.589L211.933 93.165C212.381 93.261 212.717 93.421 212.941 93.645C213.197 93.869 213.325 94.205 213.325 94.653V97.437H208.573ZM200.077 97.437V94.653C200.077 94.205 200.189 93.869 200.413 93.645C200.669 93.421 201.021 93.261 201.469 93.165L204.205 92.589L204.829 97.437H200.077ZM204.829 72.765L204.205 77.613L201.469 77.037C201.021 76.941 200.669 76.781 200.413 76.557C200.189 76.333 200.077 75.997 200.077 75.549V72.765H204.829ZM233.22 97.821C230.756 97.821 228.612 97.277 226.788 96.189C224.964 95.069 223.54 93.517 222.516 91.533C221.524 89.517 221.028 87.197 221.028 84.573C221.028 82.269 221.524 80.205 222.516 78.381C223.508 76.525 224.9 75.069 226.692 74.013C228.484 72.925 230.564 72.381 232.932 72.381C235.076 72.381 236.948 72.845 238.548 73.773C240.18 74.669 241.428 75.949 242.292 77.613C243.188 79.277 243.636 81.261 243.636 83.565C243.636 84.429 243.556 85.037 243.396 85.389C243.236 85.709 242.852 85.869 242.244 85.869H227.124C227.124 85.965 227.124 86.061 227.124 86.157C227.124 86.253 227.14 86.349 227.172 86.445C227.428 88.685 228.116 90.365 229.236 91.485C230.388 92.605 231.892 93.165 233.748 93.165C234.612 93.165 235.476 92.989 236.34 92.637C237.236 92.285 238.052 91.933 238.788 91.581C239.524 91.197 240.116 91.005 240.564 91.005C241.012 91.005 241.38 91.181 241.668 91.533L243.444 93.741C242.58 94.733 241.572 95.533 240.42 96.141C239.3 96.749 238.116 97.181 236.868 97.437C235.652 97.693 234.436 97.821 233.22 97.821ZM227.22 82.269H238.212C238.212 80.669 237.78 79.341 236.916 78.285C236.052 77.229 234.772 76.701 233.076 76.701C231.38 76.701 230.036 77.181 229.044 78.141C228.084 79.101 227.476 80.477 227.22 82.269ZM53.768 155.821C51.208 155.821 48.84 155.389 46.664 154.525C44.488 153.661 42.6 152.429 41 150.829C39.464 149.229 38.248 147.341 37.352 145.165C36.456 142.989 36.008 140.605 36.008 138.013C36.008 135.453 36.44 133.085 37.304 130.909C38.168 128.701 39.384 126.813 40.952 125.245C42.52 123.677 44.408 122.461 46.616 121.597C48.856 120.733 51.368 120.301 54.152 120.301C55.816 120.301 57.32 120.413 58.664 120.637C60.04 120.861 61.368 121.181 62.648 121.597C63.928 121.981 65.224 122.445 66.536 122.989V127.261L62.888 127.453C61.704 126.909 60.344 126.509 58.808 126.253C57.304 125.997 55.736 125.869 54.104 125.869C51.736 125.869 49.704 126.381 48.008 127.405C46.344 128.429 45.064 129.853 44.168 131.677C43.272 133.501 42.824 135.629 42.824 138.061C42.824 140.589 43.288 142.797 44.216 144.685C45.144 146.573 46.456 148.045 48.152 149.101C49.88 150.125 51.896 150.637 54.2 150.637C55.512 150.637 56.696 150.509 57.752 150.253C58.84 149.965 59.848 149.597 60.776 149.149V142.909H56.504C56.088 142.909 55.752 142.797 55.496 142.573C55.272 142.317 55.16 142.013 55.16 141.661V138.013H66.776V152.077C65.048 153.325 63.096 154.269 60.92 154.909C58.776 155.517 56.392 155.821 53.768 155.821ZM61.88 126.157L66.536 127.261V131.485H64.088C63.64 131.485 63.304 131.373 63.08 131.149C62.856 130.893 62.696 130.541 62.6 130.093L61.88 126.157ZM78.6523 155.821C77.2443 155.821 75.9963 155.565 74.9083 155.053C73.8203 154.541 72.9723 153.789 72.3643 152.797C71.7563 151.805 71.4523 150.573 71.4523 149.101C71.4523 148.205 71.6923 147.309 72.1723 146.413C72.6843 145.485 73.5003 144.653 74.6203 143.917C75.7723 143.213 77.2923 142.621 79.1803 142.141C81.0683 141.629 83.4043 141.341 86.1883 141.277V139.885C86.1883 138.221 85.8363 137.005 85.1323 136.237C84.4603 135.437 83.4683 135.037 82.1562 135.037C81.2283 135.037 80.3643 135.229 79.5643 135.613C78.7963 135.965 78.0763 136.333 77.4043 136.717C76.7643 137.069 76.1403 137.245 75.5323 137.245C75.1163 137.245 74.7483 137.133 74.4283 136.909C74.1403 136.685 73.9163 136.429 73.7563 136.141L72.6523 134.221C74.0923 132.909 75.6603 131.933 77.3563 131.293C79.0843 130.653 80.9403 130.333 82.9243 130.333C84.8443 130.333 86.4923 130.733 87.8683 131.533C89.2443 132.333 90.3003 133.453 91.0363 134.893C91.7723 136.333 92.1403 137.997 92.1403 139.885V155.437H89.4043C88.7963 155.437 88.3323 155.357 88.0123 155.197C87.7243 155.037 87.4843 154.685 87.2923 154.141L86.8123 152.413C85.5643 153.501 84.3163 154.349 83.0683 154.957C81.8523 155.533 80.3803 155.821 78.6523 155.821ZM80.5723 151.693C81.7243 151.693 82.7323 151.485 83.5963 151.069C84.4923 150.621 85.3563 149.965 86.1883 149.101V144.973C84.7803 145.005 83.5163 145.117 82.3963 145.309C81.3083 145.469 80.3803 145.709 79.6123 146.029C78.8763 146.317 78.3003 146.701 77.8843 147.181C77.5003 147.629 77.3083 148.173 77.3083 148.813C77.3083 149.869 77.5963 150.621 78.1723 151.069C78.7803 151.485 79.5803 151.693 80.5723 151.693ZM90.9403 155.437L91.5643 150.589L94.3483 151.165C94.7643 151.261 95.1003 151.421 95.3563 151.645C95.6123 151.869 95.7403 152.205 95.7403 152.653V155.437H90.9403ZM101.443 155.437V130.765H105.139C105.939 130.765 106.451 131.133 106.675 131.869L107.059 133.693C107.923 132.765 108.883 131.981 109.939 131.341C110.995 130.701 112.243 130.381 113.683 130.381C115.251 130.381 116.531 130.813 117.523 131.677C118.515 132.509 119.251 133.613 119.731 134.989C120.499 133.389 121.603 132.221 123.043 131.485C124.483 130.749 126.019 130.381 127.651 130.381C130.403 130.381 132.499 131.213 133.939 132.877C135.411 134.541 136.147 136.829 136.147 139.741V155.437H130.099V139.741C130.099 138.205 129.763 137.037 129.091 136.237C128.419 135.437 127.411 135.037 126.067 135.037C124.883 135.037 123.875 135.453 123.043 136.285C122.243 137.117 121.843 138.269 121.843 139.741V155.437H115.747V139.741C115.747 138.109 115.411 136.925 114.739 136.189C114.099 135.421 113.155 135.037 111.907 135.037C111.043 135.037 110.243 135.261 109.507 135.709C108.803 136.125 108.131 136.685 107.491 137.389V155.437H101.443ZM97.8429 155.437V152.653C97.8429 152.205 97.9549 151.869 98.1789 151.645C98.4349 151.421 98.7869 151.261 99.2349 151.165L101.971 150.589L102.595 155.437H97.8429ZM106.339 155.437L106.963 150.589L109.699 151.165C110.147 151.261 110.483 151.421 110.707 151.645C110.963 151.869 111.091 152.205 111.091 152.653V155.437H106.339ZM120.691 155.437L121.267 150.589L124.051 151.165C124.467 151.261 124.803 151.421 125.059 151.645C125.315 151.869 125.443 152.205 125.443 152.653V155.437H120.691ZM102.595 130.765L101.971 135.613L99.2349 135.037C98.7869 134.941 98.4349 134.781 98.1789 134.557C97.9549 134.333 97.8429 133.997 97.8429 133.549V130.765H102.595ZM134.995 155.437L135.619 150.589L138.355 151.165C138.803 151.261 139.139 151.421 139.363 151.645C139.619 151.869 139.747 152.205 139.747 152.653V155.437H134.995ZM153.955 155.821C151.491 155.821 149.347 155.277 147.523 154.189C145.699 153.069 144.275 151.517 143.251 149.533C142.259 147.517 141.763 145.197 141.763 142.573C141.763 140.269 142.259 138.205 143.251 136.381C144.243 134.525 145.635 133.069 147.427 132.013C149.219 130.925 151.299 130.381 153.667 130.381C155.811 130.381 157.683 130.845 159.283 131.773C160.915 132.669 162.163 133.949 163.027 135.613C163.923 137.277 164.371 139.261 164.371 141.565C164.371 142.429 164.291 143.037 164.131 143.389C163.971 143.709 163.587 143.869 162.979 143.869H147.859C147.859 143.965 147.859 144.061 147.859 144.157C147.859 144.253 147.875 144.349 147.907 144.445C148.163 146.685 148.851 148.365 149.971 149.485C151.123 150.605 152.627 151.165 154.483 151.165C155.347 151.165 156.211 150.989 157.075 150.637C157.971 150.285 158.787 149.933 159.523 149.581C160.259 149.197 160.851 149.005 161.299 149.005C161.747 149.005 162.115 149.181 162.403 149.533L164.179 151.741C163.315 152.733 162.307 153.533 161.155 154.141C160.035 154.749 158.851 155.181 157.603 155.437C156.387 155.693 155.171 155.821 153.955 155.821ZM147.955 140.269H158.947C158.947 138.669 158.515 137.341 157.651 136.285C156.787 135.229 155.507 134.701 153.811 134.701C152.115 134.701 150.771 135.181 149.779 136.141C148.819 137.101 148.211 138.477 147.955 140.269ZM175.289 155.821C173.881 155.821 172.473 155.693 171.065 155.437C169.657 155.181 168.425 154.877 167.369 154.525V150.445L170.249 150.349C170.633 150.669 171.321 150.973 172.313 151.261C173.305 151.517 174.345 151.645 175.433 151.645C176.777 151.645 177.785 151.373 178.457 150.829C179.129 150.285 179.465 149.581 179.465 148.717C179.465 147.917 179.161 147.309 178.553 146.893C177.977 146.445 177.225 146.077 176.297 145.789C175.401 145.501 174.473 145.197 173.513 144.877C172.393 144.493 171.369 144.029 170.441 143.485C169.513 142.941 168.777 142.221 168.233 141.325C167.689 140.429 167.417 139.325 167.417 138.013C167.417 136.509 167.801 135.181 168.569 134.029C169.369 132.877 170.457 131.981 171.833 131.341C173.241 130.701 174.873 130.381 176.729 130.381C178.105 130.381 179.369 130.573 180.521 130.957C181.705 131.309 182.873 131.741 184.025 132.253V135.277L181.001 135.661C180.425 135.469 179.801 135.277 179.129 135.085C178.457 134.861 177.721 134.749 176.921 134.749C176.185 134.749 175.529 134.861 174.953 135.085C174.377 135.309 173.929 135.613 173.609 135.997C173.321 136.381 173.177 136.845 173.177 137.389C173.177 138.125 173.497 138.717 174.137 139.165C174.777 139.581 175.577 139.949 176.537 140.269C177.497 140.557 178.393 140.845 179.225 141.133C180.281 141.485 181.257 141.933 182.153 142.477C183.081 142.989 183.817 143.661 184.361 144.493C184.905 145.325 185.177 146.397 185.177 147.709C185.177 149.309 184.777 150.717 183.977 151.933C183.177 153.149 182.041 154.109 180.569 154.813C179.097 155.485 177.337 155.821 175.289 155.821ZM179.753 133.981L184.025 135.037V138.781H181.817C181.369 138.781 181.033 138.653 180.809 138.397C180.585 138.141 180.425 137.805 180.329 137.389L179.753 133.981ZM171.641 152.317L167.369 151.261V147.517H169.577C170.057 147.517 170.393 147.645 170.585 147.901C170.809 148.157 170.969 148.493 171.065 148.909L171.641 152.317Z" fill="#FFF7EB"/>
</g>
<ellipse cx="13.8586" cy="12.9337" rx="13.8586" ry="12.9337" transform="matrix(-0.950549 -0.310575 -0.310664 0.95052 280.304 55.0757)" fill="url(#paint0_radial_1153_1423)"/>
<path d="M265.954 57.4179C265.938 56.5597 264.848 56.2037 264.328 56.8865L262.547 59.2251C262.314 59.5318 261.911 59.657 261.545 59.5373L258.705 58.6096C257.857 58.3324 257.161 59.3197 257.708 60.0253L259.415 62.2283C259.666 62.5527 259.668 63.0054 259.419 63.3318L257.75 65.5241C257.221 66.2179 257.882 67.1844 258.72 66.9433L261.685 66.0907C262.042 65.9882 262.424 66.1133 262.652 66.4065L264.541 68.845C265.075 69.5344 266.179 69.1448 266.162 68.2728L266.11 65.5178C266.102 65.1076 266.371 64.7433 266.765 64.6299L269.444 63.8596C270.301 63.6129 270.323 62.4054 269.475 62.1282L266.635 61.2004C266.269 61.0807 266.018 60.7422 266.011 60.3568L265.954 57.4179Z" fill="#FFF7EB"/>
<ellipse cx="8.60399" cy="8.18515" rx="8.60399" ry="8.18515" transform="matrix(-0.999082 0.0428279 0.0904278 0.995903 298.948 39.9785)" fill="url(#paint1_radial_1153_1423)"/>
<path d="M291.328 44.5502C291.107 44.0478 290.384 44.0788 290.255 44.5962L289.819 46.3549C289.761 46.587 289.56 46.75 289.317 46.7604L287.458 46.8401C286.902 46.8639 286.743 47.5884 287.229 47.8839L288.775 48.8237C288.996 48.9586 289.108 49.2193 289.048 49.4621L288.631 51.1411C288.501 51.6645 289.127 52.081 289.549 51.7519L291.016 50.6063C291.198 50.4643 291.455 50.4533 291.661 50.5786L293.324 51.59C293.802 51.8806 294.348 51.4138 294.124 50.9057L293.407 49.2752C293.303 49.0395 293.367 48.7712 293.562 48.6185L294.926 47.5539C295.355 47.2192 295.066 46.5139 294.51 46.5377L292.651 46.6174C292.408 46.6278 292.179 46.4834 292.08 46.258L291.328 44.5502Z" fill="#FFF7EB"/>
<ellipse cx="21.3644" cy="20.3244" rx="21.3644" ry="20.3244" transform="matrix(-0.999082 0.0428279 0.0904278 0.995903 285.574 12.4277)" fill="url(#paint2_radial_1153_1423)"/>
<path d="M266.655 23.7819C266.106 22.5343 264.309 22.6113 263.99 23.8961L262.907 28.263C262.764 28.8393 262.263 29.244 261.661 29.2698L257.044 29.4677C255.663 29.5269 255.269 31.3258 256.476 32.0596L260.314 34.3934C260.865 34.7282 261.141 35.3756 260.992 35.9785L259.957 40.1477C259.634 41.4471 261.189 42.4815 262.236 41.6642L265.879 38.8195C266.331 38.467 266.968 38.4397 267.48 38.7509L271.61 41.2623C272.797 41.9838 274.152 40.8248 273.597 39.563L271.816 35.5145C271.558 34.929 271.716 34.263 272.202 33.8838L275.588 31.2404C276.652 30.4092 275.936 28.6579 274.555 28.7171L269.939 28.915C269.336 28.9408 268.766 28.582 268.52 28.0224L266.655 23.7819Z" fill="#FFF7EB"/>
<path d="M129.105 26.0986C178.336 26.0987 222.802 33.5001 254.873 45.3877C270.917 51.3349 283.735 58.3588 292.498 66.0381C301.265 73.7214 305.753 81.8505 305.753 90.0742C305.753 98.298 301.265 106.427 292.498 114.11C283.735 121.79 270.917 128.815 254.873 134.762C222.802 146.649 178.336 154.05 129.105 154.05C79.8735 154.05 35.4074 146.649 3.33643 134.762C-12.7081 128.815 -25.5258 121.79 -34.2886 114.11C-43.0559 106.427 -47.5444 98.298 -47.5444 90.0742C-47.5443 81.8505 -43.0559 73.7214 -34.2886 66.0381C-25.5258 58.3588 -12.708 51.3349 3.33643 45.3877C35.4074 33.5 79.8735 26.0986 129.105 26.0986Z" stroke="url(#paint3_linear_1153_1423)" stroke-width="4.77429"/>
<defs>
<filter id="filter0_f_1153_1423" x="16.0078" y="42.1089" width="247.628" height="133.712" filterUnits="userSpaceOnUse" color-interpolation-filters="sRGB">
<feFlood flood-opacity="0" result="BackgroundImageFix"/>
<feBlend mode="normal" in="SourceGraphic" in2="BackgroundImageFix" result="shape"/>
<feGaussianBlur stdDeviation="10" result="effect1_foregroundBlur_1153_1423"/>
</filter>
<radialGradient id="paint0_radial_1153_1423" cx="0" cy="0" r="1" gradientUnits="userSpaceOnUse" gradientTransform="translate(13.8586 12.9337) rotate(90) scale(12.9337 13.8586)">
<stop stop-color="#FFF6E8"/>
<stop offset="1" stop-color="#FFF6E8" stop-opacity="0"/>
</radialGradient>
<radialGradient id="paint1_radial_1153_1423" cx="0" cy="0" r="1" gradientUnits="userSpaceOnUse" gradientTransform="translate(8.60399 8.18515) rotate(90) scale(8.18515 8.60399)">
<stop stop-color="#FFF6E8"/>
<stop offset="1" stop-color="#FFF6E8" stop-opacity="0"/>
</radialGradient>
<radialGradient id="paint2_radial_1153_1423" cx="0" cy="0" r="1" gradientUnits="userSpaceOnUse" gradientTransform="translate(21.3644 20.3244) rotate(90) scale(20.3244 21.3644)">
<stop stop-color="#FFF6E8"/>
<stop offset="1" stop-color="#FFF6E8" stop-opacity="0"/>
</radialGradient>
<linearGradient id="paint3_linear_1153_1423" x1="179.798" y1="-3.50151" x2="142.75" y2="110.989" gradientUnits="userSpaceOnUse">
<stop stop-color="#FFF9F0"/>
<stop offset="1" stop-color="#FFF9F0" stop-opacity="0"/>
</linearGradient>
</defs>
</svg>
