<svg width="789" height="189" viewBox="0 0 789 189" fill="none" xmlns="http://www.w3.org/2000/svg">
<path d="M122.343 138.203C117.925 138.203 113.959 137.458 110.445 135.967C106.985 134.477 104.057 132.427 101.662 129.819C99.213 127.157 97.3232 124.016 95.9923 120.396C94.7147 116.776 94.0759 112.944 94.0759 108.898C94.0759 104.479 94.7945 100.46 96.2318 96.8403C97.7224 93.1671 99.7719 90.0263 102.38 87.4178C105.042 84.8094 108.21 82.7865 111.883 81.3491C115.556 79.8586 119.522 79.1133 123.781 79.1133C126.176 79.1133 128.465 79.3262 130.648 79.7521C132.83 80.178 134.88 80.7369 136.796 81.429C138.713 82.121 140.496 82.8397 142.146 83.585V90.6917L136.716 91.0111C135.173 90.1594 133.256 89.5206 130.967 89.0947C128.678 88.6156 126.469 88.3761 124.34 88.3761C120.4 88.3761 116.993 89.2278 114.119 90.9313C111.297 92.6348 109.141 95.0037 107.651 98.0381C106.16 101.072 105.415 104.639 105.415 108.738C105.415 112.624 106.107 116.111 107.491 119.199C108.875 122.233 110.924 124.629 113.639 126.385C116.354 128.142 119.655 129.02 123.541 129.02C125.724 129.02 127.773 128.701 129.69 128.062C131.659 127.37 133.522 126.226 135.279 124.629C135.545 124.416 135.838 124.256 136.157 124.149C136.477 123.99 136.796 123.91 137.116 123.91C137.701 123.91 138.207 124.123 138.633 124.549L143.025 129.18C140.789 132.001 137.941 134.211 134.481 135.808C131.02 137.405 126.975 138.203 122.343 138.203ZM134.401 88.8552L142.146 90.6917V97.7187H137.994C137.302 97.7187 136.77 97.5323 136.397 97.1597C136.024 96.7338 135.758 96.1482 135.599 95.403L134.401 88.8552ZM159.871 138.203C157.529 138.203 155.452 137.777 153.642 136.926C151.832 136.074 150.422 134.823 149.41 133.173C148.399 131.522 147.893 129.473 147.893 127.024C147.893 125.534 148.292 124.043 149.091 122.552C149.943 121.009 151.3 119.625 153.163 118.4C155.08 117.229 157.608 116.244 160.749 115.446C163.89 114.594 167.776 114.115 172.407 114.008V111.693C172.407 108.924 171.822 106.902 170.651 105.624C169.533 104.293 167.883 103.628 165.7 103.628C164.156 103.628 162.719 103.947 161.388 104.586C160.11 105.171 158.913 105.784 157.795 106.422C156.73 107.008 155.692 107.301 154.681 107.301C153.988 107.301 153.376 107.114 152.844 106.742C152.365 106.369 151.992 105.943 151.726 105.464L149.889 102.27C152.285 100.088 154.893 98.4639 157.715 97.3992C160.589 96.3346 163.677 95.8022 166.978 95.8022C170.172 95.8022 172.913 96.4677 175.202 97.7985C177.491 99.1294 179.248 100.993 180.472 103.388C181.697 105.784 182.309 108.552 182.309 111.693V137.564H177.758C176.746 137.564 175.974 137.431 175.442 137.165C174.963 136.899 174.563 136.313 174.244 135.408L173.446 132.534C171.369 134.344 169.293 135.754 167.217 136.766C165.194 137.724 162.745 138.203 159.871 138.203ZM163.065 131.336C164.981 131.336 166.658 130.99 168.096 130.298C169.586 129.553 171.023 128.461 172.407 127.024V120.157C170.065 120.21 167.962 120.396 166.099 120.716C164.289 120.982 162.745 121.381 161.468 121.914C160.243 122.393 159.285 123.032 158.593 123.83C157.954 124.575 157.635 125.48 157.635 126.545C157.635 128.302 158.114 129.553 159.072 130.298C160.084 130.99 161.415 131.336 163.065 131.336ZM180.313 137.564L181.351 129.499L185.982 130.458C186.674 130.617 187.233 130.884 187.659 131.256C188.085 131.629 188.298 132.188 188.298 132.933V137.564H180.313ZM197.785 137.564V96.5209H203.933C205.264 96.5209 206.116 97.1331 206.488 98.3575L207.127 101.392C208.565 99.848 210.162 98.5438 211.918 97.4791C213.675 96.4144 215.751 95.8821 218.147 95.8821C220.755 95.8821 222.885 96.6007 224.535 98.0381C226.185 99.4221 227.409 101.259 228.208 103.548C229.486 100.886 231.322 98.943 233.718 97.7187C236.113 96.4943 238.668 95.8821 241.383 95.8821C245.962 95.8821 249.448 97.2662 251.844 100.034C254.293 102.803 255.517 106.609 255.517 111.453V137.564H245.456V111.453C245.456 108.898 244.897 106.955 243.779 105.624C242.661 104.293 240.984 103.628 238.748 103.628C236.779 103.628 235.102 104.32 233.718 105.704C232.387 107.088 231.721 109.004 231.721 111.453V137.564H221.58V111.453C221.58 108.738 221.021 106.768 219.903 105.544C218.839 104.266 217.268 103.628 215.192 103.628C213.755 103.628 212.424 104 211.2 104.746C210.028 105.438 208.911 106.369 207.846 107.54V137.564H197.785ZM191.796 137.564V132.933C191.796 132.188 191.982 131.629 192.355 131.256C192.781 130.884 193.366 130.617 194.111 130.458L198.663 129.499L199.701 137.564H191.796ZM205.929 137.564L206.968 129.499L211.519 130.458C212.264 130.617 212.823 130.884 213.196 131.256C213.622 131.629 213.835 132.188 213.835 132.933V137.564H205.929ZM229.805 137.564L230.763 129.499L235.395 130.458C236.087 130.617 236.646 130.884 237.071 131.256C237.497 131.629 237.71 132.188 237.71 132.933V137.564H229.805ZM199.701 96.5209L198.663 104.586L194.111 103.628C193.366 103.468 192.781 103.202 192.355 102.829C191.982 102.456 191.796 101.898 191.796 101.152V96.5209H199.701ZM253.601 137.564L254.639 129.499L259.19 130.458C259.936 130.617 260.494 130.884 260.867 131.256C261.293 131.629 261.506 132.188 261.506 132.933V137.564H253.601ZM271.008 150.979V96.5209H277.156C278.54 96.5209 279.392 97.1331 279.711 98.3575L280.51 102.19C282.213 100.274 284.13 98.7301 286.259 97.559C288.442 96.3878 290.917 95.8022 293.685 95.8022C296.933 95.8022 299.674 96.6806 301.91 98.4373C304.146 100.194 305.849 102.643 307.021 105.784C308.245 108.924 308.857 112.571 308.857 116.723C308.857 120.716 308.138 124.336 306.701 127.583C305.264 130.777 303.241 133.359 300.632 135.329C298.024 137.245 294.883 138.203 291.21 138.203C288.921 138.203 286.978 137.857 285.381 137.165C283.837 136.42 282.4 135.408 281.069 134.131V150.979H271.008ZM288.894 130.617C290.97 130.617 292.701 130.085 294.085 129.02C295.522 127.956 296.587 126.385 297.279 124.309C298.024 122.233 298.397 119.704 298.397 116.723C298.397 112.411 297.731 109.164 296.4 106.981C295.123 104.746 293.073 103.628 290.252 103.628C288.229 103.628 286.499 104.054 285.061 104.905C283.677 105.704 282.347 106.902 281.069 108.499V126.944C282.187 128.275 283.385 129.233 284.662 129.819C285.993 130.351 287.404 130.617 288.894 130.617ZM272.924 96.5209L271.886 104.586L267.334 103.628C266.589 103.468 266.004 103.202 265.578 102.829C265.205 102.456 265.019 101.898 265.019 101.152V96.5209H272.924ZM265.019 150.979V146.348C265.019 145.603 265.205 145.044 265.578 144.671C266.004 144.299 266.589 144.032 267.334 143.873L271.886 142.914L272.924 150.979H265.019ZM279.152 150.979L280.191 142.914L284.742 143.873C285.487 144.032 286.046 144.299 286.419 144.671C286.845 145.044 287.058 145.603 287.058 146.348V150.979H279.152ZM319.283 137.564V104.027L315.849 103.468C315.104 103.308 314.465 103.042 313.933 102.669C313.454 102.297 313.214 101.738 313.214 100.993V96.9201H319.283V94.5246C319.283 91.3838 320.055 88.6422 321.598 86.2999C323.195 83.9044 325.538 82.0678 328.625 80.7902C331.713 79.4593 335.493 78.7939 339.964 78.7939C344.223 78.7939 347.683 79.1399 350.345 79.832C353.06 80.4708 355.056 81.4024 356.334 82.6268C357.665 83.7979 358.33 85.1554 358.33 86.6992C358.33 88.2962 357.771 89.7335 356.653 91.0111C355.588 92.2355 354.178 92.8477 352.421 92.8477C350.771 92.8477 349.44 92.342 348.428 91.3305C347.417 90.2659 346.858 89.2544 346.752 88.2962C346.645 87.9768 346.565 87.6574 346.512 87.338C346.512 87.0186 346.512 86.779 346.512 86.6193C345.82 86.4064 344.942 86.2733 343.877 86.2201C342.865 86.1136 341.694 86.0604 340.363 86.0604C337.808 86.0604 335.705 86.4064 334.055 87.0984C332.405 87.7905 331.154 88.8818 330.302 90.3723C329.504 91.8097 329.104 93.6729 329.104 95.9619V96.9201H357.531L356.254 103.947H329.424V137.564H319.283ZM347.39 137.564V96.9201H357.531V137.564H347.39ZM313.294 137.564V132.933C313.294 132.188 313.507 131.629 313.933 131.256C314.359 130.884 314.918 130.617 315.61 130.458L320.241 129.499L321.199 137.564H313.294ZM327.507 137.564L328.545 129.499L333.097 130.458C333.842 130.617 334.401 130.884 334.774 131.256C335.2 131.629 335.413 132.188 335.413 132.933V137.564H327.507ZM341.402 137.564V132.933C341.402 132.188 341.614 131.629 342.04 131.256C342.466 130.884 343.025 130.617 343.717 130.458L348.349 129.499L349.307 137.564H341.402ZM355.535 137.564L356.573 129.499L361.205 130.458C361.897 130.617 362.456 130.884 362.882 131.256C363.307 131.629 363.52 132.188 363.52 132.933V137.564H355.535ZM373.005 137.564V96.5209H378.914C379.979 96.5209 380.698 96.7338 381.07 97.1597C381.496 97.5323 381.789 98.1711 381.949 99.0761L382.507 103.947C383.998 101.392 385.702 99.3955 387.618 97.9582C389.588 96.5209 391.797 95.8022 394.246 95.8022C395.257 95.8022 396.162 95.9353 396.961 96.2015C397.812 96.4144 398.558 96.7338 399.196 97.1597L397.919 104.666C397.866 105.145 397.679 105.491 397.36 105.704C397.094 105.863 396.748 105.943 396.322 105.943C396.056 105.943 395.443 105.863 394.485 105.704C393.527 105.544 392.675 105.464 391.93 105.464C389.907 105.464 388.177 106.023 386.74 107.141C385.302 108.259 384.078 109.883 383.066 112.012V137.564H373.005ZM381.15 137.564L382.188 129.499L386.74 130.458C387.485 130.617 388.044 130.884 388.416 131.256C388.842 131.629 389.055 132.188 389.055 132.933V137.564H381.15ZM367.016 137.564V132.933C367.016 132.188 367.203 131.629 367.575 131.256C368.001 130.884 368.587 130.617 369.332 130.458L373.884 129.499L374.922 137.564H367.016ZM374.922 96.5209L373.884 104.586L369.332 103.628C368.587 103.468 368.001 103.202 367.575 102.829C367.203 102.456 367.016 101.898 367.016 101.152V96.5209H374.922ZM422.152 138.203C418.053 138.203 414.486 137.298 411.452 135.488C408.417 133.625 406.048 131.043 404.345 127.743C402.695 124.389 401.87 120.53 401.87 116.164C401.87 112.331 402.695 108.898 404.345 105.863C405.995 102.776 408.311 100.354 411.292 98.597C414.273 96.7871 417.733 95.8821 421.673 95.8821C425.239 95.8821 428.354 96.654 431.015 98.1978C433.73 99.6883 435.806 101.818 437.244 104.586C438.734 107.354 439.48 110.655 439.48 114.487C439.48 115.925 439.346 116.936 439.08 117.522C438.814 118.054 438.175 118.32 437.164 118.32H412.011C412.011 118.48 412.011 118.64 412.011 118.799C412.011 118.959 412.037 119.119 412.091 119.279C412.516 123.005 413.661 125.8 415.524 127.663C417.441 129.526 419.943 130.458 423.03 130.458C424.467 130.458 425.905 130.165 427.342 129.579C428.833 128.994 430.19 128.408 431.415 127.823C432.639 127.184 433.624 126.864 434.369 126.864C435.114 126.864 435.726 127.157 436.206 127.743L439.16 131.416C437.723 133.066 436.046 134.397 434.129 135.408C432.266 136.42 430.297 137.139 428.22 137.564C426.198 137.99 424.175 138.203 422.152 138.203ZM412.17 112.331H430.456C430.456 109.67 429.738 107.461 428.3 105.704C426.863 103.947 424.734 103.069 421.912 103.069C419.091 103.069 416.855 103.867 415.205 105.464C413.608 107.061 412.596 109.35 412.17 112.331ZM492.465 138.203C488.206 138.203 484.267 137.485 480.647 136.047C477.027 134.61 473.886 132.56 471.225 129.899C468.67 127.237 466.647 124.096 465.156 120.476C463.666 116.856 462.92 112.89 462.92 108.578C462.92 104.32 463.639 100.38 465.076 96.7604C466.514 93.0873 468.536 89.9465 471.145 87.338C473.753 84.7295 476.894 82.7066 480.567 81.2693C484.294 79.832 488.473 79.1133 493.104 79.1133C495.872 79.1133 498.374 79.2996 500.61 79.6723C502.899 80.0449 505.108 80.5772 507.238 81.2693C509.367 81.9081 511.523 82.68 513.706 83.585V90.6917L507.637 91.0111C505.667 90.1062 503.405 89.4407 500.85 89.0149C498.348 88.589 495.739 88.3761 493.024 88.3761C489.085 88.3761 485.704 89.2278 482.883 90.9313C480.115 92.6348 477.986 95.0037 476.495 98.0381C475.004 101.072 474.259 104.612 474.259 108.658C474.259 112.864 475.031 116.537 476.575 119.678C478.119 122.819 480.301 125.267 483.123 127.024C485.997 128.728 489.351 129.579 493.184 129.579C495.366 129.579 497.336 129.366 499.093 128.941C500.903 128.461 502.58 127.849 504.123 127.104V116.723H497.017C496.325 116.723 495.766 116.537 495.34 116.164C494.967 115.738 494.781 115.233 494.781 114.647V108.578H514.105V131.975C511.23 134.051 507.983 135.621 504.363 136.686C500.796 137.698 496.83 138.203 492.465 138.203ZM505.96 88.8552L513.706 90.6917V97.7187H509.633C508.888 97.7187 508.329 97.5323 507.956 97.1597C507.584 96.7338 507.318 96.1482 507.158 95.403L505.96 88.8552ZM533.862 138.203C531.52 138.203 529.443 137.777 527.633 136.926C525.823 136.074 524.413 134.823 523.401 133.173C522.39 131.522 521.884 129.473 521.884 127.024C521.884 125.534 522.283 124.043 523.082 122.552C523.934 121.009 525.291 119.625 527.154 118.4C529.071 117.229 531.599 116.244 534.74 115.446C537.881 114.594 541.767 114.115 546.399 114.008V111.693C546.399 108.924 545.813 106.902 544.642 105.624C543.524 104.293 541.874 103.628 539.691 103.628C538.147 103.628 536.71 103.947 535.379 104.586C534.101 105.171 532.904 105.784 531.786 106.422C530.721 107.008 529.683 107.301 528.672 107.301C527.979 107.301 527.367 107.114 526.835 106.742C526.356 106.369 525.983 105.943 525.717 105.464L523.88 102.27C526.276 100.088 528.884 98.4639 531.706 97.3992C534.581 96.3346 537.668 95.8022 540.969 95.8022C544.163 95.8022 546.904 96.4677 549.193 97.7985C551.482 99.1294 553.239 100.993 554.463 103.388C555.688 105.784 556.3 108.552 556.3 111.693V137.564H551.749C550.737 137.564 549.965 137.431 549.433 137.165C548.954 136.899 548.554 136.313 548.235 135.408L547.437 132.534C545.36 134.344 543.284 135.754 541.208 136.766C539.185 137.724 536.737 138.203 533.862 138.203ZM537.056 131.336C538.972 131.336 540.649 130.99 542.087 130.298C543.577 129.553 545.014 128.461 546.399 127.024V120.157C544.056 120.21 541.953 120.396 540.09 120.716C538.28 120.982 536.737 121.381 535.459 121.914C534.234 122.393 533.276 123.032 532.584 123.83C531.945 124.575 531.626 125.48 531.626 126.545C531.626 128.302 532.105 129.553 533.063 130.298C534.075 130.99 535.406 131.336 537.056 131.336ZM554.304 137.564L555.342 129.499L559.973 130.458C560.665 130.617 561.224 130.884 561.65 131.256C562.076 131.629 562.289 132.188 562.289 132.933V137.564H554.304ZM571.776 137.564V96.5209H577.924C579.255 96.5209 580.107 97.1331 580.479 98.3575L581.118 101.392C582.556 99.848 584.153 98.5438 585.909 97.4791C587.666 96.4144 589.742 95.8821 592.138 95.8821C594.746 95.8821 596.876 96.6007 598.526 98.0381C600.176 99.4221 601.4 101.259 602.199 103.548C603.477 100.886 605.313 98.943 607.709 97.7187C610.104 96.4943 612.659 95.8821 615.374 95.8821C619.953 95.8821 623.439 97.2662 625.835 100.034C628.284 102.803 629.508 106.609 629.508 111.453V137.564H619.447V111.453C619.447 108.898 618.888 106.955 617.77 105.624C616.652 104.293 614.975 103.628 612.739 103.628C610.77 103.628 609.093 104.32 607.709 105.704C606.378 107.088 605.712 109.004 605.712 111.453V137.564H595.571V111.453C595.571 108.738 595.012 106.768 593.894 105.544C592.83 104.266 591.259 103.628 589.183 103.628C587.746 103.628 586.415 104 585.191 104.746C584.019 105.438 582.902 106.369 581.837 107.54V137.564H571.776ZM565.787 137.564V132.933C565.787 132.188 565.973 131.629 566.346 131.256C566.772 130.884 567.357 130.617 568.102 130.458L572.654 129.499L573.692 137.564H565.787ZM579.92 137.564L580.959 129.499L585.51 130.458C586.255 130.617 586.814 130.884 587.187 131.256C587.613 131.629 587.826 132.188 587.826 132.933V137.564H579.92ZM603.796 137.564L604.754 129.499L609.386 130.458C610.078 130.617 610.637 130.884 611.062 131.256C611.488 131.629 611.701 132.188 611.701 132.933V137.564H603.796ZM573.692 96.5209L572.654 104.586L568.102 103.628C567.357 103.468 566.772 103.202 566.346 102.829C565.973 102.456 565.787 101.898 565.787 101.152V96.5209H573.692ZM627.592 137.564L628.63 129.499L633.181 130.458C633.927 130.617 634.486 130.884 634.858 131.256C635.284 131.629 635.497 132.188 635.497 132.933V137.564H627.592ZM659.132 138.203C655.033 138.203 651.467 137.298 648.432 135.488C645.398 133.625 643.029 131.043 641.325 127.743C639.675 124.389 638.85 120.53 638.85 116.164C638.85 112.331 639.675 108.898 641.325 105.863C642.976 102.776 645.291 100.354 648.273 98.597C651.254 96.7871 654.714 95.8821 658.653 95.8821C662.22 95.8821 665.334 96.654 667.996 98.1978C670.711 99.6883 672.787 101.818 674.224 104.586C675.715 107.354 676.46 110.655 676.46 114.487C676.46 115.925 676.327 116.936 676.061 117.522C675.795 118.054 675.156 118.32 674.144 118.32H648.991C648.991 118.48 648.991 118.64 648.991 118.799C648.991 118.959 649.018 119.119 649.071 119.279C649.497 123.005 650.641 125.8 652.505 127.663C654.421 129.526 656.923 130.458 660.011 130.458C661.448 130.458 662.885 130.165 664.323 129.579C665.813 128.994 667.171 128.408 668.395 127.823C669.619 127.184 670.604 126.864 671.35 126.864C672.095 126.864 672.707 127.157 673.186 127.743L676.141 131.416C674.703 133.066 673.026 134.397 671.11 135.408C669.247 136.42 667.277 137.139 665.201 137.564C663.178 137.99 661.155 138.203 659.132 138.203ZM649.151 112.331H667.437C667.437 109.67 666.718 107.461 665.281 105.704C663.844 103.947 661.714 103.069 658.893 103.069C656.071 103.069 653.836 103.867 652.185 105.464C650.588 107.061 649.577 109.35 649.151 112.331ZM694.623 138.203C692.281 138.203 689.938 137.99 687.596 137.564C685.254 137.139 683.204 136.633 681.448 136.047V129.26L686.239 129.1C686.878 129.633 688.022 130.138 689.672 130.617C691.323 131.043 693.053 131.256 694.863 131.256C697.098 131.256 698.775 130.804 699.893 129.899C701.011 128.994 701.57 127.823 701.57 126.385C701.57 125.054 701.064 124.043 700.053 123.351C699.095 122.606 697.844 121.993 696.3 121.514C694.809 121.035 693.266 120.53 691.669 119.997C689.805 119.358 688.102 118.586 686.558 117.681C685.014 116.776 683.79 115.579 682.885 114.088C681.98 112.598 681.527 110.761 681.527 108.578C681.527 106.076 682.166 103.867 683.444 101.951C684.775 100.034 686.585 98.5438 688.874 97.4791C691.216 96.4144 693.931 95.8821 697.019 95.8821C699.308 95.8821 701.41 96.2015 703.327 96.8403C705.297 97.4259 707.24 98.1445 709.156 98.9963V104.027L704.125 104.666C703.167 104.346 702.129 104.027 701.011 103.708C699.893 103.335 698.669 103.149 697.338 103.149C696.114 103.149 695.022 103.335 694.064 103.708C693.106 104.08 692.361 104.586 691.828 105.225C691.349 105.863 691.11 106.635 691.11 107.54C691.11 108.765 691.642 109.75 692.707 110.495C693.771 111.187 695.102 111.799 696.699 112.331C698.296 112.811 699.787 113.29 701.171 113.769C702.928 114.354 704.551 115.1 706.042 116.005C707.586 116.856 708.81 117.974 709.715 119.358C710.62 120.742 711.072 122.526 711.072 124.708C711.072 127.37 710.407 129.712 709.076 131.735C707.745 133.758 705.856 135.355 703.407 136.526C700.958 137.644 698.03 138.203 694.623 138.203ZM702.049 101.871L709.156 103.628V109.856H705.483C704.738 109.856 704.179 109.643 703.806 109.217C703.433 108.791 703.167 108.232 703.007 107.54L702.049 101.871ZM688.554 132.374L681.448 130.617V124.389H685.121C685.919 124.389 686.478 124.602 686.798 125.028C687.17 125.454 687.436 126.013 687.596 126.705L688.554 132.374Z" fill="#FFF7EB"/>
<g filter="url(#filter0_f_439_281)">
<path d="M122.343 138.203C117.925 138.203 113.959 137.458 110.445 135.967C106.985 134.477 104.057 132.427 101.662 129.819C99.213 127.157 97.3232 124.016 95.9923 120.396C94.7147 116.776 94.0759 112.944 94.0759 108.898C94.0759 104.479 94.7945 100.46 96.2318 96.8403C97.7224 93.1671 99.7719 90.0263 102.38 87.4178C105.042 84.8094 108.21 82.7865 111.883 81.3491C115.556 79.8586 119.522 79.1133 123.781 79.1133C126.176 79.1133 128.465 79.3262 130.648 79.7521C132.83 80.178 134.88 80.7369 136.796 81.429C138.713 82.121 140.496 82.8397 142.146 83.585V90.6917L136.716 91.0111C135.173 90.1594 133.256 89.5206 130.967 89.0947C128.678 88.6156 126.469 88.3761 124.34 88.3761C120.4 88.3761 116.993 89.2278 114.119 90.9313C111.297 92.6348 109.141 95.0037 107.651 98.0381C106.16 101.072 105.415 104.639 105.415 108.738C105.415 112.624 106.107 116.111 107.491 119.199C108.875 122.233 110.924 124.629 113.639 126.385C116.354 128.142 119.655 129.02 123.541 129.02C125.724 129.02 127.773 128.701 129.69 128.062C131.659 127.37 133.522 126.226 135.279 124.629C135.545 124.416 135.838 124.256 136.157 124.149C136.477 123.99 136.796 123.91 137.116 123.91C137.701 123.91 138.207 124.123 138.633 124.549L143.025 129.18C140.789 132.001 137.941 134.211 134.481 135.808C131.02 137.405 126.975 138.203 122.343 138.203ZM134.401 88.8552L142.146 90.6917V97.7187H137.994C137.302 97.7187 136.77 97.5323 136.397 97.1597C136.024 96.7338 135.758 96.1482 135.599 95.403L134.401 88.8552ZM159.871 138.203C157.529 138.203 155.452 137.777 153.642 136.926C151.832 136.074 150.422 134.823 149.41 133.173C148.399 131.522 147.893 129.473 147.893 127.024C147.893 125.534 148.292 124.043 149.091 122.552C149.943 121.009 151.3 119.625 153.163 118.4C155.08 117.229 157.608 116.244 160.749 115.446C163.89 114.594 167.776 114.115 172.407 114.008V111.693C172.407 108.924 171.822 106.902 170.651 105.624C169.533 104.293 167.883 103.628 165.7 103.628C164.156 103.628 162.719 103.947 161.388 104.586C160.11 105.171 158.913 105.784 157.795 106.422C156.73 107.008 155.692 107.301 154.681 107.301C153.988 107.301 153.376 107.114 152.844 106.742C152.365 106.369 151.992 105.943 151.726 105.464L149.889 102.27C152.285 100.088 154.893 98.4639 157.715 97.3992C160.589 96.3346 163.677 95.8022 166.978 95.8022C170.172 95.8022 172.913 96.4677 175.202 97.7985C177.491 99.1294 179.248 100.993 180.472 103.388C181.697 105.784 182.309 108.552 182.309 111.693V137.564H177.758C176.746 137.564 175.974 137.431 175.442 137.165C174.963 136.899 174.563 136.313 174.244 135.408L173.446 132.534C171.369 134.344 169.293 135.754 167.217 136.766C165.194 137.724 162.745 138.203 159.871 138.203ZM163.065 131.336C164.981 131.336 166.658 130.99 168.096 130.298C169.586 129.553 171.023 128.461 172.407 127.024V120.157C170.065 120.21 167.962 120.396 166.099 120.716C164.289 120.982 162.745 121.381 161.468 121.914C160.243 122.393 159.285 123.032 158.593 123.83C157.954 124.575 157.635 125.48 157.635 126.545C157.635 128.302 158.114 129.553 159.072 130.298C160.084 130.99 161.415 131.336 163.065 131.336ZM180.313 137.564L181.351 129.499L185.982 130.458C186.674 130.617 187.233 130.884 187.659 131.256C188.085 131.629 188.298 132.188 188.298 132.933V137.564H180.313ZM197.785 137.564V96.5209H203.933C205.264 96.5209 206.116 97.1331 206.488 98.3575L207.127 101.392C208.565 99.848 210.162 98.5438 211.918 97.4791C213.675 96.4144 215.751 95.8821 218.147 95.8821C220.755 95.8821 222.885 96.6007 224.535 98.0381C226.185 99.4221 227.409 101.259 228.208 103.548C229.486 100.886 231.322 98.943 233.718 97.7187C236.113 96.4943 238.668 95.8821 241.383 95.8821C245.962 95.8821 249.448 97.2662 251.844 100.034C254.293 102.803 255.517 106.609 255.517 111.453V137.564H245.456V111.453C245.456 108.898 244.897 106.955 243.779 105.624C242.661 104.293 240.984 103.628 238.748 103.628C236.779 103.628 235.102 104.32 233.718 105.704C232.387 107.088 231.721 109.004 231.721 111.453V137.564H221.58V111.453C221.58 108.738 221.021 106.768 219.903 105.544C218.839 104.266 217.268 103.628 215.192 103.628C213.755 103.628 212.424 104 211.2 104.746C210.028 105.438 208.911 106.369 207.846 107.54V137.564H197.785ZM191.796 137.564V132.933C191.796 132.188 191.982 131.629 192.355 131.256C192.781 130.884 193.366 130.617 194.111 130.458L198.663 129.499L199.701 137.564H191.796ZM205.929 137.564L206.968 129.499L211.519 130.458C212.264 130.617 212.823 130.884 213.196 131.256C213.622 131.629 213.835 132.188 213.835 132.933V137.564H205.929ZM229.805 137.564L230.763 129.499L235.395 130.458C236.087 130.617 236.646 130.884 237.071 131.256C237.497 131.629 237.71 132.188 237.71 132.933V137.564H229.805ZM199.701 96.5209L198.663 104.586L194.111 103.628C193.366 103.468 192.781 103.202 192.355 102.829C191.982 102.456 191.796 101.898 191.796 101.152V96.5209H199.701ZM253.601 137.564L254.639 129.499L259.19 130.458C259.936 130.617 260.494 130.884 260.867 131.256C261.293 131.629 261.506 132.188 261.506 132.933V137.564H253.601ZM271.008 150.979V96.5209H277.156C278.54 96.5209 279.392 97.1331 279.711 98.3575L280.51 102.19C282.213 100.274 284.13 98.7301 286.259 97.559C288.442 96.3878 290.917 95.8022 293.685 95.8022C296.933 95.8022 299.674 96.6806 301.91 98.4373C304.146 100.194 305.849 102.643 307.021 105.784C308.245 108.924 308.857 112.571 308.857 116.723C308.857 120.716 308.138 124.336 306.701 127.583C305.264 130.777 303.241 133.359 300.632 135.329C298.024 137.245 294.883 138.203 291.21 138.203C288.921 138.203 286.978 137.857 285.381 137.165C283.837 136.42 282.4 135.408 281.069 134.131V150.979H271.008ZM288.894 130.617C290.97 130.617 292.701 130.085 294.085 129.02C295.522 127.956 296.587 126.385 297.279 124.309C298.024 122.233 298.397 119.704 298.397 116.723C298.397 112.411 297.731 109.164 296.4 106.981C295.123 104.746 293.073 103.628 290.252 103.628C288.229 103.628 286.499 104.054 285.061 104.905C283.677 105.704 282.347 106.902 281.069 108.499V126.944C282.187 128.275 283.385 129.233 284.662 129.819C285.993 130.351 287.404 130.617 288.894 130.617ZM272.924 96.5209L271.886 104.586L267.334 103.628C266.589 103.468 266.004 103.202 265.578 102.829C265.205 102.456 265.019 101.898 265.019 101.152V96.5209H272.924ZM265.019 150.979V146.348C265.019 145.603 265.205 145.044 265.578 144.671C266.004 144.299 266.589 144.032 267.334 143.873L271.886 142.914L272.924 150.979H265.019ZM279.152 150.979L280.191 142.914L284.742 143.873C285.487 144.032 286.046 144.299 286.419 144.671C286.845 145.044 287.058 145.603 287.058 146.348V150.979H279.152ZM319.283 137.564V104.027L315.849 103.468C315.104 103.308 314.465 103.042 313.933 102.669C313.454 102.297 313.214 101.738 313.214 100.993V96.9201H319.283V94.5246C319.283 91.3838 320.055 88.6422 321.598 86.2999C323.195 83.9044 325.538 82.0678 328.625 80.7902C331.713 79.4593 335.493 78.7939 339.964 78.7939C344.223 78.7939 347.683 79.1399 350.345 79.832C353.06 80.4708 355.056 81.4024 356.334 82.6268C357.665 83.7979 358.33 85.1554 358.33 86.6992C358.33 88.2962 357.771 89.7335 356.653 91.0111C355.588 92.2355 354.178 92.8477 352.421 92.8477C350.771 92.8477 349.44 92.342 348.428 91.3305C347.417 90.2659 346.858 89.2544 346.752 88.2962C346.645 87.9768 346.565 87.6574 346.512 87.338C346.512 87.0186 346.512 86.779 346.512 86.6193C345.82 86.4064 344.942 86.2733 343.877 86.2201C342.865 86.1136 341.694 86.0604 340.363 86.0604C337.808 86.0604 335.705 86.4064 334.055 87.0984C332.405 87.7905 331.154 88.8818 330.302 90.3723C329.504 91.8097 329.104 93.6729 329.104 95.9619V96.9201H357.531L356.254 103.947H329.424V137.564H319.283ZM347.39 137.564V96.9201H357.531V137.564H347.39ZM313.294 137.564V132.933C313.294 132.188 313.507 131.629 313.933 131.256C314.359 130.884 314.918 130.617 315.61 130.458L320.241 129.499L321.199 137.564H313.294ZM327.507 137.564L328.545 129.499L333.097 130.458C333.842 130.617 334.401 130.884 334.774 131.256C335.2 131.629 335.413 132.188 335.413 132.933V137.564H327.507ZM341.402 137.564V132.933C341.402 132.188 341.614 131.629 342.04 131.256C342.466 130.884 343.025 130.617 343.717 130.458L348.349 129.499L349.307 137.564H341.402ZM355.535 137.564L356.573 129.499L361.205 130.458C361.897 130.617 362.456 130.884 362.882 131.256C363.307 131.629 363.52 132.188 363.52 132.933V137.564H355.535ZM373.005 137.564V96.5209H378.914C379.979 96.5209 380.698 96.7338 381.07 97.1597C381.496 97.5323 381.789 98.1711 381.949 99.0761L382.507 103.947C383.998 101.392 385.702 99.3955 387.618 97.9582C389.588 96.5209 391.797 95.8022 394.246 95.8022C395.257 95.8022 396.162 95.9353 396.961 96.2015C397.812 96.4144 398.558 96.7338 399.196 97.1597L397.919 104.666C397.866 105.145 397.679 105.491 397.36 105.704C397.094 105.863 396.748 105.943 396.322 105.943C396.056 105.943 395.443 105.863 394.485 105.704C393.527 105.544 392.675 105.464 391.93 105.464C389.907 105.464 388.177 106.023 386.74 107.141C385.302 108.259 384.078 109.883 383.066 112.012V137.564H373.005ZM381.15 137.564L382.188 129.499L386.74 130.458C387.485 130.617 388.044 130.884 388.416 131.256C388.842 131.629 389.055 132.188 389.055 132.933V137.564H381.15ZM367.016 137.564V132.933C367.016 132.188 367.203 131.629 367.575 131.256C368.001 130.884 368.587 130.617 369.332 130.458L373.884 129.499L374.922 137.564H367.016ZM374.922 96.5209L373.884 104.586L369.332 103.628C368.587 103.468 368.001 103.202 367.575 102.829C367.203 102.456 367.016 101.898 367.016 101.152V96.5209H374.922ZM422.152 138.203C418.053 138.203 414.486 137.298 411.452 135.488C408.417 133.625 406.048 131.043 404.345 127.743C402.695 124.389 401.87 120.53 401.87 116.164C401.87 112.331 402.695 108.898 404.345 105.863C405.995 102.776 408.311 100.354 411.292 98.597C414.273 96.7871 417.733 95.8821 421.673 95.8821C425.239 95.8821 428.354 96.654 431.015 98.1978C433.73 99.6883 435.806 101.818 437.244 104.586C438.734 107.354 439.48 110.655 439.48 114.487C439.48 115.925 439.346 116.936 439.08 117.522C438.814 118.054 438.175 118.32 437.164 118.32H412.011C412.011 118.48 412.011 118.64 412.011 118.799C412.011 118.959 412.037 119.119 412.091 119.279C412.516 123.005 413.661 125.8 415.524 127.663C417.441 129.526 419.943 130.458 423.03 130.458C424.467 130.458 425.905 130.165 427.342 129.579C428.833 128.994 430.19 128.408 431.415 127.823C432.639 127.184 433.624 126.864 434.369 126.864C435.114 126.864 435.726 127.157 436.206 127.743L439.16 131.416C437.723 133.066 436.046 134.397 434.129 135.408C432.266 136.42 430.297 137.139 428.22 137.564C426.198 137.99 424.175 138.203 422.152 138.203ZM412.17 112.331H430.456C430.456 109.67 429.738 107.461 428.3 105.704C426.863 103.947 424.734 103.069 421.912 103.069C419.091 103.069 416.855 103.867 415.205 105.464C413.608 107.061 412.596 109.35 412.17 112.331ZM492.465 138.203C488.206 138.203 484.267 137.485 480.647 136.047C477.027 134.61 473.886 132.56 471.225 129.899C468.67 127.237 466.647 124.096 465.156 120.476C463.666 116.856 462.92 112.89 462.92 108.578C462.92 104.32 463.639 100.38 465.076 96.7604C466.514 93.0873 468.536 89.9465 471.145 87.338C473.753 84.7295 476.894 82.7066 480.567 81.2693C484.294 79.832 488.473 79.1133 493.104 79.1133C495.872 79.1133 498.374 79.2996 500.61 79.6723C502.899 80.0449 505.108 80.5772 507.238 81.2693C509.367 81.9081 511.523 82.68 513.706 83.585V90.6917L507.637 91.0111C505.667 90.1062 503.405 89.4407 500.85 89.0149C498.348 88.589 495.739 88.3761 493.024 88.3761C489.085 88.3761 485.704 89.2278 482.883 90.9313C480.115 92.6348 477.986 95.0037 476.495 98.0381C475.004 101.072 474.259 104.612 474.259 108.658C474.259 112.864 475.031 116.537 476.575 119.678C478.119 122.819 480.301 125.267 483.123 127.024C485.997 128.728 489.351 129.579 493.184 129.579C495.366 129.579 497.336 129.366 499.093 128.941C500.903 128.461 502.58 127.849 504.123 127.104V116.723H497.017C496.325 116.723 495.766 116.537 495.34 116.164C494.967 115.738 494.781 115.233 494.781 114.647V108.578H514.105V131.975C511.23 134.051 507.983 135.621 504.363 136.686C500.796 137.698 496.83 138.203 492.465 138.203ZM505.96 88.8552L513.706 90.6917V97.7187H509.633C508.888 97.7187 508.329 97.5323 507.956 97.1597C507.584 96.7338 507.318 96.1482 507.158 95.403L505.96 88.8552ZM533.862 138.203C531.52 138.203 529.443 137.777 527.633 136.926C525.823 136.074 524.413 134.823 523.401 133.173C522.39 131.522 521.884 129.473 521.884 127.024C521.884 125.534 522.283 124.043 523.082 122.552C523.934 121.009 525.291 119.625 527.154 118.4C529.071 117.229 531.599 116.244 534.74 115.446C537.881 114.594 541.767 114.115 546.399 114.008V111.693C546.399 108.924 545.813 106.902 544.642 105.624C543.524 104.293 541.874 103.628 539.691 103.628C538.147 103.628 536.71 103.947 535.379 104.586C534.101 105.171 532.904 105.784 531.786 106.422C530.721 107.008 529.683 107.301 528.672 107.301C527.979 107.301 527.367 107.114 526.835 106.742C526.356 106.369 525.983 105.943 525.717 105.464L523.88 102.27C526.276 100.088 528.884 98.4639 531.706 97.3992C534.581 96.3346 537.668 95.8022 540.969 95.8022C544.163 95.8022 546.904 96.4677 549.193 97.7985C551.482 99.1294 553.239 100.993 554.463 103.388C555.688 105.784 556.3 108.552 556.3 111.693V137.564H551.749C550.737 137.564 549.965 137.431 549.433 137.165C548.954 136.899 548.554 136.313 548.235 135.408L547.437 132.534C545.36 134.344 543.284 135.754 541.208 136.766C539.185 137.724 536.737 138.203 533.862 138.203ZM537.056 131.336C538.972 131.336 540.649 130.99 542.087 130.298C543.577 129.553 545.014 128.461 546.399 127.024V120.157C544.056 120.21 541.953 120.396 540.09 120.716C538.28 120.982 536.737 121.381 535.459 121.914C534.234 122.393 533.276 123.032 532.584 123.83C531.945 124.575 531.626 125.48 531.626 126.545C531.626 128.302 532.105 129.553 533.063 130.298C534.075 130.99 535.406 131.336 537.056 131.336ZM554.304 137.564L555.342 129.499L559.973 130.458C560.665 130.617 561.224 130.884 561.65 131.256C562.076 131.629 562.289 132.188 562.289 132.933V137.564H554.304ZM571.776 137.564V96.5209H577.924C579.255 96.5209 580.107 97.1331 580.479 98.3575L581.118 101.392C582.556 99.848 584.153 98.5438 585.909 97.4791C587.666 96.4144 589.742 95.8821 592.138 95.8821C594.746 95.8821 596.876 96.6007 598.526 98.0381C600.176 99.4221 601.4 101.259 602.199 103.548C603.477 100.886 605.313 98.943 607.709 97.7187C610.104 96.4943 612.659 95.8821 615.374 95.8821C619.953 95.8821 623.439 97.2662 625.835 100.034C628.284 102.803 629.508 106.609 629.508 111.453V137.564H619.447V111.453C619.447 108.898 618.888 106.955 617.77 105.624C616.652 104.293 614.975 103.628 612.739 103.628C610.77 103.628 609.093 104.32 607.709 105.704C606.378 107.088 605.712 109.004 605.712 111.453V137.564H595.571V111.453C595.571 108.738 595.012 106.768 593.894 105.544C592.83 104.266 591.259 103.628 589.183 103.628C587.746 103.628 586.415 104 585.191 104.746C584.019 105.438 582.902 106.369 581.837 107.54V137.564H571.776ZM565.787 137.564V132.933C565.787 132.188 565.973 131.629 566.346 131.256C566.772 130.884 567.357 130.617 568.102 130.458L572.654 129.499L573.692 137.564H565.787ZM579.92 137.564L580.959 129.499L585.51 130.458C586.255 130.617 586.814 130.884 587.187 131.256C587.613 131.629 587.826 132.188 587.826 132.933V137.564H579.92ZM603.796 137.564L604.754 129.499L609.386 130.458C610.078 130.617 610.637 130.884 611.062 131.256C611.488 131.629 611.701 132.188 611.701 132.933V137.564H603.796ZM573.692 96.5209L572.654 104.586L568.102 103.628C567.357 103.468 566.772 103.202 566.346 102.829C565.973 102.456 565.787 101.898 565.787 101.152V96.5209H573.692ZM627.592 137.564L628.63 129.499L633.181 130.458C633.927 130.617 634.486 130.884 634.858 131.256C635.284 131.629 635.497 132.188 635.497 132.933V137.564H627.592ZM659.132 138.203C655.033 138.203 651.467 137.298 648.432 135.488C645.398 133.625 643.029 131.043 641.325 127.743C639.675 124.389 638.85 120.53 638.85 116.164C638.85 112.331 639.675 108.898 641.325 105.863C642.976 102.776 645.291 100.354 648.273 98.597C651.254 96.7871 654.714 95.8821 658.653 95.8821C662.22 95.8821 665.334 96.654 667.996 98.1978C670.711 99.6883 672.787 101.818 674.224 104.586C675.715 107.354 676.46 110.655 676.46 114.487C676.46 115.925 676.327 116.936 676.061 117.522C675.795 118.054 675.156 118.32 674.144 118.32H648.991C648.991 118.48 648.991 118.64 648.991 118.799C648.991 118.959 649.018 119.119 649.071 119.279C649.497 123.005 650.641 125.8 652.505 127.663C654.421 129.526 656.923 130.458 660.011 130.458C661.448 130.458 662.885 130.165 664.323 129.579C665.813 128.994 667.171 128.408 668.395 127.823C669.619 127.184 670.604 126.864 671.35 126.864C672.095 126.864 672.707 127.157 673.186 127.743L676.141 131.416C674.703 133.066 673.026 134.397 671.11 135.408C669.247 136.42 667.277 137.139 665.201 137.564C663.178 137.99 661.155 138.203 659.132 138.203ZM649.151 112.331H667.437C667.437 109.67 666.718 107.461 665.281 105.704C663.844 103.947 661.714 103.069 658.893 103.069C656.071 103.069 653.836 103.867 652.185 105.464C650.588 107.061 649.577 109.35 649.151 112.331ZM694.623 138.203C692.281 138.203 689.938 137.99 687.596 137.564C685.254 137.139 683.204 136.633 681.448 136.047V129.26L686.239 129.1C686.878 129.633 688.022 130.138 689.672 130.617C691.323 131.043 693.053 131.256 694.863 131.256C697.098 131.256 698.775 130.804 699.893 129.899C701.011 128.994 701.57 127.823 701.57 126.385C701.57 125.054 701.064 124.043 700.053 123.351C699.095 122.606 697.844 121.993 696.3 121.514C694.809 121.035 693.266 120.53 691.669 119.997C689.805 119.358 688.102 118.586 686.558 117.681C685.014 116.776 683.79 115.579 682.885 114.088C681.98 112.598 681.527 110.761 681.527 108.578C681.527 106.076 682.166 103.867 683.444 101.951C684.775 100.034 686.585 98.5438 688.874 97.4791C691.216 96.4144 693.931 95.8821 697.019 95.8821C699.308 95.8821 701.41 96.2015 703.327 96.8403C705.297 97.4259 707.24 98.1445 709.156 98.9963V104.027L704.125 104.666C703.167 104.346 702.129 104.027 701.011 103.708C699.893 103.335 698.669 103.149 697.338 103.149C696.114 103.149 695.022 103.335 694.064 103.708C693.106 104.08 692.361 104.586 691.828 105.225C691.349 105.863 691.11 106.635 691.11 107.54C691.11 108.765 691.642 109.75 692.707 110.495C693.771 111.187 695.102 111.799 696.699 112.331C698.296 112.811 699.787 113.29 701.171 113.769C702.928 114.354 704.551 115.1 706.042 116.005C707.586 116.856 708.81 117.974 709.715 119.358C710.62 120.742 711.072 122.526 711.072 124.708C711.072 127.37 710.407 129.712 709.076 131.735C707.745 133.758 705.856 135.355 703.407 136.526C700.958 137.644 698.03 138.203 694.623 138.203ZM702.049 101.871L709.156 103.628V109.856H705.483C704.738 109.856 704.179 109.643 703.806 109.217C703.433 108.791 703.167 108.232 703.007 107.54L702.049 101.871ZM688.554 132.374L681.448 130.617V124.389H685.121C685.919 124.389 686.478 124.602 686.798 125.028C687.17 125.454 687.436 126.013 687.596 126.705L688.554 132.374Z" fill="#FFF7EB"/>
</g>
<ellipse cx="16.875" cy="15.7556" rx="16.875" ry="15.7556" transform="matrix(-0.994352 -0.10613 -0.10613 0.994352 740.138 57.3223)" fill="url(#paint0_radial_439_281)"/>
<path d="M723.64 63.7499C723.403 62.7317 722.015 62.5835 721.568 63.5288L720.039 66.7667C719.839 67.1911 719.392 67.4422 718.925 67.3924L715.307 67.0062C714.226 66.8908 713.648 68.2427 714.477 68.9448L717.069 71.1389C717.451 71.4615 717.568 72.0001 717.354 72.4518L715.92 75.4884C715.467 76.4487 716.499 77.4322 717.436 76.9327L720.751 75.1657C721.15 74.9532 721.638 75.0053 721.983 75.2971L724.85 77.724C725.661 78.4101 726.877 77.6666 726.637 76.6322L725.876 73.3613C725.763 72.8748 725.991 72.373 726.431 72.1381L729.428 70.5406C730.387 70.0294 730.107 68.5859 729.027 68.4706L725.408 68.0844C724.942 68.0346 724.558 67.6948 724.451 67.2376L723.64 63.7499Z" fill="#FFF7EB"/>
<ellipse cx="10.4769" cy="9.9707" rx="10.4769" ry="9.9707" transform="matrix(-0.9683 0.249789 0.295463 0.955354 758.522 34.6113)" fill="url(#paint1_radial_439_281)"/>
<path d="M750.605 41.9897C750.214 41.4471 749.36 41.6674 749.338 42.3163L749.264 44.5225C749.254 44.8136 749.055 45.0589 748.769 45.1327L746.574 45.6989C745.918 45.8682 745.912 46.7712 746.566 47.0001L748.646 47.7288C748.944 47.8333 749.143 48.1155 749.132 48.4199L749.061 50.527C749.039 51.1833 749.89 51.5207 750.309 51.0218L751.766 49.2849C751.947 49.0697 752.25 48.9915 752.527 49.0886L754.765 49.8723C755.407 50.0975 755.939 49.4033 755.544 48.8546L754.277 47.0928C754.094 46.8383 754.101 46.5029 754.296 46.2714L755.651 44.6565C756.077 44.1491 755.554 43.3823 754.898 43.5516L752.703 44.1178C752.417 44.1916 752.107 44.0776 751.932 43.8343L750.605 41.9897Z" fill="#FFF7EB"/>
<ellipse cx="26.0151" cy="24.758" rx="26.0151" ry="24.758" transform="matrix(-0.9683 0.249789 0.295463 0.955354 735.614 5.17041)" fill="url(#paint2_radial_439_281)"/>
<path d="M715.956 23.4929C714.986 22.1457 712.866 22.6927 712.811 24.3041L712.627 29.7823C712.602 30.505 712.108 31.114 711.397 31.2973L705.947 32.7033C704.318 33.1235 704.304 35.3658 705.927 35.9343L711.092 37.7437C711.832 38.003 712.325 38.7038 712.3 39.4597L712.123 44.6919C712.068 46.3214 714.181 47.1593 715.221 45.9204L718.84 41.6076C719.289 41.0731 720.042 40.879 720.73 41.1202L726.285 43.0662C727.881 43.6252 729.202 41.9015 728.221 40.5391L725.074 36.1645C724.619 35.5325 724.638 34.6995 725.12 34.1248L728.486 30.1148C729.543 28.8549 728.246 26.951 726.617 27.3712L721.167 28.7772C720.456 28.9605 719.686 28.6775 719.252 28.0732L715.956 23.4929Z" fill="#FFF7EB"/>
<path d="M394.376 17.3145C503.154 17.3145 601.559 27.0292 672.703 42.7012C708.296 50.5417 736.93 59.8439 756.604 70.0908C766.445 75.2158 773.921 80.5147 778.907 85.8828C783.882 91.238 786.251 96.5146 786.251 101.689C786.251 106.864 783.882 112.141 778.907 117.496C773.921 122.864 766.445 128.163 756.604 133.288C736.93 143.535 708.296 152.837 672.703 160.678C601.559 176.35 503.154 186.064 394.376 186.064C285.597 186.064 187.192 176.35 116.048 160.678C80.4554 152.837 51.8213 143.535 32.1465 133.288C22.3063 128.163 14.8303 122.864 9.84375 117.496C4.86923 112.141 2.5 106.864 2.5 101.689C2.50004 96.5146 4.86918 91.238 9.84375 85.8828C14.8304 80.5147 22.3063 75.2157 32.1465 70.0908C51.8213 59.8439 80.4554 50.5417 116.048 42.7012C187.192 27.0292 285.597 17.3145 394.376 17.3145Z" stroke="url(#paint3_linear_439_281)" stroke-width="5.00001"/>
<defs>
<filter id="filter0_f_439_281" x="74.0758" y="58.7939" width="656.997" height="112.186" filterUnits="userSpaceOnUse" color-interpolation-filters="sRGB">
<feFlood flood-opacity="0" result="BackgroundImageFix"/>
<feBlend mode="normal" in="SourceGraphic" in2="BackgroundImageFix" result="shape"/>
<feGaussianBlur stdDeviation="10" result="effect1_foregroundBlur_439_281"/>
</filter>
<radialGradient id="paint0_radial_439_281" cx="0" cy="0" r="1" gradientUnits="userSpaceOnUse" gradientTransform="translate(16.875 15.7556) rotate(90) scale(15.7556 16.875)">
<stop stop-color="#FFF6E8"/>
<stop offset="1" stop-color="#FFF6E8" stop-opacity="0"/>
</radialGradient>
<radialGradient id="paint1_radial_439_281" cx="0" cy="0" r="1" gradientUnits="userSpaceOnUse" gradientTransform="translate(10.4769 9.9707) rotate(90) scale(9.9707 10.4769)">
<stop stop-color="#FFF6E8"/>
<stop offset="1" stop-color="#FFF6E8" stop-opacity="0"/>
</radialGradient>
<radialGradient id="paint2_radial_439_281" cx="0" cy="0" r="1" gradientUnits="userSpaceOnUse" gradientTransform="translate(26.0151 24.758) rotate(90) scale(24.758 26.0151)">
<stop stop-color="#FFF6E8"/>
<stop offset="1" stop-color="#FFF6E8" stop-opacity="0"/>
</radialGradient>
<linearGradient id="paint3_linear_439_281" x1="506.041" y1="-20.8106" x2="475.336" y2="138.858" gradientUnits="userSpaceOnUse">
<stop stop-color="#FFF9F0"/>
<stop offset="1" stop-color="#FFF9F0" stop-opacity="0"/>
</linearGradient>
</defs>
</svg>
