<svg width="450" height="2306" viewBox="0 0 450 2306" fill="none" xmlns="http://www.w3.org/2000/svg">
<rect width="450" height="2306" fill="url(#paint0_linear_999_547)"/>
<g filter="url(#filter0_i_999_547)">
<path d="M61.6983 485.044C66.5725 459.276 89.2323 452.632 99.9529 452.531C107.471 451.424 110.203 457.542 110.629 460.739C120.404 481.14 109.631 499.587 103.022 506.26C101.733 497.847 99.7982 485.021 98.9161 478.647C98.0431 486.964 84.3748 497.299 77.079 501.733C78.031 495.261 85.5685 476.936 89.2182 468.583L61.6983 485.044Z" fill="#8B332A"/>
</g>
<g filter="url(#filter1_i_999_547)">
<path d="M81.2394 593.904C64.8483 573.433 74.5523 551.905 81.4533 543.7C85.5058 537.271 91.9281 539.179 94.6326 540.937C116.483 546.794 123.477 566.979 124.242 576.339C117.016 571.842 106.019 564.964 100.606 561.485C106.352 567.561 105.302 584.664 103.92 593.089C99.6262 588.154 90.6197 570.505 86.6532 562.297L81.2394 593.904Z" fill="#8B332A"/>
</g>
<g filter="url(#filter2_i_999_547)">
<path d="M192.411 623.246C166.201 622.366 156.173 600.988 154.435 590.409C152.192 583.148 157.82 579.514 160.915 578.604C179.582 565.827 199.459 573.654 207.064 579.165C198.946 581.724 186.567 585.597 180.403 587.443C188.755 587.034 201.057 598.963 206.554 605.496C200.012 605.544 180.751 600.895 171.938 598.564L192.411 623.246Z" fill="#8B332A"/>
</g>
<g filter="url(#filter3_i_999_547)">
<path d="M285.188 565.147C260.007 572.472 243.82 555.279 238.875 545.766C234.482 539.565 238.699 534.359 241.357 532.531C255.118 514.576 276.444 515.826 285.387 518.695C278.469 523.655 267.911 531.189 262.628 534.862C270.439 531.874 285.843 539.379 293.1 543.875C286.899 545.958 267.148 547.537 258.048 548.067L285.188 565.147Z" fill="#8B332A"/>
</g>
<g filter="url(#filter4_i_999_547)">
<path d="M356.017 605.879C333.364 592.665 334.685 569.088 338.177 558.951C339.649 551.495 346.328 550.968 349.483 551.637C371.979 549.251 385.758 565.575 389.836 574.035C381.477 572.435 368.743 569.968 362.441 568.666C369.987 572.271 375.152 588.61 376.89 596.968C371.109 593.906 356.363 580.672 349.712 574.438L356.017 605.879Z" fill="#8B332A"/>
</g>
<g filter="url(#filter5_i_999_547)">
<path d="M359.464 675.451C361.153 649.28 382.831 639.918 393.459 638.508C400.786 636.49 404.244 642.228 405.058 645.349C417.252 664.403 408.814 684.028 403.07 691.459C400.763 683.266 397.275 670.773 395.621 664.554C395.771 672.916 383.468 684.843 376.768 690.135C376.922 683.595 382.164 664.487 384.766 655.751L359.464 675.451Z" fill="#8B332A"/>
</g>
<g filter="url(#filter6_i_999_547)">
<path d="M298.641 897.722C286.373 874.543 299.936 855.213 308.251 848.446C313.435 842.889 319.387 845.966 321.714 848.199C342.082 858.043 345.173 879.18 344.172 888.519C337.916 882.748 328.401 873.933 323.735 869.502C328.242 876.546 324.008 893.15 321.073 901.167C317.779 895.516 312.236 876.493 309.877 867.688L298.641 897.722Z" fill="#8B332A"/>
</g>
<g filter="url(#filter7_i_999_547)">
<path d="M327.314 972.404C326.786 946.185 347.596 935.024 358.067 932.721C365.197 930.092 369.128 935.517 370.202 938.558C383.962 956.514 377.212 976.782 372.117 984.671C369.126 976.702 364.595 964.549 362.421 958.492C363.277 966.811 352.025 979.735 345.797 985.574C345.398 979.045 349.007 959.562 350.861 950.637L327.314 972.404Z" fill="#8B332A"/>
</g>
<g filter="url(#filter8_i_999_547)">
<path d="M238.852 985.795C260.274 970.668 281.178 981.652 288.952 989.035C295.125 993.467 292.833 999.763 290.916 1002.36C283.753 1023.81 263.183 1029.58 253.793 1029.78C258.718 1022.84 266.246 1012.27 270.045 1007.08C263.634 1012.45 246.625 1010.37 238.299 1008.48C243.484 1004.5 261.643 996.569 270.075 993.104L238.852 985.795Z" fill="#8B332A"/>
</g>
<g filter="url(#filter9_i_999_547)">
<path d="M179.605 909.426C204.137 918.695 206.75 942.164 204.991 952.739C204.778 960.336 198.279 961.965 195.056 961.83C173.269 967.919 156.97 954.11 151.544 946.445C160.053 946.635 173.02 946.953 179.45 947.189C171.411 944.887 163.603 929.634 160.501 921.68C166.71 923.74 183.45 934.341 191.044 939.384L179.605 909.426Z" fill="#8B332A"/>
</g>
<g filter="url(#filter10_i_999_547)">
<path d="M56.9608 937.136C69.2751 913.982 92.8855 914.375 103.151 917.466C110.659 918.644 111.448 925.297 110.904 928.476C114.173 950.861 98.4025 965.271 90.109 969.678C91.3798 961.262 93.3447 948.441 94.3976 942.093C91.0914 949.775 74.9688 955.578 66.6847 957.643C69.5177 951.747 82.162 936.491 88.1301 929.601L56.9608 937.136Z" fill="#8B332A"/>
</g>
<g filter="url(#filter11_i_999_547)">
<path d="M59.4109 1065.89C38.0116 1050.73 41.4051 1027.37 45.7768 1017.58C47.9001 1010.28 54.5994 1010.34 57.6837 1011.29C80.3022 1010.89 92.5892 1028.37 95.9053 1037.15C87.7194 1034.82 75.2527 1031.24 69.09 1029.39C76.2886 1033.65 79.9941 1050.38 80.9881 1058.86C75.5001 1055.3 61.9773 1040.82 55.902 1034.02L59.4109 1065.89Z" fill="#8B332A"/>
</g>
<g filter="url(#filter12_i_999_547)">
<path d="M53.7717 1254.6C43.4127 1230.5 58.4906 1212.33 67.3244 1206.26C72.9403 1201.13 78.6242 1204.68 80.7642 1207.09C100.272 1218.55 101.647 1239.87 99.8968 1249.09C94.1263 1242.84 85.3537 1233.28 81.0599 1228.49C84.9842 1235.88 79.4252 1252.08 75.8532 1259.84C73.0257 1253.94 69.0352 1234.53 67.3933 1225.57L53.7717 1254.6Z" fill="#8B332A"/>
</g>
<g filter="url(#filter13_i_999_547)">
<path d="M109.798 1344.06C84.7427 1336.31 80.692 1313.05 81.7987 1302.39C81.5445 1294.79 87.9307 1292.77 91.1556 1292.7C112.527 1285.29 129.644 1298.07 135.531 1305.38C127.026 1305.72 114.065 1306.2 107.632 1306.36C115.798 1308.16 124.528 1322.91 128.112 1330.65C121.789 1328.98 104.429 1319.43 96.5399 1314.86L109.798 1344.06Z" fill="#8B332A"/>
</g>
<g filter="url(#filter14_i_999_547)">
<path d="M224.41 1358.09C199.689 1366.85 182.546 1350.61 177.065 1341.39C172.325 1335.45 176.238 1330.01 178.787 1328.04C191.499 1309.32 212.862 1309.35 221.954 1311.71C215.331 1317.05 205.221 1325.18 200.156 1329.15C207.783 1325.72 223.591 1332.33 231.094 1336.4C225.022 1338.84 205.393 1341.54 196.338 1342.59L224.41 1358.09Z" fill="#8B332A"/>
</g>
<g filter="url(#filter15_i_999_547)">
<path d="M293.501 1345.37C270.263 1333.21 270.496 1309.6 273.516 1299.31C274.643 1291.8 281.29 1290.96 284.473 1291.49C306.835 1288.07 321.353 1303.74 325.816 1312C317.392 1310.79 304.558 1308.91 298.202 1307.9C305.906 1311.15 311.82 1327.24 313.941 1335.51C308.025 1332.71 292.684 1320.17 285.753 1314.25L293.501 1345.37Z" fill="#8B332A"/>
</g>
<g filter="url(#filter16_i_999_547)">
<path d="M340.926 1396.77C336.029 1371 354.684 1356.53 364.623 1352.51C371.215 1348.72 375.996 1353.42 377.562 1356.24C394.127 1371.64 390.855 1392.75 387.148 1401.38C382.869 1394.03 376.373 1382.8 373.219 1377.19C375.451 1385.25 366.515 1399.87 361.348 1406.67C359.865 1400.3 360.171 1380.48 360.51 1371.37L340.926 1396.77Z" fill="#8B332A"/>
</g>
<g filter="url(#filter17_i_999_547)">
<path d="M142.039 1688.99C163.063 1673.32 184.244 1683.76 192.206 1690.94C198.492 1695.21 196.364 1701.56 194.515 1704.2C187.91 1725.84 167.496 1732.13 158.114 1732.58C162.858 1725.51 170.11 1714.76 173.773 1709.46C167.503 1715 150.446 1713.36 142.074 1711.69C147.154 1707.57 165.102 1699.17 173.441 1695.49L142.039 1688.99Z" fill="#8B332A"/>
</g>
<g filter="url(#filter18_i_999_547)">
<path d="M312.318 1644.55C291.656 1628.39 296.145 1605.21 300.973 1595.64C303.438 1588.45 310.127 1588.83 313.163 1589.92C335.775 1590.59 347.226 1608.62 350.124 1617.56C342.057 1614.84 329.773 1610.68 323.704 1608.54C330.694 1613.13 333.608 1630.02 334.202 1638.53C328.888 1634.72 316.062 1619.62 310.313 1612.54L312.318 1644.55Z" fill="#8B332A"/>
</g>
<g filter="url(#filter19_i_999_547)">
<path d="M356.305 1700.48C350.731 1674.86 368.998 1659.89 378.828 1655.62C385.317 1651.66 390.22 1656.23 391.861 1659C408.826 1673.97 406.111 1695.16 402.633 1703.88C398.161 1696.64 391.372 1685.59 388.071 1680.06C390.515 1688.06 381.967 1702.91 376.981 1709.84C375.331 1703.51 375.115 1683.7 375.213 1674.58L356.305 1700.48Z" fill="#8B332A"/>
</g>
<g filter="url(#filter20_i_999_547)">
<path d="M303.005 1739.93C321.352 1721.19 343.893 1728.23 352.869 1734.09C359.74 1737.34 358.62 1743.94 357.201 1746.84C354.02 1769.24 334.825 1778.61 325.625 1780.5C329.219 1772.78 334.721 1761.04 337.523 1755.25C332.183 1761.68 315.078 1762.7 306.548 1762.34C310.93 1757.49 327.365 1746.42 335.034 1741.49L303.005 1739.93Z" fill="#8B332A"/>
</g>
<g filter="url(#filter21_i_999_547)">
<path d="M239.587 1710.8C265.088 1716.92 270.621 1739.88 270.2 1750.59C270.94 1758.16 264.697 1760.59 261.483 1760.86C240.63 1769.63 222.729 1757.97 216.386 1751.04C224.852 1750.17 237.756 1748.86 244.165 1748.29C235.901 1747.01 226.244 1732.85 222.17 1725.35C228.588 1726.62 246.524 1735.04 254.69 1739.09L239.587 1710.8Z" fill="#8B332A"/>
</g>
<g filter="url(#filter22_i_999_547)">
<path d="M40.7352 1742.88C44.614 1716.95 67.0013 1709.44 77.7101 1708.92C85.1805 1707.53 88.1452 1713.53 88.6938 1716.71C99.2469 1736.72 89.1918 1755.57 82.8451 1762.49C81.2336 1754.14 78.806 1741.39 77.6793 1735.06C77.1271 1743.4 63.8667 1754.26 56.747 1758.97C57.4492 1752.46 64.2757 1733.86 67.6012 1725.38L40.7352 1742.88Z" fill="#8B332A"/>
</g>
<g filter="url(#filter23_i_999_547)">
<path d="M67.6895 1850.69C52.8465 1829.07 64.1056 1808.31 71.5905 1800.63C76.1044 1794.52 82.3691 1796.89 84.9373 1798.85C106.299 1806.29 111.791 1826.94 111.866 1836.33C104.99 1831.31 94.5284 1823.64 89.3851 1819.78C94.6695 1826.26 92.3661 1843.24 90.369 1851.54C86.4491 1846.3 78.7633 1828.04 75.4104 1819.56L67.6895 1850.69Z" fill="#8B332A"/>
</g>
<defs>
<filter id="filter0_i_999_547" x="61.6982" y="452.399" width="52.8535" height="61.8609" filterUnits="userSpaceOnUse" color-interpolation-filters="sRGB">
<feFlood flood-opacity="0" result="BackgroundImageFix"/>
<feBlend mode="normal" in="SourceGraphic" in2="BackgroundImageFix" result="shape"/>
<feColorMatrix in="SourceAlpha" type="matrix" values="0 0 0 0 0 0 0 0 0 0 0 0 0 0 0 0 0 0 127 0" result="hardAlpha"/>
<feOffset dy="8"/>
<feGaussianBlur stdDeviation="5.05"/>
<feComposite in2="hardAlpha" operator="arithmetic" k2="-1" k3="1"/>
<feColorMatrix type="matrix" values="0 0 0 0 0 0 0 0 0 0 0 0 0 0 0 0 0 0 0.25 0"/>
<feBlend mode="normal" in2="shape" result="effect1_innerShadow_999_547"/>
</filter>
<filter id="filter1_i_999_547" x="72.2451" y="539.24" width="51.9971" height="62.6642" filterUnits="userSpaceOnUse" color-interpolation-filters="sRGB">
<feFlood flood-opacity="0" result="BackgroundImageFix"/>
<feBlend mode="normal" in="SourceGraphic" in2="BackgroundImageFix" result="shape"/>
<feColorMatrix in="SourceAlpha" type="matrix" values="0 0 0 0 0 0 0 0 0 0 0 0 0 0 0 0 0 0 127 0" result="hardAlpha"/>
<feOffset dy="8"/>
<feGaussianBlur stdDeviation="5.05"/>
<feComposite in2="hardAlpha" operator="arithmetic" k2="-1" k3="1"/>
<feColorMatrix type="matrix" values="0 0 0 0 0 0 0 0 0 0 0 0 0 0 0 0 0 0 0.25 0"/>
<feBlend mode="normal" in2="shape" result="effect1_innerShadow_999_547"/>
</filter>
<filter id="filter2_i_999_547" x="153.92" y="571.694" width="53.1436" height="59.5514" filterUnits="userSpaceOnUse" color-interpolation-filters="sRGB">
<feFlood flood-opacity="0" result="BackgroundImageFix"/>
<feBlend mode="normal" in="SourceGraphic" in2="BackgroundImageFix" result="shape"/>
<feColorMatrix in="SourceAlpha" type="matrix" values="0 0 0 0 0 0 0 0 0 0 0 0 0 0 0 0 0 0 127 0" result="hardAlpha"/>
<feOffset dy="8"/>
<feGaussianBlur stdDeviation="5.05"/>
<feComposite in2="hardAlpha" operator="arithmetic" k2="-1" k3="1"/>
<feColorMatrix type="matrix" values="0 0 0 0 0 0 0 0 0 0 0 0 0 0 0 0 0 0 0.25 0"/>
<feBlend mode="normal" in2="shape" result="effect1_innerShadow_999_547"/>
</filter>
<filter id="filter3_i_999_547" x="236.969" y="517.014" width="56.1318" height="57.9009" filterUnits="userSpaceOnUse" color-interpolation-filters="sRGB">
<feFlood flood-opacity="0" result="BackgroundImageFix"/>
<feBlend mode="normal" in="SourceGraphic" in2="BackgroundImageFix" result="shape"/>
<feColorMatrix in="SourceAlpha" type="matrix" values="0 0 0 0 0 0 0 0 0 0 0 0 0 0 0 0 0 0 127 0" result="hardAlpha"/>
<feOffset dy="8"/>
<feGaussianBlur stdDeviation="5.05"/>
<feComposite in2="hardAlpha" operator="arithmetic" k2="-1" k3="1"/>
<feColorMatrix type="matrix" values="0 0 0 0 0 0 0 0 0 0 0 0 0 0 0 0 0 0 0.25 0"/>
<feBlend mode="normal" in2="shape" result="effect1_innerShadow_999_547"/>
</filter>
<filter id="filter4_i_999_547" x="336.205" y="551.401" width="53.6313" height="62.4779" filterUnits="userSpaceOnUse" color-interpolation-filters="sRGB">
<feFlood flood-opacity="0" result="BackgroundImageFix"/>
<feBlend mode="normal" in="SourceGraphic" in2="BackgroundImageFix" result="shape"/>
<feColorMatrix in="SourceAlpha" type="matrix" values="0 0 0 0 0 0 0 0 0 0 0 0 0 0 0 0 0 0 127 0" result="hardAlpha"/>
<feOffset dy="8"/>
<feGaussianBlur stdDeviation="5.05"/>
<feComposite in2="hardAlpha" operator="arithmetic" k2="-1" k3="1"/>
<feColorMatrix type="matrix" values="0 0 0 0 0 0 0 0 0 0 0 0 0 0 0 0 0 0 0.25 0"/>
<feBlend mode="normal" in2="shape" result="effect1_innerShadow_999_547"/>
</filter>
<filter id="filter5_i_999_547" x="359.464" y="638.087" width="51.8384" height="61.3712" filterUnits="userSpaceOnUse" color-interpolation-filters="sRGB">
<feFlood flood-opacity="0" result="BackgroundImageFix"/>
<feBlend mode="normal" in="SourceGraphic" in2="BackgroundImageFix" result="shape"/>
<feColorMatrix in="SourceAlpha" type="matrix" values="0 0 0 0 0 0 0 0 0 0 0 0 0 0 0 0 0 0 127 0" result="hardAlpha"/>
<feOffset dy="8"/>
<feGaussianBlur stdDeviation="5.05"/>
<feComposite in2="hardAlpha" operator="arithmetic" k2="-1" k3="1"/>
<feColorMatrix type="matrix" values="0 0 0 0 0 0 0 0 0 0 0 0 0 0 0 0 0 0 0.25 0"/>
<feBlend mode="normal" in2="shape" result="effect1_innerShadow_999_547"/>
</filter>
<filter id="filter6_i_999_547" x="293.726" y="845.311" width="50.6108" height="63.8563" filterUnits="userSpaceOnUse" color-interpolation-filters="sRGB">
<feFlood flood-opacity="0" result="BackgroundImageFix"/>
<feBlend mode="normal" in="SourceGraphic" in2="BackgroundImageFix" result="shape"/>
<feColorMatrix in="SourceAlpha" type="matrix" values="0 0 0 0 0 0 0 0 0 0 0 0 0 0 0 0 0 0 127 0" result="hardAlpha"/>
<feOffset dy="8"/>
<feGaussianBlur stdDeviation="5.05"/>
<feComposite in2="hardAlpha" operator="arithmetic" k2="-1" k3="1"/>
<feColorMatrix type="matrix" values="0 0 0 0 0 0 0 0 0 0 0 0 0 0 0 0 0 0 0.25 0"/>
<feBlend mode="normal" in2="shape" result="effect1_innerShadow_999_547"/>
</filter>
<filter id="filter7_i_999_547" x="327.304" y="932.023" width="51.0371" height="61.5516" filterUnits="userSpaceOnUse" color-interpolation-filters="sRGB">
<feFlood flood-opacity="0" result="BackgroundImageFix"/>
<feBlend mode="normal" in="SourceGraphic" in2="BackgroundImageFix" result="shape"/>
<feColorMatrix in="SourceAlpha" type="matrix" values="0 0 0 0 0 0 0 0 0 0 0 0 0 0 0 0 0 0 127 0" result="hardAlpha"/>
<feOffset dy="8"/>
<feGaussianBlur stdDeviation="5.05"/>
<feComposite in2="hardAlpha" operator="arithmetic" k2="-1" k3="1"/>
<feColorMatrix type="matrix" values="0 0 0 0 0 0 0 0 0 0 0 0 0 0 0 0 0 0 0.25 0"/>
<feBlend mode="normal" in2="shape" result="effect1_innerShadow_999_547"/>
</filter>
<filter id="filter8_i_999_547" x="238.299" y="978.222" width="54.6699" height="59.5566" filterUnits="userSpaceOnUse" color-interpolation-filters="sRGB">
<feFlood flood-opacity="0" result="BackgroundImageFix"/>
<feBlend mode="normal" in="SourceGraphic" in2="BackgroundImageFix" result="shape"/>
<feColorMatrix in="SourceAlpha" type="matrix" values="0 0 0 0 0 0 0 0 0 0 0 0 0 0 0 0 0 0 127 0" result="hardAlpha"/>
<feOffset dy="8"/>
<feGaussianBlur stdDeviation="5.05"/>
<feComposite in2="hardAlpha" operator="arithmetic" k2="-1" k3="1"/>
<feColorMatrix type="matrix" values="0 0 0 0 0 0 0 0 0 0 0 0 0 0 0 0 0 0 0.25 0"/>
<feBlend mode="normal" in2="shape" result="effect1_innerShadow_999_547"/>
</filter>
<filter id="filter9_i_999_547" x="151.544" y="909.426" width="53.8843" height="61.9125" filterUnits="userSpaceOnUse" color-interpolation-filters="sRGB">
<feFlood flood-opacity="0" result="BackgroundImageFix"/>
<feBlend mode="normal" in="SourceGraphic" in2="BackgroundImageFix" result="shape"/>
<feColorMatrix in="SourceAlpha" type="matrix" values="0 0 0 0 0 0 0 0 0 0 0 0 0 0 0 0 0 0 127 0" result="hardAlpha"/>
<feOffset dy="8"/>
<feGaussianBlur stdDeviation="5.05"/>
<feComposite in2="hardAlpha" operator="arithmetic" k2="-1" k3="1"/>
<feColorMatrix type="matrix" values="0 0 0 0 0 0 0 0 0 0 0 0 0 0 0 0 0 0 0.25 0"/>
<feBlend mode="normal" in2="shape" result="effect1_innerShadow_999_547"/>
</filter>
<filter id="filter10_i_999_547" x="56.9609" y="915.962" width="54.3828" height="61.7163" filterUnits="userSpaceOnUse" color-interpolation-filters="sRGB">
<feFlood flood-opacity="0" result="BackgroundImageFix"/>
<feBlend mode="normal" in="SourceGraphic" in2="BackgroundImageFix" result="shape"/>
<feColorMatrix in="SourceAlpha" type="matrix" values="0 0 0 0 0 0 0 0 0 0 0 0 0 0 0 0 0 0 127 0" result="hardAlpha"/>
<feOffset dy="8"/>
<feGaussianBlur stdDeviation="5.05"/>
<feComposite in2="hardAlpha" operator="arithmetic" k2="-1" k3="1"/>
<feColorMatrix type="matrix" values="0 0 0 0 0 0 0 0 0 0 0 0 0 0 0 0 0 0 0.25 0"/>
<feBlend mode="normal" in2="shape" result="effect1_innerShadow_999_547"/>
</filter>
<filter id="filter11_i_999_547" x="42.521" y="1010.84" width="53.3843" height="63.0516" filterUnits="userSpaceOnUse" color-interpolation-filters="sRGB">
<feFlood flood-opacity="0" result="BackgroundImageFix"/>
<feBlend mode="normal" in="SourceGraphic" in2="BackgroundImageFix" result="shape"/>
<feColorMatrix in="SourceAlpha" type="matrix" values="0 0 0 0 0 0 0 0 0 0 0 0 0 0 0 0 0 0 127 0" result="hardAlpha"/>
<feOffset dy="8"/>
<feGaussianBlur stdDeviation="5.05"/>
<feComposite in2="hardAlpha" operator="arithmetic" k2="-1" k3="1"/>
<feColorMatrix type="matrix" values="0 0 0 0 0 0 0 0 0 0 0 0 0 0 0 0 0 0 0.25 0"/>
<feBlend mode="normal" in2="shape" result="effect1_innerShadow_999_547"/>
</filter>
<filter id="filter12_i_999_547" x="50.271" y="1203.63" width="50.1821" height="64.2048" filterUnits="userSpaceOnUse" color-interpolation-filters="sRGB">
<feFlood flood-opacity="0" result="BackgroundImageFix"/>
<feBlend mode="normal" in="SourceGraphic" in2="BackgroundImageFix" result="shape"/>
<feColorMatrix in="SourceAlpha" type="matrix" values="0 0 0 0 0 0 0 0 0 0 0 0 0 0 0 0 0 0 127 0" result="hardAlpha"/>
<feOffset dy="8"/>
<feGaussianBlur stdDeviation="5.05"/>
<feComposite in2="hardAlpha" operator="arithmetic" k2="-1" k3="1"/>
<feColorMatrix type="matrix" values="0 0 0 0 0 0 0 0 0 0 0 0 0 0 0 0 0 0 0.25 0"/>
<feBlend mode="normal" in2="shape" result="effect1_innerShadow_999_547"/>
</filter>
<filter id="filter13_i_999_547" x="81.6367" y="1290.46" width="53.8945" height="61.5934" filterUnits="userSpaceOnUse" color-interpolation-filters="sRGB">
<feFlood flood-opacity="0" result="BackgroundImageFix"/>
<feBlend mode="normal" in="SourceGraphic" in2="BackgroundImageFix" result="shape"/>
<feColorMatrix in="SourceAlpha" type="matrix" values="0 0 0 0 0 0 0 0 0 0 0 0 0 0 0 0 0 0 127 0" result="hardAlpha"/>
<feOffset dy="8"/>
<feGaussianBlur stdDeviation="5.05"/>
<feComposite in2="hardAlpha" operator="arithmetic" k2="-1" k3="1"/>
<feColorMatrix type="matrix" values="0 0 0 0 0 0 0 0 0 0 0 0 0 0 0 0 0 0 0.25 0"/>
<feBlend mode="normal" in2="shape" result="effect1_innerShadow_999_547"/>
</filter>
<filter id="filter14_i_999_547" x="174.837" y="1310.63" width="56.2568" height="57.9714" filterUnits="userSpaceOnUse" color-interpolation-filters="sRGB">
<feFlood flood-opacity="0" result="BackgroundImageFix"/>
<feBlend mode="normal" in="SourceGraphic" in2="BackgroundImageFix" result="shape"/>
<feColorMatrix in="SourceAlpha" type="matrix" values="0 0 0 0 0 0 0 0 0 0 0 0 0 0 0 0 0 0 127 0" result="hardAlpha"/>
<feOffset dy="8"/>
<feGaussianBlur stdDeviation="5.05"/>
<feComposite in2="hardAlpha" operator="arithmetic" k2="-1" k3="1"/>
<feColorMatrix type="matrix" values="0 0 0 0 0 0 0 0 0 0 0 0 0 0 0 0 0 0 0.25 0"/>
<feBlend mode="normal" in2="shape" result="effect1_innerShadow_999_547"/>
</filter>
<filter id="filter15_i_999_547" x="272.086" y="1291.01" width="53.7295" height="62.3641" filterUnits="userSpaceOnUse" color-interpolation-filters="sRGB">
<feFlood flood-opacity="0" result="BackgroundImageFix"/>
<feBlend mode="normal" in="SourceGraphic" in2="BackgroundImageFix" result="shape"/>
<feColorMatrix in="SourceAlpha" type="matrix" values="0 0 0 0 0 0 0 0 0 0 0 0 0 0 0 0 0 0 127 0" result="hardAlpha"/>
<feOffset dy="8"/>
<feGaussianBlur stdDeviation="5.05"/>
<feComposite in2="hardAlpha" operator="arithmetic" k2="-1" k3="1"/>
<feColorMatrix type="matrix" values="0 0 0 0 0 0 0 0 0 0 0 0 0 0 0 0 0 0 0.25 0"/>
<feBlend mode="normal" in2="shape" result="effect1_innerShadow_999_547"/>
</filter>
<filter id="filter16_i_999_547" x="340.122" y="1351.09" width="50.0303" height="63.574" filterUnits="userSpaceOnUse" color-interpolation-filters="sRGB">
<feFlood flood-opacity="0" result="BackgroundImageFix"/>
<feBlend mode="normal" in="SourceGraphic" in2="BackgroundImageFix" result="shape"/>
<feColorMatrix in="SourceAlpha" type="matrix" values="0 0 0 0 0 0 0 0 0 0 0 0 0 0 0 0 0 0 127 0" result="hardAlpha"/>
<feOffset dy="8"/>
<feGaussianBlur stdDeviation="5.05"/>
<feComposite in2="hardAlpha" operator="arithmetic" k2="-1" k3="1"/>
<feColorMatrix type="matrix" values="0 0 0 0 0 0 0 0 0 0 0 0 0 0 0 0 0 0 0.25 0"/>
<feBlend mode="normal" in2="shape" result="effect1_innerShadow_999_547"/>
</filter>
<filter id="filter17_i_999_547" x="142.04" y="1680.82" width="54.3721" height="59.7522" filterUnits="userSpaceOnUse" color-interpolation-filters="sRGB">
<feFlood flood-opacity="0" result="BackgroundImageFix"/>
<feBlend mode="normal" in="SourceGraphic" in2="BackgroundImageFix" result="shape"/>
<feColorMatrix in="SourceAlpha" type="matrix" values="0 0 0 0 0 0 0 0 0 0 0 0 0 0 0 0 0 0 127 0" result="hardAlpha"/>
<feOffset dy="8"/>
<feGaussianBlur stdDeviation="5.05"/>
<feComposite in2="hardAlpha" operator="arithmetic" k2="-1" k3="1"/>
<feColorMatrix type="matrix" values="0 0 0 0 0 0 0 0 0 0 0 0 0 0 0 0 0 0 0.25 0"/>
<feBlend mode="normal" in2="shape" result="effect1_innerShadow_999_547"/>
</filter>
<filter id="filter18_i_999_547" x="296.906" y="1589.31" width="53.2188" height="63.231" filterUnits="userSpaceOnUse" color-interpolation-filters="sRGB">
<feFlood flood-opacity="0" result="BackgroundImageFix"/>
<feBlend mode="normal" in="SourceGraphic" in2="BackgroundImageFix" result="shape"/>
<feColorMatrix in="SourceAlpha" type="matrix" values="0 0 0 0 0 0 0 0 0 0 0 0 0 0 0 0 0 0 127 0" result="hardAlpha"/>
<feOffset dy="8"/>
<feGaussianBlur stdDeviation="5.05"/>
<feComposite in2="hardAlpha" operator="arithmetic" k2="-1" k3="1"/>
<feColorMatrix type="matrix" values="0 0 0 0 0 0 0 0 0 0 0 0 0 0 0 0 0 0 0.25 0"/>
<feBlend mode="normal" in2="shape" result="effect1_innerShadow_999_547"/>
</filter>
<filter id="filter19_i_999_547" x="355.269" y="1654.07" width="49.9634" height="63.7717" filterUnits="userSpaceOnUse" color-interpolation-filters="sRGB">
<feFlood flood-opacity="0" result="BackgroundImageFix"/>
<feBlend mode="normal" in="SourceGraphic" in2="BackgroundImageFix" result="shape"/>
<feColorMatrix in="SourceAlpha" type="matrix" values="0 0 0 0 0 0 0 0 0 0 0 0 0 0 0 0 0 0 127 0" result="hardAlpha"/>
<feOffset dy="8"/>
<feGaussianBlur stdDeviation="5.05"/>
<feComposite in2="hardAlpha" operator="arithmetic" k2="-1" k3="1"/>
<feColorMatrix type="matrix" values="0 0 0 0 0 0 0 0 0 0 0 0 0 0 0 0 0 0 0.25 0"/>
<feBlend mode="normal" in2="shape" result="effect1_innerShadow_999_547"/>
</filter>
<filter id="filter20_i_999_547" x="303.005" y="1727.78" width="55.2632" height="60.7222" filterUnits="userSpaceOnUse" color-interpolation-filters="sRGB">
<feFlood flood-opacity="0" result="BackgroundImageFix"/>
<feBlend mode="normal" in="SourceGraphic" in2="BackgroundImageFix" result="shape"/>
<feColorMatrix in="SourceAlpha" type="matrix" values="0 0 0 0 0 0 0 0 0 0 0 0 0 0 0 0 0 0 127 0" result="hardAlpha"/>
<feOffset dy="8"/>
<feGaussianBlur stdDeviation="5.05"/>
<feComposite in2="hardAlpha" operator="arithmetic" k2="-1" k3="1"/>
<feColorMatrix type="matrix" values="0 0 0 0 0 0 0 0 0 0 0 0 0 0 0 0 0 0 0.25 0"/>
<feBlend mode="normal" in2="shape" result="effect1_innerShadow_999_547"/>
</filter>
<filter id="filter21_i_999_547" x="216.386" y="1710.8" width="53.8745" height="61.1968" filterUnits="userSpaceOnUse" color-interpolation-filters="sRGB">
<feFlood flood-opacity="0" result="BackgroundImageFix"/>
<feBlend mode="normal" in="SourceGraphic" in2="BackgroundImageFix" result="shape"/>
<feColorMatrix in="SourceAlpha" type="matrix" values="0 0 0 0 0 0 0 0 0 0 0 0 0 0 0 0 0 0 127 0" result="hardAlpha"/>
<feOffset dy="8"/>
<feGaussianBlur stdDeviation="5.05"/>
<feComposite in2="hardAlpha" operator="arithmetic" k2="-1" k3="1"/>
<feColorMatrix type="matrix" values="0 0 0 0 0 0 0 0 0 0 0 0 0 0 0 0 0 0 0.25 0"/>
<feBlend mode="normal" in2="shape" result="effect1_innerShadow_999_547"/>
</filter>
<filter id="filter22_i_999_547" x="40.7354" y="1708.72" width="52.5566" height="61.7776" filterUnits="userSpaceOnUse" color-interpolation-filters="sRGB">
<feFlood flood-opacity="0" result="BackgroundImageFix"/>
<feBlend mode="normal" in="SourceGraphic" in2="BackgroundImageFix" result="shape"/>
<feColorMatrix in="SourceAlpha" type="matrix" values="0 0 0 0 0 0 0 0 0 0 0 0 0 0 0 0 0 0 127 0" result="hardAlpha"/>
<feOffset dy="8"/>
<feGaussianBlur stdDeviation="5.05"/>
<feComposite in2="hardAlpha" operator="arithmetic" k2="-1" k3="1"/>
<feColorMatrix type="matrix" values="0 0 0 0 0 0 0 0 0 0 0 0 0 0 0 0 0 0 0.25 0"/>
<feBlend mode="normal" in2="shape" result="effect1_innerShadow_999_547"/>
</filter>
<filter id="filter23_i_999_547" x="60.4131" y="1796.71" width="51.4536" height="62.8279" filterUnits="userSpaceOnUse" color-interpolation-filters="sRGB">
<feFlood flood-opacity="0" result="BackgroundImageFix"/>
<feBlend mode="normal" in="SourceGraphic" in2="BackgroundImageFix" result="shape"/>
<feColorMatrix in="SourceAlpha" type="matrix" values="0 0 0 0 0 0 0 0 0 0 0 0 0 0 0 0 0 0 127 0" result="hardAlpha"/>
<feOffset dy="8"/>
<feGaussianBlur stdDeviation="5.05"/>
<feComposite in2="hardAlpha" operator="arithmetic" k2="-1" k3="1"/>
<feColorMatrix type="matrix" values="0 0 0 0 0 0 0 0 0 0 0 0 0 0 0 0 0 0 0.25 0"/>
<feBlend mode="normal" in2="shape" result="effect1_innerShadow_999_547"/>
</filter>
<linearGradient id="paint0_linear_999_547" x1="225" y1="0" x2="225" y2="2306" gradientUnits="userSpaceOnUse">
<stop stop-color="#9D9E00"/>
<stop offset="0.05" stop-color="#B94923"/>
</linearGradient>
</defs>
</svg>
