<svg width="737" height="285" viewBox="0 0 737 285" fill="none" xmlns="http://www.w3.org/2000/svg">
<g filter="url(#filter0_d_1040_561)">
<path d="M40.7906 150.594L142.695 43.8947L207.652 52.2831L123.188 100.915L105.786 138.372L40.7906 150.594Z" fill="#EC3C6A"/>
<path d="M206.646 52.3303L696.901 116.244L473.119 184.034L445.457 175.033L157.153 179.458L104.834 139.561L121.175 101.009L206.646 52.3303Z" fill="#FF6B91"/>
<path d="M41.7968 150.546L216.856 247.63L337.572 219.044L490.929 198.079L694.888 116.339L472.057 182.939L446.463 174.986L157.098 178.316L104.779 138.419L41.7968 150.546Z" fill="#C43865"/>
<path d="M589.2 121.318L420.805 80.0215L696.901 116.244L598.383 144.929L589.2 121.318Z" fill="#FFCAE9"/>
<path d="M150.091 149.355L149.922 114.604L154.962 114.579C155.57 114.576 156.018 114.622 156.306 114.717C156.595 114.811 156.884 115.114 157.175 115.624L167.54 134.822C167.831 135.333 168.089 135.86 168.316 136.402C168.543 136.945 168.769 137.504 168.996 138.079C169.218 137.598 169.455 137.053 169.708 136.444C169.961 135.834 170.214 135.257 170.468 134.712L180.502 115.511C180.788 114.998 181.075 114.692 181.362 114.595C181.682 114.497 182.145 114.447 182.753 114.444L187.745 114.42L187.914 149.171L182.106 149.2L181.998 126.88C181.996 126.432 181.993 125.984 181.991 125.536C182.021 125.056 182.051 124.576 182.08 124.095L171.807 143.634C171.332 144.596 170.566 145.08 169.51 145.085L168.598 145.089C167.542 145.094 166.756 144.618 166.239 143.661L155.632 124.176C155.699 124.688 155.749 125.183 155.784 125.663C155.818 126.143 155.836 126.591 155.838 127.007L155.947 149.327L150.091 149.355ZM146.539 149.373L146.525 146.589C146.523 146.141 146.633 145.804 146.856 145.579C147.111 145.354 147.463 145.192 147.91 145.094L150.643 144.505L151.291 149.349L146.539 149.373ZM154.987 149.331L155.587 144.481L158.374 145.043C158.79 145.137 159.127 145.295 159.384 145.518C159.641 145.741 159.771 146.076 159.773 146.524L159.787 149.308L154.987 149.331ZM151.122 114.598L150.521 119.449L147.783 118.886C147.334 118.792 146.981 118.634 146.724 118.411C146.499 118.188 146.385 117.853 146.383 117.405L146.37 114.621L151.122 114.598ZM178.266 149.218L178.253 146.434C178.251 145.986 178.361 145.65 178.584 145.425C178.839 145.199 179.19 145.038 179.638 144.94L182.371 144.35L183.018 149.195L178.266 149.218ZM186.762 149.177L187.315 144.326L190.102 144.889C190.518 144.983 190.855 145.141 191.112 145.364C191.369 145.586 191.499 145.922 191.501 146.37L191.514 149.154L186.762 149.177ZM191.345 114.402L191.359 117.186C191.361 117.634 191.235 117.971 190.98 118.196C190.725 118.421 190.39 118.583 189.974 118.681L187.193 119.27L186.593 114.425L191.345 114.402ZM208.521 149.455C206.057 149.467 203.911 148.933 202.082 147.854C200.252 146.743 198.821 145.198 197.787 143.219C196.785 141.208 196.278 138.89 196.265 136.266C196.254 133.963 196.74 131.896 197.723 130.067C198.706 128.207 200.091 126.744 201.878 125.679C203.664 124.582 205.742 124.028 208.11 124.017C210.254 124.006 212.128 124.461 213.732 125.381C215.369 126.269 216.623 127.543 217.495 129.203C218.399 130.863 218.857 132.845 218.868 135.149C218.872 136.013 218.795 136.621 218.637 136.974C218.478 137.294 218.095 137.456 217.487 137.459L202.367 137.533C202.368 137.629 202.368 137.725 202.369 137.821C202.369 137.917 202.386 138.013 202.418 138.109C202.685 140.347 203.381 142.024 204.507 143.138C205.664 144.253 207.171 144.806 209.027 144.797C209.891 144.792 210.754 144.612 211.616 144.256C212.51 143.9 213.325 143.544 214.059 143.188C214.793 142.8 215.384 142.606 215.832 142.603C216.28 142.601 216.649 142.775 216.939 143.126L218.725 145.325C217.866 146.322 216.862 147.126 215.713 147.74C214.596 148.353 213.414 148.791 212.168 149.053C210.953 149.315 209.737 149.449 208.521 149.455ZM202.446 133.932L213.438 133.879C213.43 132.279 212.991 130.953 212.122 129.901C211.253 128.849 209.971 128.328 208.275 128.336C206.579 128.344 205.237 128.831 204.25 129.796C203.294 130.76 202.693 132.139 202.446 133.932ZM235.999 149.321C233.535 149.333 231.389 148.8 229.559 147.721C227.73 146.61 226.298 145.064 225.265 143.085C224.263 141.074 223.756 138.757 223.743 136.133C223.732 133.829 224.218 131.762 225.201 129.934C226.184 128.073 227.569 126.61 229.356 125.545C231.142 124.449 233.22 123.895 235.587 123.883C237.731 123.873 239.606 124.327 241.21 125.248C242.847 126.136 244.101 127.41 244.973 129.069C245.877 130.729 246.335 132.711 246.346 135.015C246.35 135.879 246.273 136.487 246.115 136.84C245.956 137.161 245.573 137.323 244.965 137.326L229.845 137.399C229.846 137.495 229.846 137.591 229.847 137.687C229.847 137.783 229.864 137.879 229.896 137.975C230.163 140.214 230.859 141.89 231.984 143.005C233.142 144.119 234.649 144.672 236.505 144.663C237.369 144.659 238.232 144.478 239.094 144.122C239.988 143.766 240.803 143.41 241.537 143.054C242.271 142.667 242.862 142.472 243.31 142.47C243.758 142.467 244.127 142.642 244.417 142.992L246.203 145.192C245.344 146.188 244.34 146.993 243.191 147.606C242.074 148.22 240.892 148.658 239.645 148.92C238.431 149.181 237.215 149.315 235.999 149.321ZM229.924 133.799L240.916 133.745C240.908 132.145 240.469 130.819 239.6 129.768C238.731 128.716 237.448 128.194 235.753 128.202C234.057 128.211 232.715 128.697 231.728 129.662C230.772 130.627 230.171 132.005 229.924 133.799ZM260.981 149.2C258.837 149.21 257.17 148.61 255.98 147.4C254.822 146.19 254.238 144.513 254.228 142.369L254.161 128.641L251.665 128.653C251.345 128.654 251.073 128.56 250.848 128.369C250.623 128.178 250.509 127.874 250.507 127.458L250.496 125.059L254.476 124.367L255.692 117.689C255.816 117.017 256.263 116.678 257.031 116.675L260.151 116.659L260.188 124.387L266.668 124.356L266.689 128.58L260.209 128.611L260.274 141.955C260.278 142.723 260.473 143.33 260.859 143.776C261.245 144.19 261.758 144.396 262.398 144.393C262.75 144.391 263.069 144.326 263.357 144.196C263.644 144.035 263.915 143.889 264.171 143.76C264.426 143.631 264.65 143.566 264.842 143.565C265.13 143.564 265.387 143.738 265.612 144.089L267.451 147.008C266.59 147.684 265.6 148.217 264.482 148.607C263.364 148.996 262.197 149.194 260.981 149.2ZM295.921 149.03C293.777 149.04 292.11 148.44 290.92 147.23C289.763 146.02 289.178 144.343 289.168 142.199L289.101 128.471L286.605 128.483C286.285 128.484 286.013 128.39 285.788 128.199C285.563 128.008 285.449 127.704 285.447 127.288L285.436 124.889L289.416 124.197L290.632 117.519C290.757 116.847 291.203 116.508 291.971 116.505L295.091 116.489L295.129 124.217L301.608 124.186L301.629 128.41L295.149 128.441L295.214 141.785C295.218 142.553 295.413 143.16 295.799 143.606C296.185 144.02 296.698 144.226 297.338 144.223C297.69 144.221 298.01 144.156 298.297 144.026C298.584 143.865 298.856 143.719 299.111 143.59C299.366 143.461 299.59 143.396 299.782 143.395C300.07 143.394 300.327 143.568 300.552 143.919L302.391 146.838C301.53 147.514 300.541 148.047 299.422 148.437C298.304 148.826 297.137 149.024 295.921 149.03ZM310.647 148.574L310.474 112.863L316.522 112.833L316.588 126.561C317.544 125.628 318.596 124.887 319.746 124.338C320.895 123.756 322.237 123.461 323.773 123.454C325.565 123.445 327.071 123.838 328.291 124.632C329.543 125.426 330.492 126.525 331.139 127.93C331.786 129.335 332.114 130.949 332.123 132.773L332.199 148.469L326.103 148.499L326.027 132.803C326.02 131.331 325.678 130.181 325.002 129.352C324.326 128.523 323.3 128.112 321.924 128.119C320.932 128.124 319.989 128.368 319.096 128.853C318.234 129.305 317.405 129.933 316.609 130.737L316.695 148.545L310.647 148.574ZM331.047 148.475L331.6 143.624L334.386 144.187C334.803 144.281 335.14 144.439 335.397 144.662C335.654 144.884 335.783 145.22 335.786 145.668L335.799 148.452L331.047 148.475ZM307.047 148.592L307.034 145.808C307.032 145.36 307.142 145.023 307.365 144.798C307.62 144.573 307.971 144.411 308.419 144.313L311.152 143.724L311.799 148.569L307.047 148.592ZM311.626 112.857L311.025 117.708L308.286 117.145C307.838 117.051 307.485 116.893 307.228 116.67C307.003 116.447 306.889 116.112 306.887 115.664L306.874 112.88L311.626 112.857ZM315.543 148.55L316.144 143.699L318.882 144.262C319.331 144.356 319.668 144.514 319.893 144.737C320.15 144.96 320.28 145.295 320.282 145.743L320.295 148.527L315.543 148.55ZM352.389 148.755C349.925 148.767 347.778 148.233 345.949 147.154C344.119 146.043 342.688 144.498 341.654 142.519C340.652 140.508 340.145 138.19 340.132 135.567C340.121 133.263 340.607 131.196 341.59 129.367C342.573 127.507 343.958 126.044 345.745 124.979C347.531 123.882 349.609 123.328 351.977 123.317C354.121 123.306 355.995 123.761 357.599 124.681C359.236 125.569 360.49 126.843 361.362 128.503C362.266 130.163 362.724 132.145 362.735 134.449C362.739 135.313 362.662 135.921 362.504 136.274C362.345 136.594 361.962 136.756 361.354 136.759L346.234 136.833C346.235 136.929 346.235 137.025 346.236 137.121C346.236 137.217 346.253 137.313 346.285 137.409C346.552 139.647 347.248 141.324 348.374 142.438C349.531 143.553 351.038 144.106 352.894 144.097C353.758 144.092 354.621 143.912 355.483 143.556C356.378 143.2 357.192 142.844 357.926 142.488C358.66 142.1 359.251 141.906 359.699 141.903C360.147 141.901 360.516 142.075 360.806 142.426L362.593 144.625C361.733 145.622 360.729 146.426 359.58 147.04C358.463 147.653 357.281 148.091 356.035 148.353C354.82 148.615 353.604 148.749 352.389 148.755ZM346.313 133.232L357.305 133.179C357.297 131.579 356.859 130.253 355.989 129.201C355.12 128.149 353.838 127.628 352.142 127.636C350.446 127.644 349.104 128.131 348.117 129.096C347.161 130.06 346.56 131.439 346.313 133.232ZM391.583 148.564C389.439 148.575 387.772 147.975 386.582 146.765C385.424 145.554 384.84 143.877 384.829 141.733L384.763 128.005L382.267 128.017C381.947 128.019 381.674 127.924 381.449 127.733C381.224 127.542 381.111 127.239 381.109 126.823L381.097 124.423L385.078 123.732L386.293 117.054C386.418 116.381 386.864 116.043 387.632 116.039L390.752 116.024L390.79 123.752L397.27 123.72L397.29 127.944L390.81 127.976L390.875 141.32C390.879 142.088 391.074 142.695 391.46 143.141C391.846 143.555 392.359 143.76 392.999 143.757C393.351 143.756 393.671 143.69 393.958 143.561C394.246 143.399 394.517 143.254 394.772 143.125C395.028 142.995 395.251 142.93 395.443 142.929C395.731 142.928 395.988 143.103 396.214 143.454L398.052 146.373C397.191 147.049 396.202 147.582 395.084 147.971C393.966 148.361 392.799 148.558 391.583 148.564ZM414.807 148.451C412.343 148.463 410.196 147.93 408.367 146.851C406.537 145.74 405.106 144.194 404.072 142.215C403.07 140.204 402.563 137.887 402.55 135.263C402.539 132.959 403.025 130.892 404.008 129.064C404.991 127.203 406.376 125.74 408.163 124.675C409.949 123.579 412.027 123.025 414.395 123.013C416.539 123.003 418.413 123.457 420.017 124.378C421.654 125.266 422.908 126.54 423.78 128.199C424.684 129.859 425.142 131.841 425.153 134.145C425.157 135.009 425.08 135.617 424.922 135.97C424.763 136.291 424.38 136.453 423.772 136.456L408.652 136.529C408.653 136.625 408.653 136.721 408.654 136.817C408.654 136.913 408.671 137.009 408.703 137.105C408.97 139.344 409.666 141.02 410.792 142.135C411.949 143.249 413.456 143.802 415.312 143.793C416.176 143.789 417.039 143.608 417.901 143.252C418.796 142.896 419.61 142.54 420.344 142.184C421.078 141.797 421.669 141.602 422.117 141.6C422.565 141.597 422.934 141.772 423.224 142.122L425.011 144.322C424.151 145.318 423.147 146.123 421.998 146.736C420.881 147.35 419.699 147.788 418.453 148.05C417.238 148.311 416.023 148.445 414.807 148.451ZM408.731 132.929L419.723 132.875C419.715 131.275 419.277 129.949 418.407 128.898C417.538 127.846 416.256 127.324 414.56 127.332C412.864 127.341 411.522 127.827 410.535 128.792C409.579 129.757 408.978 131.135 408.731 132.929ZM437.388 148.341C435.98 148.348 434.731 148.098 433.641 147.592C432.55 147.085 431.699 146.337 431.086 145.348C430.473 144.359 430.163 143.129 430.156 141.657C430.151 140.761 430.387 139.863 430.863 138.965C431.37 138.035 432.182 137.199 433.298 136.457C434.447 135.748 435.964 135.148 437.85 134.659C439.735 134.138 442.07 133.839 444.854 133.761L444.847 132.369C444.839 130.705 444.481 129.491 443.773 128.726C443.097 127.929 442.103 127.534 440.791 127.541C439.863 127.545 439 127.741 438.202 128.129C437.436 128.485 436.718 128.856 436.047 129.244C435.409 129.599 434.786 129.778 434.178 129.781C433.762 129.783 433.393 129.673 433.072 129.45C432.783 129.228 432.558 128.973 432.397 128.686L431.283 126.771C432.717 125.452 434.28 124.468 435.973 123.82C437.698 123.172 439.552 122.843 441.536 122.833C443.456 122.824 445.106 123.216 446.486 124.009C447.866 124.802 448.927 125.917 449.67 127.353C450.413 128.79 450.789 130.452 450.799 132.34L450.874 147.892L448.138 147.905C447.53 147.908 447.066 147.83 446.745 147.672C446.456 147.513 446.215 147.162 446.02 146.619L445.532 144.894C444.289 145.988 443.045 146.842 441.8 147.456C440.587 148.038 439.116 148.333 437.388 148.341ZM439.288 144.204C440.44 144.199 441.447 143.986 442.309 143.565C443.203 143.113 444.064 142.453 444.892 141.585L444.872 137.457C443.464 137.496 442.2 137.614 441.081 137.811C439.994 137.977 439.067 138.221 438.301 138.545C437.566 138.836 436.992 139.223 436.578 139.705C436.197 140.155 436.007 140.7 436.01 141.34C436.015 142.396 436.307 143.147 436.885 143.592C437.495 144.005 438.296 144.209 439.288 144.204ZM449.674 147.898L450.275 143.047L453.062 143.609C453.478 143.703 453.815 143.861 454.072 144.084C454.329 144.307 454.459 144.642 454.461 145.09L454.474 147.874L449.674 147.898ZM462.577 147.835L462.457 123.163L466.153 123.145C466.953 123.141 467.467 123.507 467.694 124.242L468.087 126.064C468.946 125.132 469.903 124.343 470.955 123.698C472.008 123.053 473.255 122.727 474.695 122.72C476.263 122.712 477.545 123.138 478.541 123.997C479.537 124.824 480.278 125.925 480.765 127.298C481.525 125.694 482.624 124.521 484.06 123.778C485.496 123.035 487.031 122.66 488.663 122.652C491.415 122.638 493.515 123.46 494.963 125.117C496.443 126.774 497.19 129.058 497.204 131.97L497.28 147.666L491.232 147.695L491.156 132C491.149 130.464 490.807 129.297 490.131 128.501C489.455 127.704 488.445 127.309 487.101 127.315C485.917 127.321 484.911 127.742 484.083 128.578C483.287 129.414 482.893 130.568 482.9 132.04L482.977 147.736L476.881 147.765L476.804 132.069C476.796 130.438 476.455 129.255 475.779 128.522C475.135 127.758 474.189 127.378 472.941 127.384C472.077 127.388 471.279 127.616 470.545 128.068C469.843 128.487 469.174 129.051 468.537 129.758L468.625 147.805L462.577 147.835ZM458.977 147.852L458.963 145.068C458.961 144.62 459.072 144.284 459.294 144.059C459.549 143.834 459.901 143.672 460.348 143.574L463.081 142.984L463.729 147.829L458.977 147.852ZM467.473 147.811L468.073 142.96L470.812 143.523C471.26 143.617 471.597 143.775 471.822 143.998C472.079 144.221 472.209 144.556 472.211 145.004L472.225 147.788L467.473 147.811ZM481.825 147.741L482.377 142.891L485.164 143.453C485.58 143.547 485.917 143.705 486.174 143.928C486.431 144.151 486.561 144.486 486.563 144.934L486.577 147.718L481.825 147.741ZM463.609 123.158L463.008 128.009L460.27 127.446C459.821 127.352 459.468 127.194 459.211 126.971C458.986 126.748 458.873 126.413 458.87 125.965L458.857 123.181L463.609 123.158ZM496.128 147.672L496.729 142.821L499.468 143.383C499.916 143.477 500.253 143.636 500.478 143.858C500.735 144.081 500.865 144.417 500.867 144.865L500.88 147.649L496.128 147.672ZM508.343 112.86L514.007 112.832L514.074 126.56C514.077 127.296 514.065 128.032 514.036 128.768C514.008 129.472 513.963 130.177 513.903 130.881C513.842 131.585 513.766 132.306 513.673 133.042C513.581 133.779 513.472 134.547 513.348 135.348L509.22 135.368C509.12 134.568 509.005 133.801 508.873 133.065C508.774 132.33 508.69 131.61 508.623 130.907C508.555 130.203 508.504 129.499 508.468 128.795C508.433 128.06 508.413 127.324 508.41 126.588L508.343 112.86ZM507.536 144.352C507.531 143.328 507.879 142.462 508.579 141.755C509.312 141.047 510.19 140.691 511.214 140.686C512.27 140.681 513.152 141.029 513.859 141.729C514.599 142.43 514.971 143.292 514.976 144.316C514.981 145.34 514.617 146.206 513.885 146.913C513.184 147.589 512.306 147.929 511.25 147.934C510.226 147.939 509.344 147.607 508.605 146.939C507.897 146.238 507.541 145.376 507.536 144.352Z" fill="#FFF6FF"/>
</g>
<defs>
<filter id="filter0_d_1040_561" x="-4" y="-25" width="746.015" height="317.692" filterUnits="userSpaceOnUse" color-interpolation-filters="sRGB">
<feFlood flood-opacity="0" result="BackgroundImageFix"/>
<feColorMatrix in="SourceAlpha" type="matrix" values="0 0 0 0 0 0 0 0 0 0 0 0 0 0 0 0 0 0 127 0" result="hardAlpha"/>
<feOffset dy="-3"/>
<feGaussianBlur stdDeviation="20"/>
<feComposite in2="hardAlpha" operator="out"/>
<feColorMatrix type="matrix" values="0 0 0 0 1 0 0 0 0 1 0 0 0 0 1 0 0 0 0.7 0"/>
<feBlend mode="normal" in2="BackgroundImageFix" result="effect1_dropShadow_1040_561"/>
<feBlend mode="normal" in="SourceGraphic" in2="effect1_dropShadow_1040_561" result="shape"/>
</filter>
</defs>
</svg>
