<svg width="402" height="181" viewBox="0 0 402 181" fill="none" xmlns="http://www.w3.org/2000/svg">
<g clip-path="url(#clip0_2148_1742)">
<path fill-rule="evenodd" clip-rule="evenodd" d="M401.076 13.6052C398.982 14.3354 385.676 19.9426 379.074 22.8771C360.858 30.9734 333.062 41.301 328.432 41.6931C321.188 42.3065 317.389 40.7958 303.743 31.8794L291.741 24.0371L285.153 24.0816C279.042 24.1231 277.481 24.6379 263.565 31.2071C236.689 43.8935 205.453 56.604 186.275 62.6546C176.981 65.5881 177.493 65.6972 168.557 58.8604C160.082 52.3762 157.933 51.5716 148.427 51.3186C140.254 51.1012 139.122 50.8211 134.054 47.7553C128.12 44.1659 126.528 43.9756 113.401 45.297C105.343 46.1074 97.1362 44.221 85.0502 38.779C79.8188 36.4231 76.7956 35.7576 69.561 35.3693C61.8243 34.9539 59.6902 34.4343 54.2267 31.6351C50.7365 29.8471 47.0451 28.3837 46.024 28.3837C45.002 28.3837 41.1017 29.4115 37.3564 30.6681C22.2312 35.7421 14.3945 38.0429 12.2363 38.0429C10.9872 38.0429 8.2 37.1736 6.04382 36.1111C0.213353 33.2385 -3.902 33.6132 -9.85748 37.56C-12.6627 39.4194 -17.231 42.4475 -20.0103 44.2895C-25.9637 48.2363 -29.093 49.1829 -42.4601 51.0761C-47.9605 51.8556 -54.7111 53.1721 -57.4613 54.0009L-62.4617 55.5087L-70.5894 51.4876C-81.6813 46.0002 -86.5496 46.0707 -111.698 52.0836C-128.71 56.1511 -131.31 56.5316 -139.468 56.153C-150.017 55.6623 -155.664 53.9449 -172.471 46.1132C-182.99 41.2111 -185.213 40.5215 -190.472 40.5205C-195.089 40.5196 -197.74 41.1474 -201.973 43.2444C-208.052 46.2571 -241.449 60.7131 -246.977 62.7251C-248.902 63.4263 -253.786 65.3311 -257.831 66.9587C-261.876 68.5863 -266.482 69.9183 -268.067 69.9183C-269.652 69.9183 -275.167 67.7807 -280.321 65.1689C-291.431 59.5385 -297.542 58.3273 -303.824 60.5083C-307.876 61.9147 -308.448 61.8935 -312.325 60.1925C-318.823 57.343 -321.968 57.8202 -332.725 63.2892C-358.533 76.4093 -389.389 89.795 -403.489 93.9871C-426.826 100.925 -446.039 107.381 -463.5 99.5C-476.926 93.4408 -488.869 89.7402 -512.5 90C-532.582 90.2212 -523.861 86.6828 -529.406 84.6457C-532.655 83.4518 -535.693 82.4753 -536.157 82.4753C-536.62 82.4753 -537 104.643 -537 131.738V181L938.619 180.516L938.931 140.43C939.102 118.383 938.943 92.035 938.577 81.8793L937.91 63.4128L923.264 62.8989C906.869 62.3242 903.788 61.5448 888.508 54.1004C875.839 47.9282 871.306 47.0588 859.291 48.4951C846.764 49.9933 842.026 49.9276 834.209 48.1474C823.681 45.751 820.567 43.9863 795.363 26.1293C782.615 17.098 780.488 15.9726 774.719 15.2086C768.622 14.402 761.659 16.2006 747.604 22.2106C732.69 28.5876 723.136 30.7812 702.1 32.6579C685.277 34.159 681.919 34.9269 663.597 41.4613C654.819 44.5909 652.19 45.0855 642.095 45.4989C628.383 46.062 622.153 44.872 605.502 38.5124C592.419 33.5138 587.527 33.0993 578.495 36.2202C568.184 39.7835 565.729 39.6619 554.563 35.0361C540.376 29.1584 536.049 29.3178 518.052 36.3874C510.645 39.2977 500.717 43.0368 495.989 44.6981L487.395 47.7176L473.488 41.3097C449.397 30.2094 427.811 19.9117 421.182 16.358C415.726 13.4323 413.891 12.9406 408.681 13.0053C405.323 13.0469 401.901 13.3173 401.076 13.6052ZM-536.535 131.737C-536.535 159.097 -536.407 170.29 -536.251 156.61C-536.094 142.93 -536.094 120.545 -536.251 106.865C-536.407 93.1844 -536.535 104.377 -536.535 131.737Z" fill="url(#paint0_linear_2148_1742)"/>
<path d="M-375.5 82.0007C-385.5 89.2952 -423.6 112.417 -536 74.4848V181H939L938.5 86.69C936.5 90.8584 902 93.4637 785.5 93.4637C776.994 93.4637 771.5 71.5794 737.5 68.4532C721 70.5373 704 86.5858 622 52.8217C608.5 57.511 574.5 82.5214 405 0.195608C389 -3.4519 365 45.527 283.5 12.7008C279 12.7008 259.5 16.8692 184 53.8639C167.5 59.5954 173 87.7321 64.5 63.2427C56 66.369 33.5 87.7321 -50.5 53.8639C-58 49.1744 -69.5 37.1902 -90 37.1902C-102 36.6691 -117.5 64.2848 -188.5 29.3744C-209 33.5428 -247 74.7058 -306.5 53.8639C-312.5 52.8217 -327.5 45.527 -375.5 82.0007Z" fill="url(#paint1_linear_2148_1742)"/>
<path d="M-461.5 129.66C-478.5 139.384 -518.5 162.914 -536 154.747V181H939V125.577C936.5 126.161 924.9 132.694 876.5 116.826L835.5 105.159C833.333 104.77 822.7 103.875 793.5 119.743C792.286 120.403 762.7 122.544 651.5 143.079C650 143.079 648.3 135.612 601.5 117.41C595 117.41 598.4 127.911 566 113.91C554.333 109.631 503 123.826 383 154.164C378.5 154.747 365.2 137.012 302 143.079C292 144.829 255.5 160.58 186 129.661C178 127.91 177.7 111.693 134.5 119.16C132.5 119.506 123 123.243 101.5 113.325C95.4484 110.534 91.8 123.594 49 124.994C41.5 127.327 23.5 140.162 -56.5 148.33C-58.9967 148.585 -68.5 149.497 -110.5 123.826C-115 122.077 -136.5 138.411 -154.5 135.494C-157.5 135.494 -163.7 126.043 -202.5 130.244C-203.773 130.382 -211.5 135.728 -243.5 152.997C-245.149 153.887 -252 164.081 -292 164.081C-293.234 164.081 -293.1 160.931 -329.5 164.665C-332.648 164.988 -342.6 165.408 -361 148.913C-363 147.12 -366.456 152.088 -385.5 144.246C-393.5 140.951 -401.6 146.229 -448 126.16C-451 125.577 -455.5 130.827 -461.5 129.66Z" fill="url(#paint2_linear_2148_1742)"/>
</g>
<defs>
<linearGradient id="paint0_linear_2148_1742" x1="201" y1="-9.15774" x2="201" y2="63.0268" gradientUnits="userSpaceOnUse">
<stop offset="0.110577" stop-color="#434970"/>
<stop offset="0.451923" stop-color="#475576"/>
<stop offset="0.711538" stop-color="#4A597B"/>
<stop offset="1" stop-color="#4E6086"/>
</linearGradient>
<linearGradient id="paint1_linear_2148_1742" x1="201" y1="0" x2="201" y2="181" gradientUnits="userSpaceOnUse">
<stop stop-color="#222337"/>
<stop offset="1" stop-color="#414B6D"/>
</linearGradient>
<linearGradient id="paint2_linear_2148_1742" x1="201.5" y1="105" x2="201.5" y2="181" gradientUnits="userSpaceOnUse">
<stop stop-color="#32324E" stop-opacity="0.75"/>
<stop offset="0.360577" stop-color="#272743" stop-opacity="0.86899"/>
<stop offset="0.639423" stop-color="#21213D" stop-opacity="0.940898"/>
<stop offset="1" stop-color="#1C1C38"/>
</linearGradient>
<clipPath id="clip0_2148_1742">
<rect width="402" height="181" fill="white"/>
</clipPath>
</defs>
</svg>
