<svg width="366" height="330" viewBox="0 0 366 330" fill="none" xmlns="http://www.w3.org/2000/svg">
<g filter="url(#filter0_d_274_362)">
<path d="M185.495 127.959L192.964 71.6855L181.264 71.7107L166.807 85.4762L174.099 129.833L185.495 127.959Z" fill="#FF6B91"/>
<path d="M126.043 101.761L116.23 103.281L117.468 80.3L179.332 70.1302L126.043 101.761Z" fill="#FF6B91"/>
<path d="M194.546 132.165L206.9 75.0884L192.356 67.9884L179.332 70.1294L125.998 101.675L121.114 102.478L140.237 106.926L166.807 85.4754L181.264 71.71L192.964 71.6848L185.495 127.959L194.546 132.165Z" fill="#C43865"/>
<path d="M194.546 132.166L180.697 149.628L174.099 129.833L185.495 127.96L194.546 132.166Z" fill="#FFCAE9"/>
<path d="M120.289 117.799L140.237 106.927L121.114 102.478L116.23 103.281L120.289 117.799Z" fill="#FFCAE9"/>
<path d="M115.124 86.38L117.468 80.3002L96.0001 81.9311L102.403 90.3692L115.124 86.38Z" fill="#FFCAE9"/>
<path d="M168.802 138.295L180.697 149.627L173.795 127.984L166.807 85.4754L156.322 92.8933L168.802 138.295Z" fill="#FFF6FF"/>
</g>
<g filter="url(#filter1_d_274_362)">
<path d="M265.32 242.334L259 212.542H283.375L310.459 199L335.738 212.542L326.71 235.112L310.459 212.542L289.695 217.959L283.375 254.07L265.32 242.334Z" fill="#FF6B91"/>
<path d="M277.056 241.432L275.25 213.445V209.834H289.695L301.432 203.514L289.695 217.959L284.278 247.751L277.056 241.432Z" fill="#C43865"/>
<path d="M326.71 213.445L308.654 205.32L326.71 203.514L335.738 208.028V212.542L329.418 227.89L326.71 223.376V213.445Z" fill="#C43865"/>
<path d="M270.736 241.432L264.417 209.834L265.32 206.793L259.903 206.223L259 211.639L265.32 242.334L283.375 254.071L284.278 247.751L277.056 241.432H270.736Z" fill="#FFCAE9"/>
<path d="M320.39 226.084L326.71 223.376L329.418 227.89L326.71 235.112L320.39 226.084Z" fill="#FFCAE9"/>
<path d="M275.25 248.654L270.736 241.432L264.417 209.834L265.32 207.125L259.903 206.223L259 211.639L265.32 242.334L275.25 248.654Z" fill="#FFF6FF"/>
</g>
<g filter="url(#filter2_d_274_362)">
<path d="M36.1974 223.591L56.2159 183.372L115.752 204.306L124.064 203.006L190.509 215.686L158.992 232.242L154.953 225.559L160.722 213.873L151.203 210.86L129.257 237.079L109.919 244.838L109.185 240.921L67.8748 286.437L50.5034 290.888L48.523 270.239L70.4811 208.524L44.9557 234.225L34.2836 233.549L36.1974 223.591Z" fill="#FF6B91"/>
<path d="M41.5993 224.809L36.1977 223.591L56.4915 181.126L123.592 202.612L169.847 211.603L191.388 215.596L160.893 228.054L157.655 226.169L162.348 211.931L150.325 210.951L117.104 234.338L118.453 204.916L115.28 203.911L109.919 244.839L102.669 224.732L65.4754 272.043L93.5953 203.926L93.4771 196.396L79.9074 192.469L64.9487 205.545L45.8473 228.365L65.9314 189.027L41.5993 224.809Z" fill="#C43865"/>
<path d="M68.2256 190.122L63.5056 186.171L65.1313 184.229L118.794 203.549L118.99 206.191L117.103 234.337L112.121 226.864L114.939 205.277L110.01 204.454L103.101 212.708L93.1887 204.411L93.4769 196.395L87.1968 195.267L54.7375 270.487L48.9295 269.754L70.4813 208.524L75.2141 206.706L85.7808 194.082L83.08 193.473L65.7613 204.573L68.2256 190.122Z" fill="#EC3C6A"/>
<path d="M42.0055 224.323L60.3725 197.586L43.8934 225.904L45.9782 230.126L65.0795 207.306L70.4812 208.524L44.9557 234.224L34.2836 233.549L42.0055 224.323Z" fill="#FFCAE9"/>
<path d="M102.668 224.732L107.638 237.974L68.635 278.816L62.499 273.68L50.9754 291.283L54.7374 270.486L76.2634 220.796L58.2511 270.125L63.7183 272.224L102.668 224.732Z" fill="#FFCAE9"/>
<path d="M112.121 226.864L109.919 244.838L117.103 234.337L112.121 226.864Z" fill="#FFCAE9"/>
<path d="M144.701 218.628L125.887 233.433L129.257 237.079L144.701 218.628Z" fill="#FFCAE9"/>
<path d="M158.992 232.242L157.182 225.773L160.893 228.053L187.127 217.809L158.992 232.242Z" fill="#FFCAE9"/>
</g>
<g filter="url(#filter3_di_274_362)">
<path d="M98.096 122.784L104.368 132.512L90.032 147.488L79.408 146.464L79.664 152.48L73.52 158.624L80.048 159.52L81.456 194.336L72.496 211.744H60.208L52.784 199.328L53.296 186.4L53.424 184.736C53.552 184.48 53.936 184.224 54.192 183.84C57.264 181.152 58.416 180.896 57.392 179.616C56.368 178.464 53.936 177.696 54.192 175.52C54.448 173.472 54.448 170.4 54.832 170.016C55.216 169.504 56.496 168.992 54.832 167.2C54.576 166.944 54.32 166.688 54.064 166.432L54.832 145.696L40.112 146.464L28.464 138.656L31.152 131.104L41.264 129.312L32.432 127.648L34.224 122.784H98.096ZM154.971 191.648L164.315 194.336L169.563 200.864L163.035 211.872H124.891H117.595L104.027 182.816L105.179 171.168C105.179 171.168 105.563 166.432 106.587 165.408C107.611 164.384 107.227 163.36 107.739 161.184C108.251 159.008 110.171 159.648 110.043 159.392C109.915 159.008 109.787 158.24 109.147 155.424C108.763 153.888 107.867 153.504 106.843 153.376L108.251 139.808L117.595 139.424L108.635 135.968L109.019 132.128L119.387 122.4H141.275C142.171 123.808 143.579 125.6 144.987 125.472C147.163 125.216 146.395 123.168 148.827 124.576C150.107 125.216 151.131 123.808 151.899 122.4H160.859L169.563 139.936L163.931 143.648H135.899V154.528H157.403V164.128L153.307 173.984L135.899 176.8V186.784L155.227 183.072L161.243 190.496L154.971 191.648ZM246.163 184.224L250.771 197.792L239.379 211.232L221.715 208.416L217.619 195.36L196.499 196.384L195.347 199.84L189.715 200.736L194.451 202.784L192.403 209.44L172.563 212.128L169.875 187.296L184.595 151.2L192.403 150.048L187.283 144.8L196.499 122.4L218.643 127.392L221.203 133.536L222.739 128.416L227.859 129.568L237.459 158.368L237.715 158.88L239.379 164L241.171 169.248L244.371 178.848L240.147 178.336L246.163 184.224ZM197.651 173.472L214.547 172.064L205.587 147.744L197.651 173.472ZM342.41 183.584C342.41 183.584 344.586 186.272 344.586 187.04L344.97 194.72L341.386 207.648L322.57 212.128L315.53 204.32V198.048C317.962 196.768 324.49 193.184 324.49 193.184L315.402 193.824L315.146 169.376L303.882 187.296L290.058 183.84L282.89 163.36L281.738 190.368L275.722 191.904L281.61 193.824L281.226 204.576L272.522 212.128L252.298 205.728L252.042 187.168L260.234 182.176L251.914 183.584V179.36L254.09 166.432L256.394 164.384C256.394 164.384 256.65 164.256 256.394 162.592C256.138 161.056 256.65 161.568 256.522 159.904C256.266 158.368 256.522 156.448 256.522 156.448C256.522 156.448 256.65 157.6 256.522 155.424C256.394 153.248 256.522 152.48 256.522 152.48L258.058 143.904L263.69 122.4H281.866L286.73 129.44C286.73 129.44 290.058 135.456 290.058 136.608C290.058 137.888 289.162 138.144 290.058 138.528C290.954 139.04 290.954 139.04 290.954 139.04L293.386 140.832C293.386 140.832 292.746 141.984 293.386 141.984C293.77 141.984 294.666 141.984 295.434 141.984L300.17 148.896L313.994 128.672L324.106 122.4L341.898 135.072L342.538 145.952L331.274 149.536L342.666 150.176L343.818 170.656C343.178 171.296 342.41 172.704 342.41 172.704L341.642 175.52V177.184C341.642 177.184 342.154 178.592 342.41 179.872C342.666 181.28 341.898 181.024 341.77 182.688C341.514 184.224 342.41 183.584 342.41 183.584Z" fill="#FF6B91"/>
</g>
<g filter="url(#filter4_di_274_362)">
<path d="M153.078 50.448C153.59 51.6 155.254 53.904 155.894 54.928L154.486 69.392L135.542 85.392L130.55 89.616L115.062 88.464L113.782 84.368L108.15 87.824L101.494 87.312L87.6695 78.608L83.0615 75.664L80.8855 65.296L79.0935 56.464H85.8775C85.8775 56.464 77.3015 47.504 76.6615 44.56L74.3575 33.296L72.5655 24.208L91.8935 4.62399L133.75 0.783997L138.358 5.52C134.518 7.56799 124.662 12.816 125.174 12.816C125.686 12.816 136.438 10.64 142.326 9.488L142.71 9.87199L150.774 18.064L158.838 26.256L157.686 37.776C155.638 39.056 154.87 39.696 154.87 39.952C154.87 40.336 155.766 43.152 154.87 44.304C153.974 45.328 153.078 45.968 153.078 47.12C153.078 48.272 152.438 49.04 153.078 50.448ZM125.942 56.208L132.982 39.184L126.326 27.408L110.198 30.352L100.342 39.184L108.79 61.072L125.942 56.208ZM226.51 55.824C226.638 56.336 226.894 56.592 228.174 57.744L227.534 66.832L208.846 90.128H180.942L174.542 83.088L181.582 73.872L170.446 78.48L165.454 72.976L160.974 10.512L173.262 0.399994L191.694 8.07999L187.982 45.712L196.814 61.456L203.982 47.12L204.878 8.464L219.086 0.399994L225.87 9.23199C222.67 10.896 217.806 13.712 217.806 13.712L228.046 12.048L231.118 16.016L229.71 36.752C229.07 37.136 229.582 37.52 227.918 39.056C226.254 40.464 226.254 41.36 226.254 41.36C226.254 41.36 225.742 41.744 224.846 42.64C223.95 43.536 223.566 43.92 222.926 45.2C222.286 46.608 224.077 47.248 224.846 48.144C225.614 49.04 226.126 51.728 226.126 51.728C226.126 51.728 226.382 55.056 226.51 55.824ZM298.104 70.672L301.561 74.896L297.977 90.128L276.857 86.16L269.944 73.872C270.329 73.232 270.713 72.72 270.713 72.72L269.817 70.8C269.817 70.8 269.049 70.8 269.049 69.52C268.921 68.112 269.305 67.6 269.049 67.088C268.665 66.704 267.769 65.936 267.769 65.936L266.617 65.168C266.617 65.168 265.977 65.424 265.721 64.144C265.465 62.864 266.617 62.096 265.721 62.224C265.208 62.224 264.569 62.608 264.057 62.992L261.369 58.256L260.985 69.648L256.633 89.488H242.681L234.105 81.04L234.745 69.392C235.001 69.264 235.385 69.008 235.897 68.752C238.073 67.344 238.841 70.928 238.073 67.344C237.305 63.632 237.049 62.736 237.049 62.736C237.049 62.736 237.049 61.2 237.049 61.072C237.049 60.944 238.969 59.664 238.457 58C237.817 56.336 237.305 55.952 237.049 54.928C236.793 54.16 236.409 51.984 235.897 50.832L237.049 31.632L241.785 29.968C241.785 29.968 239.481 27.792 237.305 25.744L238.329 8.20799L253.305 0.399994L289.145 2.83199L293.369 7.184L283.769 13.2L295.929 9.87199L301.305 15.376L294.009 42.512L283.641 53.008L295.545 67.6C291.193 66.32 283.513 64.144 283.513 64.144L298.104 70.672ZM273.401 39.696L280.569 25.36L272.249 19.6L261.241 18.064L260.729 36.24L273.401 39.696Z" fill="#FF6B91"/>
</g>
<defs>
<filter id="filter0_d_274_362" x="66" y="34.9883" width="170.899" height="141.64" filterUnits="userSpaceOnUse" color-interpolation-filters="sRGB">
<feFlood flood-opacity="0" result="BackgroundImageFix"/>
<feColorMatrix in="SourceAlpha" type="matrix" values="0 0 0 0 0 0 0 0 0 0 0 0 0 0 0 0 0 0 127 0" result="hardAlpha"/>
<feOffset dy="-3"/>
<feGaussianBlur stdDeviation="15"/>
<feComposite in2="hardAlpha" operator="out"/>
<feColorMatrix type="matrix" values="0 0 0 0 1 0 0 0 0 1 0 0 0 0 1 0 0 0 0.5 0"/>
<feBlend mode="normal" in2="BackgroundImageFix" result="effect1_dropShadow_274_362"/>
<feBlend mode="normal" in="SourceGraphic" in2="effect1_dropShadow_274_362" result="shape"/>
</filter>
<filter id="filter1_d_274_362" x="229" y="166" width="136.738" height="115.071" filterUnits="userSpaceOnUse" color-interpolation-filters="sRGB">
<feFlood flood-opacity="0" result="BackgroundImageFix"/>
<feColorMatrix in="SourceAlpha" type="matrix" values="0 0 0 0 0 0 0 0 0 0 0 0 0 0 0 0 0 0 127 0" result="hardAlpha"/>
<feOffset dy="-3"/>
<feGaussianBlur stdDeviation="15"/>
<feComposite in2="hardAlpha" operator="out"/>
<feColorMatrix type="matrix" values="0 0 0 0 1 0 0 0 0 1 0 0 0 0 1 0 0 0 0.5 0"/>
<feBlend mode="normal" in2="BackgroundImageFix" result="effect1_dropShadow_274_362"/>
<feBlend mode="normal" in="SourceGraphic" in2="effect1_dropShadow_274_362" result="shape"/>
</filter>
<filter id="filter2_d_274_362" x="4.28369" y="148.126" width="217.104" height="170.157" filterUnits="userSpaceOnUse" color-interpolation-filters="sRGB">
<feFlood flood-opacity="0" result="BackgroundImageFix"/>
<feColorMatrix in="SourceAlpha" type="matrix" values="0 0 0 0 0 0 0 0 0 0 0 0 0 0 0 0 0 0 127 0" result="hardAlpha"/>
<feOffset dy="-3"/>
<feGaussianBlur stdDeviation="15"/>
<feComposite in2="hardAlpha" operator="out"/>
<feColorMatrix type="matrix" values="0 0 0 0 1 0 0 0 0 1 0 0 0 0 1 0 0 0 0.5 0"/>
<feBlend mode="normal" in2="BackgroundImageFix" result="effect1_dropShadow_274_362"/>
<feBlend mode="normal" in="SourceGraphic" in2="effect1_dropShadow_274_362" result="shape"/>
</filter>
<filter id="filter3_di_274_362" x="28.4639" y="122.4" width="320.506" height="95.728" filterUnits="userSpaceOnUse" color-interpolation-filters="sRGB">
<feFlood flood-opacity="0" result="BackgroundImageFix"/>
<feColorMatrix in="SourceAlpha" type="matrix" values="0 0 0 0 0 0 0 0 0 0 0 0 0 0 0 0 0 0 127 0" result="hardAlpha"/>
<feOffset dx="2" dy="4"/>
<feGaussianBlur stdDeviation="1"/>
<feComposite in2="hardAlpha" operator="out"/>
<feColorMatrix type="matrix" values="0 0 0 0 0.760784 0 0 0 0 0.262745 0 0 0 0 0.423529 0 0 0 1 0"/>
<feBlend mode="normal" in2="BackgroundImageFix" result="effect1_dropShadow_274_362"/>
<feBlend mode="normal" in="SourceGraphic" in2="effect1_dropShadow_274_362" result="shape"/>
<feColorMatrix in="SourceAlpha" type="matrix" values="0 0 0 0 0 0 0 0 0 0 0 0 0 0 0 0 0 0 127 0" result="hardAlpha"/>
<feOffset dx="2" dy="4"/>
<feGaussianBlur stdDeviation="0.75"/>
<feComposite in2="hardAlpha" operator="arithmetic" k2="-1" k3="1"/>
<feColorMatrix type="matrix" values="0 0 0 0 1 0 0 0 0 0.898039 0 0 0 0 0.901961 0 0 0 0.75 0"/>
<feBlend mode="normal" in2="shape" result="effect2_innerShadow_274_362"/>
</filter>
<filter id="filter4_di_274_362" x="72.5654" y="0.399902" width="232.995" height="95.728" filterUnits="userSpaceOnUse" color-interpolation-filters="sRGB">
<feFlood flood-opacity="0" result="BackgroundImageFix"/>
<feColorMatrix in="SourceAlpha" type="matrix" values="0 0 0 0 0 0 0 0 0 0 0 0 0 0 0 0 0 0 127 0" result="hardAlpha"/>
<feOffset dx="2" dy="4"/>
<feGaussianBlur stdDeviation="1"/>
<feComposite in2="hardAlpha" operator="out"/>
<feColorMatrix type="matrix" values="0 0 0 0 0.760784 0 0 0 0 0.262745 0 0 0 0 0.423529 0 0 0 1 0"/>
<feBlend mode="normal" in2="BackgroundImageFix" result="effect1_dropShadow_274_362"/>
<feBlend mode="normal" in="SourceGraphic" in2="effect1_dropShadow_274_362" result="shape"/>
<feColorMatrix in="SourceAlpha" type="matrix" values="0 0 0 0 0 0 0 0 0 0 0 0 0 0 0 0 0 0 127 0" result="hardAlpha"/>
<feOffset dx="2" dy="4"/>
<feGaussianBlur stdDeviation="0.75"/>
<feComposite in2="hardAlpha" operator="arithmetic" k2="-1" k3="1"/>
<feColorMatrix type="matrix" values="0 0 0 0 1 0 0 0 0 0.898039 0 0 0 0 0.901961 0 0 0 0.75 0"/>
<feBlend mode="normal" in2="shape" result="effect2_innerShadow_274_362"/>
</filter>
</defs>
</svg>
