<svg width="645" height="204" viewBox="0 0 645 204" fill="none" xmlns="http://www.w3.org/2000/svg">
<g filter="url(#filter0_d_1040_543)">
<path d="M36.1979 97.5907L56.2164 57.3723L115.752 78.3061L124.064 77.0064L190.51 89.6861L158.992 106.242L154.954 99.5591L160.722 87.873L151.204 84.8601L129.257 111.079L109.92 118.838L109.185 114.921L67.8753 160.437L50.5039 164.888L48.5235 144.239L70.4816 82.5244L44.9561 108.225L34.2841 107.549L36.1979 97.5907Z" fill="#FF6B91"/>
<path d="M41.5988 98.8095L36.1972 97.591L56.491 55.1259L123.592 76.6116L169.846 85.6026L191.387 89.5959L160.892 102.054L157.654 100.169L162.347 85.9312L150.325 84.9508L117.103 108.338L118.453 78.9156L115.28 77.9113L109.919 118.839L102.668 98.7322L65.4749 146.043L93.5948 77.926L93.4766 70.3955L79.9069 66.4687L64.9482 79.545L45.8468 102.365L65.9309 63.0274L41.5988 98.8095Z" fill="#C43865"/>
<path d="M68.2261 64.1217L63.5061 60.171L65.1318 58.2288L118.794 77.549L118.991 80.1908L117.104 108.337L112.122 100.864L114.94 79.277L110.01 78.4536L103.101 86.7077L93.1892 78.4111L93.4773 70.3951L87.1973 69.267L54.738 144.487L48.93 143.754L70.4817 82.5242L75.2146 80.7058L85.7813 68.0818L83.0805 67.4726L65.7618 78.5734L68.2261 64.1217Z" fill="#EC3C6A"/>
<path d="M42.0055 98.3234L60.3725 71.5857L43.8934 99.9037L45.9782 104.126L65.0795 81.3057L70.4812 82.5242L44.9557 108.224L34.2836 107.549L42.0055 98.3234Z" fill="#FFCAE9"/>
<path d="M102.668 98.7317L107.638 111.974L68.635 152.816L62.499 147.68L50.9754 165.283L54.7374 144.486L76.2634 94.7956L58.2511 144.125L63.7183 146.224L102.668 98.7317Z" fill="#FFCAE9"/>
<path d="M112.121 100.864L109.919 118.838L117.103 108.337L112.121 100.864Z" fill="#FFCAE9"/>
<path d="M144.701 92.6284L125.887 107.433L129.257 111.079L144.701 92.6284Z" fill="#FFCAE9"/>
<path d="M158.992 106.242L157.182 99.7731L160.893 102.053L187.127 91.8089L158.992 106.242Z" fill="#FFCAE9"/>
</g>
<g filter="url(#filter1_d_1040_543)">
<path d="M422.494 127.959L429.964 71.6855L418.264 71.7107L403.806 85.4762L411.098 129.833L422.494 127.959Z" fill="#FF6B91"/>
<path d="M363.042 101.761L353.229 103.281L354.467 80.3L416.332 70.1302L363.042 101.761Z" fill="#FF6B91"/>
<path d="M431.546 132.165L443.899 75.0884L429.356 67.9884L416.332 70.1294L362.997 101.675L358.113 102.478L377.237 106.926L403.806 85.4754L418.264 71.71L429.964 71.6848L422.494 127.959L431.546 132.165Z" fill="#C43865"/>
<path d="M431.546 132.166L417.696 149.628L411.098 129.833L422.494 127.96L431.546 132.166Z" fill="#FFCAE9"/>
<path d="M357.288 117.799L377.237 106.927L358.113 102.478L353.229 103.281L357.288 117.799Z" fill="#FFCAE9"/>
<path d="M352.123 86.38L354.468 80.3002L333 81.9311L339.403 90.3692L352.123 86.38Z" fill="#FFCAE9"/>
<path d="M405.801 138.295L417.696 149.627L410.794 127.984L403.806 85.4754L393.322 92.8933L405.801 138.295Z" fill="#FFF6FF"/>
</g>
<g filter="url(#filter2_d_1040_543)">
<path d="M544.32 119.334L538 89.5419H562.375L589.459 76L614.738 89.5419L605.71 112.112L589.459 89.5419L568.695 94.9587L562.375 131.07L544.32 119.334Z" fill="#FF6B91"/>
<path d="M556.056 118.432L554.25 90.4449V86.8337H568.695L580.431 80.5142L568.695 94.9589L563.278 124.751L556.056 118.432Z" fill="#C43865"/>
<path d="M605.709 90.4449L587.653 82.3198L605.709 80.5142L614.737 85.0281V89.5421L608.418 104.89L605.709 100.376V90.4449Z" fill="#C43865"/>
<path d="M549.736 118.432L543.417 86.8338L544.32 83.7935L538.903 83.2227L538 88.6394L544.32 119.334L562.375 131.071L563.278 124.751L556.056 118.432H549.736Z" fill="#FFCAE9"/>
<path d="M599.39 103.084L605.71 100.376L608.418 104.89L605.71 112.112L599.39 103.084Z" fill="#FFCAE9"/>
<path d="M554.25 125.654L549.736 118.432L543.417 86.8338L544.32 84.1255L538.903 83.2227L538 88.6394L544.32 119.334L554.25 125.654Z" fill="#FFF6FF"/>
</g>
<g filter="url(#filter3_di_1040_543)">
<path d="M115.015 50.448C115.527 51.6 117.191 53.904 117.831 54.928L116.423 69.392L97.479 85.392L92.487 89.616L76.999 88.464L75.719 84.368L70.087 87.824L63.431 87.312L49.607 78.608L44.999 75.664L42.823 65.296L41.031 56.464H47.815C47.815 56.464 39.239 47.504 38.599 44.56L36.295 33.296L34.503 24.208L53.831 4.62399L95.687 0.783997L100.295 5.52C96.455 7.56799 86.599 12.816 87.111 12.816C87.623 12.816 98.375 10.64 104.263 9.488L104.647 9.87199L112.711 18.064L120.775 26.256L119.623 37.776C117.575 39.056 116.807 39.696 116.807 39.952C116.807 40.336 117.703 43.152 116.807 44.304C115.911 45.328 115.015 45.968 115.015 47.12C115.015 48.272 114.375 49.04 115.015 50.448ZM87.879 56.208L94.919 39.184L88.263 27.408L72.135 30.352L62.279 39.184L70.727 61.072L87.879 56.208ZM188.447 55.824C188.575 56.336 188.831 56.592 190.111 57.744L189.471 66.832L170.783 90.128H142.879L136.479 83.088L143.519 73.872L132.383 78.48L127.391 72.976L122.911 10.512L135.199 0.399994L153.631 8.07999L149.919 45.712L158.751 61.456L165.919 47.12L166.815 8.464L181.023 0.399994L187.807 9.23199C184.607 10.896 179.743 13.712 179.743 13.712L189.983 12.048L193.055 16.016L191.647 36.752C191.007 37.136 191.519 37.52 189.855 39.056C188.191 40.464 188.191 41.36 188.191 41.36C188.191 41.36 187.679 41.744 186.783 42.64C185.887 43.536 185.503 43.92 184.863 45.2C184.223 46.608 186.015 47.248 186.783 48.144C187.551 49.04 188.063 51.728 188.063 51.728C188.063 51.728 188.319 55.056 188.447 55.824ZM260.042 70.672L263.498 74.896L259.914 90.128L238.794 86.16L231.882 73.872C232.266 73.232 232.65 72.72 232.65 72.72L231.754 70.8C231.754 70.8 230.986 70.8 230.986 69.52C230.858 68.112 231.242 67.6 230.986 67.088C230.602 66.704 229.706 65.936 229.706 65.936L228.554 65.168C228.554 65.168 227.914 65.424 227.658 64.144C227.402 62.864 228.554 62.096 227.658 62.224C227.146 62.224 226.506 62.608 225.994 62.992L223.306 58.256L222.922 69.648L218.57 89.488H204.618L196.042 81.04L196.682 69.392C196.938 69.264 197.322 69.008 197.834 68.752C200.01 67.344 200.778 70.928 200.01 67.344C199.242 63.632 198.986 62.736 198.986 62.736C198.986 62.736 198.986 61.2 198.986 61.072C198.986 60.944 200.906 59.664 200.394 58C199.754 56.336 199.242 55.952 198.986 54.928C198.73 54.16 198.346 51.984 197.834 50.832L198.986 31.632L203.722 29.968C203.722 29.968 201.418 27.792 199.242 25.744L200.266 8.20799L215.242 0.399994L251.082 2.83199L255.306 7.184L245.706 13.2L257.866 9.87199L263.242 15.376L255.946 42.512L245.578 53.008L257.482 67.6C253.13 66.32 245.45 64.144 245.45 64.144L260.042 70.672ZM235.338 39.696L242.506 25.36L234.186 19.6L223.178 18.064L222.666 36.24L235.338 39.696ZM376.721 0.783997L382.993 10.512L368.657 25.488L358.033 24.464L358.289 30.48L352.145 36.624L358.673 37.52L360.081 72.336L351.121 89.744H338.833L331.409 77.328L331.921 64.4L332.049 62.736C332.177 62.48 332.561 62.224 332.817 61.84C335.889 59.152 337.041 58.896 336.017 57.616C334.993 56.464 332.561 55.696 332.817 53.52C333.073 51.472 333.073 48.4 333.457 48.016C333.841 47.504 335.121 46.992 333.457 45.2C333.201 44.944 332.945 44.688 332.689 44.432L333.457 23.696L318.737 24.464L307.089 16.656L309.777 9.104L319.889 7.312L311.057 5.64799L312.849 0.783997H376.721ZM433.596 69.648L442.94 72.336L448.188 78.864L441.66 89.872H403.516H396.22L382.652 60.816L383.804 49.168C383.804 49.168 384.188 44.432 385.212 43.408C386.236 42.384 385.852 41.36 386.364 39.184C386.876 37.008 388.796 37.648 388.668 37.392C388.54 37.008 388.412 36.24 387.772 33.424C387.388 31.888 386.492 31.504 385.468 31.376L386.876 17.808L396.22 17.424L387.26 13.968L387.644 10.128L398.012 0.399994H419.9C420.796 1.808 422.204 3.6 423.612 3.47199C425.788 3.216 425.02 1.168 427.452 2.576C428.732 3.216 429.756 1.808 430.524 0.399994H439.484L448.188 17.936L442.556 21.648H414.524V32.528H436.028V42.128L431.932 51.984L414.524 54.8V64.784L433.852 61.072L439.868 68.496L433.596 69.648ZM524.788 62.224L529.396 75.792L518.004 89.232L500.34 86.416L496.244 73.36L475.124 74.384L473.972 77.84L468.34 78.736L473.076 80.784L471.028 87.44L451.188 90.128L448.5 65.296L463.22 29.2L471.028 28.048L465.908 22.8L475.124 0.399994L497.268 5.392L499.828 11.536L501.364 6.41599L506.484 7.56799L516.084 36.368L516.34 36.88L518.004 42L519.796 47.248L522.996 56.848L518.772 56.336L524.788 62.224ZM476.276 51.472L493.172 50.064L484.212 25.744L476.276 51.472ZM621.035 61.584C621.035 61.584 623.211 64.272 623.211 65.04L623.595 72.72L620.011 85.648L601.195 90.128L594.155 82.32V76.048C596.587 74.768 603.115 71.184 603.115 71.184L594.027 71.824L593.771 47.376L582.507 65.296L568.683 61.84L561.515 41.36L560.363 68.368L554.347 69.904L560.235 71.824L559.851 82.576L551.147 90.128L530.923 83.728L530.667 65.168L538.859 60.176L530.539 61.584V57.36L532.715 44.432L535.019 42.384C535.019 42.384 535.275 42.256 535.019 40.592C534.763 39.056 535.275 39.568 535.147 37.904C534.891 36.368 535.147 34.448 535.147 34.448C535.147 34.448 535.275 35.6 535.147 33.424C535.019 31.248 535.147 30.48 535.147 30.48L536.683 21.904L542.315 0.399994H560.491L565.355 7.43999C565.355 7.43999 568.683 13.456 568.683 14.608C568.683 15.888 567.787 16.144 568.683 16.528C569.579 17.04 569.579 17.04 569.579 17.04L572.011 18.832C572.011 18.832 571.371 19.984 572.011 19.984C572.395 19.984 573.291 19.984 574.059 19.984L578.795 26.896L592.619 6.672L602.731 0.399994L620.523 13.072L621.163 23.952L609.899 27.536L621.291 28.176L622.443 48.656C621.803 49.296 621.035 50.704 621.035 50.704L620.267 53.52V55.184C620.267 55.184 620.779 56.592 621.035 57.872C621.291 59.28 620.523 59.024 620.395 60.688C620.139 62.224 621.035 61.584 621.035 61.584Z" fill="#FF6B91"/>
</g>
<defs>
<filter id="filter0_d_1040_543" x="4.2832" y="22.126" width="217.104" height="170.157" filterUnits="userSpaceOnUse" color-interpolation-filters="sRGB">
<feFlood flood-opacity="0" result="BackgroundImageFix"/>
<feColorMatrix in="SourceAlpha" type="matrix" values="0 0 0 0 0 0 0 0 0 0 0 0 0 0 0 0 0 0 127 0" result="hardAlpha"/>
<feOffset dy="-3"/>
<feGaussianBlur stdDeviation="15"/>
<feComposite in2="hardAlpha" operator="out"/>
<feColorMatrix type="matrix" values="0 0 0 0 1 0 0 0 0 1 0 0 0 0 1 0 0 0 0.5 0"/>
<feBlend mode="normal" in2="BackgroundImageFix" result="effect1_dropShadow_1040_543"/>
<feBlend mode="normal" in="SourceGraphic" in2="effect1_dropShadow_1040_543" result="shape"/>
</filter>
<filter id="filter1_d_1040_543" x="303" y="34.9883" width="170.899" height="141.64" filterUnits="userSpaceOnUse" color-interpolation-filters="sRGB">
<feFlood flood-opacity="0" result="BackgroundImageFix"/>
<feColorMatrix in="SourceAlpha" type="matrix" values="0 0 0 0 0 0 0 0 0 0 0 0 0 0 0 0 0 0 127 0" result="hardAlpha"/>
<feOffset dy="-3"/>
<feGaussianBlur stdDeviation="15"/>
<feComposite in2="hardAlpha" operator="out"/>
<feColorMatrix type="matrix" values="0 0 0 0 1 0 0 0 0 1 0 0 0 0 1 0 0 0 0.5 0"/>
<feBlend mode="normal" in2="BackgroundImageFix" result="effect1_dropShadow_1040_543"/>
<feBlend mode="normal" in="SourceGraphic" in2="effect1_dropShadow_1040_543" result="shape"/>
</filter>
<filter id="filter2_d_1040_543" x="508" y="43" width="136.737" height="115.071" filterUnits="userSpaceOnUse" color-interpolation-filters="sRGB">
<feFlood flood-opacity="0" result="BackgroundImageFix"/>
<feColorMatrix in="SourceAlpha" type="matrix" values="0 0 0 0 0 0 0 0 0 0 0 0 0 0 0 0 0 0 127 0" result="hardAlpha"/>
<feOffset dy="-3"/>
<feGaussianBlur stdDeviation="15"/>
<feComposite in2="hardAlpha" operator="out"/>
<feColorMatrix type="matrix" values="0 0 0 0 1 0 0 0 0 1 0 0 0 0 1 0 0 0 0.5 0"/>
<feBlend mode="normal" in2="BackgroundImageFix" result="effect1_dropShadow_1040_543"/>
<feBlend mode="normal" in="SourceGraphic" in2="effect1_dropShadow_1040_543" result="shape"/>
</filter>
<filter id="filter3_di_1040_543" x="34.5029" y="0.399902" width="593.092" height="95.728" filterUnits="userSpaceOnUse" color-interpolation-filters="sRGB">
<feFlood flood-opacity="0" result="BackgroundImageFix"/>
<feColorMatrix in="SourceAlpha" type="matrix" values="0 0 0 0 0 0 0 0 0 0 0 0 0 0 0 0 0 0 127 0" result="hardAlpha"/>
<feOffset dx="2" dy="4"/>
<feGaussianBlur stdDeviation="1"/>
<feComposite in2="hardAlpha" operator="out"/>
<feColorMatrix type="matrix" values="0 0 0 0 0.760784 0 0 0 0 0.262745 0 0 0 0 0.423529 0 0 0 1 0"/>
<feBlend mode="normal" in2="BackgroundImageFix" result="effect1_dropShadow_1040_543"/>
<feBlend mode="normal" in="SourceGraphic" in2="effect1_dropShadow_1040_543" result="shape"/>
<feColorMatrix in="SourceAlpha" type="matrix" values="0 0 0 0 0 0 0 0 0 0 0 0 0 0 0 0 0 0 127 0" result="hardAlpha"/>
<feOffset dx="2" dy="4"/>
<feGaussianBlur stdDeviation="0.75"/>
<feComposite in2="hardAlpha" operator="arithmetic" k2="-1" k3="1"/>
<feColorMatrix type="matrix" values="0 0 0 0 1 0 0 0 0 0.898039 0 0 0 0 0.901961 0 0 0 0.75 0"/>
<feBlend mode="normal" in2="shape" result="effect2_innerShadow_1040_543"/>
</filter>
</defs>
</svg>
