<svg width="1295" height="109" viewBox="0 0 1295 109" fill="none" xmlns="http://www.w3.org/2000/svg">
<g filter="url(#filter0_di_1727_540)">
<path d="M406.958 89.584C407.342 92.4 407.342 92.4 407.342 92.4L405.55 98.288L360.366 102.128L356.014 95.216L362.414 92.144C362.414 92.144 357.806 92.272 354.222 92.528L347.694 82.16L359.854 70L385.838 77.808L386.094 72.176L363.95 63.216L347.822 39.28L351.406 33.392C351.918 33.136 352.558 32.88 353.198 32.624C355.118 31.984 354.35 32.24 355.246 30.832C355.885 29.936 355.63 29.936 355.374 29.936C355.758 29.808 356.654 29.168 356.526 28.4C356.398 27.504 357.294 26.48 357.294 25.84C357.294 25.2 358.83 24.816 358.83 24.816L359.982 23.408C359.982 23.408 359.982 22.384 359.086 20.72C359.086 20.592 359.086 20.464 358.958 20.464L363.822 12.4L403.374 14.192L406.446 18.288L396.334 19.952L409.006 22.128L414.894 30.32C414.894 30.32 403.886 39.28 403.118 39.28L372.654 31.856L374.318 41.968L383.662 45.552L389.422 52.464L390.19 48.112L408.238 55.152L415.79 65.264L411.822 78.448L410.286 78.96L409.262 81.264L408.878 83.696L407.598 85.36C406.958 86.512 406.83 87.024 406.958 87.92C407.086 88.816 406.446 86.64 406.958 89.584ZM453.174 73.2L470.582 68.336L499.382 81.648L486.838 92.144L484.15 94.576L475.19 102.128L468.406 101.616L465.846 97.648L465.59 101.36L460.086 100.976V92.016L456.502 100.592L445.75 99.824L427.19 88.048L420.022 53.232C420.022 53.232 421.686 51.44 421.686 50.544C421.686 49.648 420.79 47.984 420.661 46.192C420.534 45.168 419.126 44.144 417.974 43.504L416.566 35.952L436.15 16.112L454.454 14.448C455.094 15.088 456.374 15.6 458.166 15.6C461.238 15.6 464.822 13.808 465.462 14.704C465.846 15.088 466.358 14.32 466.87 13.424L478.39 12.4L503.734 38L477.622 51.184L470.838 39.28L454.582 42.096L444.726 51.184L449.333 63.472L442.422 65.904L450.87 67.312L453.174 73.2ZM573.079 55.024L584.087 57.072L583.319 89.328L579.351 102H561.047L553.111 93.424L553.495 87.28C553.623 87.024 553.879 86.512 554.263 85.872C556.311 82.16 556.439 82.416 555.927 81.264C555.415 80.24 553.879 79.344 554.263 78.32C554.519 77.296 554.391 76.912 554.263 76.4C554.135 76.272 554.135 76.144 554.135 75.888L554.647 66.288L536.087 67.44V102.128H517.783L504.215 73.072L505.111 62.96L512.919 57.2L505.623 57.84L507.286 41.072C507.415 39.792 508.823 39.408 508.695 38.64C508.567 37.744 508.951 36.208 508.567 34.544C508.183 32.752 509.079 32.624 510.103 30.448C510.871 28.784 510.103 28.4 508.695 26.992L509.207 22.256L519.575 12.4L536.087 20.464V48.624L555.799 45.296L556.439 31.856L561.815 30.448L556.695 28.912L557.079 20.336L576.407 12.528L584.855 29.296L584.727 33.52C583.575 34.544 583.062 34.8 583.062 35.184C583.062 35.696 583.447 36.72 583.062 37.616C582.807 38.384 584.087 38.768 583.062 40.176C582.039 41.584 581.143 41.456 581.655 42.096C582.039 42.736 584.471 43.888 584.471 43.888L584.215 51.824L573.079 55.024ZM639.534 81.648L648.878 84.336L654.126 90.864L647.598 101.872H609.454H602.158L588.59 72.816L589.742 61.168C589.742 61.168 590.126 56.432 591.15 55.408C592.174 54.384 591.79 53.36 592.302 51.184C592.814 49.008 594.734 49.648 594.606 49.392C594.478 49.008 594.35 48.24 593.71 45.424C593.326 43.888 592.43 43.504 591.406 43.376L592.814 29.808L602.158 29.424L593.198 25.968L593.582 22.128L603.95 12.4H625.838C626.734 13.808 628.142 15.6 629.55 15.472C631.726 15.216 630.958 13.168 633.39 14.576C634.67 15.216 635.694 13.808 636.462 12.4H645.422L654.126 29.936L648.494 33.648H620.462V44.528H641.966V54.128L637.87 63.984L620.462 66.8V76.784L639.79 73.072L645.806 80.496L639.534 81.648ZM732.774 30.32L740.966 38.512L731.622 84.336L723.686 89.328L715.11 94.704L703.974 96.368L701.03 88.176V96.752L685.67 98.928L684.774 101.616H664.806L656.23 93.168L656.614 86.512L657.126 78.192L657.254 74.224L665.958 73.584C665.958 73.584 660.71 71.536 657.51 70.256L658.15 60.016C658.661 59.248 659.174 58.224 659.302 57.2C659.558 54.512 660.07 55.152 660.838 54.384C661.606 53.616 661.734 51.184 661.734 51.184C661.734 51.184 660.966 50.416 660.966 47.856C660.966 45.296 660.966 46.32 659.942 43.76C659.558 43.12 659.43 42.608 659.174 42.096L660.07 28.656L660.454 20.592L681.574 12.784L684.262 17.776L723.686 21.104L729.958 27.504L720.87 29.552L732.774 30.32ZM708.71 71.28L716.134 51.824L707.43 44.016L693.094 41.328L690.278 46.448L689.766 65.776L708.71 71.28ZM808.26 67.824C808.388 68.336 808.644 68.592 809.924 69.744L809.284 78.832L790.596 102.128H762.692L756.292 95.088L763.332 85.872L752.196 90.48L747.204 84.976L742.724 22.512L755.012 12.4L773.444 20.08L769.732 57.712L778.564 73.456L785.732 59.12L786.628 20.464L800.836 12.4L807.62 21.232C804.42 22.896 799.556 25.712 799.556 25.712L809.796 24.048L812.868 28.016L811.46 48.752C810.82 49.136 811.332 49.52 809.668 51.056C808.004 52.464 808.004 53.36 808.004 53.36C808.004 53.36 807.492 53.744 806.596 54.64C805.7 55.536 805.316 55.92 804.676 57.2C804.036 58.608 805.827 59.248 806.596 60.144C807.364 61.04 807.876 63.728 807.876 63.728C807.876 63.728 808.132 67.056 808.26 67.824ZM877.167 83.312L881.391 88.816L878.191 101.744H862.191C861.807 101.104 861.551 100.464 861.423 100.336C861.039 99.952 859.631 100.592 855.151 100.336C850.799 100.208 854.127 100.72 853.103 100.592C852.079 100.464 851.311 100.336 849.903 100.464C848.879 100.464 846.575 101.36 845.167 101.744H836.207H828.911L815.343 72.944L818.031 45.808L826.351 44.912C826.351 44.912 821.359 42.48 818.415 40.816L820.335 22.384L830.703 12.656L847.215 20.72V49.52C847.215 49.52 846.062 50.672 845.935 52.08C845.679 53.488 845.679 55.408 845.679 55.408C845.679 55.408 846.062 56.432 845.679 57.2C845.423 57.968 845.679 59.504 845.679 59.504V61.04C845.679 61.04 847.215 62.96 847.215 63.472V76.912L869.615 73.072L874.991 80.368L866.799 83.312H877.167ZM930.659 81.648L940.003 84.336L945.251 90.864L938.723 101.872H900.579H893.283L879.715 72.816L880.867 61.168C880.867 61.168 881.251 56.432 882.275 55.408C883.299 54.384 882.915 53.36 883.427 51.184C883.939 49.008 885.859 49.648 885.731 49.392C885.603 49.008 885.475 48.24 884.835 45.424C884.451 43.888 883.555 43.504 882.531 43.376L883.939 29.808L893.283 29.424L884.323 25.968L884.707 22.128L895.075 12.4H916.963C917.859 13.808 919.267 15.6 920.675 15.472C922.851 15.216 922.083 13.168 924.515 14.576C925.795 15.216 926.819 13.808 927.587 12.4H936.547L945.251 29.936L939.619 33.648H911.587V44.528H933.091V54.128L928.995 63.984L911.587 66.8V76.784L930.915 73.072L936.931 80.496L930.659 81.648Z" fill="#E4D4AC"/>
</g>
<g filter="url(#filter1_ii_1727_540)">
<path d="M1212.39 34.5878C1198.04 45.2154 1128.26 46.6915 1095.41 46.9867C1070.79 47.208 1019.91 46.9867 990 46.9867V85.0691C1049.62 85.0691 1080.72 86.25 1126.2 86.25C1174.84 86.25 1201.51 89.7925 1217.39 89.2021C1233.28 88.6117 1237.1 95.6968 1251.22 95.992C1265.34 96.2872 1262.99 88.3165 1263.87 86.5452C1264.58 85.1282 1266.32 84.9707 1267.11 85.0691C1270.83 84.8723 1280.23 83.4159 1287.99 79.1649C1297.7 73.851 1295.64 67.9468 1291.82 65.5851C1288.76 63.6957 1289.95 62.0425 1290.93 61.4521C1292.31 60.0744 1293.99 56.1383 1289.76 51.4149C1284.46 45.5106 1279.46 34.5878 1284.76 23.9601C1290.05 13.3324 1274.17 -15.008 1247.4 10.0851C1220.63 35.1782 1230.33 21.3032 1212.39 34.5878Z" fill="#E4D4AC"/>
</g>
<g filter="url(#filter2_ii_1727_540)">
<path d="M82.6094 34.5878C96.9648 45.2154 166.741 46.6915 199.589 46.9867C224.214 47.208 275.09 46.9867 305 46.9867V85.0691C245.382 85.0691 214.278 86.25 168.8 86.25C120.162 86.25 93.4936 89.7925 77.6085 89.2021C61.7235 88.6117 57.8993 95.6968 43.7793 95.992C29.6592 96.2872 32.0126 88.3165 31.13 86.5452C30.424 85.1282 28.6786 84.9707 27.8942 85.0691C24.1681 84.8723 14.7744 83.4159 7.00842 79.1649C-2.69911 73.851 -0.639934 67.9468 3.18424 65.5851C6.24359 63.6957 5.04721 62.0425 4.0666 61.4521C2.69382 60.0744 1.00726 56.1383 5.24327 51.4149C10.5383 45.5106 15.5392 34.5878 10.2442 23.9601C4.94921 13.3324 20.8343 -15.008 47.6035 10.0851C74.3727 35.1782 64.6652 21.3032 82.6094 34.5878Z" fill="#E4D4AC"/>
</g>
<defs>
<filter id="filter0_di_1727_540" x="347.693" y="12.3999" width="601.558" height="95.728" filterUnits="userSpaceOnUse" color-interpolation-filters="sRGB">
<feFlood flood-opacity="0" result="BackgroundImageFix"/>
<feColorMatrix in="SourceAlpha" type="matrix" values="0 0 0 0 0 0 0 0 0 0 0 0 0 0 0 0 0 0 127 0" result="hardAlpha"/>
<feOffset dx="2" dy="4"/>
<feGaussianBlur stdDeviation="1"/>
<feComposite in2="hardAlpha" operator="out"/>
<feColorMatrix type="matrix" values="0 0 0 0 0.680512 0 0 0 0 0.418074 0 0 0 0 0.230618 0 0 0 1 0"/>
<feBlend mode="normal" in2="BackgroundImageFix" result="effect1_dropShadow_1727_540"/>
<feBlend mode="normal" in="SourceGraphic" in2="effect1_dropShadow_1727_540" result="shape"/>
<feColorMatrix in="SourceAlpha" type="matrix" values="0 0 0 0 0 0 0 0 0 0 0 0 0 0 0 0 0 0 127 0" result="hardAlpha"/>
<feOffset dx="3" dy="6"/>
<feGaussianBlur stdDeviation="0.75"/>
<feComposite in2="hardAlpha" operator="arithmetic" k2="-1" k3="1"/>
<feColorMatrix type="matrix" values="0 0 0 0 1 0 0 0 0 1 0 0 0 0 1 0 0 0 0.75 0"/>
<feBlend mode="normal" in2="shape" result="effect2_innerShadow_1727_540"/>
</filter>
<filter id="filter1_ii_1727_540" x="990" y="-4" width="305" height="104" filterUnits="userSpaceOnUse" color-interpolation-filters="sRGB">
<feFlood flood-opacity="0" result="BackgroundImageFix"/>
<feBlend mode="normal" in="SourceGraphic" in2="BackgroundImageFix" result="shape"/>
<feColorMatrix in="SourceAlpha" type="matrix" values="0 0 0 0 0 0 0 0 0 0 0 0 0 0 0 0 0 0 127 0" result="hardAlpha"/>
<feOffset dy="-6"/>
<feGaussianBlur stdDeviation="2"/>
<feComposite in2="hardAlpha" operator="arithmetic" k2="-1" k3="1"/>
<feColorMatrix type="matrix" values="0 0 0 0 0.678431 0 0 0 0 0.415686 0 0 0 0 0.231373 0 0 0 1 0"/>
<feBlend mode="normal" in2="shape" result="effect1_innerShadow_1727_540"/>
<feColorMatrix in="SourceAlpha" type="matrix" values="0 0 0 0 0 0 0 0 0 0 0 0 0 0 0 0 0 0 127 0" result="hardAlpha"/>
<feOffset dy="8"/>
<feGaussianBlur stdDeviation="2"/>
<feComposite in2="hardAlpha" operator="arithmetic" k2="-1" k3="1"/>
<feColorMatrix type="matrix" values="0 0 0 0 0.972549 0 0 0 0 0.956863 0 0 0 0 0.917647 0 0 0 1 0"/>
<feBlend mode="normal" in2="effect1_innerShadow_1727_540" result="effect2_innerShadow_1727_540"/>
</filter>
<filter id="filter2_ii_1727_540" x="0" y="-4" width="305" height="104" filterUnits="userSpaceOnUse" color-interpolation-filters="sRGB">
<feFlood flood-opacity="0" result="BackgroundImageFix"/>
<feBlend mode="normal" in="SourceGraphic" in2="BackgroundImageFix" result="shape"/>
<feColorMatrix in="SourceAlpha" type="matrix" values="0 0 0 0 0 0 0 0 0 0 0 0 0 0 0 0 0 0 127 0" result="hardAlpha"/>
<feOffset dy="-6"/>
<feGaussianBlur stdDeviation="2"/>
<feComposite in2="hardAlpha" operator="arithmetic" k2="-1" k3="1"/>
<feColorMatrix type="matrix" values="0 0 0 0 0.678431 0 0 0 0 0.415686 0 0 0 0 0.231373 0 0 0 1 0"/>
<feBlend mode="normal" in2="shape" result="effect1_innerShadow_1727_540"/>
<feColorMatrix in="SourceAlpha" type="matrix" values="0 0 0 0 0 0 0 0 0 0 0 0 0 0 0 0 0 0 127 0" result="hardAlpha"/>
<feOffset dy="8"/>
<feGaussianBlur stdDeviation="2"/>
<feComposite in2="hardAlpha" operator="arithmetic" k2="-1" k3="1"/>
<feColorMatrix type="matrix" values="0 0 0 0 0.972549 0 0 0 0 0.956863 0 0 0 0 0.917647 0 0 0 1 0"/>
<feBlend mode="normal" in2="effect1_innerShadow_1727_540" result="effect2_innerShadow_1727_540"/>
</filter>
</defs>
</svg>
