<svg width="1442" height="2917" viewBox="0 0 1442 2917" fill="none" xmlns="http://www.w3.org/2000/svg">
<g filter="url(#filter0_f_1168_1447)">
<path d="M258.607 251.804C278.666 250.655 281.341 250.981 281.398 250.981C283.314 250.879 285.174 250.779 287.746 250.475C290.318 250.172 293.506 249.68 295.986 249.08C303.912 246.426 315.059 246.166 339.81 225.159C355.043 212.231 368.228 198.729 401.557 202.709C420.886 205.017 433.185 206.558 437.366 209.941C443.259 214.709 453.311 220.546 455.978 241.228C458.137 257.973 458.275 278.964 451.958 288.402C436.653 311.272 427.35 322.107 401.262 331.493C381.084 338.753 343.309 352.028 304.951 359.531C266.593 367.034 228.679 367.092 203.289 371.561C164.954 378.309 149.711 382.976 142.16 388.79C127.938 399.74 109.349 414.252 93.8888 440.116C74.762 472.114 59.5829 506.073 47.9498 511.355C39.7979 515.056 30.3457 519.11 18.5032 512.091C9.36251 506.673 -3.22337 497.123 -6.03477 486.87C-8.26315 478.742 -11.6004 459.152 -5.63577 436.325C0.337438 413.465 11.4466 378.669 27.5751 349.669C36.7356 333.197 41.5576 326.295 55.9358 315.21C68.455 305.558 90.9041 288.015 104.328 279.184C121.269 268.04 135.829 261.563 172.535 257.866C198.491 255.251 238.549 252.953 258.607 251.804Z" fill="#D7F7FF" fill-opacity="0.15"/>
</g>
<g filter="url(#filter1_f_1168_1447)">
<path d="M1035.05 2250.23C1081.8 2252.25 1078.55 2254.06 1078.77 2254.07L1078.78 2254.07C1105.1 2255.63 1130.64 2257.14 1146.85 2258.67C1163.06 2260.2 1169.73 2261.7 1174.33 2263.17C1181.39 2266.01 1186.5 2269.11 1188.36 2273.38C1190.25 2277.72 1192.19 2285.21 1190.27 2293.48C1188.18 2302.52 1183.47 2312.58 1169.24 2317.64C1144.35 2326.5 1121.17 2334.57 1084.68 2326.73C1046.11 2318.44 1019.68 2312.41 991.566 2311.27C967.393 2310.3 924.283 2308.86 900.153 2308.24C876.023 2307.61 870.954 2307.53 867.292 2308.05C855.373 2309.72 833.534 2313.08 803.831 2329.02C781.284 2341.12 757.502 2355.33 744.188 2373.02C731.464 2389.92 722.569 2403.04 720.669 2424.47C719.192 2441.13 718.127 2468.99 718.597 2487.06C719.067 2505.13 720.43 2513.28 723.996 2520.7C730.888 2535.04 740.801 2552.12 758.107 2569.01C774.548 2585.06 786.64 2595.57 794.659 2600.1C801.853 2604.17 809.774 2608.28 843.379 2619.29C872.241 2628.75 923.863 2645.27 967.157 2657.55C1010.45 2669.83 1044.52 2677.33 1065.53 2682.77L1066.33 2682.98C1095.07 2690.43 1111.94 2694.8 1124.55 2703.39C1154.94 2724.06 1174.71 2742.41 1172.6 2750.38C1171.7 2753.78 1143.23 2771.33 1100.43 2793.89C1084.03 2802.54 1076.54 2805.69 1059.98 2809.04C1035.4 2814.01 1017.41 2817.27 1002.87 2816.42C974.215 2814.75 941.22 2811.81 908.108 2803.61C889.114 2798.9 866.296 2792.3 817.341 2773.53C768.386 2754.76 695.503 2724.74 650.1 2704.39C604.696 2684.03 587.3 2673.65 574.992 2665.35C562.684 2657.04 554.902 2651.26 550.173 2644.28C540.786 2630.42 535.498 2619.39 536.541 2599.83C537.386 2583.97 539.605 2556.8 547.552 2520.78C555.499 2484.76 568.774 2441.21 586.063 2405.19C603.353 2369.18 624.031 2341.53 641.592 2321.7C659.154 2301.87 672.458 2289.67 687.02 2280.66C714.139 2263.88 737.237 2251.23 758.198 2246.39C776.2 2242.23 789.494 2240.08 844.619 2242.23C895.027 2244.19 988.299 2248.21 1035.05 2250.23Z" fill="#CFF0FF" fill-opacity="0.15"/>
</g>
<g filter="url(#filter2_f_1168_1447)">
<path d="M575.451 172.642C577.696 154.499 582.98 146.261 583.024 146.261C584.474 141.228 584.923 139.417 585.775 136.326C586.627 133.236 587.845 128.996 588.761 126.062C592.713 116.999 597.277 104.259 604.64 101.8C612.774 99.0825 625.262 99.0755 629.991 104.34C631.985 106.558 634.07 109.369 634.861 113.235C635.248 115.125 635.248 117.06 632.627 133.506C630.006 149.952 624.918 179.998 621.077 200.273C617.235 220.549 614.378 230.634 613.299 238.261L613.25 238.613C611.504 250.951 607.952 276.056 613.088 307.308C618.105 337.836 621.917 354.181 638.098 372.436C648.635 384.325 655.507 387.519 667.899 392.898C680.092 398.191 691.921 403.389 694.563 414.085C695.442 417.639 695.814 421.185 694.896 424.228C692.847 431.015 689.966 444.351 678.117 452.546C665.578 461.22 655.168 470.718 643.544 464.125C626.442 454.424 600.472 436.591 596.75 429.803C593.867 424.546 583.383 399.151 571.795 362.827C565.973 344.578 563.98 337.092 563.877 321.589C563.791 308.81 563.988 286.633 566.375 256.852C568.763 227.071 573.207 190.785 575.451 172.642Z" fill="#CFF0FF" fill-opacity="0.15"/>
</g>
<g filter="url(#filter3_f_1168_1447)">
<path d="M195.117 1338.02C173.929 1325.62 154.103 1265.34 152.928 1239.5C148.339 1235.6 148.339 1232.71 149.042 1229.98C157.549 1220.53 194.479 1209.87 241.953 1202.18C279.23 1201.7 310.571 1202.09 325.915 1204.62C356.317 1209.63 408.068 1213.93 472.424 1249.56C497.291 1263.32 500.498 1276.17 535.117 1290.96C588.14 1313.62 627.083 1329.18 670.739 1329.56C703.031 1329.84 732.402 1329.3 747.402 1325.66C762.961 1321.88 804.633 1313.38 825.365 1296.71C859.305 1269.42 880.771 1234.41 906.418 1225.17C919.173 1220.58 932.937 1214.16 956.937 1214.79C1050.26 1217.25 1170.43 1227.55 1211 1246.02C1223.76 1251.83 1235.24 1265.54 1219.93 1288.52C1201.25 1316.55 1189.74 1353.42 1168.98 1395.88C1147.59 1439.64 1139.79 1469.53 1093.27 1484.74C1035.64 1503.58 948.244 1529.89 917.75 1532.32C903.355 1533.47 877.417 1535.07 846.981 1532.99C824.072 1531.42 760.423 1523.48 701.139 1499.33C648.547 1477.91 579.259 1445.08 483.763 1414.24C426.519 1395.76 357.327 1381.6 284.645 1364.82C239.955 1354.51 210.278 1346.89 195.117 1338.02Z" fill="#CFF0FF" fill-opacity="0.15"/>
</g>
<g filter="url(#filter4_f_1168_1447)">
<path d="M1236.72 2535.29C1253.4 2551.08 1255.43 2553.57 1255.48 2553.62C1257.07 2555.13 1258.61 2556.6 1260.81 2558.5C1263.02 2560.4 1265.8 2562.66 1268.05 2564.24C1275.56 2568.7 1284.67 2577.79 1313.42 2581.45C1331.12 2583.7 1347.4 2583.79 1372.66 2614.78C1387.31 2632.76 1396.6 2644.25 1398.57 2650.47C1401.34 2659.23 1407.03 2672.33 1400.56 2691.26C1395.32 2706.58 1386.68 2723.65 1377.64 2726.01C1355.75 2731.73 1343.72 2732.73 1318.73 2718.56C1299.4 2707.61 1263.36 2686.84 1229.24 2660.93C1195.13 2635.02 1164.48 2603.47 1142.11 2585.91C1108.33 2559.41 1094.07 2550.48 1085.55 2548.88C1069.49 2545.87 1048.43 2542.1 1025.16 2550.1C996.365 2560.01 969.946 2574.78 958.347 2569.35C950.219 2565.55 940.894 2560.95 934.254 2545.4C929.13 2533.41 922.945 2515.2 924.949 2504.58C926.537 2496.16 932.009 2477.55 946.345 2464.08C960.7 2450.6 984.181 2431.75 1009.3 2421.77C1023.57 2416.1 1030.34 2414.54 1046.58 2417.57C1060.71 2420.21 1086.16 2424.75 1100.69 2428.81C1119.02 2433.93 1133.48 2440.83 1164.67 2468.44C1186.73 2487.96 1220.04 2519.5 1236.72 2535.29Z" fill="#D7F7FF" fill-opacity="0.15"/>
</g>
<defs>
<filter id="filter0_f_1168_1447" x="-109" y="102" width="666.32" height="513.93" filterUnits="userSpaceOnUse" color-interpolation-filters="sRGB">
<feFlood flood-opacity="0" result="BackgroundImageFix"/>
<feBlend mode="normal" in="SourceGraphic" in2="BackgroundImageFix" result="shape"/>
<feGaussianBlur stdDeviation="50" result="effect1_foregroundBlur_1168_1447"/>
</filter>
<filter id="filter1_f_1168_1447" x="436.411" y="2141.38" width="854.651" height="775.175" filterUnits="userSpaceOnUse" color-interpolation-filters="sRGB">
<feFlood flood-opacity="0" result="BackgroundImageFix"/>
<feBlend mode="normal" in="SourceGraphic" in2="BackgroundImageFix" result="shape"/>
<feGaussianBlur stdDeviation="50" result="effect1_foregroundBlur_1168_1447"/>
</filter>
<filter id="filter2_f_1168_1447" x="463.861" y="0" width="331.567" height="566.327" filterUnits="userSpaceOnUse" color-interpolation-filters="sRGB">
<feFlood flood-opacity="0" result="BackgroundImageFix"/>
<feBlend mode="normal" in="SourceGraphic" in2="BackgroundImageFix" result="shape"/>
<feGaussianBlur stdDeviation="50" result="effect1_foregroundBlur_1168_1447"/>
</filter>
<filter id="filter3_f_1168_1447" x="48.7024" y="1102" width="1278.55" height="532" filterUnits="userSpaceOnUse" color-interpolation-filters="sRGB">
<feFlood flood-opacity="0" result="BackgroundImageFix"/>
<feBlend mode="normal" in="SourceGraphic" in2="BackgroundImageFix" result="shape"/>
<feGaussianBlur stdDeviation="50" result="effect1_foregroundBlur_1168_1447"/>
</filter>
<filter id="filter4_f_1168_1447" x="824.562" y="2316.05" width="678.974" height="513.891" filterUnits="userSpaceOnUse" color-interpolation-filters="sRGB">
<feFlood flood-opacity="0" result="BackgroundImageFix"/>
<feBlend mode="normal" in="SourceGraphic" in2="BackgroundImageFix" result="shape"/>
<feGaussianBlur stdDeviation="50" result="effect1_foregroundBlur_1168_1447"/>
</filter>
</defs>
</svg>
