<svg width="775" height="658" viewBox="0 0 775 658" fill="none" xmlns="http://www.w3.org/2000/svg">
<ellipse cx="15.8564" cy="16.4316" rx="15.8564" ry="16.4316" transform="matrix(-0.9014 0.432987 0.432987 0.9014 675.839 196.439)" fill="url(#paint0_radial_1_83)"/>
<path d="M666.617 210.938C665.803 210.067 664.351 210.764 664.522 211.945L664.952 214.911C665.028 215.438 664.753 215.953 664.274 216.184L661.577 217.479C660.523 217.985 660.719 219.542 661.865 219.772L664.926 220.384C665.432 220.485 665.819 220.894 665.893 221.404L666.341 224.496C666.511 225.668 668.084 225.933 668.629 224.882L669.969 222.292C670.219 221.81 670.757 221.551 671.29 221.658L674.149 222.23C675.31 222.463 676.086 221.069 675.278 220.204L673.144 217.921C672.792 217.544 672.715 216.987 672.952 216.529L674.387 213.757C674.925 212.718 673.832 211.592 672.778 212.099L670.081 213.394C669.601 213.624 669.027 213.517 668.664 213.128L666.617 210.938Z" fill="#FFF7EB"/>
<ellipse cx="19.0277" cy="19.7179" rx="19.0277" ry="19.7179" transform="matrix(-0.9014 0.432987 0.432987 0.9014 663.884 239.516)" fill="url(#paint1_radial_1_83)"/>
<path d="M652.818 256.915C651.84 255.869 650.097 256.706 650.303 258.123L650.819 261.682C650.91 262.314 650.581 262.933 650.005 263.21L646.769 264.764C645.504 265.372 645.739 267.24 647.115 267.515L650.789 268.25C651.395 268.372 651.86 268.862 651.948 269.474L652.486 273.185C652.69 274.591 654.578 274.909 655.231 273.647L656.839 270.54C657.139 269.961 657.786 269.651 658.425 269.779L661.855 270.465C663.248 270.744 664.18 269.072 663.21 268.034L660.65 265.294C660.227 264.842 660.135 264.174 660.419 263.624L662.141 260.297C662.787 259.051 661.475 257.7 660.21 258.308L656.974 259.862C656.398 260.138 655.71 260.009 655.273 259.542L652.818 256.915Z" fill="#FFF7EB"/>
<ellipse cx="24.7918" cy="25.4378" rx="24.7918" ry="25.4378" transform="matrix(-0.665801 0.746129 0.729494 0.683987 602.362 212.132)" fill="url(#paint2_radial_1_83)"/>
<path d="M597.392 238.749C595.733 237.959 594.071 239.821 594.986 241.444L597.299 245.549C597.708 246.274 597.612 247.185 597.062 247.802L593.951 251.288C592.736 252.649 593.919 254.814 595.687 254.469L600.36 253.556C601.143 253.403 601.936 253.775 602.335 254.484L604.719 258.714C605.629 260.329 608.022 259.805 608.202 257.951L608.65 253.333C608.732 252.489 609.346 251.801 610.158 251.642L614.607 250.774C616.391 250.425 616.688 247.936 615.038 247.15L610.715 245.092C609.992 244.748 609.559 243.972 609.638 243.159L610.11 238.306C610.288 236.47 608.079 235.455 606.865 236.816L603.754 240.302C603.204 240.919 602.327 241.098 601.586 240.745L597.392 238.749Z" fill="#FFF7EB"/>
<path d="M369.152 211.263C453.197 198.156 531.256 199.745 589.481 212.819C618.602 219.358 642.617 228.738 659.927 240.47C677.231 252.198 687.61 266.109 690.045 281.722C692.48 297.335 686.83 313.746 673.919 330.187C661.004 346.632 640.985 362.879 615.238 377.975C563.76 408.158 489.892 433.443 405.847 446.551C321.803 459.658 243.744 458.068 185.519 444.994C156.398 438.455 132.383 429.075 115.074 417.344C97.769 405.615 87.3908 391.704 84.9558 376.091C82.5209 360.478 88.1701 344.067 101.082 327.627C113.997 311.181 134.014 294.934 159.761 279.838C211.24 249.654 285.108 224.371 369.152 211.263Z" stroke="url(#paint3_linear_1_83)" stroke-width="5.52268"/>
<defs>
<radialGradient id="paint0_radial_1_83" cx="0" cy="0" r="1" gradientUnits="userSpaceOnUse" gradientTransform="translate(15.8564 16.4316) rotate(90) scale(16.4316 15.8564)">
<stop stop-color="#FFF6E8"/>
<stop offset="1" stop-color="#FFF6E8" stop-opacity="0"/>
</radialGradient>
<radialGradient id="paint1_radial_1_83" cx="0" cy="0" r="1" gradientUnits="userSpaceOnUse" gradientTransform="translate(19.0277 19.7179) rotate(90) scale(19.7179 19.0277)">
<stop stop-color="#FFF6E8"/>
<stop offset="1" stop-color="#FFF6E8" stop-opacity="0"/>
</radialGradient>
<radialGradient id="paint2_radial_1_83" cx="0" cy="0" r="1" gradientUnits="userSpaceOnUse" gradientTransform="translate(24.7918 25.4378) rotate(90) scale(25.4378 24.7918)">
<stop stop-color="#FFF6E8"/>
<stop offset="1" stop-color="#FFF6E8" stop-opacity="0"/>
</radialGradient>
<linearGradient id="paint3_linear_1_83" x1="447.465" y1="145.692" x2="372.798" y2="345.269" gradientUnits="userSpaceOnUse">
<stop stop-color="#FFF7EB"/>
<stop offset="1" stop-color="#FFF9F0" stop-opacity="0"/>
</linearGradient>
</defs>
</svg>
