<svg width="48" height="48" viewBox="0 0 48 48" fill="none" xmlns="http://www.w3.org/2000/svg">
<path d="M42 15.834V23.902C38.3721 23.5421 34.9129 22.1923 32 20V29C31.9995 31.4423 31.311 33.835 30.0134 35.904C28.7158 37.9731 26.8617 39.6347 24.6633 40.6987C22.465 41.7626 20.0114 42.1858 17.5837 41.9197C15.156 41.6537 12.8523 40.7091 10.9366 39.1943C9.02091 37.6794 7.57068 35.6556 6.75205 33.3546C5.93343 31.0536 5.77953 28.5686 6.30798 26.1842C6.83643 23.7998 8.02586 21.6125 9.74 19.8728C11.4541 18.1332 13.6237 16.9116 16 16.348V25C15.3182 25.5114 14.7784 26.1885 14.4319 26.9672C14.0854 27.7459 13.9437 28.6002 14.0202 29.449C14.0967 30.2979 14.389 31.1131 14.8692 31.8172C15.3494 32.5213 16.0016 33.091 16.7639 33.4721C17.5262 33.8533 18.3733 34.0333 19.2247 33.9949C20.0762 33.9566 20.9037 33.7013 21.6287 33.2533C22.3537 32.8052 22.9521 32.1792 23.3671 31.4348C23.7821 30.6904 24 29.8523 24 29V6H32.166C32.5824 8.45681 33.7527 10.7232 35.5147 12.4853C37.2768 14.2473 39.5432 15.4176 42 15.834Z" stroke="#FFF7EB" stroke-width="4" stroke-linecap="round" stroke-linejoin="round"/>
</svg>
