<svg width="425" height="236" viewBox="0 0 425 236" fill="none" xmlns="http://www.w3.org/2000/svg">
<path d="M28.6174 87.6223V23.7665H50.8435C55.7238 23.7665 59.9279 24.3545 63.4559 25.5305C66.9838 26.7064 69.6886 28.5586 71.5701 31.087C73.4517 33.5565 74.3925 36.7905 74.3925 40.7888C74.3925 42.9056 73.9515 44.8753 73.0695 46.6981C72.2463 48.4621 71.0115 50.0203 69.3652 51.3726C67.7188 52.725 65.6314 53.8128 63.1031 54.636C67.4542 55.6356 70.7175 57.3113 72.8931 59.6633C75.0687 62.0153 76.1565 65.0728 76.1565 68.836C76.1565 72.6579 75.1863 75.98 73.2459 78.8024C71.3643 81.566 68.689 83.7415 65.2198 85.3291C61.7507 86.8579 57.6642 87.6223 52.9602 87.6223H28.6174ZM40.7888 78.2732H52.6956C56.694 78.2732 59.6045 77.3912 61.4273 75.6272C63.2501 73.8045 64.1614 71.4525 64.1614 68.5714C64.1614 65.6902 63.2207 63.4852 61.3391 61.9565C59.5163 60.4277 56.6058 59.6633 52.6074 59.6633H40.7888V78.2732ZM40.7888 51.3726H50.1379C52.725 51.3726 54.9006 51.0786 56.6646 50.4907C58.4873 49.8439 59.8691 48.8443 60.8099 47.4919C61.7507 46.1395 62.2211 44.3756 62.2211 42.2C62.2211 38.9072 61.2803 36.5847 59.3987 35.2323C57.576 33.8211 54.7242 33.1155 50.8435 33.1155H40.7888V51.3726ZM22.0907 87.6223V82.5067C22.0907 81.6835 22.2965 81.0662 22.7081 80.6546C23.1785 80.243 23.8253 79.949 24.6485 79.7726L29.6758 78.7142L30.8224 87.6223H22.0907ZM30.8224 23.7665L29.6758 32.6745L24.6485 31.6162C23.8253 31.4398 23.1785 31.1458 22.7081 30.7342C22.2965 30.3226 22.0907 29.7052 22.0907 28.882V23.7665H30.8224ZM87.5354 87.6223V42.2882H98.6485V87.6223H87.5354ZM80.9205 87.6223V82.5067C80.9205 81.6835 81.1263 81.0662 81.5379 80.6546C82.0083 80.243 82.6551 79.949 83.4783 79.7726L88.5056 78.7142L89.6522 87.6223H80.9205ZM96.5317 87.6223L97.6783 78.7142L102.706 79.7726C103.529 79.949 104.146 80.243 104.558 80.6546C105.028 81.0662 105.263 81.6835 105.263 82.5067V87.6223H96.5317ZM89.6522 42.2882L88.5056 51.1962L83.4783 50.1379C82.6551 49.9615 82.0083 49.6675 81.5379 49.2559C81.1263 48.8443 80.9205 48.2269 80.9205 47.4037V42.2882H89.6522ZM93.2684 36.0261C91.3868 36.0261 89.7404 35.3499 88.3292 33.9975C86.9181 32.6451 86.2125 31.0282 86.2125 29.1466C86.2125 27.2062 86.9181 25.5599 88.3292 24.2075C89.7404 22.7963 91.3868 22.0907 93.2684 22.0907C95.2087 22.0907 96.8845 22.7963 98.2957 24.2075C99.7068 25.5599 100.412 27.2062 100.412 29.1466C100.412 31.0282 99.7068 32.6451 98.2957 33.9975C96.8845 35.3499 95.2087 36.0261 93.2684 36.0261ZM126.811 88.3278C122.872 88.3278 119.814 87.2107 117.639 84.9763C115.522 82.7419 114.464 79.655 114.464 75.7154V50.4907H109.877C109.289 50.4907 108.789 50.3143 108.378 49.9615C107.966 49.6087 107.76 49.0501 107.76 48.2857V43.8758L115.081 42.641L117.374 30.3814C117.609 29.1466 118.433 28.5292 119.844 28.5292H125.577V42.7292H137.483V50.4907H125.577V75.0099C125.577 76.421 125.929 77.5382 126.635 78.3614C127.341 79.1258 128.281 79.508 129.457 79.508C130.104 79.508 130.692 79.3904 131.221 79.1552C131.75 78.8612 132.25 78.5966 132.721 78.3614C133.191 78.1262 133.603 78.0086 133.955 78.0086C134.485 78.0086 134.955 78.332 135.367 78.9788L138.718 84.3589C137.131 85.5937 135.308 86.5639 133.25 87.2695C131.192 87.975 129.046 88.3278 126.811 88.3278ZM163.135 88.3278C159.254 88.3278 155.755 87.3577 152.639 85.4173C149.582 83.4181 147.141 80.684 145.319 77.2148C143.555 73.6869 142.673 69.5709 142.673 64.867C142.673 60.3395 143.525 56.3412 145.23 52.872C146.936 49.3441 149.435 46.5805 152.727 44.5813C156.02 42.5822 160.048 41.5826 164.81 41.5826C167.045 41.5826 169.367 41.8766 171.778 42.4646C174.248 42.9938 176.688 43.7876 179.099 44.8459V51.2844L173.454 51.99C172.278 51.2844 171.073 50.7846 169.838 50.4907C168.662 50.1379 167.221 49.9615 165.516 49.9615C162.929 49.9615 160.783 50.5789 159.078 51.8136C157.431 53.0484 156.196 54.783 155.373 57.0173C154.609 59.2517 154.227 61.8683 154.227 64.867C154.227 69.5709 155.167 73.2753 157.049 75.98C158.989 78.626 161.694 79.949 165.163 79.949C167.045 79.949 168.632 79.6256 169.926 78.9788C171.22 78.2732 172.337 77.5676 173.278 76.862C174.218 76.1564 175.071 75.8036 175.835 75.8036C176.306 75.8036 176.688 75.8918 176.982 76.0682C177.335 76.2446 177.629 76.4798 177.864 76.7738L181.039 80.831C178.628 83.6533 175.865 85.6231 172.748 86.7403C169.632 87.7987 166.427 88.3278 163.135 88.3278ZM171.249 49.3441L179.099 51.2844V58.1639H175.042C174.218 58.1639 173.601 57.9287 173.189 57.4583C172.778 56.9879 172.484 56.3706 172.307 55.6062L171.249 49.3441ZM198.455 88.3278C195.868 88.3278 193.575 87.8574 191.576 86.9167C189.577 85.9759 188.019 84.5941 186.901 82.7713C185.784 80.9486 185.226 78.6848 185.226 75.98C185.226 74.3337 185.667 72.6873 186.549 71.0409C187.489 69.3357 188.989 67.807 191.047 66.4546C193.164 65.161 195.957 64.0732 199.426 63.1912C202.895 62.2505 207.187 61.7213 212.303 61.6037V59.0459C212.303 55.9884 211.656 53.754 210.362 52.3428C209.128 50.8728 207.305 50.1379 204.894 50.1379C203.189 50.1379 201.601 50.4907 200.131 51.1962C198.72 51.843 197.397 52.5192 196.162 53.2248C194.986 53.8716 193.84 54.195 192.723 54.195C191.958 54.195 191.282 53.9892 190.694 53.5776C190.165 53.166 189.753 52.6956 189.459 52.1664L187.431 48.6385C190.077 46.2277 192.958 44.4344 196.074 43.2584C199.249 42.0824 202.66 41.4944 206.305 41.4944C209.833 41.4944 212.861 42.2294 215.39 43.6994C217.918 45.1693 219.858 47.2273 221.211 49.8733C222.563 52.5192 223.239 55.5768 223.239 59.0459V87.6223H218.212C217.095 87.6223 216.242 87.4753 215.654 87.1813C215.125 86.8873 214.684 86.2405 214.331 85.2409L213.449 82.0657C211.156 84.0649 208.863 85.6231 206.57 86.7403C204.335 87.7987 201.631 88.3278 198.455 88.3278ZM201.983 80.7428C204.1 80.7428 205.952 80.3606 207.54 79.5962C209.186 78.773 210.774 77.5676 212.303 75.98V68.395C209.715 68.4538 207.393 68.6596 205.335 69.0124C203.336 69.3063 201.631 69.7473 200.219 70.3353C198.867 70.8645 197.809 71.5701 197.044 72.4521C196.339 73.2753 195.986 74.2749 195.986 75.4508C195.986 77.3912 196.515 78.773 197.573 79.5962C198.691 80.3606 200.161 80.7428 201.983 80.7428ZM221.034 87.6223L222.181 78.7142L227.296 79.7726C228.061 79.949 228.678 80.243 229.149 80.6546C229.619 81.0662 229.854 81.6835 229.854 82.5067V87.6223H221.034ZM240.333 87.6223V42.2882H247.124C248.594 42.2882 249.535 42.9644 249.946 44.3168L250.652 47.6683C252.239 45.9631 254.003 44.5225 255.944 43.3466C257.884 42.1706 260.177 41.5826 262.823 41.5826C265.704 41.5826 268.056 42.3764 269.879 43.964C271.702 45.4927 273.054 47.5213 273.936 50.0497C275.347 47.1097 277.376 44.9635 280.022 43.6112C282.668 42.2588 285.49 41.5826 288.489 41.5826C293.546 41.5826 297.397 43.1114 300.043 46.1689C302.748 49.2265 304.1 53.4306 304.1 58.7813V87.6223H292.987V58.7813C292.987 55.959 292.37 53.8128 291.135 52.3428C289.9 50.8728 288.048 50.1379 285.578 50.1379C283.403 50.1379 281.551 50.9022 280.022 52.431C278.552 53.9598 277.817 56.0766 277.817 58.7813V87.6223H266.616V58.7813C266.616 55.7826 265.998 53.607 264.764 52.2546C263.588 50.8434 261.853 50.1379 259.56 50.1379C257.972 50.1379 256.502 50.5495 255.15 51.3726C253.856 52.137 252.622 53.166 251.446 54.4596V87.6223H240.333ZM233.718 87.6223V82.5067C233.718 81.6835 233.923 81.0662 234.335 80.6546C234.805 80.243 235.452 79.949 236.275 79.7726L241.303 78.7142L242.449 87.6223H233.718ZM249.329 87.6223L250.475 78.7142L255.503 79.7726C256.326 79.949 256.943 80.243 257.355 80.6546C257.825 81.0662 258.06 81.6835 258.06 82.5067V87.6223H249.329ZM275.7 87.6223L276.759 78.7142L281.874 79.7726C282.638 79.949 283.256 80.243 283.726 80.6546C284.197 81.0662 284.432 81.6835 284.432 82.5067V87.6223H275.7ZM242.449 42.2882L241.303 51.1962L236.275 50.1379C235.452 49.9615 234.805 49.6675 234.335 49.2559C233.923 48.8443 233.718 48.2269 233.718 47.4037V42.2882H242.449ZM301.983 87.6223L303.13 78.7142L308.157 79.7726C308.98 79.949 309.598 80.243 310.009 80.6546C310.48 81.0662 310.715 81.6835 310.715 82.5067V87.6223H301.983ZM321.21 102.44V42.2882H328.001C329.53 42.2882 330.471 42.9644 330.824 44.3168L331.706 48.5503C333.587 46.4335 335.704 44.7283 338.056 43.4348C340.467 42.1412 343.201 41.4944 346.258 41.4944C349.845 41.4944 352.873 42.4646 355.343 44.405C357.812 46.3453 359.694 49.0501 360.988 52.5192C362.34 55.9884 363.016 60.0161 363.016 64.6024C363.016 69.0124 362.222 73.0107 360.635 76.5974C359.047 80.1254 356.813 82.9771 353.932 85.1527C351.051 87.2695 347.581 88.3278 343.524 88.3278C340.996 88.3278 338.85 87.9456 337.086 87.1813C335.381 86.3581 333.793 85.2409 332.323 83.8297V102.44H321.21ZM340.966 79.949C343.26 79.949 345.171 79.361 346.699 78.185C348.287 77.009 349.463 75.2745 350.227 72.9813C351.051 70.6881 351.462 67.8952 351.462 64.6024C351.462 59.8397 350.727 56.253 349.257 53.8422C347.846 51.3726 345.582 50.1379 342.466 50.1379C340.231 50.1379 338.321 50.6083 336.733 51.549C335.204 52.431 333.734 53.754 332.323 55.518V75.8918C333.558 77.3618 334.881 78.4202 336.292 79.067C337.762 79.655 339.32 79.949 340.966 79.949ZM323.327 42.2882L322.18 51.1962L317.153 50.1379C316.33 49.9615 315.683 49.6675 315.212 49.2559C314.801 48.8443 314.595 48.2269 314.595 47.4037V42.2882H323.327ZM314.595 102.44V97.3241C314.595 96.5009 314.801 95.8835 315.212 95.4719C315.683 95.0603 316.33 94.7663 317.153 94.5899L322.18 93.5316L323.327 102.44H314.595ZM330.206 102.44L331.353 93.5316L336.38 94.5899C337.203 94.7663 337.821 95.0603 338.232 95.4719C338.703 95.8835 338.938 96.5009 338.938 97.3241V102.44H330.206Z" fill="#FFF7EB"/>
<g filter="url(#filter0_f_1_67)">
<path d="M28.6174 87.6223V23.7665H50.8435C55.7238 23.7665 59.9279 24.3545 63.4559 25.5305C66.9838 26.7064 69.6886 28.5586 71.5701 31.087C73.4517 33.5565 74.3925 36.7905 74.3925 40.7888C74.3925 42.9056 73.9515 44.8753 73.0695 46.6981C72.2463 48.4621 71.0115 50.0203 69.3652 51.3726C67.7188 52.725 65.6314 53.8128 63.1031 54.636C67.4542 55.6356 70.7175 57.3113 72.8931 59.6633C75.0687 62.0153 76.1565 65.0728 76.1565 68.836C76.1565 72.6579 75.1863 75.98 73.2459 78.8024C71.3643 81.566 68.689 83.7415 65.2198 85.3291C61.7507 86.8579 57.6642 87.6223 52.9602 87.6223H28.6174ZM40.7888 78.2732H52.6956C56.694 78.2732 59.6045 77.3912 61.4273 75.6272C63.2501 73.8045 64.1614 71.4525 64.1614 68.5714C64.1614 65.6902 63.2207 63.4852 61.3391 61.9565C59.5163 60.4277 56.6058 59.6633 52.6074 59.6633H40.7888V78.2732ZM40.7888 51.3726H50.1379C52.725 51.3726 54.9006 51.0786 56.6646 50.4907C58.4873 49.8439 59.8691 48.8443 60.8099 47.4919C61.7507 46.1395 62.2211 44.3756 62.2211 42.2C62.2211 38.9072 61.2803 36.5847 59.3987 35.2323C57.576 33.8211 54.7242 33.1155 50.8435 33.1155H40.7888V51.3726ZM22.0907 87.6223V82.5067C22.0907 81.6835 22.2965 81.0662 22.7081 80.6546C23.1785 80.243 23.8253 79.949 24.6485 79.7726L29.6758 78.7142L30.8224 87.6223H22.0907ZM30.8224 23.7665L29.6758 32.6745L24.6485 31.6162C23.8253 31.4398 23.1785 31.1458 22.7081 30.7342C22.2965 30.3226 22.0907 29.7052 22.0907 28.882V23.7665H30.8224ZM87.5354 87.6223V42.2882H98.6485V87.6223H87.5354ZM80.9205 87.6223V82.5067C80.9205 81.6835 81.1263 81.0662 81.5379 80.6546C82.0083 80.243 82.6551 79.949 83.4783 79.7726L88.5056 78.7142L89.6522 87.6223H80.9205ZM96.5317 87.6223L97.6783 78.7142L102.706 79.7726C103.529 79.949 104.146 80.243 104.558 80.6546C105.028 81.0662 105.263 81.6835 105.263 82.5067V87.6223H96.5317ZM89.6522 42.2882L88.5056 51.1962L83.4783 50.1379C82.6551 49.9615 82.0083 49.6675 81.5379 49.2559C81.1263 48.8443 80.9205 48.2269 80.9205 47.4037V42.2882H89.6522ZM93.2684 36.0261C91.3868 36.0261 89.7404 35.3499 88.3292 33.9975C86.9181 32.6451 86.2125 31.0282 86.2125 29.1466C86.2125 27.2062 86.9181 25.5599 88.3292 24.2075C89.7404 22.7963 91.3868 22.0907 93.2684 22.0907C95.2087 22.0907 96.8845 22.7963 98.2957 24.2075C99.7068 25.5599 100.412 27.2062 100.412 29.1466C100.412 31.0282 99.7068 32.6451 98.2957 33.9975C96.8845 35.3499 95.2087 36.0261 93.2684 36.0261ZM126.811 88.3278C122.872 88.3278 119.814 87.2107 117.639 84.9763C115.522 82.7419 114.464 79.655 114.464 75.7154V50.4907H109.877C109.289 50.4907 108.789 50.3143 108.378 49.9615C107.966 49.6087 107.76 49.0501 107.76 48.2857V43.8758L115.081 42.641L117.374 30.3814C117.609 29.1466 118.433 28.5292 119.844 28.5292H125.577V42.7292H137.483V50.4907H125.577V75.0099C125.577 76.421 125.929 77.5382 126.635 78.3614C127.341 79.1258 128.281 79.508 129.457 79.508C130.104 79.508 130.692 79.3904 131.221 79.1552C131.75 78.8612 132.25 78.5966 132.721 78.3614C133.191 78.1262 133.603 78.0086 133.955 78.0086C134.485 78.0086 134.955 78.332 135.367 78.9788L138.718 84.3589C137.131 85.5937 135.308 86.5639 133.25 87.2695C131.192 87.975 129.046 88.3278 126.811 88.3278ZM163.135 88.3278C159.254 88.3278 155.755 87.3577 152.639 85.4173C149.582 83.4181 147.141 80.684 145.319 77.2148C143.555 73.6869 142.673 69.5709 142.673 64.867C142.673 60.3395 143.525 56.3412 145.23 52.872C146.936 49.3441 149.435 46.5805 152.727 44.5813C156.02 42.5822 160.048 41.5826 164.81 41.5826C167.045 41.5826 169.367 41.8766 171.778 42.4646C174.248 42.9938 176.688 43.7876 179.099 44.8459V51.2844L173.454 51.99C172.278 51.2844 171.073 50.7846 169.838 50.4907C168.662 50.1379 167.221 49.9615 165.516 49.9615C162.929 49.9615 160.783 50.5789 159.078 51.8136C157.431 53.0484 156.196 54.783 155.373 57.0173C154.609 59.2517 154.227 61.8683 154.227 64.867C154.227 69.5709 155.167 73.2753 157.049 75.98C158.989 78.626 161.694 79.949 165.163 79.949C167.045 79.949 168.632 79.6256 169.926 78.9788C171.22 78.2732 172.337 77.5676 173.278 76.862C174.218 76.1564 175.071 75.8036 175.835 75.8036C176.306 75.8036 176.688 75.8918 176.982 76.0682C177.335 76.2446 177.629 76.4798 177.864 76.7738L181.039 80.831C178.628 83.6533 175.865 85.6231 172.748 86.7403C169.632 87.7987 166.427 88.3278 163.135 88.3278ZM171.249 49.3441L179.099 51.2844V58.1639H175.042C174.218 58.1639 173.601 57.9287 173.189 57.4583C172.778 56.9879 172.484 56.3706 172.307 55.6062L171.249 49.3441ZM198.455 88.3278C195.868 88.3278 193.575 87.8574 191.576 86.9167C189.577 85.9759 188.019 84.5941 186.901 82.7713C185.784 80.9486 185.226 78.6848 185.226 75.98C185.226 74.3337 185.667 72.6873 186.549 71.0409C187.489 69.3357 188.989 67.807 191.047 66.4546C193.164 65.161 195.957 64.0732 199.426 63.1912C202.895 62.2505 207.187 61.7213 212.303 61.6037V59.0459C212.303 55.9884 211.656 53.754 210.362 52.3428C209.128 50.8728 207.305 50.1379 204.894 50.1379C203.189 50.1379 201.601 50.4907 200.131 51.1962C198.72 51.843 197.397 52.5192 196.162 53.2248C194.986 53.8716 193.84 54.195 192.723 54.195C191.958 54.195 191.282 53.9892 190.694 53.5776C190.165 53.166 189.753 52.6956 189.459 52.1664L187.431 48.6385C190.077 46.2277 192.958 44.4344 196.074 43.2584C199.249 42.0824 202.66 41.4944 206.305 41.4944C209.833 41.4944 212.861 42.2294 215.39 43.6994C217.918 45.1693 219.858 47.2273 221.211 49.8733C222.563 52.5192 223.239 55.5768 223.239 59.0459V87.6223H218.212C217.095 87.6223 216.242 87.4753 215.654 87.1813C215.125 86.8873 214.684 86.2405 214.331 85.2409L213.449 82.0657C211.156 84.0649 208.863 85.6231 206.57 86.7403C204.335 87.7987 201.631 88.3278 198.455 88.3278ZM201.983 80.7428C204.1 80.7428 205.952 80.3606 207.54 79.5962C209.186 78.773 210.774 77.5676 212.303 75.98V68.395C209.715 68.4538 207.393 68.6596 205.335 69.0124C203.336 69.3063 201.631 69.7473 200.219 70.3353C198.867 70.8645 197.809 71.5701 197.044 72.4521C196.339 73.2753 195.986 74.2749 195.986 75.4508C195.986 77.3912 196.515 78.773 197.573 79.5962C198.691 80.3606 200.161 80.7428 201.983 80.7428ZM221.034 87.6223L222.181 78.7142L227.296 79.7726C228.061 79.949 228.678 80.243 229.149 80.6546C229.619 81.0662 229.854 81.6835 229.854 82.5067V87.6223H221.034ZM240.333 87.6223V42.2882H247.124C248.594 42.2882 249.535 42.9644 249.946 44.3168L250.652 47.6683C252.239 45.9631 254.003 44.5225 255.944 43.3466C257.884 42.1706 260.177 41.5826 262.823 41.5826C265.704 41.5826 268.056 42.3764 269.879 43.964C271.702 45.4927 273.054 47.5213 273.936 50.0497C275.347 47.1097 277.376 44.9635 280.022 43.6112C282.668 42.2588 285.49 41.5826 288.489 41.5826C293.546 41.5826 297.397 43.1114 300.043 46.1689C302.748 49.2265 304.1 53.4306 304.1 58.7813V87.6223H292.987V58.7813C292.987 55.959 292.37 53.8128 291.135 52.3428C289.9 50.8728 288.048 50.1379 285.578 50.1379C283.403 50.1379 281.551 50.9022 280.022 52.431C278.552 53.9598 277.817 56.0766 277.817 58.7813V87.6223H266.616V58.7813C266.616 55.7826 265.998 53.607 264.764 52.2546C263.588 50.8434 261.853 50.1379 259.56 50.1379C257.972 50.1379 256.502 50.5495 255.15 51.3726C253.856 52.137 252.622 53.166 251.446 54.4596V87.6223H240.333ZM233.718 87.6223V82.5067C233.718 81.6835 233.923 81.0662 234.335 80.6546C234.805 80.243 235.452 79.949 236.275 79.7726L241.303 78.7142L242.449 87.6223H233.718ZM249.329 87.6223L250.475 78.7142L255.503 79.7726C256.326 79.949 256.943 80.243 257.355 80.6546C257.825 81.0662 258.06 81.6835 258.06 82.5067V87.6223H249.329ZM275.7 87.6223L276.759 78.7142L281.874 79.7726C282.638 79.949 283.256 80.243 283.726 80.6546C284.197 81.0662 284.432 81.6835 284.432 82.5067V87.6223H275.7ZM242.449 42.2882L241.303 51.1962L236.275 50.1379C235.452 49.9615 234.805 49.6675 234.335 49.2559C233.923 48.8443 233.718 48.2269 233.718 47.4037V42.2882H242.449ZM301.983 87.6223L303.13 78.7142L308.157 79.7726C308.98 79.949 309.598 80.243 310.009 80.6546C310.48 81.0662 310.715 81.6835 310.715 82.5067V87.6223H301.983ZM321.21 102.44V42.2882H328.001C329.53 42.2882 330.471 42.9644 330.824 44.3168L331.706 48.5503C333.587 46.4335 335.704 44.7283 338.056 43.4348C340.467 42.1412 343.201 41.4944 346.258 41.4944C349.845 41.4944 352.873 42.4646 355.343 44.405C357.812 46.3453 359.694 49.0501 360.988 52.5192C362.34 55.9884 363.016 60.0161 363.016 64.6024C363.016 69.0124 362.222 73.0107 360.635 76.5974C359.047 80.1254 356.813 82.9771 353.932 85.1527C351.051 87.2695 347.581 88.3278 343.524 88.3278C340.996 88.3278 338.85 87.9456 337.086 87.1813C335.381 86.3581 333.793 85.2409 332.323 83.8297V102.44H321.21ZM340.966 79.949C343.26 79.949 345.171 79.361 346.699 78.185C348.287 77.009 349.463 75.2745 350.227 72.9813C351.051 70.6881 351.462 67.8952 351.462 64.6024C351.462 59.8397 350.727 56.253 349.257 53.8422C347.846 51.3726 345.582 50.1379 342.466 50.1379C340.231 50.1379 338.321 50.6083 336.733 51.549C335.204 52.431 333.734 53.754 332.323 55.518V75.8918C333.558 77.3618 334.881 78.4202 336.292 79.067C337.762 79.655 339.32 79.949 340.966 79.949ZM323.327 42.2882L322.18 51.1962L317.153 50.1379C316.33 49.9615 315.683 49.6675 315.212 49.2559C314.801 48.8443 314.595 48.2269 314.595 47.4037V42.2882H323.327ZM314.595 102.44V97.3241C314.595 96.5009 314.801 95.8835 315.212 95.4719C315.683 95.0603 316.33 94.7663 317.153 94.5899L322.18 93.5316L323.327 102.44H314.595ZM330.206 102.44L331.353 93.5316L336.38 94.5899C337.203 94.7663 337.821 95.0603 338.232 95.4719C338.703 95.8835 338.938 96.5009 338.938 97.3241V102.44H330.206Z" fill="#FFF7EB"/>
</g>
<path d="M22.0545 102.506H35.4818V105.77H25.6618V110.752H34.9664V114.015H25.6618V119.512H35.9971V122.776H22.0545V102.506ZM42.7917 115.39L38.0392 109.034H42.2191L44.9675 113.156L47.945 109.034H51.8673L47.172 115.39L52.6975 122.776H48.5176L44.9389 117.852L41.3316 122.776H37.2662L42.7917 115.39ZM54.6188 109.034H57.8826V111.095H57.9399C58.4361 110.255 59.1041 109.645 59.9439 109.263C60.7837 108.881 61.6903 108.69 62.6637 108.69C63.7135 108.69 64.6583 108.881 65.4981 109.263C66.3379 109.625 67.0536 110.131 67.6453 110.78C68.237 111.429 68.6855 112.193 68.9909 113.071C69.2962 113.949 69.4489 114.893 69.4489 115.905C69.4489 116.916 69.2867 117.861 68.9622 118.739C68.6378 119.617 68.1797 120.381 67.588 121.03C67.0154 121.679 66.3188 122.194 65.4981 122.576C64.6773 122.938 63.7803 123.12 62.8069 123.12C62.1579 123.12 61.5854 123.053 61.0891 122.919C60.5929 122.786 60.1539 122.614 59.7721 122.404C59.3904 122.194 59.066 121.974 58.7987 121.745C58.5315 121.497 58.312 121.259 58.1403 121.03H58.0544V129.304H54.6188V109.034ZM66.0134 115.905C66.0134 115.37 65.918 114.855 65.7271 114.359C65.5553 113.863 65.2881 113.424 64.9255 113.042C64.5819 112.66 64.162 112.355 63.6658 112.126C63.1695 111.897 62.6065 111.782 61.9766 111.782C61.3468 111.782 60.7837 111.897 60.2875 112.126C59.7912 112.355 59.3618 112.66 58.9992 113.042C58.6556 113.424 58.3884 113.863 58.1975 114.359C58.0257 114.855 57.9399 115.37 57.9399 115.905C57.9399 116.439 58.0257 116.955 58.1975 117.451C58.3884 117.947 58.6556 118.386 58.9992 118.768C59.3618 119.15 59.7912 119.455 60.2875 119.684C60.7837 119.913 61.3468 120.028 61.9766 120.028C62.6065 120.028 63.1695 119.913 63.6658 119.684C64.162 119.455 64.5819 119.15 64.9255 118.768C65.2881 118.386 65.5553 117.947 65.7271 117.451C65.918 116.955 66.0134 116.439 66.0134 115.905ZM72.7094 101.132H76.1449V122.776H72.7094V101.132ZM79.402 115.905C79.402 114.817 79.5928 113.834 79.9745 112.956C80.3754 112.059 80.9098 111.296 81.5778 110.666C82.2458 110.036 83.0379 109.549 83.9541 109.206C84.8702 108.862 85.8436 108.69 86.8743 108.69C87.9049 108.69 88.8783 108.862 89.7945 109.206C90.7106 109.549 91.5027 110.036 92.1707 110.666C92.8388 111.296 93.3636 112.059 93.7454 112.956C94.1462 113.834 94.3466 114.817 94.3466 115.905C94.3466 116.993 94.1462 117.985 93.7454 118.882C93.3636 119.76 92.8388 120.514 92.1707 121.144C91.5027 121.774 90.7106 122.261 89.7945 122.604C88.8783 122.948 87.9049 123.12 86.8743 123.12C85.8436 123.12 84.8702 122.948 83.9541 122.604C83.0379 122.261 82.2458 121.774 81.5778 121.144C80.9098 120.514 80.3754 119.76 79.9745 118.882C79.5928 117.985 79.402 116.993 79.402 115.905ZM82.8375 115.905C82.8375 116.439 82.9234 116.955 83.0952 117.451C83.286 117.947 83.5532 118.386 83.8968 118.768C84.2594 119.15 84.6889 119.455 85.1851 119.684C85.6814 119.913 86.2444 120.028 86.8743 120.028C87.5041 120.028 88.0672 119.913 88.5634 119.684C89.0597 119.455 89.4796 119.15 89.8231 118.768C90.1858 118.386 90.453 117.947 90.6247 117.451C90.8156 116.955 90.911 116.439 90.911 115.905C90.911 115.37 90.8156 114.855 90.6247 114.359C90.453 113.863 90.1858 113.424 89.8231 113.042C89.4796 112.66 89.0597 112.355 88.5634 112.126C88.0672 111.897 87.5041 111.782 86.8743 111.782C86.2444 111.782 85.6814 111.897 85.1851 112.126C84.6889 112.355 84.2594 112.66 83.8968 113.042C83.5532 113.424 83.286 113.863 83.0952 114.359C82.9234 114.855 82.8375 115.37 82.8375 115.905ZM97.5632 109.034H100.999V111.21H101.056C101.438 110.408 101.982 109.788 102.688 109.349C103.394 108.91 104.205 108.69 105.121 108.69C105.331 108.69 105.532 108.709 105.723 108.748C105.933 108.786 106.142 108.833 106.352 108.891V112.212C106.066 112.135 105.78 112.078 105.494 112.04C105.226 111.983 104.959 111.954 104.692 111.954C103.89 111.954 103.241 112.107 102.745 112.412C102.268 112.698 101.896 113.032 101.629 113.414C101.38 113.796 101.209 114.178 101.113 114.559C101.037 114.941 100.999 115.227 100.999 115.418V122.776H97.5632V109.034ZM110.936 117.107C111.05 118.138 111.451 118.94 112.138 119.512C112.825 120.085 113.656 120.371 114.629 120.371C115.488 120.371 116.204 120.199 116.776 119.856C117.368 119.493 117.883 119.045 118.322 118.51L120.784 120.371C119.983 121.364 119.086 122.07 118.093 122.49C117.101 122.91 116.061 123.12 114.973 123.12C113.942 123.12 112.969 122.948 112.052 122.604C111.136 122.261 110.344 121.774 109.676 121.144C109.008 120.514 108.474 119.76 108.073 118.882C107.691 117.985 107.5 116.993 107.5 115.905C107.5 114.817 107.691 113.834 108.073 112.956C108.474 112.059 109.008 111.296 109.676 110.666C110.344 110.036 111.136 109.549 112.052 109.206C112.969 108.862 113.942 108.69 114.973 108.69C115.927 108.69 116.795 108.862 117.578 109.206C118.38 109.53 119.057 110.007 119.611 110.637C120.183 111.267 120.622 112.049 120.928 112.985C121.252 113.901 121.414 114.96 121.414 116.163V117.107H110.936ZM117.979 114.531C117.96 113.519 117.645 112.727 117.034 112.154C116.423 111.563 115.574 111.267 114.486 111.267C113.455 111.267 112.635 111.563 112.024 112.154C111.432 112.746 111.069 113.538 110.936 114.531H117.979ZM131.495 111.954V109.034H134.33V105.054H137.765V109.034H141.544V111.954H137.765V117.966C137.765 118.653 137.889 119.197 138.137 119.598C138.404 119.999 138.92 120.199 139.683 120.199C139.989 120.199 140.323 120.171 140.685 120.113C141.048 120.037 141.334 119.923 141.544 119.77V122.661C141.182 122.833 140.733 122.948 140.199 123.005C139.683 123.081 139.225 123.12 138.824 123.12C137.908 123.12 137.154 123.015 136.563 122.805C135.99 122.614 135.532 122.318 135.188 121.917C134.864 121.497 134.635 120.982 134.501 120.371C134.387 119.76 134.33 119.054 134.33 118.253V111.954H131.495ZM147.689 110.952H147.747C148.014 110.379 148.482 109.864 149.15 109.406C149.837 108.929 150.715 108.69 151.784 108.69C152.7 108.69 153.473 108.843 154.103 109.148C154.751 109.454 155.276 109.855 155.677 110.351C156.078 110.847 156.364 111.42 156.536 112.069C156.708 112.717 156.794 113.395 156.794 114.101V122.776H153.358V115.819C153.358 115.437 153.339 115.017 153.301 114.559C153.263 114.082 153.158 113.643 152.986 113.242C152.833 112.822 152.585 112.479 152.242 112.212C151.898 111.925 151.43 111.782 150.839 111.782C150.266 111.782 149.779 111.878 149.379 112.069C148.997 112.259 148.672 112.517 148.405 112.842C148.157 113.166 147.976 113.538 147.861 113.958C147.747 114.378 147.689 114.817 147.689 115.275V122.776H144.254V101.132H147.689V110.952ZM163.442 117.107C163.557 118.138 163.957 118.94 164.644 119.512C165.332 120.085 166.162 120.371 167.135 120.371C167.994 120.371 168.71 120.199 169.282 119.856C169.874 119.493 170.389 119.045 170.828 118.51L173.291 120.371C172.489 121.364 171.592 122.07 170.599 122.49C169.607 122.91 168.567 123.12 167.479 123.12C166.448 123.12 165.475 122.948 164.559 122.604C163.642 122.261 162.85 121.774 162.182 121.144C161.514 120.514 160.98 119.76 160.579 118.882C160.197 117.985 160.006 116.993 160.006 115.905C160.006 114.817 160.197 113.834 160.579 112.956C160.98 112.059 161.514 111.296 162.182 110.666C162.85 110.036 163.642 109.549 164.559 109.206C165.475 108.862 166.448 108.69 167.479 108.69C168.433 108.69 169.302 108.862 170.084 109.206C170.886 109.53 171.563 110.007 172.117 110.637C172.689 111.267 173.128 112.049 173.434 112.985C173.758 113.901 173.92 114.96 173.92 116.163V117.107H163.442ZM170.485 114.531C170.466 113.519 170.151 112.727 169.54 112.154C168.929 111.563 168.08 111.267 166.992 111.267C165.961 111.267 165.141 111.563 164.53 112.154C163.938 112.746 163.576 113.538 163.442 114.531H170.485ZM202.153 115.332C202.153 116.554 201.943 117.661 201.523 118.653C201.103 119.627 200.53 120.457 199.805 121.144C199.08 121.831 198.221 122.366 197.228 122.747C196.236 123.11 195.157 123.291 193.993 123.291C192.829 123.291 191.75 123.11 190.758 122.747C189.765 122.366 188.897 121.831 188.153 121.144C187.427 120.457 186.855 119.627 186.435 118.653C186.034 117.661 185.834 116.554 185.834 115.332V102.506H189.441V115.218C189.441 115.714 189.517 116.239 189.67 116.792C189.823 117.327 190.071 117.823 190.414 118.281C190.777 118.739 191.245 119.121 191.817 119.426C192.409 119.713 193.134 119.856 193.993 119.856C194.852 119.856 195.568 119.713 196.14 119.426C196.732 119.121 197.2 118.739 197.543 118.281C197.906 117.823 198.163 117.327 198.316 116.792C198.469 116.239 198.545 115.714 198.545 115.218V102.506H202.153V115.332ZM206.266 109.034H209.53V111.238H209.587C209.911 110.551 210.408 109.96 211.076 109.463C211.744 108.948 212.65 108.69 213.796 108.69C214.712 108.69 215.485 108.843 216.115 109.148C216.763 109.454 217.288 109.855 217.689 110.351C218.09 110.847 218.376 111.42 218.548 112.069C218.72 112.717 218.806 113.395 218.806 114.101V122.776H215.37V115.819C215.37 115.437 215.351 115.017 215.313 114.559C215.275 114.082 215.17 113.643 214.998 113.242C214.845 112.822 214.597 112.479 214.254 112.212C213.91 111.925 213.442 111.782 212.851 111.782C212.278 111.782 211.791 111.878 211.391 112.069C211.009 112.259 210.684 112.517 210.417 112.842C210.169 113.166 209.988 113.538 209.873 113.958C209.759 114.378 209.702 114.817 209.702 115.275V122.776H206.266V109.034ZM222.706 101.132H226.141V114.731L231.438 109.034H235.847L229.949 115.275L236.219 122.776H231.667L226.198 115.762H226.141V122.776H222.706V101.132ZM238.083 109.034H241.347V111.238H241.404C241.728 110.551 242.225 109.96 242.893 109.463C243.561 108.948 244.467 108.69 245.612 108.69C246.529 108.69 247.302 108.843 247.931 109.148C248.58 109.454 249.105 109.855 249.506 110.351C249.907 110.847 250.193 111.42 250.365 112.069C250.537 112.717 250.623 113.395 250.623 114.101V122.776H247.187V115.819C247.187 115.437 247.168 115.017 247.13 114.559C247.092 114.082 246.987 113.643 246.815 113.242C246.662 112.822 246.414 112.479 246.07 112.212C245.727 111.925 245.259 111.782 244.668 111.782C244.095 111.782 243.608 111.878 243.208 112.069C242.826 112.259 242.501 112.517 242.234 112.842C241.986 113.166 241.805 113.538 241.69 113.958C241.576 114.378 241.518 114.817 241.518 115.275V122.776H238.083V109.034ZM253.835 115.905C253.835 114.817 254.026 113.834 254.408 112.956C254.809 112.059 255.343 111.296 256.011 110.666C256.679 110.036 257.471 109.549 258.387 109.206C259.304 108.862 260.277 108.69 261.308 108.69C262.338 108.69 263.312 108.862 264.228 109.206C265.144 109.549 265.936 110.036 266.604 110.666C267.272 111.296 267.797 112.059 268.179 112.956C268.58 113.834 268.78 114.817 268.78 115.905C268.78 116.993 268.58 117.985 268.179 118.882C267.797 119.76 267.272 120.514 266.604 121.144C265.936 121.774 265.144 122.261 264.228 122.604C263.312 122.948 262.338 123.12 261.308 123.12C260.277 123.12 259.304 122.948 258.387 122.604C257.471 122.261 256.679 121.774 256.011 121.144C255.343 120.514 254.809 119.76 254.408 118.882C254.026 117.985 253.835 116.993 253.835 115.905ZM257.271 115.905C257.271 116.439 257.357 116.955 257.529 117.451C257.719 117.947 257.987 118.386 258.33 118.768C258.693 119.15 259.122 119.455 259.619 119.684C260.115 119.913 260.678 120.028 261.308 120.028C261.938 120.028 262.501 119.913 262.997 119.684C263.493 119.455 263.913 119.15 264.256 118.768C264.619 118.386 264.886 117.947 265.058 117.451C265.249 116.955 265.344 116.439 265.344 115.905C265.344 115.37 265.249 114.855 265.058 114.359C264.886 113.863 264.619 113.424 264.256 113.042C263.913 112.66 263.493 112.355 262.997 112.126C262.501 111.897 261.938 111.782 261.308 111.782C260.678 111.782 260.115 111.897 259.619 112.126C259.122 112.355 258.693 112.66 258.33 113.042C257.987 113.424 257.719 113.863 257.529 114.359C257.357 114.855 257.271 115.37 257.271 115.905ZM270.136 109.034H273.857L276.835 118.653H276.892L279.669 109.034H283.391L286.369 118.653H286.426L289.289 109.034H292.753L288.086 122.776H284.679L281.416 113.386H281.358L278.467 122.776H274.917L270.136 109.034ZM294.783 109.034H298.047V111.238H298.104C298.428 110.551 298.924 109.96 299.593 109.463C300.261 108.948 301.167 108.69 302.312 108.69C303.228 108.69 304.001 108.843 304.631 109.148C305.28 109.454 305.805 109.855 306.206 110.351C306.607 110.847 306.893 111.42 307.065 112.069C307.237 112.717 307.322 113.395 307.322 114.101V122.776H303.887V115.819C303.887 115.437 303.868 115.017 303.83 114.559C303.792 114.082 303.687 113.643 303.515 113.242C303.362 112.822 303.114 112.479 302.77 112.212C302.427 111.925 301.959 111.782 301.368 111.782C300.795 111.782 300.308 111.878 299.907 112.069C299.526 112.259 299.201 112.517 298.934 112.842C298.686 113.166 298.505 113.538 298.39 113.958C298.276 114.378 298.218 114.817 298.218 115.275V122.776H294.783V109.034Z" fill="#FFF7EB"/>
<g filter="url(#filter1_f_1_67)">
<path d="M32.0301 102.506H44.7703V104.739H34.435V111.095H44.0832V113.328H34.435V120.543H45.2856V122.776H32.0301V102.506ZM52.0643 115.561L47.2546 109.377H50.1748L53.7249 114.187L57.0745 109.377H59.7943L55.185 115.561L60.7105 122.776H57.7616L53.5245 116.993L49.3445 122.776H46.5675L52.0643 115.561ZM62.8004 109.377H65.0335V111.324H65.0908C65.7016 110.599 66.4077 110.036 67.2094 109.635C68.0301 109.234 68.9271 109.034 69.9006 109.034C70.9503 109.034 71.9046 109.215 72.7635 109.578C73.6415 109.921 74.3859 110.408 74.9966 111.038C75.6074 111.668 76.0845 112.412 76.4281 113.271C76.7716 114.13 76.9434 115.065 76.9434 116.077C76.9434 117.088 76.7716 118.023 76.4281 118.882C76.0845 119.741 75.6074 120.486 74.9966 121.115C74.4049 121.745 73.6987 122.242 72.878 122.604C72.0573 122.948 71.1793 123.119 70.2441 123.119C69.0417 123.119 67.9824 122.862 67.0662 122.346C66.1692 121.812 65.5107 121.163 65.0908 120.4H65.0335V129.303H62.8004V109.377ZM65.0335 116.077C65.0335 116.783 65.1385 117.441 65.3485 118.052C65.5775 118.644 65.902 119.169 66.3219 119.627C66.7418 120.066 67.238 120.419 67.8106 120.686C68.4023 120.934 69.0608 121.058 69.786 121.058C70.5113 121.058 71.1603 120.934 71.7328 120.686C72.3245 120.419 72.8303 120.066 73.2502 119.627C73.6701 119.169 73.985 118.644 74.195 118.052C74.424 117.441 74.5385 116.783 74.5385 116.077C74.5385 115.37 74.424 114.721 74.195 114.13C73.985 113.519 73.6701 112.994 73.2502 112.555C72.8303 112.097 72.3245 111.744 71.7328 111.496C71.1603 111.229 70.5113 111.095 69.786 111.095C69.0608 111.095 68.4023 111.229 67.8106 111.496C67.238 111.744 66.7418 112.097 66.3219 112.555C65.902 112.994 65.5775 113.519 65.3485 114.13C65.1385 114.721 65.0335 115.37 65.0335 116.077ZM80.6174 101.132H82.8505V122.776H80.6174V101.132ZM86.5218 116.077C86.5218 115.027 86.7031 114.073 87.0658 113.214C87.4284 112.355 87.9246 111.62 88.5545 111.009C89.1843 110.379 89.9383 109.893 90.8162 109.549C91.6942 109.206 92.6485 109.034 93.6792 109.034C94.7098 109.034 95.6642 109.206 96.5421 109.549C97.4201 109.893 98.174 110.379 98.8039 111.009C99.4337 111.62 99.93 112.355 100.293 113.214C100.655 114.073 100.837 115.027 100.837 116.077C100.837 117.126 100.655 118.081 100.293 118.94C99.93 119.798 99.4337 120.543 98.8039 121.173C98.174 121.783 97.4201 122.261 96.5421 122.604C95.6642 122.948 94.7098 123.119 93.6792 123.119C92.6485 123.119 91.6942 122.948 90.8162 122.604C89.9383 122.261 89.1843 121.783 88.5545 121.173C87.9246 120.543 87.4284 119.798 87.0658 118.94C86.7031 118.081 86.5218 117.126 86.5218 116.077ZM88.9267 116.077C88.9267 116.783 89.0317 117.441 89.2416 118.052C89.4706 118.644 89.7951 119.169 90.215 119.627C90.6349 120.066 91.1312 120.419 91.7037 120.686C92.2954 120.934 92.9539 121.058 93.6792 121.058C94.4045 121.058 95.0534 120.934 95.626 120.686C96.2177 120.419 96.7235 120.066 97.1434 119.627C97.5633 119.169 97.8782 118.644 98.0881 118.052C98.3172 117.441 98.4317 116.783 98.4317 116.077C98.4317 115.37 98.3172 114.721 98.0881 114.13C97.8782 113.519 97.5633 112.994 97.1434 112.555C96.7235 112.097 96.2177 111.744 95.626 111.496C95.0534 111.229 94.4045 111.095 93.6792 111.095C92.9539 111.095 92.2954 111.229 91.7037 111.496C91.1312 111.744 90.6349 112.097 90.215 112.555C89.7951 112.994 89.4706 113.519 89.2416 114.13C89.0317 114.721 88.9267 115.37 88.9267 116.077ZM104.294 112.555C104.294 111.944 104.275 111.372 104.236 110.837C104.198 110.303 104.179 109.816 104.179 109.377H106.298C106.298 109.74 106.307 110.103 106.326 110.465C106.345 110.828 106.355 111.2 106.355 111.582H106.412C106.565 111.257 106.775 110.942 107.042 110.637C107.328 110.332 107.662 110.064 108.044 109.835C108.426 109.587 108.855 109.396 109.332 109.263C109.81 109.11 110.325 109.034 110.878 109.034C111.031 109.034 111.184 109.043 111.336 109.062C111.489 109.081 111.642 109.12 111.795 109.177L111.651 111.439C111.27 111.324 110.869 111.267 110.449 111.267C109.075 111.267 108.073 111.715 107.443 112.612C106.832 113.49 106.527 114.702 106.527 116.248V122.776H104.294V112.555ZM125.823 120.342C125.021 121.373 124.143 122.098 123.189 122.518C122.234 122.919 121.127 123.119 119.868 123.119C118.818 123.119 117.873 122.938 117.033 122.576C116.193 122.194 115.478 121.688 114.886 121.058C114.313 120.428 113.865 119.684 113.54 118.825C113.235 117.966 113.082 117.05 113.082 116.077C113.082 115.046 113.254 114.101 113.598 113.242C113.941 112.364 114.418 111.62 115.029 111.009C115.64 110.379 116.365 109.893 117.205 109.549C118.045 109.206 118.961 109.034 119.954 109.034C120.889 109.034 121.748 109.196 122.53 109.52C123.313 109.826 123.981 110.284 124.534 110.895C125.107 111.486 125.546 112.221 125.851 113.099C126.157 113.958 126.309 114.941 126.309 116.048V116.764H115.487C115.525 117.336 115.659 117.89 115.888 118.424C116.136 118.94 116.451 119.398 116.833 119.798C117.215 120.18 117.663 120.486 118.178 120.715C118.694 120.944 119.257 121.058 119.868 121.058C120.841 121.058 121.662 120.886 122.33 120.543C122.998 120.199 123.599 119.693 124.133 119.025L125.823 120.342ZM123.904 114.874C123.866 113.729 123.494 112.813 122.788 112.126C122.082 111.439 121.108 111.095 119.868 111.095C118.627 111.095 117.625 111.439 116.862 112.126C116.098 112.813 115.64 113.729 115.487 114.874H123.904ZM145.061 111.267H141.11V117.966C141.11 118.405 141.12 118.816 141.139 119.197C141.158 119.56 141.234 119.884 141.368 120.171C141.502 120.438 141.702 120.657 141.969 120.829C142.236 120.982 142.618 121.058 143.114 121.058C143.439 121.058 143.773 121.02 144.116 120.944C144.46 120.867 144.784 120.753 145.09 120.6L145.176 122.633C144.794 122.805 144.365 122.929 143.887 123.005C143.429 123.081 142.99 123.119 142.57 123.119C141.769 123.119 141.129 123.015 140.652 122.805C140.175 122.595 139.803 122.299 139.536 121.917C139.268 121.535 139.087 121.068 138.992 120.514C138.915 119.942 138.877 119.312 138.877 118.625V111.267H135.957V109.377H138.877V105.57H141.11V109.377H145.061V111.267ZM147.825 101.132H150.058V111.238H150.115C150.268 110.971 150.478 110.713 150.745 110.465C151.012 110.198 151.327 109.959 151.69 109.749C152.072 109.54 152.492 109.368 152.95 109.234C153.408 109.101 153.895 109.034 154.41 109.034C155.288 109.034 156.042 109.167 156.672 109.435C157.321 109.702 157.855 110.074 158.275 110.551C158.695 111.028 159 111.61 159.191 112.298C159.401 112.966 159.506 113.7 159.506 114.502V122.776H157.273V114.731C157.273 113.605 157.025 112.717 156.528 112.068C156.032 111.42 155.259 111.095 154.209 111.095C153.484 111.095 152.854 111.219 152.32 111.467C151.805 111.715 151.375 112.068 151.032 112.527C150.707 112.985 150.459 113.529 150.287 114.158C150.135 114.788 150.058 115.485 150.058 116.248V122.776H147.825V101.132ZM175.701 120.342C174.899 121.373 174.021 122.098 173.067 122.518C172.112 122.919 171.005 123.119 169.746 123.119C168.696 123.119 167.751 122.938 166.911 122.576C166.072 122.194 165.356 121.688 164.764 121.058C164.192 120.428 163.743 119.684 163.419 118.825C163.113 117.966 162.96 117.05 162.96 116.077C162.96 115.046 163.132 114.101 163.476 113.242C163.819 112.364 164.297 111.62 164.907 111.009C165.518 110.379 166.243 109.893 167.083 109.549C167.923 109.206 168.839 109.034 169.832 109.034C170.767 109.034 171.626 109.196 172.408 109.52C173.191 109.826 173.859 110.284 174.412 110.895C174.985 111.486 175.424 112.221 175.729 113.099C176.035 113.958 176.187 114.941 176.187 116.048V116.764H165.365C165.404 117.336 165.537 117.89 165.766 118.424C166.014 118.94 166.329 119.398 166.711 119.798C167.093 120.18 167.541 120.486 168.057 120.715C168.572 120.944 169.135 121.058 169.746 121.058C170.719 121.058 171.54 120.886 172.208 120.543C172.876 120.199 173.477 119.693 174.011 119.025L175.701 120.342ZM173.782 114.874C173.744 113.729 173.372 112.813 172.666 112.126C171.96 111.439 170.986 111.095 169.746 111.095C168.505 111.095 167.503 111.439 166.74 112.126C165.976 112.813 165.518 113.729 165.365 114.874H173.782ZM203.213 115.046C203.213 116.153 203.07 117.203 202.784 118.195C202.517 119.188 202.078 120.066 201.467 120.829C200.875 121.573 200.093 122.175 199.119 122.633C198.146 123.072 196.962 123.291 195.569 123.291C194.176 123.291 192.992 123.072 192.019 122.633C191.046 122.175 190.254 121.573 189.643 120.829C189.051 120.066 188.612 119.188 188.326 118.195C188.059 117.203 187.925 116.153 187.925 115.046V102.506H190.33V114.702C190.33 115.523 190.416 116.315 190.588 117.079C190.759 117.842 191.046 118.52 191.446 119.111C191.847 119.703 192.382 120.18 193.05 120.543C193.718 120.886 194.558 121.058 195.569 121.058C196.581 121.058 197.42 120.886 198.088 120.543C198.757 120.18 199.291 119.703 199.692 119.111C200.093 118.52 200.379 117.842 200.551 117.079C200.722 116.315 200.808 115.523 200.808 114.702V102.506H203.213V115.046ZM207.768 112.555C207.768 111.944 207.749 111.372 207.711 110.837C207.673 110.303 207.654 109.816 207.654 109.377H209.772C209.772 109.74 209.782 110.103 209.801 110.465C209.82 110.828 209.83 111.2 209.83 111.582H209.887C210.039 111.257 210.249 110.942 210.517 110.637C210.803 110.332 211.137 110.064 211.519 109.835C211.9 109.587 212.33 109.396 212.807 109.263C213.284 109.11 213.799 109.034 214.353 109.034C215.231 109.034 215.985 109.167 216.615 109.435C217.264 109.702 217.798 110.074 218.218 110.551C218.638 111.028 218.943 111.61 219.134 112.298C219.344 112.966 219.449 113.7 219.449 114.502V122.776H217.216V114.731C217.216 113.605 216.968 112.717 216.472 112.068C215.975 111.42 215.202 111.095 214.153 111.095C213.427 111.095 212.797 111.219 212.263 111.467C211.748 111.715 211.318 112.068 210.975 112.527C210.65 112.985 210.402 113.529 210.23 114.158C210.078 114.788 210.001 115.485 210.001 116.248V122.776H207.768V112.555ZM223.677 101.132H225.91V115.275L232.008 109.377H235.186L228.715 115.475L235.844 122.776H232.552L225.91 115.733V122.776H223.677V101.132ZM237.991 112.555C237.991 111.944 237.972 111.372 237.934 110.837C237.896 110.303 237.877 109.816 237.877 109.377H239.995C239.995 109.74 240.005 110.103 240.024 110.465C240.043 110.828 240.053 111.2 240.053 111.582H240.11C240.263 111.257 240.473 110.942 240.74 110.637C241.026 110.332 241.36 110.064 241.742 109.835C242.124 109.587 242.553 109.396 243.03 109.263C243.507 109.11 244.023 109.034 244.576 109.034C245.454 109.034 246.208 109.167 246.838 109.435C247.487 109.702 248.021 110.074 248.441 110.551C248.861 111.028 249.166 111.61 249.357 112.298C249.567 112.966 249.672 113.7 249.672 114.502V122.776H247.439V114.731C247.439 113.605 247.191 112.717 246.695 112.068C246.199 111.42 245.426 111.095 244.376 111.095C243.65 111.095 243.021 111.219 242.486 111.467C241.971 111.715 241.541 112.068 241.198 112.527C240.873 112.985 240.625 113.529 240.454 114.158C240.301 114.788 240.224 115.485 240.224 116.248V122.776H237.991V112.555ZM253.127 116.077C253.127 115.027 253.308 114.073 253.671 113.214C254.033 112.355 254.53 111.62 255.159 111.009C255.789 110.379 256.543 109.893 257.421 109.549C258.299 109.206 259.254 109.034 260.284 109.034C261.315 109.034 262.269 109.206 263.147 109.549C264.025 109.893 264.779 110.379 265.409 111.009C266.039 111.62 266.535 112.355 266.898 113.214C267.26 114.073 267.442 115.027 267.442 116.077C267.442 117.126 267.26 118.081 266.898 118.94C266.535 119.798 266.039 120.543 265.409 121.173C264.779 121.783 264.025 122.261 263.147 122.604C262.269 122.948 261.315 123.119 260.284 123.119C259.254 123.119 258.299 122.948 257.421 122.604C256.543 122.261 255.789 121.783 255.159 121.173C254.53 120.543 254.033 119.798 253.671 118.94C253.308 118.081 253.127 117.126 253.127 116.077ZM255.532 116.077C255.532 116.783 255.637 117.441 255.847 118.052C256.076 118.644 256.4 119.169 256.82 119.627C257.24 120.066 257.736 120.419 258.309 120.686C258.9 120.934 259.559 121.058 260.284 121.058C261.009 121.058 261.658 120.934 262.231 120.686C262.823 120.419 263.328 120.066 263.748 119.627C264.168 119.169 264.483 118.644 264.693 118.052C264.922 117.441 265.037 116.783 265.037 116.077C265.037 115.37 264.922 114.721 264.693 114.13C264.483 113.519 264.168 112.994 263.748 112.555C263.328 112.097 262.823 111.744 262.231 111.496C261.658 111.229 261.009 111.095 260.284 111.095C259.559 111.095 258.9 111.229 258.309 111.496C257.736 111.744 257.24 112.097 256.82 112.555C256.4 112.994 256.076 113.519 255.847 114.13C255.637 114.721 255.532 115.37 255.532 116.077ZM285.271 122.776H283.066L279.258 112.469H279.201L275.823 122.776H273.533L269.181 109.377H271.643L274.706 119.684H274.764L278.228 109.377H280.575L284.097 119.684H284.154L287.189 109.377H289.594L285.271 122.776ZM292.119 112.555C292.119 111.944 292.1 111.372 292.062 110.837C292.024 110.303 292.005 109.816 292.005 109.377H294.123C294.123 109.74 294.133 110.103 294.152 110.465C294.171 110.828 294.18 111.2 294.18 111.582H294.238C294.39 111.257 294.6 110.942 294.868 110.637C295.154 110.332 295.488 110.064 295.87 109.835C296.251 109.587 296.681 109.396 297.158 109.263C297.635 109.11 298.15 109.034 298.704 109.034C299.582 109.034 300.336 109.167 300.966 109.435C301.615 109.702 302.149 110.074 302.569 110.551C302.989 111.028 303.294 111.61 303.485 112.298C303.695 112.966 303.8 113.7 303.8 114.502V122.776H301.567V114.731C301.567 113.605 301.319 112.717 300.822 112.068C300.326 111.42 299.553 111.095 298.503 111.095C297.778 111.095 297.148 111.219 296.614 111.467C296.099 111.715 295.669 112.068 295.326 112.527C295.001 112.985 294.753 113.529 294.581 114.158C294.429 114.788 294.352 115.485 294.352 116.248V122.776H292.119V112.555Z" fill="#FFF7EB"/>
</g>
<rect x="19.5341" y="152.776" width="57.4358" height="5.52268" rx="2.20907" fill="#FFF7EB"/>
<path d="M226.895 202.017H228.989L236.968 220.785H234.37L232.461 216.172H223.077L221.142 220.785H218.624L226.895 202.017ZM227.902 204.88H227.849L223.952 214.105H231.613L227.902 204.88ZM238.985 208.379H241.053V210.181H241.106C241.672 209.51 242.325 208.988 243.068 208.617C243.828 208.246 244.658 208.061 245.559 208.061C246.531 208.061 247.415 208.229 248.21 208.564C249.023 208.882 249.713 209.333 250.278 209.916C250.844 210.499 251.285 211.189 251.604 211.984C251.922 212.779 252.081 213.645 252.081 214.582C252.081 215.518 251.922 216.384 251.604 217.18C251.285 217.975 250.844 218.664 250.278 219.247C249.73 219.831 249.076 220.29 248.316 220.626C247.556 220.944 246.744 221.103 245.878 221.103C244.764 221.103 243.783 220.864 242.935 220.387C242.105 219.892 241.495 219.292 241.106 218.585H241.053V226.829H238.985V208.379ZM241.053 214.582C241.053 215.236 241.15 215.845 241.345 216.411C241.557 216.959 241.857 217.445 242.246 217.869C242.635 218.275 243.094 218.602 243.624 218.85C244.172 219.08 244.782 219.194 245.453 219.194C246.125 219.194 246.726 219.08 247.256 218.85C247.804 218.602 248.272 218.275 248.661 217.869C249.05 217.445 249.341 216.959 249.536 216.411C249.748 215.845 249.854 215.236 249.854 214.582C249.854 213.928 249.748 213.327 249.536 212.779C249.341 212.214 249.05 211.728 248.661 211.321C248.272 210.897 247.804 210.57 247.256 210.34C246.726 210.093 246.125 209.969 245.453 209.969C244.782 209.969 244.172 210.093 243.624 210.34C243.094 210.57 242.635 210.897 242.246 211.321C241.857 211.728 241.557 212.214 241.345 212.779C241.15 213.327 241.053 213.928 241.053 214.582ZM255.297 211.321C255.297 210.756 255.279 210.226 255.244 209.731C255.209 209.236 255.191 208.785 255.191 208.379H257.153C257.153 208.715 257.161 209.05 257.179 209.386C257.197 209.722 257.206 210.067 257.206 210.42H257.259C257.4 210.12 257.594 209.828 257.842 209.545C258.107 209.262 258.416 209.015 258.77 208.803C259.123 208.573 259.521 208.396 259.962 208.273C260.404 208.131 260.881 208.061 261.394 208.061C261.535 208.061 261.677 208.07 261.818 208.087C261.959 208.105 262.101 208.14 262.242 208.193L262.11 210.287C261.756 210.181 261.385 210.128 260.996 210.128C259.724 210.128 258.796 210.544 258.213 211.374C257.647 212.187 257.365 213.309 257.365 214.741V220.785H255.297V211.321ZM264.802 208.379H266.87V220.785H264.802V208.379ZM264.325 203.528C264.325 203.121 264.466 202.768 264.749 202.467C265.049 202.167 265.412 202.017 265.836 202.017C266.26 202.017 266.613 202.167 266.896 202.467C267.197 202.768 267.347 203.121 267.347 203.528C267.347 203.969 267.205 204.332 266.923 204.615C266.64 204.897 266.278 205.039 265.836 205.039C265.394 205.039 265.032 204.897 264.749 204.615C264.466 204.332 264.325 203.969 264.325 203.528ZM271.17 200.744H273.238V220.785H271.17V200.744ZM292.313 220.785H290.086V204.88H290.033L286.666 207.716L285.341 206.099L290.377 202.017H292.313V220.785ZM298.507 211.401C298.507 210.34 298.595 209.236 298.772 208.087C298.949 206.938 299.276 205.896 299.753 204.959C300.23 204.005 300.875 203.227 301.688 202.626C302.518 202.008 303.579 201.699 304.869 201.699C306.159 201.699 307.211 202.008 308.023 202.626C308.854 203.227 309.508 204.005 309.985 204.959C310.462 205.896 310.789 206.938 310.966 208.087C311.143 209.236 311.231 210.34 311.231 211.401C311.231 212.461 311.143 213.566 310.966 214.714C310.789 215.863 310.462 216.915 309.985 217.869C309.508 218.806 308.854 219.583 308.023 220.202C307.211 220.803 306.159 221.103 304.869 221.103C303.579 221.103 302.518 220.803 301.688 220.202C300.875 219.583 300.23 218.806 299.753 217.869C299.276 216.915 298.949 215.863 298.772 214.714C298.595 213.566 298.507 212.461 298.507 211.401ZM300.734 211.401C300.734 211.86 300.751 212.373 300.787 212.938C300.822 213.504 300.884 214.078 300.972 214.661C301.078 215.227 301.22 215.784 301.396 216.331C301.591 216.879 301.838 217.365 302.138 217.789C302.457 218.214 302.837 218.558 303.278 218.823C303.72 219.071 304.25 219.194 304.869 219.194C305.487 219.194 306.018 219.071 306.459 218.823C306.901 218.558 307.272 218.214 307.573 217.789C307.891 217.365 308.138 216.879 308.315 216.331C308.509 215.784 308.651 215.227 308.739 214.661C308.845 214.078 308.916 213.504 308.951 212.938C308.987 212.373 309.004 211.86 309.004 211.401C309.004 210.941 308.987 210.429 308.951 209.863C308.916 209.298 308.845 208.732 308.739 208.167C308.651 207.584 308.509 207.018 308.315 206.47C308.138 205.922 307.891 205.436 307.573 205.012C307.272 204.588 306.901 204.252 306.459 204.005C306.018 203.74 305.487 203.607 304.869 203.607C304.25 203.607 303.72 203.74 303.278 204.005C302.837 204.252 302.457 204.588 302.138 205.012C301.838 205.436 301.591 205.922 301.396 206.47C301.22 207.018 301.078 207.584 300.972 208.167C300.884 208.732 300.822 209.298 300.787 209.863C300.751 210.429 300.734 210.941 300.734 211.401ZM313.396 213.468H319.891V215.377H313.396V213.468ZM330.6 220.785H328.374V204.88H328.321L324.954 207.716L323.628 206.099L328.665 202.017H330.6V220.785ZM337.113 218.24L344.19 211.348C344.632 210.924 345.021 210.535 345.357 210.181C345.693 209.81 345.967 209.457 346.179 209.121C346.408 208.768 346.576 208.405 346.682 208.034C346.788 207.663 346.841 207.248 346.841 206.788C346.841 206.293 346.753 205.852 346.576 205.463C346.399 205.074 346.152 204.747 345.834 204.482C345.534 204.199 345.171 203.987 344.747 203.846C344.341 203.687 343.899 203.607 343.422 203.607C342.467 203.607 341.681 203.881 341.062 204.429C340.444 204.977 340.046 205.701 339.869 206.603L337.457 206.391C337.581 205.631 337.811 204.959 338.146 204.376C338.5 203.775 338.933 203.28 339.445 202.891C339.976 202.503 340.568 202.211 341.221 202.017C341.875 201.805 342.582 201.699 343.342 201.699C344.12 201.699 344.853 201.813 345.542 202.043C346.232 202.255 346.832 202.573 347.345 202.997C347.875 203.422 348.29 203.952 348.591 204.588C348.909 205.224 349.068 205.958 349.068 206.788C349.068 207.53 348.962 208.202 348.75 208.803C348.556 209.404 348.282 209.96 347.928 210.473C347.592 210.968 347.204 211.445 346.762 211.904C346.338 212.346 345.887 212.788 345.41 213.23L339.631 218.664V218.717H349.201V220.785H337.113V218.24ZM353.937 224.443H351.896L353.698 218.081H356.11L353.937 224.443ZM366.598 218.24L373.676 211.348C374.118 210.924 374.507 210.535 374.843 210.181C375.179 209.81 375.452 209.457 375.665 209.121C375.894 208.768 376.062 208.405 376.168 208.034C376.274 207.663 376.327 207.248 376.327 206.788C376.327 206.293 376.239 205.852 376.062 205.463C375.885 205.074 375.638 204.747 375.32 204.482C375.019 204.199 374.657 203.987 374.233 203.846C373.827 203.687 373.385 203.607 372.908 203.607C371.953 203.607 371.167 203.881 370.548 204.429C369.93 204.977 369.532 205.701 369.355 206.603L366.943 206.391C367.067 205.631 367.297 204.959 367.632 204.376C367.986 203.775 368.419 203.28 368.931 202.891C369.461 202.503 370.053 202.211 370.707 202.017C371.361 201.805 372.068 201.699 372.828 201.699C373.606 201.699 374.339 201.813 375.028 202.043C375.718 202.255 376.318 202.573 376.831 202.997C377.361 203.422 377.776 203.952 378.077 204.588C378.395 205.224 378.554 205.958 378.554 206.788C378.554 207.53 378.448 208.202 378.236 208.803C378.041 209.404 377.768 209.96 377.414 210.473C377.078 210.968 376.69 211.445 376.248 211.904C375.824 212.346 375.373 212.788 374.896 213.23L369.117 218.664V218.717H378.687V220.785H366.598V218.24ZM381.01 211.401C381.01 210.34 381.099 209.236 381.275 208.087C381.452 206.938 381.779 205.896 382.256 204.959C382.733 204.005 383.379 203.227 384.191 202.626C385.022 202.008 386.082 201.699 387.373 201.699C388.663 201.699 389.714 202.008 390.527 202.626C391.358 203.227 392.012 204.005 392.489 204.959C392.966 205.896 393.293 206.938 393.47 208.087C393.646 209.236 393.735 210.34 393.735 211.401C393.735 212.461 393.646 213.566 393.47 214.714C393.293 215.863 392.966 216.915 392.489 217.869C392.012 218.806 391.358 219.583 390.527 220.202C389.714 220.803 388.663 221.103 387.373 221.103C386.082 221.103 385.022 220.803 384.191 220.202C383.379 219.583 382.733 218.806 382.256 217.869C381.779 216.915 381.452 215.863 381.275 214.714C381.099 213.566 381.01 212.461 381.01 211.401ZM383.237 211.401C383.237 211.86 383.255 212.373 383.29 212.938C383.325 213.504 383.387 214.078 383.476 214.661C383.582 215.227 383.723 215.784 383.9 216.331C384.094 216.879 384.342 217.365 384.642 217.789C384.96 218.214 385.34 218.558 385.782 218.823C386.224 219.071 386.754 219.194 387.373 219.194C387.991 219.194 388.521 219.071 388.963 218.823C389.405 218.558 389.776 218.214 390.076 217.789C390.395 217.365 390.642 216.879 390.819 216.331C391.013 215.784 391.154 215.227 391.243 214.661C391.349 214.078 391.42 213.504 391.455 212.938C391.49 212.373 391.508 211.86 391.508 211.401C391.508 210.941 391.49 210.429 391.455 209.863C391.42 209.298 391.349 208.732 391.243 208.167C391.154 207.584 391.013 207.018 390.819 206.47C390.642 205.922 390.395 205.436 390.076 205.012C389.776 204.588 389.405 204.252 388.963 204.005C388.521 203.74 387.991 203.607 387.373 203.607C386.754 203.607 386.224 203.74 385.782 204.005C385.34 204.252 384.96 204.588 384.642 205.012C384.342 205.436 384.094 205.922 383.9 206.47C383.723 207.018 383.582 207.584 383.476 208.167C383.387 208.732 383.325 209.298 383.29 209.863C383.255 210.429 383.237 210.941 383.237 211.401ZM396.059 218.24L403.136 211.348C403.578 210.924 403.967 210.535 404.303 210.181C404.639 209.81 404.912 209.457 405.125 209.121C405.354 208.768 405.522 208.405 405.628 208.034C405.734 207.663 405.787 207.248 405.787 206.788C405.787 206.293 405.699 205.852 405.522 205.463C405.345 205.074 405.098 204.747 404.78 204.482C404.479 204.199 404.117 203.987 403.693 203.846C403.287 203.687 402.845 203.607 402.368 203.607C401.413 203.607 400.627 203.881 400.008 204.429C399.39 204.977 398.992 205.701 398.815 206.603L396.403 206.391C396.527 205.631 396.757 204.959 397.092 204.376C397.446 203.775 397.879 203.28 398.391 202.891C398.921 202.503 399.513 202.211 400.167 202.017C400.821 201.805 401.528 201.699 402.288 201.699C403.066 201.699 403.799 201.813 404.488 202.043C405.178 202.255 405.778 202.573 406.291 202.997C406.821 203.422 407.236 203.952 407.537 204.588C407.855 205.224 408.014 205.958 408.014 206.788C408.014 207.53 407.908 208.202 407.696 208.803C407.501 209.404 407.228 209.96 406.874 210.473C406.538 210.968 406.15 211.445 405.708 211.904C405.284 212.346 404.833 212.788 404.356 213.23L398.577 218.664V218.717H408.147V220.785H396.059V218.24ZM414.871 209.837L414.924 209.89C415.277 209.695 415.684 209.554 416.143 209.466C416.62 209.377 417.053 209.333 417.442 209.333C418.255 209.333 419.006 209.474 419.695 209.757C420.402 210.04 421.003 210.446 421.498 210.977C422.011 211.489 422.408 212.108 422.691 212.832C422.974 213.557 423.115 214.352 423.115 215.218C423.115 216.137 422.956 216.959 422.638 217.683C422.32 218.408 421.878 219.026 421.313 219.539C420.747 220.034 420.075 220.423 419.298 220.705C418.538 220.97 417.716 221.103 416.833 221.103C415.949 221.103 415.118 220.97 414.341 220.705C413.581 220.423 412.918 220.034 412.353 219.539C411.787 219.026 411.345 218.408 411.027 217.683C410.709 216.959 410.55 216.137 410.55 215.218C410.55 214.14 410.718 213.195 411.054 212.382C411.389 211.569 411.814 210.756 412.326 209.943L417.31 202.017H419.908L414.871 209.837ZM416.833 211.242C416.267 211.242 415.737 211.339 415.242 211.533C414.747 211.71 414.314 211.975 413.943 212.329C413.59 212.664 413.307 213.08 413.095 213.575C412.883 214.069 412.777 214.617 412.777 215.218C412.777 215.837 412.883 216.393 413.095 216.888C413.307 217.365 413.59 217.781 413.943 218.134C414.314 218.47 414.747 218.735 415.242 218.929C415.737 219.106 416.267 219.194 416.833 219.194C417.398 219.194 417.928 219.106 418.423 218.929C418.918 218.735 419.342 218.47 419.695 218.134C420.067 217.781 420.358 217.365 420.57 216.888C420.782 216.393 420.888 215.837 420.888 215.218C420.888 214.617 420.782 214.069 420.57 213.575C420.358 213.08 420.067 212.664 419.695 212.329C419.342 211.975 418.918 211.71 418.423 211.533C417.928 211.339 417.398 211.242 416.833 211.242Z" fill="#FFF7EB"/>
<defs>
<filter id="filter0_f_1_67" x="-5.72205e-06" y="-5.72205e-06" width="385.107" height="124.53" filterUnits="userSpaceOnUse" color-interpolation-filters="sRGB">
<feFlood flood-opacity="0" result="BackgroundImageFix"/>
<feBlend mode="normal" in="SourceGraphic" in2="BackgroundImageFix" result="shape"/>
<feGaussianBlur stdDeviation="11.0454" result="effect1_foregroundBlur_1_67"/>
</filter>
<filter id="filter1_f_1_67" x="8.17219" y="77.274" width="319.486" height="75.8874" filterUnits="userSpaceOnUse" color-interpolation-filters="sRGB">
<feFlood flood-opacity="0" result="BackgroundImageFix"/>
<feBlend mode="normal" in="SourceGraphic" in2="BackgroundImageFix" result="shape"/>
<feGaussianBlur stdDeviation="11.929" result="effect1_foregroundBlur_1_67"/>
</filter>
</defs>
</svg>
