<svg width="450" height="2306" viewBox="0 0 450 2306" fill="none" xmlns="http://www.w3.org/2000/svg">
<g filter="url(#filter0_i_885_577)">
<path d="M0 0H450V2306H0V0Z" fill="url(#paint0_linear_885_577)"/>
<path d="M69.6978 450.044C74.572 424.276 97.2318 417.632 107.952 417.531C115.471 416.424 118.202 422.542 118.628 425.739C128.403 446.14 117.63 464.587 111.022 471.26C109.733 462.847 107.798 450.021 106.916 443.647C106.043 451.964 92.3743 462.299 85.0786 466.733C86.0306 460.261 93.568 441.936 97.2177 433.583L69.6978 450.044Z" fill="#8B332A"/>
<path d="M81.4132 555.528C65.0222 535.056 74.7262 513.529 81.6271 505.324C85.6797 498.895 92.1019 500.803 94.8065 502.561C116.657 508.417 123.651 528.602 124.416 537.963C117.19 533.465 106.193 526.587 100.78 523.108C106.526 529.184 105.476 546.288 104.094 554.712C99.8001 549.778 90.7936 532.129 86.8271 523.921L81.4132 555.528Z" fill="#8B332A"/>
<path d="M183.411 614.246C157.2 613.366 147.172 591.988 145.435 581.409C143.191 574.148 148.82 570.514 151.914 569.604C170.582 556.827 190.458 564.654 198.063 570.165C189.946 572.724 177.567 576.597 171.402 578.443C179.755 578.034 192.057 589.963 197.553 596.496C191.012 596.544 171.751 591.895 162.938 589.564L183.411 614.246Z" fill="#8B332A"/>
<path d="M285.187 565.147C260.006 572.472 243.82 555.279 238.874 545.766C234.482 539.565 238.699 534.359 241.356 532.531C255.118 514.576 276.443 515.826 285.386 518.695C278.469 523.655 267.911 531.189 262.628 534.862C270.438 531.874 285.842 539.379 293.1 543.875C286.899 545.958 267.148 547.537 258.047 548.067L285.187 565.147Z" fill="#8B332A"/>
<path d="M356.016 605.879C333.364 592.665 334.685 569.088 338.177 558.951C339.648 551.496 346.327 550.968 349.483 551.637C371.978 549.251 385.758 565.575 389.836 574.035C381.476 572.435 368.742 569.968 362.44 568.666C369.986 572.271 375.152 588.61 376.889 596.969C371.109 593.906 356.362 580.672 349.712 574.438L356.016 605.879Z" fill="#8B332A"/>
<path d="M359.463 675.451C361.153 649.28 382.831 639.917 393.459 638.508C400.786 636.49 404.244 642.228 405.057 645.349C417.252 664.403 408.813 684.028 403.07 691.459C400.763 683.266 397.275 670.773 395.621 664.554C395.77 672.916 383.467 684.843 376.768 690.135C376.922 683.595 382.164 664.487 384.766 655.751L359.463 675.451Z" fill="#8B332A"/>
<path d="M298.641 883.722C286.373 860.543 299.936 841.213 308.251 834.446C313.435 828.889 319.387 831.966 321.714 834.199C342.082 844.043 345.173 865.18 344.172 874.519C337.916 868.748 328.401 859.933 323.735 855.502C328.242 862.546 324.008 879.15 321.073 887.167C317.779 881.516 312.237 862.493 309.877 853.688L298.641 883.722Z" fill="#8B332A"/>
<path d="M319.313 960.404C318.786 934.185 339.595 923.024 350.066 920.721C357.196 918.092 361.127 923.517 362.201 926.558C375.962 944.514 369.212 964.782 364.116 972.671C361.126 964.702 356.595 952.549 354.421 946.492C355.277 954.811 344.025 967.735 337.797 973.574C337.398 967.045 341.007 947.562 342.861 938.637L319.313 960.404Z" fill="#8B332A"/>
<path d="M226.852 969.795C248.274 954.668 269.177 965.652 276.951 973.035C283.124 977.467 280.833 983.763 278.915 986.357C271.752 1007.81 251.182 1013.58 241.793 1013.78C246.718 1006.84 254.246 996.274 258.045 991.081C251.634 996.45 234.625 994.371 226.298 992.484C231.483 988.495 249.643 980.569 258.075 977.104L226.852 969.795Z" fill="#8B332A"/>
<path d="M167.27 898.47C191.802 907.738 194.415 931.207 192.656 941.783C192.443 949.379 185.944 951.008 182.721 950.873C160.934 956.962 144.635 943.154 139.209 935.488C147.718 935.678 160.685 935.996 167.115 936.233C159.076 933.931 151.268 918.677 148.166 910.723C154.375 912.783 171.115 923.384 178.709 928.427L167.27 898.47Z" fill="#8B332A"/>
<path d="M49.9603 934.136C62.2747 910.982 85.8851 911.375 96.1509 914.466C103.659 915.644 104.448 922.297 103.904 925.476C107.172 947.861 91.4021 962.271 83.1085 966.678C84.3793 958.262 86.3443 945.441 87.3971 939.093C84.091 946.775 67.9684 952.578 59.6843 954.643C62.5173 948.747 75.1616 933.491 81.1296 926.601L49.9603 934.136Z" fill="#8B332A"/>
<path d="M59.4105 1065.89C38.0111 1050.73 41.4047 1027.37 45.7764 1017.58C47.8996 1010.28 54.599 1010.34 57.6833 1011.29C80.3017 1010.89 92.5887 1028.37 95.9049 1037.15C87.719 1034.82 75.2523 1031.24 69.0895 1029.39C76.2881 1033.65 79.9937 1050.38 80.9877 1058.86C75.4997 1055.3 61.9769 1040.82 55.9015 1034.02L59.4105 1065.89Z" fill="#8B332A"/>
<path d="M53.7714 1254.6C43.4124 1230.5 58.4902 1212.33 67.324 1206.26C72.9399 1201.13 78.6238 1204.68 80.7638 1207.09C100.271 1218.55 101.647 1239.87 99.8964 1249.09C94.1259 1242.84 85.3534 1233.28 81.0596 1228.49C84.9838 1235.88 79.4248 1252.08 75.8528 1259.84C73.0253 1253.94 69.0348 1234.53 67.393 1225.57L53.7714 1254.6Z" fill="#8B332A"/>
<path d="M112.798 1357.06C87.7422 1349.31 83.6916 1326.05 84.7982 1315.39C84.544 1307.79 90.9303 1305.77 94.1552 1305.7C115.527 1298.29 132.644 1311.07 138.531 1318.39C130.026 1318.72 117.064 1319.2 110.631 1319.36C118.797 1321.16 127.527 1335.91 131.112 1343.65C124.788 1341.98 107.429 1332.43 99.5394 1327.86L112.798 1357.06Z" fill="#8B332A"/>
<path d="M238.41 1328.09C213.688 1336.85 196.546 1320.61 191.065 1311.39C186.325 1305.45 190.237 1300.01 192.786 1298.04C205.499 1279.32 226.861 1279.35 235.953 1281.71C229.331 1287.05 219.221 1295.18 214.156 1299.15C221.783 1295.72 237.591 1302.33 245.094 1306.4C239.021 1308.84 219.393 1311.54 210.338 1312.59L238.41 1328.09Z" fill="#8B332A"/>
<path d="M307.5 1314.37C284.263 1302.21 284.495 1278.6 287.516 1268.31C288.642 1260.8 295.29 1259.96 298.473 1260.49C320.835 1257.07 335.352 1272.74 339.815 1281C331.391 1279.79 318.557 1277.91 312.202 1276.9C319.906 1280.15 325.819 1296.24 327.94 1304.51C322.025 1301.71 306.684 1289.17 299.753 1283.25L307.5 1314.37Z" fill="#8B332A"/>
<path d="M360.925 1346.77C356.028 1321 374.683 1306.53 384.623 1302.51C391.214 1298.72 395.995 1303.42 397.562 1306.24C414.127 1321.64 410.854 1342.75 407.147 1351.38C402.868 1344.03 396.372 1332.8 393.218 1327.19C395.45 1335.25 386.514 1349.87 381.348 1356.67C379.865 1350.3 380.171 1330.48 380.509 1321.37L360.925 1346.77Z" fill="#8B332A"/>
<path d="M366.944 1396.17C384.1 1376.34 407.032 1381.97 416.353 1387.27C423.41 1390.09 422.7 1396.75 421.462 1399.73C419.669 1422.28 401.088 1432.82 392.022 1435.27C395.133 1427.35 399.901 1415.29 402.34 1409.33C397.407 1416.09 380.398 1418.16 371.862 1418.33C375.936 1413.21 391.657 1401.15 399.008 1395.76L366.944 1396.17Z" fill="#8B332A"/>
<path d="M320.317 1633.55C299.655 1617.39 304.145 1594.21 308.973 1584.64C311.437 1577.45 318.126 1577.83 321.163 1578.92C343.775 1579.59 355.225 1597.62 358.124 1606.56C350.057 1603.84 337.773 1599.68 331.704 1597.54C338.694 1602.13 341.608 1619.02 342.202 1627.53C336.887 1623.72 324.061 1608.62 318.313 1601.54L320.317 1633.55Z" fill="#8B332A"/>
<path d="M357.305 1691.48C351.73 1665.86 369.997 1650.89 379.827 1646.62C386.317 1642.66 391.22 1647.23 392.86 1650C409.825 1664.97 407.11 1686.16 403.632 1694.88C399.161 1687.64 392.371 1676.59 389.07 1671.06C391.514 1679.06 382.966 1693.91 377.981 1700.84C376.33 1694.51 376.114 1674.7 376.213 1665.58L357.305 1691.48Z" fill="#8B332A"/>
<path d="M303.005 1729.93C321.352 1711.19 343.892 1718.23 352.869 1724.09C359.739 1727.34 358.619 1733.94 357.2 1736.84C354.02 1759.24 334.825 1768.61 325.625 1770.5C329.218 1762.78 334.721 1751.04 337.522 1745.25C332.183 1751.68 315.078 1752.7 306.548 1752.34C310.929 1747.49 327.364 1736.42 335.034 1731.49L303.005 1729.93Z" fill="#8B332A"/>
<path d="M223.587 1706.8C249.087 1712.92 254.62 1735.88 254.199 1746.59C254.94 1754.16 248.696 1756.59 245.482 1756.86C224.63 1765.63 206.729 1753.97 200.385 1747.04C208.851 1746.17 221.755 1744.86 228.165 1744.29C219.9 1743.01 210.243 1728.85 206.17 1721.35C212.587 1722.62 230.523 1731.04 238.689 1735.09L223.587 1706.8Z" fill="#8B332A"/>
<path d="M85.4716 1719.28C97.6139 1696.04 121.227 1696.25 131.515 1699.27C139.032 1700.39 139.87 1707.04 139.35 1710.22C142.784 1732.58 127.121 1747.11 118.86 1751.58C120.069 1743.15 121.938 1730.32 122.944 1723.96C119.695 1731.66 103.616 1737.59 95.3474 1739.71C98.1366 1733.8 110.667 1718.45 116.584 1711.51L85.4716 1719.28Z" fill="#8B332A"/>
<path d="M67.6892 1850.69C52.8462 1829.07 64.1053 1808.31 71.5902 1800.63C76.1041 1794.52 82.3688 1796.89 84.937 1798.85C106.298 1806.29 111.79 1826.94 111.866 1836.33C104.99 1831.31 94.5281 1823.64 89.3848 1819.78C94.6692 1826.26 92.3658 1843.24 90.3687 1851.54C86.4488 1846.3 78.763 1828.04 75.4101 1819.56L67.6892 1850.69Z" fill="#8B332A"/>
</g>
<defs>
<filter id="filter0_i_885_577" x="0" y="0" width="450" height="2314" filterUnits="userSpaceOnUse" color-interpolation-filters="sRGB">
<feFlood flood-opacity="0" result="BackgroundImageFix"/>
<feBlend mode="normal" in="SourceGraphic" in2="BackgroundImageFix" result="shape"/>
<feColorMatrix in="SourceAlpha" type="matrix" values="0 0 0 0 0 0 0 0 0 0 0 0 0 0 0 0 0 0 127 0" result="hardAlpha"/>
<feOffset dy="8"/>
<feGaussianBlur stdDeviation="5.05"/>
<feComposite in2="hardAlpha" operator="arithmetic" k2="-1" k3="1"/>
<feColorMatrix type="matrix" values="0 0 0 0 0 0 0 0 0 0 0 0 0 0 0 0 0 0 0.25 0"/>
<feBlend mode="normal" in2="shape" result="effect1_innerShadow_885_577"/>
</filter>
<linearGradient id="paint0_linear_885_577" x1="225" y1="0" x2="225" y2="2306" gradientUnits="userSpaceOnUse">
<stop stop-color="#9D9E00"/>
<stop offset="0.05" stop-color="#B94923"/>
</linearGradient>
</defs>
</svg>
