<svg width="351" height="240" viewBox="0 0 351 240" fill="none" xmlns="http://www.w3.org/2000/svg">
<g filter="url(#filter0_i_0_1)">
<path d="M0.69827 33.0439C5.57249 7.27588 28.2323 0.632245 38.9529 0.531438C46.4715 -0.576117 49.2028 5.54155 49.6286 8.73883C59.4037 29.1398 48.6305 47.5867 42.0221 54.2601C40.7335 45.8468 38.7982 33.0215 37.9161 26.6472C37.0431 34.9644 23.3748 45.2987 16.079 49.7328C17.031 43.2608 24.5685 24.9363 28.2182 16.5831L0.69827 33.0439Z" fill="#8B332A"/>
</g>
<g filter="url(#filter1_i_0_1)">
<path d="M20.2394 141.904C3.8483 121.433 13.5523 99.9053 20.4533 91.7004C24.5058 85.2714 30.9281 87.1794 33.6326 88.937C55.4833 94.7935 62.4768 114.979 63.2422 124.339C56.0161 119.842 45.0194 112.964 39.6059 109.485C45.3522 115.561 44.3022 132.664 42.9202 141.089C38.6262 136.154 29.6197 118.505 25.6532 110.297L20.2394 141.904Z" fill="#8B332A"/>
</g>
<g filter="url(#filter2_i_0_1)">
<path d="M131.411 171.246C105.201 170.366 95.1728 148.988 93.435 138.409C91.1915 131.148 96.82 127.514 99.9147 126.604C118.582 113.827 138.459 121.654 146.064 127.165C137.946 129.724 125.567 133.597 119.403 135.443C127.755 135.034 140.057 146.963 145.554 153.496C139.012 153.544 119.751 148.895 110.938 146.564L131.411 171.246Z" fill="#8B332A"/>
</g>
<g filter="url(#filter3_i_0_1)">
<path d="M224.188 113.147C199.007 120.472 182.82 103.279 177.875 93.7665C173.482 87.5649 177.699 82.359 180.357 80.5312C194.118 62.5762 215.444 63.826 224.387 66.6952C217.469 71.6546 206.911 79.189 201.628 82.8624C209.439 79.8737 224.843 87.379 232.1 91.8753C225.899 93.9578 206.148 95.5374 197.048 96.0668L224.188 113.147Z" fill="#8B332A"/>
</g>
<g filter="url(#filter4_i_0_1)">
<path d="M295.017 153.879C272.364 140.665 273.685 117.088 277.177 106.951C278.649 99.4955 285.328 98.9684 288.483 99.6368C310.979 97.2508 324.758 113.575 328.836 122.035C320.477 120.435 307.743 117.968 301.441 116.666C308.987 120.271 314.152 136.61 315.89 144.968C310.109 141.906 295.363 128.672 288.712 122.438L295.017 153.879Z" fill="#8B332A"/>
</g>
<g filter="url(#filter5_i_0_1)">
<path d="M298.464 223.451C300.153 197.28 321.831 187.918 332.459 186.508C339.786 184.49 343.244 190.228 344.058 193.349C356.252 212.403 347.814 232.028 342.07 239.459C339.763 231.266 336.275 218.773 334.621 212.554C334.771 220.916 322.468 232.843 315.768 238.135C315.922 231.595 321.164 212.487 323.766 203.751L298.464 223.451Z" fill="#8B332A"/>
</g>
<defs>
<filter id="filter0_i_0_1" x="0.698242" y="0.399109" width="52.8535" height="61.861" filterUnits="userSpaceOnUse" color-interpolation-filters="sRGB">
<feFlood flood-opacity="0" result="BackgroundImageFix"/>
<feBlend mode="normal" in="SourceGraphic" in2="BackgroundImageFix" result="shape"/>
<feColorMatrix in="SourceAlpha" type="matrix" values="0 0 0 0 0 0 0 0 0 0 0 0 0 0 0 0 0 0 127 0" result="hardAlpha"/>
<feOffset dy="8"/>
<feGaussianBlur stdDeviation="5.05"/>
<feComposite in2="hardAlpha" operator="arithmetic" k2="-1" k3="1"/>
<feColorMatrix type="matrix" values="0 0 0 0 0 0 0 0 0 0 0 0 0 0 0 0 0 0 0.25 0"/>
<feBlend mode="normal" in2="shape" result="effect1_innerShadow_0_1"/>
</filter>
<filter id="filter1_i_0_1" x="11.2451" y="87.2402" width="51.9971" height="62.6642" filterUnits="userSpaceOnUse" color-interpolation-filters="sRGB">
<feFlood flood-opacity="0" result="BackgroundImageFix"/>
<feBlend mode="normal" in="SourceGraphic" in2="BackgroundImageFix" result="shape"/>
<feColorMatrix in="SourceAlpha" type="matrix" values="0 0 0 0 0 0 0 0 0 0 0 0 0 0 0 0 0 0 127 0" result="hardAlpha"/>
<feOffset dy="8"/>
<feGaussianBlur stdDeviation="5.05"/>
<feComposite in2="hardAlpha" operator="arithmetic" k2="-1" k3="1"/>
<feColorMatrix type="matrix" values="0 0 0 0 0 0 0 0 0 0 0 0 0 0 0 0 0 0 0.25 0"/>
<feBlend mode="normal" in2="shape" result="effect1_innerShadow_0_1"/>
</filter>
<filter id="filter2_i_0_1" x="92.9199" y="119.694" width="53.1436" height="59.5514" filterUnits="userSpaceOnUse" color-interpolation-filters="sRGB">
<feFlood flood-opacity="0" result="BackgroundImageFix"/>
<feBlend mode="normal" in="SourceGraphic" in2="BackgroundImageFix" result="shape"/>
<feColorMatrix in="SourceAlpha" type="matrix" values="0 0 0 0 0 0 0 0 0 0 0 0 0 0 0 0 0 0 127 0" result="hardAlpha"/>
<feOffset dy="8"/>
<feGaussianBlur stdDeviation="5.05"/>
<feComposite in2="hardAlpha" operator="arithmetic" k2="-1" k3="1"/>
<feColorMatrix type="matrix" values="0 0 0 0 0 0 0 0 0 0 0 0 0 0 0 0 0 0 0.25 0"/>
<feBlend mode="normal" in2="shape" result="effect1_innerShadow_0_1"/>
</filter>
<filter id="filter3_i_0_1" x="175.969" y="65.0144" width="56.1318" height="57.9009" filterUnits="userSpaceOnUse" color-interpolation-filters="sRGB">
<feFlood flood-opacity="0" result="BackgroundImageFix"/>
<feBlend mode="normal" in="SourceGraphic" in2="BackgroundImageFix" result="shape"/>
<feColorMatrix in="SourceAlpha" type="matrix" values="0 0 0 0 0 0 0 0 0 0 0 0 0 0 0 0 0 0 127 0" result="hardAlpha"/>
<feOffset dy="8"/>
<feGaussianBlur stdDeviation="5.05"/>
<feComposite in2="hardAlpha" operator="arithmetic" k2="-1" k3="1"/>
<feColorMatrix type="matrix" values="0 0 0 0 0 0 0 0 0 0 0 0 0 0 0 0 0 0 0.25 0"/>
<feBlend mode="normal" in2="shape" result="effect1_innerShadow_0_1"/>
</filter>
<filter id="filter4_i_0_1" x="275.205" y="99.4012" width="53.6313" height="62.4779" filterUnits="userSpaceOnUse" color-interpolation-filters="sRGB">
<feFlood flood-opacity="0" result="BackgroundImageFix"/>
<feBlend mode="normal" in="SourceGraphic" in2="BackgroundImageFix" result="shape"/>
<feColorMatrix in="SourceAlpha" type="matrix" values="0 0 0 0 0 0 0 0 0 0 0 0 0 0 0 0 0 0 127 0" result="hardAlpha"/>
<feOffset dy="8"/>
<feGaussianBlur stdDeviation="5.05"/>
<feComposite in2="hardAlpha" operator="arithmetic" k2="-1" k3="1"/>
<feColorMatrix type="matrix" values="0 0 0 0 0 0 0 0 0 0 0 0 0 0 0 0 0 0 0.25 0"/>
<feBlend mode="normal" in2="shape" result="effect1_innerShadow_0_1"/>
</filter>
<filter id="filter5_i_0_1" x="298.464" y="186.087" width="51.8384" height="61.3712" filterUnits="userSpaceOnUse" color-interpolation-filters="sRGB">
<feFlood flood-opacity="0" result="BackgroundImageFix"/>
<feBlend mode="normal" in="SourceGraphic" in2="BackgroundImageFix" result="shape"/>
<feColorMatrix in="SourceAlpha" type="matrix" values="0 0 0 0 0 0 0 0 0 0 0 0 0 0 0 0 0 0 127 0" result="hardAlpha"/>
<feOffset dy="8"/>
<feGaussianBlur stdDeviation="5.05"/>
<feComposite in2="hardAlpha" operator="arithmetic" k2="-1" k3="1"/>
<feColorMatrix type="matrix" values="0 0 0 0 0 0 0 0 0 0 0 0 0 0 0 0 0 0 0.25 0"/>
<feBlend mode="normal" in2="shape" result="effect1_innerShadow_0_1"/>
</filter>
</defs>
</svg>
