<svg width="409" height="103" viewBox="0 0 409 103" fill="none" xmlns="http://www.w3.org/2000/svg">
<path d="M49.4401 79.2001C45.0667 79.2001 41.0667 78.4534 37.4401 76.9601C33.8667 75.4667 30.7734 73.3867 28.1601 70.7201C25.6534 68.1067 23.6534 64.9867 22.1601 61.3601C20.7201 57.7334 20.0001 53.8134 20.0001 49.6001C20.0001 45.3334 20.7201 41.4134 22.1601 37.8401C23.6534 34.2134 25.6534 31.0667 28.1601 28.4001C30.7734 25.7867 33.8667 23.7334 37.4401 22.2401C41.0667 20.7467 45.0667 20.0001 49.4401 20.0001C53.8667 20.0001 57.8934 20.7467 61.5201 22.2401C65.2001 23.7334 68.2934 25.8134 70.8001 28.4801C73.4134 31.0934 75.4134 34.2134 76.8001 37.8401C78.1867 41.4667 78.8801 45.3867 78.8801 49.6001C78.8801 53.8134 78.1867 57.7334 76.8001 61.3601C75.4134 64.9867 73.4134 68.1067 70.8001 70.7201C68.2934 73.3867 65.2001 75.4667 61.5201 76.9601C57.8401 78.4534 53.8134 79.2001 49.4401 79.2001ZM49.4401 69.9201C53.2801 69.9201 56.5334 69.0934 59.2001 67.4401C61.9201 65.7867 63.9734 63.4401 65.3601 60.4001C66.8001 57.3601 67.5201 53.7601 67.5201 49.6001C67.5201 45.4934 66.8001 41.9201 65.3601 38.8801C63.9734 35.8401 61.9201 33.4934 59.2001 31.8401C56.5334 30.1334 53.2801 29.2801 49.4401 29.2801C45.7067 29.2801 42.4801 30.1334 39.7601 31.8401C37.0401 33.4934 34.9601 35.8401 33.5201 38.8801C32.0801 41.9201 31.3601 45.4934 31.3601 49.6001C31.3601 53.7067 32.0801 57.3067 33.5201 60.4001C34.9601 63.4401 37.0401 65.7867 39.7601 67.4401C42.4801 69.0934 45.7067 69.9201 49.4401 69.9201ZM100.826 79.2001C97.839 79.2001 95.3057 78.5334 93.2257 77.2001C91.1457 75.8134 89.5724 73.9734 88.5057 71.6801C87.439 69.3334 86.9057 66.6401 86.9057 63.6001V37.4401H97.0657V63.6001C97.0657 66.1067 97.6257 68.0534 98.7457 69.4401C99.8657 70.7734 101.572 71.4401 103.866 71.4401C105.572 71.4401 107.146 71.0667 108.586 70.3201C110.026 69.5734 111.412 68.5334 112.746 67.2001V37.4401H122.826V78.5601H116.666C115.279 78.5601 114.426 77.9467 114.106 76.7201L113.466 73.5201C111.759 75.1734 109.892 76.5334 107.866 77.6001C105.839 78.6667 103.492 79.2001 100.826 79.2001ZM120.906 78.5601L121.946 70.4801L126.506 71.4401C127.252 71.6001 127.812 71.8667 128.186 72.2401C128.612 72.6134 128.826 73.1734 128.826 73.9201V78.5601H120.906ZM88.8257 37.4401L87.8657 45.5201L83.2257 44.5601C82.5324 44.4001 81.9724 44.1334 81.5457 43.7601C81.119 43.3867 80.9057 42.8267 80.9057 42.0801V37.4401H88.8257ZM114.666 37.4401L113.626 45.5201L109.066 44.5601C108.319 44.4001 107.732 44.1334 107.306 43.7601C106.932 43.3867 106.746 42.8267 106.746 42.0801V37.4401H114.666ZM138.355 78.5601V37.4401H144.275C145.342 37.4401 146.062 37.6534 146.435 38.0801C146.862 38.4534 147.155 39.0934 147.315 40.0001L147.875 44.8801C149.368 42.3201 151.075 40.3201 152.995 38.8801C154.968 37.4401 157.182 36.7201 159.635 36.7201C160.648 36.7201 161.555 36.8534 162.355 37.1201C163.208 37.3334 163.955 37.6534 164.595 38.0801L163.315 45.6001C163.262 46.0801 163.075 46.4267 162.755 46.6401C162.488 46.8001 162.142 46.8801 161.715 46.8801C161.448 46.8801 160.835 46.8001 159.875 46.6401C158.915 46.4801 158.062 46.4001 157.315 46.4001C155.288 46.4001 153.555 46.9601 152.115 48.0801C150.675 49.2001 149.448 50.8267 148.435 52.9601V78.5601H138.355ZM146.515 78.5601L147.555 70.4801L152.115 71.4401C152.862 71.6001 153.422 71.8667 153.795 72.2401C154.222 72.6134 154.435 73.1734 154.435 73.9201V78.5601H146.515ZM132.355 78.5601V73.9201C132.355 73.1734 132.542 72.6134 132.915 72.2401C133.342 71.8667 133.928 71.6001 134.675 71.4401L139.235 70.4801L140.275 78.5601H132.355ZM140.275 37.4401L139.235 45.5201L134.675 44.5601C133.928 44.4001 133.342 44.1334 132.915 43.7601C132.542 43.3867 132.355 42.8267 132.355 42.0801V37.4401H140.275ZM203.521 78.5601V29.6001H186.161V20.6401H231.841V29.6001H214.561V78.5601H203.521ZM197.521 78.5601V73.9201C197.521 73.1734 197.734 72.6134 198.161 72.2401C198.587 71.8667 199.147 71.6001 199.841 71.4401L204.481 70.4801L205.441 78.5601H197.521ZM212.641 78.5601L213.601 70.4801L218.241 71.4401C218.987 71.6001 219.547 71.8667 219.921 72.2401C220.347 72.6134 220.561 73.1734 220.561 73.9201V78.5601H212.641ZM224.081 27.6801L231.841 29.6001V36.6401H227.761C227.014 36.6401 226.454 36.4534 226.081 36.0801C225.707 35.6534 225.441 35.0667 225.281 34.3201L224.081 27.6801ZM193.921 27.6801L192.721 34.3201C192.614 35.0667 192.347 35.6534 191.921 36.0801C191.547 36.4534 191.014 36.6401 190.321 36.6401H186.161V29.6001L193.921 27.6801ZM252.906 79.2001C248.799 79.2001 245.226 78.2934 242.186 76.4801C239.146 74.6134 236.772 72.0267 235.066 68.7201C233.412 65.3601 232.586 61.4934 232.586 57.1201C232.586 53.2801 233.412 49.8401 235.066 46.8001C236.719 43.7067 239.039 41.2801 242.026 39.5201C245.012 37.7067 248.479 36.8001 252.426 36.8001C255.999 36.8001 259.119 37.5734 261.786 39.1201C264.506 40.6134 266.586 42.7467 268.026 45.5201C269.519 48.2934 270.266 51.6001 270.266 55.4401C270.266 56.8801 270.132 57.8934 269.866 58.4801C269.599 59.0134 268.959 59.2801 267.946 59.2801H242.746C242.746 59.4401 242.746 59.6001 242.746 59.7601C242.746 59.9201 242.772 60.0801 242.826 60.2401C243.252 63.9734 244.399 66.7734 246.266 68.6401C248.186 70.5067 250.692 71.4401 253.786 71.4401C255.226 71.4401 256.666 71.1467 258.106 70.5601C259.599 69.9734 260.959 69.3867 262.186 68.8001C263.412 68.1601 264.399 67.8401 265.146 67.8401C265.892 67.8401 266.506 68.1334 266.986 68.7201L269.946 72.4001C268.506 74.0534 266.826 75.3867 264.906 76.4001C263.039 77.4134 261.066 78.1334 258.986 78.5601C256.959 78.9867 254.932 79.2001 252.906 79.2001ZM242.906 53.2801H261.226C261.226 50.6134 260.506 48.4001 259.066 46.6401C257.626 44.8801 255.492 44.0001 252.666 44.0001C249.839 44.0001 247.599 44.8001 245.946 46.4001C244.346 48.0001 243.332 50.2934 242.906 53.2801ZM286.543 79.2001C284.196 79.2001 282.116 78.7734 280.303 77.9201C278.489 77.0667 277.076 75.8134 276.063 74.1601C275.049 72.5067 274.543 70.4534 274.543 68.0001C274.543 66.5067 274.943 65.0134 275.743 63.5201C276.596 61.9734 277.956 60.5867 279.823 59.3601C281.743 58.1867 284.276 57.2001 287.423 56.4001C290.569 55.5467 294.463 55.0667 299.103 54.9601V52.6401C299.103 49.8667 298.516 47.8401 297.343 46.5601C296.223 45.2267 294.569 44.5601 292.383 44.5601C290.836 44.5601 289.396 44.8801 288.063 45.5201C286.783 46.1067 285.583 46.7201 284.463 47.3601C283.396 47.9467 282.356 48.2401 281.343 48.2401C280.649 48.2401 280.036 48.0534 279.503 47.6801C279.023 47.3067 278.649 46.8801 278.383 46.4001L276.543 43.2001C278.943 41.0134 281.556 39.3867 284.383 38.3201C287.263 37.2534 290.356 36.7201 293.663 36.7201C296.863 36.7201 299.609 37.3867 301.903 38.7201C304.196 40.0534 305.956 41.9201 307.183 44.3201C308.409 46.7201 309.023 49.4934 309.023 52.6401V78.5601H304.463C303.449 78.5601 302.676 78.4267 302.143 78.1601C301.663 77.8934 301.263 77.3067 300.943 76.4001L300.143 73.5201C298.063 75.3334 295.983 76.7467 293.903 77.7601C291.876 78.7201 289.423 79.2001 286.543 79.2001ZM289.743 72.3201C291.663 72.3201 293.343 71.9734 294.783 71.2801C296.276 70.5334 297.716 69.4401 299.103 68.0001V61.1201C296.756 61.1734 294.649 61.3601 292.783 61.6801C290.969 61.9467 289.423 62.3467 288.143 62.8801C286.916 63.3601 285.956 64.0001 285.263 64.8001C284.623 65.5467 284.303 66.4534 284.303 67.5201C284.303 69.2801 284.783 70.5334 285.743 71.2801C286.756 71.9734 288.089 72.3201 289.743 72.3201ZM307.023 78.5601L308.063 70.4801L312.703 71.4401C313.396 71.6001 313.956 71.8667 314.383 72.2401C314.809 72.6134 315.023 73.1734 315.023 73.9201V78.5601H307.023ZM324.527 78.5601V37.4401H330.687C332.02 37.4401 332.874 38.0534 333.247 39.2801L333.887 42.3201C335.327 40.7734 336.927 39.4667 338.687 38.4001C340.447 37.3334 342.527 36.8001 344.927 36.8001C347.54 36.8001 349.674 37.5201 351.327 38.9601C352.98 40.3467 354.207 42.1867 355.007 44.4801C356.287 41.8134 358.127 39.8667 360.527 38.6401C362.927 37.4134 365.487 36.8001 368.207 36.8001C372.794 36.8001 376.287 38.1867 378.687 40.9601C381.14 43.7334 382.367 47.5467 382.367 52.4001V78.5601H372.287V52.4001C372.287 49.8401 371.727 47.8934 370.607 46.5601C369.487 45.2267 367.807 44.5601 365.567 44.5601C363.594 44.5601 361.914 45.2534 360.527 46.6401C359.194 48.0267 358.527 49.9467 358.527 52.4001V78.5601H348.367V52.4001C348.367 49.6801 347.807 47.7067 346.687 46.4801C345.62 45.2001 344.047 44.5601 341.967 44.5601C340.527 44.5601 339.194 44.9334 337.967 45.6801C336.794 46.3734 335.674 47.3067 334.607 48.4801V78.5601H324.527ZM318.527 78.5601V73.9201C318.527 73.1734 318.714 72.6134 319.087 72.2401C319.514 71.8667 320.1 71.6001 320.847 71.4401L325.407 70.4801L326.447 78.5601H318.527ZM332.687 78.5601L333.727 70.4801L338.287 71.4401C339.034 71.6001 339.594 71.8667 339.967 72.2401C340.394 72.6134 340.607 73.1734 340.607 73.9201V78.5601H332.687ZM356.607 78.5601L357.567 70.4801L362.207 71.4401C362.9 71.6001 363.46 71.8667 363.887 72.2401C364.314 72.6134 364.527 73.1734 364.527 73.9201V78.5601H356.607ZM326.447 37.4401L325.407 45.5201L320.847 44.5601C320.1 44.4001 319.514 44.1334 319.087 43.7601C318.714 43.3867 318.527 42.8267 318.527 42.0801V37.4401H326.447ZM380.447 78.5601L381.487 70.4801L386.047 71.4401C386.794 71.6001 387.354 71.8667 387.727 72.2401C388.154 72.6134 388.367 73.1734 388.367 73.9201V78.5601H380.447Z" fill="#FFF7EB"/>
<g filter="url(#filter0_f_646_919)">
<path d="M49.4401 79.2001C45.0667 79.2001 41.0667 78.4534 37.4401 76.9601C33.8667 75.4667 30.7734 73.3867 28.1601 70.7201C25.6534 68.1067 23.6534 64.9867 22.1601 61.3601C20.7201 57.7334 20.0001 53.8134 20.0001 49.6001C20.0001 45.3334 20.7201 41.4134 22.1601 37.8401C23.6534 34.2134 25.6534 31.0667 28.1601 28.4001C30.7734 25.7867 33.8667 23.7334 37.4401 22.2401C41.0667 20.7467 45.0667 20.0001 49.4401 20.0001C53.8667 20.0001 57.8934 20.7467 61.5201 22.2401C65.2001 23.7334 68.2934 25.8134 70.8001 28.4801C73.4134 31.0934 75.4134 34.2134 76.8001 37.8401C78.1867 41.4667 78.8801 45.3867 78.8801 49.6001C78.8801 53.8134 78.1867 57.7334 76.8001 61.3601C75.4134 64.9867 73.4134 68.1067 70.8001 70.7201C68.2934 73.3867 65.2001 75.4667 61.5201 76.9601C57.8401 78.4534 53.8134 79.2001 49.4401 79.2001ZM49.4401 69.9201C53.2801 69.9201 56.5334 69.0934 59.2001 67.4401C61.9201 65.7867 63.9734 63.4401 65.3601 60.4001C66.8001 57.3601 67.5201 53.7601 67.5201 49.6001C67.5201 45.4934 66.8001 41.9201 65.3601 38.8801C63.9734 35.8401 61.9201 33.4934 59.2001 31.8401C56.5334 30.1334 53.2801 29.2801 49.4401 29.2801C45.7067 29.2801 42.4801 30.1334 39.7601 31.8401C37.0401 33.4934 34.9601 35.8401 33.5201 38.8801C32.0801 41.9201 31.3601 45.4934 31.3601 49.6001C31.3601 53.7067 32.0801 57.3067 33.5201 60.4001C34.9601 63.4401 37.0401 65.7867 39.7601 67.4401C42.4801 69.0934 45.7067 69.9201 49.4401 69.9201ZM100.826 79.2001C97.839 79.2001 95.3057 78.5334 93.2257 77.2001C91.1457 75.8134 89.5724 73.9734 88.5057 71.6801C87.439 69.3334 86.9057 66.6401 86.9057 63.6001V37.4401H97.0657V63.6001C97.0657 66.1067 97.6257 68.0534 98.7457 69.4401C99.8657 70.7734 101.572 71.4401 103.866 71.4401C105.572 71.4401 107.146 71.0667 108.586 70.3201C110.026 69.5734 111.412 68.5334 112.746 67.2001V37.4401H122.826V78.5601H116.666C115.279 78.5601 114.426 77.9467 114.106 76.7201L113.466 73.5201C111.759 75.1734 109.892 76.5334 107.866 77.6001C105.839 78.6667 103.492 79.2001 100.826 79.2001ZM120.906 78.5601L121.946 70.4801L126.506 71.4401C127.252 71.6001 127.812 71.8667 128.186 72.2401C128.612 72.6134 128.826 73.1734 128.826 73.9201V78.5601H120.906ZM88.8257 37.4401L87.8657 45.5201L83.2257 44.5601C82.5324 44.4001 81.9724 44.1334 81.5457 43.7601C81.119 43.3867 80.9057 42.8267 80.9057 42.0801V37.4401H88.8257ZM114.666 37.4401L113.626 45.5201L109.066 44.5601C108.319 44.4001 107.732 44.1334 107.306 43.7601C106.932 43.3867 106.746 42.8267 106.746 42.0801V37.4401H114.666ZM138.355 78.5601V37.4401H144.275C145.342 37.4401 146.062 37.6534 146.435 38.0801C146.862 38.4534 147.155 39.0934 147.315 40.0001L147.875 44.8801C149.368 42.3201 151.075 40.3201 152.995 38.8801C154.968 37.4401 157.182 36.7201 159.635 36.7201C160.648 36.7201 161.555 36.8534 162.355 37.1201C163.208 37.3334 163.955 37.6534 164.595 38.0801L163.315 45.6001C163.262 46.0801 163.075 46.4267 162.755 46.6401C162.488 46.8001 162.142 46.8801 161.715 46.8801C161.448 46.8801 160.835 46.8001 159.875 46.6401C158.915 46.4801 158.062 46.4001 157.315 46.4001C155.288 46.4001 153.555 46.9601 152.115 48.0801C150.675 49.2001 149.448 50.8267 148.435 52.9601V78.5601H138.355ZM146.515 78.5601L147.555 70.4801L152.115 71.4401C152.862 71.6001 153.422 71.8667 153.795 72.2401C154.222 72.6134 154.435 73.1734 154.435 73.9201V78.5601H146.515ZM132.355 78.5601V73.9201C132.355 73.1734 132.542 72.6134 132.915 72.2401C133.342 71.8667 133.928 71.6001 134.675 71.4401L139.235 70.4801L140.275 78.5601H132.355ZM140.275 37.4401L139.235 45.5201L134.675 44.5601C133.928 44.4001 133.342 44.1334 132.915 43.7601C132.542 43.3867 132.355 42.8267 132.355 42.0801V37.4401H140.275ZM203.521 78.5601V29.6001H186.161V20.6401H231.841V29.6001H214.561V78.5601H203.521ZM197.521 78.5601V73.9201C197.521 73.1734 197.734 72.6134 198.161 72.2401C198.587 71.8667 199.147 71.6001 199.841 71.4401L204.481 70.4801L205.441 78.5601H197.521ZM212.641 78.5601L213.601 70.4801L218.241 71.4401C218.987 71.6001 219.547 71.8667 219.921 72.2401C220.347 72.6134 220.561 73.1734 220.561 73.9201V78.5601H212.641ZM224.081 27.6801L231.841 29.6001V36.6401H227.761C227.014 36.6401 226.454 36.4534 226.081 36.0801C225.707 35.6534 225.441 35.0667 225.281 34.3201L224.081 27.6801ZM193.921 27.6801L192.721 34.3201C192.614 35.0667 192.347 35.6534 191.921 36.0801C191.547 36.4534 191.014 36.6401 190.321 36.6401H186.161V29.6001L193.921 27.6801ZM252.906 79.2001C248.799 79.2001 245.226 78.2934 242.186 76.4801C239.146 74.6134 236.772 72.0267 235.066 68.7201C233.412 65.3601 232.586 61.4934 232.586 57.1201C232.586 53.2801 233.412 49.8401 235.066 46.8001C236.719 43.7067 239.039 41.2801 242.026 39.5201C245.012 37.7067 248.479 36.8001 252.426 36.8001C255.999 36.8001 259.119 37.5734 261.786 39.1201C264.506 40.6134 266.586 42.7467 268.026 45.5201C269.519 48.2934 270.266 51.6001 270.266 55.4401C270.266 56.8801 270.132 57.8934 269.866 58.4801C269.599 59.0134 268.959 59.2801 267.946 59.2801H242.746C242.746 59.4401 242.746 59.6001 242.746 59.7601C242.746 59.9201 242.772 60.0801 242.826 60.2401C243.252 63.9734 244.399 66.7734 246.266 68.6401C248.186 70.5067 250.692 71.4401 253.786 71.4401C255.226 71.4401 256.666 71.1467 258.106 70.5601C259.599 69.9734 260.959 69.3867 262.186 68.8001C263.412 68.1601 264.399 67.8401 265.146 67.8401C265.892 67.8401 266.506 68.1334 266.986 68.7201L269.946 72.4001C268.506 74.0534 266.826 75.3867 264.906 76.4001C263.039 77.4134 261.066 78.1334 258.986 78.5601C256.959 78.9867 254.932 79.2001 252.906 79.2001ZM242.906 53.2801H261.226C261.226 50.6134 260.506 48.4001 259.066 46.6401C257.626 44.8801 255.492 44.0001 252.666 44.0001C249.839 44.0001 247.599 44.8001 245.946 46.4001C244.346 48.0001 243.332 50.2934 242.906 53.2801ZM286.543 79.2001C284.196 79.2001 282.116 78.7734 280.303 77.9201C278.489 77.0667 277.076 75.8134 276.063 74.1601C275.049 72.5067 274.543 70.4534 274.543 68.0001C274.543 66.5067 274.943 65.0134 275.743 63.5201C276.596 61.9734 277.956 60.5867 279.823 59.3601C281.743 58.1867 284.276 57.2001 287.423 56.4001C290.569 55.5467 294.463 55.0667 299.103 54.9601V52.6401C299.103 49.8667 298.516 47.8401 297.343 46.5601C296.223 45.2267 294.569 44.5601 292.383 44.5601C290.836 44.5601 289.396 44.8801 288.063 45.5201C286.783 46.1067 285.583 46.7201 284.463 47.3601C283.396 47.9467 282.356 48.2401 281.343 48.2401C280.649 48.2401 280.036 48.0534 279.503 47.6801C279.023 47.3067 278.649 46.8801 278.383 46.4001L276.543 43.2001C278.943 41.0134 281.556 39.3867 284.383 38.3201C287.263 37.2534 290.356 36.7201 293.663 36.7201C296.863 36.7201 299.609 37.3867 301.903 38.7201C304.196 40.0534 305.956 41.9201 307.183 44.3201C308.409 46.7201 309.023 49.4934 309.023 52.6401V78.5601H304.463C303.449 78.5601 302.676 78.4267 302.143 78.1601C301.663 77.8934 301.263 77.3067 300.943 76.4001L300.143 73.5201C298.063 75.3334 295.983 76.7467 293.903 77.7601C291.876 78.7201 289.423 79.2001 286.543 79.2001ZM289.743 72.3201C291.663 72.3201 293.343 71.9734 294.783 71.2801C296.276 70.5334 297.716 69.4401 299.103 68.0001V61.1201C296.756 61.1734 294.649 61.3601 292.783 61.6801C290.969 61.9467 289.423 62.3467 288.143 62.8801C286.916 63.3601 285.956 64.0001 285.263 64.8001C284.623 65.5467 284.303 66.4534 284.303 67.5201C284.303 69.2801 284.783 70.5334 285.743 71.2801C286.756 71.9734 288.089 72.3201 289.743 72.3201ZM307.023 78.5601L308.063 70.4801L312.703 71.4401C313.396 71.6001 313.956 71.8667 314.383 72.2401C314.809 72.6134 315.023 73.1734 315.023 73.9201V78.5601H307.023ZM324.527 78.5601V37.4401H330.687C332.02 37.4401 332.874 38.0534 333.247 39.2801L333.887 42.3201C335.327 40.7734 336.927 39.4667 338.687 38.4001C340.447 37.3334 342.527 36.8001 344.927 36.8001C347.54 36.8001 349.674 37.5201 351.327 38.9601C352.98 40.3467 354.207 42.1867 355.007 44.4801C356.287 41.8134 358.127 39.8667 360.527 38.6401C362.927 37.4134 365.487 36.8001 368.207 36.8001C372.794 36.8001 376.287 38.1867 378.687 40.9601C381.14 43.7334 382.367 47.5467 382.367 52.4001V78.5601H372.287V52.4001C372.287 49.8401 371.727 47.8934 370.607 46.5601C369.487 45.2267 367.807 44.5601 365.567 44.5601C363.594 44.5601 361.914 45.2534 360.527 46.6401C359.194 48.0267 358.527 49.9467 358.527 52.4001V78.5601H348.367V52.4001C348.367 49.6801 347.807 47.7067 346.687 46.4801C345.62 45.2001 344.047 44.5601 341.967 44.5601C340.527 44.5601 339.194 44.9334 337.967 45.6801C336.794 46.3734 335.674 47.3067 334.607 48.4801V78.5601H324.527ZM318.527 78.5601V73.9201C318.527 73.1734 318.714 72.6134 319.087 72.2401C319.514 71.8667 320.1 71.6001 320.847 71.4401L325.407 70.4801L326.447 78.5601H318.527ZM332.687 78.5601L333.727 70.4801L338.287 71.4401C339.034 71.6001 339.594 71.8667 339.967 72.2401C340.394 72.6134 340.607 73.1734 340.607 73.9201V78.5601H332.687ZM356.607 78.5601L357.567 70.4801L362.207 71.4401C362.9 71.6001 363.46 71.8667 363.887 72.2401C364.314 72.6134 364.527 73.1734 364.527 73.9201V78.5601H356.607ZM326.447 37.4401L325.407 45.5201L320.847 44.5601C320.1 44.4001 319.514 44.1334 319.087 43.7601C318.714 43.3867 318.527 42.8267 318.527 42.0801V37.4401H326.447ZM380.447 78.5601L381.487 70.4801L386.047 71.4401C386.794 71.6001 387.354 71.8667 387.727 72.2401C388.154 72.6134 388.367 73.1734 388.367 73.9201V78.5601H380.447Z" fill="#FFF7EB"/>
</g>
<defs>
<filter id="filter0_f_646_919" x="0" y="0" width="408.367" height="99.2002" filterUnits="userSpaceOnUse" color-interpolation-filters="sRGB">
<feFlood flood-opacity="0" result="BackgroundImageFix"/>
<feBlend mode="normal" in="SourceGraphic" in2="BackgroundImageFix" result="shape"/>
<feGaussianBlur stdDeviation="10" result="effect1_foregroundBlur_646_919"/>
</filter>
</defs>
</svg>
