<svg width="176" height="176" viewBox="0 0 176 176" fill="none" xmlns="http://www.w3.org/2000/svg">
<g filter="url(#filter0_d_1498_3498)">
<circle cx="87.8289" cy="87.8291" r="53.2895" fill="#B128BD" stroke="white" stroke-width="6.57895"/>
<path d="M72.8332 70.0483C72.9563 68.5995 73.6499 67.2589 74.7615 66.3215C75.873 65.3841 77.3114 64.9266 78.7602 65.0497L100.611 66.9067C102.06 67.0298 103.401 67.7234 104.338 68.8349C105.275 69.9464 105.733 71.3848 105.61 72.8337L104.681 83.7592C104.558 85.208 103.865 86.5486 102.753 87.486C101.642 88.4234 100.203 88.8808 98.7543 88.7577L76.9033 86.9008C75.4545 86.7777 74.1139 86.0841 73.1765 84.9725C72.2391 83.861 71.7816 82.4226 71.9047 80.9738L72.8332 70.0483Z" fill="#B128BD"/>
<path d="M90.15 60.5154L89.6857 65.9782L90.15 60.5154Z" fill="#B128BD"/>
<path d="M79.6347 87.1329L77.5456 111.715L79.6347 87.1329Z" fill="#B128BD"/>
<path d="M96.023 88.5256L93.9339 113.108L96.023 88.5256Z" fill="#B128BD"/>
<path d="M67.7807 97.13L79.1704 92.5957L67.7807 97.13Z" fill="#B128BD"/>
<path d="M95.5587 93.9884L106.02 100.38L95.5587 93.9884Z" fill="#B128BD"/>
<path d="M78.242 103.521L94.6303 104.914L78.242 103.521Z" fill="#B128BD"/>
<path d="M83.2945 76.4395L83.2922 76.4668L83.2945 76.4395Z" fill="#B128BD"/>
<path d="M94.22 77.368L94.2177 77.3953L94.22 77.368Z" fill="#B128BD"/>
<path d="M96.023 88.5256L79.6347 87.1329L79.1704 92.5957L78.242 103.521L94.6303 104.914L95.5587 93.9884L96.023 88.5256Z" fill="#B128BD"/>
<path d="M90.15 60.5154L89.6857 65.9782M79.6347 87.1329L77.5456 111.715M79.6347 87.1329L96.023 88.5256M79.6347 87.1329L79.1704 92.5957M96.023 88.5256L93.9339 113.108M96.023 88.5256L95.5587 93.9884M67.7807 97.13L79.1704 92.5957M79.1704 92.5957L78.242 103.521L94.6303 104.914L95.5587 93.9884M95.5587 93.9884L106.02 100.38M83.2945 76.4395L83.2922 76.4668M94.22 77.368L94.2177 77.3953M72.8332 70.0483C72.9563 68.5995 73.6499 67.2589 74.7615 66.3215C75.873 65.3841 77.3114 64.9266 78.7602 65.0497L100.611 66.9067C102.06 67.0298 103.401 67.7234 104.338 68.8349C105.275 69.9464 105.733 71.3848 105.61 72.8337L104.681 83.7592C104.558 85.208 103.865 86.5486 102.753 87.486C101.642 88.4234 100.203 88.8808 98.7543 88.7577L76.9033 86.9008C75.4545 86.7777 74.1139 86.0841 73.1765 84.9725C72.2391 83.861 71.7816 82.4226 71.9047 80.9738L72.8332 70.0483Z" stroke="#FFF7EB" stroke-width="5.48246" stroke-linecap="round" stroke-linejoin="round"/>
</g>
<defs>
<filter id="filter0_d_1498_3498" x="-9.53674e-07" y="-9.53674e-07" width="175.658" height="175.658" filterUnits="userSpaceOnUse" color-interpolation-filters="sRGB">
<feFlood flood-opacity="0" result="BackgroundImageFix"/>
<feColorMatrix in="SourceAlpha" type="matrix" values="0 0 0 0 0 0 0 0 0 0 0 0 0 0 0 0 0 0 127 0" result="hardAlpha"/>
<feMorphology radius="4.93421" operator="dilate" in="SourceAlpha" result="effect1_dropShadow_1498_3498"/>
<feOffset/>
<feGaussianBlur stdDeviation="13.1579"/>
<feComposite in2="hardAlpha" operator="out"/>
<feColorMatrix type="matrix" values="0 0 0 0 1 0 0 0 0 0.976 0 0 0 0 0.94 0 0 0 0.5 0"/>
<feBlend mode="normal" in2="BackgroundImageFix" result="effect1_dropShadow_1498_3498"/>
<feBlend mode="normal" in="SourceGraphic" in2="effect1_dropShadow_1498_3498" result="shape"/>
</filter>
</defs>
</svg>
