<svg width="337" height="221" viewBox="0 0 337 221" fill="none" xmlns="http://www.w3.org/2000/svg">
<g filter="url(#filter0_i_0_1)">
<path d="M256.641 52.7219C244.373 29.5434 257.936 10.2135 266.251 3.4458C271.435 -2.1108 277.387 0.965905 279.714 3.19883C300.082 13.0429 303.173 34.1805 302.172 43.5187C295.916 37.7479 286.401 28.9327 281.735 24.5017C286.242 31.5461 282.008 48.1502 279.073 56.1674C275.779 50.5157 270.236 31.4926 267.877 22.6875L256.641 52.7219Z" fill="#8B332A"/>
</g>
<g filter="url(#filter1_i_0_1)">
<path d="M285.314 127.404C284.786 101.185 305.596 90.0241 316.067 87.7213C323.197 85.0916 327.128 90.517 328.202 93.5584C341.962 111.514 335.212 131.782 330.117 139.671C327.126 131.702 322.595 119.549 320.421 113.492C321.277 121.811 310.025 134.735 303.797 140.574C303.398 134.045 307.007 114.562 308.861 105.637L285.314 127.404Z" fill="#8B332A"/>
</g>
<g filter="url(#filter2_i_0_1)">
<path d="M196.852 140.795C218.274 125.668 239.178 136.652 246.952 144.035C253.125 148.467 250.833 154.763 248.916 157.357C241.753 178.815 221.183 184.579 211.793 184.779C216.718 177.837 224.246 167.274 228.045 162.081C221.634 167.45 204.625 165.371 196.299 163.484C201.484 159.495 219.643 151.569 228.075 148.104L196.852 140.795Z" fill="#8B332A"/>
</g>
<g filter="url(#filter3_i_0_1)">
<path d="M137.605 64.4262C162.137 73.6951 164.75 97.1636 162.991 107.739C162.778 115.336 156.279 116.965 153.056 116.83C131.269 122.919 114.97 109.11 109.544 101.445C118.053 101.635 131.02 101.953 137.45 102.189C129.411 99.8874 121.603 84.634 118.501 76.6799C124.71 78.7398 141.45 89.3407 149.044 94.3837L137.605 64.4262Z" fill="#8B332A"/>
</g>
<g filter="url(#filter4_i_0_1)">
<path d="M14.9608 92.136C27.2751 68.982 50.8855 69.3753 61.1514 72.4661C68.6593 73.6438 69.4484 80.2969 68.9045 83.4762C72.1726 105.861 56.4025 120.271 48.109 124.678C49.3798 116.262 51.3447 103.441 52.3976 97.0929C49.0914 104.775 32.9688 110.578 24.6847 112.643C27.5177 106.747 40.162 91.4913 46.1301 84.6007L14.9608 92.136Z" fill="#8B332A"/>
</g>
<g filter="url(#filter5_i_0_1)">
<path d="M17.4109 220.894C-3.98841 205.734 -0.59487 182.366 3.77682 172.576C5.90005 165.279 12.5994 165.343 15.6837 166.287C38.3022 165.893 50.5892 183.368 53.9053 192.155C45.7194 189.824 33.2527 186.244 27.09 184.392C34.2886 188.648 37.9941 205.378 38.9881 213.858C33.5001 210.298 19.9773 195.816 13.902 189.019L17.4109 220.894Z" fill="#8B332A"/>
</g>
<defs>
<filter id="filter0_i_0_1" x="251.726" y="0.311035" width="50.6108" height="63.8563" filterUnits="userSpaceOnUse" color-interpolation-filters="sRGB">
<feFlood flood-opacity="0" result="BackgroundImageFix"/>
<feBlend mode="normal" in="SourceGraphic" in2="BackgroundImageFix" result="shape"/>
<feColorMatrix in="SourceAlpha" type="matrix" values="0 0 0 0 0 0 0 0 0 0 0 0 0 0 0 0 0 0 127 0" result="hardAlpha"/>
<feOffset dy="8"/>
<feGaussianBlur stdDeviation="5.05"/>
<feComposite in2="hardAlpha" operator="arithmetic" k2="-1" k3="1"/>
<feColorMatrix type="matrix" values="0 0 0 0 0 0 0 0 0 0 0 0 0 0 0 0 0 0 0.25 0"/>
<feBlend mode="normal" in2="shape" result="effect1_innerShadow_0_1"/>
</filter>
<filter id="filter1_i_0_1" x="285.304" y="87.0227" width="51.0371" height="61.5516" filterUnits="userSpaceOnUse" color-interpolation-filters="sRGB">
<feFlood flood-opacity="0" result="BackgroundImageFix"/>
<feBlend mode="normal" in="SourceGraphic" in2="BackgroundImageFix" result="shape"/>
<feColorMatrix in="SourceAlpha" type="matrix" values="0 0 0 0 0 0 0 0 0 0 0 0 0 0 0 0 0 0 127 0" result="hardAlpha"/>
<feOffset dy="8"/>
<feGaussianBlur stdDeviation="5.05"/>
<feComposite in2="hardAlpha" operator="arithmetic" k2="-1" k3="1"/>
<feColorMatrix type="matrix" values="0 0 0 0 0 0 0 0 0 0 0 0 0 0 0 0 0 0 0.25 0"/>
<feBlend mode="normal" in2="shape" result="effect1_innerShadow_0_1"/>
</filter>
<filter id="filter2_i_0_1" x="196.299" y="133.222" width="54.6699" height="59.5566" filterUnits="userSpaceOnUse" color-interpolation-filters="sRGB">
<feFlood flood-opacity="0" result="BackgroundImageFix"/>
<feBlend mode="normal" in="SourceGraphic" in2="BackgroundImageFix" result="shape"/>
<feColorMatrix in="SourceAlpha" type="matrix" values="0 0 0 0 0 0 0 0 0 0 0 0 0 0 0 0 0 0 127 0" result="hardAlpha"/>
<feOffset dy="8"/>
<feGaussianBlur stdDeviation="5.05"/>
<feComposite in2="hardAlpha" operator="arithmetic" k2="-1" k3="1"/>
<feColorMatrix type="matrix" values="0 0 0 0 0 0 0 0 0 0 0 0 0 0 0 0 0 0 0.25 0"/>
<feBlend mode="normal" in2="shape" result="effect1_innerShadow_0_1"/>
</filter>
<filter id="filter3_i_0_1" x="109.544" y="64.4261" width="53.8843" height="61.9125" filterUnits="userSpaceOnUse" color-interpolation-filters="sRGB">
<feFlood flood-opacity="0" result="BackgroundImageFix"/>
<feBlend mode="normal" in="SourceGraphic" in2="BackgroundImageFix" result="shape"/>
<feColorMatrix in="SourceAlpha" type="matrix" values="0 0 0 0 0 0 0 0 0 0 0 0 0 0 0 0 0 0 127 0" result="hardAlpha"/>
<feOffset dy="8"/>
<feGaussianBlur stdDeviation="5.05"/>
<feComposite in2="hardAlpha" operator="arithmetic" k2="-1" k3="1"/>
<feColorMatrix type="matrix" values="0 0 0 0 0 0 0 0 0 0 0 0 0 0 0 0 0 0 0.25 0"/>
<feBlend mode="normal" in2="shape" result="effect1_innerShadow_0_1"/>
</filter>
<filter id="filter4_i_0_1" x="14.9609" y="70.9617" width="54.3828" height="61.7163" filterUnits="userSpaceOnUse" color-interpolation-filters="sRGB">
<feFlood flood-opacity="0" result="BackgroundImageFix"/>
<feBlend mode="normal" in="SourceGraphic" in2="BackgroundImageFix" result="shape"/>
<feColorMatrix in="SourceAlpha" type="matrix" values="0 0 0 0 0 0 0 0 0 0 0 0 0 0 0 0 0 0 127 0" result="hardAlpha"/>
<feOffset dy="8"/>
<feGaussianBlur stdDeviation="5.05"/>
<feComposite in2="hardAlpha" operator="arithmetic" k2="-1" k3="1"/>
<feColorMatrix type="matrix" values="0 0 0 0 0 0 0 0 0 0 0 0 0 0 0 0 0 0 0.25 0"/>
<feBlend mode="normal" in2="shape" result="effect1_innerShadow_0_1"/>
</filter>
<filter id="filter5_i_0_1" x="0.520996" y="165.842" width="53.3843" height="63.0516" filterUnits="userSpaceOnUse" color-interpolation-filters="sRGB">
<feFlood flood-opacity="0" result="BackgroundImageFix"/>
<feBlend mode="normal" in="SourceGraphic" in2="BackgroundImageFix" result="shape"/>
<feColorMatrix in="SourceAlpha" type="matrix" values="0 0 0 0 0 0 0 0 0 0 0 0 0 0 0 0 0 0 127 0" result="hardAlpha"/>
<feOffset dy="8"/>
<feGaussianBlur stdDeviation="5.05"/>
<feComposite in2="hardAlpha" operator="arithmetic" k2="-1" k3="1"/>
<feColorMatrix type="matrix" values="0 0 0 0 0 0 0 0 0 0 0 0 0 0 0 0 0 0 0.25 0"/>
<feBlend mode="normal" in2="shape" result="effect1_innerShadow_0_1"/>
</filter>
</defs>
</svg>
