<svg width="698" height="818" viewBox="0 0 698 818" fill="none" xmlns="http://www.w3.org/2000/svg">
<ellipse cx="12.95" cy="16.0696" rx="12.95" ry="16.0696" transform="matrix(-0.997674 0.0681645 0.0901711 0.995926 622.891 53.7385)" fill="url(#paint0_radial_651_975)"/>
<path d="M611.961 63.8313C611.576 62.7573 610.02 62.8635 609.832 63.9767L609.429 66.3682C609.346 66.8601 608.939 67.227 608.439 67.2612L606.017 67.4266C605.009 67.4955 604.644 68.7686 605.453 69.3913L607.983 71.3367C608.313 71.5907 608.478 72.0041 608.41 72.4084L607.89 75.4896C607.709 76.5638 609.045 77.2465 609.79 76.4606L611.162 75.0149C611.546 74.6095 612.182 74.566 612.635 74.9142L614.25 76.1559C615.128 76.8309 616.324 75.9751 615.952 74.9388L614.884 71.966C614.744 71.576 614.832 71.1453 615.113 70.8496L617.261 68.5845C617.949 67.8596 617.359 66.6517 616.351 66.7206L613.929 66.886C613.429 66.9202 612.961 66.6131 612.79 66.1386L611.961 63.8313Z" fill="#FFF7EB"/>
<ellipse cx="8.33694" cy="9.88211" rx="8.33694" ry="9.88211" transform="matrix(-0.860299 0.509791 0.390515 0.920596 632.785 27.9876)" fill="url(#paint1_radial_651_975)"/>
<path d="M628.443 37.0802C628.019 36.551 627.192 37.041 627.297 37.7596L627.532 39.3752C627.579 39.6935 627.425 40.0242 627.158 40.1829L625.806 40.9836C625.255 41.3102 625.312 42.1941 625.893 42.3316L627.642 42.7452C627.884 42.8024 628.063 43.0127 628.103 43.2855L628.39 45.2554C628.492 45.953 629.356 46.0093 629.627 45.336L630.17 43.9865C630.306 43.6489 630.636 43.4534 630.946 43.5268L632.186 43.82C632.804 43.9663 633.283 43.1139 632.871 42.6003L631.707 41.1496C631.546 40.9487 631.511 40.6529 631.617 40.3896L632.383 38.4857C632.637 37.8533 632.072 37.2708 631.521 37.5974L630.169 38.3982C629.902 38.5569 629.586 38.5044 629.398 38.27L628.443 37.0802Z" fill="#FFF7EB"/>
<ellipse cx="20.7013" cy="24.538" rx="20.7013" ry="24.538" transform="matrix(-0.860299 0.509791 0.390515 0.920596 610.485 2.07546)" fill="url(#paint2_radial_651_975)"/>
<path d="M599.704 24.6548C598.65 23.3408 596.596 24.5575 596.857 26.3419L597.442 30.3536C597.557 31.144 597.176 31.9651 596.511 32.3591L593.156 34.3474C591.787 35.1584 591.928 37.3532 593.371 37.6944L597.713 38.7216C598.314 38.8637 598.76 39.3859 598.859 40.0632L599.572 44.9546C599.825 46.6866 601.971 46.8265 602.644 45.1547L603.992 41.8037C604.329 40.9654 605.148 40.4801 605.918 40.6622L608.996 41.3903C610.532 41.7535 611.721 39.6371 610.698 38.3616L607.809 34.7595C607.409 34.2607 607.321 33.5262 607.584 32.8724L609.486 28.1447C610.118 26.5745 608.714 25.1282 607.345 25.9392L603.99 27.9276C603.325 28.3216 602.54 28.1912 602.073 27.6092L599.704 24.6548Z" fill="#FFF7EB"/>
<path d="M348.84 622.605C432.055 616.06 508.059 619.82 563.646 631.137C591.457 636.799 614.012 644.325 629.783 653.3C645.642 662.327 654.065 672.471 654.906 683.168C655.748 693.866 649.015 705.203 634.761 716.598C620.588 727.929 599.486 738.888 572.903 748.828C519.769 768.696 445.286 784.291 362.072 790.836C278.857 797.381 202.852 793.622 147.265 782.305C119.454 776.643 96.8996 769.117 81.1292 760.142C65.2692 751.115 56.8462 740.97 56.0048 730.273C55.1634 719.575 61.897 708.239 76.1508 696.844C90.324 685.513 111.425 674.554 138.008 664.614C191.143 644.746 265.626 629.15 348.84 622.605Z" stroke="url(#paint3_linear_651_975)" stroke-width="5.00001"/>
<defs>
<radialGradient id="paint0_radial_651_975" cx="0" cy="0" r="1" gradientUnits="userSpaceOnUse" gradientTransform="translate(12.95 16.0696) rotate(90) scale(16.0696 12.95)">
<stop stop-color="#FFF6E8"/>
<stop offset="1" stop-color="#FFF6E8" stop-opacity="0"/>
</radialGradient>
<radialGradient id="paint1_radial_651_975" cx="0" cy="0" r="1" gradientUnits="userSpaceOnUse" gradientTransform="translate(8.33694 9.88211) rotate(90) scale(9.88211 8.33694)">
<stop stop-color="#FFF6E8"/>
<stop offset="1" stop-color="#FFF6E8" stop-opacity="0"/>
</radialGradient>
<radialGradient id="paint2_radial_651_975" cx="0" cy="0" r="1" gradientUnits="userSpaceOnUse" gradientTransform="translate(20.7013 24.538) rotate(90) scale(24.538 20.7013)">
<stop stop-color="#FFF6E8"/>
<stop offset="1" stop-color="#FFF6E8" stop-opacity="0"/>
</radialGradient>
<linearGradient id="paint3_linear_651_975" x1="431.344" y1="577.873" x2="404.667" y2="736.257" gradientUnits="userSpaceOnUse">
<stop stop-color="#FFF9F0"/>
<stop offset="1" stop-color="#FFF9F0" stop-opacity="0"/>
</linearGradient>
</defs>
</svg>
