<?xml version="1.0" encoding="UTF-8" standalone="no"?>
<svg
   xmlns:dc="http://purl.org/dc/elements/1.1/"
   xmlns:cc="http://creativecommons.org/ns#"
   xmlns:rdf="http://www.w3.org/1999/02/22-rdf-syntax-ns#"
   xmlns:svg="http://www.w3.org/2000/svg"
   xmlns="http://www.w3.org/2000/svg"
   viewBox="0 0 2714.6667 769.33331"
   height="769.33331"
   width="2714.6667"
   xml:space="preserve"
   id="svg2"
   version="1.1"><metadata
     id="metadata8"><rdf:RDF><cc:Work
         rdf:about=""><dc:format>image/svg+xml</dc:format><dc:type
           rdf:resource="http://purl.org/dc/dcmitype/StillImage" /></cc:Work></rdf:RDF></metadata><defs
     id="defs6"><clipPath
       id="clipPath20"
       clipPathUnits="userSpaceOnUse"><path
         id="path18"
         d="m 14352.4,2942.52 c -148.6,0 -279.1,-66.53 -371.8,-168.48 C 11923.8,2723.86 962.695,2435.99 962.695,2435.99 c 0,0 10961.105,-287.9 13017.905,-338.1 92.7,-101.96 223.2,-168.48 371.8,-168.48 279.7,0 506.5,226.79 506.5,506.55 0,279.76 -226.8,506.56 -506.5,506.56 z" /></clipPath><linearGradient
       id="linearGradient28"
       spreadMethod="pad"
       gradientTransform="matrix(13896.2,0,0,-13896.2,962.696,2435.96)"
       gradientUnits="userSpaceOnUse"
       y2="0"
       x2="1"
       y1="0"
       x1="0"><stop
         id="stop22"
         offset="0"
         style="stop-opacity:1;stop-color:#cce310" /><stop
         id="stop24"
         offset="0.223157"
         style="stop-opacity:1;stop-color:#cce310" /><stop
         id="stop26"
         offset="1"
         style="stop-opacity:1;stop-color:#00adef" /></linearGradient></defs><g
     transform="matrix(1.3333333,0,0,-1.3333333,0,769.33333)"
     id="g10"><g
       transform="scale(0.1)"
       id="g12"><g
         id="g14"><g
           clip-path="url(#clipPath20)"
           id="g16"><path
             id="path30"
             style="fill:url(#linearGradient28);fill-opacity:1;fill-rule:nonzero;stroke:none"
             d="m 14352.4,2942.52 c -148.6,0 -279.1,-66.53 -371.8,-168.48 C 11923.8,2723.86 962.695,2435.99 962.695,2435.99 c 0,0 10961.105,-287.9 13017.905,-338.1 92.7,-101.96 223.2,-168.48 371.8,-168.48 279.7,0 506.5,226.79 506.5,506.55 0,279.76 -226.8,506.56 -506.5,506.56" /></g></g><path
         id="path32"
         style="fill:#3957af;fill-opacity:1;fill-rule:nonzero;stroke:none"
         d="m 15060.8,2433.59 c 0,419.68 -293,727.13 -698,727.13 -405.1,0 -702.8,-307.45 -702.8,-727.13 0,-410.04 297.7,-722.23 702.8,-722.23 405,0 698,312.19 698,722.23 z m 517.2,0 c 0,-683.4 -522.1,-1200.61 -1215.2,-1200.61 -697.9,0 -1220.1,517.21 -1220.1,1200.61 0,692.89 522.2,1205.36 1220.1,1205.36 693.1,0 1215.2,-512.47 1215.2,-1205.36" /><path
         id="path34"
         style="fill:#3957af;fill-opacity:1;fill-rule:nonzero;stroke:none"
         d="M 3999.6,4044.12 H 2994.22 V 3077.87 H 3999.6 c 361.12,0 585.71,175.52 585.71,483.13 0,307.45 -224.59,483.12 -585.71,483.12 z m 19.57,-1459.15 H 2994.22 V 1296.44 h -536.78 v 3240.58 h 1561.73 c 761.22,0 1102.92,-448.87 1102.92,-976.02 0,-527.16 -341.7,-976.03 -1102.92,-976.03" /><path
         id="path36"
         style="fill:#3957af;fill-opacity:1;fill-rule:nonzero;stroke:none"
         d="m 5552.01,2667.83 h 1254.13 c -48.78,302.57 -283,507.59 -610.02,507.59 -331.76,0 -600.23,-205.02 -644.11,-507.59 z m 1205.35,-707.55 h 561.25 C 7152.73,1511.1 6718.38,1233 6220.58,1233 c -697.93,0 -1215.29,507.58 -1215.29,1205.5 0,683.25 492.9,1200.47 1190.83,1200.47 678.36,0 1156.74,-517.22 1156.74,-1180.9 0,-68.49 0,-136.68 -9.79,-205.17 H 5542.22 c 58.56,-321.98 336.66,-541.52 678.36,-541.52 229.33,0 424.57,77.97 536.78,248.9" /><path
         id="path38"
         style="fill:#3957af;fill-opacity:1;fill-rule:nonzero;stroke:none"
         d="m 8109.75,3575.67 v -278.25 c 112.21,166.03 361.11,297.67 697.92,297.67 h 209.76 v -492.91 h -209.76 c -444.13,0 -697.92,-282.99 -697.92,-702.81 V 1296.44 h -517.37 v 2279.23 h 517.37" /><path
         id="path40"
         style="fill:#3957af;fill-opacity:1;fill-rule:nonzero;stroke:none"
         d="m 12283.1,4146.55 v -570.88 h 712.5 v -453.92 h -712.5 V 2092.06 c 0,-219.69 112.3,-341.85 346.5,-341.85 h 366 v -453.77 h -370.9 c -571,0 -858.9,278.26 -858.9,707.56 v 1117.75 h -419.7 v 453.92 h 419.7 v 570.88 h 517.3" /><g
         transform="scale(1.10814)"
         id="g42"><path
           id="path44"
           style="fill:#3957af;fill-opacity:1;fill-rule:nonzero;stroke:none"
           d="M 16300,2394.24 V 1169.92 h -466.9 V 2328.3 c 0,317.04 -171.7,523.99 -515.3,523.99 -303.8,0 -581.2,-233.44 -581.2,-625.4 V 1169.92 h -466.9 v 2056.81 h 466.9 V 3037.3 c 123.3,145.28 361,246.55 656.1,246.55 550.5,0 907.3,-352.23 907.3,-889.61" /></g><path
         id="path46"
         style="fill:#3957af;fill-opacity:1;fill-rule:nonzero;stroke:none"
         d="m 10760.2,2194.5 c 0,-327.03 -292.7,-522.26 -683.2,-522.26 -297.68,0 -478.24,122 -478.24,327.02 0,219.55 195.23,317.24 517.34,317.24 h 644.1 z m -614.9,1400.44 h -847.37 l 6.52,-489.24 h 850.65 c 331.9,0 605.1,-62.07 605.1,-374.42 H 10121 c -532.03,0 -1039.61,-170.77 -1039.61,-732.02 0,-502.69 366.01,-766.26 912.73,-766.26 321.98,0 595.38,92.8 766.08,273.2 v -209.76 h 517.4 v 1434.84 c 0,580.82 -458.8,853.87 -1132.3,863.66" /></g></g></svg>