<svg width="366" height="263" viewBox="0 0 366 263" fill="none" xmlns="http://www.w3.org/2000/svg">
<g filter="url(#filter0_i_0_1)">
<path d="M102.039 99.9938C123.063 84.3169 144.244 94.7561 152.206 101.935C158.492 106.207 156.364 112.559 154.515 115.202C147.91 136.838 127.496 143.133 118.114 143.576C122.858 136.509 130.11 125.755 133.773 120.465C127.503 125.998 110.446 124.36 102.074 122.689C107.154 118.568 125.102 110.174 133.441 106.492L102.039 99.9938Z" fill="#8B332A"/>
</g>
<g filter="url(#filter1_i_0_1)">
<path d="M272.318 55.5452C251.656 39.3949 256.145 16.212 260.973 6.63937C263.438 -0.549699 270.127 -0.170751 273.163 0.917357C295.775 1.58856 307.226 19.6227 310.124 28.5559C302.057 25.842 289.773 21.6792 283.704 19.5393C290.694 24.1298 293.608 41.0157 294.202 49.5325C288.888 45.7181 276.062 30.6153 270.313 23.5407L272.318 55.5452Z" fill="#8B332A"/>
</g>
<g filter="url(#filter2_i_0_1)">
<path d="M316.305 111.484C310.731 85.8582 328.998 70.8941 338.828 66.6153C345.317 62.6599 350.22 67.2254 351.861 70.0026C368.826 84.9673 366.111 106.156 362.633 114.88C358.161 107.638 351.372 96.5866 348.071 91.0628C350.515 99.0605 341.967 113.912 336.981 120.842C335.331 114.512 335.115 94.6995 335.213 85.5842L316.305 111.484Z" fill="#8B332A"/>
</g>
<g filter="url(#filter3_i_0_1)">
<path d="M263.005 150.927C281.352 132.188 303.893 139.227 312.869 145.089C319.74 148.337 318.62 154.943 317.201 157.84C314.02 180.237 294.825 189.612 285.625 191.5C289.219 183.784 294.721 172.039 297.523 166.246C292.183 172.682 275.078 173.701 266.548 173.344C270.93 168.487 287.365 157.419 295.034 152.493L263.005 150.927Z" fill="#8B332A"/>
</g>
<g filter="url(#filter4_i_0_1)">
<path d="M199.587 121.8C225.088 127.923 230.621 150.879 230.2 161.592C230.94 169.155 224.697 171.586 221.483 171.856C200.63 180.626 182.729 168.968 176.386 162.043C184.852 161.165 197.756 159.856 204.165 159.285C195.901 158.009 186.244 143.854 182.17 136.351C188.588 137.617 206.524 146.037 214.69 150.089L199.587 121.8Z" fill="#8B332A"/>
</g>
<g filter="url(#filter5_i_0_1)">
<path d="M0.735248 153.883C4.61401 127.947 27.0013 120.436 37.7101 119.922C45.1805 118.526 48.1452 124.534 48.6938 127.713C59.2469 147.722 49.1918 166.57 42.8451 173.493C41.2336 165.136 38.806 152.394 37.6793 146.059C37.1271 154.403 23.8667 165.256 16.747 169.968C17.4492 163.464 24.2757 144.863 27.6012 136.375L0.735248 153.883Z" fill="#8B332A"/>
</g>
<g filter="url(#filter6_i_0_1)">
<path d="M27.6895 261.686C12.8465 240.066 24.1056 219.309 31.5905 211.633C36.1044 205.519 42.3691 207.894 44.9373 209.845C66.2987 217.291 71.7907 237.935 71.8665 247.327C64.9902 242.311 54.5284 234.644 49.3851 230.776C54.6695 237.258 52.3661 254.238 50.369 262.538C46.4491 257.301 38.7633 239.039 35.4104 230.562L27.6895 261.686Z" fill="#8B332A"/>
</g>
<defs>
<filter id="filter0_i_0_1" x="102.04" y="91.8235" width="54.3721" height="59.7522" filterUnits="userSpaceOnUse" color-interpolation-filters="sRGB">
<feFlood flood-opacity="0" result="BackgroundImageFix"/>
<feBlend mode="normal" in="SourceGraphic" in2="BackgroundImageFix" result="shape"/>
<feColorMatrix in="SourceAlpha" type="matrix" values="0 0 0 0 0 0 0 0 0 0 0 0 0 0 0 0 0 0 127 0" result="hardAlpha"/>
<feOffset dy="8"/>
<feGaussianBlur stdDeviation="5.05"/>
<feComposite in2="hardAlpha" operator="arithmetic" k2="-1" k3="1"/>
<feColorMatrix type="matrix" values="0 0 0 0 0 0 0 0 0 0 0 0 0 0 0 0 0 0 0.25 0"/>
<feBlend mode="normal" in2="shape" result="effect1_innerShadow_0_1"/>
</filter>
<filter id="filter1_i_0_1" x="256.906" y="0.314209" width="53.2188" height="63.231" filterUnits="userSpaceOnUse" color-interpolation-filters="sRGB">
<feFlood flood-opacity="0" result="BackgroundImageFix"/>
<feBlend mode="normal" in="SourceGraphic" in2="BackgroundImageFix" result="shape"/>
<feColorMatrix in="SourceAlpha" type="matrix" values="0 0 0 0 0 0 0 0 0 0 0 0 0 0 0 0 0 0 127 0" result="hardAlpha"/>
<feOffset dy="8"/>
<feGaussianBlur stdDeviation="5.05"/>
<feComposite in2="hardAlpha" operator="arithmetic" k2="-1" k3="1"/>
<feColorMatrix type="matrix" values="0 0 0 0 0 0 0 0 0 0 0 0 0 0 0 0 0 0 0.25 0"/>
<feBlend mode="normal" in2="shape" result="effect1_innerShadow_0_1"/>
</filter>
<filter id="filter2_i_0_1" x="315.269" y="65.0706" width="49.9634" height="63.7717" filterUnits="userSpaceOnUse" color-interpolation-filters="sRGB">
<feFlood flood-opacity="0" result="BackgroundImageFix"/>
<feBlend mode="normal" in="SourceGraphic" in2="BackgroundImageFix" result="shape"/>
<feColorMatrix in="SourceAlpha" type="matrix" values="0 0 0 0 0 0 0 0 0 0 0 0 0 0 0 0 0 0 127 0" result="hardAlpha"/>
<feOffset dy="8"/>
<feGaussianBlur stdDeviation="5.05"/>
<feComposite in2="hardAlpha" operator="arithmetic" k2="-1" k3="1"/>
<feColorMatrix type="matrix" values="0 0 0 0 0 0 0 0 0 0 0 0 0 0 0 0 0 0 0.25 0"/>
<feBlend mode="normal" in2="shape" result="effect1_innerShadow_0_1"/>
</filter>
<filter id="filter3_i_0_1" x="263.005" y="138.778" width="55.2632" height="60.7222" filterUnits="userSpaceOnUse" color-interpolation-filters="sRGB">
<feFlood flood-opacity="0" result="BackgroundImageFix"/>
<feBlend mode="normal" in="SourceGraphic" in2="BackgroundImageFix" result="shape"/>
<feColorMatrix in="SourceAlpha" type="matrix" values="0 0 0 0 0 0 0 0 0 0 0 0 0 0 0 0 0 0 127 0" result="hardAlpha"/>
<feOffset dy="8"/>
<feGaussianBlur stdDeviation="5.05"/>
<feComposite in2="hardAlpha" operator="arithmetic" k2="-1" k3="1"/>
<feColorMatrix type="matrix" values="0 0 0 0 0 0 0 0 0 0 0 0 0 0 0 0 0 0 0.25 0"/>
<feBlend mode="normal" in2="shape" result="effect1_innerShadow_0_1"/>
</filter>
<filter id="filter4_i_0_1" x="176.386" y="121.8" width="53.8745" height="61.1968" filterUnits="userSpaceOnUse" color-interpolation-filters="sRGB">
<feFlood flood-opacity="0" result="BackgroundImageFix"/>
<feBlend mode="normal" in="SourceGraphic" in2="BackgroundImageFix" result="shape"/>
<feColorMatrix in="SourceAlpha" type="matrix" values="0 0 0 0 0 0 0 0 0 0 0 0 0 0 0 0 0 0 127 0" result="hardAlpha"/>
<feOffset dy="8"/>
<feGaussianBlur stdDeviation="5.05"/>
<feComposite in2="hardAlpha" operator="arithmetic" k2="-1" k3="1"/>
<feColorMatrix type="matrix" values="0 0 0 0 0 0 0 0 0 0 0 0 0 0 0 0 0 0 0.25 0"/>
<feBlend mode="normal" in2="shape" result="effect1_innerShadow_0_1"/>
</filter>
<filter id="filter5_i_0_1" x="0.735352" y="119.715" width="52.5566" height="61.7776" filterUnits="userSpaceOnUse" color-interpolation-filters="sRGB">
<feFlood flood-opacity="0" result="BackgroundImageFix"/>
<feBlend mode="normal" in="SourceGraphic" in2="BackgroundImageFix" result="shape"/>
<feColorMatrix in="SourceAlpha" type="matrix" values="0 0 0 0 0 0 0 0 0 0 0 0 0 0 0 0 0 0 127 0" result="hardAlpha"/>
<feOffset dy="8"/>
<feGaussianBlur stdDeviation="5.05"/>
<feComposite in2="hardAlpha" operator="arithmetic" k2="-1" k3="1"/>
<feColorMatrix type="matrix" values="0 0 0 0 0 0 0 0 0 0 0 0 0 0 0 0 0 0 0.25 0"/>
<feBlend mode="normal" in2="shape" result="effect1_innerShadow_0_1"/>
</filter>
<filter id="filter6_i_0_1" x="20.4131" y="207.711" width="51.4536" height="62.8279" filterUnits="userSpaceOnUse" color-interpolation-filters="sRGB">
<feFlood flood-opacity="0" result="BackgroundImageFix"/>
<feBlend mode="normal" in="SourceGraphic" in2="BackgroundImageFix" result="shape"/>
<feColorMatrix in="SourceAlpha" type="matrix" values="0 0 0 0 0 0 0 0 0 0 0 0 0 0 0 0 0 0 127 0" result="hardAlpha"/>
<feOffset dy="8"/>
<feGaussianBlur stdDeviation="5.05"/>
<feComposite in2="hardAlpha" operator="arithmetic" k2="-1" k3="1"/>
<feColorMatrix type="matrix" values="0 0 0 0 0 0 0 0 0 0 0 0 0 0 0 0 0 0 0.25 0"/>
<feBlend mode="normal" in2="shape" result="effect1_innerShadow_0_1"/>
</filter>
</defs>
</svg>
