<svg width="102" height="103" viewBox="0 0 102 103" fill="none" xmlns="http://www.w3.org/2000/svg">
<ellipse cx="16.8966" cy="16.0337" rx="16.8966" ry="16.0337" transform="matrix(-0.964502 -0.264076 -0.255008 0.966939 65.2828 65.8442)" fill="url(#paint0_radial_657_1049)"/>
<path d="M47.9858 69.6999C47.911 68.6487 46.5549 68.2774 45.973 69.1488L43.955 72.1711C43.6939 72.5621 43.2131 72.7411 42.7584 72.6166L39.1969 71.6415C38.1529 71.3556 37.3774 72.5913 38.0803 73.4206L40.3565 76.1068C40.6775 76.4856 40.7102 77.0307 40.4365 77.4406L38.5126 80.3219C37.9238 81.2038 38.8018 82.3388 39.8001 81.9863L43.3495 80.7333C43.7793 80.5815 44.2599 80.7131 44.5572 81.0639L47.0121 83.9609C47.7026 84.7758 49.0207 84.2421 48.945 83.1783L48.6976 79.7024C48.6625 79.208 48.9588 78.753 49.4229 78.5892L52.7141 77.4273C53.7302 77.0686 53.667 75.6033 52.6231 75.3175L49.0616 74.3424C48.6069 74.2179 48.2788 73.8174 48.2453 73.3458L47.9858 69.6999Z" fill="#FFF7EB"/>
<ellipse cx="10.4788" cy="10.1554" rx="10.4788" ry="10.1554" transform="matrix(-0.995193 0.097932 0.140657 0.990058 86.9752 45.8989)" fill="url(#paint1_radial_657_1049)"/>
<path d="M78.0087 52.0739C77.7106 51.4723 76.826 51.5594 76.7047 52.2022L76.2876 54.4127C76.2333 54.7007 75.9975 54.9144 75.702 54.9435L73.4156 55.1685C72.7442 55.2346 72.5928 56.1204 73.1963 56.4509L75.189 57.542C75.4623 57.6917 75.6113 57.9973 75.5554 58.2936L75.15 60.4424C75.0278 61.0897 75.8191 61.55 76.3082 61.1161L78.0156 59.6013C78.2294 59.4116 78.5463 59.3805 78.8074 59.5234L80.8922 60.665C81.4893 60.992 82.1298 60.3909 81.8297 59.7851L80.8333 57.7743C80.6959 57.497 80.7551 57.1709 80.979 56.9723L82.6109 55.5245C83.1052 55.0859 82.7097 54.2539 82.0384 54.32L79.7519 54.545C79.4564 54.5741 79.1672 54.412 79.0337 54.1425L78.0087 52.0739Z" fill="#FFF7EB"/>
<ellipse cx="26.0196" cy="25.2166" rx="26.0196" ry="25.2166" transform="matrix(-0.995193 0.097932 0.140657 0.990058 68.9261 12.6357)" fill="url(#paint2_radial_657_1049)"/>
<path d="M46.6611 27.97C45.9209 26.4764 43.7245 26.6925 43.4233 28.2886L42.3877 33.7776C42.2527 34.4928 41.6672 35.0234 40.9334 35.0956L35.256 35.6543C33.5891 35.8183 33.213 38.0179 34.7117 38.8385L39.6595 41.5479C40.3383 41.9196 40.7083 42.6785 40.5694 43.4142L39.5627 48.7499C39.2595 50.3571 41.2243 51.5 42.4386 50.4227L46.6783 46.6613C47.2092 46.1903 47.996 46.1129 48.6443 46.4679L53.821 49.3026C55.3037 50.1145 56.8942 48.6218 56.1489 47.1177L53.6747 42.1246C53.3336 41.4361 53.4807 40.6263 54.0366 40.1332L58.0888 36.5381C59.3161 35.4492 58.3341 33.3833 56.6671 33.5473L50.9898 34.106C50.2559 34.1782 49.5379 33.7759 49.2063 33.1066L46.6611 27.97Z" fill="#FFF7EB"/>
<defs>
<radialGradient id="paint0_radial_657_1049" cx="0" cy="0" r="1" gradientUnits="userSpaceOnUse" gradientTransform="translate(16.8966 16.0337) rotate(90) scale(16.0337 16.8966)">
<stop stop-color="#FFF6E8"/>
<stop offset="1" stop-color="#FFF6E8" stop-opacity="0"/>
</radialGradient>
<radialGradient id="paint1_radial_657_1049" cx="0" cy="0" r="1" gradientUnits="userSpaceOnUse" gradientTransform="translate(10.4788 10.1554) rotate(90) scale(10.1554 10.4788)">
<stop stop-color="#FFF6E8"/>
<stop offset="1" stop-color="#FFF6E8" stop-opacity="0"/>
</radialGradient>
<radialGradient id="paint2_radial_657_1049" cx="0" cy="0" r="1" gradientUnits="userSpaceOnUse" gradientTransform="translate(26.0196 25.2166) rotate(90) scale(25.2166 26.0196)">
<stop stop-color="#FFF6E8"/>
<stop offset="1" stop-color="#FFF6E8" stop-opacity="0"/>
</radialGradient>
</defs>
</svg>
