<svg width="39" height="39" viewBox="0 0 39 39" fill="none" xmlns="http://www.w3.org/2000/svg">
<path d="M33.5998 12.6675V19.1219C30.6975 18.834 27.9301 17.7541 25.5998 16.0003V23.2003C25.5994 25.1541 25.0486 27.0683 24.0105 28.7235C22.9725 30.3787 21.4891 31.7081 19.7305 32.5592C17.9718 33.4104 16.0089 33.7489 14.0668 33.5361C12.1246 33.3232 10.2817 32.5676 8.74909 31.3557C7.21654 30.1438 6.05635 28.5248 5.40145 26.684C4.74655 24.8432 4.62343 22.8552 5.04619 20.9476C5.46895 19.0401 6.42049 17.2903 7.79181 15.8986C9.16312 14.5068 10.8987 13.5296 12.7998 13.0787V20.0003C12.2543 20.4094 11.8225 20.9511 11.5453 21.5741C11.2681 22.197 11.1547 22.8804 11.216 23.5595C11.2772 24.2386 11.511 24.8907 11.8952 25.454C12.2793 26.0173 12.8011 26.4731 13.411 26.778C14.0208 27.0829 14.6985 27.2269 15.3796 27.1962C16.0607 27.1656 16.7227 26.9614 17.3027 26.6029C17.8827 26.2444 18.3615 25.7437 18.6935 25.1481C19.0255 24.5526 19.1998 23.8821 19.1998 23.2003V4.80029H25.7326C26.0658 6.76574 27.002 8.57889 28.4116 9.98849C29.8212 11.3981 31.6344 12.3343 33.5998 12.6675Z" stroke="#D5D8DC" stroke-width="3.2" stroke-linecap="round" stroke-linejoin="round"/>
</svg>
