<svg width="39" height="39" viewBox="0 0 39 39" fill="none" xmlns="http://www.w3.org/2000/svg">
<path d="M26.3999 12.0004V12.0164M6.3999 12.8004C6.3999 11.103 7.07419 9.47514 8.27442 8.27491C9.47465 7.07467 11.1025 6.40039 12.7999 6.40039H25.5999C27.2973 6.40039 28.9252 7.07467 30.1254 8.27491C31.3256 9.47514 31.9999 11.103 31.9999 12.8004V25.6004C31.9999 27.2978 31.3256 28.9256 30.1254 30.1259C28.9252 31.3261 27.2973 32.0004 25.5999 32.0004H12.7999C11.1025 32.0004 9.47465 31.3261 8.27442 30.1259C7.07419 28.9256 6.3999 27.2978 6.3999 25.6004V12.8004ZM14.3999 19.2004C14.3999 20.4734 14.9056 21.6943 15.8058 22.5945C16.706 23.4947 17.9269 24.0004 19.1999 24.0004C20.4729 24.0004 21.6938 23.4947 22.594 22.5945C23.4942 21.6943 23.9999 20.4734 23.9999 19.2004C23.9999 17.9274 23.4942 16.7065 22.594 15.8063C21.6938 14.9061 20.4729 14.4004 19.1999 14.4004C17.9269 14.4004 16.706 14.9061 15.8058 15.8063C14.9056 16.7065 14.3999 17.9274 14.3999 19.2004Z" stroke="#D5D8DC" stroke-width="3.2" stroke-linecap="round" stroke-linejoin="round"/>
</svg>
