<svg width="317" height="76" viewBox="0 0 317 76" fill="none" xmlns="http://www.w3.org/2000/svg">
<g filter="url(#filter0_dd_244_291)">
<path d="M50.2316 5.18L54.7316 12.11L44.6516 22.55L37.1816 21.83L37.3616 26.06L32.9516 30.47L37.5416 31.1L38.5316 55.49L32.3216 67.73H23.6816L18.4616 59L18.8216 50V48.74C19.0016 48.56 19.2116 48.38 19.4516 48.2C19.6916 47.96 19.9616 47.72 20.2616 47.48C20.5616 47.24 20.7716 47.06 20.8916 46.94C21.0716 46.76 21.2516 46.61 21.4316 46.49C21.6116 46.31 21.7316 46.19 21.7916 46.13C21.8516 46.07 21.8816 45.98 21.8816 45.86C21.9416 45.74 21.9416 45.65 21.8816 45.59C21.8216 45.47 21.7316 45.35 21.6116 45.23C21.4916 45.05 21.1916 44.81 20.7116 44.51C20.2916 44.15 19.9616 43.82 19.7216 43.52C19.4816 43.16 19.3916 42.77 19.4516 42.35C19.5116 41.93 19.5416 41.42 19.5416 40.82C19.6016 40.16 19.6316 39.62 19.6316 39.2C19.6916 38.78 19.7816 38.51 19.9016 38.39C19.9016 38.39 19.9616 38.33 20.0816 38.21C20.2016 38.09 20.2916 38 20.3516 37.94C20.4116 37.88 20.4416 37.79 20.4416 37.67C20.5016 37.49 20.4716 37.31 20.3516 37.13C20.2316 36.95 20.0816 36.74 19.9016 36.5C19.7216 36.32 19.5116 36.11 19.2716 35.87L19.8116 21.38L9.55156 21.83L1.27156 16.43L3.25156 11.03L10.3616 9.77L4.15156 8.69L5.41156 5.18H50.2316ZM99.8518 54.41L102.282 57.38L99.8518 68L84.9118 65.3L80.1418 56.57L80.5918 55.76L80.0518 54.5C79.6918 54.5 79.4818 54.17 79.4218 53.51C79.4218 53.27 79.4218 53.03 79.4218 52.79C79.4818 52.49 79.5118 52.31 79.5118 52.25C79.5118 52.13 79.4818 52.01 79.4218 51.89L78.6118 51.08L77.7118 50.54C77.7118 50.54 77.5918 50.48 77.3518 50.36C77.2318 50.24 77.1418 50.06 77.0818 49.82C77.0818 49.7 77.0818 49.55 77.0818 49.37C77.1418 49.19 77.1718 49.07 77.1718 49.01C77.1718 48.95 77.2018 48.86 77.2618 48.74C77.3818 48.5 77.3218 48.38 77.0818 48.38C76.7818 48.44 76.3918 48.65 75.9118 49.01L74.0218 45.68L73.8418 53.6L70.6918 67.64H60.9718L54.8518 61.61L55.3018 53.51C55.5418 53.33 55.8118 53.15 56.1118 52.97C56.4718 52.79 56.8018 52.73 57.1018 52.79C57.4618 52.85 57.6718 52.97 57.7318 53.15C57.7918 53.27 57.8518 53.27 57.9118 53.15C57.9718 52.97 57.9118 52.58 57.7318 51.98L57.0118 48.83V47.66C57.0118 47.6 57.0418 47.54 57.1018 47.48C57.2218 47.36 57.3418 47.24 57.4618 47.12C57.5818 47 57.6718 46.85 57.7318 46.67C57.8518 46.49 57.9118 46.31 57.9118 46.13C57.9718 45.89 57.9718 45.65 57.9118 45.41C57.7918 44.99 57.6118 44.6 57.3718 44.24C57.1918 43.82 57.0718 43.49 57.0118 43.25C56.4718 41.39 56.1718 40.43 56.1118 40.37L56.9218 26.96L60.2518 25.7C59.1718 24.74 58.1518 23.78 57.1918 22.82L57.9118 10.49L68.4418 4.91L93.5518 6.62L96.5218 9.68L89.7718 13.91L98.4118 11.57L102.192 15.44L97.0618 34.52L89.7718 41.99L98.1418 52.25L89.6818 49.82L99.8518 54.41ZM82.5718 32.54L87.6118 22.55L81.6718 18.41L74.0218 17.42L73.5718 30.11L82.5718 32.54ZM156.806 48.47L159.956 58.01L152.036 67.37L139.526 65.39L136.736 56.21L121.886 56.93L121.076 59.45L117.026 60.08L120.446 61.43L118.916 66.2L105.056 68L103.076 50.54L113.516 25.25L119.006 24.44L115.406 20.66L121.886 4.91L137.366 8.51L139.256 12.74L140.246 9.14L143.846 9.95L150.686 30.2L150.776 30.65L152.036 34.25L153.206 37.85L155.456 44.6L152.576 44.24L156.806 48.47ZM122.696 40.91L134.486 39.83L128.276 22.73L122.696 40.91ZM182.08 47.75L194.23 44.24L214.48 53.69L205.75 61.07L203.77 62.69L197.47 68L192.7 67.64L190.99 64.85L190.81 67.46L186.94 67.19V60.98L184.42 67.01L176.86 66.38L163.72 58.1L158.68 33.62C159.52 32.84 159.94 32.24 159.94 31.82C159.94 31.64 159.82 31.19 159.58 30.47C159.34 29.75 159.19 29.15 159.13 28.67C159.13 28.07 158.53 27.44 157.33 26.78L156.25 21.56L170.02 7.61L182.98 6.44C183.64 6.98 184.48 7.25 185.5 7.25C185.98 7.25 186.52 7.19 187.12 7.07C187.78 6.95 188.32 6.83 188.74 6.71C189.16 6.59 189.58 6.5 190 6.44C190.42 6.38 190.66 6.41 190.72 6.53C190.78 6.59 190.84 6.62 190.9 6.62C190.96 6.62 191.02 6.59 191.08 6.53C191.2 6.41 191.29 6.29 191.35 6.17C191.47 5.99 191.59 5.81 191.71 5.63L199.81 4.91L217.54 23L199.27 32.18L194.5 23.81L183.07 25.88L176.05 32.18L179.38 40.82L174.52 42.62L180.46 43.61L182.08 47.75ZM267.378 15.71V19.13L248.748 34.34L252.618 39.11C252.978 40.07 253.158 40.61 253.158 40.73C253.098 41.03 253.068 41.36 253.068 41.72C253.068 42.02 253.068 42.38 253.068 42.8C253.128 43.22 253.158 43.55 253.158 43.79C253.158 44.15 253.218 44.36 253.338 44.42C253.458 44.48 253.638 44.51 253.878 44.51C254.118 44.45 254.328 44.42 254.508 44.42C254.748 44.54 254.958 44.75 255.138 45.05C255.378 45.29 255.528 45.41 255.588 45.41C255.648 45.47 255.768 45.62 255.948 45.86C256.128 46.1 256.368 46.43 256.668 46.85C256.968 47.21 257.238 47.54 257.478 47.84C257.718 48.14 257.898 48.32 258.018 48.38C258.138 48.44 258.258 48.47 258.378 48.47C258.498 48.41 258.678 48.35 258.918 48.29C259.218 48.23 259.638 48.23 260.178 48.29L267.378 57.11L264.948 67.73L250.008 65.03L240.378 51.89V67.73H227.508L223.008 58.19C223.308 57.83 223.638 57.47 223.998 57.11C224.358 56.69 224.718 56.27 225.078 55.85C225.438 55.43 225.768 55.04 226.068 54.68C226.428 54.26 226.728 53.9 226.968 53.6C227.268 53.24 227.508 52.94 227.688 52.7C227.928 52.4 228.108 52.16 228.228 51.98L228.408 51.8L221.388 54.77L217.968 47.48L218.868 38.21L223.548 37.04L219.138 35.87L221.478 12.02L228.768 5.18L240.378 10.85V22.01L255.498 6.17L267.378 8.33V13.64L259.548 16.61L267.378 15.71ZM309.983 59.18L310.343 61.25L309.083 65.39L277.223 68L274.163 63.14L278.753 60.98C276.533 61.1 274.613 61.22 272.993 61.34L268.313 53.96L276.953 45.5L295.133 50.9L295.313 46.94L279.743 40.64L268.493 23.81L270.923 19.67C271.043 19.67 271.253 19.61 271.553 19.49C271.853 19.37 272.093 19.28 272.273 19.22C272.693 19.04 272.933 18.95 272.993 18.95C273.113 18.89 273.203 18.77 273.263 18.59C273.383 18.35 273.503 18.14 273.623 17.96C273.863 17.48 273.893 17.27 273.713 17.33C274.373 16.97 274.673 16.61 274.613 16.25C274.553 16.01 274.613 15.68 274.793 15.26C275.033 14.78 275.153 14.48 275.153 14.36C275.153 14.24 275.213 14.12 275.333 14C275.513 13.88 275.693 13.79 275.873 13.73L276.143 13.64L277.043 12.74C277.043 12.2 276.833 11.54 276.413 10.76C276.353 10.7 276.323 10.64 276.323 10.58L279.653 4.91L307.553 6.26L309.623 9.14L302.603 10.22L311.513 11.75L315.653 17.6C310.493 21.74 307.733 23.81 307.373 23.81L285.953 18.59L287.033 25.7L293.693 28.31L297.653 33.17L298.193 30.02L310.883 34.97L316.283 42.17L313.403 51.35L312.323 51.71L311.603 53.33L311.423 55.04L310.433 56.21C310.073 56.93 309.923 57.53 309.983 58.01V58.19C309.923 58.07 309.893 58.07 309.893 58.19L309.983 59.18Z" fill="#FFD978"/>
</g>
<defs>
<filter id="filter0_dd_244_291" x="0.271484" y="0.909973" width="316.011" height="75.09" filterUnits="userSpaceOnUse" color-interpolation-filters="sRGB">
<feFlood flood-opacity="0" result="BackgroundImageFix"/>
<feColorMatrix in="SourceAlpha" type="matrix" values="0 0 0 0 0 0 0 0 0 0 0 0 0 0 0 0 0 0 127 0" result="hardAlpha"/>
<feOffset dy="8"/>
<feComposite in2="hardAlpha" operator="out"/>
<feColorMatrix type="matrix" values="0 0 0 0 0.444401 0 0 0 0 0.286351 0 0 0 0 0.0320955 0 0 0 1 0"/>
<feBlend mode="normal" in2="BackgroundImageFix" result="effect1_dropShadow_244_291"/>
<feColorMatrix in="SourceAlpha" type="matrix" values="0 0 0 0 0 0 0 0 0 0 0 0 0 0 0 0 0 0 127 0" result="hardAlpha"/>
<feOffset dx="-1" dy="-4"/>
<feComposite in2="hardAlpha" operator="out"/>
<feColorMatrix type="matrix" values="0 0 0 0 1 0 0 0 0 0.941613 0 0 0 0 0.772222 0 0 0 1 0"/>
<feBlend mode="normal" in2="effect1_dropShadow_244_291" result="effect2_dropShadow_244_291"/>
<feBlend mode="normal" in="SourceGraphic" in2="effect2_dropShadow_244_291" result="shape"/>
</filter>
</defs>
</svg>
