<svg width="450" height="103" viewBox="0 0 450 103" fill="none" xmlns="http://www.w3.org/2000/svg">
<g filter="url(#filter0_dd_211_485)">
<path d="M71.596 4.784L77.868 14.512L63.532 29.488L52.908 28.464L53.164 34.48L47.02 40.624L53.548 41.52L54.956 76.336L45.996 93.744H33.708L26.284 81.328L26.796 68.4L26.924 66.736C27.052 66.48 27.436 66.224 27.692 65.84C30.764 63.152 31.916 62.896 30.892 61.616C29.868 60.464 27.436 59.696 27.692 57.52C27.948 55.472 27.948 52.4 28.332 52.016C28.716 51.504 29.996 50.992 28.332 49.2C28.076 48.944 27.82 48.688 27.564 48.432L28.332 27.696L13.612 28.464L1.964 20.656L4.652 13.104L14.764 11.312L5.932 9.64799L7.724 4.784H71.596ZM142.167 74.672L145.623 78.896L142.039 94.128L120.919 90.16L114.007 77.872C114.391 77.232 114.775 76.72 114.775 76.72L113.879 74.8C113.879 74.8 113.111 74.8 113.111 73.52C112.983 72.112 113.367 71.6 113.111 71.088C112.727 70.704 111.831 69.936 111.831 69.936L110.679 69.168C110.679 69.168 110.039 69.424 109.783 68.144C109.527 66.864 110.679 66.096 109.783 66.224C109.271 66.224 108.631 66.608 108.119 66.992L105.431 62.256L105.047 73.648L100.695 93.488H86.743L78.167 85.04L78.807 73.392C79.063 73.264 79.447 73.008 79.959 72.752C82.135 71.344 82.903 74.928 82.135 71.344C81.367 67.632 81.111 66.736 81.111 66.736C81.111 66.736 81.111 65.2 81.111 65.072C81.111 64.944 83.031 63.664 82.519 62C81.879 60.336 81.367 59.952 81.111 58.928C80.855 58.16 80.471 55.984 79.959 54.832L81.111 35.632L85.847 33.968C85.847 33.968 83.543 31.792 81.367 29.744L82.391 12.208L97.367 4.39999L133.207 6.83199L137.431 11.184L127.831 17.2L139.991 13.872L145.367 19.376L138.071 46.512L127.703 57.008L139.607 71.6C135.255 70.32 127.575 68.144 127.575 68.144L142.167 74.672ZM117.463 43.696L124.631 29.36L116.311 23.6L105.303 22.064L104.791 40.24L117.463 43.696ZM222.913 66.224L227.521 79.792L216.129 93.232L198.465 90.416L194.369 77.36L173.249 78.384L172.097 81.84L166.465 82.736L171.201 84.784L169.153 91.44L149.313 94.128L146.625 69.296L161.345 33.2L169.153 32.048L164.033 26.8L173.249 4.39999L195.393 9.392L197.953 15.536L199.489 10.416L204.609 11.568L214.209 40.368L214.465 40.88L216.129 46L217.921 51.248L221.121 60.848L216.897 60.336L222.913 66.224ZM174.401 55.472L191.297 54.064L182.337 29.744L174.401 55.472ZM258.986 65.2L276.394 60.336L305.194 73.648L292.65 84.144L289.962 86.576L281.002 94.128L274.218 93.616L271.658 89.648L271.402 93.36L265.898 92.976V84.016L262.314 92.592L251.562 91.824L233.002 80.048L225.834 45.232C225.834 45.232 227.498 43.44 227.498 42.544C227.498 41.648 226.602 39.984 226.474 38.192C226.346 37.168 224.938 36.144 223.786 35.504L222.378 27.952L241.962 8.112L260.266 6.448C260.906 7.088 262.186 7.6 263.978 7.6C267.05 7.6 270.634 5.808 271.274 6.70399C271.658 7.088 272.17 6.31999 272.682 5.424L284.202 4.39999L309.546 30L283.434 43.184L276.65 31.28L260.394 34.096L250.538 43.184L255.146 55.472L248.234 57.904L256.682 59.312L258.986 65.2ZM380.427 19.76V24.624L353.803 46.128L359.435 53.04C359.691 53.68 360.075 54.576 360.075 55.344C360.075 56.752 360.075 58.032 360.075 59.696C360.075 61.36 361.099 60.336 361.995 60.592C362.891 60.848 363.147 61.616 363.531 62C364.043 62.256 364.939 63.792 366.219 65.456C367.627 67.12 366.987 65.712 370.059 66.096L380.427 78.64L376.843 93.744L355.723 89.904L342.027 71.216V93.744H323.723L317.195 80.048C320.523 76.72 325.003 71.088 325.003 71.088L315.019 75.184L310.155 64.944L311.435 51.632L317.963 49.968L311.691 48.432L315.147 14.512L325.515 4.656L342.027 12.72V28.592L363.403 6.064L380.427 9.13599V16.816L369.291 20.912L380.427 19.76ZM441.02 81.584C441.404 84.4 441.404 84.4 441.404 84.4L439.612 90.288L394.428 94.128L390.076 87.216L396.476 84.144C396.476 84.144 391.868 84.272 388.284 84.528L381.756 74.16L393.916 62L419.9 69.808L420.156 64.176L398.012 55.216L381.884 31.28L385.468 25.392C385.98 25.136 386.62 24.88 387.26 24.624C389.18 23.984 388.412 24.24 389.308 22.832C389.948 21.936 389.692 21.936 389.436 21.936C389.82 21.808 390.716 21.168 390.588 20.4C390.46 19.504 391.356 18.48 391.356 17.84C391.356 17.2 392.892 16.816 392.892 16.816L394.044 15.408C394.044 15.408 394.044 14.384 393.148 12.72C393.148 12.592 393.148 12.464 393.02 12.464L397.884 4.39999L437.436 6.19199L440.508 10.288L430.396 11.952L443.068 14.128L448.956 22.32C448.956 22.32 437.948 31.28 437.18 31.28L406.716 23.856L408.38 33.968L417.724 37.552L423.484 44.464L424.252 40.112L442.3 47.152L449.852 57.264L445.884 70.448L444.348 70.96L443.324 73.264L442.94 75.696L441.66 77.36C441.02 78.512 440.892 79.024 441.02 79.92C441.148 80.816 440.508 78.64 441.02 81.584Z" fill="#FFD978"/>
</g>
<defs>
<filter id="filter0_dd_211_485" x="0.963997" y="0.400024" width="448.888" height="101.728" filterUnits="userSpaceOnUse" color-interpolation-filters="sRGB">
<feFlood flood-opacity="0" result="BackgroundImageFix"/>
<feColorMatrix in="SourceAlpha" type="matrix" values="0 0 0 0 0 0 0 0 0 0 0 0 0 0 0 0 0 0 127 0" result="hardAlpha"/>
<feOffset dy="8"/>
<feComposite in2="hardAlpha" operator="out"/>
<feColorMatrix type="matrix" values="0 0 0 0 0.444401 0 0 0 0 0.286351 0 0 0 0 0.0320955 0 0 0 1 0"/>
<feBlend mode="normal" in2="BackgroundImageFix" result="effect1_dropShadow_211_485"/>
<feColorMatrix in="SourceAlpha" type="matrix" values="0 0 0 0 0 0 0 0 0 0 0 0 0 0 0 0 0 0 127 0" result="hardAlpha"/>
<feOffset dx="-1" dy="-4"/>
<feComposite in2="hardAlpha" operator="out"/>
<feColorMatrix type="matrix" values="0 0 0 0 1 0 0 0 0 0.941613 0 0 0 0 0.772222 0 0 0 1 0"/>
<feBlend mode="normal" in2="effect1_dropShadow_211_485" result="effect2_dropShadow_211_485"/>
<feBlend mode="normal" in="SourceGraphic" in2="effect2_dropShadow_211_485" result="shape"/>
</filter>
</defs>
</svg>
