<?xml version="1.0" encoding="UTF-8"?>
<svg version="1.1" xmlns="http://www.w3.org/2000/svg" width="992" height="200">
<path d="M0 0 C80.79816176 0 80.79816176 0 93.375 11.8125 C100.57257623 19.5469922 103.53153331 28.87862683 103.2421875 39.359375 C102.41249237 48.40572831 99.64422092 55.66481261 93 62 C89.46046085 64.57724183 85.81488302 66.85455946 82 69 C82.78503906 69.36351563 83.57007812 69.72703125 84.37890625 70.1015625 C96.468206 75.88662618 103.65335507 81.87278655 108.375 94.75 C110.57795323 105.96916387 109.49794953 117.26612178 103.75 127.1875 C96.20913687 138.2429837 85.96993116 143.41482312 73.08203125 146.45703125 C49.08546706 150.68456284 24.36610589 148 0 148 C0 99.16 0 50.32 0 0 Z M27 23 C27 35.21 27 47.42 27 60 C31.2075 60.061875 35.415 60.12375 39.75 60.1875 C41.0503418 60.21481201 42.35068359 60.24212402 43.69042969 60.27026367 C54.05769221 60.34310708 64.74957192 59.72724475 72.5 52.08984375 C76.03682525 47.16223566 76.29957223 42.03043402 75.4375 36.1875 C72.65962693 30.02786841 68.51154391 27.47470742 62.57421875 24.796875 C54.93298729 22.43145585 46.91006949 22.87906395 39 22.9375 C35.04 22.958125 31.08 22.97875 27 23 Z M27 83 C27 96.53 27 110.06 27 124 C35.353125 124.0928125 35.353125 124.0928125 43.875 124.1875 C46.47930908 124.22846802 46.47930908 124.22846802 49.13623047 124.27026367 C59.52571621 124.36653667 69.61906934 124.34779343 77.59375 116.73046875 C81.87335022 111.46418292 82.62655223 105.57879844 82 99 C80.32487059 93.79828236 78.27654137 90.42123309 74 87 C67.02008812 83.53888667 59.91210347 82.84444274 52.1953125 82.90234375 C51.23129517 82.90385437 51.23129517 82.90385437 50.24780273 82.90539551 C47.8735167 82.91058199 45.49925634 82.92454284 43.125 82.9375 C35.143125 82.9684375 35.143125 82.9684375 27 83 Z " fill="#FFFFFF" transform="translate(0,3)"/>
<path d="M0 0 C2.56411801 1.87161899 4.41687174 3.89851768 6.140625 6.5625 C6.470625 2.6025 6.800625 -1.3575 7.140625 -5.4375 C15.060625 -5.4375 22.980625 -5.4375 31.140625 -5.4375 C31.23122764 8.54980554 31.30451499 22.53691409 31.34787369 36.52444744 C31.36869047 43.02039742 31.39690013 49.51613507 31.44238281 56.01196289 C31.48605119 62.28841533 31.50980649 68.56466438 31.52013397 74.8412571 C31.52748773 77.22808849 31.54184731 79.61490957 31.56354523 82.00165367 C31.73212716 101.32535235 30.41379866 117.95739207 16.140625 132.5625 C-1.03301319 145.9384452 -21.54359044 146.62104639 -42.5703125 144.2578125 C-54.73425349 142.25096702 -65.94192621 137.07461021 -74.859375 128.5625 C-70.18498751 121.30345119 -65.0868454 114.42791113 -59.859375 107.5625 C-56.63051927 109.07228902 -53.80171096 110.93215793 -50.859375 112.9375 C-40.01093429 119.80196909 -29.5163453 121.84616839 -16.859375 120.5625 C-10.93907377 119.18437762 -4.98690399 117.17562063 -0.859375 112.5625 C3.50117917 105.22431027 5.28945659 99.29682735 5.203125 90.75 C5.19410156 89.58855469 5.18507813 88.42710937 5.17578125 87.23046875 C5.16417969 86.35003906 5.15257812 85.46960938 5.140625 84.5625 C4.728125 84.94921875 4.315625 85.3359375 3.890625 85.734375 C-6.36175809 94.97982761 -17.20454024 97.25278877 -30.7890625 96.875 C-43.99166398 96.12873896 -55.73468652 89.70080388 -64.75 80.25390625 C-72.97993742 69.75311573 -76.25711218 58.01026718 -76.234375 44.875 C-76.23276367 43.90546387 -76.23115234 42.93592773 -76.22949219 41.93701172 C-76.09703777 34.15726236 -74.94758692 27.76115427 -71.859375 20.5625 C-71.44365234 19.47001953 -71.44365234 19.47001953 -71.01953125 18.35546875 C-66.40901893 7.58344228 -57.08236895 0.15740613 -46.58984375 -4.4296875 C-31.09729698 -10.46574468 -13.98049488 -8.79276408 0 0 Z M-45.859375 27.5625 C-50.43551438 34.5897114 -51.52571624 42.36600223 -50.296875 50.5625 C-48.36454383 58.8037005 -43.66244683 64.50753433 -36.88671875 69.37109375 C-29.98549979 73.42672339 -22.0131197 74.37800596 -14.171875 72.9375 C-5.65247596 70.6403049 0.68994583 65.34401529 5.17578125 57.828125 C8.41598546 50.77502933 8.28928132 42.00986163 6.37890625 34.61328125 C3.29198837 26.45064069 -1.06455288 21.46703612 -8.859375 17.5625 C-22.90253214 12.18898425 -36.19384858 16.43035805 -45.859375 27.5625 Z " fill="#FFFFFF" transform="translate(960.859375,55.4375)"/>
<path d="M0 0 C4.83806662 3.23750323 8.04067644 7.02833642 11 12 C11.40089844 11.49210937 11.80179687 10.98421875 12.21484375 10.4609375 C18.58645909 2.74564818 25.76444904 -3.19822392 36.08642578 -4.203125 C38.33296188 -4.30361867 40.56380832 -4.32917815 42.8125 -4.3125 C43.60640137 -4.30686035 44.40030273 -4.3012207 45.21826172 -4.29541016 C54.88333307 -4.09574311 63.04696928 -2.10255826 70 5 C77.62691136 15.01356389 80.1369947 26.52980549 80.11352539 38.94506836 C80.11367142 39.59957977 80.11381744 40.25409119 80.1139679 40.92843628 C80.11327801 43.06560727 80.10552946 45.20268822 80.09765625 47.33984375 C80.09578878 48.83199516 80.09436643 50.32414719 80.09336853 51.81629944 C80.08956925 55.72398604 80.07976135 59.63163486 80.06866455 63.53930664 C80.0583945 67.53466277 80.05385897 71.53002507 80.04882812 75.52539062 C80.03813651 83.35027955 80.02056096 91.17512965 80 99 C71.42 99 62.84 99 54 99 C53.97812622 96.20801147 53.97812622 96.20801147 53.95581055 93.35961914 C53.90397545 87.18084028 53.83864104 81.00231691 53.76428509 74.82376957 C53.71972942 71.08102166 53.68044175 67.3383789 53.65356445 63.59545898 C53.62738233 59.97720575 53.58687756 56.3593604 53.53681374 52.74136162 C53.52024499 51.36726427 53.50866892 49.99309653 53.50238609 48.61891365 C53.46446461 35.46241169 53.46446461 35.46241169 47.625 24.0625 C43.20379813 20.58869853 39.74079782 19.57854941 34.05078125 19.75 C27.9793268 20.49013921 23.83878746 23.41478165 20 28 C16.69081231 33.67289318 15.89038087 38.58129793 15.79467773 45.07543945 C15.77473251 46.27630692 15.75478729 47.47717438 15.73423767 48.71443176 C15.71752518 50.00105209 15.70081268 51.28767242 15.68359375 52.61328125 C15.66300365 53.95135612 15.64200665 55.28942479 15.62062073 56.62748718 C15.56561225 60.13728794 15.51611006 63.64714532 15.46777344 67.15704346 C15.41740272 70.74341826 15.36184852 74.32971256 15.30664062 77.91601562 C15.19883153 84.94394813 15.09964386 91.97192799 15 99 C6.42 99 -2.16 99 -11 99 C-11.0093457 97.01226562 -11.01869141 95.02453125 -11.02832031 92.9765625 C-11.06393556 86.38663179 -11.11778915 79.79704434 -11.18390274 73.20735168 C-11.22330176 69.21455312 -11.25552702 65.22197258 -11.27099609 61.22900391 C-11.28621313 57.37078418 -11.32074656 53.51316416 -11.36830902 49.6552124 C-11.38307116 48.18818392 -11.39103804 46.72106979 -11.39188385 45.25396729 C-11.40107269 37.30274504 -11.49549839 30.81261077 -16 24 C-19.47836371 20.63033516 -22.46726977 20.12021414 -27.1875 19.75 C-33.68494698 20.1760621 -38.98080075 21.38567084 -43.4375 26.375 C-48.21534225 32.67066507 -49.08653163 39.23306926 -49.20532227 47.00537109 C-49.22526749 48.16612152 -49.24521271 49.32687195 -49.26576233 50.52279663 C-49.28247482 51.76050812 -49.29918732 52.9982196 -49.31640625 54.2734375 C-49.33718735 55.55231842 -49.35796844 56.83119934 -49.37937927 58.14883423 C-49.4335522 61.53205204 -49.48384226 64.91528165 -49.53222656 68.29858398 C-49.58265931 71.75770135 -49.6381819 75.21673685 -49.69335938 78.67578125 C-49.80105518 85.45045717 -49.90030795 92.22518267 -50 99 C-58.58 99 -67.16 99 -76 99 C-76 65.67 -76 32.34 -76 -2 C-67.75 -2 -59.5 -2 -51 -2 C-50.67 1.96 -50.34 5.92 -50 10 C-49.05125 8.783125 -48.1025 7.56625 -47.125 6.3125 C-36.1524518 -6.29140465 -14.22681258 -7.94739186 0 0 Z " fill="#FFFFFF" transform="translate(485,52)"/>
<path d="M0 0 C8.58 0 17.16 0 26 0 C26.33 20.13 26.66 40.26 27 61 C28.65 59.35 30.3 57.7 32 56 C42.90350306 47.46682369 55.66383456 46.75833681 69 48 C81.4315702 50.32572806 91.44133957 57.15416437 99.05859375 67.1015625 C108.71422734 81.51701546 110.25650129 99.08922275 107.3125 115.93359375 C103.26842801 129.96989362 96.31277959 140.67614349 83.5 147.875 C71.332963 154.35003207 55.53645453 155.40298443 42.3125 151.4375 C35.91777338 148.90682096 30.82698021 144.82698021 26 140 C25.67 143.63 25.34 147.26 25 151 C16.75 151 8.5 151 0 151 C0 101.17 0 51.34 0 0 Z M31.4453125 81.0078125 C25.79396197 88.98459913 24.13781536 96.29700144 25 106 C26.41798216 113.39972201 30.00731241 119.80260384 35.921875 124.5390625 C42.76521063 129.0747617 49.83886496 130.88856579 58 130 C67.38396853 127.87503522 73.99115041 123.21567558 79.19921875 115.140625 C82.94242386 108.1533088 83.0425007 100.73519603 82 93 C79.6077941 85.59515064 75.86601143 78.96469494 69 75 C56.30589632 68.87446894 40.8045187 68.92079745 31.4453125 81.0078125 Z " fill="#FFFFFF" transform="translate(584,0)"/>
<path d="M0 0 C10.35564179 7.95463613 15.08370562 20.48772496 17 33 C17 39.6 17 46.2 17 53 C-7.75 53 -32.5 53 -58 53 C-55.18446327 62.421527 -55.18446327 62.421527 -49.625 68.5625 C-48.89539063 69.18253906 -48.16578125 69.80257812 -47.4140625 70.44140625 C-40.49723871 74.90712258 -32.95948327 74.70204924 -25 74 C-18.22119245 72.3855614 -12.75493252 69.08937732 -8 64 C-7.67 63.34 -7.34 62.68 -7 62 C-3.74574704 62.61096383 -1.72748915 63.71684299 0.890625 65.72265625 C1.59960938 66.26083984 2.30859375 66.79902344 3.0390625 67.35351562 C3.76867187 67.91748047 4.49828125 68.48144531 5.25 69.0625 C5.99507812 69.63033203 6.74015625 70.19816406 7.5078125 70.78320312 C9.34300661 72.18312683 11.17344687 73.58883221 13 75 C8.17412058 84.99462315 -1.70108759 90.64698895 -11.8125 94.375 C-23.88812695 97.79857632 -39.32979448 97.87489598 -51 93 C-52.46953125 92.39671875 -52.46953125 92.39671875 -53.96875 91.78125 C-66.84751067 85.92726788 -75.41711086 76.92732662 -81.31640625 64.1484375 C-85.99057111 51.54285004 -85.96783296 35.47153889 -81.328125 22.859375 C-74.69963096 8.58861724 -65.3355627 -0.2710536 -50.81640625 -6.328125 C-33.49643067 -12.12185063 -14.9634466 -10.64123483 0 0 Z M-50 16 C-54.86034969 21.08641247 -58 25.82913897 -58 33 C-41.83 33 -25.66 33 -9 33 C-9.96541334 24.31127995 -10.70193619 20.77843801 -16.9375 15.25 C-26.80557584 7.99998509 -40.47105215 8.20358812 -50 16 Z " fill="#FFFFFF" transform="translate(787,57)"/>
<path d="M0 0 C9.53120891 7.15627072 16.14218094 16.34889151 19 28 C19.18175781 28.71414062 19.36351562 29.42828125 19.55078125 30.1640625 C22.0331511 45.83537127 20.11431329 61.19074686 11.03515625 74.43359375 C4.46290233 82.72144562 -3.26505288 88.00354803 -13 92 C-13.8146875 92.3403125 -14.629375 92.680625 -15.46875 93.03125 C-28.75277595 97.57136014 -45.20938637 96.43318101 -58 91 C-58.72960937 90.71125 -59.45921875 90.4225 -60.2109375 90.125 C-72.43874833 84.71189797 -81.24924302 74.50991203 -86.22265625 62.2578125 C-91.44802637 47.08060682 -89.98319072 31.06368561 -83.1875 16.6875 C-76.9293359 4.99141661 -67.11314954 -3.21775787 -54.5 -7.5 C-52.67820535 -8.04053248 -50.84482402 -8.54421995 -49 -9 C-47.88431641 -9.28423828 -47.88431641 -9.28423828 -46.74609375 -9.57421875 C-30.26369952 -12.12981046 -13.66963769 -9.98578618 0 0 Z M-57.3984375 23.8515625 C-62.4466745 31.40932772 -63.97880099 38.9974477 -63 48 C-60.87903999 56.63288047 -57.59594979 62.75975168 -50.125 67.75 C-43.01747791 71.88166237 -35.75399199 73.16648219 -27.70703125 71.53515625 C-18.32429374 68.80592623 -12.87285543 63.68454737 -8.12890625 55.26953125 C-4.57186431 48.11852306 -4.70299647 39.08556112 -7.09375 31.5546875 C-11.12714806 22.99444374 -15.62859836 18.1625962 -24.375 14.625 C-36.35400298 10.74080012 -49.52723786 13.42991829 -57.3984375 23.8515625 Z " fill="#FFFFFF" transform="translate(375,58)"/>
<path d="M0 0 C11.58543156 9.69135556 17.94622394 20.97809512 20 36 C21.21033441 50.56369598 18.18576475 64.46267948 9 76 C8.37609375 76.78890625 7.7521875 77.5778125 7.109375 78.390625 C-1.00569637 87.49685013 -14.16416025 94.18409168 -26.40454102 95.19946289 C-29.02382471 95.3035919 -31.62873399 95.32915958 -34.25 95.3125 C-35.17731934 95.30686035 -36.10463867 95.3012207 -37.06005859 95.29541016 C-52.3849331 95.0246716 -64.53162778 90.08803427 -75.7109375 79.4765625 C-87.42412724 66.8039306 -89.89227145 53.15387786 -89.37890625 36.453125 C-88.67384909 23.46592786 -82.60118025 11.53110333 -73.07421875 2.625 C-66.20595536 -2.75578639 -58.47868734 -6.88439663 -50 -9 C-49.2884375 -9.18304688 -48.576875 -9.36609375 -47.84375 -9.5546875 C-30.82273794 -12.22006576 -14.40543679 -9.63972838 0 0 Z M-58.6796875 25.0859375 C-63.10321979 31.49875058 -64.63938001 39.30086732 -63.59765625 46.95703125 C-61.66865691 56.03131809 -57.78310589 62.74640353 -50 68 C-42.70005938 72.1062166 -35.44712508 73.21649877 -27.25390625 71.38671875 C-19.39701349 68.91305071 -13.74897482 64.86664437 -9.65625 57.62109375 C-5.73597686 49.12250161 -4.62617954 41.47233218 -7.5625 32.4375 C-10.59025382 24.79857341 -15.70199904 18.87240867 -23 15 C-36.46652369 10.1081939 -49.67152744 14.00259921 -58.6796875 25.0859375 Z " fill="#FFFFFF" transform="translate(256,58)"/>
<path d="M0 0 C8.58 0 17.16 0 26 0 C26 49.83 26 99.66 26 151 C17.42 151 8.84 151 0 151 C0 101.17 0 51.34 0 0 Z " fill="#FFFFFF" transform="translate(125,0)"/>
<path d="M0 0 C1.21042969 0.00644531 2.42085937 0.01289062 3.66796875 0.01953125 C6.8125 0.1875 6.8125 0.1875 9.8125 1.1875 C9.8125 9.4375 9.8125 17.6875 9.8125 26.1875 C7.523125 25.98125 5.23375 25.775 2.875 25.5625 C-6.200923 24.9107299 -13.14562632 25.3885128 -20.39453125 31.27734375 C-26.29612705 37.56466477 -28.25768392 45.40607214 -28.39282227 53.80395508 C-28.41276749 54.90471878 -28.43271271 56.00548248 -28.45326233 57.13960266 C-28.47833107 58.90547981 -28.47833107 58.90547981 -28.50390625 60.70703125 C-28.52468735 61.92073898 -28.54546844 63.13444672 -28.56687927 64.38493347 C-28.63218916 68.25656551 -28.69117363 72.12826455 -28.75 76 C-28.79320285 78.62696002 -28.83681771 81.25391329 -28.88085938 83.88085938 C-28.98862569 90.3163386 -29.08783785 96.75186974 -29.1875 103.1875 C-37.4375 103.1875 -45.6875 103.1875 -54.1875 103.1875 C-54.1875 69.8575 -54.1875 36.5275 -54.1875 2.1875 C-45.9375 2.1875 -37.6875 2.1875 -29.1875 2.1875 C-28.8575 6.4775 -28.5275 10.7675 -28.1875 15.1875 C-27.1975 13.970625 -26.2075 12.75375 -25.1875 11.5 C-18.30848595 3.64819609 -10.52238729 -0.12405816 0 0 Z " fill="#FFFFFF" transform="translate(874.1875,47.8125)"/>
</svg>
