<?xml version="1.0" encoding="UTF-8"?>
<svg version="1.1" xmlns="http://www.w3.org/2000/svg" width="1798" height="625">
<path d="M0 0 C11.40315794 0.02661931 22.80612136 0.02951109 34.20929905 0.01516439 C47.65021505 -0.0017243 61.09102565 -0.00552044 74.5319446 0.01187475 C75.97225145 0.01371816 77.41255831 0.01555289 78.85286518 0.01737882 C79.56051103 0.01829091 80.26815687 0.019203 80.99724653 0.02014273 C85.88678336 0.025654 90.77626627 0.02245612 95.66580006 0.01583387 C124.12995275 -0.0175737 152.09673907 0.11159353 180.25910374 4.59158041 C181.59462348 4.79381598 182.93036253 4.99460755 184.26629444 5.1941023 C227.86613926 11.71315222 286.83078696 21.15749023 315.54035374 59.04470541 C324.45622974 72.25641257 326.51609795 87.09596072 323.60675999 102.66970541 C318.49063857 123.3098519 307.31275722 141.0723552 294.25910374 157.59158041 C293.18209202 158.95863119 293.18209202 158.95863119 292.08332249 160.35329916 C286.87754463 166.83509361 281.33907116 172.97548 275.67951389 179.057889 C274.24265564 180.60934028 272.81755703 182.17079696 271.39582249 183.73611166 C264.48845599 191.33861137 257.51414798 198.72356999 249.71222874 205.41970541 C247.05983741 207.76800091 244.48412513 210.18618149 241.90754124 212.61697103 C236.11759232 218.07820771 230.27873082 223.35511794 224.05597874 228.32595541 C220.79079579 230.97093601 217.62141995 233.7145204 214.44660374 236.46658041 C208.17243557 241.8793204 201.7298263 247.03443034 195.17658421 252.10378744 C193.12620379 253.69469885 191.08473468 255.29658041 189.04425999 256.90017416 C178.27296303 265.34957895 167.32730216 273.53589101 156.25910374 281.59158041 C155.13786106 282.40924886 155.13786106 282.40924886 153.99396702 283.24343587 C142.18852847 291.84494713 130.27290274 300.28374634 118.25910374 308.59158041 C117.6946555 308.98269002 117.13020725 309.37379964 116.54865452 309.77676107 C112.79508402 312.37715974 109.03523116 314.96811275 105.26807591 317.54879476 C104.02199886 318.40385544 102.7775422 319.26128279 101.53479954 320.12118246 C99.78352771 321.33186459 98.02609458 322.53305098 96.26691624 323.73220541 C95.25258518 324.42862142 94.23825413 325.12503744 93.19318577 325.84255697 C89.74746794 327.8965695 86.33571457 329.59158041 82.25910374 329.59158041 C81.94199436 328.51263509 81.62488499 327.43368978 81.29816624 326.32204916 C76.24763931 309.83208804 69.21102872 294.26062088 57.25910374 281.59158041 C55.94425999 280.17618978 55.94425999 280.17618978 54.60285374 278.73220541 C49.01299947 272.85930806 43.10401346 267.94203279 36.25910374 263.59158041 C38.53637126 259.3217038 41.04460731 255.46670138 43.94660374 251.59158041 C61.28800282 227.95589573 76.20881016 198.34050469 72.69660374 168.21658041 C68.5292941 145.77113419 55.41635315 128.79460078 37.25910374 115.59158041 C-23.15593199 74.55937632 -105.97217797 68.25656525 -176.80339626 63.84158041 C-177.74945736 63.78241445 -178.69551845 63.7232485 -179.67024807 63.66228963 C-209.37784234 61.84263577 -239.05023178 61.38457729 -268.80339626 61.40408041 C-269.71973087 61.40434728 -270.63606548 61.40461416 -271.58016781 61.40488912 C-305.3367859 61.41717923 -339.01780603 61.97063034 -372.74089626 63.59158041 C-373.39683773 63.62284017 -374.0527792 63.65409994 -374.72859768 63.68630697 C-456.09734271 67.56690047 -537.35191589 74.53241359 -873.78288845 121.03909017 C-874.77015926 121.22051061 -875.75743008 121.40193105 -876.77461819 121.58884908 C-878.58816778 121.9224609 -880.40038897 122.26342119 -882.21083645 122.61347677 C-886.34619864 123.36929469 -889.62238191 123.85769244 -893.74089626 122.59158041 C-893.74089626 121.93158041 -893.74089626 121.27158041 -893.74089626 120.59158041 C-894.73089626 120.26158041 -895.72089626 119.93158041 -896.74089626 119.59158041 C-896.74089626 117.94158041 -896.74089626 116.29158041 -896.74089626 114.59158041 C-892.75108115 113.2010601 -888.81596335 112.09066121 -884.68474392 111.20974447 C-883.49312649 110.95420293 -882.30150906 110.6986614 -881.073782 110.43537618 C-879.76754399 110.15914707 -878.46126832 109.88309596 -877.15495876 109.60720541 C-875.77133754 109.31263895 -874.38775286 109.01790079 -873.00420193 108.72300436 C-868.45941838 107.75625255 -863.91276666 106.79846107 -859.36589626 105.84158041 C-858.18626434 105.59295311 -858.18626434 105.59295311 -856.98280147 105.33930303 C-772.13558384 87.45823999 -686.81403862 71.94506991 -487.74089626 40.59158041 C-486.97736591 40.48124219 -486.21383556 40.37090398 -485.42716793 40.25722219 C-405.10054933 28.6553571 -324.55181922 18.6526536 -235.23699001 9.87283041 C-234.04340374 9.75717733 -232.84981747 9.64152425 -231.62006191 9.52236654 C-221.5378213 8.5641107 -211.44706811 7.70850185 -201.35531405 6.85737075 C-193.13427568 6.1634008 -184.92278748 5.42183265 -176.71548561 4.57804109 C-118.0310977 -1.36649938 -58.91021413 -0.13937823 0 0 Z " fill="#D03027" transform="translate(1363.7408962622285,-0.591580405831337)"/>
<path d="M0 0 C18.52495757 16.19335927 30.49717183 40.81641945 32.75 65.3125 C32.83970273 68.981769 32.82186712 72.64307427 32.75 76.3125 C37.29422337 75.13469266 41.8356361 73.94638654 46.375 72.75 C47.05250305 72.57153534 47.7300061 72.39307068 48.42803955 72.209198 C58.30339318 69.59812469 68.06953257 66.77438496 77.74462891 63.48413086 C82.78367917 61.80062317 87.45335087 60.79346009 92.75 60.3125 C91.26557769 67.93705101 89.62201482 75.52072822 87.9296875 83.1015625 C87.66616486 84.28599945 87.40264221 85.4704364 87.13113403 86.69076538 C86.29675799 90.43990084 85.46090282 94.18870469 84.625 97.9375 C84.05589148 100.49346774 83.48688008 103.04945711 82.91796875 105.60546875 C81.52976893 111.84139639 80.14035753 118.07705311 78.75 124.3125 C81.74231687 122.00246934 84.39346258 119.75637586 86.796875 116.83984375 C91.38799025 111.47816564 96.36672293 106.50973182 101.35498047 101.5222168 C102.98827448 99.88674118 104.6133847 98.24342292 106.23828125 96.59960938 C124.62851427 78.10938494 145.45364893 60.84877096 172.625 59.875 C179.17612312 60.0742434 183.53486787 61.31801419 188.34375 65.796875 C192.97792243 71.61533594 192.62854243 78.62237226 192.05500793 85.67564392 C191.49201319 90.5428488 190.42303172 95.28737932 189.34375 100.0625 C189.08418015 101.21933792 188.82461029 102.37617584 188.55717468 103.56806946 C184.77237864 120.01955969 180.11196585 136.24752694 175.5625 152.5 C173.9830654 158.14363238 172.40845899 163.78853643 170.84464073 169.43651772 C170.23031952 171.64668368 169.60810283 173.85451207 168.98530579 176.06230164 C167.05117616 182.98507133 165.28746993 189.93056225 163.84643555 196.97387695 C163.58501266 198.23964066 163.32358978 199.50540436 163.054245 200.80952454 C162.72743378 204.57231991 163.29844884 206.86019741 164.75 210.3125 C170.46251685 207.39795059 174.54892708 204.15062086 178.75 199.3125 C179.5440625 198.46429688 180.338125 197.61609375 181.15625 196.7421875 C187.57240328 188.96564729 188.46340869 182.92280178 188.51464844 172.96606445 C188.65248085 156.70597421 193.57361607 141.76224602 200.75 127.3125 C201.19859375 126.36632812 201.6471875 125.42015625 202.109375 124.4453125 C216.15703046 96.59790138 241.69372176 74.49243043 270.875 63.9375 C287.78402231 58.79424422 307.79391749 57.62168777 324.125 65.1875 C332.04604963 69.56621687 336.37739967 75.0286328 339.5390625 83.40234375 C342.76039535 94.93471536 340.05836154 107.3656746 334.46875 117.67578125 C321.68607084 138.23459023 297.3851392 147.89521982 274.75 153.3125 C258.56499571 157.04057883 242.30420913 158.37869228 225.75 159.3125 C223.94076849 174.68676034 223.82741375 189.44815877 233.75 202.3125 C239.04200518 208.18827553 245.40146305 211.88767037 253.30859375 212.66015625 C272.31129614 213.10029941 286.2979074 204.85160082 300.00390625 192.23828125 C304.44061656 187.95310944 308.20794869 183.35723974 311.75 178.3125 C313.73 178.9725 315.71 179.6325 317.75 180.3125 C317.75 179.6525 317.75 178.9925 317.75 178.3125 C320.66517292 179.38651108 322.52810176 180.09060176 324.75 182.3125 C323.31779407 195.17427087 308.68681507 209.20790626 299.375 217.1875 C280.34096409 231.93681787 258.58822648 238.66389046 234.60546875 235.87890625 C220.26849615 233.84232621 207.86799728 227.90204233 198.75 216.3125 C196.50305706 212.74807244 194.53449135 209.12811971 192.75 205.3125 C192.23783936 205.96883423 192.23783936 205.96883423 191.71533203 206.63842773 C170.31986393 233.90779403 170.31986393 233.90779403 154.75 236.3125 C145.70914791 236.95613682 136.92306064 236.31785309 129.75 230.3125 C124.88431214 224.13176136 124.4430166 218.97757204 124.75 211.3125 C125.11432167 208.52470077 125.5391755 205.84590199 126.09375 203.09765625 C126.26217407 202.26218765 126.43059814 201.42671906 126.60412598 200.56593323 C129.92087768 185.08451981 134.77908227 169.92706323 139.25 154.75 C146.42307244 131.08009267 146.42307244 131.08009267 152.40625 107.09765625 C152.55694946 106.40635117 152.70764893 105.71504608 152.86291504 105.00279236 C153.95365642 99.46321097 154.94514417 93.03477283 152.625 87.75 C149.92286601 85.67836394 148.0972168 86.03458701 144.75 86.3125 C125.50407347 95.00133894 108.80876584 115.19247764 94.125 129.8125 C93.02442261 130.90606812 93.02442261 130.90606812 91.90161133 132.02172852 C87.95836743 135.97673384 84.1809052 140.01152611 80.57275391 144.27539062 C78.75 146.3125 78.75 146.3125 75.77044678 148.94973755 C72.4669579 152.25865882 71.41941194 155.62476763 70.60009766 160.15380859 C70.44316437 160.91546326 70.28623108 161.67711792 70.12454224 162.46185303 C69.61586834 164.95771901 69.13984997 167.45861357 68.6640625 169.9609375 C68.31591874 171.70154354 67.96573946 173.44174357 67.61361694 175.18154907 C66.69574289 179.74462825 65.80550158 184.31267182 64.92102051 188.88232422 C64.01223866 193.55118335 63.07727047 198.21478553 62.14453125 202.87890625 C60.32077326 212.01849807 58.52618196 221.16355219 56.75 230.3125 C52.56909587 230.33730683 48.38823128 230.35541049 44.20727539 230.36743164 C42.78636936 230.37244565 41.36546844 230.37925852 39.94458008 230.38793945 C37.89663424 230.40013388 35.8487569 230.40575772 33.80078125 230.41015625 C32.57012939 230.41539307 31.33947754 230.42062988 30.0715332 230.42602539 C27.15780381 230.32643817 24.57692674 229.99049322 21.75 229.3125 C21.91714005 228.59462311 22.08428009 227.87674622 22.25648499 227.13711548 C26.29100853 209.80506144 30.31383227 192.47032969 34.32191467 175.13214111 C34.70288101 173.48425061 35.08385739 171.83636243 35.46484375 170.18847656 C35.65373893 169.37143879 35.84263411 168.55440102 36.03725338 167.71260452 C37.35306991 162.02333805 38.67357364 156.33517244 39.99609375 150.64746094 C41.60543085 143.72561876 43.20723957 136.80208307 44.79999447 129.87640572 C45.63702201 126.23776181 46.47755732 122.60001205 47.32669067 118.96417236 C48.27193331 114.91613389 49.20112287 110.86457565 50.12890625 106.8125 C50.55266541 105.01406143 50.55266541 105.01406143 50.98498535 103.17929077 C51.35895447 101.52819809 51.35895447 101.52819809 51.74047852 99.84375 C52.0711306 98.41385742 52.0711306 98.41385742 52.40846252 96.95507812 C52.77300982 94.1344661 52.46530439 92.04912128 51.75 89.3125 C47.57430864 87.45663717 44.01398986 87.20123724 39.515625 87.25 C38.43571289 87.25902344 37.35580078 87.26804687 36.24316406 87.27734375 C35.42041992 87.28894531 34.59767578 87.30054688 33.75 87.3125 C33.71559814 87.92432129 33.68119629 88.53614258 33.64575195 89.16650391 C31.22758923 129.43922321 18.7336782 164.70796139 -9.25 194.3125 C-9.99636719 195.12332031 -10.74273438 195.93414062 -11.51171875 196.76953125 C-36.54794267 223.04722082 -72.51742877 235.81975551 -108.25 237.3125 C-109.66925781 237.374375 -109.66925781 237.374375 -111.1171875 237.4375 C-140.70006462 238.07886319 -168.68060712 229.00286946 -190.375 208.6875 C-211.3196754 186.93466993 -218.67129539 156.8895611 -218.40234375 127.39453125 C-217.33019126 90.93248566 -203.14934885 55.77046593 -179.25 28.3125 C-178.45722656 27.38566406 -177.66445312 26.45882812 -176.84765625 25.50390625 C-171.1626393 19.02855519 -165.12781109 13.49645233 -158.25 8.3125 C-156.80560547 7.22001953 -156.80560547 7.22001953 -155.33203125 6.10546875 C-111.45693984 -25.64697383 -44.35537895 -37.0568484 0 0 Z M-125.25 10.3125 C-126.08144531 11.06144531 -126.91289063 11.81039062 -127.76953125 12.58203125 C-139.43673925 23.66128546 -147.89052143 37.11691543 -155.25 51.3125 C-155.85457031 52.4675 -156.45914062 53.6225 -157.08203125 54.8125 C-165.70617363 72.25546067 -171.23267288 91.12363221 -174.25 110.3125 C-174.4250708 111.41134521 -174.6001416 112.51019043 -174.78051758 113.64233398 C-175.48891201 119.18018814 -175.47426551 124.68410456 -175.49023438 130.26123047 C-175.49984555 132.28005721 -175.53089016 134.29782151 -175.5625 136.31640625 C-175.6530236 159.46781814 -168.38753968 181.63083601 -153.25 199.3125 C-152.486875 200.34375 -151.72375 201.375 -150.9375 202.4375 C-141.83013941 212.18025784 -128.85874472 219.71440467 -115.421875 220.55078125 C-94.41224691 221.08593666 -75.21563731 215.4069284 -59.25 201.3125 C-58.45464844 200.65894531 -57.65929688 200.00539063 -56.83984375 199.33203125 C-26.65844304 173.72215646 -14.00557626 130.10953733 -10.65625 92.08203125 C-8.50817218 63.88993655 -13.55417882 36.91247485 -31.25 14.3125 C-31.75660156 13.63058594 -32.26320313 12.94867188 -32.78515625 12.24609375 C-42.06796363 0.5912668 -57.47603678 -7.91946834 -72.25 -9.6875 C-92.87583089 -11.50413822 -110.17951078 -3.31626828 -125.25 10.3125 Z M259.38012695 91.37060547 C248.09386281 105.71751758 228.75 130.31076162 228.75 149.3125 C252.95929809 147.2824337 275.97887172 140.17684432 293.01953125 121.875 C301.17418114 112.19229883 306.39560984 101.41649669 305.9921875 88.57421875 C305.36818396 82.74683084 303.89788715 77.96642046 299.625 73.8125 C285.10335965 62.9441025 268.32290127 80.46990907 259.38012695 91.37060547 Z " fill="#014A77" transform="translate(1408.25,279.6875)"/>
<path d="M0 0 C11.33024726 10.34610551 16.38183877 26.05912853 17.0625 41.01171875 C17.61009329 65.46014842 9.19471567 88.99941328 -7.59375 106.85107422 C-20.14624952 119.7090179 -35.59989909 128.27009675 -53.05859375 132.3515625 C-54.21609131 132.62758301 -54.21609131 132.62758301 -55.39697266 132.90917969 C-63.10109359 134.53552469 -70.75187806 134.72389842 -78.59082031 134.72216797 C-80.79181097 134.72652924 -82.99076952 134.76294091 -85.19140625 134.80078125 C-99.19191675 134.91063756 -113.89449062 132.72829071 -124.77734375 123.21875 C-125.39544922 122.6810498 -126.01355469 122.14334961 -126.65039062 121.58935547 C-127.11509766 121.18088379 -127.57980469 120.77241211 -128.05859375 120.3515625 C-128.58786728 122.84999655 -129.1080031 125.34977189 -129.62109375 127.8515625 C-129.79310303 128.69001709 -129.9651123 129.52847168 -130.14233398 130.39233398 C-131.47812357 137.06900337 -132.65168205 143.76595138 -133.77734375 150.48046875 C-134.08386267 152.29297557 -134.39042227 154.10547551 -134.69702148 155.91796875 C-135.16143729 158.66653338 -135.62132851 161.41550815 -136.06814575 164.16699219 C-136.49323749 166.7837761 -136.93287939 169.39776623 -137.375 172.01171875 C-137.4999585 172.80784073 -137.62491699 173.60396271 -137.75366211 174.42420959 C-138.67614671 179.76938088 -138.67614671 179.76938088 -140.18170166 182.06121826 C-143.06809583 184.04558492 -145.53917663 183.7103029 -149.00854492 183.69213867 C-149.71124008 183.69257675 -150.41393524 183.69301483 -151.13792419 183.69346619 C-153.45942011 183.69137697 -155.78019284 183.66804069 -158.1015625 183.64453125 C-159.71152858 183.63893574 -161.32149977 183.63466543 -162.93147278 183.63166809 C-167.16814282 183.62021568 -171.40450415 183.59074529 -175.64105225 183.55755615 C-179.96443505 183.52686369 -184.28786776 183.51316453 -188.61132812 183.49804688 C-197.09389776 183.46587577 -205.57619188 183.41348102 -214.05859375 183.3515625 C-212.60653131 172.58045074 -210.80816512 161.89400296 -208.90991211 151.19458008 C-208.59578283 149.41418754 -208.28184906 147.6337605 -207.96809387 145.853302 C-207.12320488 141.06238018 -206.27544471 136.27197073 -205.42700648 131.48167634 C-204.53723339 126.45585918 -203.64972879 121.42964133 -202.76185608 116.40348816 C-201.27314803 107.97825307 -199.78251339 99.55336052 -198.29077148 91.12866211 C-196.56568101 81.38594499 -194.84391342 71.6426449 -193.12383932 61.899041 C-191.64436818 53.51886658 -190.16312789 45.1390063 -188.68039614 36.75940818 C-187.79581095 31.76020471 -186.91184016 26.76089472 -186.02946281 21.76130104 C-185.20168482 17.07164821 -184.37169054 12.38239302 -183.53996086 7.69343948 C-183.23481087 5.97100463 -182.93044055 4.24843145 -182.6268959 2.52571297 C-182.21344199 0.17995678 -181.79720313 -2.1652883 -181.38023376 -4.51042175 C-181.2600005 -5.19639519 -181.13976724 -5.88236863 -181.01589054 -6.58912915 C-180.51884685 -9.36976867 -179.95381069 -11.96278669 -179.05859375 -14.6484375 C-170.748575 -14.67158065 -162.43856967 -14.68936268 -154.12852669 -14.70024967 C-150.27008045 -14.70547417 -146.41165622 -14.71256399 -142.55322266 -14.72387695 C-138.83147845 -14.73472118 -135.10975545 -14.74071761 -131.38799667 -14.74331474 C-129.96619203 -14.74516621 -128.54438858 -14.74878153 -127.12259293 -14.75416756 C-125.13528825 -14.76139822 -123.14796236 -14.76184573 -121.16064453 -14.76196289 C-119.46187668 -14.76529381 -119.46187668 -14.76529381 -117.72879028 -14.76869202 C-115.05859375 -14.6484375 -115.05859375 -14.6484375 -113.05859375 -13.6484375 C-113.54180223 -7.4430233 -114.39177499 -1.64898504 -116.05859375 4.3515625 C-115.4759375 3.91585938 -114.89328125 3.48015625 -114.29296875 3.03125 C-81.71754003 -20.63203312 -32.59136567 -26.09782982 0 0 Z M-111.80859375 35.1015625 C-119.06408771 43.79493339 -121.57504744 55.7664259 -121.3125 66.8984375 C-120.66975431 73.10834967 -118.70990721 79.05804239 -114.05859375 83.3515625 C-105.24851036 88.60774784 -97.04701042 90.78730157 -86.90234375 88.703125 C-75.86698601 85.6864501 -68.0315763 80.16040541 -62.05859375 70.3515625 C-56.64174642 60.32235011 -54.13640031 48.89194096 -56.67578125 37.609375 C-58.84719374 31.28729793 -62.38014094 26.90817351 -68.05859375 23.3515625 C-84.2601036 16.63661127 -100.42607302 23.14026953 -111.80859375 35.1015625 Z " fill="#014977" transform="translate(635.05859375,330.6484375)"/>
<path d="M0 0 C2.81883237 0.0031675 5.63661774 -0.02044577 8.45532227 -0.0456543 C24.36262129 -0.10224293 39.68824396 1.60201818 54.94946289 6.25317383 C55.78155273 6.49229492 56.61364258 6.73141602 57.47094727 6.9777832 C63.42949661 8.73247644 69.15696657 10.92367244 74.88696289 13.31567383 C74.3355064 22.89671457 72.63050044 32.26966585 70.93066406 41.69824219 C70.4452132 44.40184141 69.97342976 47.10761137 69.50219727 49.8137207 C69.1950765 51.53457072 68.88716308 53.25527951 68.57836914 54.97583008 C68.43871231 55.7840773 68.29905548 56.59232452 68.15516663 57.42506409 C67.11604155 63.08659517 67.11604155 63.08659517 64.88696289 65.31567383 C59.26476162 63.15816995 53.77167116 60.82297443 48.32446289 58.25317383 C24.843697 47.43894638 -2.13632058 48.13288819 -26.40991211 56.44458008 C-38.18253054 61.06518032 -48.15424426 67.40243417 -57.11303711 76.31567383 C-57.81170898 76.97954102 -58.51038086 77.6434082 -59.23022461 78.32739258 C-69.53330611 88.85096804 -75.55584027 103.56536813 -75.4765625 118.18115234 C-75.2083937 128.54438668 -71.39939107 136.9314226 -64.11303711 144.31567383 C-46.88281013 159.12709945 -24.79254388 160.54543542 -3.11303711 159.31567383 C6.90527976 158.46651081 16.85407395 157.09503651 26.73071289 155.22192383 C31.19043777 154.39285457 35.35253488 154.12627012 39.88232422 154.25756836 C40.54385498 154.27674316 41.20538574 154.29591797 41.88696289 154.31567383 C41.30620004 161.19782022 40.33490784 167.91673796 39.03930664 174.69848633 C38.86315323 175.63876678 38.68699982 176.57904724 38.50550842 177.54782104 C37.94910575 180.51286385 37.38689068 183.47676866 36.82446289 186.44067383 C36.44321651 188.46664271 36.06235359 190.49268378 35.68188477 192.51879883 C34.75467067 197.45193542 33.82224683 202.38406112 32.88696289 207.31567383 C20.07997639 208.82717828 7.32007475 209.78636443 -5.56396484 210.32104492 C-8.413418 210.44016719 -11.26219004 210.57063766 -14.11108398 210.70239258 C-49.35502606 212.27091409 -49.35502606 212.27091409 -66.17553711 210.12817383 C-67.25714111 209.99507812 -68.33874512 209.86198242 -69.453125 209.72485352 C-97.57099221 206.03225369 -127.9822026 197.1100282 -149.11303711 177.31567383 C-149.83620117 176.67114258 -150.55936523 176.02661133 -151.30444336 175.36254883 C-156.98722506 170.05718147 -164.76943009 161.67322075 -165.28712463 153.60128784 C-165.30903366 152.44597565 -165.33094269 151.29066345 -165.35351562 150.1003418 C-165.39213463 148.13591629 -165.39213463 148.13591629 -165.43153381 146.13180542 C-165.52160327 140.08508212 -165.58174047 134.03816797 -165.62792969 127.9909668 C-165.65447719 124.81511119 -165.70291594 121.64079703 -165.77148438 118.46557617 C-166.47254951 85.21680271 -166.47254951 85.21680271 -157.11303711 72.31567383 C-155.95658767 70.36359079 -154.80886771 68.40626921 -153.67553711 66.44067383 C-148.73309082 58.93086986 -142.47114009 52.62441265 -136.11303711 46.31567383 C-135.37827148 45.57188477 -134.64350586 44.8280957 -133.88647461 44.06176758 C-99.34619762 10.81534461 -46.40652693 -0.10854858 0 0 Z " fill="#014A77" transform="translate(165.113037109375,255.684326171875)"/>
<path d="M0 0 C5.88261889 5.75793911 9.21491523 10.36795618 9.33046818 18.86797047 C9.32510264 19.61109832 9.31973711 20.35422617 9.31420898 21.11987305 C9.31015517 21.90933917 9.30610136 22.69880529 9.30192471 23.51219463 C9.13474985 32.53052326 7.60850331 41.23387756 5.97265625 50.08203125 C5.65983281 51.83770912 5.34837279 53.59363041 5.03819275 55.34977722 C4.22859816 59.91221556 3.4006057 64.47111589 2.56842041 69.02947998 C1.72212115 73.68489165 0.89425477 78.34357807 0.06445312 83.00195312 C-1.14812369 89.79442908 -2.36746942 96.58562134 -3.60131836 103.37426758 C-3.72863342 104.07607147 -3.85594849 104.77787537 -3.98712158 105.50094604 C-4.49354757 108.28009424 -5.01111319 111.05525495 -5.56813049 113.82475281 C-6.51948585 118.61655461 -7.43203184 123.79558948 -4.66015625 128.0625 C-3.04298179 129.87943264 -3.04298179 129.87943264 -1.3125 131.4296875 C0 133 0 133 0 137 C-26.07 137 -52.14 137 -79 137 C-79 131.72 -79 126.44 -79 121 C-80.876875 122.010625 -82.75375 123.02125 -84.6875 124.0625 C-90.68226786 127.12160332 -96.82609864 129.56313861 -103.1875 131.75 C-103.97406982 132.03109619 -104.76063965 132.31219238 -105.57104492 132.60180664 C-120.03626353 137.40068756 -135.18771496 138.50748825 -150.3269043 138.39111328 C-152.82980839 138.3748878 -155.33112541 138.39116014 -157.83398438 138.41015625 C-175.53356144 138.43341399 -190.5432066 135.85329279 -203.80078125 123.26171875 C-209.90169451 116.98742252 -212.36476295 111.39951491 -213.375 102.8125 C-212.18147935 90.67837337 -207.33224685 80.18802199 -197.9375 72.3125 C-176.07178175 56.64145404 -149.25915642 54.42670254 -123.30078125 51.78125 C-121.75106628 51.62209106 -121.75106628 51.62209106 -120.17004395 51.4597168 C-114.97297792 50.92813704 -109.7751477 50.41297846 -104.57373047 49.92578125 C-91.875603 48.69391621 -79.31818104 47.41648011 -68 41 C-65.93479368 37.90219052 -65.70522976 37.0459519 -65.6875 33.5 C-65.66236328 32.33984375 -65.66236328 32.33984375 -65.63671875 31.15625 C-66.0850863 28.49497161 -66.93401025 27.67512682 -69 26 C-89.64482376 12.72832758 -137.99703593 26.25862922 -160.59375 30.94921875 C-166.73271776 32.19754758 -172.73246323 33 -179 33 C-177.51542165 25.32260913 -175.22112993 17.98201483 -172.64379883 10.61352539 C-172.17037494 9.23874692 -171.71215144 7.8586457 -171.26879883 6.47387695 C-170.61917484 4.44919565 -169.92303768 2.44623834 -169.21484375 0.44140625 C-168.81386475 -0.74767334 -168.41288574 -1.93675293 -167.99975586 -3.16186523 C-165.81000001 -6.2696557 -165.3716549 -6.50275022 -161.86987305 -7.32641602 C-160.25091472 -7.58030669 -158.62705245 -7.80458539 -157 -8 C-156.26339645 -8.11020981 -155.52679291 -8.22041962 -154.76786804 -8.33396912 C-152.47091939 -8.66693539 -150.1723821 -8.94896326 -147.8671875 -9.21875 C-147.0086618 -9.32165848 -146.15013611 -9.42456696 -145.26559448 -9.53059387 C-142.4695551 -9.86135217 -139.67253822 -10.18217913 -136.875 -10.5 C-135.91323853 -10.61016449 -134.95147705 -10.72032898 -133.96057129 -10.83383179 C-119.90860835 -12.42587108 -105.87495711 -13.6203635 -91.75 -14.3125 C-90.96268494 -14.35165527 -90.17536987 -14.39081055 -89.36419678 -14.43115234 C-20.52462199 -17.74654184 -20.52462199 -17.74654184 0 0 Z M-80.15087891 72.6550293 C-80.95917145 72.79905685 -81.76746399 72.94308441 -82.60025024 73.09147644 C-83.46693329 73.2507814 -84.33361633 73.41008636 -85.2265625 73.57421875 C-86.58084854 73.82278374 -86.58084854 73.82278374 -87.9624939 74.07637024 C-89.87433447 74.42979144 -91.78575418 74.7854958 -93.69677734 75.14331055 C-95.63694577 75.50387712 -97.57836041 75.85780608 -99.52099609 76.20483398 C-116.57298085 78.70179569 -116.57298085 78.70179569 -130.625 87.8125 C-132.48892374 92.13341413 -132.74422031 94.31141204 -132 99 C-127.2929846 104.55186432 -121.88284467 105.49642854 -114.87890625 106.21875 C-102.79773078 106.75076507 -90.67006756 102.55035888 -81.125 95.25 C-74.51710505 89.13964067 -73.21443949 80.54901484 -72 72 C-74.9657841 72 -77.29038936 72.14109779 -80.15087891 72.6550293 Z " fill="#004977" transform="translate(424,326)"/>
<path d="M0 0 C1.0706369 -0.00971832 2.1412738 -0.01943665 3.24435425 -0.02944946 C24.99877926 -0.19703039 51.14864222 0.00889107 68.3125 15.5 C74.16870675 21.80563657 75.83507427 28.71958808 75.69848633 37.125 C75.35933395 42.57146189 74.45171243 47.90407296 73.50588989 53.27426147 C73.11224426 55.50994539 72.73085597 57.74747603 72.35131836 59.9855957 C70.80225201 69.06305933 69.17665966 78.12644477 67.53564453 87.18768311 C66.60413585 92.33851756 65.68126257 97.49088858 64.75823975 102.64324951 C64.07038464 106.45629244 63.36771828 110.26641582 62.66455078 114.07666016 C62.23534379 116.46114453 61.80676783 118.8457426 61.37890625 121.23046875 C61.17402084 122.31667007 60.96913544 123.4028714 60.75804138 124.52198792 C59.65281752 130.78031379 59.25786489 136.04956507 60.5 142.3125 C62.95817955 145.10495093 62.95817955 145.10495093 65.5 147.3125 C65.5 148.6325 65.5 149.9525 65.5 151.3125 C56.44225898 152.23903023 47.46267795 152.46080213 38.36328125 152.4453125 C36.94793176 152.44598787 35.53258238 152.44695983 34.11723328 152.44821167 C31.18011346 152.44967239 28.2430244 152.44758347 25.3059082 152.44287109 C21.53527346 152.43711644 17.76470902 152.44049879 13.99407673 152.44644356 C11.08513348 152.45004411 8.17620715 152.44891394 5.26726341 152.44631577 C3.87533752 152.44564807 2.48341009 152.44646944 1.09148598 152.44879532 C-0.83964383 152.45131967 -2.77077905 152.44679362 -4.7019043 152.44189453 C-5.80044235 152.44109894 -6.89898041 152.44030334 -8.0308075 152.43948364 C-10.5 152.3125 -10.5 152.3125 -11.5 151.3125 C-11.73678716 148.62014224 -11.92198025 145.94751844 -12.0625 143.25 C-12.10568359 142.49138672 -12.14886719 141.73277344 -12.19335938 140.95117188 C-12.29973633 139.07184562 -12.40039934 137.19219756 -12.5 135.3125 C-13.44617188 135.82039062 -14.39234375 136.32828125 -15.3671875 136.8515625 C-45.23914073 152.53921523 -81.64054841 158.62788979 -114.81640625 150.5 C-126.59451326 146.56850392 -136.856756 138.76522425 -142.55859375 127.625 C-145.88978878 119.44214747 -144.47891557 110.83524764 -141.56640625 102.70703125 C-135.65525793 89.51432997 -123.8508025 82.20177184 -110.96875 76.84375 C-87.60324037 68.51343787 -62.23211429 67.05021636 -37.73046875 64.5 C-36.52656494 64.37246338 -35.32266113 64.24492676 -34.08227539 64.11352539 C-31.86487906 63.88037073 -29.6466527 63.65490676 -27.42749023 63.43920898 C-17.61696689 62.41418197 -7.75934613 61.00227178 0.5 55.3125 C2.23224199 51.84801602 1.96592855 48.10070165 1.5 44.3125 C-0.62409687 40.86084258 -2.31989359 40.37050037 -6.1875 39.125 C-35.26742714 32.99568647 -66.91227034 39.72655282 -95.5 45.3125 C-96.38139648 45.48346191 -97.26279297 45.65442383 -98.17089844 45.83056641 C-102.2861791 46.63182303 -106.39619189 47.45405034 -110.5 48.3125 C-109.92307922 43.16014408 -108.72929292 38.56510073 -106.91796875 33.69921875 C-106.66251785 33.00359329 -106.40706696 32.30796783 -106.14387512 31.59126282 C-105.60542332 30.13359651 -105.0631881 28.67732265 -104.51733398 27.22241211 C-103.68533695 24.99420706 -102.87655501 22.75841507 -102.06835938 20.52148438 C-101.54045764 19.10104322 -101.0112077 17.68110223 -100.48046875 16.26171875 C-100.24176559 15.59403976 -100.00306244 14.92636078 -99.75712585 14.2384491 C-98.78203785 11.69313151 -97.97790188 9.70335095 -95.83935547 7.9543457 C-92.29864484 6.98288586 -88.72700248 6.52043105 -85.08984375 6.09375 C-84.25969757 5.99084152 -83.42955139 5.88793304 -82.57424927 5.78190613 C-79.86303913 5.44935584 -77.15057574 5.12945157 -74.4375 4.8125 C-73.50364471 4.70233551 -72.56978943 4.59217102 -71.6076355 4.47866821 C-66.03956396 3.82444619 -60.46946603 3.19101402 -54.89685059 2.57672119 C-52.84139092 2.35013385 -50.78637186 2.11955586 -48.73144531 1.88818359 C-32.52835059 0.13602881 -16.28034276 0.08727619 0 0 Z M-11.42578125 86.265625 C-12.44027344 86.4706665 -13.45476562 86.67570801 -14.5 86.88696289 C-15.593125 87.10989014 -16.68625 87.33281738 -17.8125 87.5625 C-24.36936396 88.8968445 -30.92261485 90.22785995 -37.51171875 91.39453125 C-38.9042688 91.64444824 -38.9042688 91.64444824 -40.32495117 91.89941406 C-42.05133363 92.20634051 -43.77930529 92.5045177 -45.5090332 92.79199219 C-54.30142233 94.3715598 -61.28886689 96.82149615 -66.5 104.3125 C-67.92662219 107.16574437 -67.81033868 109.14704549 -67.5 112.3125 C-65.26291726 116.32060657 -62.53284884 118.38105485 -58.15234375 119.80859375 C-44.52851687 122.39692021 -29.85405966 120.10054997 -17.9453125 113.03515625 C-10.61022755 107.8677881 -7.22137375 102.04330768 -5.5 93.3125 C-5.06302672 90.63874269 -4.75004642 88.01300129 -4.5 85.3125 C-6.91739118 85.3125 -9.0540406 85.78243388 -11.42578125 86.265625 Z " fill="#034B79" transform="translate(1000.5,311.6875)"/>
<path d="M0 0 C-0.67933026 8.49162823 -2.08545006 16.7940206 -3.58398438 25.17089844 C-4.00391089 27.52189547 -4.4163746 29.87412121 -4.828125 32.2265625 C-5.09331176 33.72403601 -5.35892108 35.22143476 -5.625 36.71875 C-5.74794434 37.42076538 -5.87088867 38.12278076 -5.99755859 38.84606934 C-6.88478669 43.76957338 -6.88478669 43.76957338 -8 46 C4.21 46 16.42 46 29 46 C23.04464286 74.95535714 23.04464286 74.95535714 21 77 C18.40640678 77.08851529 15.83960309 77.11525945 13.24609375 77.09765625 C12.47064713 77.0962413 11.6952005 77.09482635 10.89625549 77.09336853 C8.40996506 77.08775345 5.9237634 77.07519846 3.4375 77.0625 C1.75586067 77.05748694 0.07421994 77.0529237 -1.60742188 77.04882812 C-5.73831566 77.03777913 -9.86914276 77.02050445 -14 77 C-14.09683578 77.74809433 -14.19367157 78.49618866 -14.29344177 79.26695251 C-15.85742192 90.78963092 -17.98256974 102.19712731 -20.09765625 113.62890625 C-20.49619819 115.79406037 -20.89450441 117.95925789 -21.29258728 120.12449646 C-22.33362916 125.78310308 -23.3780543 131.44108013 -24.42315674 137.09893799 C-25.27732423 141.72628334 -26.12910831 146.35406591 -26.98076725 150.98187351 C-28.74000483 160.54118503 -30.50076164 170.10021777 -32.26586914 179.65844727 C-32.50823303 180.97304932 -32.50823303 180.97304932 -32.75549316 182.31420898 C-32.98040184 183.53105125 -32.98040184 183.53105125 -33.20985413 184.7724762 C-33.40368227 185.82231611 -33.40368227 185.82231611 -33.60142612 186.89336491 C-34.05025039 189.26559504 -34.52651379 191.63256894 -35 194 C-59.42 194 -83.84 194 -109 194 C-106.06193088 176.95919908 -103.11813086 159.92746266 -100.01171875 142.91796875 C-99.66002308 140.9864564 -99.30844821 139.05492206 -98.95698547 137.12336731 C-98.05240681 132.1537848 -97.14624122 127.18449309 -96.23968506 122.215271 C-95.30657202 117.09877507 -94.37504246 111.98199085 -93.44335938 106.86523438 C-91.63041129 96.90988148 -89.8156309 86.95486397 -88 77 C-96.58 77 -105.16 77 -114 77 C-113.35510103 69.26121237 -112.62819747 62.22207803 -110.9375 54.75 C-110.298125 51.8625 -109.65875 48.975 -109 46 C-99.76 46 -90.52 46 -81 46 C-80.731875 44.02 -80.46375 42.04 -80.1875 40 C-79.04331157 31.9495231 -77.55454183 23.97998141 -76 16 C-59.59267737 12.1014754 -43.15992156 8.32087034 -26.6947937 4.67404175 C-24.8600189 4.267106 -23.02564465 3.85835994 -21.19168091 3.44778442 C-18.59637572 2.86744343 -15.99961763 2.29411309 -13.40234375 1.72265625 C-12.23848648 1.4606543 -12.23848648 1.4606543 -11.05111694 1.19335938 C-7.3096488 0.37845716 -3.83410221 -0.20902943 0 0 Z " fill="#064D7A" transform="translate(864,269)"/>
<path d="M0 0 C1.07282227 -0.00201416 2.14564453 -0.00402832 3.25097656 -0.00610352 C5.01779785 0.00078491 5.01779785 0.00078491 6.8203125 0.0078125 C8.03944336 0.01047119 9.25857422 0.01312988 10.51464844 0.01586914 C21.07801451 0.06801272 31.63573937 0.29093015 42.1953125 0.5703125 C42.97275818 0.58987 43.75020386 0.60942749 44.5512085 0.62957764 C46.79210742 0.6872463 49.03275864 0.75078888 51.2734375 0.81640625 C52.5615332 0.85306396 53.84962891 0.88972168 55.17675781 0.92749023 C59.14741325 1.14382356 63.00681432 1.59557076 66.9453125 2.1328125 C66.31917531 12.21206085 64.52846252 22.07260566 62.80249023 32.0065918 C62.47685175 33.89975193 62.15159562 35.79297787 61.82669067 37.68626404 C60.94841822 42.79769281 60.06483379 47.90819031 59.18025851 53.01853156 C58.25492328 58.36979478 57.33452362 63.72190678 56.41358948 69.07392883 C54.67108799 79.19604679 52.9241795 89.31739892 51.17566782 99.4384802 C49.1843442 110.96634124 47.19796329 122.49505221 45.21198738 134.02383554 C41.12857623 157.72777552 37.03833911 181.43053082 32.9453125 205.1328125 C7.8653125 205.1328125 -17.2146875 205.1328125 -43.0546875 205.1328125 C-42.43112593 198.89719677 -41.76617417 192.87728864 -40.65039062 186.74404907 C-40.51140099 185.96245214 -40.37241135 185.18085521 -40.2292099 184.37557352 C-39.76840247 181.78959774 -39.30218944 179.20462811 -38.8359375 176.61962891 C-38.50211708 174.75280455 -38.16862994 172.88592057 -37.83544922 171.01898193 C-36.93398774 165.97338454 -36.02778806 160.92864878 -35.12063599 155.88407183 C-34.17093554 150.59866413 -33.22537585 145.31251564 -32.27929688 140.02645874 C-30.69137112 131.15763931 -29.10056327 122.28934083 -27.5078125 113.42138672 C-25.66596813 103.16646867 -23.82771949 92.91091148 -21.99160004 82.65496695 C-20.03566361 71.7297732 -18.07762186 60.80495769 -16.11868286 49.88030195 C-15.55438361 46.73267992 -14.99042254 43.58499744 -14.42651367 40.43730545 C-13.54140208 35.49748987 -12.65484209 30.55793633 -11.76715088 25.61858368 C-11.44135887 23.80460102 -11.1160316 21.99053482 -10.79119873 20.17638016 C-10.34840249 17.7039137 -9.90391758 15.23175673 -9.45898438 12.75967407 C-9.33028709 12.03886646 -9.20158981 11.31805885 -9.06899261 10.57540858 C-7.71750658 3.08934823 -7.71750658 3.08934823 -7.0546875 1.1328125 C-4.53757611 -0.12574319 -2.81802628 0.00340518 0 0 Z " fill="#004977" transform="translate(1116.0546875,257.8671875)"/>
<path d="M0 0 C24.09 0 48.18 0 73 0 C71.875 12.375 71.875 12.375 70.96861267 17.48588562 C70.66364113 19.22505501 70.66364113 19.22505501 70.35250854 20.99935913 C70.1316861 22.23151154 69.91086365 23.46366394 69.68334961 24.7331543 C69.44635919 26.07459193 69.20977321 27.41610107 68.97355652 28.75767517 C68.33722356 32.36507926 67.69530535 35.9714686 67.05230784 39.57768989 C66.3790289 43.3593808 65.7109906 47.14199735 65.04237366 50.92451477 C63.77818374 58.07174438 62.5093466 65.2181406 61.23879868 72.36424237 C59.52024873 82.0316774 57.80895969 91.70039745 56.09724331 101.3690443 C53.40405966 116.58041353 50.70124729 131.79005554 48 147 C23.58 147 -0.84 147 -26 147 C-24.68585757 137.801003 -23.30257605 128.66640551 -21.67749023 119.5246582 C-21.34296341 117.6268737 -21.34296341 117.6268737 -21.00167847 115.69075012 C-20.39851435 112.26961891 -19.79249461 108.8489997 -19.18577456 105.42849755 C-18.54823503 101.83207059 -17.91298529 98.23523902 -17.27735901 94.63847351 C-16.2123607 88.61423823 -15.14543775 82.59034618 -14.07739258 76.56665039 C-12.84307906 69.60504458 -11.6121023 62.64285473 -10.38281292 55.68036014 C-9.32372019 49.68233128 -8.26285807 43.68461736 -7.20050579 37.68716496 C-6.56743438 34.1131904 -5.93497221 30.53911097 -5.30410576 26.96474648 C-4.60304607 22.99336714 -3.89827525 19.02265528 -3.19311523 15.05200195 C-2.98478561 13.8691864 -2.77645599 12.68637085 -2.56181335 11.4677124 C-2.27379852 9.85111473 -2.27379852 9.85111473 -1.97996521 8.20185852 C-1.81387473 7.26414266 -1.64778425 6.32642679 -1.47666073 5.3602953 C-1 3 -1 3 0 0 Z " fill="#084F7B" transform="translate(672,316)"/>
<path d="M0 0 C0.25692627 0.60996826 0.51385254 1.21993652 0.77856445 1.84838867 C1.95267872 4.62974195 3.13253047 7.40862602 4.3125 10.1875 C4.71662109 11.14720703 5.12074219 12.10691406 5.53710938 13.09570312 C5.93349609 14.02705078 6.32988281 14.95839844 6.73828125 15.91796875 C7.28029175 17.19837036 7.28029175 17.19837036 7.83325195 18.50463867 C8.96367976 21.08270077 8.96367976 21.08270077 10.70385742 23.56762695 C12 26 12 26 11.99853516 28.12524414 C10.54679673 30.85089191 8.75447411 31.58974366 6.0234375 32.99609375 C4.4470752 33.82343018 4.4470752 33.82343018 2.83886719 34.66748047 C1.12425293 35.54364014 1.12425293 35.54364014 -0.625 36.4375 C-2.42228158 37.37555323 -4.21675585 38.31882134 -6.01098633 39.26269531 C-7.23339127 39.90570484 -8.45654436 40.54729401 -9.68041992 41.1875 C-15.27866993 44.12244673 -20.76896463 47.22829757 -26.25 50.375 C-35.71656442 55.78173357 -45.30667356 60.92788799 -54.94064331 66.02719116 C-63.30530057 70.45718502 -71.59740353 74.98363114 -79.8125 79.6875 C-88.67341762 84.75678365 -97.66326646 89.52352839 -106.73779297 94.19824219 C-113.51820162 97.69529506 -120.24835162 101.26896296 -126.9375 104.9375 C-128.27687622 105.67202393 -128.27687622 105.67202393 -129.64331055 106.42138672 C-130.99743042 107.16412842 -130.99743042 107.16412842 -132.37890625 107.921875 C-149.48890969 117.30662605 -166.72276641 126.46318065 -183.96313477 135.60546875 C-190.41937821 139.02993907 -196.87175112 142.46104843 -203.30859375 145.921875 C-203.89425613 146.23671844 -204.47991852 146.55156189 -205.08332825 146.87594604 C-206.82639928 147.81310507 -208.56944974 148.75030236 -210.3125 149.6875 C-221.00754061 155.4364006 -231.76159512 161.06195492 -242.56176758 166.61010742 C-244.15734497 167.43152222 -244.15734497 167.43152222 -245.78515625 168.26953125 C-246.72238525 168.75010986 -247.65961426 169.23068848 -248.62524414 169.72583008 C-251.15579176 171.03496065 -251.15579176 171.03496065 -254 173 C-256.69921875 173.1953125 -256.69921875 173.1953125 -259.6875 173.125 C-260.68136719 173.10695313 -261.67523437 173.08890625 -262.69921875 173.0703125 C-263.45847656 173.04710937 -264.21773437 173.02390625 -265 173 C-265.23925781 170.68139648 -265.23925781 170.68139648 -265 168 C-263.40917969 166.42993164 -263.40917969 166.42993164 -261.171875 165.09765625 C-259.9334082 164.3399292 -259.9334082 164.3399292 -258.66992188 163.56689453 C-257.78884766 163.04981934 -256.90777344 162.53274414 -256 162 C-254.27561382 160.93689159 -252.55166374 159.87307551 -250.828125 158.80859375 C-248.96974313 157.68325414 -247.1103254 156.5596238 -245.25 155.4375 C-227.08744457 144.4296696 -209.07334171 133.18669202 -191.0703125 121.92041016 C-187.98539953 119.99086774 -184.89916882 118.06345094 -181.8125 116.13671875 C-163.14058475 104.48030586 -144.53072772 92.72904698 -125.97119141 80.89453125 C-123.92429736 79.58936298 -121.87707756 78.2847055 -119.82958984 76.98046875 C-116.57280385 74.90534847 -113.31748506 72.8279438 -110.0625 70.75 C-109.0813623 70.12512695 -108.10022461 69.50025391 -107.08935547 68.85644531 C-99.69720472 64.13207359 -92.39314717 59.2844239 -85.10275269 54.40545654 C-82.10141922 52.39939858 -79.09551309 50.40024077 -76.08961487 48.40103149 C-72.80881694 46.21894028 -69.52918724 44.03509605 -66.24951172 41.85131836 C-64.59061059 40.74705862 -62.93143331 39.64321363 -61.27197266 38.53979492 C-39.92396148 24.37258259 -39.92396148 24.37258259 -18.9453125 9.66796875 C-18.12675781 9.07822266 -17.30820313 8.48847656 -16.46484375 7.88085938 C-14.84492259 6.70851242 -13.23069101 5.52827848 -11.62109375 4.34179688 C-10.42033203 3.48231445 -10.42033203 3.48231445 -9.1953125 2.60546875 C-8.50453613 2.10168701 -7.81375977 1.59790527 -7.10205078 1.07885742 C-4.57846397 -0.21634933 -2.79874628 -0.20366177 0 0 Z " fill="#D03027" transform="translate(1185,452)"/>
<path d="M0 0 C3.77593085 2.95507632 5.54665909 6.05794603 7.06640625 10.6171875 C7.7082931 16.07322576 6.70904737 19.29416655 3.67578125 23.69921875 C-5.59205232 34.74413691 -20.06988939 37.64320021 -33.765625 38.87109375 C-36.18986768 38.92983953 -38.518495 38.83212347 -40.93359375 38.6171875 C-41.87460937 38.53597656 -42.815625 38.45476562 -43.78515625 38.37109375 C-53.09386457 37.20449852 -62.29364724 34.10071227 -68.62109375 26.8671875 C-72.11472032 21.95722584 -72.87260547 18.58595507 -71.93359375 12.6171875 C-68.79330636 5.04574358 -63.20470573 0.95274656 -55.93359375 -2.3828125 C-37.96645332 -9.3638185 -16.7976439 -10.83892913 0 0 Z " fill="#014A77" transform="translate(747.93359375,267.3828125)"/>
<path d="M0 0 C3.22304334 2.42668242 3.93801621 3.60918962 4.58105469 7.66357422 C4.63430995 9.12662275 4.66316276 10.59069596 4.671875 12.0546875 C4.6851886 12.83385529 4.6985022 13.61302307 4.71221924 14.415802 C4.73243395 16.061448 4.74185444 17.70725732 4.74121094 19.35302734 C4.74995407 21.86182037 4.8225558 24.36354849 4.8984375 26.87109375 C5.06362567 38.42760031 5.06362567 38.42760031 2.37695312 42.39941406 C0.30180294 44.02847619 -1.54850054 45.04347543 -4 46 C-4.99515625 46.43699219 -5.9903125 46.87398438 -7.015625 47.32421875 C-16.34457716 49.43666472 -27.28372618 50.54558366 -36 46 C-42.75670103 41.53869392 -46.49497106 36.1421822 -48.75 28.4375 C-49.60378536 20.11309273 -48.3293797 12.91264451 -43.5625 5.87890625 C-33.44786461 -5.42711648 -12.77273478 -7.49703998 0 0 Z M-29 6 C-29.33 6.66 -29.66 7.32 -30 8 C-23.73 7.67 -17.46 7.34 -11 7 C-16.66955982 1.33044018 -22.83508359 0.45157523 -29 6 Z M-34 12 C-36.8265114 19.06627849 -36.8265114 24.93372151 -34 32 C-33.67 32 -33.34 32 -33 32 C-33 25.4 -33 18.8 -33 12 C-33.33 12 -33.66 12 -34 12 Z M-27 13 C-27 15.64 -27 18.28 -27 21 C-26.67 21 -26.34 21 -26 21 C-26 18.36 -26 15.72 -26 13 C-26.33 13 -26.66 13 -27 13 Z M-21 13 C-21 15.31 -21 17.62 -21 20 C-19.68 19.67 -18.36 19.34 -17 19 C-16.3185177 17.10820797 -16.3185177 17.10820797 -16 15 C-16.66 14.34 -17.32 13.68 -18 13 C-18.99 13 -19.98 13 -21 13 Z M-11 13 C-10.34 14.32 -9.68 15.64 -9 17 C-9.33 15.68 -9.66 14.36 -10 13 C-10.33 13 -10.66 13 -11 13 Z M2 13 C3 15 3 15 3 15 Z M-4 17 C-4.2475 17.78375 -4.495 18.5675 -4.75 19.375 C-6.15389099 22.32317108 -7.00675737 22.9024777 -10 24 C-8.87548273 26.9719385 -7.77706209 29.33440687 -6 32 C-5.34 32 -4.68 32 -4 32 C-2.90493508 28.71480525 -2.90039392 26.26336585 -2.9375 22.8125 C-2.95103516 21.18248047 -2.95103516 21.18248047 -2.96484375 19.51953125 C-2.97644531 18.68808594 -2.98804688 17.85664063 -3 17 C-3.33 17 -3.66 17 -4 17 Z M-43 21 C-42 25 -42 25 -42 25 Z M-16 26 C-15 28 -15 28 -15 28 Z M-15 28 C-14.67 28.99 -14.34 29.98 -14 31 C-14 30.01 -14 29.02 -14 28 C-14.33 28 -14.66 28 -15 28 Z M-27 25 C-27.33 29.62 -27.66 34.24 -28 39 C-22.62318781 41.93126412 -22.62318781 41.93126412 -17 43 C-12.70200702 41.42042918 -12.70200702 41.42042918 -10 38 C-11.36125 37.9690625 -11.36125 37.9690625 -12.75 37.9375 C-16.37723731 36.89118154 -16.63257149 36.54629332 -18.375 33.4375 C-18.91125 32.303125 -19.4475 31.16875 -20 30 C-20.33 30 -20.66 30 -21 30 C-21 32.31 -21 34.62 -21 37 C-22.65 37 -24.3 37 -26 37 C-26 33.04 -26 29.08 -26 25 C-26.33 25 -26.66 25 -27 25 Z M-13 31 C-12 33 -12 33 -12 33 Z M-11 34 C-10 36 -10 36 -10 36 Z M-10 36 C-10 36.66 -10 37.32 -10 38 C-9.34 37.67 -8.68 37.34 -8 37 C-8.66 36.67 -9.32 36.34 -10 36 Z " fill="#034B78" transform="translate(1794,292)"/>
<path d="M0 0 C14.85155428 -0.47510896 27.60444834 0.55207239 40.1875 9.1875 C46.87898498 15.87898498 49.94221017 23.91039689 50.03125 33.29296875 C49.36221022 48.6307057 43.61955712 60.24219526 32.59375 70.80859375 C6.05635286 93.22949706 -31.83783604 97.12935282 -65 99 C-66.80923151 114.37426034 -66.92258625 129.13565877 -57 142 C-52.49494646 147.00201389 -47.21779513 149.60311752 -41 152 C-41 152.33 -41 152.66 -41 153 C-50.44692506 152.69526048 -57.29313337 149.18541146 -63.8125 142.3125 C-71.07561333 133.36667956 -73.17763518 123.72616322 -73.1875 112.5 C-73.19974609 111.76652344 -73.21199219 111.03304687 -73.22460938 110.27734375 C-73.23648354 105.85223745 -72.98399087 102.05560279 -71 98 C-68.11475389 96.49555024 -64.68835511 96.86032859 -61.4699707 96.76123047 C-29.90079897 95.71274374 8.39732109 88.05065615 30.9375 64.0625 C37.86656372 55.59552214 41.35775626 45.96839955 41.3125 35.125 C41.33666992 33.97837891 41.33666992 33.97837891 41.36132812 32.80859375 C41.36805188 24.88800785 39.0040212 18.2550265 34 12 C24.72735608 3.28625516 12.06633024 2.15061618 0 1 C0 0.67 0 0.34 0 0 Z " fill="#F7F9FB" transform="translate(1699,340)"/>
<path d="M0 0 C2.81883237 0.0031675 5.63661774 -0.02044577 8.45532227 -0.0456543 C22.29374328 -0.09252129 35.33919329 1.54442483 48.88696289 4.31567383 C48.88696289 4.64567383 48.88696289 4.97567383 48.88696289 5.31567383 C44.72186405 5.5049965 41.11504197 5.1886425 37.03540039 4.33129883 C27.19692214 2.65523525 17.21225714 2.92226359 7.26196289 2.94067383 C5.69010223 2.94099106 5.69010223 2.94099106 4.08648682 2.9413147 C-12.01318874 2.97378055 -27.34779536 3.8217862 -43.11303711 7.31567383 C-44.02504883 7.50291016 -44.93706055 7.69014648 -45.87670898 7.88305664 C-64.9291278 11.79765937 -83.0797235 17.87158967 -100.11303711 27.31567383 C-100.76143555 27.67419434 -101.40983398 28.03271484 -102.07788086 28.40209961 C-110.79339819 33.2840837 -118.58383968 38.7103043 -126.11303711 45.31567383 C-126.95350586 46.01176758 -127.79397461 46.70786133 -128.65991211 47.42504883 C-148.78006263 64.54592225 -161.92848527 91.10105174 -164.11303711 117.31567383 C-164.44303711 117.31567383 -164.77303711 117.31567383 -165.11303711 117.31567383 C-166.74266763 86.40283649 -166.74266763 86.40283649 -157.11303711 72.31567383 C-156.52780273 71.31020508 -155.94256836 70.30473633 -155.33959961 69.26879883 C-150.18679224 60.51144545 -143.28667383 53.43361461 -136.11303711 46.31567383 C-135.37827148 45.57188477 -134.64350586 44.8280957 -133.88647461 44.06176758 C-99.34619762 10.81534461 -46.40652693 -0.10854858 0 0 Z " fill="#F5F8FA" transform="translate(165.113037109375,255.684326171875)"/>
<path d="M0 0 C15.11575351 -0.82952306 15.11575351 -0.82952306 21 4 C25.50947579 8.20000196 26.40030043 12.79407345 26.6875 18.8125 C26.50960741 25.96922996 25.16791589 32.78533829 23.59375 39.75 C23.20439522 41.48525688 23.20439522 41.48525688 22.80717468 43.25556946 C19.02237864 59.70705969 14.36196585 75.93502694 9.8125 92.1875 C8.2330654 97.83113238 6.65845899 103.47603643 5.09464073 109.12401772 C4.48031952 111.33418368 3.85810283 113.54201207 3.23530579 115.74980164 C-2.65577292 133.86997349 -2.65577292 133.86997349 -1 152 C-3.875 151.6875 -3.875 151.6875 -7 151 C-10.51484127 145.7277381 -9.52514308 139.15085846 -8.51025391 133.06152344 C-7.84780768 130.14276035 -7.10304233 127.26163751 -6.3125 124.375 C-6.03994385 123.33520996 -5.7673877 122.29541992 -5.48657227 121.22412109 C-4.67423778 118.14468008 -3.84099401 115.07172295 -3 112 C-2.77086914 111.15501953 -2.54173828 110.31003906 -2.30566406 109.43945312 C-1.09864566 104.99718447 0.13916744 100.56429143 1.39550781 96.13574219 C3.29288973 89.4320681 5.14256368 82.71482787 7 76 C7.2386377 75.13858398 7.47727539 74.27716797 7.72314453 73.38964844 C10.50702538 63.32415092 13.23983961 53.24678699 15.8125 43.125 C16.1228418 41.92254639 16.1228418 41.92254639 16.43945312 40.69580078 C18.81958488 31.20532591 22.07343377 17.9169347 17.3125 8.875 C12.54014004 2.94179572 7.21369285 2.1906095 0 1 C0 0.67 0 0.34 0 0 Z " fill="#F8FAFB" transform="translate(1574,340)"/>
<path d="M0 0 C1.65 0 3.3 0 5 0 C2.69555299 40.98353776 -9.48076893 76.82888843 -38 107 C-38.74636719 107.81082031 -39.49273438 108.62164062 -40.26171875 109.45703125 C-65.29794267 135.73472082 -101.26742877 148.50725551 -137 150 C-137.94617187 150.04125 -138.89234375 150.0825 -139.8671875 150.125 C-148.66949373 150.31583591 -157.29321457 149.15540281 -166 148 C-166 147.67 -166 147.34 -166 147 C-165.10506836 147.01571045 -164.21013672 147.0314209 -163.28808594 147.04760742 C-137.9875788 147.53153117 -137.9875788 147.53153117 -113 144 C-112.2373584 143.82839355 -111.4747168 143.65678711 -110.68896484 143.47998047 C-74.95997069 135.11405779 -44.07953472 113.19145534 -24.4765625 82.19140625 C-8.86057593 56.39836092 -3.57717072 29.44576322 0 0 Z " fill="#F5F8F9" transform="translate(1437,367)"/>
<path d="M0 0 C15.7597015 -0.12510755 31.49640037 0.01369327 47.25 0.4375 C48.0272644 0.45714813 48.80452881 0.47679626 49.60534668 0.49703979 C51.84642589 0.55468194 54.08726223 0.61812181 56.328125 0.68359375 C57.6162207 0.72025146 58.90431641 0.75690918 60.23144531 0.79467773 C64.20210075 1.01101106 68.06150182 1.46275826 72 2 C71.37386281 12.07924835 69.58315002 21.93979316 67.85717773 31.8737793 C67.53153925 33.76693943 67.20628312 35.66016537 66.88137817 37.55345154 C66.00310572 42.66488031 65.11952129 47.77537781 64.23494601 52.88571906 C63.30961078 58.23698228 62.38921112 63.58909428 61.46827698 68.94111633 C59.72577549 79.06323429 57.978867 89.18458642 56.23035532 99.3056677 C54.2390317 110.83352874 52.25265079 122.36223971 50.26667488 133.89102304 C46.18326373 157.59496302 42.09302661 181.29771832 38 205 C13.58 205 -10.84 205 -36 205 C-36 204.67 -36 204.34 -36 204 C-12.57 204 10.86 204 35 204 C35.66 198.72 36.32 193.44 37 188 C37.53035833 184.49898332 38.07449866 181.00986258 38.6640625 177.51953125 C38.81692719 176.59980026 38.96979187 175.68006927 39.12728882 174.73246765 C39.62292691 171.75853015 40.12369885 168.78548772 40.625 165.8125 C40.98048602 163.69010706 41.33595442 161.56771117 41.69140625 159.4453125 C44.19886154 144.52380858 46.82132607 129.62434647 49.49734497 114.73226929 C52.13455474 100.04818337 54.63348023 85.3448863 57.0625 70.625 C59.5898094 55.31520319 62.19163734 40.02222318 64.9375 24.75 C65.08720245 23.91527161 65.23690491 23.08054321 65.3911438 22.22052002 C65.80956153 19.89144138 66.23030759 17.56280042 66.65234375 15.234375 C66.77487518 14.55448517 66.89740662 13.87459534 67.02365112 13.17410278 C67.58759504 10.0853239 68.21982725 7.04068655 69 4 C68.41578781 3.98969254 67.83157562 3.97938507 67.22966003 3.96876526 C61.04682893 3.85902328 54.86409597 3.74460268 48.68139648 3.62768555 C46.38617035 3.58486357 44.09092299 3.54316211 41.7956543 3.50268555 C27.84422439 3.25578456 13.92820173 2.85652187 0 2 C0 1.34 0 0.68 0 0 Z " fill="#E3EBF0" transform="translate(1111,258)"/>
<path d="M0 0 C21.12 0 42.24 0 64 0 C64 0.66 64 1.32 64 2 C43.87 2 23.74 2 3 2 C2.319375 6.49625 1.63875 10.9925 0.9375 15.625 C-0.92790353 27.70612461 -2.997983 39.73524462 -5.25 51.75 C-8.10708067 66.99965313 -10.80806243 82.27195608 -13.4375 97.5625 C-16.33204629 114.38281085 -19.25521166 131.19722188 -22.25 148 C-22.40467743 148.86803253 -22.55935486 149.73606506 -22.71871948 150.63040161 C-23.81039673 156.75397487 -24.90532863 162.87696013 -26 169 C-27.65 178.24 -29.3 187.48 -31 197 C-8.56 197 13.88 197 37 197 C37 197.33 37 197.66 37 198 C13.24 198 -10.52 198 -35 198 C-32.70251228 181.91758594 -32.70251228 181.91758594 -31.55137634 175.46516418 C-31.41969938 174.71619596 -31.28802242 173.96722773 -31.15235525 173.1955635 C-30.72083496 170.7443285 -30.28610517 168.29367509 -29.85131836 165.84301758 C-29.53718908 164.06262504 -29.22325531 162.282198 -28.90950012 160.5017395 C-28.06461113 155.71081768 -27.21685096 150.92040823 -26.36841273 146.13011384 C-25.47863964 141.10429668 -24.59113504 136.07807883 -23.70326233 131.05192566 C-22.21455428 122.62669057 -20.72391964 114.20179802 -19.23217773 105.77709961 C-17.50708726 96.03438249 -15.78531967 86.2910824 -14.06524557 76.5474785 C-12.58577443 68.16730408 -11.10453414 59.7874438 -9.62180239 51.40784568 C-8.7372172 46.40864221 -7.85324641 41.40933222 -6.97086906 36.40973854 C-6.14309107 31.72008571 -5.31309679 27.03083052 -4.48136711 22.34187698 C-4.17621712 20.61944213 -3.8718468 18.89686895 -3.56830215 17.17415047 C-3.15484824 14.82839428 -2.73860938 12.4831492 -2.32164001 10.13801575 C-2.20140675 9.45204231 -2.08117349 8.76606887 -1.95729679 8.05930835 C-1.4602531 5.27866883 -0.89521694 2.68565081 0 0 Z " fill="#F7F9FB" transform="translate(456,316)"/>
<path d="M0 0 C-1.72392856 1.14928571 -3.46363331 2.27704917 -5.2421875 3.33984375 C-23.47717586 14.40528921 -38.60378777 30.54399614 -53.625 45.5 C-54.35871826 46.22904541 -55.09243652 46.95809082 -55.84838867 47.70922852 C-59.79163257 51.66423384 -63.5690948 55.69902611 -67.17724609 59.96289062 C-69 62 -69 62 -71.97955322 64.63723755 C-75.2830421 67.94615882 -76.33058806 71.31226763 -77.14990234 75.84130859 C-77.30683563 76.60296326 -77.46376892 77.36461792 -77.62545776 78.14935303 C-78.13413166 80.64521901 -78.61015003 83.14611357 -79.0859375 85.6484375 C-79.43408126 87.38904354 -79.78426054 89.12924357 -80.13638306 90.86904907 C-81.05425711 95.43212825 -81.94449842 100.00017182 -82.82897949 104.56982422 C-83.73776134 109.23868335 -84.67272953 113.90228553 -85.60546875 118.56640625 C-87.42923629 127.70604596 -89.22138197 136.85146666 -91 146 C-100.9 146 -110.8 146 -121 146 C-121 145.67 -121 145.34 -121 145 C-113.08 144.67 -105.16 144.34 -97 144 C-93.88809136 129.99641113 -90.9691979 115.97859255 -88.31982422 101.88061523 C-87.84149514 99.35972353 -87.33319774 96.8443942 -86.80029297 94.33447266 C-86.15485577 91.15585495 -85.81440028 88.03366571 -85.54736328 84.80224609 C-83.44007078 65.8038459 -71.85374223 55.60623727 -58.58331299 43.23077393 C-55.73373415 40.55223702 -52.94106614 37.81563004 -50.140625 35.0859375 C-27.15701417 12.80191252 -27.15701417 12.80191252 -14.5 4.5 C-13.5203125 3.8503125 -12.540625 3.200625 -11.53125 2.53125 C-7.54154322 0.11772368 -4.58358848 -0.10185752 0 0 Z " fill="#F8FAFB" transform="translate(1556,364)"/>
<path d="M0 0 C0.99 0.495 0.99 0.495 2 1 C0.76636719 1.90878906 0.76636719 1.90878906 -0.4921875 2.8359375 C-18.42556793 16.2144229 -30.75937253 32.2470118 -41 52 C-41.60457031 53.155 -42.20914062 54.31 -42.83203125 55.5 C-51.45617363 72.94296067 -56.98267288 91.81113221 -60 111 C-60.1750708 112.09884521 -60.3501416 113.19769043 -60.53051758 114.32983398 C-61.23891201 119.86768814 -61.22426551 125.37160456 -61.24023438 130.94873047 C-61.24984555 132.96755721 -61.28089016 134.98532151 -61.3125 137.00390625 C-61.40302033 160.15448057 -54.13810775 182.318445 -39 200 C-38.04867188 201.25490234 -38.04867188 201.25490234 -37.078125 202.53515625 C-31.07089126 209.66027747 -22.3841194 214.21714353 -14 218 C-17 219 -17 219 -19.56640625 218.06640625 C-40.57831319 207.5193604 -53.00711161 190.75163903 -61 169 C-61.29648438 168.19433594 -61.59296875 167.38867188 -61.8984375 166.55859375 C-74.13439433 129.79014921 -62.12392737 85.06665337 -45.453125 51.61328125 C-34.57591511 30.65917651 -19.83807418 12.87298231 0 0 Z " fill="#F1F5F7" transform="translate(1295,279)"/>
<path d="M0 0 C18.96025827 16.57387191 29.59904291 40.55498 32.75 65.3125 C32.94621437 69.33062905 32.955416 73.295476 32.75 77.3125 C30.275 77.8075 30.275 77.8075 27.75 78.3125 C27.66363281 77.16136719 27.57726563 76.01023437 27.48828125 74.82421875 C25.06369129 46.0375569 15.40305653 21.7942342 -5.9375 1.6875 C-17.50130388 -8.06011997 -32.62623447 -14.41504897 -47.25 -17.6875 C-48.14074219 -17.89375 -49.03148437 -18.1 -49.94921875 -18.3125 C-69.47833306 -22.06709608 -90.15626305 -20.42947485 -109.0546875 -14.4921875 C-112.0707078 -13.73265182 -113.41774729 -13.55459891 -116.25 -14.6875 C-77.11205219 -26.77773296 -32.99768317 -27.5680238 0 0 Z " fill="#F4F7F9" transform="translate(1408.25,279.6875)"/>
<path d="M0 0 C1.0706369 -0.00971832 2.1412738 -0.01943665 3.24435425 -0.02944946 C24.99877926 -0.19703039 51.14864222 0.00889107 68.3125 15.5 C74.16870675 21.80563657 75.83507427 28.71958808 75.69848633 37.125 C75.35933395 42.57146189 74.45171243 47.90407296 73.50588989 53.27426147 C73.11224426 55.50994539 72.73085597 57.74747603 72.35131836 59.9855957 C70.80225201 69.06305933 69.17665966 78.12644477 67.53564453 87.18768311 C66.60413585 92.33851756 65.68126257 97.49088858 64.75823975 102.64324951 C64.07038464 106.45629244 63.36771828 110.26641582 62.66455078 114.07666016 C62.23534379 116.46114453 61.80676783 118.8457426 61.37890625 121.23046875 C61.17402084 122.31667007 60.96913544 123.4028714 60.75804138 124.52198792 C59.65281752 130.78031379 59.25786489 136.04956507 60.5 142.3125 C62.95817955 145.10495093 62.95817955 145.10495093 65.5 147.3125 C65.5 148.6325 65.5 149.9525 65.5 151.3125 C56.42818764 152.24637861 47.44165399 152.44603929 38.328125 152.41015625 C36.91038056 152.40828571 35.49263546 152.40686482 34.07489014 152.40586853 C30.38592672 152.40209336 26.69700417 152.39230728 23.00805664 152.38116455 C19.22673088 152.37084144 15.44539836 152.36634782 11.6640625 152.36132812 C4.27602326 152.35067928 -3.11198259 152.33366484 -10.5 152.3125 C-10.17 151.6525 -9.84 150.9925 -9.5 150.3125 C14.59 150.3125 38.68 150.3125 63.5 150.3125 C63.5 149.3225 63.5 148.3325 63.5 147.3125 C62.6028125 146.9721875 62.6028125 146.9721875 61.6875 146.625 C58.69956265 144.83223759 57.85002526 143.55256063 56.5 140.3125 C55.97038622 133.78187472 56.7571277 127.51363028 58.00390625 121.1171875 C58.1626976 120.26294693 58.32148895 119.40870636 58.48509216 118.52857971 C58.82634046 116.69752824 59.17149794 114.86720163 59.52026367 113.03756714 C60.0720084 110.13752256 60.61099008 107.23536197 61.14648438 104.33227539 C62.60441371 96.4362687 64.07935111 88.5434952 65.56591797 80.65283203 C66.40449536 76.19498932 67.22595621 71.73426134 68.03683472 67.27130127 C68.33961112 65.623098 68.64854085 63.97601012 68.96438599 62.33026123 C70.63747667 53.60650632 71.79495248 45.05465441 71.9375 36.16015625 C71.95973633 35.39207138 71.98197266 34.62398651 72.00488281 33.83262634 C71.98006485 27.53338811 70.1947769 22.31851219 65.94750977 17.58070374 C57.14963697 9.09923787 43.19913294 5.38809233 31.39453125 3.640625 C30.54010941 3.51407532 29.68568756 3.38752563 28.80537415 3.25714111 C19.26571779 1.97157727 9.76020247 1.92903565 0.1496582 2.03125 C-2.8554305 2.06295291 -5.85999336 2.07229571 -8.86523438 2.078125 C-10.80208972 2.08727831 -12.73893978 2.09764868 -14.67578125 2.109375 C-15.56123123 2.11362488 -16.44668121 2.11787476 -17.35896301 2.12225342 C-22.17043433 2.17755802 -26.73328089 2.59900478 -31.5 3.3125 C-34.36477703 3.50703187 -37.23248694 3.60411406 -40.1015625 3.71484375 C-50.76879708 4.20424396 -61.29161451 5.49942792 -71.875 6.875 C-74.62010292 7.22743798 -77.36543447 7.57783991 -80.11123657 7.92478943 C-81.79785932 8.13831242 -83.48406997 8.35512614 -85.16976929 8.57582092 C-88.97483626 9.06139211 -92.65385963 9.44295107 -96.5 9.3125 C-92.80991349 6.85244233 -89.48310098 6.59440451 -85.1875 6.09375 C-84.35593887 5.99084152 -83.52437775 5.88793304 -82.6676178 5.78190613 C-79.94617224 5.44879507 -77.22340297 5.12918856 -74.5 4.8125 C-73.56364716 4.70233551 -72.62729431 4.59217102 -71.66256714 4.47866821 C-66.07860505 3.82398116 -60.49257625 3.19067325 -54.9039917 2.57672119 C-52.84466021 2.35038138 -50.78580484 2.11971682 -48.72705078 1.88818359 C-32.52541314 0.13591836 -16.27891025 0.08726851 0 0 Z " fill="#C4D5DF" transform="translate(1000.5,311.6875)"/>
<path d="M0 0 C5.42124698 0.38723193 8.40658008 1.89323437 12 6 C12.95185151 10.27172384 12.63425457 13.6720295 10.75 17.6171875 C6.09550462 23.95478166 -2.5875322 25.32517037 -9.953125 26.49609375 C-10.72703079 26.62186295 -11.50093658 26.74763214 -12.29829407 26.87721252 C-23.53084054 28.63223078 -34.8614938 29.63070326 -46.1730957 30.72680664 C-89.90240073 34.32016176 -89.90240073 34.32016176 -126 57 C-131.62220577 64.07528794 -134.72025572 72.39372465 -134.328125 81.46875 C-132.97170376 91.93257102 -126.81662076 98.5053849 -119 105 C-106.84693726 113.6807591 -89.87710274 113.46510769 -75.5 113.6875 C-73.98304603 113.72080216 -72.46611788 113.75530278 -70.94921875 113.79101562 C-67.29967029 113.87440639 -63.65004918 113.94188433 -60 114 C-60 114.33 -60 114.66 -60 115 C-65.29782134 115.07511089 -70.59532124 115.12904757 -75.89355469 115.16479492 C-77.68950817 115.17972375 -79.48542623 115.20007424 -81.28125 115.22631836 C-100.26005289 115.49638503 -116.42985564 113.91071403 -130.80078125 100.26171875 C-136.90169451 93.98742252 -139.36476295 88.39951491 -140.375 79.8125 C-139.18147935 67.67837337 -134.33224685 57.18802199 -124.9375 49.3125 C-103.07178175 33.64145404 -76.25915642 31.42670254 -50.30078125 28.78125 C-48.75106628 28.62209106 -48.75106628 28.62209106 -47.17004395 28.4597168 C-41.97297792 27.92813704 -36.7751477 27.41297846 -31.57373047 26.92578125 C-18.875603 25.69391621 -6.31818104 24.41648011 5 18 C7.06520632 14.90219052 7.29477024 14.0459519 7.3125 10.5 C7.33763672 9.33984375 7.33763672 9.33984375 7.36328125 8.15625 C6.68100523 4.10661169 3.16471669 2.2916914 0 0 Z " fill="#F1F5F7" transform="translate(351,349)"/>
<path d="M0 0 C0.33 0 0.66 0 1 0 C1.08636719 0.57105469 1.17273438 1.14210938 1.26171875 1.73046875 C4.67973468 21.45461575 14.94881824 36.90494752 31.0625 48.5625 C45.89201011 58.66775814 62.69889598 65.28493054 80 69.75 C80.75764648 69.94875732 81.51529297 70.14751465 82.29589844 70.35229492 C99.80380414 74.63384042 117.5888019 74.41190358 135.5 74.625 C138.1732061 74.66226656 140.84636172 74.70231384 143.51953125 74.7421875 C150.01291923 74.83732777 156.50637743 74.92261236 163 75 C163 75.33 163 75.66 163 76 C153.33466878 76.38359347 143.66865836 76.71478146 134 77 C132.45868408 77.04737305 132.45868408 77.04737305 130.88623047 77.09570312 C91.9321579 78.15678839 45.56080403 70.69114634 16 43 C15.27683594 42.35546875 14.55367187 41.7109375 13.80859375 41.046875 C8.3949684 35.99278833 0.27766787 27.49483807 -0.11352539 19.75341797 C-0.10828857 18.84221191 -0.10305176 17.93100586 -0.09765625 16.9921875 C-0.09443359 16.00605469 -0.09121094 15.01992188 -0.08789062 14.00390625 C-0.07951172 12.97136719 -0.07113281 11.93882812 -0.0625 10.875 C-0.05798828 9.83472656 -0.05347656 8.79445313 -0.04882812 7.72265625 C-0.03701952 5.14838038 -0.02055075 2.57421854 0 0 Z " fill="#ECF1F5" transform="translate(0,390)"/>
<path d="M0 0 C1.83111328 -0.03867187 1.83111328 -0.03867187 3.69921875 -0.078125 C7.60810462 0.27684409 9.97876688 1.22206146 13.3125 3.25 C15.08289094 5.55920557 15.32625756 6.72721264 15.25 9.625 C13.95402428 13.25373203 11.89675905 15.40068874 9.3125 18.25 C9.745625 18.94867188 10.17875 19.64734375 10.625 20.3671875 C11.181875 21.27726562 11.73875 22.18734375 12.3125 23.125 C12.869375 24.02992188 13.42625 24.93484375 14 25.8671875 C15.3125 28.25 15.3125 28.25 15.3125 30.25 C12.5625 30.625 12.5625 30.625 9.3125 30.25 C6.9375 27.25 6.9375 27.25 5.3125 24.25 C4.9825 25.9 4.6525 27.55 4.3125 29.25 C3.508125 29.229375 2.70375 29.20875 1.875 29.1875 C-0.62104885 28.95366379 -0.62104885 28.95366379 -1.6875 30.25 C-3.35367115 30.29063832 -5.02138095 30.292721 -6.6875 30.25 C-7.68750799 26.92276389 -7.81647955 23.89213988 -7.8203125 20.42578125 C-7.82160156 19.31525391 -7.82289062 18.20472656 -7.82421875 17.06054688 C-7.82035156 15.90619141 -7.81648438 14.75183594 -7.8125 13.5625 C-7.81636719 12.39654297 -7.82023437 11.23058594 -7.82421875 10.02929688 C-7.82292969 8.92263672 -7.82164063 7.81597656 -7.8203125 6.67578125 C-7.81918457 5.65911377 -7.81805664 4.64244629 -7.81689453 3.5949707 C-7.55189098 -1.20759372 -4.09146066 0.05130358 0 0 Z M-1.6875 5.25 C-1.6875 7.89 -1.6875 10.53 -1.6875 13.25 C-1.3575 13.25 -1.0275 13.25 -0.6875 13.25 C-0.6875 10.61 -0.6875 7.97 -0.6875 5.25 C-1.0175 5.25 -1.3475 5.25 -1.6875 5.25 Z M4.3125 5.25 C4.3125 7.56 4.3125 9.87 4.3125 12.25 C5.6325 11.92 6.9525 11.59 8.3125 11.25 C8.9939823 9.35820797 8.9939823 9.35820797 9.3125 7.25 C8.6525 6.59 7.9925 5.93 7.3125 5.25 C6.3225 5.25 5.3325 5.25 4.3125 5.25 Z " fill="#034B79" transform="translate(1768.6875,299.75)"/>
<path d="M0 0 C-2 2 -2 2 -5.375 3.5 C-32.42214308 16.90129693 -48.26536365 52.23757532 -58 79 C-59.98 79 -61.96 79 -64 79 C-63.4600722 73.29326309 -61.88279769 68.75452656 -59.5 63.5625 C-59.14470215 62.7797168 -58.7894043 61.99693359 -58.42333984 61.19042969 C-50.4133591 43.85586639 -40.43633444 27.67456732 -27 14 C-26.29359375 13.28070313 -25.5871875 12.56140625 -24.859375 11.8203125 C-18.00594288 5.28736462 -9.78974312 -0.58013293 0 0 Z " fill="#F8FAFB" transform="translate(1695,350)"/>
<path d="M0 0 C2.91517292 1.07401108 4.77810176 1.77810176 7 4 C5.56779407 16.86177087 -9.06318493 30.89540626 -18.375 38.875 C-36.3683192 52.81787505 -56.27238472 59.24272975 -79 58 C-80.67504831 57.71172572 -82.34790468 57.39933688 -84 57 C-84 56.67 -84 56.34 -84 56 C-82.15148438 55.94392578 -82.15148438 55.94392578 -80.265625 55.88671875 C-55.788287 54.98712639 -34.2315231 47.0315581 -17 29 C-5.3900938 15.94171692 -5.3900938 15.94171692 0 0 Z " fill="#F8FAFB" transform="translate(1726,458)"/>
<path d="M0 0 C0 0.33 0 0.66 0 1 C-1.63364502 0.89389404 -1.63364502 0.89389404 -3.30029297 0.78564453 C-13.49113717 0.15365309 -23.63781459 -0.15873177 -33.84765625 -0.13037109 C-36.10423651 -0.12504897 -38.36061346 -0.13034425 -40.6171875 -0.13671875 C-62.54027106 -0.15276086 -84.0622327 1.33447905 -105.8125 4.0625 C-109.25792718 4.48597783 -112.7036646 4.90680895 -116.14958191 5.32627869 C-118.26673032 5.58489293 -120.38354131 5.84628919 -122.49995422 6.1108551 C-123.91500496 6.28620033 -123.91500496 6.28620033 -125.35864258 6.46508789 C-126.18560135 6.56866104 -127.01256012 6.67223419 -127.86457825 6.77894592 C-130 7 -130 7 -133 7 C-133.16000488 7.55872803 -133.32000977 8.11745605 -133.48486328 8.69311523 C-135.69366213 16.24174224 -138.22523183 23.65826792 -140.875 31.0625 C-141.29652344 32.29677734 -141.71804687 33.53105469 -142.15234375 34.80273438 C-142.57386719 35.97255859 -142.99539062 37.14238281 -143.4296875 38.34765625 C-143.80335449 39.40992432 -144.17702148 40.47219238 -144.56201172 41.56665039 C-146 44 -146 44 -148.66064453 44.85327148 C-149.43263184 44.90169189 -150.20461914 44.9501123 -151 45 C-149.51542165 37.32260913 -147.22112993 29.98201483 -144.64379883 22.61352539 C-144.17037494 21.23874692 -143.71215144 19.8586457 -143.26879883 18.47387695 C-142.61917484 16.44919565 -141.92303768 14.44623834 -141.21484375 12.44140625 C-140.61337524 10.65778687 -140.61337524 10.65778687 -139.99975586 8.83813477 C-137.81000001 5.7303443 -137.3716549 5.49724978 -133.86987305 4.67358398 C-132.25091472 4.41969331 -130.62705245 4.19541461 -129 4 C-128.26339645 3.88979019 -127.52679291 3.77958038 -126.76786804 3.66603088 C-124.47091939 3.33306461 -122.1723821 3.05103674 -119.8671875 2.78125 C-119.0086618 2.67834152 -118.15013611 2.57543304 -117.26559448 2.46940613 C-114.4695551 2.13864783 -111.67253822 1.81782087 -108.875 1.5 C-107.91323853 1.38983551 -106.95147705 1.27967102 -105.96057129 1.16616821 C-91.90860835 -0.42587108 -77.87495711 -1.6203635 -63.75 -2.3125 C-62.96268494 -2.35165527 -62.17536987 -2.39081055 -61.36419678 -2.43115234 C-40.83005299 -3.42009925 -20.30287759 -3.63686329 0 0 Z " fill="#F8FAFB" transform="translate(396,314)"/>
<path d="M0 0 C-2.18241756 11.0760942 -4.53180363 22.11605596 -6.93835831 33.14541149 C-7.67161699 36.5082313 -8.39658606 39.87240217 -9.10302734 43.2409668 C-9.92513557 47.15951642 -10.78186351 51.06978678 -11.640625 54.98046875 C-11.88774231 56.18164841 -12.13485962 57.38282806 -12.38946533 58.6204071 C-13.9772578 65.69197831 -15.74865485 69.94394901 -21 75 C-22.24883757 71.25348728 -21.46596457 68.64198166 -20.59375 64.921875 C-20.43363434 64.21037292 -20.27351868 63.49887085 -20.10855103 62.76580811 C-19.5799741 60.42540539 -19.04017895 58.08774973 -18.5 55.75 C-18.13196781 54.13361866 -17.76462405 52.51708042 -17.39794922 50.90039062 C-16.64353427 47.57795164 -15.88496019 44.25649775 -15.12402344 40.93554688 C-14.05276178 36.24828873 -13.01092194 31.55489242 -11.9765625 26.859375 C-11.50883532 24.74652199 -11.04055943 22.63379152 -10.57202148 20.52111816 C-10.27544776 19.18021943 -9.98034822 17.83899375 -9.68676758 16.49743652 C-9.27792019 14.63261089 -8.86178444 12.76938766 -8.4453125 10.90625 C-8.21344238 9.85759766 -7.98157227 8.80894531 -7.74267578 7.72851562 C-7.0635501 5.23347663 -6.34568999 3.20238457 -5 1 C-3 0 -3 0 0 0 Z " fill="#F8FAFB" transform="translate(1501,340)"/>
<path d="M0 0 C1.0706369 -0.00971832 2.1412738 -0.01943665 3.24435425 -0.02944946 C24.99877926 -0.19703039 51.14864222 0.00889107 68.3125 15.5 C73.49085872 21.07576764 75.70779696 27.37794069 75.8125 34.9375 C75.63962818 39.43857001 75.17205823 43.86011424 74.5 48.3125 C73.84 48.3125 73.18 48.3125 72.5 48.3125 C72.4906543 47.71824219 72.48130859 47.12398438 72.47167969 46.51171875 C72.41747007 43.77785355 72.33392722 41.04560801 72.25 38.3125 C72.23582031 37.37792969 72.22164062 36.44335938 72.20703125 35.48046875 C71.93157779 27.60249985 70.18544589 21.69372883 64.4375 16.125 C55.25969902 8.89281422 42.79901321 5.32886152 31.39453125 3.640625 C30.54010941 3.51407532 29.68568756 3.38752563 28.80537415 3.25714111 C19.26571779 1.97157727 9.76020247 1.92903565 0.1496582 2.03125 C-2.8554305 2.06295291 -5.85999336 2.07229571 -8.86523438 2.078125 C-10.80208972 2.08727831 -12.73893978 2.09764868 -14.67578125 2.109375 C-15.56123123 2.11362488 -16.44668121 2.11787476 -17.35896301 2.12225342 C-22.17043433 2.17755802 -26.73328089 2.59900478 -31.5 3.3125 C-34.36477703 3.50703187 -37.23248694 3.60411406 -40.1015625 3.71484375 C-50.76879708 4.20424396 -61.29161451 5.49942792 -71.875 6.875 C-74.62010292 7.22743798 -77.36543447 7.57783991 -80.11123657 7.92478943 C-81.79785932 8.13831242 -83.48406997 8.35512614 -85.16976929 8.57582092 C-88.97483626 9.06139211 -92.65385963 9.44295107 -96.5 9.3125 C-92.80991349 6.85244233 -89.48310098 6.59440451 -85.1875 6.09375 C-84.35593887 5.99084152 -83.52437775 5.88793304 -82.6676178 5.78190613 C-79.94617224 5.44879507 -77.22340297 5.12918856 -74.5 4.8125 C-73.56364716 4.70233551 -72.62729431 4.59217102 -71.66256714 4.47866821 C-66.07860505 3.82398116 -60.49257625 3.19067325 -54.9039917 2.57672119 C-52.84466021 2.35038138 -50.78580484 2.11971682 -48.72705078 1.88818359 C-32.52541314 0.13591836 -16.27891025 0.08726851 0 0 Z " fill="#EBF1F4" transform="translate(1000.5,311.6875)"/>
<path d="M0 0 C-3 2 -6 4 -9 6 C-11.98170579 11.91433 -13.36187182 18.7187133 -11.3203125 25.13671875 C-10.79730558 26.48408421 -10.24527068 27.82078237 -9.65625 29.140625 C-9 31 -9 31 -9 35 C-8.175 35.103125 -7.35 35.20625 -6.5 35.3125 C-2.40710988 36.11646056 1.12540225 37.46352158 5 39 C5 39.66 5 40.32 5 41 C-1.47438551 41.59702325 -5.94884513 41.27159503 -11.3125 37.421875 C-16.3815328 33.15074551 -18.64431509 28.82091825 -19.2578125 22.23046875 C-19.50495573 15.6811732 -19.17960393 10.26410758 -15 5 C-10.52897496 0.8505568 -6.1338528 -1.97159554 0 0 Z " fill="#F8FAFB" transform="translate(1771,295)"/>
<path d="M0 0 C0.66 0 1.32 0 2 0 C2.98638701 2.77421348 3.34954155 4.12377241 3 7 C0.79459509 11.04118888 -2.05375754 14.47615812 -5 18 C-6.06541016 19.31097656 -6.06541016 19.31097656 -7.15234375 20.6484375 C-15.38353934 30.32344136 -24.73314529 38.1078659 -37.7421875 39.23828125 C-44.36886743 39.42075505 -44.36886743 39.42075505 -48 37 C-47.34515625 36.99742187 -46.6903125 36.99484375 -46.015625 36.9921875 C-33.22383895 36.45016267 -23.58202661 30.19796153 -15 21 C-10.21085373 15.39526584 -5.8161281 9.49921921 -2 3.1875 C-1.34 2.135625 -0.68 1.08375 0 0 Z " fill="#F5F7F9" transform="translate(1598,477)"/>
<path d="M0 0 C5.42124698 0.38723193 8.40658008 1.89323437 12 6 C12.95185151 10.27172384 12.63425457 13.6720295 10.75 17.6171875 C6.10545078 23.94123889 -2.55023208 25.31797219 -9.90234375 26.484375 C-10.67356567 26.60952484 -11.4447876 26.73467468 -12.23937988 26.86361694 C-22.77802599 28.51078389 -33.39177038 29.5426975 -44 30.625 C-46.0977086 30.84324743 -48.19536521 31.06199513 -50.29296875 31.28125 C-59.19319365 32.20883974 -68.09558097 33.11360284 -77 34 C-77 33.34 -77 32.68 -77 32 C-71.06334843 31.32423961 -65.12666044 30.64880028 -59.18994141 29.97363281 C-57.17886415 29.74487558 -55.16779613 29.51603716 -53.15673828 29.28710938 C-51.20334662 29.06475626 -49.24993683 28.84256242 -47.29650879 28.62052917 C-45.35267222 28.39939527 -43.40890585 28.17764348 -41.46520996 27.95527649 C-36.91551926 27.43637401 -32.36542923 26.92910723 -27.81054688 26.45776367 C-27.00197235 26.37267548 -26.19339783 26.28758728 -25.36032104 26.19992065 C-23.87555202 26.04455896 -22.39032795 25.89344983 -20.90457153 25.74783325 C-11.89555497 24.79756321 -2.90796102 22.50753778 5 18 C7.06520632 14.90219052 7.29477024 14.0459519 7.3125 10.5 C7.33763672 9.33984375 7.33763672 9.33984375 7.36328125 8.15625 C6.68100523 4.10661169 3.16471669 2.2916914 0 0 Z " fill="#E9EFF3" transform="translate(351,349)"/>
<path d="M0 0 C-3.84241177 1.28080392 -5.22117203 0.30805584 -9 -1 C-27.56743827 -4.13328978 -48.3025508 -3.58211268 -66 3 C-67.13050781 3.40734375 -68.26101563 3.8146875 -69.42578125 4.234375 C-80.79823927 8.68509555 -90.4163584 14.33971874 -99 23 C-98.67130576 19.16523381 -97.61218557 16.97276192 -94.75 14.37890625 C-70.6715298 -4.59363835 -28.6459658 -12.60422495 0 0 Z " fill="#E1E9EF" transform="translate(616,319)"/>
<path d="M0 0 C2.73156959 -0.16262928 5.45342122 -0.28110686 8.1875 -0.375 C8.95642578 -0.42527344 9.72535156 -0.47554688 10.51757812 -0.52734375 C16.10490282 -0.67122336 16.10490282 -0.67122336 18.64672852 1.23486328 C21.08497249 4.01707925 21.99338716 5.95738392 22.5625 9.625 C21.92055661 13.47666036 21.11071563 14.7127091 18 17 C17.34 17 16.68 17 16 17 C16.55880859 17.79664063 16.55880859 17.79664063 17.12890625 18.609375 C17.60199219 19.31578125 18.07507812 20.0221875 18.5625 20.75 C19.03816406 21.44609375 19.51382812 22.1421875 20.00390625 22.859375 C21 25 21 25 20.65234375 27.265625 C20.43707031 27.83796875 20.22179688 28.4103125 20 29 C18.68 29 17.36 29 16 29 C14.26171875 26.91796875 14.26171875 26.91796875 12.6875 24.1875 C12.15511719 23.29417969 11.62273437 22.40085937 11.07421875 21.48046875 C10 19 10 19 11 16 C11.97850195 14.97895449 12.97980427 13.9793879 14 13 C16.22274553 10.32186369 16.22274553 10.32186369 15.875 8 C14.71593617 5.35071124 13.44374138 4.53665772 11 3 C8.19735581 2.21736061 8.19735581 2.21736061 5.25 1.8125 C3.77273438 1.57466797 3.77273438 1.57466797 2.265625 1.33203125 C1.51796875 1.22246094 0.7703125 1.11289062 0 1 C0 0.67 0 0.34 0 0 Z " fill="#FBFCFD" transform="translate(1768,299)"/>
<path d="M0 0 C0.87398437 0.7425 0.87398437 0.7425 1.765625 1.5 C1.765625 2.49 1.765625 3.48 1.765625 4.5 C1.15976562 4.10167969 0.55390625 3.70335937 -0.0703125 3.29296875 C-14.07858595 -5.56457031 -29.13102407 -6.6236399 -45.296875 -3.375 C-54.10520175 -0.94394705 -62.24078529 3.06105812 -68.05859375 10.28125 C-70.78109236 15.41872246 -69.71989717 21.10260278 -68.234375 26.5 C-71.28673216 23.58035402 -72.42505966 21.67823632 -72.671875 17.4375 C-72.56795282 11.56117332 -70.21034859 7.71453201 -66.234375 3.5 C-48.13533112 -10.9407265 -19.39597574 -11.71077781 0 0 Z " fill="#F8FAFB" transform="translate(748.234375,267.5)"/>
<path d="M0 0 C0 0.33 0 0.66 0 1 C-1.08909668 0.9292627 -2.17819336 0.85852539 -3.30029297 0.78564453 C-14.25232286 0.10644769 -25.15349169 -0.16582422 -36.125 -0.125 C-37.33055038 -0.12167664 -37.33055038 -0.12167664 -38.56045532 -0.11828613 C-44.0405715 -0.10069629 -49.5201896 -0.05997276 -55 0 C-56.14871582 0.01256836 -57.29743164 0.02513672 -58.48095703 0.03808594 C-73.03659897 0.26613596 -87.36260619 1.82603091 -101.78198242 3.71582031 C-102.85276283 3.85263718 -102.85276283 3.85263718 -103.94517517 3.99221802 C-105.89944679 4.24290932 -107.85259875 4.50228479 -109.80566406 4.76220703 C-112.59243057 4.96965969 -114.39590002 4.91005243 -117 4 C-112.03350526 1.18553258 -106.7803802 1.07550722 -101.1875 0.5 C-99.37523926 0.30990356 -99.37523926 0.30990356 -97.52636719 0.1159668 C-86.61819319 -0.96080282 -75.69550481 -1.62455607 -64.75 -2.1875 C-63.93477875 -2.2302002 -63.1195575 -2.27290039 -62.27963257 -2.31689453 C-41.42752566 -3.38823976 -20.62738377 -3.69499222 0 0 Z " fill="#EAF0F3" transform="translate(396,314)"/>
<path d="M0 0 C-0.33 1.32 -0.66 2.64 -1 4 C-1 3.34 -1 2.68 -1 2 C-1.76484207 2.17095184 -2.52968414 2.34190369 -3.31770325 2.51803589 C-10.56885606 4.13835377 -17.82047359 5.75656876 -25.07260609 7.37249565 C-28.7998796 8.20308598 -32.52697599 9.03445355 -36.25366211 9.86767578 C-39.85831447 10.67358201 -43.46343909 11.47734418 -47.0688839 12.27969742 C-48.43596686 12.58430712 -49.80288558 12.88965503 -51.16962624 13.19579697 C-59.08685366 14.96863599 -67.00267612 16.62903759 -75 18 C-75.12117187 19.12019531 -75.24234375 20.24039062 -75.3671875 21.39453125 C-75.53603267 22.86723636 -75.70532697 24.33989004 -75.875 25.8125 C-75.95363281 26.55048828 -76.03226563 27.28847656 -76.11328125 28.04882812 C-76.54460286 31.71506181 -76.9196783 33.87951745 -79 37 C-78.88256381 35.37443587 -78.75550539 33.74956712 -78.625 32.125 C-78.55539062 31.22007812 -78.48578125 30.31515625 -78.4140625 29.3828125 C-77.86136958 24.86741565 -76.93743346 20.44922885 -76 16 C-59.59267737 12.1014754 -43.15992156 8.32087034 -26.6947937 4.67404175 C-24.8600189 4.267106 -23.02564465 3.85835994 -21.19168091 3.44778442 C-18.59637572 2.86744343 -15.99961763 2.29411309 -13.40234375 1.72265625 C-12.23848648 1.4606543 -12.23848648 1.4606543 -11.05111694 1.19335938 C-7.3096488 0.37845716 -3.83410221 -0.20902943 0 0 Z " fill="#D7E2E9" transform="translate(864,269)"/>
<path d="M0 0 C4.05849062 1.50314467 6.73802583 4.39930642 9 8 C12.49844341 16.46864577 12.47009455 28.4160819 9 37 C4.20374634 48.23212119 -1.09134219 56.23582793 -12.1328125 61.87890625 C-16.38324103 63.54085855 -20.46128191 63.98030925 -25 64 C-25 63.67 -25 63.34 -25 63 C-24.16597656 62.79246094 -23.33195313 62.58492188 -22.47265625 62.37109375 C-11.67452302 59.41490378 -4.23362102 55.12481854 1.71875 45.46875 C6.96660041 35.35703823 10.25750194 23.46855651 7.24609375 12.171875 C5.47154255 7.52324676 3.42957435 3.67454395 0 0 Z " fill="#F6F8FA" transform="translate(570,356)"/>
<path d="M0 0 C0.99 0 1.98 0 3 0 C2.18194528 10.14387854 0.71071082 18.4030531 -6.5625 25.95703125 C-15.23852751 33.22876585 -25.82433306 36.4755603 -37 36 C-37 35.67 -37 35.34 -37 35 C-36.17757813 34.84144531 -35.35515625 34.68289063 -34.5078125 34.51953125 C-24.59445759 32.44757139 -15.14866479 29.4890774 -8 22 C-4.53473092 16.26397439 -3.07773372 9.88583859 -1.61328125 3.40625 C-1 1 -1 1 0 0 Z " fill="#F1F5F7" transform="translate(353,396)"/>
<path d="M0 0 C0.66 0 1.32 0 2 0 C2 5.94 2 11.88 2 18 C25.76 18 49.52 18 74 18 C74 18.33 74 18.66 74 19 C48.92 19 23.84 19 -2 19 C-2 2 -2 2 0 0 Z " fill="#BBCEDB" transform="translate(347,444)"/>
<path d="M0 0 C7.11495115 0.11972274 13.09593448 1.74565284 18.765625 6.125 C21.06088881 9.10263954 20.91138895 10.9130541 20.75 14.625 C20.71390625 15.70265625 20.6778125 16.7803125 20.640625 17.890625 C20.57101562 19.12039063 20.57101562 19.12039063 20.5 20.375 C19.43638655 18.77957982 18.37975114 17.17849577 17.37890625 15.54296875 C12.91084505 8.82098944 6.74457428 4.51611054 -1.2109375 2.78515625 C-3.90382083 2.44089327 -3.90382083 2.44089327 -7.5 2.375 C-4.88423537 -0.24076463 -3.64600117 0.04698455 0 0 Z " fill="#F8FAFB" transform="translate(1777.5,287.625)"/>
<path d="M0 0 C-0.33 0.66 -0.66 1.32 -1 2 C-21.37598792 8.57289933 -44.1011423 7.77330813 -65 5 C-65 4.67 -65 4.34 -65 4 C-64.10506836 4.01571045 -63.21013672 4.0314209 -62.28808594 4.04760742 C-34.75994442 4.53955437 -34.75994442 4.53955437 -7.72265625 -0.1640625 C-4.24788136 -0.94433724 -3.19382494 -0.99798757 0 0 Z " fill="#E6EDF1" transform="translate(1336,510)"/>
<path d="M0 0 C0.969375 0.86625 1.93875 1.7325 2.9375 2.625 C17.34523891 14.9370678 31.25309906 17.23332723 49.625 17.625 C51.12111422 17.66327043 52.61720855 17.70232708 54.11328125 17.7421875 C57.74200322 17.83718183 61.3708779 17.92156352 65 18 C65 18.33 65 18.66 65 19 C60.43259767 19.10056098 55.86587046 19.17224436 51.29760742 19.21972656 C49.75094347 19.23956584 48.20435161 19.2666464 46.65795898 19.30175781 C29.72848634 19.6758898 14.71584957 16.99033425 1.46875 5.78125 C0 4 0 4 0 0 Z " fill="#DCE6EC" transform="translate(506,446)"/>
<path d="M0 0 C-1 2 -1 2 -2.87915039 2.65429688 C-4.10106079 2.93370117 -4.10106079 2.93370117 -5.34765625 3.21875 C-6.25467285 3.42798096 -7.16168945 3.63721191 -8.09619141 3.8527832 C-9.07507324 4.06636475 -10.05395508 4.27994629 -11.0625 4.5 C-12.06458496 4.72067139 -13.06666992 4.94134277 -14.09912109 5.16870117 C-29.19085588 8.40885053 -43.60067093 9.28400402 -59 9 C-59 8.67 -59 8.34 -59 8 C-57.46859375 7.96132813 -57.46859375 7.96132813 -55.90625 7.921875 C-38.87394979 7.32211806 -21.73058495 5.00310868 -5.51171875 -0.36328125 C-3 -1 -3 -1 0 0 Z " fill="#E1EAEF" transform="translate(1691,429)"/>
<path d="M0 0 C-1.134375 0.474375 -2.26875 0.94875 -3.4375 1.4375 C-8.25153889 3.58812787 -12.94489848 5.95002702 -17.625 8.375 C-18.34099365 8.73779053 -19.0569873 9.10058105 -19.79467773 9.47436523 C-26.07410735 12.76779261 -31.03735847 16.9740927 -36 22 C-35.67130576 18.16523381 -34.61218557 15.97276192 -31.75 13.37890625 C-25.36541415 8.34819463 -18.55686506 4.57931362 -11.0625 1.5 C-10.42393066 1.2326001 -9.78536133 0.9652002 -9.12744141 0.68969727 C-5.75623016 -0.62956947 -3.43004935 -1.44423131 0 0 Z " fill="#F3F6F8" transform="translate(553,320)"/>
<path d="M0 0 C0.33 0 0.66 0 1 0 C2.21251728 10.40743999 2.21251728 10.40743999 -0.5703125 14.0625 C-5.83662968 18.06730394 -11.31098231 20.39347163 -18 20 C-16.03931755 18.51092937 -14.07713106 17.05198296 -12.03515625 15.67578125 C-6.06178354 11.54764843 -2.30842521 6.92527562 0 0 Z " fill="#FAFBFC" transform="translate(1797,320)"/>
<path d="M0 0 C-0.33 1.32 -0.66 2.64 -1 4 C-1 3.34 -1 2.68 -1 2 C-1.90242432 2.21205078 -2.80484863 2.42410156 -3.73461914 2.64257812 C-7.10840422 3.43146344 -10.48365396 4.21337158 -13.86010742 4.99072266 C-15.3164753 5.32749058 -16.77222031 5.66696476 -18.22729492 6.00927734 C-20.3283032 6.50303948 -22.43141693 6.98677422 -24.53515625 7.46875 C-25.797229 7.76201172 -27.05930176 8.05527344 -28.35961914 8.35742188 C-31.9875878 8.99780907 -35.32454129 9.11595813 -39 9 C-36.33788176 6.33788176 -33.54359861 6.02837602 -29.98046875 5.2734375 C-29.28488358 5.12089508 -28.5892984 4.96835266 -27.87263489 4.81118774 C-26.39983579 4.49000388 -24.92622974 4.17250154 -23.4519043 3.85839844 C-21.20468309 3.3786682 -18.9607034 2.88560076 -16.71679688 2.390625 C-15.28402814 2.0799258 -13.85109041 1.77000469 -12.41796875 1.4609375 C-11.75008835 1.31409515 -11.08220795 1.16725281 -10.39408875 1.01596069 C-6.871578 0.27298027 -3.60050055 -0.16144194 0 0 Z " fill="#E1E9EF" transform="translate(864,269)"/>
<path d="M0 0 C-1.98564431 1.49809772 -3.9763951 2.98312619 -6 4.4296875 C-11.77708808 8.48629894 -11.77708808 8.48629894 -16 14 C-16.54147816 18.8105234 -16.32388011 23.33951148 -15 28 C-18.05235716 25.08035402 -19.19068466 23.17823632 -19.4375 18.9375 C-19.33380419 13.07397305 -16.98808348 9.19179698 -13 5 C-4.52112676 -1.50704225 -4.52112676 -1.50704225 0 0 Z " fill="#E4ECF1" transform="translate(695,266)"/>
<path d="M0 0 C0.66 0.33 1.32 0.66 2 1 C-4.2927487 10.10526339 -11.31933022 15.84832695 -22 19 C-25.5 19.1875 -25.5 19.1875 -28 19 C-28 18.67 -28 18.34 -28 18 C-27.16597656 17.79246094 -26.33195313 17.58492188 -25.47265625 17.37109375 C-14.07759314 14.25148312 -7.28061122 9.14743461 0 0 Z " fill="#E4ECF0" transform="translate(573,401)"/>
<path d="M0 0 C1.32 0 2.64 0 4 0 C5.26237731 2.52475462 5.09856404 4.31200466 5.0625 7.125 C5.05347656 8.03507812 5.04445313 8.94515625 5.03515625 9.8828125 C5.02355469 10.58148438 5.01195312 11.28015625 5 12 C3.35 12 1.7 12 0 12 C0 8.04 0 4.08 0 0 Z " fill="#FBFCFD" transform="translate(1768,317)"/>
<path d="M0 0 C0.70576172 0.13510986 1.41152344 0.27021973 2.13867188 0.40942383 C7.58633459 1.52184256 12.29663261 3.24736331 17.25 5.8125 C17.25 6.4725 17.25 7.1325 17.25 7.8125 C16.66734375 7.63074219 16.0846875 7.44898438 15.484375 7.26171875 C6.19481852 4.41350568 -3.053547 1.74485125 -12.75 0.8125 C-12.75 0.4825 -12.75 0.1525 -12.75 -0.1875 C-8.29117011 -1.45774805 -4.45881149 -0.88347805 0 0 Z " fill="#E0E9EF" transform="translate(1039.75,314.1875)"/>
<path d="M0 0 C0 0.33 0 0.66 0 1 C-4.24860767 1.5326386 -8.49903225 2.0490656 -12.75 2.5625 C-14.55984375 2.78969727 -14.55984375 2.78969727 -16.40625 3.02148438 C-18.14648438 3.2293457 -18.14648438 3.2293457 -19.921875 3.44140625 C-21.52434082 3.63778687 -21.52434082 3.63778687 -23.15917969 3.83813477 C-25.75583919 3.98608812 -27.55233537 3.80814243 -30 3 C-26.21175424 0.64353216 -22.15293711 0.29471836 -17.8125 -0.1875 C-16.67663452 -0.31874268 -16.67663452 -0.31874268 -15.51782227 -0.45263672 C-10.16049634 -1.01475074 -5.32309093 -0.96783471 0 0 Z " fill="#E2EAEF" transform="translate(309,315)"/>
<path d="M0 0 C1.65 0 3.3 0 5 0 C5 2.64 5 5.28 5 8 C5.99 8.33 6.98 8.66 8 9 C5.36 9 2.72 9 0 9 C0 6.03 0 3.06 0 0 Z " fill="#FAFBFC" transform="translate(1768,304)"/>
<path d="M0 0 C2 2 2 2 2.046875 4.35546875 C1.47965181 9.76647943 0.89219838 14.87993379 -1 20 C-1.66 20.33 -2.32 20.66 -3 21 C-2.29411026 13.94110263 -1.21786614 6.98795036 0 0 Z " fill="#E6EDF1" transform="translate(1072,358)"/>
<path d="M0 0 C-0.33 0.66 -0.66 1.32 -1 2 C-3.72923388 2.0270817 -6.45819637 2.04687847 -9.1875 2.0625 C-9.95642578 2.07087891 -10.72535156 2.07925781 -11.51757812 2.08789062 C-15.48526789 2.10491934 -19.12571234 1.98604115 -23 1 C-23 0.67 -23 0.34 -23 0 C-19.91722144 -0.1974877 -16.8337715 -0.38123332 -13.75 -0.5625 C-12.87730469 -0.61857422 -12.00460937 -0.67464844 -11.10546875 -0.73242188 C-10.26113281 -0.78076172 -9.41679688 -0.82910156 -8.546875 -0.87890625 C-7.77182617 -0.9260376 -6.99677734 -0.97316895 -6.19824219 -1.02172852 C-3.96887415 -0.99969234 -2.13101433 -0.6303897 0 0 Z " fill="#CFDCE5" transform="translate(1665,514)"/>
<path d="M0 0 C1.47566404 2.76922485 2.46090882 5.42297171 3.3125 8.4375 C4.72021721 12.8348022 6.48640906 15.05618056 10 18 C9.67 18.99 9.34 19.98 9 21 C8.34 21 7.68 21 7 21 C7 19.68 7 18.36 7 17 C6.401875 16.773125 5.80375 16.54625 5.1875 16.3125 C2.19956265 14.51973759 1.35002526 13.24006063 0 10 C-0.24108623 6.65044031 -0.17571572 3.35161457 0 0 Z " fill="#E2EAEF" transform="translate(1057,442)"/>
<path d="M0 0 C7.35844601 1.75127943 12.9427854 4.47903548 19 9 C18.67 9.66 18.34 10.32 18 11 C17.39414062 10.60167969 16.78828125 10.20335937 16.1640625 9.79296875 C10.27869374 6.07160481 4.76473812 3.64080882 -2 2 C-1.34 1.34 -0.68 0.68 0 0 Z " fill="#E2EAEF" transform="translate(732,261)"/>
<path d="M0 0 C-6.97522969 2.71915734 -12.4290319 4.14845035 -20 4 C-17.27129596 1.27129596 -14.8791803 1.11250724 -11.125 0.3125 C-9.27261719 -0.09548828 -9.27261719 -0.09548828 -7.3828125 -0.51171875 C-4.39529663 -0.94294217 -2.77229336 -1.03786862 0 0 Z " fill="#E9EFF3" transform="translate(845,274)"/>
<path d="M0 0 C-1 2 -1 2 -2.92578125 2.66796875 C-3.71339844 2.83941406 -4.50101563 3.01085937 -5.3125 3.1875 C-6.09238281 3.36667969 -6.87226562 3.54585937 -7.67578125 3.73046875 C-10.09204759 4.01067443 -11.70242952 3.74132137 -14 3 C-11.87033995 0.87033995 -10.95931796 0.52375338 -8.125 -0.1875 C-7.44695312 -0.36667969 -6.76890625 -0.54585938 -6.0703125 -0.73046875 C-3.77181444 -1.02970718 -2.19449036 -0.69377386 0 0 Z " fill="#E8EEF2" transform="translate(1336,510)"/>
<path d="M0 0 C0.66 0 1.32 0 2 0 C1.66579964 3.11920338 1.05211466 3.95474254 -1.375 6.0625 C-2.24125 6.701875 -3.1075 7.34125 -4 8 C-5.0173873 8.98230498 -6.02596117 9.97469597 -7 11 C-6.58485103 6.1565954 -4.53791301 4.18412171 -1 1 C-0.67 0.67 -0.34 0.34 0 0 Z " fill="#EAF0F4" transform="translate(524,331)"/>
<path d="M0 0 C4.21752761 1.56204726 6.37399346 4.45134252 9 8 C9.8125 10.375 9.8125 10.375 10 12 C6.51161825 10.83720608 6.2237397 10.18232563 4.4375 7.125 C4.02371094 6.42632812 3.60992188 5.72765625 3.18359375 5.0078125 C2.79300781 4.34523438 2.40242187 3.68265625 2 3 C1.34 2.01 0.68 1.02 0 0 Z " fill="#EBF1F4" transform="translate(570,356)"/>
<path d="M0 0 C0.33 0 0.66 0 1 0 C0.8864371 1.64666203 0.75882619 3.29236082 0.625 4.9375 C0.52058594 6.31228516 0.52058594 6.31228516 0.4140625 7.71484375 C0.27742188 8.46894531 0.14078125 9.22304688 0 10 C-0.99 10.495 -0.99 10.495 -2 11 C-2.25 3.375 -2.25 3.375 0 0 Z " fill="#F5F8F9" transform="translate(1064,412)"/>
<path d="M0 0 C0.80050781 0.12761719 1.60101563 0.25523437 2.42578125 0.38671875 C3.23402344 0.50660156 4.04226563 0.62648438 4.875 0.75 C5.48988281 0.85699219 6.10476563 0.96398437 6.73828125 1.07421875 C6.73828125 1.40421875 6.73828125 1.73421875 6.73828125 2.07421875 C0.79828125 2.56921875 0.79828125 2.56921875 -5.26171875 3.07421875 C-2.26171875 0.07421875 -2.26171875 0.07421875 0 0 Z " fill="#CFDDE5" transform="translate(302.26171875,313.92578125)"/>
<path d="M0 0 C2 2 2 2 2.3125 4.5 C2.209375 5.325 2.10625 6.15 2 7 C1.01 7.66 0.02 8.32 -1 9 C-0.67 6.03 -0.34 3.06 0 0 Z " fill="#DDE7ED" transform="translate(1061,421)"/>
<path d="M0 0 C2 2 2 2 2.3125 4.5 C2.209375 5.325 2.10625 6.15 2 7 C1.01 7.66 0.02 8.32 -1 9 C-0.67 6.03 -0.34 3.06 0 0 Z " fill="#DDE7ED" transform="translate(1064,404)"/>
<path d="M0 0 C2 2 2 2 2.3125 4.5 C2.209375 5.325 2.10625 6.15 2 7 C1.01 7.66 0.02 8.32 -1 9 C-0.67 6.03 -0.34 3.06 0 0 Z " fill="#DDE6EC" transform="translate(1067,387)"/>
<path d="M0 0 C2 2 2 2 2.3125 4.5 C2.209375 5.325 2.10625 6.15 2 7 C1.01 7.66 0.02 8.32 -1 9 C-0.67 6.03 -0.34 3.06 0 0 Z " fill="#DCE6EC" transform="translate(1070,370)"/>
</svg>
