<?xml version="1.0" encoding="UTF-8"?>
<svg version="1.1" xmlns="http://www.w3.org/2000/svg" width="1151" height="280">
<path d="M0 0 C-3.09683779 12.83609724 -6.62625015 25.53378943 -10.234375 38.234375 C-10.83746432 40.36397615 -11.44034482 42.49363644 -12.04302979 44.62335205 C-13.6225304 50.20258627 -15.20500334 55.78097316 -16.78808594 61.35919189 C-18.37368973 66.94854586 -19.95618816 72.53877884 -21.5390625 78.12890625 C-24.50439894 88.59933453 -27.47493567 99.06827876 -30.44848633 109.53637695 C-31.64254778 113.74018794 -32.83473828 117.94452538 -34.0259819 122.14913559 C-34.95839062 125.43843168 -35.89336543 128.72699622 -36.828125 132.015625 C-37.14666443 133.14168152 -37.46520386 134.26773804 -37.793396 135.42791748 C-38.21905853 136.92201141 -38.21905853 136.92201141 -38.65332031 138.44628906 C-38.89254211 139.28903381 -39.13176392 140.13177856 -39.37823486 141.00006104 C-40 143 -40 143 -41 145 C-43.34721697 145.78269112 -45.64515171 146.44058192 -48.03881836 147.04931641 C-48.78393582 147.24566712 -49.52905329 147.44201784 -50.29675007 147.64431858 C-52.80918232 148.30436934 -55.32446902 148.95282319 -57.83984375 149.6015625 C-59.63152508 150.07007057 -61.42300429 150.53935215 -63.21429443 151.00935364 C-67.08191426 152.02263185 -70.95077023 153.03099478 -74.82064819 154.03561401 C-80.98717187 155.63667172 -87.15076342 157.24880079 -93.3137207 158.86352539 C-94.87337697 159.27212217 -94.87337697 159.27212217 -96.46454144 159.68897343 C-98.58643378 160.2448756 -100.70831807 160.80080846 -102.83019447 161.35677147 C-106.07492791 162.2065658 -109.31992929 163.05533045 -112.56498718 163.90388489 C-132.74085151 169.18168269 -152.89371875 174.54416352 -173.04125977 179.92892456 C-178.6656189 181.43201144 -184.29075534 182.93217456 -189.91601562 184.43188477 C-205.61237096 188.61741451 -221.3069538 192.80911598 -236.99247742 197.03507996 C-242.34745608 198.47759876 -247.70384896 199.91482902 -253.06070423 201.35036182 C-257.2405183 202.47096681 -261.41829649 203.59876743 -265.59459114 204.73241425 C-268.68499541 205.56907368 -271.77825443 206.39505169 -274.87109375 207.22265625 C-276.51860626 207.67374252 -276.51860626 207.67374252 -278.19940186 208.13394165 C-279.69095795 208.52989029 -279.69095795 208.52989029 -281.21264648 208.93383789 C-282.07147934 209.16567276 -282.93031219 209.39750763 -283.81517029 209.6363678 C-286 210 -286 210 -289 209 C-280.04738731 202.23065389 -271.03931831 195.55117773 -261.92626953 188.99926758 C-256.42196827 185.0380254 -250.95341654 181.03095584 -245.5 177 C-235.64615393 169.72026501 -225.71425187 162.55169331 -215.77050781 155.39550781 C-206.50847805 148.72765706 -197.28415107 142.01322961 -188.10571289 135.23071289 C-182.02455095 130.74183637 -175.90404491 126.31009187 -169.76953125 121.89453125 C-164.31916162 117.96607984 -158.90325984 113.99294732 -153.5 110 C-146.6229644 104.91794922 -139.70966917 99.88997203 -132.76953125 94.89453125 C-127.31916162 90.96607984 -121.90325984 86.99294732 -116.5 83 C-109.6229644 77.91794922 -102.70966917 72.88997203 -95.76953125 67.89453125 C-90.31916038 63.96607895 -84.90332922 59.99285479 -79.5 56 C-69.6460488 48.72040486 -59.71425404 41.55169487 -49.77050781 34.39550781 C-41.19251191 28.22010157 -32.63572564 22.0179031 -24.125 15.75 C-23.33101807 15.16597412 -22.53703613 14.58194824 -21.71899414 13.98022461 C-18.20354423 11.38836557 -14.70128053 8.7839221 -11.2421875 6.1171875 C-10.68644043 5.69083008 -10.13069336 5.26447266 -9.55810547 4.82519531 C-8.11720018 3.7152783 -6.68327831 2.59631118 -5.25 1.4765625 C-3 0 -3 0 0 0 Z " fill="#FFFFFF" transform="translate(898,0)"/>
<path d="M0 0 C5.27732614 1.63996589 9.27485114 4.9671113 13.625 8.25 C15.33454994 9.52485421 17.04418781 10.79959052 18.75390625 12.07421875 C20.06125732 13.05334229 20.06125732 13.05334229 21.39501953 14.05224609 C25.43700821 17.07445656 29.4988999 20.06944312 33.5625 23.0625 C34.3469751 23.64088623 35.1314502 24.21927246 35.93969727 24.81518555 C44.25084802 30.93545574 52.62252677 36.9710081 61 43 C71.0063257 50.20122344 80.97939506 57.44255899 90.89428711 64.76928711 C96.23835616 68.71407041 101.60901545 72.61962408 107 76.5 C114.00215242 81.54007819 120.95613256 86.64213385 127.89453125 91.76953125 C133.23857676 95.71415404 138.60910781 99.61969056 144 103.5 C151.00215242 108.54007819 157.95613256 113.64213385 164.89453125 118.76953125 C170.23857676 122.71415404 175.60910781 126.61969056 181 130.5 C187.19654414 134.96020953 193.35976023 139.46259635 199.5 144 C208.61748366 150.73553059 217.79940769 157.37863637 227 164 C236.99690191 171.19444146 246.96281358 178.42606008 256.86572266 185.74951172 C263.21623701 190.43994943 269.6112968 195.06637877 276.0390625 199.65039062 C280.17430116 202.61564061 284.13307972 205.69156742 288 209 C284.32155719 210.2261476 282.85512942 209.64793391 279.13720703 208.64599609 C277.90333755 208.31794983 276.66946808 207.98990356 275.39820862 207.6519165 C274.01804575 207.27586998 272.63791491 206.89970588 271.2578125 206.5234375 C269.79109063 206.13024687 268.32416026 205.73783338 266.85704041 205.34613037 C263.65069643 204.48837626 260.44583418 203.62534642 257.24197388 202.75836182 C252.04689493 201.35265281 246.84879742 199.95835018 241.65014648 198.56591797 C235.9845891 197.04786052 230.31927184 195.52892935 224.654953 194.0062561 C206.90772607 189.23600642 189.14898755 184.50951514 171.38766479 179.79205322 C169.01983438 179.16313431 166.65200602 178.53420771 164.28417969 177.90527344 C163.11047632 177.59353809 161.93677296 177.28180275 160.72750282 176.96062088 C152.46023994 174.76408816 144.19501425 172.5600028 135.93066406 170.35253906 C131.35361575 169.13048401 126.77646329 167.90881987 122.19921875 166.6875 C120.53741766 166.24403858 120.53741766 166.24403858 118.84204483 165.79161835 C105.86635894 162.33123036 92.88095764 158.91765581 79.86501122 155.61185074 C75.21314121 154.4276376 70.56574158 153.22593609 65.91744995 152.027771 C62.49291273 151.15504931 59.06177035 150.31339492 55.62915039 149.47314453 C53.65599355 148.96549381 51.68322174 148.45634287 49.7109375 147.9453125 C48.41643425 147.64560547 48.41643425 147.64560547 47.09577942 147.33984375 C46.32215561 147.13246582 45.5485318 146.92508789 44.75146484 146.71142578 C44.09205902 146.54796661 43.4326532 146.38450745 42.75326538 146.21609497 C38.41689054 143.20831093 37.24172888 135.75783409 35.89379883 130.94970703 C35.70418264 130.27838588 35.51456646 129.60706472 35.31920433 128.91540051 C34.69395931 126.69744782 34.07549145 124.47766573 33.45703125 122.2578125 C33.01167308 120.67291229 32.56588776 119.08813207 32.1197052 117.50346375 C30.92538858 113.25717313 29.73690913 109.00926988 28.54969025 104.76099014 C27.31859224 100.3589213 26.08266615 95.95820854 24.84716797 91.55737305 C23.34823906 86.21683814 21.84999382 80.8761143 20.35437012 75.53465271 C17.4414273 65.1316395 14.5166536 54.73209122 11.57533073 44.33706665 C10.27130759 39.72706056 8.97016256 35.11624095 7.66854858 30.5055542 C6.9744128 28.04905039 6.27912571 25.59287161 5.58267212 23.13702393 C4.62702255 19.76553364 3.67617681 16.39272551 2.7265625 13.01953125 C2.446418 12.03579025 2.1662735 11.05204926 1.87763977 10.03849792 C1.50242439 8.70036797 1.50242439 8.70036797 1.11962891 7.33520508 C0.79280624 6.17919548 0.79280624 6.17919548 0.4593811 4.99983215 C0 3 0 3 0 0 Z " fill="#FFFFFF" transform="translate(250,0)"/>
<path d="M0 0 C0.91330078 -0.00191345 1.82660156 -0.0038269 2.76757812 -0.00579834 C4.69401323 -0.00715626 6.6204576 -0.00348732 8.546875 0.00488281 C11.48979311 0.01558787 14.4321008 0.00497416 17.375 -0.0078125 C19.25000134 -0.00649084 21.12500231 -0.0039283 23 0 C23.87720703 -0.00404846 24.75441406 -0.00809692 25.65820312 -0.01226807 C33.65444395 0.04888379 33.65444395 0.04888379 37.5 2.265625 C39.89972355 5.86521033 39.78988204 8.47968359 39.765625 12.63671875 C39.76849518 13.71482567 39.76849518 13.71482567 39.77142334 14.81471252 C39.77278317 16.33359121 39.7691008 17.8524816 39.76074219 19.37133789 C39.75005501 21.69118511 39.76063576 24.01025522 39.7734375 26.33007812 C39.77211556 27.80729337 39.76955246 29.28450813 39.765625 30.76171875 C39.76967346 31.45349716 39.77372192 32.14527557 39.77789307 32.85801697 C39.74291864 36.46789719 39.59524543 39.25336357 37.5 42.265625 C35.10460279 43.4633236 33.58893873 43.40499679 30.91430664 43.42675781 C29.96314468 43.43636536 29.01198273 43.4459729 28.03199768 43.45587158 C27.00179001 43.46012146 25.97158234 43.46437134 24.91015625 43.46875 C23.32695839 43.47730011 23.32695839 43.47730011 21.71177673 43.48602295 C19.47656255 43.49547989 17.24133439 43.50200968 15.00610352 43.50585938 C11.57999498 43.51557539 8.15448353 43.54659693 4.72851562 43.578125 C2.55989941 43.58465381 0.39127889 43.58990476 -1.77734375 43.59375 C-2.80552719 43.6060968 -3.83371063 43.6184436 -4.89305115 43.63116455 C-5.84736526 43.62816345 -6.80167938 43.62516235 -7.78491211 43.62207031 C-9.04494301 43.62753876 -9.04494301 43.62753876 -10.33042908 43.63311768 C-12.99401731 43.1819459 -13.85309689 42.36292683 -15.5 40.265625 C-17.43526126 35.18425565 -16.68595507 29.19554538 -16.68530273 23.84838867 C-16.68748908 21.83816345 -16.70566679 19.82848764 -16.72460938 17.81835938 C-16.72654297 16.54412109 -16.72847656 15.26988281 -16.73046875 13.95703125 C-16.73457764 12.79373291 -16.73868652 11.63043457 -16.74291992 10.43188477 C-16.49400589 7.18749669 -16.14995934 5.07058691 -14.5 2.265625 C-10.135974 -0.51853966 -5.00386411 -0.0230937 0 0 Z M-4.5 9.265625 C-4.5 17.515625 -4.5 25.765625 -4.5 34.265625 C6.39 34.265625 17.28 34.265625 28.5 34.265625 C28.5 26.015625 28.5 17.765625 28.5 9.265625 C17.61 9.265625 6.72 9.265625 -4.5 9.265625 Z " fill="#FFFFFF" transform="translate(982.5,236.734375)"/>
<path d="M0 0 C0.824431 -0.00637985 1.648862 -0.0127597 2.49827576 -0.01933289 C3.82182823 -0.02100212 3.82182823 -0.02100212 5.17211914 -0.02270508 C6.08683487 -0.02603348 7.0015506 -0.02936188 7.94398499 -0.03279114 C9.87638853 -0.03784814 11.80880078 -0.04019984 13.74121094 -0.04003906 C16.69293632 -0.04222571 19.64428796 -0.06039483 22.59594727 -0.0793457 C24.47550328 -0.08227987 26.35506107 -0.08426451 28.23461914 -0.08520508 C29.11496323 -0.09239059 29.99530731 -0.09957611 30.90232849 -0.10697937 C39.45844699 -0.07517108 39.45844699 -0.07517108 42.76977539 2.14526367 C44.75790456 6.31291877 45.02610723 10.10851757 45.03540039 14.68041992 C45.03926758 16.5125 45.03926758 16.5125 45.04321289 18.3815918 C45.03547852 19.64422852 45.02774414 20.90686523 45.01977539 22.20776367 C45.03137695 24.10751953 45.03137695 24.10751953 45.04321289 26.0456543 C45.04063477 27.26575195 45.03805664 28.48584961 45.03540039 29.74291992 C45.03314453 30.85159424 45.03088867 31.96026855 45.02856445 33.10253906 C44.76288186 36.22631474 44.2266561 38.37700806 42.76977539 41.14526367 C39.59086606 43.26453656 38.80284551 43.39698191 35.16235352 43.40405273 C34.23128784 43.41035706 33.30022217 43.41666138 32.34094238 43.42315674 C30.83618347 43.41708405 30.83618347 43.41708405 29.30102539 43.41088867 C27.75324402 43.41375885 27.75324402 43.41375885 26.17419434 43.41668701 C23.99202226 43.41804834 21.80984207 43.41435554 19.62768555 43.40600586 C16.28293712 43.39530578 12.93872582 43.40590308 9.59399414 43.41870117 C7.47550337 43.41737957 5.35701293 43.41481716 3.23852539 43.41088867 C2.23535278 43.41493713 1.23218018 43.4189856 0.1986084 43.42315674 C-0.73245728 43.41685242 -1.66352295 43.4105481 -2.62280273 43.40405273 C-3.44204224 43.40246155 -4.26128174 43.40087036 -5.10534668 43.39923096 C-7.23022461 43.14526367 -7.23022461 43.14526367 -10.23022461 41.14526367 C-11.40157033 37.6312265 -11.41094111 34.43241032 -11.43334961 30.77416992 C-11.43904968 30.05543198 -11.44474976 29.33669403 -11.45062256 28.59617615 C-11.46005884 27.07731595 -11.46660109 25.5584354 -11.47045898 24.03955078 C-11.48017501 21.71960741 -11.51121382 19.40054648 -11.54272461 17.08081055 C-11.54925415 15.60360225 -11.55450481 14.12638764 -11.55834961 12.64916992 C-11.57069641 11.95739151 -11.58304321 11.2656131 -11.59576416 10.5528717 C-11.58189025 7.54472445 -11.37439633 5.4183422 -9.9597168 2.73876953 C-7.05293744 0.06054411 -3.8278912 0.02020481 0 0 Z M-0.23022461 9.14526367 C-0.23022461 17.39526367 -0.23022461 25.64526367 -0.23022461 34.14526367 C10.65977539 34.14526367 21.54977539 34.14526367 32.76977539 34.14526367 C32.76977539 25.89526367 32.76977539 17.64526367 32.76977539 9.14526367 C21.87977539 9.14526367 10.98977539 9.14526367 -0.23022461 9.14526367 Z " fill="#FFFFFF" transform="translate(712.230224609375,236.854736328125)"/>
<path d="M0 0 C0.75792847 -0.00191345 1.51585693 -0.0038269 2.29675293 -0.00579834 C3.89363946 -0.00715477 5.49053722 -0.0034963 7.08740234 0.00488281 C9.52336537 0.01559034 11.958591 0.00496943 14.39453125 -0.0078125 C15.95052245 -0.00649081 17.5065132 -0.00392822 19.0625 0 C19.78659058 -0.00404846 20.51068115 -0.00809692 21.25671387 -0.01226807 C25.26814397 0.0246933 28.47463572 0.3442548 32.03125 2.265625 C33.76436469 5.1804088 34.1056173 6.70787028 33.65625 10.078125 C33.45 10.8 33.24375 11.521875 33.03125 12.265625 C28.57625 12.760625 28.57625 12.760625 24.03125 13.265625 C24.03125 11.945625 24.03125 10.625625 24.03125 9.265625 C14.79125 9.265625 5.55125 9.265625 -3.96875 9.265625 C-3.96875 11.905625 -3.96875 14.545625 -3.96875 17.265625 C-2.44737427 17.24205933 -2.44737427 17.24205933 -0.89526367 17.21801758 C2.86735087 17.16372181 6.62993078 17.12927649 10.39282227 17.10083008 C12.02146223 17.08574257 13.65006156 17.06526994 15.27856445 17.03930664 C17.61940535 17.00292051 19.95970919 16.9858988 22.30078125 16.97265625 C23.02900589 16.95717239 23.75723053 16.94168854 24.50752258 16.92573547 C29.56039883 16.92405291 29.56039883 16.92405291 31.9519043 18.65893555 C34.45019731 22.37783767 34.21490562 25.79647038 34.21875 30.140625 C34.23099609 30.86121094 34.24324219 31.58179688 34.25585938 32.32421875 C34.27466737 39.13271232 34.27466737 39.13271232 32.03125 42.265625 C29.77808441 43.39220779 28.51322933 43.40888254 26.01220703 43.44262695 C25.18439728 43.45546219 24.35658752 43.46829742 23.50369263 43.48152161 C22.60786469 43.48890854 21.71203674 43.49629547 20.7890625 43.50390625 C19.8691452 43.511978 18.94922791 43.52004974 18.00143433 43.52836609 C16.05289598 43.54220857 14.10433337 43.55292999 12.15576172 43.56079102 C9.17498938 43.57801671 6.19532244 43.62190237 3.21484375 43.66601562 C1.32292483 43.67614135 -0.56900352 43.68465783 -2.4609375 43.69140625 C-3.79860672 43.71766838 -3.79860672 43.71766838 -5.16329956 43.74446106 C-11.34810087 43.72276852 -11.34810087 43.72276852 -14.53857422 41.37280273 C-16.88434153 37.91662014 -16.24108361 35.35062909 -15.96875 31.265625 C-12.66875 30.935625 -9.36875 30.605625 -5.96875 30.265625 C-5.96875 31.915625 -5.96875 33.565625 -5.96875 35.265625 C3.93125 35.265625 13.83125 35.265625 24.03125 35.265625 C24.03125 32.295625 24.03125 29.325625 24.03125 26.265625 C23.08805908 26.27609863 22.14486816 26.28657227 21.1730957 26.29736328 C17.66004982 26.33153141 14.1471816 26.3565658 10.6340332 26.37548828 C9.11610114 26.38552045 7.59818827 26.39914938 6.08032227 26.41650391 C3.8933436 26.44087535 1.70662136 26.45213595 -0.48046875 26.4609375 C-1.79490967 26.47141113 -3.10935059 26.48188477 -4.46362305 26.49267578 C-7.81466856 26.2756059 -10.02275609 25.83886404 -12.96875 24.265625 C-15.05232844 20.65074192 -15.23976386 17.38434212 -15.21875 13.265625 C-15.22390625 12.255 -15.2290625 11.244375 -15.234375 10.203125 C-14.95174274 7.07754473 -14.53809472 4.98834355 -12.96875 2.265625 C-8.76440103 -0.00310714 -4.66475288 -0.02608109 0 0 Z " fill="#FFFFFF" transform="translate(654.96875,236.734375)"/>
<path d="M0 0 C1.14113754 -0.0049926 1.14113754 -0.0049926 2.30532837 -0.01008606 C3.91415808 -0.01514592 5.52299828 -0.01749468 7.13183594 -0.01733398 C9.58546381 -0.01951693 12.03863937 -0.03767243 14.4921875 -0.05664062 C16.05729013 -0.05957551 17.6223949 -0.06155967 19.1875 -0.0625 C19.91786469 -0.06968552 20.64822937 -0.07687103 21.40072632 -0.08427429 C25.43596574 -0.06629897 28.66467391 0.19938413 32.2265625 2.16796875 C34.6560141 5.81214615 34.38835825 7.88038147 34.2265625 12.16796875 C30.9265625 12.49796875 27.6265625 12.82796875 24.2265625 13.16796875 C24.2265625 11.84796875 24.2265625 10.52796875 24.2265625 9.16796875 C14.9865625 9.16796875 5.7465625 9.16796875 -3.7734375 9.16796875 C-3.7734375 11.80796875 -3.7734375 14.44796875 -3.7734375 17.16796875 C-2.25991699 17.13654785 -2.25991699 17.13654785 -0.71582031 17.10449219 C3.03370937 17.0320009 6.78317732 16.98613655 10.53320312 16.94824219 C12.15505393 16.92814731 13.77683247 16.90086621 15.3984375 16.86621094 C17.7319523 16.81759605 20.06450807 16.79497986 22.3984375 16.77734375 C23.12150085 16.75669861 23.84456421 16.73605347 24.58953857 16.71478271 C27.97061267 16.71328139 29.89647051 16.93319656 32.68261719 18.91479492 C34.39168989 21.40894925 34.73996945 22.61970903 34.7578125 25.609375 C34.76554687 26.85557617 34.76554687 26.85557617 34.7734375 28.12695312 C34.75796875 28.98611328 34.7425 29.84527344 34.7265625 30.73046875 C34.74203125 31.59349609 34.7575 32.45652344 34.7734375 33.34570312 C34.76828125 34.17521484 34.763125 35.00472656 34.7578125 35.859375 C34.75330078 36.61420166 34.74878906 37.36902832 34.74414062 38.14672852 C34.2265625 40.16796875 34.2265625 40.16796875 32.78540039 41.91455078 C28.84752316 43.84347567 25.08145468 43.57610002 20.75390625 43.53125 C19.83444717 43.5317485 18.9149881 43.53224701 17.96766663 43.53276062 C16.02684362 43.53042306 14.08601741 43.52071329 12.14526367 43.50415039 C9.17143732 43.48052733 6.19850591 43.48359566 3.22460938 43.49023438 C1.33853631 43.48465845 -0.54753297 43.47754911 -2.43359375 43.46875 C-3.32426041 43.46966141 -4.21492706 43.47057281 -5.13258362 43.47151184 C-5.96031784 43.46197983 -6.78805206 43.45244781 -7.64086914 43.44262695 C-8.73196739 43.43571587 -8.73196739 43.43571587 -9.84510803 43.42866516 C-11.7734375 43.16796875 -11.7734375 43.16796875 -14.7734375 41.16796875 C-15.9311881 37.69471694 -15.84210402 34.80729427 -15.7734375 31.16796875 C-12.4734375 30.83796875 -9.1734375 30.50796875 -5.7734375 30.16796875 C-5.7734375 31.81796875 -5.7734375 33.46796875 -5.7734375 35.16796875 C4.1265625 35.16796875 14.0265625 35.16796875 24.2265625 35.16796875 C24.2265625 32.19796875 24.2265625 29.22796875 24.2265625 26.16796875 C22.81177612 26.19153442 22.81177612 26.19153442 21.3684082 26.21557617 C17.85533102 26.26682882 14.34265352 26.30437866 10.8293457 26.33276367 C9.31137812 26.34781228 7.79345374 26.36825613 6.27563477 26.39428711 C4.08859573 26.43084528 1.90213354 26.44773398 -0.28515625 26.4609375 C-2.25681763 26.48450317 -2.25681763 26.48450317 -4.26831055 26.50854492 C-7.97836926 26.14805653 -9.84027316 25.4180159 -12.7734375 23.16796875 C-14.33817876 20.03848623 -13.99913701 16.72541273 -14.0234375 13.29296875 C-14.054375 12.21208984 -14.054375 12.21208984 -14.0859375 11.109375 C-14.10962075 7.89437371 -13.99422415 5.57447593 -12.4453125 2.72265625 C-8.90025125 -0.5739194 -4.54305884 0.00688389 0 0 Z " fill="#FFFFFF" transform="translate(1116.7734375,236.83203125)"/>
<path d="M0 0 C6.991875 -0.061875 13.98375 -0.12375 21.1875 -0.1875 C23.38688232 -0.21481201 25.58626465 -0.24212402 27.85229492 -0.27026367 C29.60334728 -0.2790288 31.35440577 -0.28667268 33.10546875 -0.29296875 C34.4597699 -0.3159906 34.4597699 -0.3159906 35.84143066 -0.33947754 C40.74312094 -0.34151453 44.00237449 -0.17530847 48 3 C50.31153053 5.31153053 49.28032078 10.77292356 49.3125 13.875 C49.34150391 14.79925781 49.37050781 15.72351563 49.40039062 16.67578125 C49.40876953 17.56394531 49.41714844 18.45210937 49.42578125 19.3671875 C49.44036377 20.18300293 49.45494629 20.99881836 49.4699707 21.83935547 C49 24 49 24 47.27026367 25.74658203 C44.79001218 27.11593477 43.06002119 27.4808808 40.25 27.6875 C39.45078125 27.75324219 38.6515625 27.81898438 37.828125 27.88671875 C37.22484375 27.92410156 36.6215625 27.96148437 36 28 C36.47421387 28.38333496 36.94842773 28.76666992 37.43701172 29.16162109 C39.58396823 30.89823061 41.72949831 32.63659351 43.875 34.375 C44.62136719 34.97828125 45.36773437 35.5815625 46.13671875 36.203125 C47.20986328 37.07324219 47.20986328 37.07324219 48.3046875 37.9609375 C48.96452637 38.49509277 49.62436523 39.02924805 50.30419922 39.57958984 C52 41 52 41 54 43 C38.97405706 44.94347525 38.97405706 44.94347525 33.1171875 40.43359375 C29.84104597 37.50557338 26.94327568 34.25722508 24 31 C21.08184081 28.38639253 19.14862772 27.5991638 15.25 27.3125 C13.8475 27.209375 12.445 27.10625 11 27 C11 32.28 11 37.56 11 43 C7.37 43 3.74 43 0 43 C0 28.81 0 14.62 0 0 Z M11 8 C11 11.63 11 15.26 11 19 C19.91 19 28.82 19 38 19 C39.36952673 16.26094655 39.12621361 14.02912668 39 11 C38.67 10.34 38.34 9.68 38 9 C34.8815675 7.9605225 32.72524414 7.88505162 29.45703125 7.90234375 C27.84731445 7.90717773 27.84731445 7.90717773 26.20507812 7.91210938 C25.08552734 7.92048828 23.96597656 7.92886719 22.8125 7.9375 C21.11577148 7.94426758 21.11577148 7.94426758 19.38476562 7.95117188 C16.58982124 7.96296489 13.79490401 7.98090043 11 8 Z " fill="#FFFFFF" transform="translate(269,237)"/>
<path d="M0 0 C8.98755832 0 8.98755832 0 14.125 4.3125 C15.24473528 5.22923554 16.3645291 6.14589959 17.484375 7.0625 C18.05736328 7.54332031 18.63035156 8.02414063 19.22070312 8.51953125 C22.22070156 11.01568802 25.302162 13.40711254 28.375 15.8125 C28.9333252 16.2556958 29.49165039 16.6988916 30.06689453 17.15551758 C33.96818419 20.24399028 37.93900699 23.09929071 42 26 C42.33 17.42 42.66 8.84 43 0 C46.3 0 49.6 0 53 0 C53 14.19 53 28.38 53 43 C42.67834666 43 42.67834666 43 37.4375 38.3125 C36.85959717 37.82789307 36.28169434 37.34328613 35.6862793 36.84399414 C34.44171021 35.79981476 33.20434657 34.74699806 31.97363281 33.68652344 C29.1773818 31.29705016 26.31881762 28.98755261 23.45922852 26.67456055 C22.05009963 25.53434082 20.64421821 24.39009361 19.24194336 23.24145508 C18.60135986 22.71704834 17.96077637 22.1926416 17.30078125 21.65234375 C16.73528564 21.18820068 16.16979004 20.72405762 15.5871582 20.24584961 C14.11373886 19.08928002 12.55853877 18.03902584 11 17 C10.67 25.58 10.34 34.16 10 43 C6.7 43 3.4 43 0 43 C0 28.81 0 14.62 0 0 Z " fill="#FFFFFF" transform="translate(1035,237)"/>
<path d="M0 0 C3.96 0 7.92 0 12 0 C12 5.28 12 10.56 12 16 C22.23 16 32.46 16 43 16 C43 10.72 43 5.44 43 0 C46.63 0 50.26 0 54 0 C54 14.19 54 28.38 54 43 C50.37 43 46.74 43 43 43 C43 37.39 43 31.78 43 26 C32.77 26 22.54 26 12 26 C12 31.61 12 37.22 12 43 C8.04 43 4.08 43 0 43 C0 28.81 0 14.62 0 0 Z " fill="#FFFFFF" transform="translate(537,237)"/>
<path d="M0 0 C3.63 0 7.26 0 11 0 C11 5.28 11 10.56 11 16 C21.23 16 31.46 16 42 16 C42 10.72 42 5.44 42 0 C45.96 0 49.92 0 54 0 C54 14.19 54 28.38 54 43 C50.04 43 46.08 43 42 43 C42 37.39 42 31.78 42 26 C31.77 26 21.54 26 11 26 C11 31.61 11 37.22 11 43 C7.37 43 3.74 43 0 43 C0 28.81 0 14.62 0 0 Z " fill="#FFFFFF" transform="translate(145,237)"/>
<path d="M0 0 C0.80515045 -0.00570007 1.6103009 -0.01140015 2.43984985 -0.01727295 C4.14282928 -0.02671436 5.8458269 -0.03325352 7.54882812 -0.03710938 C10.14746123 -0.04681301 12.74530253 -0.07784284 15.34375 -0.109375 C16.99999531 -0.11590567 18.65624627 -0.12115589 20.3125 -0.125 C21.08661224 -0.1373468 21.86072449 -0.1496936 22.65829468 -0.16241455 C27.21378901 -0.14370461 30.17900004 0.35357774 33.7890625 3.203125 C35.03976051 5.70452102 34.92208717 7.47705191 34.9140625 10.265625 C34.91792969 11.61333984 34.91792969 11.61333984 34.921875 12.98828125 C34.7890625 15.203125 34.7890625 15.203125 33.7890625 16.203125 C32.10722302 16.43599508 30.4178209 16.61576666 28.7265625 16.765625 C27.34791016 16.89130859 27.34791016 16.89130859 25.94140625 17.01953125 C25.23113281 17.08011719 24.52085937 17.14070313 23.7890625 17.203125 C23.7890625 14.563125 23.7890625 11.923125 23.7890625 9.203125 C14.8790625 9.203125 5.9690625 9.203125 -3.2109375 9.203125 C-3.2109375 17.453125 -3.2109375 25.703125 -3.2109375 34.203125 C5.6990625 34.203125 14.6090625 34.203125 23.7890625 34.203125 C23.7890625 31.233125 23.7890625 28.263125 23.7890625 25.203125 C27.4190625 25.863125 31.0490625 26.523125 34.7890625 27.203125 C34.89748201 29.11853638 34.97484329 31.03572273 35.0390625 32.953125 C35.08546875 34.02046875 35.131875 35.0878125 35.1796875 36.1875 C34.7890625 39.203125 34.7890625 39.203125 33.34082031 41.35839844 C29.54447678 44.10286569 26.14679408 43.77728152 21.5703125 43.734375 C20.67542114 43.7382019 19.78052979 43.74202881 18.85852051 43.74597168 C16.96898268 43.7486902 15.07940718 43.74133316 13.18994141 43.72460938 C10.2989506 43.70319823 7.41044483 43.72441234 4.51953125 43.75 C2.68228619 43.74735671 0.84504267 43.74223171 -0.9921875 43.734375 C-2.28763489 43.74652039 -2.28763489 43.74652039 -3.60925293 43.75891113 C-7.29324704 43.70139753 -9.56990134 43.59420318 -12.75610352 41.65039062 C-14.74700179 38.30137832 -14.76689559 35.30186347 -14.70703125 31.515625 C-14.70848648 30.77610596 -14.70994171 30.03658691 -14.71144104 29.2746582 C-14.70978464 27.71464082 -14.69825215 26.15460666 -14.67749023 24.59472656 C-14.64853171 22.21088035 -14.65688544 19.82925903 -14.66992188 17.4453125 C-14.66368399 15.92707256 -14.65529264 14.40883962 -14.64453125 12.890625 C-14.64746689 12.18010986 -14.65040253 11.46959473 -14.65342712 10.73754883 C-14.59496653 7.66111525 -14.37451401 5.49837956 -12.87133789 2.78515625 C-9.27736501 -0.63918492 -4.65191677 0.02540616 0 0 Z " fill="#FFFFFF" transform="translate(490.2109375,236.796875)"/>
<path d="M0 0 C0.78295441 -0.0033284 1.56590881 -0.0066568 2.37258911 -0.01008606 C4.02849745 -0.01514644 5.68441597 -0.01749466 7.34033203 -0.01733398 C9.86638316 -0.01951705 12.39199507 -0.03767242 14.91796875 -0.05664062 C16.52864434 -0.05957546 18.13932201 -0.06155965 19.75 -0.0625 C20.50223846 -0.06968552 21.25447693 -0.07687103 22.0295105 -0.08427429 C26.11925349 -0.0665694 29.37019427 0.23091555 33.0078125 2.16796875 C35.06495744 5.05043531 35.23520045 7.43677837 35.1328125 10.91796875 C35.11476562 11.7171875 35.09671875 12.51640625 35.078125 13.33984375 C35.05492187 13.943125 35.03171875 14.54640625 35.0078125 15.16796875 C33.5500772 15.50390775 32.09160144 15.83663499 30.6328125 16.16796875 C29.82070313 16.35359375 29.00859375 16.53921875 28.171875 16.73046875 C26.0078125 17.16796875 26.0078125 17.16796875 24.0078125 17.16796875 C24.0078125 14.52796875 24.0078125 11.88796875 24.0078125 9.16796875 C15.0978125 9.16796875 6.1878125 9.16796875 -2.9921875 9.16796875 C-2.9921875 17.41796875 -2.9921875 25.66796875 -2.9921875 34.16796875 C5.9178125 34.16796875 14.8278125 34.16796875 24.0078125 34.16796875 C24.0078125 31.19796875 24.0078125 28.22796875 24.0078125 25.16796875 C27.6378125 25.82796875 31.2678125 26.48796875 35.0078125 27.16796875 C35.28239476 38.70042376 35.28239476 38.70042376 33.0078125 42.16796875 C29.60588962 43.86893019 25.72803407 43.35288903 21.984375 43.37109375 C20.63779312 43.37964386 20.63779312 43.37964386 19.26400757 43.3883667 C17.36254049 43.3978217 15.461057 43.40435266 13.55957031 43.40820312 C10.65140162 43.41790672 7.74394018 43.44892431 4.8359375 43.48046875 C2.98958754 43.48699897 1.14323251 43.49224937 -0.703125 43.49609375 C-2.00798355 43.51461395 -2.00798355 43.51461395 -3.33920288 43.5335083 C-6.72874617 43.52101298 -9.37607763 43.41363393 -12.54174805 42.15136719 C-14.81741486 39.03951443 -14.54286704 35.81074541 -14.48828125 32.10546875 C-14.48973648 31.317771 -14.49119171 30.53007324 -14.49269104 29.71850586 C-14.49103205 28.05416157 -14.47947062 26.38980194 -14.45874023 24.72558594 C-14.42979091 22.17707199 -14.4381286 19.63063876 -14.45117188 17.08203125 C-14.44493417 15.46483363 -14.43654297 13.84764259 -14.42578125 12.23046875 C-14.42871689 11.46790771 -14.43165253 10.70534668 -14.43467712 9.91967773 C-14.34106579 4.67357841 -14.34106579 4.67357841 -12.65258789 2.2265625 C-8.67062418 -0.31215161 -4.5397279 0.00667989 0 0 Z " fill="#FFFFFF" transform="translate(13.9921875,236.83203125)"/>
<path d="M0 0 C15.18 0 30.36 0 46 0 C46 2.97 46 5.94 46 9 C34.45 9 22.9 9 11 9 C11 11.64 11 14.28 11 17 C17.93 17 24.86 17 32 17 C32 19.64 32 22.28 32 25 C25.07 25 18.14 25 11 25 C11 28.3 11 31.6 11 35 C22.88 35 34.76 35 47 35 C47 37.64 47 40.28 47 43 C31.49 43 15.98 43 0 43 C0 28.81 0 14.62 0 0 Z " fill="#FFFFFF" transform="translate(420,237)"/>
<path d="M0 0 C15.18 0 30.36 0 46 0 C46 2.97 46 5.94 46 9 C34.45 9 22.9 9 11 9 C11 11.64 11 14.28 11 17 C17.6 17 24.2 17 31 17 C31 19.64 31 22.28 31 25 C24.4 25 17.8 25 11 25 C11 28.3 11 31.6 11 35 C22.55 35 34.1 35 46 35 C46 37.64 46 40.28 46 43 C30.82 43 15.64 43 0 43 C0 28.81 0 14.62 0 0 Z " fill="#FFFFFF" transform="translate(213,237)"/>
<path d="M0 0 C3.96 0 7.92 0 12 0 C12 11.55 12 23.1 12 35 C21.24 35 30.48 35 40 35 C40 23.45 40 11.9 40 0 C43.96 0 47.92 0 52 0 C52.04970487 4.71393321 52.085863 9.4277114 52.10986328 14.1418457 C52.11987623 15.74310974 52.1334906 17.34435571 52.15087891 18.94555664 C52.17533565 21.25671876 52.18653029 23.56763762 52.1953125 25.87890625 C52.20563507 26.58648575 52.21595764 27.29406525 52.22659302 28.02308655 C52.22762484 32.66898947 51.6412885 36.64652829 50 41 C46.94251476 43.03832349 46.31188386 43.25284082 42.86743164 43.2746582 C41.62583031 43.28895622 41.62583031 43.28895622 40.35914612 43.30354309 C39.46847946 43.30263168 38.57781281 43.30172028 37.66015625 43.30078125 C36.7416539 43.30506638 35.82315155 43.3093515 34.8768158 43.31376648 C32.934243 43.31950944 30.99164871 43.32001029 29.04907227 43.31567383 C26.07726325 43.31251569 23.1064514 43.33596698 20.13476562 43.36132812 C18.24739709 43.3636013 16.36002588 43.36430453 14.47265625 43.36328125 C13.58401382 43.372491 12.6953714 43.38170074 11.77980042 43.39118958 C8.25182901 43.36474192 5.68006838 43.32536425 2.47045898 41.78979492 C-0.96742933 37.60530891 -0.13361806 32.00993629 -0.09765625 26.85546875 C-0.09553383 25.7007885 -0.09553383 25.7007885 -0.09336853 24.52278137 C-0.08779606 22.07764712 -0.07524871 19.63260632 -0.0625 17.1875 C-0.05748144 15.52408987 -0.05291915 13.8606783 -0.04882812 12.19726562 C-0.03783566 8.13147472 -0.0205901 4.06575317 0 0 Z " fill="#FFFFFF" transform="translate(822,237)"/>
<path d="M0 0 C6.991875 -0.061875 13.98375 -0.12375 21.1875 -0.1875 C23.38688232 -0.21481201 25.58626465 -0.24212402 27.85229492 -0.27026367 C29.60334728 -0.2790288 31.35440577 -0.28667268 33.10546875 -0.29296875 C34.4597699 -0.3159906 34.4597699 -0.3159906 35.84143066 -0.33947754 C40.7040673 -0.34149831 44.08339374 -0.23686874 48 3 C49.62169093 6.24338187 49.30955934 9.75193321 49.375 13.3125 C49.43107422 14.45235352 49.43107422 14.45235352 49.48828125 15.61523438 C49.49988281 16.35708984 49.51148438 17.09894531 49.5234375 17.86328125 C49.5531665 18.87322144 49.5531665 18.87322144 49.58349609 19.90356445 C48.61948844 23.36713507 46.81001415 24.83508637 44 27 C41.21162027 27.44003142 39.05947947 27.59085432 36.29296875 27.48828125 C35.56757401 27.48120651 34.84217926 27.47413177 34.09480286 27.46684265 C31.79129297 27.43898406 29.49026749 27.37627191 27.1875 27.3125 C25.62047797 27.28740563 24.0534176 27.26459444 22.48632812 27.24414062 C18.65583902 27.19344596 14.83067957 27.09560764 11 27 C11 32.28 11 37.56 11 43 C7.37 43 3.74 43 0 43 C0 28.81 0 14.62 0 0 Z M11 8 C11 11.63 11 15.26 11 19 C15.12504298 19.02686352 19.24991269 19.04677254 23.375 19.0625 C24.550625 19.07087891 25.72625 19.07925781 26.9375 19.08789062 C28.05898437 19.09111328 29.18046875 19.09433594 30.3359375 19.09765625 C31.37282715 19.10289307 32.4097168 19.10812988 33.47802734 19.11352539 C35.9959668 19.17140815 35.9959668 19.17140815 38 18 C38 15.03 38 12.06 38 9 C34.53981027 8.13495257 32.08428675 7.88286507 28.578125 7.90234375 C27.55332031 7.90556641 26.52851562 7.90878906 25.47265625 7.91210938 C23.87744141 7.92467773 23.87744141 7.92467773 22.25 7.9375 C21.17105469 7.94201172 20.09210938 7.94652344 18.98046875 7.95117188 C16.32028875 7.96294258 13.66013731 7.98087761 11 8 Z " fill="#FFFFFF" transform="translate(86,237)"/>
<path d="M0 0 C17.16 0 34.32 0 52 0 C52 2.97 52 5.94 52 9 C45.07 9 38.14 9 31 9 C31 20.22 31 31.44 31 43 C27.37 43 23.74 43 20 43 C20 31.78 20 20.56 20 9 C13.4 9 6.8 9 0 9 C0 6.03 0 3.06 0 0 Z " fill="#FFFFFF" transform="translate(882,237)"/>
<path d="M0 0 C17.16 0 34.32 0 52 0 C52 2.97 52 5.94 52 9 C45.07 9 38.14 9 31 9 C31 20.22 31 31.44 31 43 C27.37 43 23.74 43 20 43 C20 31.78 20 20.56 20 9 C13.4 9 6.8 9 0 9 C0 6.03 0 3.06 0 0 Z " fill="#FFFFFF" transform="translate(360,237)"/>
<path d="M0 0 C3.96 0 7.92 0 12 0 C12 11.55 12 23.1 12 35 C22.89 35 33.78 35 45 35 C45 37.64 45 40.28 45 43 C30.15 43 15.3 43 0 43 C0 28.81 0 14.62 0 0 Z " fill="#FFFFFF" transform="translate(769,237)"/>
<path d="M0 0 C3.96 0 7.92 0 12 0 C12 14.19 12 28.38 12 43 C8.04 43 4.08 43 0 43 C0 28.81 0 14.62 0 0 Z " fill="#FFFFFF" transform="translate(942,237)"/>
<path d="M0 0 C3.63 0 7.26 0 11 0 C11 14.19 11 28.38 11 43 C7.37 43 3.74 43 0 43 C0 28.81 0 14.62 0 0 Z " fill="#FFFFFF" transform="translate(61,237)"/>
</svg>
