<?xml version="1.0" encoding="UTF-8"?>
<svg version="1.1" xmlns="http://www.w3.org/2000/svg" width="4355" height="684">
<path d="M0 0 C39.6 0 79.2 0 120 0 C120 222.09 120 444.18 120 673 C80.4 673 40.8 673 0 673 C-0.33 661.12 -0.66 649.24 -1 637 C-5.95 639.97 -10.9 642.94 -16 646 C-67.8593592 675.56893288 -130.86023235 679.60019316 -187.9453125 664.46875 C-226.07497024 653.76461443 -260.51939969 633.36928832 -289 606 C-289.59458008 605.43265137 -290.18916016 604.86530273 -290.80175781 604.28076172 C-299.69930679 595.74801684 -307.69744094 586.92923769 -315 577 C-315.42619629 576.42926758 -315.85239258 575.85853516 -316.29150391 575.27050781 C-326.40458569 561.70221874 -334.8597595 547.33881704 -342 532 C-342.50080078 530.92588867 -342.50080078 530.92588867 -343.01171875 529.83007812 C-351.89191825 510.48757461 -357.54721276 489.97331912 -361 469 C-361.11714355 468.32533691 -361.23428711 467.65067383 -361.35498047 466.95556641 C-371.11934745 408.49994297 -354.21137254 345.75213558 -320.45166016 297.80078125 C-314.4440983 289.40639566 -308.03837896 281.55670919 -301 274 C-299.80759878 272.62924817 -298.61986117 271.25442137 -297.4375 269.875 C-291.41870001 263.00227415 -284.96564382 256.98618555 -277.83203125 251.27734375 C-276.01600776 249.81701038 -274.2195062 248.33185906 -272.44921875 246.81640625 C-259.89774277 236.13146236 -245.54092785 227.68499211 -231 220 C-230.38350586 219.66935547 -229.76701172 219.33871094 -229.13183594 218.99804688 C-207.84981552 207.74754107 -183.65639145 200.9045402 -160 197 C-159.27151855 196.87157715 -158.54303711 196.7431543 -157.79248047 196.61083984 C-134.49335953 192.6359242 -108.11977059 193.41610376 -85 198 C-84.15969238 198.16097168 -83.31938477 198.32194336 -82.45361328 198.48779297 C-53.28355843 204.24656921 -27.0110229 216.99406459 -1 231 C-0.67 154.77 -0.34 78.54 0 0 Z M-212 345 C-212.67675781 345.61230469 -213.35351562 346.22460938 -214.05078125 346.85546875 C-235.39087559 366.91259149 -247.16559781 397.72534281 -248.3125 426.578125 C-248.66164293 440.85202403 -247.77295202 454.2172395 -244 468 C-243.82871582 468.65677734 -243.65743164 469.31355469 -243.48095703 469.99023438 C-239.18276641 486.05993458 -230.69639008 501.32944397 -220 514 C-219.16984375 514.99257813 -218.3396875 515.98515625 -217.484375 517.0078125 C-196.97082396 540.80596474 -166.58597361 555.14366699 -135.40893555 557.84106445 C-100.99734237 560.11145537 -68.31438458 550.48761951 -42 528 C-41.19046875 527.33613281 -40.3809375 526.67226563 -39.546875 525.98828125 C-16.57496103 506.44770663 -2.5887381 475.80110763 0 446 C2.01519012 410.76045792 -6.83513466 377.47251551 -30.5625 350.6875 C-32.03380872 349.11759843 -33.51252832 347.55459586 -35 346 C-35.91652344 344.98873047 -35.91652344 344.98873047 -36.8515625 343.95703125 C-56.75951047 322.73600586 -87.56219644 310.80656991 -116.23828125 309.6171875 C-153.40560498 308.74943118 -184.80090258 319.3499299 -212 345 Z " fill="#FFFFFF" transform="translate(2097,0)"/>
<path d="M0 0 C0.89219238 0.16628906 1.78438477 0.33257812 2.70361328 0.50390625 C46.25395219 8.89241455 85.80400819 28.84053722 118.49609375 58.71875 C120.16076737 60.23539492 121.84054101 61.73563528 123.53515625 63.21875 C168.40989414 102.61419222 194.16276604 163.14558265 198 222 C200.30591312 275.58291699 186.91291465 328.7963324 156 373 C155.52836426 373.67514648 155.05672852 374.35029297 154.57080078 375.04589844 C147.18717094 385.49249698 138.92110979 394.84967091 130 404 C129.01817037 405.02207894 128.03639626 406.04421121 127.0546875 407.06640625 C121.05825365 413.20805288 114.8098859 418.7771282 108 424 C107.38334473 424.47663086 106.76668945 424.95326172 106.13134766 425.44433594 C55.26513163 464.45858825 -9.5439751 481.24208142 -73 473 C-123.43704561 465.53013156 -169.24926766 443.35759556 -206 408 C-206.94045166 407.10039551 -206.94045166 407.10039551 -207.89990234 406.18261719 C-217.08623191 397.34969347 -225.52329641 388.32645397 -233 378 C-233.44118164 377.39784668 -233.88236328 376.79569336 -234.33691406 376.17529297 C-264.07515128 335.30926821 -280.55126161 286.94841243 -280.3125 236.375 C-280.31034485 235.54650543 -280.3081897 234.71801086 -280.30596924 233.8644104 C-280.04013744 169.89498511 -253.26354732 110.37820235 -208.4375 65.1875 C-202.92449492 59.72718501 -197.13389802 54.75690051 -191 50 C-189.68733232 48.95854465 -188.37484513 47.91686178 -187.0625 46.875 C-178.09002281 39.81370993 -168.99355836 33.51713182 -159 28 C-157.83259277 27.34668701 -157.83259277 27.34668701 -156.64160156 26.68017578 C-131.74715167 12.83754376 -105.08635339 3.69867894 -77 -1 C-75.98728027 -1.17789063 -75.98728027 -1.17789063 -74.95410156 -1.359375 C-50.91449894 -5.41221317 -23.87611691 -4.53168967 0 0 Z M-136.125 159.25 C-159.69216407 186.7858549 -166.91689601 220.43678671 -165 256 C-164.31888153 262.83410698 -162.90072541 269.40790561 -161 276 C-160.79101074 276.72928711 -160.58202148 277.45857422 -160.36669922 278.20996094 C-150.97870847 309.72829392 -129.56572341 335.26575588 -100.9375 351.1875 C-71.31695603 366.84496975 -35.51057163 369.7089906 -3.52148438 360.26855469 C27.68188936 350.47901952 53.45213427 329.58582434 68.8125 300.625 C84.35270547 270.46644294 87.61215512 235.55548383 77.74291992 203.06469727 C72.72321297 187.50854775 65.51023854 173.57754166 55 161 C53.75283203 159.50726563 53.75283203 159.50726563 52.48046875 157.984375 C32.23328451 134.51732865 1.94881958 119.79664619 -28.85839844 117.14501953 C-70.5690095 114.32056639 -107.54089249 128.77934139 -136.125 159.25 Z " fill="#FFFFFF" transform="translate(984,198)"/>
<path d="M0 0 C41.58 0 83.16 0 126 0 C126.03738281 18.005625 126.07476563 36.01125 126.11328125 54.5625 C126.14355949 65.9739656 126.17456713 77.38542224 126.20898438 88.796875 C126.22703236 94.79361913 126.24489601 100.79036378 126.26245117 106.78710938 C126.26465886 107.53862101 126.26686655 108.29013265 126.26914114 109.06441736 C126.30443425 121.16977354 126.32933591 133.27512965 126.35034702 145.38051808 C126.37217095 157.81981277 126.40528343 170.25904116 126.44870156 182.69827938 C126.47510522 190.36332856 126.49288347 198.02829527 126.49934604 205.69338763 C126.50526322 211.58802276 126.52694688 217.48253663 126.55427551 223.37711334 C126.56301852 225.78276519 126.56678614 228.1884415 126.56500816 230.59410858 C126.54937025 261.53538562 133.04256579 286.46654477 155.30078125 309.3671875 C173.76580649 326.83492005 197.05210441 335.57099548 222.359375 335.21484375 C242.28196243 334.55702247 262.30546518 325.17843202 277 312 C277.89460938 311.19949219 278.78921875 310.39898438 279.7109375 309.57421875 C296.86335744 293.3586957 307.72879261 271.21801761 308.46761751 247.47552299 C308.5598224 241.87774422 308.55880041 236.28196583 308.54589844 230.68359375 C308.55464722 228.15909187 308.56513752 225.63459552 308.57722473 223.11010742 C308.59922591 217.70607441 308.60929211 212.30223662 308.60811615 206.89816284 C308.60643721 199.08513714 308.62687952 191.27228802 308.65247145 183.4593097 C308.69341754 170.77887132 308.71683091 158.09846502 308.72900391 145.41796875 C308.7408567 133.11064571 308.7611453 120.80338323 308.79248047 108.49609375 C308.79539874 107.34380453 308.79539874 107.34380453 308.79837596 106.16823673 C308.81365965 100.15917107 308.82942769 94.15010671 308.8453486 88.14104271 C308.9230676 58.76070503 308.95859575 29.38045468 309 0 C350.58 0 392.16 0 435 0 C435.12099405 66.07619355 435.12099405 66.07619355 435.14648438 93.78710938 C435.15235685 100.12849959 435.15841798 106.46988957 435.16479492 112.8112793 C435.16598179 114.00325343 435.16598179 114.00325343 435.16719264 115.21930784 C435.18019501 128.00207018 435.20382097 140.7847915 435.23145839 153.56752963 C435.25964046 166.71307239 435.27620312 179.85859387 435.28226548 193.00416559 C435.28635557 201.09762894 435.29921208 209.19097636 435.3237494 217.28440397 C435.3397652 222.85521601 435.34436511 228.42596925 435.34050413 233.99680258 C435.33860682 237.19763707 435.34295401 240.39823215 435.35761642 243.59903908 C435.44355327 263.3479914 434.39082718 282.94099759 429.3125 302.125 C429.05758789 303.10887695 428.80267578 304.09275391 428.54003906 305.10644531 C414.24895359 358.29250415 378.76573298 403.67100531 331.41796875 431.5 C324.76119193 435.31470497 317.95130214 438.75777446 311 442 C309.89914062 442.52078125 308.79828125 443.0415625 307.6640625 443.578125 C254.29107217 467.66569783 192.57469007 467.3976795 138.16259766 447.22802734 C118.64159481 439.6480795 100.31930499 429.12297215 84 416 C83.01386719 415.21753906 82.02773437 414.43507813 81.01171875 413.62890625 C66.43514179 401.82226872 52.86945986 388.31526846 42 373 C41.36723145 372.10982178 41.36723145 372.10982178 40.72167969 371.20166016 C22.88252099 345.81827675 10.52392464 317.96542768 4.1875 287.5625 C3.9925293 286.64831299 3.79755859 285.73412598 3.59667969 284.79223633 C-0.14697224 265.51771096 -0.29046568 245.8137658 -0.22705078 226.25610352 C-0.22648497 223.76998397 -0.22680653 221.2838641 -0.22793579 218.79774475 C-0.22838687 213.49808257 -0.22282493 208.19848215 -0.21146011 202.89883614 C-0.19504047 195.23693077 -0.18998051 187.57504906 -0.18748413 179.91312801 C-0.18313248 167.47503067 -0.16989298 155.03695991 -0.15087891 142.59887695 C-0.13245396 130.53344857 -0.11835306 118.46802751 -0.10986328 106.40258789 C-0.10932729 105.64834107 -0.10879129 104.89409425 -0.10823905 104.11699146 C-0.10407896 98.21620874 -0.10016555 92.31542587 -0.09632993 86.41464293 C-0.07754333 57.60973753 -0.03728789 28.80489888 0 0 Z " fill="#FFFFFF" transform="translate(1251,211)"/>
<path d="M0 0 C0.69077637 0.21849609 1.38155273 0.43699219 2.09326172 0.66210938 C26.47190297 8.53595624 48.5147773 22.43444012 67 40 C68.41071844 41.21527255 69.82693719 42.42420605 71.25 43.625 C116.55309804 83.25377061 135.24076349 149.84038897 139.33984375 207.62890625 C140.08095053 219.80133133 140 231.75927059 140 244 C23.51 244 -92.98 244 -213 244 C-208.31300564 286.18294928 -199.21880134 319.04137512 -170 350 C-169.31550781 350.74894531 -168.63101563 351.49789063 -167.92578125 352.26953125 C-148.85958956 372.3929979 -122.07441018 383.22352648 -95 387 C-93.07414062 387.27457031 -93.07414062 387.27457031 -91.109375 387.5546875 C-84.52944532 388.25399695 -77.91115672 388.22336883 -71.30126953 388.24023438 C-69.03249316 388.24986211 -66.76465568 388.28093054 -64.49609375 388.3125 C-29.5604717 388.56544882 1.7782166 374.80582363 27 351 C39.31667801 338.83561476 49.27401344 323.45197312 57 308 C61.57970009 309.41141118 65.81379469 311.25595041 70.09106445 313.39233398 C70.77308426 313.72918213 71.45510406 314.06603027 72.15779114 314.41308594 C74.39512358 315.51977409 76.62939693 316.63246353 78.86328125 317.74609375 C80.42169784 318.5208167 81.98014454 319.29547908 83.53862 320.07008362 C86.79554473 321.69032165 90.05071035 323.31403691 93.30493164 324.93969727 C97.48123244 327.02514367 101.66385837 329.0975573 105.84814167 331.1669302 C109.06417397 332.7601096 112.2756948 334.36221819 115.48601341 335.96687508 C117.02700681 336.7352646 118.56965382 337.5003469 120.11394691 338.26208305 C122.26609256 339.32478795 124.41160854 340.39984295 126.5559082 341.47827148 C127.51820343 341.94829338 127.51820343 341.94829338 128.49993896 342.42781067 C132.88585986 344.65757958 132.88585986 344.65757958 134 348 C132.90905029 350.29933877 131.7761134 352.3488879 130.4375 354.5 C130.03764893 355.15145996 129.63779785 355.80291992 129.22583008 356.47412109 C121.18282737 369.30738622 112.09590514 381.36796731 101.59765625 392.28515625 C99.47030335 394.50847996 97.47052451 396.76511884 95.5 399.125 C84.31537265 411.98058372 70.13706589 422.04971291 56.38867188 431.94750977 C52.57603879 434.73027662 49.1039223 437.66734655 45.6875 440.9375 C25.02391105 460.19290363 -1.55660831 470.27092568 -29 475 C-30.04075684 475.18006592 -30.04075684 475.18006592 -31.10253906 475.36376953 C-85.73882242 484.18073589 -147.36346767 472.97026512 -192.71582031 440.78222656 C-207.00972847 430.39046322 -220.58422403 418.64767095 -232.0703125 405.203125 C-233.94654884 403.06102521 -235.8903409 400.99458531 -237.84863281 398.92773438 C-285.19318937 348.58084009 -296.97403366 278.60972301 -295 212 C-292.65436659 156.53176469 -270.6718182 94.07254364 -231 54 C-230.15115234 53.09507812 -230.15115234 53.09507812 -229.28515625 52.171875 C-225.20154114 47.90569827 -220.72322367 44.19247993 -216.1171875 40.50390625 C-213.95074206 38.76369131 -211.81601835 37.00838667 -209.6953125 35.21484375 C-151.27577129 -13.66914177 -71.29111959 -22.95790579 0 0 Z M-161.39453125 111.0859375 C-177.44428883 129.03664088 -196 158.04561812 -196 183 C-112.51 183 -29.02 183 57 183 C57.01375088 173.03655758 57.01375088 173.03655758 55.3125 163.5625 C55.13315918 162.83659668 54.95381836 162.11069336 54.76904297 161.36279297 C50.93438903 146.48749016 43.86289311 133.68628511 34 122 C33.236875 120.989375 32.47375 119.97875 31.6875 118.9375 C28.36248529 115.3031816 24.66951666 112.35693526 20.8203125 109.29296875 C18.31831448 107.25879585 15.97402718 105.14350523 13.625 102.9375 C-3.53976129 87.62592533 -27.50702419 79.81162198 -50 77 C-50.804375 76.88914062 -51.60875 76.77828125 -52.4375 76.6640625 C-91.65017373 72.1300971 -133.33463648 82.28647961 -161.39453125 111.0859375 Z " fill="#FFFFFF" transform="translate(4214,201)"/>
<path d="M0 0 C2.39204095 2.37722955 4.47880671 4.82963414 6.5234375 7.5078125 C5.90597656 8.17425781 5.28851563 8.84070313 4.65234375 9.52734375 C0.32587211 14.23575657 -3.90340873 18.961058 -7.9140625 23.9453125 C-11.57227265 28.48097693 -15.42399215 32.7648242 -19.39038086 37.02709961 C-22.3808325 40.25975225 -25.21435257 43.57478016 -27.9765625 47.0078125 C-31.17587972 50.98410676 -34.50241195 54.77449548 -37.9765625 58.5078125 C-42.25546791 63.10635947 -46.26244152 67.85997753 -50.19921875 72.7578125 C-53.49399792 76.73641376 -56.991208 80.51044817 -60.5078125 84.29296875 C-62.50328038 86.34460371 -62.50328038 86.34460371 -63.4765625 88.5078125 C-67.14603964 86.93028027 -69.74452317 84.64000364 -72.7265625 82.0078125 C-97.89700023 60.53856342 -129.48469172 49.56197816 -162.4765625 51.5078125 C-191.880781 54.12969823 -219.3564443 66.37519501 -238.60546875 89.26953125 C-239.22292969 90.00816406 -239.84039062 90.74679687 -240.4765625 91.5078125 C-241.24871094 92.38050781 -242.02085937 93.25320313 -242.81640625 94.15234375 C-265.39926484 120.14524878 -275.43151286 153.30871302 -273.4765625 187.5078125 C-270.5921246 220.41317642 -255.4066603 251.47881428 -230.3515625 273.1953125 C-204.69298102 294.50974925 -171.80015389 306.04689935 -138.47998047 303.04345703 C-109.13609908 299.96702808 -85.53781538 287.89178535 -65.4765625 266.5078125 C-62.46960246 267.85854787 -60.36346315 269.36572121 -58.02763367 271.68258667 C-57.36438583 272.33585937 -56.701138 272.98913208 -56.01779175 273.66220093 C-55.3012442 274.3780838 -54.58469666 275.09396667 -53.84643555 275.83154297 C-53.08346664 276.58618835 -52.32049774 277.34083374 -51.53440857 278.11834717 C-49.01354786 280.61510587 -46.50041879 283.11946638 -43.98828125 285.625 C-42.24290149 287.36141691 -40.49744247 289.09775416 -38.75190735 290.83401489 C-35.09576137 294.47367008 -31.4440337 298.11769765 -27.79467773 301.76416016 C-23.10744986 306.44599 -18.40426519 311.11143483 -13.69699383 315.7730999 C-10.08819478 319.35223387 -6.49062465 322.94249205 -2.8961277 326.53598404 C-1.16616933 328.26172275 0.56793081 329.98331953 2.30614662 331.70074081 C4.72944442 334.09733237 7.13660383 336.50904804 9.5402832 338.92529297 C10.2669519 339.63712738 10.99362061 340.34896179 11.74230957 341.08236694 C12.71603264 342.07073547 12.71603264 342.07073547 13.70942688 343.07907104 C14.28035222 343.64798506 14.85127756 344.21689907 15.43950367 344.8030529 C16.5234375 346.5078125 16.5234375 346.5078125 16.27694988 348.62176704 C13.30514057 356.06022138 3.6028496 361.70900925 -2.4765625 366.5078125 C-3.10916992 367.01151367 -3.74177734 367.51521484 -4.39355469 368.03417969 C-14.01661583 375.67101894 -23.74694644 382.52610663 -34.4765625 388.5078125 C-35.11464844 388.87326172 -35.75273437 389.23871094 -36.41015625 389.61523438 C-63.17818805 404.9074664 -93.01826865 413.52698922 -123.4765625 417.5078125 C-124.12539398 417.59369629 -124.77422546 417.67958008 -125.44271851 417.76806641 C-131.24892811 418.48227315 -136.98158778 418.68361693 -142.828125 418.7109375 C-143.80405609 418.71663757 -144.77998718 418.72233765 -145.78549194 418.72821045 C-147.84786922 418.73761204 -149.91026118 418.74417504 -151.97265625 418.74804688 C-155.04455906 418.75763459 -158.11575705 418.78865525 -161.1875 418.8203125 C-179.33056149 418.91826785 -197.28687449 417.30381751 -214.9140625 412.8203125 C-215.94370117 412.5625 -216.97333984 412.3046875 -218.03417969 412.0390625 C-268.88364015 398.9586161 -317.34810657 370.80487065 -349.4765625 328.5078125 C-349.94352539 327.90614258 -350.41048828 327.30447266 -350.89160156 326.68457031 C-364.99401803 308.42432589 -376.4971437 288.17327939 -384.4765625 266.5078125 C-384.78142578 265.68394043 -385.08628906 264.86006836 -385.40039062 264.01123047 C-408.89824402 199.46571771 -404.26413826 129.12658641 -375.37597656 67.14648438 C-367.36124522 50.42983131 -356.76096811 34.38637762 -344.4765625 20.5078125 C-343.82171875 19.7446875 -343.166875 18.9815625 -342.4921875 18.1953125 C-331.77674626 5.94909394 -320.28764394 -5.59979009 -307.16357422 -15.24951172 C-305.50554701 -16.47083711 -303.86779752 -17.71596666 -302.23046875 -18.96484375 C-268.65936575 -44.16187426 -227.97856863 -58.85416277 -186.4765625 -63.4921875 C-184.78273437 -63.68941406 -184.78273437 -63.68941406 -183.0546875 -63.890625 C-115.70784683 -70.34615118 -49.36665627 -45.30912287 0 0 Z " fill="#FFFFFF" transform="translate(400.4765625,264.4921875)"/>
<path d="M0 0 C2.58744247 2.34575828 5.12490333 4.73476389 7.65625 7.140625 C9.06636447 8.37730293 10.482586 9.60706973 11.90625 10.828125 C18.38257249 16.48998097 23.95096096 22.55459668 29.33984375 29.265625 C30.83120378 31.1166216 32.34286746 32.95153349 33.87890625 34.765625 C44.06707761 46.84049476 52.33012198 60.17209966 59.65625 74.140625 C60.0584375 74.90552246 60.460625 75.67041992 60.875 76.45849609 C78.13754713 109.7765607 86.10863193 145.61204265 86.03125 182.953125 C86.03043427 184.43755096 86.03043427 184.43755096 86.02960205 185.95196533 C85.98916744 201.99480116 85.11350136 217.41986635 81.65625 233.140625 C81.33479004 234.61764893 81.33479004 234.61764893 81.00683594 236.12451172 C73.00525981 271.67736635 57.52619295 304.7415193 34.65625 333.140625 C34.18251953 333.73004883 33.70878906 334.31947266 33.22070312 334.92675781 C22.13364544 348.57646188 9.71391913 361.54217288 -4.34375 372.140625 C-4.94251953 372.6046875 -5.54128906 373.06875 -6.15820312 373.546875 C-24.42968379 387.66001868 -44.67678763 399.12799092 -66.34375 407.140625 C-67.07577637 407.41310059 -67.80780273 407.68557617 -68.56201172 407.96630859 C-126.18033286 429.06043057 -192.48819088 427.74996697 -248.52514648 402.37451172 C-274.46093824 390.32456012 -297.72264496 374.99490866 -318.34375 355.140625 C-319.20299072 354.31425537 -319.20299072 354.31425537 -320.07958984 353.47119141 C-327.70173428 346.09618486 -334.92402811 338.60690252 -341.34375 330.140625 C-341.82134766 329.51768555 -342.29894531 328.89474609 -342.79101562 328.25292969 C-372.95457838 288.67968764 -390.7157036 240.99954604 -392.34375 191.140625 C-392.385 189.91859375 -392.42625 188.6965625 -392.46875 187.4375 C-393.14504865 146.3523568 -382.67403099 106.27441566 -363.34375 70.140625 C-362.73015625 68.98433594 -362.1165625 67.82804687 -361.484375 66.63671875 C-353.40098242 51.95634255 -343.43144064 38.66871049 -332.34375 26.140625 C-331.57289063 25.25890625 -330.80203125 24.3771875 -330.0078125 23.46875 C-321.46767702 13.81989518 -312.47537479 5.10608374 -302.34375 -2.859375 C-301.38082031 -3.63925781 -300.41789062 -4.41914063 -299.42578125 -5.22265625 C-225.90853439 -63.64510718 -121.10540442 -72.20493158 0 0 Z M-258.08984375 62.09765625 C-259.65479887 63.5161511 -261.27355725 64.87660536 -262.9296875 66.1875 C-290.41794853 88.42719339 -305.04603528 128.2031858 -309.34375 162.140625 C-310.14785796 178.80271654 -310.22515273 195.85128793 -306.34375 212.140625 C-306.14507324 212.97706543 -305.94639648 213.81350586 -305.74169922 214.67529297 C-299.95986543 238.17075987 -289.6500673 260.32097965 -274.34375 279.140625 C-273.89660645 279.69459961 -273.44946289 280.24857422 -272.98876953 280.81933594 C-246.50453397 313.42231181 -209.75985704 334.98552061 -167.71557617 339.62548828 C-126.46904153 343.55733895 -86.23175657 330.40426163 -53.84375 304.953125 C-22.19592886 278.14887827 -0.87742049 241.29057076 3.45556641 199.70532227 C7.05513459 153.70354152 -7.03264496 110.56747393 -36.72998047 75.50390625 C-64.05405488 43.91191084 -101.78125385 24.92594378 -143.34375 21.140625 C-185.50542833 18.26817809 -227.23214676 33.43289204 -258.08984375 62.09765625 Z " fill="#FFFFFF" transform="translate(3031.34375,255.859375)"/>
<path d="M0 0 C39.6 0 79.2 0 120 0 C120 218.46 120 436.92 120 662 C80.4 662 40.8 662 0 662 C0 443.54 0 225.08 0 0 Z " fill="#FFFFFF" transform="translate(509,0)"/>
<path d="M0 0 C4.78453007 0.67271777 9.60719608 1.04328114 14.41894531 1.48071289 C14.41894531 28.54071289 14.41894531 55.60071289 14.41894531 83.48071289 C10.08845467 82.86207137 6.55612523 82.3574478 2.49316406 81.14086914 C1.17348633 80.75318359 1.17348633 80.75318359 -0.17285156 80.35766602 C-1.07068359 80.08889648 -1.96851562 79.82012695 -2.89355469 79.54321289 C-24.64185603 73.04244791 -46.97341546 70.90924604 -67.76782227 81.73657227 C-84.18212227 90.71802538 -95.31524548 108.92228634 -100.58105469 126.48071289 C-103.30545903 137.29985494 -104.04871052 147.58416845 -104.09277344 158.69555664 C-104.10829775 160.10999999 -104.12510463 161.52442983 -104.14318848 162.93884277 C-104.20040126 168.09848484 -104.23309307 173.25837549 -104.26855469 178.41821289 C-104.42324219 195.77415039 -104.42324219 195.77415039 -104.58105469 213.48071289 C-65.31105469 213.48071289 -26.04105469 213.48071289 14.41894531 213.48071289 C14.41894531 238.56071289 14.41894531 263.64071289 14.41894531 289.48071289 C-24.85105469 289.48071289 -64.12105469 289.48071289 -104.58105469 289.48071289 C-104.58105469 412.90071289 -104.58105469 536.32071289 -104.58105469 663.48071289 C-133.62105469 663.48071289 -162.66105469 663.48071289 -192.58105469 663.48071289 C-192.58105469 540.06071289 -192.58105469 416.64071289 -192.58105469 289.48071289 C-206.77105469 289.48071289 -220.96105469 289.48071289 -235.58105469 289.48071289 C-235.58105469 264.40071289 -235.58105469 239.32071289 -235.58105469 213.48071289 C-221.39105469 213.48071289 -207.20105469 213.48071289 -192.58105469 213.48071289 C-192.61585938 208.0937207 -192.65066406 202.70672852 -192.68652344 197.15649414 C-192.70189267 193.6974986 -192.71633726 190.2385465 -192.72753906 186.77954102 C-192.74531675 181.31631482 -192.76610137 175.85324258 -192.80737305 170.39013672 C-193.09819708 130.83121872 -193.09819708 130.83121872 -189.58105469 114.48071289 C-189.31899986 113.25722389 -189.31899986 113.25722389 -189.051651 112.00901794 C-183.88883373 88.44811351 -173.40339132 66.73246341 -157.58105469 48.48071289 C-156.88496094 47.66344727 -156.18886719 46.84618164 -155.47167969 46.00415039 C-146.37143669 35.58082242 -136.28566433 26.86695977 -124.58105469 19.48071289 C-123.98728027 19.1055957 -123.39350586 18.73047852 -122.78173828 18.34399414 C-85.43529227 -4.82088267 -42.29977675 -7.15290787 0 0 Z " fill="#FFFFFF" transform="translate(2609.5810546875,3.519287109375)"/>
<path d="M0 0 C4.99631675 4.47428007 9.39255596 8.9624734 13.7109375 14.14453125 C-13.0190625 40.87453125 -13.0190625 40.87453125 -40.2890625 68.14453125 C-44.23652106 66.17080197 -46.34595133 64.31624734 -49.4765625 61.26953125 C-79.26669447 33.19066748 -119.11446881 19.08023976 -159.796875 19.8984375 C-182.35619234 20.70671251 -204.04923534 26.19614163 -224.2890625 36.14453125 C-225.40539063 36.68851562 -226.52171875 37.2325 -227.671875 37.79296875 C-241.19718283 44.73487373 -252.96410599 54.0883458 -264.2890625 64.14453125 C-264.94261719 64.72460938 -265.59617187 65.3046875 -266.26953125 65.90234375 C-293.89299161 92.01668395 -310.1160105 132.55586508 -311.2890625 170.14453125 C-311.32902344 171.06363281 -311.36898437 171.98273438 -311.41015625 172.9296875 C-312.37236944 214.07845143 -295.87961868 253.95205396 -267.91796875 283.76953125 C-255.34975193 296.88723291 -241.46013171 306.91474767 -225.2890625 315.14453125 C-224.60005859 315.49644531 -223.91105469 315.84835937 -223.20117188 316.2109375 C-202.29086359 326.67574553 -179.35531469 331.55794868 -156.0390625 331.45703125 C-155.35830658 331.4548761 -154.67755066 331.45272095 -153.97616577 331.45050049 C-143.44200687 331.39709733 -133.50000335 330.85827191 -123.2890625 328.14453125 C-122.1458252 327.85449219 -122.1458252 327.85449219 -120.97949219 327.55859375 C-96.55212874 321.24470005 -72.82702288 309.93793352 -53.60009766 293.44580078 C-50.44426293 290.78352794 -49.60795636 290.14453125 -45.2890625 290.14453125 C-43.17578125 291.83203125 -43.17578125 291.83203125 -40.9765625 294.14453125 C-40.1825 294.9746875 -39.3884375 295.80484375 -38.5703125 296.66015625 C-36.09690132 299.35380268 -33.67505179 302.08097759 -31.29296875 304.85546875 C-28.72036286 307.79415696 -26.06963599 310.65589647 -23.4140625 313.51953125 C-19.096357 318.17835417 -14.81984741 322.86972041 -10.58203125 327.6015625 C-8.88541839 329.48315529 -7.18084068 331.35499148 -5.46484375 333.21875 C-4.97894775 333.74654053 -4.49305176 334.27433105 -3.99243164 334.81811523 C-2.61858894 336.30827185 -1.2429432 337.79676558 0.1328125 339.28515625 C2.74251332 342.17955171 5.23577595 345.13516217 7.7109375 348.14453125 C3.4366298 358.37912358 -8.82393343 366.27175329 -17.46533203 372.76953125 C-19.27057414 374.13059196 -21.05930036 375.51139195 -22.84765625 376.89453125 C-51.56006321 398.82588982 -84.80882229 412.08202676 -120.2890625 418.14453125 C-121.0315625 418.27585449 -121.7740625 418.40717773 -122.5390625 418.54248047 C-180.76737865 428.37126584 -243.43262675 411.02901009 -291.296875 377.6953125 C-299.89865078 371.56568065 -307.96257293 365.06397158 -315.57421875 357.7421875 C-317.79754246 355.6148346 -320.05418134 353.61505576 -322.4140625 351.64453125 C-364.90330859 314.56623299 -389.89405667 254.53457042 -394.10595703 199.3034668 C-397.61753461 138.72173043 -380.09750706 80.76986036 -342.2890625 33.14453125 C-341.8569043 32.59522949 -341.42474609 32.04592773 -340.97949219 31.47998047 C-329.77000764 17.34873639 -316.72463822 3.97633204 -302.2890625 -6.85546875 C-301.73718262 -7.27844238 -301.18530273 -7.70141602 -300.61669922 -8.13720703 C-291.55681097 -15.07402953 -282.23538228 -21.26724529 -272.2890625 -26.85546875 C-271.58330078 -27.25620605 -270.87753906 -27.65694336 -270.15039062 -28.06982422 C-184.53576397 -76.27981957 -73.91401204 -64.82193445 0 0 Z " fill="#FFFFFF" transform="translate(3852.2890625,257.85546875)"/>
<path d="M0 0 C-1.67552955 8.77196273 -4.57116294 17.11264819 -7.41015625 25.55859375 C-7.9433391 27.15507996 -8.47616508 28.75168539 -9.00865173 30.34840393 C-10.11964292 33.67679762 -11.23355605 37.00419282 -12.34985352 40.33081055 C-13.78201786 44.59887098 -15.20888574 48.8686778 -16.63385868 53.13914394 C-17.73144077 56.42774122 -18.83072021 59.71576886 -19.93063164 63.00358772 C-20.45760391 64.57880397 -20.98429395 66.15411467 -21.51069832 67.7295208 C-22.24392347 69.9223432 -22.9791754 72.11447473 -23.71508789 74.30639648 C-24.34224449 76.17762428 -24.34224449 76.17762428 -24.98207092 78.08665466 C-26 81 -26 81 -27 83 C-28.57974609 82.58427734 -28.57974609 82.58427734 -30.19140625 82.16015625 C-39.816412 79.70720879 -49.03563306 78.19128418 -59 78 C-60.29647461 77.9693042 -60.29647461 77.9693042 -61.61914062 77.93798828 C-94.24460574 77.25782266 -123.37528088 82.3348526 -147.84741211 105.45166016 C-172.25522644 129.24287879 -193.30499475 164.63617917 -194.26171303 199.41215134 C-194.27716114 201.27802822 -194.28229082 203.14401181 -194.2784729 205.00994873 C-194.2842653 206.04925702 -194.2900577 207.08856532 -194.29602563 208.1593678 C-194.31288574 211.60465003 -194.31589 215.04979719 -194.31884766 218.49511719 C-194.32815549 220.97961754 -194.33832543 223.4641148 -194.34928894 225.9486084 C-194.37088216 231.27845134 -194.38653318 236.60825991 -194.39665604 241.93813324 C-194.41130205 249.64402679 -194.43685507 257.34985455 -194.46498732 265.05570927 C-194.51034829 277.56088504 -194.54700706 290.06607033 -194.578125 302.57128906 C-194.60835451 314.71193106 -194.64272486 326.85254981 -194.68261719 338.99316406 C-194.68507874 339.74273427 -194.68754028 340.49230447 -194.69007643 341.26458892 C-194.70245188 345.02532749 -194.71490825 348.78606578 -194.72740483 352.54680395 C-194.83081233 383.69784169 -194.91845261 414.84889546 -195 446 C-224.04 446 -253.08 446 -283 446 C-283 299.15 -283 152.3 -283 1 C-255.61 1 -228.22 1 -200 1 C-198.0625 24.5 -198.0625 24.5 -197.45727539 31.87304688 C-197.29586823 33.82162557 -197.13433673 35.77019397 -196.97265625 37.71875 C-196.85077942 39.21196777 -196.85077942 39.21196777 -196.72644043 40.73535156 C-196.27309492 46.17820022 -195.72167638 51.58602311 -195 57 C-194.5875 55.97261719 -194.175 54.94523437 -193.75 53.88671875 C-183.34273971 28.62112123 -164.73228024 12.21255038 -139.84716797 1.75683594 C-94.44312208 -16.84646068 -46.443391 -10.35302752 0 0 Z " fill="#FFFFFF" transform="translate(3459,216)"/>
</svg>
