<?xml version="1.0" encoding="UTF-8"?>
<svg xmlns="http://www.w3.org/2000/svg" xmlns:xlink="http://www.w3.org/1999/xlink" version="1.1" viewBox="0 0 429.5 162">
  <!-- Generator: Adobe Illustrator 29.0.0, SVG Export Plug-In . SVG Version: 2.1.0 Build 186)  -->
  <defs>
    <style>
      .st0, .st1 {
        fill: #e31933;
      }

      .st2 {
        fill: #d1d3d4;
      }

      .st3 {
        fill: #ffd200;
      }

      .st3, .st1, .st4 {
        mix-blend-mode: multiply;
      }

      .st5 {
        fill: #231f20;
      }

      .st6 {
        fill: url(#radial-gradient);
      }

      .st7 {
        isolation: isolate;
      }
    </style>
    <radialGradient id="radial-gradient" cx="214.7" cy="39.7" fx="214.7" fy="39.7" r="23" gradientTransform="translate(-.7 0)" gradientUnits="userSpaceOnUse">
      <stop offset="0" stop-color="#fff"/>
      <stop offset=".5" stop-color="#fdfdfd"/>
      <stop offset=".7" stop-color="#f6f6f6"/>
      <stop offset=".8" stop-color="#eaebeb"/>
      <stop offset="1" stop-color="#d9dbdc"/>
      <stop offset="1" stop-color="#d1d3d4"/>
    </radialGradient>
  </defs>
  <g class="st7">
    <g id="Layer_1">
      <g>
        <g>
          <path class="st5" d="M157.7,94.2c-.6-1.8-2.3-3-4.4-3-3.2,0-5.3,2.4-5.3,5.6s2.5,6.1,5.5,6.1,3.4-.5,4.7-2.9h.4c-.3.9-.8,2.1-1.2,2.8-1.2-.2-2.1.5-4.4.5-3.9,0-6.8-2.6-6.8-6.2s2.9-6.5,7-6.5,3.5.8,4.1.8.3,0,.3-.1h.3l.2,2.8h-.4Z"/>
          <path class="st5" d="M169,103.5c-3.8,0-7-2.4-7-6.1s3-6.6,7.1-6.6,6.8,2.5,6.8,6-3.1,6.7-6.9,6.7ZM168.6,91.3c-3.4,0-4.8,3.2-4.8,5.5,0,3.6,2.5,6.2,5.6,6.2s4.7-2.8,4.7-5.6-2.3-6.2-5.5-6.2Z"/>
          <path class="st5" d="M187.7,103.1h-8.7v-.4h.6c.9,0,1.2-.3,1.2-1.3v-8.6c0-1-.3-1.5-1.5-1.5h-.3v-.4h5.7v.4h-.7c-1.3,0-1.6.1-1.6,1.3v9c0,.5.2.7.8.7h2.9c1.1,0,1.5-.4,2.7-2.1h.4l-1.5,2.8Z"/>
          <path class="st5" d="M200.5,103.1h-8.7v-.4h.6c.9,0,1.2-.3,1.2-1.3v-8.6c0-1-.3-1.5-1.5-1.5h-.3v-.4h5.7v.4h-.7c-1.3,0-1.6.1-1.6,1.3v9c0,.5.2.7.8.7h2.9c1.1,0,1.5-.4,2.7-2.1h.3l-1.5,2.8Z"/>
          <path class="st5" d="M213.3,98.8h-.4c-.2-1.4-.5-1.5-1.3-1.5h-3.3v4.1c0,.9.3,1.1,1,1.1h3c1.4,0,1.8-.5,2.3-2.2h.3l-.3,2.9h-10.3v-.4h.5c1.6,0,1.8-.4,1.8-1.6v-8.2c0-1.1-.3-1.6-1.6-1.6h-.4v-.4h9.3l.2,2.7h-.3c-.3-1.7-.7-2-1.4-2h-4.1v4.8h3.5c.7,0,1-.3,1.1-1.5h.4v3.7Z"/>
          <path class="st5" d="M230.2,102.2c-1.9,1-4.4,1.2-5.2,1.2-4.3,0-6.2-3.3-6.2-6.1s2-6.6,6.8-6.6,3.5.7,3.9.7.3,0,.4-.1h.3v3.1h-.4c-.5-2.4-2.2-3.2-4-3.2-3.4,0-5.2,2.8-5.2,6s2.8,5.7,5,5.7,1.9-.2,3-.7v-2.4c0-1.1-.4-1.5-1.6-1.5h-.7v-.3h5.2v.3c-1,0-1.4.4-1.4,1.2v2.7Z"/>
          <path class="st5" d="M242.8,98.8h-.4c-.2-1.4-.5-1.5-1.3-1.5h-3.3v4.1c0,.9.3,1.1,1,1.1h3c1.4,0,1.8-.5,2.3-2.2h.3l-.3,2.9h-10.3v-.4h.5c1.6,0,1.8-.4,1.8-1.6v-8.2c0-1.1-.3-1.6-1.6-1.6h-.4v-.4h9.3l.2,2.7h-.4c-.3-1.7-.7-2-1.4-2h-4.1v4.8h3.5c.7,0,1-.3,1.1-1.5h.4v3.7Z"/>
          <path class="st5" d="M262.7,103.5c-3.8,0-7-2.4-7-6.1s3-6.6,7.1-6.6,6.8,2.5,6.8,6-3.1,6.7-6.9,6.7ZM262.3,91.3c-3.4,0-4.8,3.2-4.8,5.5,0,3.6,2.5,6.2,5.6,6.2s4.7-2.8,4.7-5.6-2.3-6.2-5.5-6.2Z"/>
          <path class="st5" d="M281.5,98.5h-.3c0-1.1-.4-1.5-1.4-1.5h-3.6v4.3c0,1.1.2,1.5,1.7,1.5v.4h-4.7v-.4c1.2,0,1.4-.3,1.4-1.9v-7.6c0-1.2,0-1.8-1.5-1.8v-.4h8.7v2.3h-.3c0-1.1-.4-1.6-1.6-1.6h-3.7v4.6h3.8c.7,0,1.1-.4,1.1-1.2h.3v3.4Z"/>
          <g>
            <path class="st5" d="M24.6,115.3c-1-2.7-3.5-4.5-6.6-4.5-4.9,0-7.9,3.5-7.9,8.4s3.8,9.1,8.2,9.1,5.1-.8,7.1-4.3h.6c-.4,1.3-1.2,3.1-1.9,4.3-1.9-.3-3.1.8-6.6.8-5.9,0-10.2-3.9-10.2-9.3s4.4-9.7,10.5-9.7,5.2,1.2,6.1,1.2.5,0,.5-.2h.4l.3,4.2h-.6Z"/>
            <path class="st5" d="M39.1,129.1c-5.7,0-10.5-3.7-10.5-9.1s4.5-9.9,10.7-9.9,10.2,3.8,10.2,9-4.7,10-10.4,10ZM38.5,110.8c-5.1,0-7.2,4.8-7.2,8.3,0,5.4,3.7,9.3,8.4,9.3s7-4.2,7-8.3-3.4-9.2-8.2-9.2Z"/>
            <path class="st5" d="M62.9,128.6l-7.4-15.5h0l-.8,13.1c0,1.5,1,1.8,2.3,1.9v.6h-6.1v-.6c2.1,0,2.4-.5,2.5-3.1l.7-11.3c.1-1.9,0-2.4-1.7-2.6v-.5h4.4l7,14.7,7-14.7h4.3v.5c-1.4.1-2,.1-1.9,1.1l.9,13.2c.2,2.7.4,2.7,2.5,2.7v.6h-7.5v-.6c1.4,0,2.7-.4,2.6-1.9l-.8-13h0l-7.3,15.5h-.7Z"/>
            <path class="st5" d="M83.1,125.8c0,1.6.5,2.2,2.3,2.2h1v.6h-8.1v-.6h.4c1.5,0,2-.3,2-1.7v-13.8c0-1.1-.3-1.5-1.4-1.5h-1.5v-.6c.8,0,2.2-.1,3.7-.2,1.4,0,2.8,0,3.6,0,6.1,0,7.5,2.9,7.5,5.2,0,3.4-2.7,5.6-7,5.6s-1.6,0-2.5-.2v5.1ZM83.1,120.2c.4,0,1,.2,1.6.2,3.2,0,5.2-2.2,5.2-5.1s-.9-4.5-4.8-4.5-1.3,0-2,.1v9.3Z"/>
            <path class="st5" d="M116.4,110.5v.6c-2,0-2.7.8-2.7,2.7v7.9c0,3.6-2.3,7.5-8.6,7.5s-8.4-3.2-8.4-7.3v-8.5c0-1.9-.5-2.2-2.5-2.2v-.6h7.5v.6h-.3c-1.6,0-2.3.4-2.3,2.1v8.1c0,3.9,2.3,6.3,6.6,6.3s6.6-1.4,6.6-6.3v-6.8c0-2.8-.4-3.3-2.9-3.4v-.6h6.8Z"/>
            <path class="st5" d="M127.8,125.9c0,1.6.5,2.1,2.3,2.1h1.1v.6h-9.2v-.6h1.1c1.8,0,2.3-.6,2.3-2.1v-14.4h-5.1c-1.2,0-1.7.7-2.1,3.2h-.5l.5-4.7h.6c0,.2.1.3.3.3.2,0,.4,0,.6,0h14c.4,0,.8,0,.9-.4h.6l.5,4.7h-.5c-.4-2.6-1-3.2-2.1-3.2h-5.1v14.4Z"/>
            <path class="st5" d="M149.9,122.1h-.6c-.2-2.1-.8-2.3-2-2.3h-4.9v6.2c0,1.3.5,1.6,1.6,1.6h4.5c2,0,2.7-.8,3.4-3.3h.5l-.5,4.3h-15.5v-.6h.8c2.3,0,2.7-.6,2.7-2.4v-12.3c0-1.6-.4-2.3-2.3-2.3h-.6v-.6h14l.2,4h-.5c-.4-2.5-1.1-3-2.2-3h-6.1v7.2h5.2c1,0,1.5-.5,1.7-2.2h.6v5.5Z"/>
            <path class="st5" d="M172.3,129c-2.2,0-4-.4-6.6-4.4-.4-.6-2-3.2-2.4-3.6h-3.9v3.9c0,2.5.2,3.2,3.1,3.2v.5h-8.3v-.5c2.8,0,2.8-.8,2.8-3.3v-11.7c0-1.5-.4-2-2.8-2v-.5c2.4-.2,4.9-.3,7.4-.3s3.6.3,4.9.9c1.2.6,2.9,1.9,2.9,4.3s-.3,3.5-3.8,4.7l3.6,5.4c1.3,2,2.3,2.8,3.2,2.9v.5ZM159.4,120.5h1.2c1.3,0,2.2,0,3.2-.3,2-.6,2.8-2.8,2.8-4.6s-.4-3.2-2.3-4.1c-1.4-.7-3.2-.6-4.8-.6v9.6Z"/>
            <path class="st5" d="M174,132.4c1.5-.8,2.2-1.9,2.2-2.9s-.1-.6-.4-.6-.2,0-.3,0c-.1,0-.2,0-.4,0-.8,0-1.3-.6-1.3-1.3s.7-1.4,1.6-1.4,2,1,2,2.4-1.3,3.6-3.2,4.3l-.2-.5Z"/>
            <path class="st5" d="M197,128.6l-7.4-15.5h0l-.8,13.1c0,1.5,1,1.8,2.3,1.9v.6h-6.1v-.6c2.1,0,2.4-.5,2.5-3.1l.7-11.3c.1-1.9,0-2.4-1.7-2.6v-.5h4.4l7,14.7,7-14.7h4.3v.5c-1.4.1-2,.1-1.9,1.1l.9,13.2c.2,2.7.4,2.7,2.5,2.7v.6h-7.5v-.6c1.4,0,2.7-.4,2.6-1.9l-.8-13h0l-7.3,15.5h-.7Z"/>
            <path class="st5" d="M217.2,120.6l-1.7,4.6c-.2.6-.6,1.4-.6,1.8,0,.8.8,1.1,2.4,1.1h.5v.6h-6.7v-.6c1.9,0,2.2-.3,3.1-2.9l5.3-14.5-.3-.6h2.5l6.1,16.2c.6,1.5,1.2,1.8,2.7,1.8v.6h-8v-.6h.8c1.7,0,2.3-.2,2.3-1s-.2-.9-.3-1.2l-2-5.3h-6ZM220.1,112.5l-2.5,6.8h5l-2.6-6.8Z"/>
            <path class="st5" d="M239.5,125.9c0,1.6.5,2.1,2.3,2.1h1.1v.6h-9.2v-.6h1.1c1.8,0,2.3-.6,2.3-2.1v-14.4h-5.1c-1.2,0-1.7.7-2.1,3.2h-.5l.5-4.7h.6c0,.2.1.3.3.3.2,0,.4,0,.6,0h14c.4,0,.8,0,.9-.4h.6l.5,4.7h-.5c-.4-2.6-1-3.2-2.1-3.2h-5.1v14.4Z"/>
            <path class="st5" d="M253.9,120v5.5c0,1.9.4,2.6,2.3,2.6h0v.6h-7.3v-.6h.2c1.7,0,2.3-.5,2.3-2.1v-12.8c0-1.5-.5-2-2.1-2.1v-.6h6.9v.6c-2.1,0-2.4.6-2.4,2.8v5.1h11.4v-5.7c0-1.5-.5-2.1-2.3-2.1h-.6v-.6h7.5v.6c-1.7,0-2.2.6-2.2,2.4v12.1c0,2.1.6,2.5,2.3,2.5h.3v.6h-8.2v-.6h.9c1.9,0,2.3-.7,2.3-2.2v-5.9h-11.4Z"/>
            <path class="st5" d="M284.7,122.1h-.6c-.2-2.1-.8-2.3-2-2.3h-4.9v6.2c0,1.3.5,1.6,1.6,1.6h4.5c2,0,2.7-.8,3.4-3.3h.5l-.5,4.3h-15.5v-.6h.8c2.3,0,2.7-.6,2.7-2.4v-12.3c0-1.6-.4-2.3-2.3-2.3h-.6v-.6h14l.2,4h-.5c-.4-2.5-1.1-3-2.2-3h-6.1v7.2h5.2c1,0,1.5-.5,1.7-2.2h.6v5.5Z"/>
            <path class="st5" d="M300.9,128.6l-7.4-15.5h0l-.8,13.1c0,1.5,1,1.8,2.3,1.9v.6h-6.1v-.6c2.1,0,2.4-.5,2.5-3.1l.7-11.3c.1-1.9,0-2.4-1.7-2.6v-.5h4.4l7,14.7,7-14.7h4.3v.5c-1.4.1-2,.1-1.9,1.1l.9,13.2c.2,2.7.4,2.7,2.5,2.7v.6h-7.5v-.6c1.4,0,2.7-.4,2.6-1.9l-.8-13h0l-7.3,15.5h-.7Z"/>
            <path class="st5" d="M320.8,120.6l-1.7,4.6c-.2.6-.6,1.4-.6,1.8,0,.8.8,1.1,2.4,1.1h.5v.6h-6.7v-.6c1.9,0,2.2-.3,3.1-2.9l5.3-14.5-.3-.6h2.5l6.1,16.2c.6,1.5,1.2,1.8,2.7,1.8v.6h-8v-.6h.8c1.7,0,2.3-.2,2.3-1s-.2-.9-.3-1.2l-2-5.3h-6ZM323.8,112.5l-2.5,6.8h5l-2.6-6.8Z"/>
            <path class="st5" d="M342.4,125.9c0,1.6.5,2.1,2.3,2.1h1.1v.6h-9.2v-.6h1.1c1.8,0,2.3-.6,2.3-2.1v-14.4h-5.1c-1.2,0-1.7.7-2.1,3.2h-.5l.5-4.7h.6c0,.2.1.3.3.3.2,0,.4,0,.6,0h14c.4,0,.8,0,.9-.4h.6l.5,4.7h-.5c-.4-2.6-1-3.2-2.1-3.2h-5.1v14.4Z"/>
            <path class="st5" d="M359.4,128.6h-7.1v-.6c1.8,0,2.2-.6,2.2-2.5v-12.4c0-1.6-.6-2-2.2-2.1v-.6h7.1v.6c-1.8,0-2.5.4-2.5,2.4v12.4c0,1.7.5,2.3,2.5,2.3v.6Z"/>
            <path class="st5" d="M379.5,115.3c-1-2.7-3.5-4.5-6.6-4.5-4.9,0-7.9,3.5-7.9,8.4s3.8,9.1,8.2,9.1,5.1-.8,7.1-4.3h.6c-.4,1.3-1.2,3.1-1.9,4.3-1.9-.3-3.1.8-6.6.8-5.9,0-10.2-3.9-10.2-9.3s4.4-9.7,10.5-9.7,5.2,1.2,6.1,1.2.5,0,.5-.2h.4l.3,4.2h-.6Z"/>
            <path class="st5" d="M386.9,120.6l-1.7,4.6c-.2.6-.6,1.4-.6,1.8,0,.8.8,1.1,2.4,1.1h.5v.6h-6.7v-.6c1.9,0,2.2-.3,3.1-2.9l5.3-14.5-.3-.6h2.5l6.1,16.2c.6,1.5,1.2,1.8,2.6,1.8v.6h-8v-.6h.8c1.7,0,2.3-.2,2.3-1s-.2-.9-.3-1.2l-2-5.3h-6ZM389.8,112.5l-2.5,6.8h5l-2.6-6.8Z"/>
            <path class="st5" d="M413.9,128.6h-13v-.6h1c1.3,0,1.8-.4,1.8-1.9v-12.9c0-1.5-.5-2.2-2.3-2.2h-.4v-.6h8.6v.6h-1.1c-1.9,0-2.4.2-2.4,2v13.4c0,.8.3,1.1,1.2,1.1h4.3c1.7,0,2.2-.7,4.1-3.2h.5l-2.2,4.3Z"/>
            <path class="st5" d="M417.2,132.4c1.5-.8,2.2-1.9,2.2-2.9s-.1-.6-.4-.6-.2,0-.3,0c-.1,0-.2,0-.4,0-.8,0-1.3-.6-1.3-1.3s.7-1.4,1.6-1.4,2,1,2,2.4-1.3,3.6-3.2,4.3l-.2-.5Z"/>
          </g>
          <g>
            <path class="st5" d="M78.1,141.9v.5c-1.6,0-2.1.1-2.5.6-.6.6-2,3.6-4.4,6.3,1.6,2.5,2.1,4.2,3.5,4.2s1.3-.3,2.3-1l.3.5c-1.3,1-2.5,1.5-3.6,1.5-1.8,0-2.3-.7-3.9-3.6-2.2,2.3-4.6,3.6-6.6,3.6s-4.7-2.1-4.7-4.8,1.4-3.9,5.1-5.4c-1.3-1.1-2.1-2.5-2.1-3.8,0-2,1.6-3.4,4-3.4s3.7,1.2,3.7,2.8-1.2,2.7-3.3,3.7c1.9,1.3,3.7,3.1,5.1,5.2,1.4-1.7,3.6-5,3.6-5.8s-.3-.6-1.6-.6v-.5h5.2ZM64.3,153.1c1.7,0,3.9-1.1,5.1-2.7-1.3-2.2-3.1-4.1-5.5-5.8-2.2,1.5-3.1,2.9-3.1,4.7s1.4,3.7,3.5,3.7ZM65.2,137.7c-1.2,0-1.9.8-1.9,2.1s.7,2.4,2.2,3.5c1.3-.8,1.9-1.7,1.9-3.1s-.8-2.4-2.1-2.4Z"/>
            <path class="st5" d="M106.3,154.3l-15.1-15.8v12.5c0,2.1.5,2.5,2.9,2.5v.6h-6.8v-.6h.1c1.8,0,2.4-.6,2.4-2v-14.3c-.7-.5-1.4-.7-2.4-.7v-.6h4.6l13.7,14.3v-11.6c0-1.8-.5-2.1-2.9-2.2v-.6h6.8v.6c-2.2,0-2.6.4-2.6,1.5v16.3h-.8Z"/>
            <path class="st5" d="M116.5,146.1l-1.7,4.6c-.2.6-.6,1.4-.6,1.8,0,.8.8,1.1,2.4,1.1h.5v.6h-6.7v-.6c1.9,0,2.2-.3,3.1-2.9l5.3-14.5-.3-.6h2.5l6.1,16.2c.6,1.5,1.2,1.8,2.7,1.8v.6h-8v-.6h.8c1.7,0,2.3-.2,2.3-1s-.2-.9-.3-1.2l-2-5.3h-6ZM119.5,138l-2.5,6.8h5l-2.6-6.8Z"/>
            <path class="st5" d="M138.8,151.4c0,1.6.5,2.1,2.3,2.1h1.1v.6h-9.2v-.6h1.1c1.8,0,2.3-.6,2.3-2.1v-14.4h-5.1c-1.2,0-1.7.7-2.1,3.2h-.5l.5-4.7h.6c0,.2.1.3.3.3.2,0,.4,0,.6,0h14c.4,0,.8,0,.9-.4h.6l.5,4.7h-.5c-.4-2.6-1-3.2-2.1-3.2h-5.1v14.4Z"/>
            <path class="st5" d="M170.2,136v.6c-2,0-2.6.8-2.6,2.7v7.9c0,3.6-2.3,7.5-8.6,7.5s-8.4-3.2-8.4-7.3v-8.5c0-1.9-.5-2.2-2.5-2.2v-.6h7.5v.6h-.3c-1.6,0-2.3.4-2.3,2.1v8.1c0,3.9,2.3,6.3,6.6,6.3s6.6-1.4,6.6-6.3v-6.8c0-2.8-.4-3.3-2.9-3.4v-.6h6.8Z"/>
            <path class="st5" d="M189.1,154.5c-2.2,0-4-.4-6.6-4.4-.4-.6-2-3.2-2.4-3.6h-3.9v3.9c0,2.5.2,3.2,3.1,3.2v.5h-8.3v-.5c2.8,0,2.8-.8,2.8-3.3v-11.7c0-1.5-.4-2-2.8-2v-.5c2.4-.2,4.9-.3,7.4-.3s3.6.3,4.9.9c1.2.6,2.9,1.9,2.9,4.3s-.3,3.5-3.8,4.7l3.6,5.4c1.3,2,2.3,2.8,3.2,2.9v.5ZM176.2,146h1.2c1.3,0,2.2,0,3.2-.3,2-.6,2.8-2.8,2.8-4.6s-.4-3.2-2.3-4.1c-1.4-.7-3.2-.6-4.8-.6v9.6Z"/>
            <path class="st5" d="M195.6,146.1l-1.7,4.6c-.2.6-.6,1.4-.6,1.8,0,.8.8,1.1,2.4,1.1h.5v.6h-6.7v-.6c1.9,0,2.2-.3,3.1-2.9l5.3-14.5-.3-.6h2.5l6.1,16.2c.6,1.5,1.2,1.8,2.7,1.8v.6h-8v-.6h.8c1.7,0,2.3-.2,2.3-1s-.2-.9-.3-1.2l-2-5.3h-6ZM198.6,138l-2.5,6.8h5l-2.6-6.8Z"/>
            <path class="st5" d="M222.7,154.1h-13v-.6h1c1.3,0,1.8-.4,1.8-1.9v-12.9c0-1.5-.5-2.2-2.3-2.2h-.4v-.6h8.6v.6h-1.1c-1.9,0-2.4.2-2.4,2v13.4c0,.8.3,1.1,1.2,1.1h4.3c1.7,0,2.2-.7,4.1-3.2h.5l-2.2,4.3Z"/>
            <path class="st5" d="M235.1,149.7c.6,2.6,2.7,4.1,4.9,4.1s4-1.1,4-3.4c0-4.2-9.3-5.5-9.3-10.6s2.2-4.2,5.2-4.2,2.9.7,4,.7.3,0,.5-.3h.5l.5,3.7h-.5c-.8-2.1-2.7-3.4-4.7-3.4s-3.3,1.1-3.3,2.7c0,4.1,9.4,5.2,9.4,10.6s-2.5,5-5.9,5-3.6-.8-4-.8-.5.1-.6.3h-.5l-.6-4.4h.6Z"/>
            <path class="st5" d="M265.7,140.8c-1-2.7-3.5-4.5-6.6-4.5-4.9,0-7.9,3.5-7.9,8.4s3.8,9.1,8.2,9.1,5.1-.8,7.1-4.3h.6c-.4,1.3-1.2,3.1-1.9,4.3-1.9-.3-3.1.8-6.6.8-5.9,0-10.2-3.9-10.2-9.3s4.4-9.7,10.5-9.7,5.2,1.2,6.1,1.2.5,0,.5-.2h.4l.3,4.2h-.6Z"/>
            <path class="st5" d="M276.6,154.1h-7.1v-.6c1.8,0,2.2-.6,2.2-2.5v-12.4c0-1.6-.6-2-2.2-2.1v-.6h7.1v.6c-1.8,0-2.5.4-2.5,2.4v12.4c0,1.7.5,2.3,2.5,2.3v.6Z"/>
            <path class="st5" d="M291.9,147.6h-.6c-.2-2.1-.8-2.3-2-2.3h-4.9v6.2c0,1.3.5,1.6,1.6,1.6h4.5c2,0,2.6-.8,3.4-3.3h.5l-.5,4.3h-15.5v-.6h.8c2.3,0,2.7-.6,2.7-2.4v-12.3c0-1.6-.4-2.3-2.3-2.3h-.6v-.6h14l.2,4h-.5c-.4-2.5-1.1-3-2.2-3h-6.1v7.2h5.2c1,0,1.5-.5,1.7-2.2h.6v5.5Z"/>
            <path class="st5" d="M315.4,154.3l-15.1-15.8v12.5c0,2.1.5,2.5,2.9,2.5v.6h-6.8v-.6h.1c1.8,0,2.4-.6,2.4-2v-14.3c-.7-.5-1.4-.7-2.4-.7v-.6h4.6l13.7,14.3v-11.6c0-1.8-.5-2.1-2.9-2.2v-.6h6.8v.6c-2.2,0-2.6.4-2.6,1.5v16.3h-.8Z"/>
            <path class="st5" d="M336.9,140.8c-1-2.7-3.5-4.5-6.6-4.5-4.9,0-7.9,3.5-7.9,8.4s3.8,9.1,8.2,9.1,5.1-.8,7.1-4.3h.6c-.4,1.3-1.2,3.1-1.9,4.3-1.9-.3-3.1.8-6.6.8-5.9,0-10.2-3.9-10.2-9.3s4.4-9.7,10.5-9.7,5.2,1.2,6.1,1.2.5,0,.5-.2h.4l.3,4.2h-.6Z"/>
            <path class="st5" d="M352.9,147.6h-.6c-.2-2.1-.8-2.3-2-2.3h-4.9v6.2c0,1.3.5,1.6,1.6,1.6h4.5c2,0,2.7-.8,3.4-3.3h.5l-.5,4.3h-15.5v-.6h.8c2.3,0,2.7-.6,2.7-2.4v-12.3c0-1.6-.4-2.3-2.3-2.3h-.6v-.6h14l.2,4h-.5c-.4-2.5-1.1-3-2.2-3h-6.1v7.2h5.2c1,0,1.5-.5,1.7-2.2h.6v5.5Z"/>
            <path class="st5" d="M358.5,149.7c.6,2.6,2.7,4.1,4.9,4.1s4-1.1,4-3.4c0-4.2-9.4-5.5-9.4-10.6s2.2-4.2,5.2-4.2,2.9.7,4,.7.3,0,.5-.3h.5l.5,3.7h-.5c-.8-2.1-2.7-3.4-4.7-3.4s-3.3,1.1-3.3,2.7c0,4.1,9.4,5.2,9.4,10.6s-2.5,5-5.9,5-3.6-.8-4-.8-.5.1-.6.3h-.5l-.6-4.4h.6Z"/>
          </g>
        </g>
        <g>
          <g>
            <path class="st6" d="M214,62.7c-12.7,0-23-10.3-23-23,0-12.7,10.3-23,23-23,12.7,0,23,10.3,23,23,0,12.7-10.3,23-23,23Z"/>
            <path class="st2" d="M214,62.7c-12.7,0-23-10.3-23-23,0-12.7,10.3-23,23-23,12.7,0,23,10.3,23,23,0,12.7-10.3,23-23,23ZM214,17c-12.5,0-22.7,10.2-22.7,22.7,0,12.5,10.2,22.7,22.7,22.7,12.5,0,22.7-10.2,22.7-22.7,0-12.5-10.2-22.7-22.7-22.7Z"/>
            <path class="st3" d="M236.8,39.2c0,.1-.4.4-.8.7,0,0,0,0,0,0-.6.3-1.4.6-2.5.9-1.1.3-2.4.5-3.8.8-1.4.2-3.1.4-4.8.5,0,0,0,0,0,0-2.2.2-3.6.3-5.4.4-1.9,0-3.8.1-5.8.1,0,.3,0,.5,0,.8,0,1.8,0,3.5,0,5.1q0,8.8.3,14.1c12.6,0,22.8-10.2,22.8-22.8,0,0,0-.3,0-.5Z"/>
            <g>
              <path class="st5" d="M213.7,43.4c0,1.8,0,3.5,0,5.1q3.7,3.5,5.2,5c.4-2.9.6-6.4.6-10.2,0-.3,0-.5,0-.8-2.3,0-3.8.1-5.8.1,0,.3,0,.5,0,.8Z"/>
              <path class="st5" d="M222,57.4c-.8-1.3-1.5-2.2-3.2-3.9-.8,5.6-2.2,9-3.9,9.1.1,0,.4,0,.5,0,.2,0,.4,0,.6,0,2.4-.2,4.4-2,6-5.1Z"/>
              <path class="st5" d="M224.6,48.1s-1.3,6.9-2.6,9.3c.7,1.4.7,1.9.5,2.8,2.2-1.7,4-4.2,5.3-7.4-.8-1.6-1.4-2.5-3.2-4.8Z"/>
              <path class="st5" d="M218.1,62.2c.5,0,.5,0,1.4-.3l.5-.2c1.7-.5,2-.8,2.5-1.6-1.5,1.1-3.1,1.8-4.9,2.1h.5Z"/>
              <path class="st5" d="M228.2,56.6c3.3-3.7,5.3-9,5.3-15,0-.3,0-.5,0-.8-1.1.3-2.4.5-3.8.8,0,.3,0,.5,0,.8,0,3.9-.7,7.5-1.9,10.5.7,1.7.7,2.5.4,3.8Z"/>
              <path class="st5" d="M224.9,42.1c-2.2.2-3.6.3-5.4.4,3.1,3.3,3.8,4,5.1,5.5.2-1.6.3-3.3.3-5.1,0-.3,0-.5,0-.8Z"/>
            </g>
            <path class="st5" d="M209,18.1c1.3-.5,2.5-1,5-1.2h0c-1.7.2-3.4.6-5,1.2"/>
            <g class="st4">
              <path class="st0" d="M229.3,41.6c-1.2-.2-2.2-2.2-1.7-4.2-1.7,1.2-3.6-1.2-3.3-3.4.1-1.2.9-2.2,2.2-1.7-.5-1.9-1.2-3.6-2-5.2-1.2.1-2.5.3-3.9.4,1.2,1.8,0,3.6-1.7,3.3-1.2-.2-2.4-1.5-2.1-3-1,.7-3.1.4-3.2-1.8,0,4.6,0,10.6,0,16.8,6.1,0,13.2-.6,16-1,0,0,0,0,0,0-.1,0-.3,0-.4,0Z"/>
            </g>
            <g class="st4">
              <path class="st0" d="M199.2,46.2c1.7-.7,3.8,2.3,3.1,4.2-.3.9-1.2,1.2-2.2.6.5,1.7,1.2,3.3,1.9,4.7,1.2.2,2.5.3,4,.4-1.2-1.5-.2-2.7,1.3-2.6,1.4,0,3.2,1.2,2.8,2.7,1.2-.6,3.3-.1,3.5,1.5,0-3.4-.1-8.5-.1-14.4,0-.3,0-.5,0-.8-1.9,0-3.9,0-5.8-.1-4.1-.2-6.9-.4-10.4-1,0,0,0,0,0,0,1.8.6,2.3,3.2,1.8,4.7Z"/>
            </g>
            <path class="st1" d="M224.8,25.1h0s0,0,0,0h0s0,0,0,0c.2,0,.4,0,.6-.1,1.3-.2,4.3-1,4.3-1.8,0,0,1.2,1.2,2,2.8.1.2.2.3.3.6.1.3.2.6.2.8,0,.5-.4.5-.7.4,0,0,0,0-.1,0-1.2-.5-1.6-1.6-1.8-2-.6.2-1.6.6-2.4.8,0,0-.3,0-.4,0,1,1.6,1.9,3.5,2.6,5.3,1.2-1.2,3,1,3,3.1,0,1.2-.5,2.4-1.6,2,.9,1.7.6,4.2-1.1,4.7-.3-5.5-1.2-10.5-4.9-16.5h0"/>
            <path class="st1" d="M224.8,25.1h0c-2.9-4.4-5.2-6.1-8.2-7.2-.6-.2-2.6-1-2.7-1h0c.5.8,1.6,1.2,1.8,1.3,0,.3,0,.8.9,1.5.1.1.3.2.4.3,1.5.8,1.8.2,1.9,0,0,0,0,0,0,0,.5.3,1.3,1,2.3,2.1.6.7,1.1,1.3,1.5,1.9-.9.1-2.1.2-3.3.3,0-1.5-1.1-2.2-1.8-2.4-1.4-.5-1.9,1.2-1.3,2.4-1.1-.6-2.5,0-2.7,1.7,4.5,0,7.6-.2,11.1-.7h0,0"/>
            <path class="st1" d="M225.1,21s0-.1,0-.2c0,0,0-.1,0-.1,0,0,0,0,.1-.1.2-.1.9-.2,2.8,1.1-4-3.1-8.2-4.4-11.8-4.8-.5,0-1.5,0-1.5,0,1.2.1,1.9.4,2.1.5.1,0,.3.1.3.2,0,0,0,0,0,0,.2,0,.5,0,.8.2.4.1.9.3,1.5.6.5.2,1.3.8,1.3,1.1-.1,0-.2,0-.5,0,1.4,1,3.3,2.8,4.4,4.1.8-.1,2-.3,2.5-.5,0,0-1.8-1.3-2.2-2Z"/>
            <path class="st1" d="M201.9,57c-2-.4-3.1-.6-3.8-1-.1,0-.2,0-.2,0,0,0-1.1-1.1-2.1-2.4-.7-.9-1.3-1.9-1.4-2,0,0,.2,0,.3,0,1,.3,2.6,3.1,2.6,3.2.6.2,1.5.5,2.5.7-.9-1.4-1.7-3-2.3-4.7-1.4.7-3.2-3-2.7-4.6.1-.3.5-1,1.5-.3-.7-1.7-.5-4.2,1.2-4.2,0,5.6.8,10.3,4.4,15.5"/>
            <path class="st1" d="M213.7,58.1c-.2.8-1.3,1.5-2.9.9.7,1,0,1.8-1.2,1.6-1-.2-2.2-1-2.3-1.8-1.2,0-2.4-.2-3.4-.4,1,1.1,2,2,3.2,2.7.1,0,.4,0,1,.2.9.3,1.7.7,2.6,1,0,0-.2,0-.2,0-.7-.1-.8-.1-1.2-.2-1.7-.3-4.6-1.3-7.6-5.1h0,0c3.5.5,7,.8,11.9.8,0,0,0,.2,0,.3"/>
            <path class="st3" d="M214,16.9c-12.2,0-22.6,10-22.8,22.4h0c0,0,.1.3.6.6h0s0,0,0,0c.5.3,1.2.6,2.1.9,1.2.3,2.4.5,3.5.7h0c3.5.6,6.3.8,10.4,1,1.9,0,3.9.2,5.8.1,0-1.2,0-7.8,0-14.2,0-.8,0-1.7,0-2.6,0-4.2.1-8.4.2-9h0Z"/>
            <path class="st5" d="M224.9,59.8c-1.3.7-1.5.7-3.3,1.5-.5.2-.9.3-1.4.5,3.1-.8,7.3-4.3,8-5.1-.4.8-.7,1.4-1.6,2.1-.3.2-1.3.9-1.8,1.1Z"/>
            <path class="st5" d="M193.9,40.7c-1-.2-1.6-.6-2.1-.9.3-8.3,4.8-15.6,11.5-19.6-1.6,1.4-2.3,2.2-3.1,4.1-3.8,4.3-6.2,10.1-6.3,16.3"/>
            <path class="st5" d="M203.3,20.3c1.7-1.2,2.6-2.1,5.3-2.7,1.9-.4,3.5-.6,5.3-.6h0c-3.9.2-7.5,1.5-10.6,3.4"/>
            <path class="st5" d="M202.1,42.1c-1.7-.2-3.2-.4-4.7-.6,0-4.1,1-8.1,2.5-11.6.6,2.3,1.1,3.6,2.7,6.3-.3,1.9-.5,3.9-.5,6"/>
            <path class="st5" d="M213.7,25.9c0,2.5,0,5.1,0,7.1,0,2,0,3.4,0,3.7-2.2-2.4-3.5-3.7-5.1-5.8,1.1-7.1,3.1-12.7,5.4-14h0c0,.7-.2,4.7-.2,9Z"/>
            <path class="st5" d="M205.7,25.6c-1.4,3-2.5,6.7-3.1,10.6,1.4,2.1,2.3,3.3,5,6.3,0-4.1.4-8,.9-11.6-1.7-2.3-2.2-3.4-2.9-5.3Z"/>
            <path class="st5" d="M236,40c0,.3,0,.5,0,.8,0,8.1-3.9,14.8-10.1,18.5h-.2c2.9-1.7,6.6-4.7,8.9-9.7,2.5-4.9,2.2-10.3,2.2-10.3-.1.2-.5.5-.9.7Z"/>
            <path class="st5" d="M209,18.1c-3.3,1.3-6.3,3.5-8.8,6.3-.7,2.1-.7,3.2-.3,5.5,1.5-3.5,3.6-6.5,6-8.7.8-1.3,1.2-2.1,3.1-3.1Z"/>
            <path class="st5" d="M205.7,25.6c-.4-1.9-.4-2.8.2-4.4,2.4-2.2,5.1-3.8,8.1-4.3-3.2.9-6.1,4.2-8.2,8.7"/>
          </g>
          <g>
            <g>
              <path class="st5" d="M188.6,24.8l-1.9-.9c-.4-.2-.5-.4-.3-.9h0c0,0-.3-.2-.3-.2l-.9,1.8h.2c0,.1,0,0,0,0,.2-.3.3-.5.5-.5s.3,0,.6.2l1.6.8c1.2.6,1,1.5.7,2.2-.3.7-.8,1-1.4,1s-.5,0-.8-.2l-1.9-1c-.3-.2-.4-.3-.2-.7h0c0-.1-.3-.2-.3-.2l-.9,1.9h.3c0,.1,0,0,0,0,.2-.3.3-.4.4-.4s.2,0,.3.1l2,1c.3.2.6.2.9.2.8,0,1.5-.5,1.9-1.4.8-1.6,0-2.6-.8-3Z"/>
              <path class="st5" d="M191,17.4c0-.1,0-.3.3-.5h0c0,0-.2-.2-.2-.2l-1.3,1.5.2.2h0c.2-.3.4-.4.5-.4s.2,0,.3.2l2.2,1.9-5.1.3-.8,1,.2.2h0c.2-.2.3-.3.5-.4l2.9,2.4c.2.2.3.4,0,.7h0c0,0,.2.3.2.3l1.2-1.5-.2-.2h0c-.2.3-.4.4-.5.4h0c-.1,0-.2,0-.4-.2l-2.4-2,5.7-.4.2-.2-3.4-2.8c0,0-.1-.1-.1-.2Z"/>
              <path class="st5" d="M196.9,18c-.2.2-.3.2-.4.2s-.2,0-.4-.3l-2.1-2.5c-.3-.4-.2-.5,0-.8h0s-.2-.3-.2-.3l-1.6,1.3.2.2h0c.2-.2.3-.2.4-.2s.2,0,.3.2l2.1,2.5c.3.4.3.5,0,.8h0s.2.3.2.3l1.6-1.3-.2-.2h0Z"/>
              <path class="st5" d="M199.9,10.9h0s-.1-.3-.1-.3l-1.7,1v.2c.1,0,.2,0,.2,0,.2-.1.4-.2.5-.2s.1,0,.2.1c0,0,0,.2.1.5l.5,3.2-2.8-2.2c-.1,0-.2-.2-.2-.2,0-.1.2-.3.5-.5h0s-.1-.3-.1-.3l-2,1.1v.2c.1,0,.2,0,.2,0,.2,0,.3-.1.4-.1.1,0,.3,0,.5.3l3.6,2.8.4-.2-.7-4.4c0-.5,0-.7.3-.9Z"/>
              <path class="st5" d="M206.2,12.1h0c0,.8,0,.9-.5,1.1l-1.1.4c0,0-.2,0-.2,0,0,0-.2,0-.2-.3l-.5-1.5,1.2-.4c0,0,.2,0,.2,0,.1,0,.2,0,.4.4h0c0,0,.3,0,.3,0l-.5-1.5h-.3c0,0,0,.1,0,.1.1.4,0,.5-.2.6l-1.2.4-.6-1.7,1.5-.5c0,0,.1,0,.2,0,.1,0,.3,0,.6.6h0c0,0,.3,0,.3,0l-.5-1.1-3.6,1.3v.3c0,0,.3,0,.3,0,.1,0,.2,0,.3,0,.2,0,.3.1.4.4l1.1,3.1c0,.2,0,.4,0,.5,0,.1-.2.2-.5.3h-.3c0,0,0,.4,0,.4l4-1.4-.3-1.3h-.3Z"/>
              <path class="st5" d="M213.7,12.1c-.5,0-1-.1-1.6-.6l-.7-.5c-.3-.3-.6-.5-.9-.6.6-.3.9-.8.8-1.4-.1-.9-1-1.3-2.3-1.2-.5,0-.7,0-1,.1,0,0-.2,0-.3,0-.3,0-.5,0-.6.1h0s0,.3,0,.3h.2c0,0,.1,0,.2,0,.2,0,.4,0,.4.5l.4,3.2c0,.5,0,.6-.5.6h-.2s0,.3,0,.3l2.3-.3v-.3s-.3,0-.3,0c0,0-.1,0-.2,0-.2,0-.4,0-.4-.5v-1.2c0,0,0,0,.2,0,.2,0,.3,0,.5,0h0c.1,0,.4.2.8.6l.6.4c.8.6,1.2.9,2.5.6h0s0-.3,0-.3h0ZM210.5,9.1c0,.4,0,.7-.2.9-.2.2-.5.4-1,.5h-.1c-.1,0-.2,0-.3,0l-.3-2.4c.1,0,.2,0,.3,0,1-.1,1.5.2,1.6,1Z"/>
              <path class="st5" d="M216.6,9.6c-.5-.4-1-.8-1-1.2,0-.4.4-.6.9-.6.5,0,1,.4,1.1,1h0s.3,0,.3,0v-1.1c0,0-.3,0-.3,0h0c0,0,0,0,0,0h0c0,0-.2,0-.3,0-.2,0-.4-.2-.8-.2-.8,0-1.5.4-1.5,1.1,0,.7.6,1.2,1.2,1.7.5.4,1.1.8,1,1.3,0,.6-.6.8-1.1.8-.6,0-1.1-.5-1.2-1.1h0c0,0-.3,0-.3,0v1.3c0,0,.3,0,.3,0h0s0,0,.1,0h0s.1,0,.2,0c.2,0,.6.2.8.2,0,0,.1,0,.2,0h0c.9,0,1.5-.5,1.6-1.3,0-.8-.6-1.3-1.3-1.8Z"/>
              <path class="st5" d="M219.9,8.3h0c.4.1.5.2.4.6l-.7,3.2c0,.4-.2.5-.4.5s-.1,0-.2,0h0s0,.3,0,.3l2,.4v-.3c0,0,0,0,0,0-.2,0-.4-.1-.4-.2,0,0,0-.2,0-.4l.7-3.2c0-.4.2-.5.4-.5s.2,0,.3,0h0s0-.3,0-.3l-2-.4v.3Z"/>
              <path class="st5" d="M227.9,10.5s0,0,0,0,0,0-.1,0l-3.5-1.4s0,0-.1,0c0,0,0,0,0,0h0c0,0-.2-.2-.2-.2l-.6,1.2h.3c0,.1,0,0,0,0,.3-.4.4-.6.6-.6s0,0,.2,0l1.2.5-1.4,3.5c-.1.3-.2.3-.4.3s-.2,0-.3,0h-.3c0-.1-.1.1-.1.1l2.4,1v-.3c.1,0-.2-.1-.2-.1-.2,0-.3-.2-.4-.3,0,0,0-.2,0-.4l1.4-3.5,1.2.5c.2,0,.3.3.2.9h0c0,0,.3.2.3.2l.4-1.3h-.2c0,0,0,0,0,0Z"/>
              <path class="st5" d="M232.5,13.6h0c.2.2.3.3.3.4,0,0,0,.2-.3.2l-1.8.9v-2.2c0-.3.1-.3.1-.3,0,0,.2,0,.4.2h0s.2-.2.2-.2l-1.8-1.2-.2.2h0c.4.3.5.5.5,1.2v2.5c0,0-.6.9-.6.9-.2.3-.4.3-.7.1h-.2c0-.1-.2.1-.2.1l1.9,1.3.2-.2h-.1c-.2-.2-.3-.3-.3-.4,0-.1,0-.2.1-.4l.6-1,2.3-1.1c.2-.1.4-.1.5-.1s.3,0,.6.2h0s.2-.2.2-.2l-1.6-1-.2.2Z"/>
              <path class="st5" d="M240,20.3c-.6-.8-1.4-1.2-2.3-1.2s-1.1.2-1.6.6c-1.1.9-1.2,2.5-.2,3.8.6.7,1.4,1.2,2.3,1.2h0c.6,0,1.2-.2,1.6-.6,1.1-.8,1.2-2.5.3-3.7ZM240,21.8c0,.6-.4,1.2-1,1.6-.5.3-1,.5-1.5.5s-1-.2-1.3-.7c-.7-1-.5-2.3.6-3.2.4-.3,1-.5,1.5-.5s1,.2,1.4.7c.3.4.5,1,.4,1.5Z"/>
              <path class="st5" d="M242.5,24.4h-.3c0,.1,0,.2,0,.2.2.4,0,.5-.4.7l-2.7,1.3c-.2.1-.4.2-.5.2s-.2,0-.3-.3h0c0,0-.2,0-.2,0l.9,1.8h.3c0-.1,0-.2,0-.2-.1-.2-.2-.4-.1-.5,0,0,.1-.2.3-.3l1.5-.7.6,1.2c.1.3.1.5-.3.7h0s.1.3.1.3l1.4-.6v-.2c-.1,0-.2,0-.2,0-.3.1-.4,0-.6-.2l-.6-1.3,1.5-.7.6,1.3c.2.4.1.6-.3.8h0s.1.3.1.3l.9-.5-1.6-3.3Z"/>
            </g>
            <path class="st5" d="M187,59.1l2.8-5.1h0s-3.8,2.4-3.8,2.4c-.4.3-.3.6,0,1h-.2c0,.1-1.2-1.6-1.2-1.6h.2c.4.5.6.5,1.4,0l3.3-2.1c.6-.4.7-.5.4-1h.1c0-.1.9,1.1.9,1.1l-2.6,4.9,5.4-1,.9,1.2h-.1c-.3-.3-.4-.4-.7-.2l-3.4,2.9c-.7.6-.7.6-.2,1.2h-.2c0,.1-1.5-1.9-1.5-1.9h.2c.3.3.6.6,1,.2l3.4-2.8h0s-5.7,1.1-5.7,1.1v-.2Z"/>
            <path class="st5" d="M196.8,64.5l-1.4-1,2-1.4-.7,2.4ZM196.7,64.9l-.5,1.8c0,.1,0,.3-.2.4-.2.2-.4.1-.8-.2l-.2-.2v.2c-.1,0,2.1,1.6,2.1,1.6v-.2c-.3-.3-.4-.5-.2-1l1.6-5.7-.7-.5v.2c0,0-4.4,2.9-4.4,2.9-.8.5-.9.5-1.4.2v.2c-.1,0,1.7,1.4,1.7,1.4v-.2c.1,0,0,0,0,0-.4-.3-.6-.6-.4-.8,0-.1.4-.3.5-.4l1.4-.9,1.7,1.2Z"/>
            <path class="st5" d="M203.1,64.8c.2,0,.3,0,.5.1,1.4.5,1.6,1.3,1.3,2.2-.4,1.1-1.2,1.3-2.3.9-.2,0-.4-.1-.6-.2l1.1-3.1ZM201.9,68c.1,0,.3.1.5.2.3,0,.4.1.6.2.2.2.4.6.7,1.2l.4.8c.5,1.1.8,1.6,2.5,2.1v-.2c-.6-.3-1.1-.8-1.4-1.6l-.5-1c-.3-.6-.5-1-.7-1.3.8,0,1.5-.4,1.8-1.1.3-1-.2-1.9-1.9-2.6-.6-.2-.8-.3-1.2-.4-.4-.1-1-.3-1.2-.4v.2c0,0,.1,0,.1,0,.5.2.6.4.4,1l-1.4,3.9c-.2.6-.5.7-1,.5h-.2c0,0,0,.1,0,.1l2.6.9v-.2c0,0-.2,0-.2,0-.5-.2-.7-.4-.5-1l.6-1.6Z"/>
            <path class="st5" d="M213.1,67.8c.4-.5.2-.7-.4-.8v-.2s2.2.2,2.2.2v.2c-.7,0-1,.2-1.3.7l-1.9,2.6v1.5c-.2.5,0,.7.6.8h.1s0,.2,0,.2l-2.7-.2v-.2s.2,0,.2,0c.6,0,.8-.2.9-.6v-1.4c.1,0-1.4-2.9-1.4-2.9-.4-.8-.6-1-1.3-1v-.2s2.6.2,2.6.2v.2c-.8,0-.9.1-.6.6l1.4,2.6,1.6-2.3Z"/>
            <path class="st5" d="M221.4,72.3l-4.4.7v-.2s.3,0,.3,0c.4,0,.6-.3.5-.7l-.7-4.3c0-.5-.3-.7-.9-.6h-.1s0-.2,0-.2l2.9-.5v.2s-.3,0-.3,0c-.6.1-.8.2-.7.8l.8,4.5c0,.3.2.3.5.3l1.4-.2c.6-.1.7-.4,1.2-1.3h.2s-.5,1.5-.5,1.5Z"/>
            <path class="st5" d="M226.1,67.3l-1.6.7v-2.5c-.1,0,1.6,1.8,1.6,1.8ZM226.4,67.6l1.3,1.4c0,0,.2.2.3.3.1.3,0,.4-.6.6h-.2c0,0,0,.3,0,.3l2.5-1v-.2c-.5.2-.8.2-1.1-.2l-4-4.3-.8.3.2.2.2,5.2c0,.9,0,1.1-.6,1.3v.2c0,0,2.2-.9,2.2-.9v-.2c0,0-.2,0-.2,0-.5.2-.8.2-.9,0,0-.1,0-.5,0-.7v-1.7c0,0,1.8-.8,1.8-.8Z"/>
            <path class="st5" d="M237.1,63.8l-7.4-.9,2.7,3.3c.5.5.7.6,1.3,0h.1c0,.1-1.8,1.6-1.8,1.6h-.1c0-.1,0-.2,0-.2.5-.4.5-.7.2-1l-3.1-3.8c-.3,0-.5.1-.8.3h-.1c0-.1,1.2-1.1,1.2-1.1l6.7.8-2.5-3c-.4-.5-.6-.4-1.2,0h-.1c0-.1,1.8-1.6,1.8-1.6h.1c-.6.6-.6.8-.4,1.1l3.5,4.3-.2.2Z"/>
            <path class="st5" d="M235.7,56.2c0-.1.2-.3.4-.7.8-1.2,1.4-1.6,2.1-1.7.8-.2,1.6,0,2.2.5.9.6,1.2,1.4,1.3,1.9.2.8,0,1.4-.7,2.5-.4.7-.6.6-.9.4l-4.4-2.9ZM239.5,59.7c.5.3.5.6.2,1h0c0,.1.2.2.2.2l1.7-2.7c1.4-2.1.5-4.1-.8-4.9-1.4-.9-3.1-.6-4.5,1.6-.3.4-.6.9-.9,1.4-.3.5-.5.9-.7,1.2h.2c0,.1.1,0,.1,0,.3-.5.5-.5,1.1-.2l3.6,2.3Z"/>
            <path class="st5" d="M182.2,38.1v4.2c0,.2,0,.3.3.3h.4s0,.1,0,.1h-1.8s0-.1,0-.1h.4c.2,0,.3,0,.3-.3v-3.7c-.2.2-.6.5-.9.6h0c.4-.4,1-.9,1.2-1.2h.3Z"/>
            <path class="st5" d="M186.4,41.7c0,.6-.4,1-1,1s-1-.5-1-1.1.2-.8.7-1.1c.9.4,1.2.7,1.2,1.2ZM186.8,39.1c0-.6-.6-1.1-1.3-1.1s-1.3.5-1.3,1.2.3.9,1,1.2c-.7.3-1.1.7-1.1,1.2,0,.7.6,1.2,1.4,1.2s1.4-.6,1.4-1.3-.3-1-1.1-1.3c.6-.3,1-.6,1-1.1ZM186.3,39.1c0,.4-.2.8-.6,1-.9-.4-1.2-.7-1.2-1.1s.4-.8.9-.8.9.4.9.9Z"/>
            <path class="st5" d="M241.1,38.6h1.7c.1,0,.2,0,.2,0h.1s0,.6,0,.6h-1.8s0,1.3,0,1.3c.2-.1.5-.2.8-.2.8,0,1.5.7,1.5,1.5s-.7,1.6-1.7,1.6-1.1-.2-1.1-.5.1-.2.2-.2c.4,0,.5.5,1,.5s1-.6,1-1.2-.5-1.2-1.1-1.2-.6.1-.8.3h0c0,0,.1-2.4.1-2.4Z"/>
            <path class="st5" d="M246.7,41.8c0,.8-.4,1.3-.9,1.3s-1-.4-1-1.6,0-.4,0-.5c.4-.4.8-.4,1-.4.5,0,.9.5.9,1.2ZM246.7,38.5c-1.5.4-2.5,1.5-2.5,2.9s.6,1.9,1.5,1.9,1.4-.7,1.4-1.5-.6-1.3-1.3-1.3-.6.1-1,.4c.2-1.1.8-1.8,1.9-2.3h0Z"/>
          </g>
        </g>
      </g>
    </g>
  </g>
</svg>