<svg width="600" height="200" viewBox="0 0 600 200" fill="none" xmlns="http://www.w3.org/2000/svg">
<g clip-path="url(#clip0_1363_7422)">
<path fill-rule="evenodd" clip-rule="evenodd" d="M146.519 102.36C132.69 94.2893 119.82 86.7711 105.951 78.6734C105.951 84.3323 105.698 89.0885 106.125 93.7908C106.231 95.0169 108.256 96.3239 109.655 97.1323C120.686 103.559 131.717 109.973 142.869 116.157C145.68 117.72 146.999 119.593 146.532 122.746C146.506 122.921 146.492 123.096 146.532 123.271C149.05 133.646 142.962 138.523 134.702 141.77C133.396 142.282 131.318 142.053 130.079 141.326C113.199 131.598 96.3592 121.789 79.6393 111.778C78.2137 110.929 76.8948 108.531 76.8815 106.847C76.6949 87.0136 76.6816 67.1804 76.8815 47.3473C76.8948 45.5418 78.4136 43.2783 79.8924 42.0522C86.567 36.5011 92.8687 36.4202 100.582 41.5806C114.038 50.5809 128.307 58.3687 142.402 66.372C145.6 68.191 146.639 70.2659 146.572 73.7825C146.372 82.9446 146.506 92.1066 146.506 102.347L146.519 102.36Z" fill="white"/>
<path fill-rule="evenodd" clip-rule="evenodd" d="M62.4128 101.498C62.4128 106.402 62.6393 110.175 62.3462 113.894C62.0797 117.37 63.5185 119.175 66.4495 120.819C82.5433 129.833 98.5305 139.062 114.531 148.238C115.663 148.884 116.703 149.72 118.488 150.959C109.255 156.578 100.662 161.9 91.9225 166.98C90.9366 167.559 88.8849 167.101 87.7258 166.414C70.7261 156.524 53.7664 146.58 36.9266 136.435C35.5277 135.6 34.3686 133.228 34.2621 131.503C33.516 117.936 33.5959 117.909 45.3198 111.118C50.6356 108.046 56.0179 105.082 62.3995 101.498H62.4128Z" fill="white"/>
<path fill-rule="evenodd" clip-rule="evenodd" d="M62.3189 52.2652C62.3189 63.7851 62.3589 73.9847 62.2523 84.1842C62.2523 85.0465 61.5329 86.2727 60.8001 86.6903C52.3403 91.5543 43.8138 96.2835 34.2481 101.659C34.2481 90.2339 34.2215 79.9265 34.3147 69.6192C34.3147 68.9321 35.0342 67.9754 35.687 67.5982C44.1335 62.6668 52.6201 57.8298 62.3189 52.2652Z" fill="white"/>
<path d="M190.232 131V67.7273H229.902V75.9453H199.779V95.2237H227.832V103.411H199.779V122.782H230.272V131H190.232ZM251.149 102.824V131H241.912V83.5455H250.779V91.2692H251.366C252.457 88.7564 254.167 86.7379 256.494 85.2138C258.842 83.6896 261.798 82.9276 265.361 82.9276C268.595 82.9276 271.427 83.6072 273.857 84.9666C276.288 86.3054 278.172 88.3033 279.511 90.9602C280.85 93.6172 281.519 96.9023 281.519 100.816V131H272.282V101.928C272.282 98.4883 271.386 95.8004 269.594 93.8643C267.802 91.9077 265.341 90.9293 262.21 90.9293C260.068 90.9293 258.163 91.3928 256.494 92.3196C254.847 93.2464 253.539 94.6058 252.571 96.3977C251.623 98.169 251.149 100.311 251.149 102.824ZM311.673 131.927C307.842 131.927 304.423 130.949 301.415 128.992C298.429 127.015 296.081 124.203 294.371 120.558C292.682 116.891 291.838 112.494 291.838 107.365C291.838 102.237 292.693 97.8498 294.402 94.2042C296.132 90.5586 298.501 87.7678 301.508 85.8317C304.515 83.8956 307.924 82.9276 311.734 82.9276C314.68 82.9276 317.048 83.4219 318.84 84.4105C320.653 85.3785 322.053 86.5114 323.042 87.8089C324.051 89.1065 324.834 90.2496 325.39 91.2383H325.946V67.7273H335.184V131H326.162V123.616H325.39C324.834 124.625 324.031 125.779 322.98 127.076C321.95 128.374 320.529 129.507 318.717 130.475C316.904 131.443 314.556 131.927 311.673 131.927ZM313.712 124.049C316.369 124.049 318.614 123.348 320.447 121.948C322.3 120.527 323.701 118.56 324.648 116.047C325.616 113.534 326.1 110.609 326.1 107.273C326.1 103.977 325.627 101.094 324.679 98.6222C323.732 96.1506 322.342 94.2248 320.508 92.8448C318.675 91.4648 316.41 90.7749 313.712 90.7749C310.931 90.7749 308.614 91.4957 306.76 92.9375C304.907 94.3793 303.506 96.3462 302.559 98.8384C301.632 101.331 301.168 104.142 301.168 107.273C301.168 110.445 301.642 113.297 302.589 115.831C303.537 118.364 304.937 120.372 306.791 121.855C308.665 123.317 310.972 124.049 313.712 124.049ZM368.82 131.958C364.145 131.958 360.118 130.959 356.74 128.961C353.383 126.942 350.788 124.11 348.955 120.465C347.142 116.799 346.236 112.504 346.236 107.582C346.236 102.721 347.142 98.4368 348.955 94.7294C350.788 91.022 353.342 88.1282 356.617 86.0479C359.912 83.9677 363.764 82.9276 368.172 82.9276C370.849 82.9276 373.444 83.3704 375.957 84.256C378.47 85.1417 380.725 86.532 382.723 88.4268C384.721 90.3217 386.297 92.783 387.45 95.8107C388.603 98.8178 389.18 102.474 389.18 106.778V110.053H351.457V103.133H380.128C380.128 100.702 379.634 98.5501 378.645 96.6758C377.656 94.7809 376.266 93.2876 374.474 92.196C372.703 91.1044 370.623 90.5586 368.233 90.5586C365.638 90.5586 363.373 91.1971 361.436 92.4741C359.521 93.7305 358.038 95.3782 356.988 97.4173C355.958 99.4357 355.443 101.629 355.443 103.998V109.404C355.443 112.576 355.999 115.275 357.111 117.499C358.244 119.723 359.82 121.423 361.838 122.597C363.857 123.75 366.215 124.327 368.913 124.327C370.664 124.327 372.26 124.08 373.702 123.585C375.144 123.07 376.39 122.308 377.44 121.299C378.49 120.29 379.294 119.044 379.85 117.561L388.593 119.136C387.893 121.711 386.636 123.966 384.824 125.902C383.032 127.818 380.777 129.311 378.058 130.382C375.36 131.433 372.281 131.958 368.82 131.958ZM413.239 132.05C410.232 132.05 407.514 131.494 405.083 130.382C402.653 129.249 400.727 127.612 399.306 125.47C397.905 123.328 397.205 120.702 397.205 117.592C397.205 114.914 397.72 112.71 398.75 110.98C399.78 109.25 401.17 107.88 402.921 106.871C404.671 105.862 406.628 105.1 408.791 104.585C410.953 104.07 413.157 103.679 415.402 103.411C418.244 103.081 420.551 102.814 422.323 102.608C424.094 102.381 425.381 102.021 426.184 101.526C426.988 101.032 427.389 100.229 427.389 99.1165V98.9002C427.389 96.2021 426.627 94.1115 425.103 92.6285C423.6 91.1456 421.355 90.4041 418.368 90.4041C415.258 90.4041 412.807 91.0941 411.015 92.4741C409.244 93.8335 408.018 95.3473 407.339 97.0156L398.657 95.0384C399.687 92.1548 401.19 89.8274 403.168 88.0561C405.166 86.2642 407.462 84.9666 410.057 84.1633C412.652 83.3395 415.382 82.9276 418.244 82.9276C420.139 82.9276 422.148 83.1541 424.269 83.6072C426.411 84.0398 428.409 84.843 430.263 86.017C432.137 87.191 433.671 88.8697 434.866 91.0529C436.061 93.2156 436.658 96.027 436.658 99.4872V131H427.637V124.512H427.266C426.668 125.707 425.773 126.881 424.578 128.034C423.383 129.187 421.849 130.145 419.975 130.907C418.1 131.669 415.855 132.05 413.239 132.05ZM415.248 124.636C417.802 124.636 419.985 124.131 421.797 123.122C423.63 122.113 425.021 120.794 425.968 119.167C426.936 117.52 427.42 115.759 427.42 113.884V107.767C427.091 108.097 426.452 108.406 425.505 108.694C424.578 108.962 423.517 109.199 422.323 109.404C421.128 109.59 419.964 109.765 418.831 109.93C417.699 110.074 416.751 110.197 415.989 110.3C414.197 110.527 412.56 110.908 411.077 111.444C409.614 111.979 408.44 112.751 407.555 113.761C406.69 114.749 406.257 116.067 406.257 117.715C406.257 120.001 407.102 121.732 408.791 122.906C410.48 124.059 412.632 124.636 415.248 124.636ZM487.858 83.5455L470.65 131H460.764L443.524 83.5455H453.441L465.46 120.063H465.954L477.941 83.5455H487.858ZM514.915 131.958C510.466 131.958 506.583 130.938 503.267 128.899C499.951 126.86 497.377 124.007 495.543 120.341C493.71 116.675 492.794 112.391 492.794 107.489C492.794 102.566 493.71 98.2617 495.543 94.5749C497.377 90.8881 499.951 88.0252 503.267 85.9862C506.583 83.9471 510.466 82.9276 514.915 82.9276C519.363 82.9276 523.246 83.9471 526.562 85.9862C529.878 88.0252 532.453 90.8881 534.286 94.5749C536.119 98.2617 537.035 102.566 537.035 107.489C537.035 112.391 536.119 116.675 534.286 120.341C532.453 124.007 529.878 126.86 526.562 128.899C523.246 130.938 519.363 131.958 514.915 131.958ZM514.945 124.203C517.829 124.203 520.218 123.441 522.113 121.917C524.008 120.393 525.409 118.364 526.315 115.831C527.242 113.297 527.705 110.506 527.705 107.458C527.705 104.43 527.242 101.65 526.315 99.1165C525.409 96.5625 524.008 94.5131 522.113 92.9684C520.218 91.4236 517.829 90.6513 514.945 90.6513C512.041 90.6513 509.632 91.4236 507.716 92.9684C505.821 94.5131 504.41 96.5625 503.483 99.1165C502.577 101.65 502.124 104.43 502.124 107.458C502.124 110.506 502.577 113.297 503.483 115.831C504.41 118.364 505.821 120.393 507.716 121.917C509.632 123.441 512.041 124.203 514.945 124.203ZM547.346 131V83.5455H556.275V91.0838H556.769C557.634 88.5298 559.159 86.5217 561.342 85.0593C563.546 83.5763 566.038 82.8349 568.818 82.8349C569.395 82.8349 570.075 82.8555 570.857 82.8967C571.661 82.9379 572.289 82.9893 572.742 83.0511V91.8871C572.371 91.7841 571.712 91.6708 570.765 91.5472C569.817 91.4031 568.87 91.331 567.922 91.331C565.739 91.331 563.793 91.7944 562.083 92.7212C560.394 93.6275 559.056 94.8942 558.067 96.5213C557.078 98.1278 556.584 99.9609 556.584 102.021V131H547.346Z" fill="white"/>
</g>
<defs>
<clipPath id="clip0_1363_7422">
<rect width="600" height="200" fill="white"/>
</clipPath>
</defs>
</svg>
