<?xml version="1.0" encoding="UTF-8"?>
<svg version="1.1" xmlns="http://www.w3.org/2000/svg" width="2076" height="725">
<path d="M0 0 C2.22583008 1.00390625 2.22583008 1.00390625 4.95703125 2.5625 C5.94783691 3.12195313 6.93864258 3.68140625 7.95947266 4.2578125 C8.96284668 4.83273438 9.9662207 5.40765625 11 6 C12.75337416 6.98011916 14.50726478 7.95931508 16.26171875 8.9375 C18.07108673 9.95696043 19.87965198 10.97784659 21.6875 12 C23.16899536 12.83748779 23.16899536 12.83748779 24.68041992 13.69189453 C32.76162596 18.27309445 40.79257062 22.93713304 48.80981445 27.62915039 C59.41811048 33.837196 70.06716947 39.97379721 80.71777344 46.10888672 C86.14659942 49.23680148 91.57319281 52.36858448 97 55.5 C99.16665583 56.75001879 101.3333225 58.00001878 103.5 59.25 C175 100.5 175 100.5 246.5 141.75 C247.57282227 142.36891113 248.64564453 142.98782227 249.75097656 143.62548828 C251.91447476 144.87371034 254.07788643 146.12208239 256.24121094 147.37060547 C261.70565017 150.52405256 267.17163645 153.67476096 272.640625 156.8203125 C273.74792969 157.45775391 274.85523438 158.09519531 275.99609375 158.75195312 C278.04498654 159.9313578 280.09439311 161.10987081 282.14453125 162.28710938 C284.12724316 163.42895079 286.08512883 164.61484565 288.01762962 165.83974934 C291.05457333 167.63923367 294.034069 168.68186041 297.40065956 169.72606945 C304.16883814 172.18473119 309.70495832 175.06535486 314 181 C318.66701859 192.99935204 316.82531395 208.1320446 316.55344367 220.72228444 C316.45810828 226.25924108 316.49060938 231.79565927 316.5072937 237.33320618 C316.51881022 246.91786501 316.45000803 256.49922021 316.32606125 266.08304787 C316.14698157 279.93891508 316.08994272 293.79319083 316.06232543 307.65008982 C316.01421807 330.13296917 315.8681198 352.61411311 315.65966797 375.09594727 C315.45745523 396.93016445 315.30169419 418.76391035 315.20849609 440.59887695 C315.20560252 441.27248039 315.20270894 441.94608382 315.19972768 442.64009947 C315.17071905 449.40499771 315.14265132 456.16989958 315.11527278 462.9348046 C314.88575365 519.62443886 314.49770976 576.31212617 314 633 C310.4337024 635.05774926 306.86737239 637.11544235 303.30101395 639.17308617 C302.09088669 639.87129049 300.88076789 640.56950945 299.67065811 641.26774406 C293.29794631 644.94479257 286.92482604 648.62110666 280.546875 652.2890625 C279.56944336 652.85173828 278.59201172 653.41441406 277.58496094 653.99414062 C275.57879715 655.14822038 273.57152519 656.30037478 271.56347656 657.45117188 C266.22588543 660.52000619 260.9291857 663.63688431 255.6875 666.8671875 C254.6862207 667.47868652 253.68494141 668.09018555 252.65332031 668.72021484 C250.76879641 669.87546032 248.89253357 671.04433285 247.02636719 672.22900391 C246.18750977 672.74124512 245.34865234 673.25348633 244.484375 673.78125 C243.75959961 674.23564453 243.03482422 674.69003906 242.28808594 675.15820312 C239.13663396 676.31763616 237.22163652 675.86154058 234 675 C231.34472656 673.74755859 231.34472656 673.74755859 228.640625 672.1484375 C227.6204126 671.55192383 226.6002002 670.95541016 225.54907227 670.34082031 C224.46037842 669.69209961 223.37168457 669.04337891 222.25 668.375 C221.09815075 667.6979126 219.94571451 667.02182289 218.79272461 666.34667969 C216.39388191 664.94100264 213.99762855 663.53105341 211.60302734 662.11816406 C204.86996115 658.15182874 198.08603297 654.27258777 191.30883789 650.38232422 C186.28405764 647.4926816 181.2792295 644.57962063 176.3203125 641.578125 C175.44818115 641.05573242 174.5760498 640.53333984 173.67749023 639.99511719 C172.0680838 639.02874745 170.46545533 638.05095778 168.87133789 637.05957031 C164.91489853 634.65961342 164.91489853 634.65961342 160.4375 633.9609375 C157.04997044 635.40498055 153.94261742 637.20245588 150.8125 639.125 C149.28725898 640.04169805 147.76116051 640.9569704 146.234375 641.87109375 C145.39970703 642.37237793 144.56503906 642.87366211 143.70507812 643.39013672 C138.68838974 646.37570019 133.62285554 649.27678621 128.5625 652.1875 C126.31377241 653.48302141 124.06507489 654.77859502 121.81640625 656.07421875 C120.12281982 657.0494751 120.12281982 657.0494751 118.39501953 658.04443359 C112.9283002 661.19332054 107.46425113 664.34683264 102 667.5 C99.83334689 668.7500235 97.66668021 670.00002347 95.5 671.25 C93.89125 672.178125 93.89125 672.178125 92.25 673.125 C80.33333333 680 68.41666667 686.875 56.5 693.75 C55.42613037 694.36955566 54.35226074 694.98911133 53.24584961 695.62744141 C51.09307184 696.86939744 48.94024037 698.1112604 46.78735352 699.35302734 C41.75383085 702.25646913 36.72081952 705.160785 31.68978882 708.06854248 C29.91637392 709.09345403 28.14278354 710.11806123 26.36914062 711.14257812 C24.15004227 712.42452738 21.93126984 713.70704107 19.71289062 714.99023438 C17.72437802 716.13867337 15.73283274 717.28188294 13.73779297 718.41894531 C11.96525676 719.44257154 10.20759844 720.4925946 8.46923828 721.57324219 C7.69692871 722.04149414 6.92461914 722.50974609 6.12890625 722.9921875 C5.47092041 723.40581543 4.81293457 723.81944336 4.13500977 724.24560547 C0.30605436 725.59854683 -2.89828847 724.51733866 -6.47167969 722.83935547 C-7.68452637 722.11063232 -7.68452637 722.11063232 -8.921875 721.3671875 C-10.31575439 720.54069702 -10.31575439 720.54069702 -11.73779297 719.69750977 C-12.73182129 719.09608154 -13.72584961 718.49465332 -14.75 717.875 C-16.91360121 716.58906731 -19.07768002 715.3039379 -21.2421875 714.01953125 C-22.35819336 713.3538916 -23.47419922 712.68825195 -24.62402344 712.00244141 C-30.01253101 708.80627861 -35.44352595 705.68489786 -40.875 702.5625 C-43.05998436 701.30353904 -45.24487972 700.04442362 -47.4296875 698.78515625 C-48.51475586 698.16012207 -49.59982422 697.53508789 -50.71777344 696.89111328 C-56.14659942 693.76319852 -61.57319281 690.63141552 -67 687.5 C-69.16665583 686.24998121 -71.3333225 684.99998122 -73.5 683.75 C-153.66666667 637.5 -233.83333333 591.25 -314 545 C-314 424.88 -314 304.76 -314 181 C-304.76 175.72 -295.52 170.44 -286 165 C-278.4038307 160.62315959 -270.80851981 156.24508723 -263.21777344 151.85888672 C-257.81329355 148.73675395 -252.40652588 145.61858796 -247 142.5 C-244.8333225 141.25001878 -242.66665583 140.00001879 -240.5 138.75 C-175.5 101.25 -175.5 101.25 -172.24951172 99.37475586 C-170.08442929 98.12564482 -167.91939018 96.87645871 -165.75439453 95.62719727 C-160.31384294 92.48797691 -154.87252784 89.35009437 -149.4296875 86.21484375 C-138.97793801 80.19252671 -128.53700452 74.15330663 -118.125 68.0625 C-108.85500223 62.64078822 -99.54168248 57.29795085 -90.21154785 51.98077393 C-81.0871716 46.77954871 -71.99867226 41.51972122 -62.93310547 36.21655273 C-52.44428105 30.0828744 -41.91652399 24.0173048 -31.38769531 17.95263672 C-27.80668054 15.88857242 -24.22734013 13.8216295 -20.6484375 11.75390625 C-18.84814134 10.71407145 -17.04782169 9.67427733 -15.24749756 8.63449097 C-13.53084792 7.64282016 -11.8144935 6.65063837 -10.09814453 5.65844727 C-9.06544434 5.06217529 -8.03274414 4.46590332 -6.96875 3.8515625 C-6.05544922 3.32385254 -5.14214844 2.79614258 -4.20117188 2.25244141 C-2.82011309 1.46663489 -1.42121505 0.71060752 0 0 Z M-5.30859375 179.97265625 C-6.43475098 180.61726807 -7.5609082 181.26187988 -8.72119141 181.92602539 C-9.96000232 182.63811161 -11.19877071 183.3502718 -12.4375 184.0625 C-13.71264436 184.79368405 -14.9878733 185.52472063 -16.26318359 186.25561523 C-27.78270246 192.86121914 -39.28465074 199.49740916 -50.78222656 206.14111328 C-56.18670645 209.26324605 -61.59347412 212.38141204 -67 215.5 C-69.1666775 216.74998122 -71.33334417 217.99998121 -73.5 219.25 C-112.5 241.75 -112.5 241.75 -115.75561523 243.62817383 C-117.90364046 244.86746267 -120.05159075 246.10688141 -122.19946289 247.34643555 C-127.28655549 250.28202567 -132.37441847 253.21625672 -137.4649353 256.14590454 C-139.87543748 257.53328095 -142.28551376 258.92139624 -144.69555664 260.30957031 C-146.40143968 261.29173815 -148.10793986 262.27283385 -149.81445312 263.25390625 C-151.35842773 264.14335937 -151.35842773 264.14335937 -152.93359375 265.05078125 C-154.2956897 265.83449097 -154.2956897 265.83449097 -155.68530273 266.6340332 C-157.49126201 267.69977966 -159.25521129 268.83680752 -161 270 C-161.29465148 272.51507946 -161.3914051 274.78451122 -161.36076355 277.30178833 C-161.36332682 278.06303792 -161.3658901 278.82428751 -161.36853105 279.60860527 C-161.37349348 282.17303856 -161.35693602 284.73689 -161.34057617 287.30126953 C-161.33973043 289.13405341 -161.34020401 290.9668383 -161.34190369 292.79962158 C-161.34276713 297.78703574 -161.32508508 302.77423501 -161.30418181 307.76159906 C-161.28547297 312.9693001 -161.28366916 318.17700565 -161.28010559 323.38473511 C-161.27076805 333.25160469 -161.2461312 343.11837498 -161.21605712 352.98520076 C-161.1825662 364.21597475 -161.16604048 375.44675339 -161.15097082 386.67756486 C-161.1195831 409.78509837 -161.06678948 432.89254363 -161 456 C-160.28046143 456.41511841 -159.56092285 456.83023682 -158.81958008 457.25793457 C-140.04638672 468.08862305 -121.27319336 478.91931152 -102.5 489.75 C-101.42733887 490.36883057 -100.35467773 490.98766113 -99.24951172 491.62524414 C-97.08442929 492.87435518 -94.91939018 494.12354129 -92.75439453 495.37280273 C-87.31384294 498.51202309 -81.87252784 501.64990563 -76.4296875 504.78515625 C-65.97793576 510.80747458 -55.53718291 516.84699607 -45.125 522.9375 C-36.68798052 527.86901726 -28.22867974 532.76042242 -19.74749756 537.61550903 C-18.51302365 538.32223619 -17.278845 539.02947939 -16.04498291 539.73727417 C-14.32005908 540.726349 -12.59364836 541.71282931 -10.8671875 542.69921875 C-9.87831543 543.26471436 -8.88944336 543.83020996 -7.87060547 544.4128418 C-6.92330566 544.936604 -5.97600586 545.46036621 -5 546 C-3.9589209 546.59127686 -2.9178418 547.18255371 -1.84521484 547.79174805 C1.08303209 549.43083139 1.08303209 549.43083139 4.390625 547.6328125 C5.6915751 546.8196118 6.97703856 545.98135023 8.25 545.125 C9.76538829 544.17072909 11.28242537 543.21907328 12.80078125 542.26953125 C13.62916504 541.74311035 14.45754883 541.21668945 15.31103516 540.67431641 C20.2734418 537.58441403 25.36412029 534.71513856 30.4375 531.8125 C32.6865519 530.51754167 34.93524519 529.22196034 37.18359375 527.92578125 C38.31265137 527.27561035 39.44170898 526.62543945 40.60498047 525.95556641 C46.0716998 522.80667946 51.53574887 519.65316736 57 516.5 C59.16665311 515.2499765 61.33331979 513.99997653 63.5 512.75 C64.5725 512.13125 65.645 511.5125 66.75 510.875 C102.5 490.25 102.5 490.25 105.75317383 488.37329102 C107.90940213 487.12923208 110.06549049 485.88493058 112.22143555 484.64038086 C117.21406952 481.75869341 122.20787516 478.87912878 127.20706177 476.00881958 C128.95024732 475.0078019 130.69296372 474.00597217 132.43554688 473.00390625 C134.60129618 471.75881961 136.76788871 470.5151979 138.93554688 469.2734375 C140.88316941 468.15295653 142.82037568 467.01407237 144.74407387 465.85299683 C148 464 148 464 151.37474632 462.53250122 C155.33364712 460.624615 157.85675303 459.09590913 161 456 C162.95760131 450.07092926 162.78264916 444.33585146 162.68212891 438.14453125 C162.69976034 436.32378233 162.72291619 434.50307982 162.75115967 432.6824646 C162.81029807 427.75164451 162.78751245 422.82436979 162.74623156 417.89348984 C162.71324758 412.72683113 162.74386155 407.56046987 162.76425171 402.39379883 C162.78788362 393.71803432 162.75678928 385.04370977 162.69482422 376.36816406 C162.62407189 366.34680579 162.64699056 356.32888548 162.71856749 346.30761051 C162.77762102 337.69393327 162.78585903 329.08128927 162.75186479 320.46747494 C162.73162742 315.32699691 162.72880439 310.18813338 162.77183914 305.04776001 C162.80948813 300.21326996 162.78320458 295.38319689 162.70821381 290.54918289 C162.69107007 288.77879795 162.6958875 287.00803906 162.72462845 285.23780441 C162.80358524 279.8793616 162.68804287 275.11867184 161 270 C157.06295354 266.11167624 153.07955345 264.21296672 148 262 C145.8265701 260.77189804 143.66439102 259.52343806 141.51953125 258.24609375 C139.28500298 256.97454154 137.04928614 255.70507618 134.8125 254.4375 C132.34182403 253.03234523 129.87211894 251.62548727 127.40234375 250.21875 C126.47219452 249.68936073 126.47219452 249.68936073 125.52325439 249.14927673 C119.29361915 245.60215944 113.0824978 242.02320336 106.875 238.4375 C105.27942261 237.51602173 105.27942261 237.51602173 103.65161133 236.57592773 C101.50690413 235.33707777 99.3622912 234.09806459 97.21777344 232.85888672 C91.81329355 229.73675395 86.40652588 226.61858796 81 223.5 C78.8333225 222.25001878 76.66665583 221.00001879 74.5 219.75 C73.4275 219.13125 72.355 218.5125 71.25 217.875 C68 216 64.75 214.125 61.5 212.25 C60.42661377 211.6307666 59.35322754 211.0115332 58.24731445 210.37353516 C56.08950197 209.12858718 53.93178647 207.8834711 51.77416992 206.63818359 C46.22283408 203.43447349 40.66963459 200.2340637 35.11328125 197.0390625 C14.16091821 184.98335842 14.16091821 184.98335842 5.09692383 179.43603516 C0.11707992 176.40119835 -0.22232355 177.05564493 -5.30859375 179.97265625 Z " fill="#C0BFC2" transform="translate(314,0)"/>
<path d="M0 0 C3.08571 0.77976922 5.25287654 1.7497146 7.96728516 3.38500977 C8.88638672 3.93092773 9.80548828 4.4768457 10.75244141 5.03930664 C11.73857422 5.63678711 12.72470703 6.23426758 13.74072266 6.84985352 C15.89876594 8.13376953 18.05765481 9.41626508 20.21728516 10.69750977 C21.34553711 11.36927246 22.47378906 12.04103516 23.63623047 12.7331543 C28.83583191 15.81471774 34.09266039 18.79605891 39.34741211 21.78222656 C49.66422258 27.64641387 59.93944952 33.57876021 70.18261719 39.57080078 C80.7065689 45.72502093 91.26952403 51.81105348 101.83349609 57.89624023 C107.26232208 61.024155 112.68891547 64.15593799 118.11572266 67.28735352 C120.28237848 68.53737231 122.44904515 69.7873723 124.61572266 71.03735352 C189.61572266 108.53735352 189.61572266 108.53735352 192.87158203 110.41577148 C195.01867402 111.65445354 197.1658088 112.89306142 199.31298828 114.1315918 C204.41161075 117.07268701 209.50977562 120.01456765 214.60644531 122.95904541 C217.0261993 124.35693952 219.44619528 125.75441441 221.86621094 127.15185547 C223.58373317 128.14387676 225.30090317 129.13650781 227.01806641 130.12915039 C228.05060547 130.7253418 229.08314453 131.3215332 230.14697266 131.93579102 C231.06027344 132.46350098 231.97357422 132.99121094 232.91455078 133.53491211 C234.29560957 134.32071863 235.69450761 135.07674599 237.11572266 135.78735352 C237.1079659 136.36354937 237.10020914 136.93974522 237.09221733 137.53340155 C236.63519719 171.72906409 236.31476305 205.92310172 236.17020636 240.1214979 C236.15270952 244.23302153 236.13407849 248.3445393 236.11474609 252.45605469 C236.11091664 253.27453909 236.10708718 254.0930235 236.10314168 254.93631046 C236.0385346 268.16768752 235.88218444 281.39645576 235.69155537 294.62654877 C235.49781622 308.2151879 235.4035285 321.80193138 235.40038884 335.39196342 C235.39535255 343.77124656 235.31398938 352.14249294 235.13298996 360.51985275 C235.01609953 366.2749784 234.99636221 372.02549504 235.05085663 377.78152544 C235.07949717 381.10332713 235.05306853 384.39937276 234.9390049 387.7210331 C234.47747058 399.63967202 234.47747058 399.63967202 238.11572266 410.78735352 C244.63592261 417.18082973 252.82627665 420.88167421 261.12381005 424.46803653 C264.79735665 426.08792757 268.13978543 427.99493337 271.56884766 430.07641602 C272.5467627 430.63901123 273.52467773 431.20160645 274.53222656 431.78125 C287.11503644 439.02455112 299.63590582 446.36810051 312.11572266 453.78735352 C309.17233106 456.98490741 306.22793128 459.06433685 302.44384766 461.18579102 C301.31648193 461.82299072 300.18911621 462.46019043 299.02758789 463.11669922 C298.43098358 463.44997223 297.83437927 463.78324524 297.21969604 464.12661743 C294.69475504 465.53719459 292.17793937 466.96198639 289.66062927 468.38612366 C288.3686805 469.11692265 287.0763293 469.84701066 285.78358459 470.57640076 C280.67524048 473.46078079 275.59669192 476.39380483 270.53369141 479.35717773 C268.55722566 480.5128144 266.57677539 481.66166495 264.59228516 482.8034668 C259.90189395 485.51085782 255.31392109 488.28667011 250.82275391 491.31469727 C249.98365479 491.85892334 249.14455566 492.40314941 248.2800293 492.96386719 C246.72803444 493.97535539 245.19934533 495.02406402 243.70336914 496.11669922 C241.40324391 497.5848813 239.82418344 498.39901842 237.11572266 498.78735352 C232.71028484 497.45443986 229.0164461 495.19379791 225.11572266 492.78735352 C223.28067756 491.74541568 221.44476134 490.70501032 219.60791016 489.66625977 C217.73339277 488.56439232 215.86106603 487.45879129 213.99072266 486.34985352 C211.89994851 485.12005472 209.80878832 483.89091206 207.71728516 482.66235352 C206.64124023 482.02942383 205.56519531 481.39649414 204.45654297 480.74438477 C198.77642773 477.41700946 193.07087659 474.13405141 187.36572266 470.84985352 C185.28746464 469.65346997 183.20933518 468.45686307 181.13134766 467.26000977 C180.14199219 466.69556152 179.15263672 466.13111328 178.13330078 465.54956055 C176.03163327 464.32222753 173.95345461 463.05415198 171.89501953 461.75561523 C170.3259082 460.77939209 170.3259082 460.77939209 168.72509766 459.78344727 C167.79149414 459.18588623 166.85789062 458.5883252 165.89599609 457.97265625 C162.39576073 456.48041506 160.74335453 456.72841201 157.11572266 457.78735352 C154.21312643 459.11202488 154.21312643 459.11202488 151.31884766 460.85766602 C150.20880371 461.49905518 149.09875977 462.14044434 147.95507812 462.80126953 C146.75854563 463.50482701 145.56209598 464.20852541 144.36572266 464.91235352 C143.11379599 465.63972131 141.86134572 466.36618859 140.60839844 467.09179688 C138.03096279 468.58610806 135.45645615 470.08528182 132.88427734 471.58862305 C128.32800615 474.25010786 123.75465458 476.88168962 119.18115234 479.51342773 C115.96739551 481.36328072 112.7560379 483.21723185 109.54541016 485.07250977 C103.07062244 488.81387007 96.59335922 492.55092834 90.11572266 496.28735352 C87.94904515 497.53733473 85.78237848 498.78733473 83.61572266 500.03735352 C70.61572266 507.53735351 70.61572266 507.53735351 67.36523438 509.41259766 C65.20015195 510.6617087 63.03511283 511.91089481 60.87011719 513.16015625 C55.4295656 516.29937661 49.9882505 519.43725914 44.54541016 522.57250977 C43.46090576 523.19770508 42.37640137 523.82290039 41.2590332 524.46704102 C39.09744801 525.71228976 36.93486522 526.95580855 34.77124023 528.19750977 C29.25428781 531.36997795 23.76960642 534.5856248 18.32275391 537.87719727 C16.68040771 538.86127563 16.68040771 538.86127563 15.00488281 539.86523438 C12.91778876 541.1182229 10.83761992 542.38284217 8.765625 543.66064453 C7.83314941 544.2180835 6.90067383 544.77552246 5.93994141 545.34985352 C5.12614014 545.84614258 4.31233887 546.34243164 3.47387695 546.85375977 C0.50695052 548.02836652 -0.87166465 547.76153596 -3.88427734 546.78735352 C-6.18237305 545.70263672 -6.18237305 545.70263672 -8.56005859 544.33813477 C-9.45764893 543.82718262 -10.35523926 543.31623047 -11.2800293 542.78979492 C-12.24255615 542.23211426 -13.20508301 541.67443359 -14.19677734 541.09985352 C-15.21151123 540.51896973 -16.22624512 539.93808594 -17.27172852 539.33959961 C-26.45186386 534.07222783 -35.58990815 528.73150728 -44.72412109 523.38500977 C-54.32369973 517.77056676 -63.96563686 512.22935031 -73.60205078 506.6784668 C-79.03087677 503.55055203 -84.45747016 500.41876904 -89.88427734 497.28735352 C-92.05093317 496.03733473 -94.21759984 494.78733473 -96.38427734 493.53735352 C-126.71761068 476.03735352 -157.05094401 458.53735352 -187.38427734 441.03735352 C-188.45846924 440.41763672 -189.53266113 439.79791992 -190.6394043 439.15942383 C-192.78901369 437.9192459 -194.93859093 436.67901225 -197.08813477 435.4387207 C-202.15736946 432.51385122 -207.2269267 429.58954519 -212.29763794 426.66723633 C-214.68854332 425.28928414 -217.07926406 423.91101179 -219.4699707 422.53271484 C-221.15411698 421.56194369 -222.83852966 420.59163477 -224.52294922 419.62133789 C-225.54582031 419.0315918 -226.56869141 418.4418457 -227.62255859 417.83422852 C-228.52014893 417.31699219 -229.41773926 416.79975586 -230.3425293 416.2668457 C-231.60069458 415.53449707 -231.60069458 415.53449707 -232.88427734 414.78735352 C-233.74929965 414.48538905 -234.61432196 414.18342459 -235.50555706 413.87230968 C-237.88427734 411.78735352 -237.88427734 411.78735352 -238.34143984 409.70222819 C-238.51987747 406.77364375 -238.52566609 403.88248517 -238.48554993 400.94856262 C-238.48982205 399.8189389 -238.49409418 398.68931517 -238.49849576 397.52546042 C-238.50676631 393.72019024 -238.47917169 389.91600937 -238.4519043 386.11083984 C-238.44771432 383.39121295 -238.4510636 380.67160773 -238.45411682 377.95198059 C-238.45674111 372.08656743 -238.44102765 366.22143195 -238.41292763 360.35608864 C-238.37232614 351.87579187 -238.35927388 343.39562964 -238.35298767 334.91524621 C-238.34203919 321.15712574 -238.30875005 307.39915334 -238.26147461 293.64111328 C-238.2155933 280.27490989 -238.18019443 266.90874669 -238.15893555 253.54248047 C-238.15696512 252.30704656 -238.15696512 252.30704656 -238.15495489 251.04665438 C-238.14842979 246.91486287 -238.14211123 242.78307108 -238.13589537 238.65127909 C-238.08404513 204.36319733 -237.99596487 170.07529138 -237.88427734 135.78735352 C-127.38427734 72.03735352 -127.38427734 72.03735352 -124.13378906 70.16210938 C-121.96870664 68.91299833 -119.80366752 67.66381222 -117.63867188 66.41455078 C-112.19812029 63.27533042 -106.75680519 60.13744789 -101.31396484 57.00219727 C-90.86221535 50.97988023 -80.42128186 44.94066014 -70.00927734 38.84985352 C-61.33165321 33.77460128 -52.61816034 28.76487565 -43.88427734 23.78735352 C-34.67239281 18.53700135 -25.48155038 13.25323153 -16.32177734 7.91235352 C-15.31050781 7.32325195 -14.29923828 6.73415039 -13.25732422 6.12719727 C-2.46074567 -0.18142115 -2.46074567 -0.18142115 0 0 Z M-6.19287109 90.76000977 C-7.31902832 91.40462158 -8.44518555 92.0492334 -9.60546875 92.71337891 C-10.84427966 93.42546513 -12.08304806 94.13762531 -13.32177734 94.84985352 C-14.59692171 95.58103757 -15.87215064 96.31207415 -17.14746094 97.04296875 C-28.6669798 103.64857266 -40.16892809 110.28476268 -51.66650391 116.9284668 C-57.0709838 120.05059957 -62.47775147 123.16876556 -67.88427734 126.28735352 C-70.05095485 127.53733473 -72.21762152 128.78733473 -74.38427734 130.03735352 C-113.38427734 152.53735352 -113.38427734 152.53735352 -116.63989258 154.41552734 C-118.7879178 155.65481618 -120.93586809 156.89423492 -123.08374023 158.13378906 C-128.17083284 161.06937919 -133.25869581 164.00361024 -138.34921265 166.93325806 C-140.75971482 168.32063447 -143.16979111 169.70874976 -145.57983398 171.09692383 C-147.28571702 172.07909166 -148.9922172 173.06018736 -150.69873047 174.04125977 C-152.24270508 174.93071289 -152.24270508 174.93071289 -153.81787109 175.83813477 C-155.17996704 176.62184448 -155.17996704 176.62184448 -156.56958008 177.42138672 C-158.37553935 178.48713317 -160.13948863 179.62416104 -161.88427734 180.78735352 C-162.17892883 183.30243297 -162.27568245 185.57186473 -162.24504089 188.08914185 C-162.24760417 188.85039143 -162.25016744 189.61164102 -162.25280839 190.39595878 C-162.25777082 192.96039207 -162.24121336 195.52424352 -162.22485352 198.08862305 C-162.22400777 199.92140692 -162.22448135 201.75419182 -162.22618103 203.5869751 C-162.22704447 208.57438926 -162.20936242 213.56158852 -162.18845916 218.54895258 C-162.16975032 223.75665362 -162.1679465 228.96435916 -162.16438293 234.17208862 C-162.1550454 244.03895821 -162.13040854 253.90572849 -162.10033447 263.77255428 C-162.06684355 275.00332827 -162.05031782 286.23410691 -162.03524816 297.46491838 C-162.00386045 320.57245188 -161.95106682 343.67989714 -161.88427734 366.78735352 C-161.16473877 367.20247192 -160.4452002 367.61759033 -159.70385742 368.04528809 C-140.93066406 378.87597656 -122.1574707 389.70666504 -103.38427734 400.53735352 C-102.31161621 401.15618408 -101.23895508 401.77501465 -100.13378906 402.41259766 C-97.96870664 403.6617087 -95.80366752 404.91089481 -93.63867188 406.16015625 C-88.19812029 409.29937661 -82.75680519 412.43725914 -77.31396484 415.57250977 C-66.8622131 421.5948281 -56.42146025 427.63434958 -46.00927734 433.72485352 C-37.57225787 438.65637078 -29.11295708 443.54777594 -20.6317749 448.40286255 C-19.39730099 449.10958971 -18.16312234 449.8168329 -16.92926025 450.52462769 C-15.20433643 451.51370252 -13.4779257 452.50018283 -11.75146484 453.48657227 C-10.76259277 454.05206787 -9.7737207 454.61756348 -8.75488281 455.20019531 C-7.80758301 455.72395752 -6.8602832 456.24771973 -5.88427734 456.78735352 C-4.84319824 457.37863037 -3.80211914 457.96990723 -2.72949219 458.57910156 C0.19875474 460.21818491 0.19875474 460.21818491 3.50634766 458.42016602 C4.80729776 457.60696531 6.09276122 456.76870375 7.36572266 455.91235352 C8.88111094 454.9580826 10.39814802 454.00642679 11.91650391 453.05688477 C12.7448877 452.53046387 13.57327148 452.00404297 14.42675781 451.46166992 C19.38916446 448.37176755 24.47984294 445.50249207 29.55322266 442.59985352 C31.80227455 441.30489519 34.05096784 440.00931386 36.29931641 438.71313477 C37.42837402 438.06296387 38.55743164 437.41279297 39.72070312 436.74291992 C45.18742245 433.59403298 50.65147153 430.44052088 56.11572266 427.28735352 C58.28237577 426.03733002 60.44904245 424.78733005 62.61572266 423.53735352 C63.68822266 422.91860352 64.76072266 422.29985352 65.86572266 421.66235352 C101.61572266 401.03735352 101.61572266 401.03735352 104.86889648 399.16064453 C107.02512478 397.9165856 109.18121314 396.67228409 111.3371582 395.42773438 C116.32979217 392.54604692 121.32359781 389.6664823 126.32278442 386.7961731 C128.06596998 385.79515541 129.80868638 384.79332569 131.55126953 383.79125977 C133.71701883 382.54617312 135.88361137 381.30255141 138.05126953 380.06079102 C139.99889207 378.94031005 141.93609834 377.80142589 143.85979652 376.64035034 C147.11572266 374.78735352 147.11572266 374.78735352 150.49046898 373.31985474 C154.44936977 371.41196852 156.97247569 369.88326265 160.11572266 366.78735352 C162.07332396 360.85828277 161.89837181 355.12320497 161.79785156 348.93188477 C161.815483 347.11113585 161.83863885 345.29043334 161.86688232 343.46981812 C161.92602072 338.53899802 161.9032351 333.61172331 161.86195421 328.68084335 C161.82897023 323.51418464 161.85958421 318.34782338 161.87997437 313.18115234 C161.90360628 304.50538783 161.87251194 295.83106328 161.81054688 287.15551758 C161.73979455 277.13415931 161.76271322 267.11623899 161.83429015 257.09496403 C161.89334367 248.48128678 161.90158169 239.86864279 161.86758745 231.25482845 C161.84735007 226.11435042 161.84452705 220.97548689 161.8875618 215.83511353 C161.92521079 211.00062347 161.89892724 206.17055041 161.82393646 201.33653641 C161.80679273 199.56615146 161.81161015 197.79539258 161.8403511 196.02515793 C161.91930789 190.66671511 161.80376553 185.90602535 160.11572266 180.78735352 C156.17867619 176.89902976 152.1952761 175.00032024 147.11572266 172.78735352 C144.94229276 171.55925156 142.78011368 170.31079158 140.63525391 169.03344727 C138.40072563 167.76189506 136.1650088 166.49242969 133.92822266 165.22485352 C131.45754669 163.81969874 128.9878416 162.41284079 126.51806641 161.00610352 C125.58791718 160.47671425 125.58791718 160.47671425 124.63897705 159.93663025 C118.40934181 156.38951296 112.19822045 152.81055687 105.99072266 149.22485352 C104.39514526 148.30337524 104.39514526 148.30337524 102.76733398 147.36328125 C100.62262678 146.12443128 98.47801385 144.8854181 96.33349609 143.64624023 C90.9290162 140.52410747 85.52224853 137.40594147 80.11572266 134.28735352 C77.94904515 133.0373723 75.78237848 131.78737231 73.61572266 130.53735352 C72.54322266 129.91860352 71.47072266 129.29985352 70.36572266 128.66235352 C67.11572266 126.78735352 63.86572266 124.91235352 60.61572266 123.03735352 C59.54233643 122.41812012 58.4689502 121.79888672 57.36303711 121.16088867 C55.20522463 119.9159407 53.04750913 118.67082462 50.88989258 117.42553711 C45.33855673 114.22182701 39.78535724 111.02141721 34.22900391 107.82641602 C13.27664087 95.77071194 13.27664087 95.77071194 4.21264648 90.22338867 C-0.76719742 87.18855186 -1.10660089 87.84299844 -6.19287109 90.76000977 Z " fill="#FE5000" transform="translate(314.88427734375,89.212646484375)"/>
<path d="M0 0 C2.94743077 2.63777673 5.80587368 5.3629273 8.65234375 8.109375 C9.43996094 8.84542969 10.22757813 9.58148438 11.0390625 10.33984375 C35.74934763 34.01514312 50.28828172 67.25171256 57.65234375 100.109375 C57.92570557 101.30916992 57.92570557 101.30916992 58.20458984 102.53320312 C63.58123648 127.50652301 63.27146426 158.2207827 57.65234375 183.109375 C57.4807373 183.89248047 57.30913086 184.67558594 57.13232422 185.48242188 C50.99811424 212.69441326 39.37827251 236.83732675 22.65234375 259.109375 C24.86492358 262.55116584 26.98088194 265.67845387 29.96484375 268.484375 C32.33060427 270.78055433 34.56934485 273.10629295 36.71484375 275.609375 C40.21351271 279.66877872 43.86336275 283.57499699 47.52734375 287.484375 C48.74618077 288.79028337 49.96493177 290.09627203 51.18359375 291.40234375 C53.29725257 293.66606772 55.42140553 295.91866003 57.55859375 298.16015625 C58.780625 299.46533203 58.780625 299.46533203 60.02734375 300.796875 C60.73632812 301.54324219 61.4453125 302.28960938 62.17578125 303.05859375 C63.65234375 305.109375 63.65234375 305.109375 63.65234375 309.109375 C62.48168945 310.58227539 62.48168945 310.58227539 60.828125 311.95703125 C60.2182373 312.47410645 59.60834961 312.99118164 58.97998047 313.52392578 C58.31498535 314.06774902 57.64999023 314.61157227 56.96484375 315.171875 C56.28437988 315.74405762 55.60391602 316.31624023 54.90283203 316.90576172 C53.50028136 318.08374761 52.09366775 319.25691238 50.68310547 320.42529297 C48.3080726 322.39487421 45.9569056 324.39120426 43.60742188 326.39111328 C42.02324482 327.7378596 40.43426505 329.07871605 38.84375 330.41796875 C36.65889062 332.25831073 34.47971081 334.10507494 32.3046875 335.95703125 C25.84163111 341.45556461 19.31906559 346.85726231 12.65234375 352.109375 C5.57353559 346.47850487 -0.30797427 339.80718815 -6.34765625 333.109375 C-7.13527344 332.23667969 -7.92289063 331.36398437 -8.734375 330.46484375 C-10.17635154 328.86235994 -11.61648003 327.25821111 -13.0546875 325.65234375 C-14.75130036 323.77075096 -16.45587807 321.89891477 -18.171875 320.03515625 C-18.657771 319.50736572 -19.14366699 318.9795752 -19.64428711 318.43579102 C-21.01812981 316.9456344 -22.39377555 315.45714067 -23.76953125 313.96875 C-26.37923207 311.07435454 -28.8724947 308.11874408 -31.34765625 305.109375 C-32.53617188 305.67785156 -33.7246875 306.24632812 -34.94921875 306.83203125 C-82.93072566 329.35536294 -137.95804963 334.34941875 -188.53515625 316.921875 C-234.23540102 300.35513627 -271.75625245 267.96530547 -292.45703125 223.73925781 C-302.96004244 200.32629536 -308.45305673 174.71728635 -309.34765625 149.109375 C-309.38890625 147.96984375 -309.43015625 146.8303125 -309.47265625 145.65625 C-310.37797484 94.27942018 -293.03948742 46.16348981 -257.34765625 9.109375 C-256.65800781 8.3565625 -255.96835938 7.60375 -255.2578125 6.828125 C-193.70272343 -58.38955095 -78.17099322 -60.31878987 0 0 Z M-191.34765625 58.109375 C-192.33765625 58.851875 -193.32765625 59.594375 -194.34765625 60.359375 C-212.92070614 76.16185944 -222.37257006 101.50298318 -225.34765625 125.109375 C-226.25219953 142.56019817 -226.37065877 160.24671289 -221.34765625 177.109375 C-221.13866699 177.81400879 -220.92967773 178.51864258 -220.71435547 179.24462891 C-215.75071808 195.25840135 -207.20055709 208.37500317 -195.34765625 220.109375 C-194.5690625 220.90988281 -193.79046875 221.71039063 -192.98828125 222.53515625 C-174.57560401 240.42263967 -146.63043491 248.55042837 -121.4609375 248.265625 C-110.84052549 247.73260558 -100.57733249 246.01553302 -90.34765625 243.109375 C-90.34765625 239.20566159 -91.46266716 238.54689882 -94.09765625 235.734375 C-94.9175 234.85007812 -95.73734375 233.96578125 -96.58203125 233.0546875 C-97.02869141 232.5793457 -97.47535156 232.10400391 -97.93554688 231.61425781 C-99.90845253 229.51173526 -101.86122401 227.39088716 -103.81542969 225.27099609 C-104.84374925 224.15583628 -105.87305981 223.04158954 -106.90332031 221.92822266 C-110.63938368 217.88971607 -114.32528763 213.80889197 -117.99609375 209.7109375 C-120.79698749 206.61227432 -123.63388893 203.54829502 -126.47265625 200.484375 C-133.42187072 192.96409732 -133.42187072 192.96409732 -136.59765625 189.421875 C-137.1390625 188.81988281 -137.68046875 188.21789062 -138.23828125 187.59765625 C-139.34765625 186.109375 -139.34765625 186.109375 -139.34765625 184.109375 C-137.83978464 182.73446201 -136.26225864 181.43573038 -134.66015625 180.171875 C-133.65597656 179.36878906 -132.65179687 178.56570313 -131.6171875 177.73828125 C-131.08174316 177.31047363 -130.54629883 176.88266602 -129.99462891 176.44189453 C-127.2385728 174.21204659 -124.54531292 171.90922797 -121.84765625 169.609375 C-117.03236042 165.51510116 -112.16391215 161.4953985 -107.25 157.51953125 C-105.0394233 155.68383028 -102.87603471 153.82304197 -100.7265625 151.91796875 C-100.10386475 151.37003662 -99.48116699 150.82210449 -98.83959961 150.25756836 C-97.62103312 149.18178147 -96.40923907 148.09826012 -95.20532227 147.00610352 C-92.01164737 144.19546704 -89.65667978 142.4321483 -85.34765625 142.109375 C-84.9815625 142.53605469 -84.61546875 142.96273437 -84.23828125 143.40234375 C-78.92391149 149.53917549 -73.41040796 155.48373509 -67.89404297 161.43798828 C-62.15064598 167.6456447 -56.43934783 173.88282682 -50.78515625 180.171875 C-50.07101562 180.96464844 -49.356875 181.75742187 -48.62109375 182.57421875 C-46.95217625 184.43526249 -45.29196794 186.30267464 -43.63671875 188.17578125 C-42.72796883 189.19540542 -41.81911676 190.21493856 -40.91015625 191.234375 C-40.08644531 192.16507813 -39.26273438 193.09578125 -38.4140625 194.0546875 C-36.59696222 196.34440607 -36.59696222 196.34440607 -34.34765625 196.109375 C-20.31251803 166.81693765 -17.67928279 132.51300466 -27.59765625 101.421875 C-36.57260602 76.20653994 -53.34048184 56.07901384 -77.296875 44.07421875 C-114.70093867 26.35119483 -159.59767324 31.58491002 -191.34765625 58.109375 Z " fill="#E0E0E3" transform="translate(2011.34765625,217.890625)"/>
<path d="M0 0 C32.01 0 64.02 0 97 0 C112.876 24.948 112.876 24.948 117.9375 33.375 C122.72518553 41.29267585 127.58140558 49.16299302 132.5 57 C137.9845942 65.74113827 143.38226936 74.53033612 148.73046875 83.35546875 C152.93016168 90.27316519 157.19895178 97.14492727 161.5 104 C166.98446547 112.74122022 172.3822681 121.53033404 177.73046875 130.35546875 C181.93016168 137.27316519 186.19895178 144.14492727 190.5 151 C195.97484444 159.72588609 201.36445849 168.49882713 206.7019043 177.30932617 C211.82031471 185.74243344 217.04224246 194.10849689 222.29101562 202.4609375 C222.89236328 203.41871094 223.49371094 204.37648438 224.11328125 205.36328125 C224.64735596 206.21188721 225.18143066 207.06049316 225.73168945 207.93481445 C227 210 227 210 228 212 C228.495 107.06 228.495 107.06 229 0 C255.4 0 281.8 0 309 0 C309 117.48 309 234.96 309 356 C280.95 356 252.9 356 224 356 C208.53857422 331.26171875 208.53857422 331.26171875 202.95898438 322.32421875 C197.99223024 314.37034202 193.01406366 306.42414713 188 298.5 C180.30101223 286.33264116 172.68742066 274.11191904 165.06347656 261.89746094 C158.72995992 251.75166063 152.39528868 241.60701335 146 231.5 C139.60014247 221.38576612 133.26124107 211.23370157 126.92333984 201.08056641 C123.78410778 196.05253516 120.64196553 191.02632342 117.5 186 C113.71334447 179.94234112 109.92739003 173.88424953 106.14453125 167.82421875 C99.71276434 157.52311261 93.26999551 147.22963201 86.7668457 136.97338867 C86.31269287 136.25642822 85.85854004 135.53946777 85.390625 134.80078125 C84.99907227 134.18372314 84.60751953 133.56666504 84.20410156 132.9309082 C82.7743129 130.63808612 81.39021749 128.31702914 80 126 C79.67 201.9 79.34 277.8 79 356 C52.93 356 26.86 356 0 356 C0 238.52 0 121.04 0 0 Z " fill="#E0E0E3" transform="translate(1348,181)"/>
<path d="M0 0 C0.91313965 0.19867676 1.8262793 0.39735352 2.76708984 0.60205078 C46.29735502 10.38372121 84.39349011 33.97499901 111 70 C111.62624268 70.8357959 111.62624268 70.8357959 112.26513672 71.68847656 C133.02816139 99.74038534 144.87314873 136.63151438 145.23828125 171.49609375 C145.24812042 172.27859497 145.25795959 173.06109619 145.26809692 173.86730957 C145.76330051 223.53984985 133.98440192 271.64373108 99.17578125 308.671875 C97.48066189 310.48568315 95.90753465 312.3022971 94.375 314.25 C91.21423462 317.9098336 87.72782085 320.92865075 84 324 C83.24686523 324.62165039 83.24686523 324.62165039 82.47851562 325.25585938 C74.37994478 331.89764588 66.11875439 337.80262122 57 343 C56.39945801 343.35271973 55.79891602 343.70543945 55.18017578 344.06884766 C10.43968701 370.20301103 -44.52217223 373.86835309 -94 361 C-124.68667506 352.25028628 -149.74686392 336.5663801 -173 315 C-173.59167969 314.46246094 -174.18335938 313.92492187 -174.79296875 313.37109375 C-184.8729799 303.81782903 -192.94685224 291.90021713 -200 280 C-200.36834961 279.38382812 -200.73669922 278.76765625 -201.11621094 278.1328125 C-226.54564548 234.90497928 -231.18307693 179.70199046 -219.10302734 131.54589844 C-211.16448692 101.7033968 -197.16185581 74.59763789 -175.43505859 52.47021484 C-174.05717626 51.05857698 -172.70945794 49.61768606 -171.36328125 48.17578125 C-129.34099242 4.14345768 -58.64593037 -12.92277183 0 0 Z M-115.55224609 106.66552734 C-132.59180337 125.98223476 -140.88467401 150.38235624 -142 176 C-142.04125 176.91652344 -142.0825 177.83304687 -142.125 178.77734375 C-142.60977069 200.86470813 -137.84803843 221.77707936 -127 241 C-126.49082031 241.96035156 -125.98164062 242.92070312 -125.45703125 243.91015625 C-117.56717867 257.68190408 -104.76938515 268.44756132 -91 276 C-89.28103516 276.95132813 -89.28103516 276.95132813 -87.52734375 277.921875 C-63.15300766 290.65608545 -33.44632192 292.07675671 -7.37231445 284.23510742 C18.61596005 275.82301122 38.59727804 258.22945795 51.44140625 234.31640625 C54.06105699 228.92107542 55.949745 223.35223085 57.6875 217.625 C57.89012451 216.9659668 58.09274902 216.30693359 58.30151367 215.62792969 C61.46716182 204.66636121 62.36776545 193.6173144 62.3125 182.25 C62.30404053 180.41139404 62.30404053 180.41139404 62.29541016 178.53564453 C61.9449465 152.24393007 53.95715544 126.64440495 36 107 C35.25234375 106.15953125 34.5046875 105.3190625 33.734375 104.453125 C16.74332155 86.33683622 -8.27870002 75.68039342 -33.01171875 74.76171875 C-64.25018801 74.14952417 -93.78465398 83.30935977 -115.55224609 106.66552734 Z " fill="#E0E0E3" transform="translate(1157,177)"/>
<path d="M0 0 C6.93 3.96 6.93 3.96 14 8 C18.09362753 10.3088637 18.09362753 10.3088637 22.18920898 12.61425781 C32.25859574 18.27823066 42.26942313 24.03444333 52.22802734 29.89111328 C60.42954352 34.70438623 68.70586749 39.33455046 77 44 C77 135.08 77 226.16 77 320 C78.65 320.66 80.3 321.32 82 322 C83.91655679 323.025151 85.8150553 324.08443169 87.69921875 325.16796875 C88.81248535 325.80613525 89.92575195 326.44430176 91.07275391 327.10180664 C92.27771682 327.79695534 93.4826309 328.4921887 94.6875 329.1875 C95.94434799 329.90968618 97.20134912 330.6316059 98.45849609 331.35327148 C101.68637148 333.20743067 104.91189349 335.06563953 108.13653564 336.92541504 C110.99525204 338.57392183 113.85518454 340.22031688 116.71484375 341.8671875 C122.07278109 344.95479176 127.42792501 348.04720933 132.78222656 351.14111328 C138.18670645 354.26324605 143.59347412 357.38141204 149 360.5 C151.1666775 361.74998122 153.33334417 362.99998121 155.5 364.25 C156.5725 364.86875 157.645 365.4875 158.75 366.125 C179.33333333 378 199.91666667 389.875 220.5 401.75 C221.57266113 402.36883057 222.64532227 402.98766113 223.75048828 403.62524414 C225.91557071 404.87435518 228.08060982 406.12354129 230.24560547 407.37280273 C235.68615706 410.51202309 241.12747216 413.64990563 246.5703125 416.78515625 C276.01665771 433.75152611 276.01665771 433.75152611 280.69888306 436.66294861 C285.82636942 439.78968929 290.62555091 442.33146914 296.35693359 444.16235352 C303.53361628 446.75673168 309.52467238 449.61538691 314 456 C318.51906918 468.80395017 316.34463028 484.46813244 315.64794922 497.75476074 C315.40074417 502.9682989 315.29248273 508.18461396 315.171875 513.40234375 C314.91576608 523.60890723 314.50723589 533.80304419 314 544 C310.46935789 542.61572638 307.19644021 541.09020174 303.88671875 539.234375 C302.40473999 538.40498413 302.40473999 538.40498413 300.89282227 537.55883789 C299.83506592 536.96192139 298.77730957 536.36500488 297.6875 535.75 C296.57882568 535.12665771 295.47015137 534.50331543 294.32788086 533.86108398 C284.86059123 528.52126695 275.46700035 523.05876975 266.08984375 517.5625 C259.78429581 513.8678669 253.45705564 510.21147319 247.125 506.5625 C246.04484619 505.93996338 244.96469238 505.31742676 243.85180664 504.67602539 C241.66203666 503.41423174 239.47217645 502.15259466 237.28222656 500.89111328 C231.85340058 497.76319852 226.42680719 494.63141552 221 491.5 C218.83334417 490.24998121 216.6666775 488.99998122 214.5 487.75 C143 446.5 71.5 405.25 0 364 C0 243.88 0 123.76 0 0 Z " fill="#808082" transform="translate(0,181)"/>
<path d="M0 0 C2.22583008 1.00390625 2.22583008 1.00390625 4.95703125 2.5625 C5.94783691 3.12195313 6.93864258 3.68140625 7.95947266 4.2578125 C8.96284668 4.83273438 9.9662207 5.40765625 11 6 C12.75337416 6.98011916 14.50726478 7.95931508 16.26171875 8.9375 C18.07108673 9.95696043 19.87965198 10.97784659 21.6875 12 C23.16899536 12.83748779 23.16899536 12.83748779 24.68041992 13.69189453 C32.76162596 18.27309445 40.79257062 22.93713304 48.80981445 27.62915039 C59.41811048 33.837196 70.06716947 39.97379721 80.71777344 46.10888672 C86.14659942 49.23680148 91.57319281 52.36858448 97 55.5 C99.16665583 56.75001879 101.3333225 58.00001878 103.5 59.25 C175 100.5 175 100.5 246.5 141.75 C247.57282227 142.36891113 248.64564453 142.98782227 249.75097656 143.62548828 C251.91447476 144.87371034 254.07788643 146.12208239 256.24121094 147.37060547 C261.70565017 150.52405256 267.17163645 153.67476096 272.640625 156.8203125 C286.4833929 164.78647208 300.27150141 172.8384055 314 181 C310.59166354 183.8455204 307.16533016 186.18211602 303.30078125 188.36328125 C302.18662842 188.99548584 301.07247559 189.62769043 299.92456055 190.27905273 C299.33621429 190.61025116 298.74786804 190.94144958 298.14169312 191.28268433 C296.28073404 192.33038389 294.42281503 193.38329339 292.56567383 194.43774414 C290.6372969 195.53263047 288.70878182 196.62726144 286.77940369 197.72038269 C280.23189697 201.43030628 273.70726014 205.17903873 267.1875 208.9375 C266.11056885 209.55536377 265.0336377 210.17322754 263.92407227 210.80981445 C259.3197152 213.4601151 254.74216507 216.12934961 250.25390625 218.97265625 C249.56337158 219.40650635 248.87283691 219.84035645 248.16137695 220.28735352 C246.41548567 221.39500992 244.68351292 222.52452709 242.953125 223.65625 C239.31607491 225.31120401 237.83921071 224.9288605 234 224 C231.34472656 222.74755859 231.34472656 222.74755859 228.640625 221.1484375 C227.11115234 220.25415039 227.11115234 220.25415039 225.55078125 219.34179688 C224.46152344 218.69275391 223.37226562 218.04371094 222.25 217.375 C221.09302648 216.69497822 219.93546287 216.01595953 218.77734375 215.33789062 C216.37334852 213.92932676 213.97194227 212.51649359 211.57226562 211.10058594 C206.0716512 207.85983022 200.53396591 204.68333677 195 201.5 C192.83315966 200.25030108 190.6664935 199.00030011 188.5 197.75 C186.89125 196.821875 186.89125 196.821875 185.25 195.875 C154.375 178.0625 154.375 178.0625 123.5 160.25 C122.42733887 159.63116943 121.35467773 159.01233887 120.24951172 158.37475586 C118.08442929 157.12564482 115.91939018 155.87645871 113.75439453 154.62719727 C108.31384294 151.48797691 102.87252784 148.35009437 97.4296875 145.21484375 C86.97793801 139.19252671 76.53700452 133.15330663 66.125 127.0625 C56.28051118 121.30478762 46.39232359 115.62593498 36.47290039 109.99853516 C30.62917461 106.67838064 24.82092639 103.31262412 19.06640625 99.83984375 C17.97005859 99.18306641 16.87371094 98.52628906 15.74414062 97.84960938 C13.67161717 96.60405968 11.60607935 95.34678783 9.54882812 94.07617188 C8.62650391 93.52380859 7.70417969 92.97144531 6.75390625 92.40234375 C5.55229858 91.66745728 5.55229858 91.66745728 4.32641602 90.91772461 C1.36276591 89.74862389 0.01102924 90.02036548 -3 91 C-4.81952641 91.87018594 -6.60485887 92.81382088 -8.359375 93.80859375 C-9.38345459 94.38536865 -10.40753418 94.96214355 -11.46264648 95.55639648 C-12.54747314 96.17716064 -13.6322998 96.7979248 -14.75 97.4375 C-16.44008179 98.39474976 -16.44008179 98.39474976 -18.16430664 99.37133789 C-25.64203591 103.61845736 -33.07214578 107.94169511 -40.46875 112.328125 C-46.09867855 115.66001908 -51.7691917 118.92147673 -57.4375 122.1875 C-58.54472412 122.82550537 -59.65194824 123.46351074 -60.79272461 124.12084961 C-63.06337068 125.42889477 -65.33412358 126.73675448 -67.60498047 128.04443359 C-73.0716998 131.19332054 -78.53574887 134.34683264 -84 137.5 C-86.16665311 138.7500235 -88.33331979 140.00002347 -90.5 141.25 C-91.5725 141.86875 -92.645 142.4875 -93.75 143.125 C-129.5 163.75 -129.5 163.75 -132.75048828 165.62524414 C-134.91557071 166.87435518 -137.08060982 168.12354129 -139.24560547 169.37280273 C-144.68615706 172.51202309 -150.12747216 175.64990563 -155.5703125 178.78515625 C-166.99613148 185.36873389 -178.40406985 191.9808477 -189.78564453 198.640625 C-195.32308775 201.8743821 -200.875245 205.08068824 -206.4453125 208.2578125 C-207.07500946 208.61700272 -207.70470642 208.97619293 -208.35348511 209.3462677 C-211.42127119 211.09514069 -214.49064083 212.84117102 -217.56201172 214.58374023 C-218.67592285 215.21739502 -219.78983398 215.8510498 -220.9375 216.50390625 C-221.989375 217.09961426 -223.04125 217.69532227 -224.125 218.30908203 C-227.24030667 220.14133526 -230.20990744 222.12462886 -233.12109375 224.26538086 C-236.01447573 225.39664208 -238.03193498 224.76436754 -241 224 C-243.65527344 222.74755859 -243.65527344 222.74755859 -246.359375 221.1484375 C-247.37950684 220.55200439 -248.39963867 219.95557129 -249.45068359 219.34106445 C-250.53945801 218.69226318 -251.62823242 218.04346191 -252.75 217.375 C-253.90259137 216.6971971 -255.05575989 216.02037479 -256.20947266 215.34448242 C-258.60894351 213.9378982 -261.0058718 212.52711221 -263.40136719 211.11376953 C-267.94871678 208.43619914 -272.52726786 205.81345724 -277.10498047 203.18823242 C-289.16007697 196.27324762 -301.11825618 189.20852966 -313 182 C-310.22262654 179.01114732 -307.56071009 176.98949092 -303.984375 175.0390625 C-302.9931665 174.49258057 -302.00195801 173.94609863 -300.98071289 173.38305664 C-299.91457764 172.80289795 -298.84844238 172.22273926 -297.75 171.625 C-295.47166234 170.36768476 -293.19434262 169.10852346 -290.91796875 167.84765625 C-290.33844955 167.52721848 -289.75893036 167.2067807 -289.16184998 166.87663269 C-283.4118589 163.69025847 -277.73201056 160.389351 -272.0625 157.0625 C-270.07168508 155.89571304 -268.080799 154.7290475 -266.08984375 153.5625 C-265.0932373 152.97855469 -264.09663086 152.39460937 -263.06982422 151.79296875 C-257.7667275 148.69562962 -252.44605065 145.62886142 -247.125 142.5625 C-246.04484619 141.93996338 -244.96469238 141.31742676 -243.85180664 140.67602539 C-241.66203666 139.41423174 -239.47217645 138.15259466 -237.28222656 136.89111328 C-231.85340058 133.76319852 -226.42680719 130.63141552 -221 127.5 C-218.83334417 126.24998121 -216.6666775 124.99998122 -214.5 123.75 C-213.4275 123.13125 -212.355 122.5125 -211.25 121.875 C-175.5 101.25 -175.5 101.25 -172.24951172 99.37475586 C-170.08442929 98.12564482 -167.91939018 96.87645871 -165.75439453 95.62719727 C-160.31384294 92.48797691 -154.87252784 89.35009437 -149.4296875 86.21484375 C-138.97793801 80.19252671 -128.53700452 74.15330663 -118.125 68.0625 C-108.85500223 62.64078822 -99.54168248 57.29795085 -90.21154785 51.98077393 C-81.0871716 46.77954871 -71.99867226 41.51972122 -62.93310547 36.21655273 C-52.44428105 30.0828744 -41.91652399 24.0173048 -31.38769531 17.95263672 C-27.80668054 15.88857242 -24.22734013 13.8216295 -20.6484375 11.75390625 C-18.84814134 10.71407145 -17.04782169 9.67427733 -15.24749756 8.63449097 C-13.53084792 7.64282016 -11.8144935 6.65063837 -10.09814453 5.65844727 C-9.06544434 5.06217529 -8.03274414 4.46590332 -6.96875 3.8515625 C-6.05544922 3.32385254 -5.14214844 2.79614258 -4.20117188 2.25244141 C-2.82011309 1.46663489 -1.42121505 0.71060752 0 0 Z " fill="#E0DFE2" transform="translate(314,0)"/>
<path d="M0 0 C2.53353662 1.05771693 4.8795478 2.29909441 7.2722168 3.64794922 C8.29951904 4.22472412 9.32682129 4.80149902 10.38525391 5.39575195 C11.47845947 6.01651611 12.57166504 6.63728027 13.69799805 7.27685547 C14.82923096 7.91502197 15.96046387 8.55318848 17.12597656 9.21069336 C23.93058186 13.06010046 30.70135201 16.96168417 37.42553711 20.94970703 C43.73746099 24.69244078 50.08981868 28.3633353 56.44799805 32.02685547 C57.55522217 32.66486084 58.66244629 33.30286621 59.80322266 33.96020508 C62.07386872 35.26825023 64.34462162 36.57610995 66.61547852 37.88378906 C72.08219784 41.032676 77.54624692 44.18618811 83.01049805 47.33935547 C85.17715116 48.58937897 87.34381784 49.83937894 89.51049805 51.08935547 C93.84383138 53.58935547 98.17716471 56.08935547 102.51049805 58.58935547 C103.58412598 59.20875 104.65775391 59.82814453 105.76391602 60.46630859 C107.91921115 61.70976056 110.07448478 62.95324983 112.22973633 64.19677734 C117.23387478 67.08398421 122.23820325 69.97085977 127.24334717 72.85632324 C128.99391045 73.86554651 130.74440215 74.87489383 132.49487305 75.88427734 C134.6744197 77.14103206 136.85409637 78.39756133 139.03393555 79.65380859 C146.03911088 83.69351988 153.02908311 87.75872387 160.01049805 91.83935547 C160.89930664 91.32856445 161.78811523 90.81777344 162.70385742 90.29150391 C168.5160233 86.95370085 174.34173577 83.64672918 180.2121582 80.41235352 C190.12692434 74.94709206 199.90530421 69.26296032 209.67456055 63.54248047 C216.06331796 59.80300957 222.47165881 56.09810513 228.88549805 52.40185547 C229.96508789 51.77964111 231.04467773 51.15742676 232.15698242 50.51635742 C234.34732325 49.2542403 236.53775307 47.99227762 238.72827148 46.73046875 C244.15709747 43.60255399 249.58369086 40.47077099 255.01049805 37.33935547 C257.17715387 36.08933668 259.34382054 34.83933668 261.51049805 33.58935547 C262.58299805 32.97060547 263.65549805 32.35185547 264.76049805 31.71435547 C268.01049805 29.83935547 271.26049805 27.96435547 274.51049805 26.08935547 C276.12190674 25.15929687 276.12190674 25.15929687 277.76586914 24.21044922 C279.91369931 22.971851 282.06245023 21.73484795 284.2121582 20.49951172 C289.30922709 17.56786425 294.3950727 14.62034738 299.449646 11.61608887 C301.84647167 10.19281163 304.24856013 8.77855567 306.65112305 7.36499023 C308.35165873 6.35936658 310.04445604 5.34069369 311.73706055 4.32177734 C312.7631543 3.71914063 313.78924805 3.11650391 314.84643555 2.49560547 C315.7492627 1.95742188 316.65208984 1.41923828 317.58227539 0.86474609 C320.01049805 -0.16064453 320.01049805 -0.16064453 322.11547852 0.0612793 C325.47593382 1.44104882 328.60484712 3.24052668 331.76049805 5.02685547 C332.54489258 5.46682861 333.32928711 5.90680176 334.13745117 6.36010742 C342.70548168 11.18919454 351.18793045 16.16604202 359.67456055 21.13623047 C366.06331796 24.87570136 372.47165881 28.58060581 378.88549805 32.27685547 C379.96508789 32.89906982 381.04467773 33.52128418 382.15698242 34.16235352 C384.34732325 35.42447064 386.53775307 36.68643332 388.72827148 37.94824219 C394.15709747 41.07615695 399.58369086 44.20793995 405.01049805 47.33935547 C407.17715387 48.58937426 409.34382054 49.83937425 411.51049805 51.08935547 C415.84383138 53.58935547 420.17716471 56.08935547 424.51049805 58.58935547 C425.58485107 59.20907227 426.6592041 59.82878906 427.76611328 60.46728516 C429.91442091 61.70689859 432.06237523 62.94712456 434.20996094 64.18798828 C439.2919395 67.1233323 444.37734468 70.05220819 449.47543335 72.95947266 C451.88702888 74.33522338 454.2966168 75.71446894 456.70605469 77.09399414 C458.41040355 78.06787365 460.11764743 79.03668112 461.82495117 80.00537109 C462.85426758 80.59511719 463.88358398 81.18486328 464.9440918 81.79248047 C465.85215576 82.3097168 466.76021973 82.82695313 467.69580078 83.35986328 C469.78400601 84.69458785 471.35628009 86.00869215 473.01049805 87.83935547 C466.67547016 92.20793958 460.17334541 96.10551545 453.44799805 99.83935547 C446.19561121 103.90158774 438.96712361 107.99807222 431.79101562 112.19384766 C429.77762452 113.37012352 427.76054002 114.54010112 425.73974609 115.70361328 C420.95946012 118.466096 416.27641759 121.29124527 411.69799805 124.37841797 C410.86171875 124.92095215 410.02543945 125.46348633 409.16381836 126.02246094 C407.61595857 127.03162024 406.09146469 128.07805516 404.59936523 129.16796875 C402.29869227 130.63644933 400.71953703 131.45093747 398.01049805 131.83935547 C393.60506023 130.50644181 389.91122149 128.24579986 386.01049805 125.83935547 C384.17545295 124.79741763 382.33953673 123.75701227 380.50268555 122.71826172 C378.62816816 121.61639427 376.75584142 120.51079324 374.88549805 119.40185547 C372.7947239 118.17205667 370.70356372 116.94291401 368.61206055 115.71435547 C367.53601563 115.08142578 366.4599707 114.44849609 365.35131836 113.79638672 C359.67120312 110.46901141 353.96565198 107.18605337 348.26049805 103.90185547 C346.18224003 102.70547192 344.10411057 101.50886502 342.02612305 100.31201172 C341.03676758 99.74756348 340.04741211 99.18311523 339.02807617 98.6015625 C336.92640866 97.37422948 334.84823 96.10615393 332.78979492 94.80761719 C331.22068359 93.83139404 331.22068359 93.83139404 329.61987305 92.83544922 C328.68626953 92.23788818 327.75266602 91.64032715 326.79077148 91.0246582 C323.29053612 89.53241701 321.63812992 89.78041397 318.01049805 90.83935547 C315.10790182 92.16402683 315.10790182 92.16402683 312.21362305 93.90966797 C311.1035791 94.55105713 309.99353516 95.19244629 308.84985352 95.85327148 C307.65332102 96.55682896 306.45687137 97.26052736 305.26049805 97.96435547 C304.00857138 98.69172326 302.75612112 99.41819054 301.50317383 100.14379883 C298.92573818 101.63811001 296.35123154 103.13728378 293.77905273 104.640625 C289.22278154 107.30210981 284.64942997 109.93369158 280.07592773 112.56542969 C276.86217091 114.41528268 273.65081329 116.2692338 270.44018555 118.12451172 C263.96539783 121.86587203 257.48813461 125.60293029 251.01049805 129.33935547 C248.84382054 130.58933668 246.67715387 131.83933668 244.51049805 133.08935547 C231.51049805 140.58935547 231.51049805 140.58935547 228.26000977 142.46459961 C226.09492734 143.71371065 223.92988822 144.96289676 221.76489258 146.2121582 C216.32434099 149.35137856 210.88302589 152.4892611 205.44018555 155.62451172 C204.35568115 156.24970703 203.27117676 156.87490234 202.15380859 157.51904297 C199.99222341 158.76429172 197.82964061 160.00781051 195.66601562 161.24951172 C190.1490632 164.4219799 184.66438181 167.63762675 179.2175293 170.92919922 C178.12263184 171.58525146 177.02773438 172.24130371 175.8996582 172.91723633 C173.81256415 174.17022485 171.73239531 175.43484412 169.66040039 176.71264648 C168.7279248 177.27008545 167.79544922 177.82752441 166.8347168 178.40185547 C166.02091553 178.89814453 165.20711426 179.39443359 164.36865234 179.90576172 C161.40172591 181.08036848 160.02311074 180.81353791 157.01049805 179.83935547 C154.71240234 178.75463867 154.71240234 178.75463867 152.3347168 177.39013672 C151.43712646 176.87918457 150.53953613 176.36823242 149.61474609 175.84179688 C148.17095581 175.00527588 148.17095581 175.00527588 146.69799805 174.15185547 C145.68326416 173.57097168 144.66853027 172.99008789 143.62304688 172.39160156 C134.44291153 167.12422979 125.30486724 161.78350924 116.1706543 156.43701172 C106.57107566 150.82256871 96.92913853 145.28135227 87.29272461 139.73046875 C81.86389862 136.60255399 76.43730524 133.47077099 71.01049805 130.33935547 C68.84384222 129.08933668 66.67717555 127.83933668 64.51049805 126.58935547 C34.17716471 109.08935547 3.84383138 91.58935547 -26.48950195 74.08935547 C-27.56369385 73.46963867 -28.63788574 72.84992188 -29.74462891 72.21142578 C-31.8942383 70.97124786 -34.04381554 69.7310142 -36.19335938 68.49072266 C-41.26259407 65.56585317 -46.33215131 62.64154714 -51.40286255 59.71923828 C-53.79376793 58.34128609 -56.18448867 56.96301375 -58.57519531 55.5847168 C-60.25934158 54.61394565 -61.94375427 53.64363673 -63.62817383 52.67333984 C-65.16248047 51.7887207 -65.16248047 51.7887207 -66.7277832 50.88623047 C-68.0741687 50.11037598 -68.0741687 50.11037598 -69.44775391 49.31884766 C-70.28653076 48.83061523 -71.12530762 48.34238281 -71.98950195 47.83935547 C-72.9230249 47.32276367 -73.85654785 46.80617188 -74.81835938 46.27392578 C-75.53483643 45.80051758 -76.25131348 45.32710938 -76.98950195 44.83935547 C-76.98950195 44.17935547 -76.98950195 43.51935547 -76.98950195 42.83935547 C-76.31145508 42.47583984 -75.6334082 42.11232422 -74.93481445 41.73779297 C-74.00411133 41.23505859 -73.0734082 40.73232422 -72.11450195 40.21435547 C-70.75711914 39.48345703 -70.75711914 39.48345703 -69.37231445 38.73779297 C-66.68864508 37.23171524 -64.05239748 35.68400283 -61.41918945 34.09326172 C-54.74150559 30.06644245 -47.95909782 26.2246898 -41.17919922 22.37356567 C-34.26110338 18.44315206 -27.36379867 14.48522723 -20.52075195 10.42529297 C-18.74691113 9.37901154 -16.97253882 8.33363746 -15.19799805 7.2885437 C-13.51525668 6.29210617 -11.84019286 5.28273974 -10.1652832 4.27319336 C-9.14821289 3.67498779 -8.13114258 3.07678223 -7.08325195 2.46044922 C-6.1931543 1.92863037 -5.30305664 1.39681152 -4.38598633 0.84887695 C-1.98950195 -0.16064453 -1.98950195 -0.16064453 0 0 Z " fill="#FEB500" transform="translate(153.989501953125,456.16064453125)"/>
<path d="M0 0 C0 29.37 0 58.74 0 89 C-13.86 96.92 -13.86 96.92 -28 105 C-35.5961693 109.37684041 -43.19148019 113.75491277 -50.78222656 118.14111328 C-56.18670645 121.26324605 -61.59347412 124.38141204 -67 127.5 C-69.1666775 128.74998122 -71.33334417 129.99998121 -73.5 131.25 C-86.5 138.75 -99.5 146.25 -112.5 153.75 C-113.57443359 154.36987793 -114.64886719 154.98975586 -115.75585938 155.62841797 C-117.90295136 156.86710002 -120.05008614 158.1057079 -122.19726562 159.34423828 C-127.29588809 162.2853335 -132.39405296 165.22721413 -137.49072266 168.17169189 C-139.91047665 169.56958601 -142.33047263 170.96706089 -144.75048828 172.36450195 C-146.46801052 173.35652324 -148.18518052 174.34915429 -149.90234375 175.34179688 C-150.93488281 175.93798828 -151.96742188 176.53417969 -153.03125 177.1484375 C-154.40120117 177.94000244 -154.40120117 177.94000244 -155.79882812 178.74755859 C-157.17988691 179.53336511 -158.57878495 180.28939248 -160 181 C-159.98422488 182.42406442 -159.98422488 182.42406442 -159.96813107 183.87689781 C-159.71593065 206.99647476 -159.56191432 230.1151256 -159.51034451 253.23604393 C-159.48314094 264.41750135 -159.42425204 275.59710203 -159.2902832 286.77783203 C-159.17356952 296.52523984 -159.11680212 306.27085747 -159.13146263 316.01898539 C-159.13714469 321.17969029 -159.1131946 326.33635617 -159.01739311 331.49625778 C-158.92805972 336.35887409 -158.91920973 341.21515482 -158.97076797 346.0782547 C-158.97569084 347.85770979 -158.95177364 349.63752687 -158.89613152 351.41611862 C-158.57355088 362.36169789 -158.57355088 362.36169789 -161 367 C-165.17450319 371.23096062 -170.51238598 373.66971206 -175.88835728 376.03776193 C-179.00546065 377.45817055 -181.8808137 379.18460032 -184.8203125 380.94140625 C-186.92162999 382.14886398 -189.0231915 383.35589717 -191.125 384.5625 C-199.44937683 389.35162767 -207.74023718 394.18359311 -215.94921875 399.16796875 C-219.27273803 401.16378251 -222.6285828 403.08617946 -226 405 C-226.85207031 405.48984375 -227.70414063 405.9796875 -228.58203125 406.484375 C-229.68611328 407.11085938 -229.68611328 407.11085938 -230.8125 407.75 C-231.93591797 408.39195312 -231.93591797 408.39195312 -233.08203125 409.046875 C-235 410 -235 410 -237 410 C-237 319.58 -237 229.16 -237 136 C-126.5 72.25 -126.5 72.25 -123.24951172 70.37475586 C-121.08442929 69.12564482 -118.91939018 67.87645871 -116.75439453 66.62719727 C-111.31384294 63.48797691 -105.87252784 60.35009437 -100.4296875 57.21484375 C-89.97793801 51.19252671 -79.53700452 45.15330663 -69.125 39.0625 C-60.44737587 33.98724776 -51.733883 28.97752213 -43 24 C-33.78811547 18.74964783 -24.59727304 13.46587801 -15.4375 8.125 C-14.42623047 7.53589844 -13.41496094 6.94679688 -12.37304688 6.33984375 C-1.52302925 0 -1.52302925 0 0 0 Z " fill="#FE8200" transform="translate(314,89)"/>
<path d="M0 0 C26.73 0 53.46 0 81 0 C81 117.48 81 234.96 81 356 C54.27 356 27.54 356 0 356 C0 238.52 0 121.04 0 0 Z " fill="#E0E0E3" transform="translate(806,181)"/>
<path d="M0 0 C0 119.46 0 238.92 0 362 C-17.04664079 352.90845824 -17.04664079 352.90845824 -22.8125 349.4375 C-30.17137984 345.06005384 -37.57857024 340.7704704 -45 336.5 C-52.70070057 332.06411515 -60.39752576 327.6224086 -68.0625 323.125 C-68.76439453 322.71443359 -69.46628906 322.30386719 -70.18945312 321.88085938 C-74.87926578 319.12073422 -74.87926578 319.12073422 -76 318 C-76.09672647 316.52999954 -76.12371776 315.05535444 -76.12304783 313.58217525 C-76.12503888 312.62225042 -76.12702993 311.66232559 -76.12908131 310.67331213 C-76.12616847 309.60621419 -76.12325563 308.53911625 -76.12025452 307.43968201 C-76.12110894 306.31585068 -76.12196337 305.19201936 -76.12284368 304.03413254 C-76.12450176 300.23685056 -76.11897177 296.43961195 -76.11352539 292.64233398 C-76.112688 289.93286104 -76.11335704 287.22338897 -76.1139679 284.51391602 C-76.11449333 278.66440309 -76.11134453 272.81490129 -76.10573006 266.96539116 C-76.09761764 258.5078868 -76.0950001 250.05038784 -76.09374207 241.59288002 C-76.09155114 227.87254522 -76.08488995 214.15221635 -76.07543945 200.43188477 C-76.06626639 187.10050486 -76.05918504 173.76912656 -76.05493164 160.43774414 C-76.05466892 159.61658308 -76.05440619 158.79542202 -76.05413551 157.94937729 C-76.05283051 153.83002834 -76.05156679 149.71067938 -76.05032361 145.59133041 C-76.03994972 111.394216 -76.0223303 77.19710864 -76 43 C-72.4337024 40.94225074 -68.86737239 38.88455765 -65.30101395 36.82691383 C-64.09088669 36.12870951 -62.88076789 35.43049055 -61.67065811 34.73225594 C-55.29794639 31.05520748 -48.92487121 27.37881469 -42.546875 23.7109375 C-40.6145197 22.59906892 -38.68222513 21.48709477 -36.75 20.375 C-35.70134766 19.77163818 -34.65269531 19.16827637 -33.57226562 18.54663086 C-28.20986254 15.45420951 -22.86499435 12.33602068 -17.546875 9.16796875 C-16.01788574 8.25748779 -16.01788574 8.25748779 -14.45800781 7.32861328 C-12.52780456 6.17616278 -10.59995149 5.01976421 -8.67480469 3.85888672 C-7.39718262 3.09535889 -7.39718262 3.09535889 -6.09375 2.31640625 C-5.34802734 1.86724854 -4.60230469 1.41809082 -3.83398438 0.95532227 C-2 0 -2 0 0 0 Z " fill="#C0C0C2" transform="translate(628,182)"/>
<path d="M0 0 C0 29.37 0 58.74 0 89 C-26 104 -26 104 -33.453125 108.2890625 C-34.43055664 108.85173828 -35.40798828 109.41441406 -36.41503906 109.99414062 C-38.42120285 111.14822038 -40.42847481 112.30037478 -42.43652344 113.45117188 C-47.77411457 116.52000619 -53.0708143 119.63688431 -58.3125 122.8671875 C-59.3137793 123.47868652 -60.31505859 124.09018555 -61.34667969 124.72021484 C-63.23120359 125.87546032 -65.10746643 127.04433285 -66.97363281 128.22900391 C-68.23191895 128.99736572 -68.23191895 128.99736572 -69.515625 129.78125 C-70.24040039 130.23564453 -70.96517578 130.69003906 -71.71191406 131.15820312 C-74.86336604 132.31763616 -76.77836348 131.86154058 -80 131 C-82.65527344 129.74755859 -82.65527344 129.74755859 -85.359375 128.1484375 C-86.37950684 127.55200439 -87.39963867 126.95557129 -88.45068359 126.34106445 C-89.53945801 125.69226318 -90.62823242 125.04346191 -91.75 124.375 C-92.90259137 123.6971971 -94.05575989 123.02037479 -95.20947266 122.34448242 C-97.60894351 120.9378982 -100.0058718 119.52711221 -102.40136719 118.11376953 C-109.00466066 114.22561826 -115.6659409 110.4368017 -122.31542969 106.62841797 C-124.34915822 105.45779872 -126.35532819 104.23838737 -128.3359375 102.97998047 C-131.1998129 101.26970191 -133.99638111 100.37124294 -137.1953125 99.44580078 C-143.52144819 97.25536536 -148.42492475 94.85867594 -152 89 C-155.89047041 76.00014457 -153.95433732 60.738258 -153.37329102 47.38256836 C-153.16754866 42.15508298 -153.0771189 36.92569127 -152.9765625 31.6953125 C-152.762952 21.45847343 -152.42232428 11.23020726 -152 1 C-149.04221486 2.16860396 -146.19922484 3.34630519 -143.41796875 4.890625 C-142.41056641 5.44882935 -142.41056641 5.44882935 -141.3828125 6.01831055 C-140.65835937 6.42476807 -139.93390625 6.83122559 -139.1875 7.25 C-138.01767578 7.90319214 -138.01767578 7.90319214 -136.82421875 8.56958008 C-128.29704586 13.35528931 -119.86449184 18.30283089 -111.42578125 23.2421875 C-105.10235475 26.94289056 -98.77193435 30.63127341 -92.43115234 34.30215454 C-90.71595034 35.29601468 -89.00249079 36.29288 -87.2890625 37.28979492 C-86.24878906 37.89154541 -85.20851563 38.4932959 -84.13671875 39.11328125 C-82.75552856 39.91439331 -82.75552856 39.91439331 -81.34643555 40.73168945 C-78.9580849 42.11003655 -78.9580849 42.11003655 -76 43 C-73.5608541 41.97381067 -73.5608541 41.97381067 -70.93359375 40.34375 C-69.90395508 39.74095215 -68.87431641 39.1381543 -67.81347656 38.51708984 C-66.6994043 37.8514502 -65.58533203 37.18581055 -64.4375 36.5 C-63.26983123 35.81225072 -62.10152638 35.12558033 -60.93261719 34.43994141 C-58.4986968 33.01125761 -56.06760403 31.5779226 -53.63818359 30.14160156 C-48.03734088 26.83669288 -42.3903449 23.61183471 -36.75 20.375 C-30.32475483 16.67930372 -23.91495228 12.96149014 -17.546875 9.16796875 C-16.52754883 8.56098145 -15.50822266 7.95399414 -14.45800781 7.32861328 C-12.52780456 6.17616278 -10.59995149 5.01976421 -8.67480469 3.85888672 C-7.39718262 3.09535889 -7.39718262 3.09535889 -6.09375 2.31640625 C-5.34802734 1.86724854 -4.60230469 1.41809082 -3.83398438 0.95532227 C-2 0 -2 0 0 0 Z " fill="#C0BFC2" transform="translate(628,544)"/>
<path d="M0 0 C2.95778514 1.16860396 5.80077516 2.34630519 8.58203125 3.890625 C9.58943359 4.44882935 9.58943359 4.44882935 10.6171875 5.01831055 C11.34164063 5.42476807 12.06609375 5.83122559 12.8125 6.25 C13.59238281 6.68546143 14.37226563 7.12092285 15.17578125 7.56958008 C23.70355643 12.35562734 32.1369613 17.30289139 40.57421875 22.24609375 C45.10903718 24.90074193 49.65367364 27.53750054 54.20703125 30.16015625 C54.80276947 30.50330368 55.39850769 30.84645111 56.01229858 31.19999695 C58.91092183 32.86891248 61.8105494 34.53605639 64.7109375 36.2019043 C65.75121094 36.80043213 66.79148437 37.39895996 67.86328125 38.015625 C68.78407471 38.54446289 69.70486816 39.07330078 70.65356445 39.61816406 C72.47062767 40.68824811 74.24541946 41.83027964 76 43 C76.28618725 45.84100433 76.37815744 48.46310581 76.34057617 51.30517578 C76.34123329 52.59308517 76.34123329 52.59308517 76.34190369 53.90701294 C76.33980874 56.75334178 76.31644467 59.59908619 76.29296875 62.4453125 C76.2873753 64.41543252 76.28310402 66.3855567 76.28010559 68.35568237 C76.26863705 73.5475003 76.23915262 78.73906746 76.20599365 83.93078613 C76.17533601 89.22595833 76.16160948 94.52117094 76.14648438 99.81640625 C76.11428482 110.21104783 76.06306426 120.60550308 76 131 C72.06804528 129.7282356 68.63344163 128.38267032 65.078125 126.26953125 C64.14838867 125.72151855 63.21865234 125.17350586 62.26074219 124.60888672 C60.7704248 123.71967529 60.7704248 123.71967529 59.25 122.8125 C57.09418211 121.53963244 54.93791641 120.26752309 52.78125 118.99609375 C51.66621094 118.33722168 50.55117188 117.67834961 49.40234375 116.99951172 C42.89353064 113.17436969 36.33866523 109.42857968 29.78613281 105.67895508 C27.72934369 104.49685568 25.70010856 103.26591575 23.69628906 101.99609375 C20.81752601 100.27984903 18.00997842 99.37180923 14.79589844 98.44140625 C8.47240654 96.25178944 3.57176753 93.8577514 0 88 C-3.88864675 74.99873551 -1.95438071 59.73925534 -1.37329102 46.38256836 C-1.16754866 41.15508298 -1.0771189 35.92569127 -0.9765625 30.6953125 C-0.762952 20.45847343 -0.42232428 10.23020726 0 0 Z " fill="#808083" transform="translate(476,545)"/>
</svg>
