<?xml version="1.0" encoding="UTF-8"?>
<svg version="1.1" xmlns="http://www.w3.org/2000/svg" width="2008" height="900">
<path d="M0 0 C47.52 0 95.04 0 144 0 C144 47.52 144 95.04 144 144 C96.48 144 48.96 144 0 144 C0 96.48 0 48.96 0 0 Z " fill="#F25022" transform="translate(299,299)"/>
<path d="M0 0 C47.52 0 95.04 0 144 0 C144 47.19 144 94.38 144 143 C96.48 143 48.96 143 0 143 C0 95.81 0 48.62 0 0 Z " fill="#00A4EF" transform="translate(299,457)"/>
<path d="M0 0 C47.19 0 94.38 0 143 0 C143 47.52 143 95.04 143 144 C95.81 144 48.62 144 0 144 C0 96.48 0 48.96 0 0 Z " fill="#7FBA00" transform="translate(457,299)"/>
<path d="M0 0 C15.18 0 30.36 0 46 0 C49.00216389 6.60476057 51.89774239 13.0533238 54.42578125 19.8203125 C54.73014099 20.62506012 55.03450073 21.42980774 55.3480835 22.25894165 C55.99997859 23.98306565 56.65036672 25.70776009 57.29934692 27.4329834 C59.06044621 32.11234392 60.83517518 36.78653161 62.609375 41.4609375 C62.97382217 42.42165161 63.33826935 43.38236572 63.71376038 44.37219238 C67.44154516 54.18634243 71.24024921 63.97231083 75.0625 73.75 C75.38779694 74.58234161 75.71309387 75.41468323 76.04824829 76.27224731 C83.31896905 94.86645455 90.65292326 113.43585371 98 132 C108.18466498 107.19195512 118.35105693 82.37649047 128.50143433 57.55439758 C131.35668251 50.57229579 134.21327952 43.59074663 137.0703125 36.609375 C138.31204213 33.57490443 139.55375797 30.54042822 140.79547119 27.50595093 C141.59240637 25.55851756 142.38940249 23.61110913 143.1864624 21.66372681 C144.29115356 18.96469301 145.39560279 16.26556033 146.5 13.56640625 C146.82622345 12.76954407 147.1524469 11.97268188 147.48855591 11.15167236 C147.79139496 10.41140808 148.09423401 9.6711438 148.40625 8.90844727 C148.66728516 8.27060806 148.92832031 7.63276886 149.19726562 6.9756012 C150.14056416 4.65405901 151.0693443 2.32663925 152 0 C166.52 0 181.04 0 196 0 C196 59.73 196 119.46 196 181 C185.44 181 174.88 181 164 181 C163.67 136.12 163.34 91.24 163 45 C159.04 55.23 155.08 65.46 151 76 C148.81395353 81.56142492 146.62419782 87.12015664 144.4140625 92.671875 C143.86323275 94.05845869 143.31251651 95.44508747 142.76190186 96.83175659 C141.34031987 100.41083639 139.91705752 103.9892452 138.4932785 107.56745148 C137.31142601 110.53821536 136.13055394 113.5093686 134.9496479 116.4805088 C128.43662888 132.8667206 121.91773717 149.25062904 115.375 165.625 C114.94927704 166.69131653 114.94927704 166.69131653 114.51495361 167.7791748 C113.74793906 169.69953341 112.97949251 171.61931989 112.2109375 173.5390625 C111.80149902 174.56209473 111.39206055 175.58512695 110.97021484 176.63916016 C110 179 110 179 109 181 C101.74 181 94.48 181 87 181 C84.40936353 175.81872706 81.99323013 170.77822388 79.85546875 165.42578125 C79.42654327 164.3637851 79.42654327 164.3637851 78.98895264 163.28033447 C78.05212397 160.95892399 77.11986763 158.63570535 76.1875 156.3125 C75.51736525 154.65016537 74.8468664 152.98797748 74.17602539 151.32592773 C72.78973079 147.89039246 71.40497841 144.45424212 70.02148438 141.01757812 C57.11626434 108.97058552 44.03468689 76.99423146 31 45 C30.67 89.88 30.34 134.76 30 181 C20.1 181 10.2 181 0 181 C0 121.27 0 61.54 0 0 Z " fill="#FFFFFF" transform="translate(689,359)"/>
<path d="M0 0 C47.19 0 94.38 0 143 0 C143 47.19 143 94.38 143 143 C95.81 143 48.62 143 0 143 C0 95.81 0 48.62 0 0 Z " fill="#FFB900" transform="translate(457,457)"/>
<path d="M0 0 C1.22203125 -0.01417969 2.4440625 -0.02835937 3.703125 -0.04296875 C7.75 0.1875 7.75 0.1875 17.75 2.1875 C17.75 11.4275 17.75 20.6675 17.75 30.1875 C14.12 29.1975 10.49 28.2075 6.75 27.1875 C1.22107336 26.62523627 -3.41001538 27.47263468 -8.25 30.1875 C-12.78487045 34.06962395 -14.92014211 38.83587373 -15.50048828 44.73266602 C-15.66925309 47.67647848 -15.78339861 50.61519267 -15.875 53.5625 C-16.060625 58.821875 -16.060625 58.821875 -16.25 64.1875 C-1.73 64.1875 12.79 64.1875 27.75 64.1875 C27.75 54.6175 27.75 45.0475 27.75 35.1875 C31.82393957 33.90179834 35.8985203 32.61873406 39.9753418 31.34228516 C41.36189162 30.9072955 42.74796445 30.47078237 44.13354492 30.03271484 C46.12555392 29.4032086 48.11921559 28.7792061 50.11328125 28.15625 C51.31251221 27.77919922 52.51174316 27.40214844 53.74731445 27.01367188 C56.75 26.1875 56.75 26.1875 59.75 26.1875 C59.75 38.7275 59.75 51.2675 59.75 64.1875 C69.65 64.1875 79.55 64.1875 89.75 64.1875 C89.75 72.7675 89.75 81.3475 89.75 90.1875 C79.85 90.1875 69.95 90.1875 59.75 90.1875 C59.81181899 102.25608899 59.81181899 102.25608899 59.91015625 114.32421875 C59.95839364 119.25081671 60.00247471 124.17719291 60.02099609 129.10400391 C60.03620901 133.07892474 60.07073543 137.053263 60.11830902 141.02792358 C60.13307534 142.53961099 60.14103828 144.05138159 60.14188385 145.56314087 C60.13103833 156.96771843 60.13103833 156.96771843 64.75 167.1875 C69.10232229 170.58443447 73.45396446 170.53886252 78.7734375 170.5859375 C82.6927618 170.17431464 82.6927618 170.17431464 89.75 167.1875 C89.75 176.0975 89.75 185.0075 89.75 194.1875 C74.19072856 198.43093767 57.85499639 200.93812502 43.0703125 192.78515625 C34.36624769 186.79195337 30.24037416 178.67767472 28.21388245 168.49313354 C27.69933204 164.82643936 27.63024063 161.32456709 27.63647461 157.62158203 C27.63632858 156.88918808 27.63618256 156.15679413 27.6360321 155.40220642 C27.6367245 152.99987751 27.64448518 150.59762774 27.65234375 148.1953125 C27.65421032 146.52236982 27.6556331 144.84942658 27.65663147 143.17648315 C27.66043781 138.78709385 27.67025192 134.39773797 27.68133545 130.00836182 C27.69339517 124.73444306 27.69796078 119.46051309 27.70378876 114.18658447 C27.71346476 106.18686645 27.73263447 98.18722167 27.75 90.1875 C13.23 90.1875 -1.29 90.1875 -16.25 90.1875 C-16.25 124.5075 -16.25 158.8275 -16.25 194.1875 C-26.81 194.1875 -37.37 194.1875 -48.25 194.1875 C-48.25 159.8675 -48.25 125.5475 -48.25 90.1875 C-55.18 90.1875 -62.11 90.1875 -69.25 90.1875 C-69.25 81.6075 -69.25 73.0275 -69.25 64.1875 C-62.32 64.1875 -55.39 64.1875 -48.25 64.1875 C-48.28480469 62.59421875 -48.31960938 61.0009375 -48.35546875 59.359375 C-48.62147342 42.3176109 -48.2992348 26.60247894 -36 13.375 C-25.81000652 4.01546855 -13.6508007 0.0713954 0 0 Z " fill="#FFFFFF" transform="translate(1617.25,345.8125)"/>
<path d="M0 0 C18.07873134 -0.54067234 34.60448166 4.31461066 48.2421875 16.22265625 C59.50924065 26.8523054 66.07164827 41.51387913 67.0168457 57.03076172 C67.49334673 80.54447391 65.86578927 101.1599009 48.83984375 119.125 C42.81099809 124.74862816 36.42143862 128.91079635 28.83984375 132.125 C28.14632813 132.42148437 27.4528125 132.71796875 26.73828125 133.0234375 C8.50228514 139.9216982 -14.37461261 138.68326556 -32.16015625 131.125 C-46.51322126 124.17471379 -57.03850197 113.46040978 -62.37207031 98.29931641 C-69.53265777 76.84391851 -68.207222 52.9352832 -58.34765625 32.625 C-51.15264932 18.71918573 -39.92772965 9.51178475 -25.16015625 4.125 C-16.82263759 1.50651516 -8.68361794 0.50248784 0 0 Z M-26.41015625 39.6875 C-34.34738642 51.12835765 -35.21213112 66.63250032 -33.47265625 80.0625 C-31.72812312 89.42059165 -27.84219865 98.56547922 -20.2421875 104.6640625 C-10.50037383 111.10835704 1.62395389 111.78924436 12.88671875 109.5078125 C21.20461603 106.58879886 26.8201044 100.7269787 30.71484375 92.9375 C36.51567608 78.81628189 36.94571782 60.57549461 31.08984375 46.375 C26.81315827 37.6473937 21.57117642 31.61832938 12.21484375 28.375 C-2.56080528 24.33721003 -16.50655297 27.95173011 -26.41015625 39.6875 Z " fill="#FFFFFF" transform="translate(1478.16015625,406.875)"/>
<path d="M0 0 C19.06491045 -0.57016555 36.15652207 4.89801405 50.08984375 17.9375 C54.18154682 22.2106899 57.09527405 26.90622119 59.83984375 32.125 C60.22011719 32.83269531 60.60039063 33.54039062 60.9921875 34.26953125 C69.53924351 51.65392065 69.49777687 75.118877 64.09375 93.46484375 C58.6192943 109.44479699 48.97911094 121.4544988 34.1171875 129.62109375 C15.42900099 138.6828475 -6.54407198 139.45014397 -26.28515625 133.4375 C-40.99900626 128.09590286 -52.14411219 119.0664342 -59.69140625 105.2890625 C-68.27644767 86.79469136 -69.36004616 62.91096385 -63.4140625 43.45703125 C-57.10077417 26.6805984 -47.02464303 14.21720438 -30.72265625 6.3125 C-20.73229111 2.09181942 -10.74049144 0.62151126 0 0 Z M-26.41015625 39.75 C-35.12079718 52.11578726 -35.50215985 68.383332 -33.03515625 82.75 C-30.90273076 92.48541915 -26.69446301 100.63007412 -18.16015625 106.125 C-9.23807074 111.60497574 2.68566266 111.765511 12.71875 109.46484375 C14.99304924 108.55116875 16.83303032 107.528104 18.83984375 106.125 C19.89558594 105.39603516 19.89558594 105.39603516 20.97265625 104.65234375 C28.41224474 98.84617044 32.49337152 90.4125982 33.83984375 81.125 C35.7100895 65.74942197 35.12055006 49.37950813 25.23828125 36.65234375 C19.48277337 30.36630023 12.27613821 27.64923976 3.8828125 26.83984375 C-8.62376722 26.47058658 -18.3302524 30.03391562 -26.41015625 39.75 Z " fill="#FFFFFF" transform="translate(1232.16015625,406.875)"/>
<path d="M0 0 C0 9.9 0 19.8 0 30 C-3.45911455 29.13522136 -6.06921666 28.09381998 -9.25 26.5625 C-18.77176278 22.22759221 -27.56886031 20.94325055 -38 22 C-41.26417326 23.43332445 -41.26417326 23.43332445 -44 25 C-44.66 25 -45.32 25 -46 25 C-48.24197534 30.40711699 -48.14982901 34.41565647 -46.3671875 39.97265625 C-44.35027235 42.96345329 -41.51456254 44.22920669 -38.375 45.8125 C-37.71274414 46.15796875 -37.05048828 46.5034375 -36.36816406 46.859375 C-31.58772786 49.31134134 -26.70490607 51.43069605 -21.75 53.5 C-10.21127517 58.38198218 -0.58308232 64.98997652 4.8125 76.625 C8.3597868 86.70676248 7.84219283 97.0743352 4 107 C-1.79716297 118.48284204 -11.02993001 124.96625039 -23 129 C-28.5627075 130.77616274 -34.19215462 131.58795692 -40 132 C-40.70125 132.05414062 -41.4025 132.10828125 -42.125 132.1640625 C-53.99882542 132.61757667 -67.96346492 130.42527735 -79 126 C-80 125 -80 125 -80.11352539 122.04077148 C-80.10828857 120.74727783 -80.10305176 119.45378418 -80.09765625 118.12109375 C-80.0962413 117.4344313 -80.09482635 116.74776886 -80.09336853 116.04029846 C-80.08775479 113.83932199 -80.07520007 111.63844591 -80.0625 109.4375 C-80.05748676 107.94856917 -80.05292355 106.45963676 -80.04882812 104.97070312 C-80.03778093 101.31376925 -80.02050713 97.65689442 -80 94 C-76.30265933 95.44938236 -72.83007149 97.09183165 -69.3125 98.9375 C-60.80967003 103.15795808 -53.79439014 105.2466323 -44.3125 105.375 C-43.59940674 105.38901855 -42.88631348 105.40303711 -42.15161133 105.41748047 C-37.07901299 105.37149991 -33.5110836 104.34349374 -29 102 C-26.89569544 99.69841689 -26.05618094 98.20422627 -25.91015625 95.07421875 C-26.26951661 90.1813893 -27.55112246 87.62443617 -31 84 C-33.33195981 82.52010243 -35.54933216 81.2357484 -38 80 C-38.66281982 79.65461182 -39.32563965 79.30922363 -40.00854492 78.95336914 C-44.03325547 76.88957601 -48.10017903 75.09292575 -52.3125 73.4375 C-62.6982705 69.2803924 -72.552492 61.97754097 -78 52 C-81.30527644 42.6809567 -82.00382486 29.22536979 -78.09765625 19.94140625 C-70.94749865 7.29504209 -60.15190382 0.11668928 -46.31640625 -3.75 C-30.92148719 -7.04400943 -14.7873418 -4.92911393 0 0 Z " fill="#FFFFFF" transform="translate(1393,412)"/>
<path d="M0 0 C0 10.23 0 20.46 0 31 C-7.5625 27.125 -7.5625 27.125 -9.90063477 25.91455078 C-19.86878135 20.87140793 -30.1721747 19.15030681 -41.20703125 21.7578125 C-51.14946811 25.21250328 -59.43173351 31.10884924 -64.36328125 40.6328125 C-69.12078346 52.22381788 -70.50871205 67.87823486 -66.03515625 79.80078125 C-61.32768811 89.80193054 -56.30346492 95.90621531 -46.0625 100.375 C-34.97180457 104.02062388 -23.42607233 103.09696155 -12.8203125 98.4453125 C-9.04475739 96.51047124 -5.53924595 94.33723789 -2 92 C-1.34 92 -0.68 92 0 92 C0 101.9 0 111.8 0 122 C-21.78741545 130.37977517 -43.65100472 133.74630058 -65.90234375 124.47265625 C-81.56807873 117.02501175 -92.19128207 105.60551203 -98.3515625 89.45703125 C-104.80848197 69.27335133 -103.50654466 46.08368246 -94 27 C-85.17128175 11.82726662 -73.18032521 0.81970353 -56.015625 -4.2578125 C-36.11187297 -9.15640432 -18.98042975 -7.5921719 0 0 Z " fill="#FFFFFF" transform="translate(1067,414)"/>
<path d="M0 0 C0 10.56 0 21.12 0 32 C-3.96 30.68 -7.92 29.36 -12 28 C-19.88499158 27.40005499 -26.44521726 27.55591223 -32.90625 32.44140625 C-41.72431476 40.49349505 -43.57403843 51.30854126 -44.21099854 62.80993652 C-44.34682787 67.10691695 -44.3813222 71.40435202 -44.4140625 75.703125 C-44.43281763 77.2778215 -44.4523941 78.85250841 -44.4727478 80.42718506 C-44.52361695 84.53035777 -44.56348158 88.6335629 -44.60089111 92.73687744 C-44.64833373 97.6823196 -44.70973379 102.62760662 -44.76873779 107.57292175 C-44.85639729 115.0485503 -44.92655584 122.52415752 -45 130 C-55.23 130 -65.46 130 -76 130 C-76 87.1 -76 44.2 -76 0 C-65.77 0 -55.54 0 -45 0 C-44.505 8.415 -44.505 8.415 -44 17 C-43.030625 15.47375 -42.06125 13.9475 -41.0625 12.375 C-35.52062065 4.52307876 -29.07751904 0.66491359 -19.76953125 -1.53515625 C-12.41792183 -2.76906531 -7.24328618 -2.06951034 0 0 Z " fill="#FFFFFF" transform="translate(1165,410)"/>
<path d="M0 0 C10.23 0 20.46 0 31 0 C31 42.9 31 85.8 31 130 C20.77 130 10.54 130 0 130 C0 87.1 0 44.2 0 0 Z " fill="#FFFFFF" transform="translate(914,410)"/>
<path d="M0 0 C3.97221595 3.40475653 7.41139387 6.71474031 7.86328125 12.078125 C8.11147181 23.5210162 8.11147181 23.5210162 3.625 28.25 C-0.62516808 32.38529867 -4.85600577 34.19972865 -10.8359375 34.28515625 C-17.73003884 33.86074461 -21.81136554 31.9560586 -26.625 26.875 C-30.07040111 21.70689833 -30.78872827 17.47724794 -29.9140625 11.42578125 C-28.56009925 5.96087163 -24.98034314 2.24882809 -20.375 -0.75 C-13.47097267 -3.59283478 -6.61111089 -3.42798343 0 0 Z " fill="#FFFFFF" transform="translate(940.375,357.75)"/>
</svg>
