<?xml version="1.0" encoding="UTF-8"?>
<svg version="1.1" xmlns="http://www.w3.org/2000/svg" width="8484" height="2405">
<path d="M0 0 C790.06691297 0 790.06691297 0 893 47 C893.81194824 47.36416016 894.62389648 47.72832031 895.46044922 48.10351562 C914.56790174 56.68285199 932.86275417 66.95283063 950 79 C950.58007812 79.40283203 951.16015625 79.80566406 951.7578125 80.22070312 C963.52667591 88.39928552 974.98654547 97.00211836 985.5234375 106.734375 C987.55404134 108.5920252 989.61402674 110.39241489 991.69921875 112.1875 C996.46919954 116.35205159 1000.96344262 120.77145735 1005.4375 125.25 C1006.27788818 126.09119385 1007.11827637 126.9323877 1007.98413086 127.79907227 C1013.73942054 133.61150587 1018.97916502 139.54320622 1024 146 C1025.60101074 147.87769548 1027.20536873 149.75254045 1028.8125 151.625 C1079.71483429 212.75500579 1105.53865928 293.48096365 1111 372 C1111.05639648 372.76860352 1111.11279297 373.53720703 1111.17089844 374.32910156 C1116.72070272 452.8473385 1103.48717899 534.07933925 1066.95019531 604.17333984 C1066.00453118 605.99128925 1065.07601145 607.81729872 1064.1484375 609.64453125 C1053.15804919 631.03995334 1039.35676293 651.1176757 1023.52319336 669.20556641 C1021.5757598 671.4997861 1019.71245361 673.85759428 1017.83203125 676.20703125 C1013.03894938 682.0822133 1007.83216922 687.42955143 1002.4375 692.75 C1001.54353516 693.64332031 1000.64957031 694.53664063 999.72851562 695.45703125 C994.64608167 700.50600368 989.47547098 705.38004903 984 710 C983.09447388 710.76570313 983.09447388 710.76570313 982.1706543 711.546875 C960.74556821 729.48977356 937.71396348 744.95651928 913 758 C912.11248047 758.46905762 911.22496094 758.93811523 910.31054688 759.42138672 C848.88224573 791.61075047 780.28013656 807.23620073 711.5 812.75 C710.77130707 812.80925659 710.04261414 812.86851318 709.2918396 812.92956543 C681.08975317 815.17238111 652.83949098 815.14498275 624.57050782 815.11607273 C619.11506851 815.11164676 613.65962992 815.11317119 608.2041893 815.11389065 C597.65616837 815.11441828 587.10815609 815.1098406 576.56013738 815.10338932 C564.33680301 815.0961398 552.1134737 815.09539188 539.89013672 815.09460449 C507.67675646 815.08937147 475.4633781 815.07541021 443.25 815.0625 C335.21625 815.0315625 335.21625 815.0315625 225 815 C225 991.88 225 1168.76 225 1351 C150.75 1351 76.5 1351 0 1351 C0 905.17 0 459.34 0 0 Z M225 207 C225 339.33 225 471.66 225 608 C302.97948734 608.08746199 302.97948734 608.08746199 380.95898438 608.14648438 C390.82462531 608.15198348 400.69026615 608.15760579 410.55590681 608.16357798 C411.89383476 608.16438752 413.23176271 608.16519264 414.56969067 608.16599327 C436.49582751 608.17915184 458.42193634 608.20297484 480.34805907 608.23145839 C502.19925702 608.25960588 524.05044219 608.27619592 545.90165752 608.28226548 C559.36309191 608.28636263 572.82445684 608.29925862 586.28586983 608.3237494 C595.54214571 608.33972221 604.79838618 608.34437452 614.05467481 608.34050413 C619.3789383 608.33860036 624.70308124 608.3413222 630.02732277 608.35761642 C704.91521174 608.57505934 781.51981176 596.73560961 837 542 C872.12349967 506.51440239 887.208411 457.43333795 887.25 408.3125 C887.25067474 407.59001068 887.25134949 406.86752136 887.25204468 406.12313843 C887.19022227 364.12839086 876.53306933 321.33433193 850 288 C849.56719727 287.4544043 849.13439453 286.90880859 848.68847656 286.34667969 C808.74198201 236.53757362 748.300409 215.82092514 686.70361328 208.38549805 C685.4814209 208.25828369 684.25922852 208.13106934 683 208 C681.84135992 207.87517655 681.84135992 207.87517655 680.65931296 207.7478314 C671.30910606 206.8463143 662.00758301 206.86319805 652.62506104 206.87974548 C650.77504326 206.87930883 648.92502554 206.87843218 647.07500815 206.87715632 C642.01701046 206.87492993 636.9590341 206.87890714 631.90103912 206.88393438 C626.43698632 206.88826544 620.97293465 206.88679057 615.50888062 206.8860321 C606.05053677 206.88550855 596.59219984 206.88863774 587.13385773 206.89426994 C573.45879523 206.90240778 559.78373606 206.90500251 546.1086714 206.90625793 C523.92010205 206.90844486 501.73153605 206.91508661 479.54296875 206.92456055 C457.99283873 206.93375124 436.44270971 206.94081487 414.89257812 206.94506836 C413.53642623 206.945339 412.18027433 206.94560971 410.82412243 206.94588047 C400.32369552 206.94796617 389.82326859 206.94991687 379.32284164 206.95183504 C327.88189105 206.96126338 276.44094968 206.98138296 225 207 Z " fill="#FEFFFF" transform="translate(1023,513)"/>
<path d="M0 0 C0.83471832 0.04323395 1.66943665 0.0864679 2.52944946 0.13101196 C86.44273406 4.60708772 168.31714386 29.49169102 295.75 118.8359375 C297.82290576 120.74227047 299.92308634 122.58390065 302.05859375 124.41796875 C307.07014493 128.78882197 311.74776258 133.47655804 316.4375 138.1875 C317.29666016 139.04279297 318.15582031 139.89808594 319.04101562 140.77929688 C324.02845304 145.77435451 328.79370416 150.88182119 333.375 156.25 C334.32427083 157.33312805 335.2747384 158.41520876 336.2265625 159.49609375 C398.85546519 231.29374272 435.88419355 321.19944193 454.54296875 480.609375 C454.54619836 482.24961371 454.54956356 483.88985216 454.55305481 485.53009033 C454.55899599 488.95219588 454.56090019 492.37427639 454.56030273 495.79638672 C454.56022193 499.24403176 454.56709988 502.69154264 454.58081055 506.13916016 C454.67550696 530.34897825 454.7205545 554.34945024 450.375 578.25 C202.875 578.25 -44.625 578.25 -299.625 578.25 C-288.00720768 623.26894526 -273.09414808 663.05627299 -243.625 699.25 C-243.18784668 699.79011719 -242.75069336 700.33023438 -242.30029297 700.88671875 C-230.84068403 714.93794343 -218.07767134 728.26596978 -203.625 739.25 C-202.46179175 740.16479543 -201.29906401 741.08020206 -200.13671875 741.99609375 C-134.75704882 792.88793736 -51.33147511 808.87407707 29.796875 799.4375 C90.01754119 791.73447036 153.52202333 766.63411403 191.87353516 717.32324219 C194.98517647 713.25279757 198.04484928 709.14504982 201.07568359 705.01416016 C201.50445801 704.4319873 201.93323242 703.84981445 202.375 703.25 C202.70535153 702.56353519 203.03570307 701.87707039 203.37606525 701.16980362 C206.64270793 698.03247638 210.29930775 698.71291489 214.65727234 698.76898193 C216.10056946 698.76385538 216.10056946 698.76385538 217.57302409 698.75862527 C220.81159548 698.75201323 224.04934621 698.77407767 227.2878418 698.79589844 C229.6035256 698.79702619 231.91921083 698.79639446 234.2348938 698.79412842 C240.53422646 698.79297755 246.83325642 698.81654739 253.13251853 698.84442425 C259.71087354 698.86937575 266.28923497 698.87177496 272.86763 698.87652588 C283.9131904 698.88689203 294.95864435 698.91256816 306.00415039 698.94824219 C317.38174888 698.98495061 328.75931715 699.01326806 340.13696289 699.03027344 C340.83811868 699.03132433 341.53927447 699.03237523 342.26167741 699.03345796 C345.77912206 699.03867806 349.29656692 699.04373291 352.81401193 699.04870558 C382.00108042 699.09018169 411.18803872 699.16093946 440.375 699.25 C439.90391415 700.84503806 439.4308613 702.43949526 438.95698547 704.03370667 C438.69376653 704.92168221 438.43054758 705.80965776 438.1593523 706.72454166 C436.4027415 712.38047891 433.92891435 717.7659679 431.5625 723.1875 C431.28010468 723.83695587 430.99770935 724.48641174 430.70675659 725.1555481 C416.36121713 758.02605192 398.2676419 788.84169087 376.375 817.25 C375.96314453 817.78802246 375.55128906 818.32604492 375.12695312 818.88037109 C359.13938128 839.73032851 341.42221777 860.38967844 321.4140625 877.48828125 C319.1480777 879.44605739 316.95356506 881.47228948 314.75 883.5 C309.15163527 888.54449303 303.26830355 893.16667072 297.30078125 897.76123047 C295.33747972 899.27900591 293.38703637 900.81225273 291.4375 902.34765625 C275.90434935 914.50193287 259.48087953 925.43441967 242.375 935.25 C241.7262793 935.62511719 241.07755859 936.00023437 240.40917969 936.38671875 C171.08268421 976.30498779 92.6221186 998.64631937 -163.99465942 984.78767395 C-215.87537919 970.75500071 -265.148827 948.72529819 -309.875 918.9375 C-310.9688501 918.20917969 -312.0627002 917.48085937 -313.18969727 916.73046875 C-320.51318147 911.79712938 -327.61232871 906.61471936 -334.625 901.25 C-335.29402344 900.73961182 -335.96304688 900.22922363 -336.65234375 899.70336914 C-354.76170601 885.79907093 -371.45698022 870.47728976 -387.625 854.375 C-388.41414795 853.5905249 -389.2032959 852.8060498 -390.01635742 851.99780273 C-394.75831985 847.24273121 -399.2549999 842.34698469 -403.625 837.25 C-404.55055685 836.20177517 -405.47755769 835.15482293 -406.40625 834.109375 C-415.06218483 824.25772071 -422.89224738 813.83454791 -430.625 803.25 C-431.4298584 802.15316895 -431.4298584 802.15316895 -432.25097656 801.03417969 C-445.63411 782.72265425 -457.08632998 763.31521034 -467.625 743.25 C-468.11323242 742.32944824 -468.60146484 741.40889648 -469.10449219 740.46044922 C-499.37887058 683.07483613 -516.54522956 618.68135681 -522.625 554.25 C-522.72796387 553.19361328 -522.83092773 552.13722656 -522.93701172 551.04882812 C-530.55128508 469.39687306 -519.95438453 385.22001456 -481.625 285.25 C-480.95452637 283.70699219 -480.95452637 283.70699219 -480.27050781 282.1328125 C-468.83043226 255.97465559 -454.92031337 230.71404643 -438.625 207.25 C-438.18720215 206.61529785 -437.7494043 205.9805957 -437.29833984 205.32666016 C-424.32365625 186.5473973 -410.04630063 169.07323705 -394.625 152.25 C-394.13338379 151.70794922 -393.64176758 151.16589844 -393.13525391 150.60742188 C-374.78929935 130.40414039 -354.47727427 112.55643194 -332.625 96.25 C-331.35412628 95.29172022 -330.0832916 94.33338867 -328.8125 93.375 C-319.70012252 86.55032911 -310.27388982 80.28838238 -300.625 74.25 C-300.02284668 73.87166016 -299.42069336 73.49332031 -298.80029297 73.10351562 C-226.02771653 27.64870758 -141.96058811 4.27484326 -56.6875 0 C-55.46001541 -0.06193542 -55.46001541 -0.06193542 -54.20773315 -0.12512207 C-36.11158951 -1.00820603 -18.091857 -0.93999419 0 0 Z M-77.625 197.25 C-78.64529297 197.42160645 -79.66558594 197.59321289 -80.71679688 197.77001953 C-144.47347348 208.74597663 -207.73136234 239.95603092 -247.625 292.25 C-248.04313965 292.79172852 -248.4612793 293.33345703 -248.89208984 293.89160156 C-271.75322463 323.63359597 -295.625 365.68617251 -295.625 404.25 C-123.695 404.25 48.235 404.25 225.375 404.25 C220.64652152 361.69369364 202.08175718 319.57518566 175.375 286.25 C174.60542969 285.27675781 173.83585937 284.30351563 173.04296875 283.30078125 C161.3990376 268.89450351 148.03053349 255.34881102 133.02685547 244.453125 C131.34637677 243.22915234 129.69057586 241.97634812 128.03515625 240.71875 C118.99608259 233.94725952 109.3838311 228.4546735 99.375 223.25 C98.59334473 222.8375 97.81168945 222.425 97.00634766 222 C63.06640046 204.27172723 23.2484298 194.23637725 -15.06640625 194.046875 C-16.02396317 194.03986069 -16.98152008 194.03284637 -17.96809387 194.02561951 C-21.04127773 194.00821999 -24.11426869 194.00176709 -27.1875 194 C-28.23923401 193.99932526 -29.29096802 193.99865051 -30.37457275 193.99795532 C-46.32837148 194.01421455 -61.87231189 194.50586246 -77.625 197.25 Z " fill="#FEFFFF" transform="translate(2609.625,887.75)"/>
<path d="M0 0 C47.6097191 -0.06898199 95.21943282 -0.12168781 142.82919222 -0.15319599 C148.4767044 -0.15694717 154.12421648 -0.16083023 159.77172852 -0.16479492 C160.89583354 -0.16558185 162.01993856 -0.16636878 163.17810737 -0.16717956 C181.27204493 -0.1801592 199.36595328 -0.20377096 217.45987362 -0.23145839 C236.08835318 -0.2597216 254.71681767 -0.27621991 273.34531778 -0.28226548 C283.78231835 -0.28597772 294.21925796 -0.2948313 304.65623665 -0.31719017 C392.0836272 -0.49877 478.2498292 3.38571213 740.25 129.0625 C746.2551172 135.08029217 751.81900129 141.25035982 757 148 C758.00167131 149.26245946 759.00435222 150.52411827 760.0078125 151.78515625 C768.11402666 162.06508347 775.31178119 172.7494686 782 184 C782.46647949 184.78181641 782.93295898 185.56363281 783.41357422 186.36914062 C802.79753656 219.23435364 814.61619178 256.16053263 820.75 293.6875 C820.94875732 294.89672119 821.14751465 296.10594238 821.35229492 297.35180664 C824.41506279 317.03202657 825.29061687 336.46671814 825.24050903 356.36665344 C825.24138293 358.97515266 825.2431373 361.5836517 825.24568737 364.19214982 C825.24979844 369.82647365 825.24661038 375.46075487 825.23841095 381.0950737 C825.22625327 389.47286216 825.2257474 397.85062423 825.22749493 406.2284199 C825.2301123 420.32674497 825.22347974 434.42505117 825.21146011 448.52337074 C825.19960061 462.46982225 825.1919231 476.41626589 825.18975449 490.3627224 C825.18961701 491.23190464 825.18947953 492.10108689 825.18933788 492.99660799 C825.18866116 497.41126806 825.18805841 501.82592813 825.18748413 506.24058821 C825.18329031 537.45865594 825.16983519 568.67671343 825.15087891 599.89477539 C825.13249165 630.21085557 825.11833345 660.52693294 825.10986328 690.84301758 C825.10960023 691.77852264 825.10933718 692.7140277 825.10906615 693.67788141 C825.10642897 703.07314452 825.10387736 712.46840766 825.10138843 721.86367082 C825.09631686 741.00060064 825.09067436 760.13753028 825.08468628 779.27445984 C825.0844117 780.15422379 825.08413712 781.03398775 825.08385422 781.94041122 C825.07541295 808.89031382 825.06455325 835.84021469 825.05130005 862.79011536 C825.05092493 863.55481659 825.05054982 864.31951783 825.05016333 865.10739183 C825.03493745 896.07159535 825.01714643 927.0357975 825 958 C753.72 958 682.44 958 609 958 C608.67 930.28 608.34 902.56 608 874 C605.36 876.64 602.72 879.28 600 882 C598.13307761 883.67379249 596.26364467 885.34538577 594.359375 886.9765625 C592.56338525 888.51683186 590.78528118 890.07798346 589.015625 891.6484375 C567.02726591 911.05031309 542.15051151 925.9200154 516 939 C515.19916992 939.40702148 514.39833984 939.81404297 513.57324219 940.23339844 C446.00949075 974.45996127 366.31004743 985.26621252 291.375 985.1875 C290.30418182 985.18689575 289.23336365 985.1862915 288.13009644 985.18566895 C199.94513343 985.0513792 108.35072688 969.10554298 34 919 C33.35498535 918.5659082 32.7099707 918.13181641 32.04541016 917.68457031 C23.80669268 912.08594329 16.1112268 905.96855234 8.61499023 899.41040039 C7.47672348 898.4163313 6.33241673 897.42915752 5.18383789 896.44702148 C-7.97166035 885.12319741 -20.56808062 872.72529638 -30.78320312 858.65673828 C-32.0275632 856.96247114 -33.31263968 855.30678264 -34.609375 853.65234375 C-84.73459881 788.83100528 -98.24400711 698.81690183 -88.1875 619.16796875 C-79.20657019 554.41531972 -49.20347096 491.97303283 3.1953125 451.12109375 C4.12085937 450.42113281 5.04640625 449.72117187 6 449 C7.18537752 448.07483558 8.37023614 447.14900609 9.5546875 446.22265625 C79.59620921 391.99525208 171.29332115 370.56517424 282 361 C283.29018193 360.91049859 284.58036386 360.82099718 285.90964222 360.72878361 C300.34647506 359.809753 314.78492675 359.86279759 329.24448764 359.88393438 C333.01037828 359.88831065 336.77626756 359.88678744 340.54216003 359.8860321 C347.04451603 359.88551136 353.54686188 359.88861083 360.04921532 359.89426994 C369.4501716 359.90244637 378.85112305 359.90500641 388.2520825 359.90625793 C403.50977327 359.90843887 418.76745864 359.91507281 434.02514648 359.92456055 C448.83406548 359.93375957 463.64298301 359.94082818 478.4519043 359.94506836 C479.36690719 359.94533108 480.28191008 359.94559381 481.22464033 359.94586449 C485.81559222 359.94716966 490.40654411 359.94843334 494.99749601 359.94967639 C532.99833448 359.96001913 570.99916682 359.97761117 609 360 C608.71071274 356.21552664 608.41090129 352.43195382 608.109375 348.6484375 C608.02864746 347.59068115 607.94791992 346.5329248 607.86474609 345.44311523 C605.57322817 317.01738099 596.80837978 285.19571219 575.6953125 264.7265625 C573 262 573 262 573 260 C572.43023438 259.75378906 571.86046875 259.50757813 571.2734375 259.25390625 C568.62495777 257.79314681 566.79852724 256.04055451 564.625 253.9375 C558.57678078 248.41905181 552.02503967 244.13216528 545 240 C544.05906494 239.443125 544.05906494 239.443125 543.09912109 238.875 C495.59682954 211.2023629 434.958386 205.87419971 380.92198181 205.84178162 C379.27388774 205.83720116 377.6257948 205.83219905 375.97770315 205.82681805 C371.50109135 205.81339613 367.02448701 205.80586562 362.5478605 205.79939139 C357.70079778 205.79131627 352.85375027 205.77764351 348.00669861 205.76467896 C339.62613851 205.74301609 331.24557679 205.72483486 322.86500359 205.70907402 C310.7483655 205.68628187 298.63174434 205.65815247 286.51512069 205.62875474 C266.85278002 205.58119277 247.19043239 205.53789803 227.52807617 205.49731445 C208.43725036 205.45790133 189.34643071 205.41646133 170.25561523 205.37231445 C169.07723128 205.36959018 167.89884734 205.36686591 166.68475478 205.36405908 C160.77266327 205.35037865 154.86057186 205.33665856 148.94848049 205.32291877 C99.96566654 205.20913319 50.98283922 205.10228457 2 205 C1.73295568 188.01661088 1.47210577 171.03313766 1.21769714 154.04955482 C1.0993113 146.15506295 0.97922577 138.26060527 0.85449219 130.36621094 C0.16904374 86.90724364 -0.14549814 43.46447675 0 0 Z M290.0625 535.25 C289.41287292 535.31280151 288.76324585 535.37560303 288.09393311 535.44030762 C237.19121968 540.42930207 184.54114544 553.44307556 149.37890625 593.0625 C145.33197321 598.0596981 142.08589772 603.36823666 139 609 C138.38125 610.12921875 137.7625 611.2584375 137.125 612.421875 C122.95008644 639.76379216 122.53927297 674.04680047 131.1875 703.125 C135.0823794 715.31068954 141.04627456 726.97339245 149 737 C149.41733398 737.52803223 149.83466797 738.05606445 150.26464844 738.60009766 C182.06702109 778.40356124 233.64048248 793.64027149 282.5 799.1875 C296.39319479 800.67407184 310.22646528 801.20653441 324.1875 801.1875 C325.01393005 801.18689575 325.84036011 801.1862915 326.6918335 801.18566895 C409.53018664 801.02257391 494.7299594 779.11332526 555.3125 719.9375 C580.13508994 694.46701212 596.97014652 662.13253847 604.75 627.5625 C604.94875732 626.6947998 605.14751465 625.82709961 605.35229492 624.93310547 C609.49190673 605.46113805 609.25947548 585.81896981 609.1373291 566.02740479 C609.11653838 562.29238187 609.1076658 558.55733023 609.09765625 554.82226562 C609.0764731 547.54810086 609.04252971 540.27407471 609 533 C574.44323638 532.97702987 539.88647452 532.95944932 505.3297049 532.94893467 C501.23493997 532.94768421 497.14017506 532.94638986 493.04541016 532.94506836 C492.23033579 532.94480605 491.41526142 532.94454374 490.57548782 532.94427348 C477.43825322 532.93994135 464.30102307 532.93206754 451.16379109 532.9228472 C437.64870785 532.91344193 424.13362691 532.90792995 410.61854053 532.90591151 C402.30249314 532.90455044 393.98645834 532.90027779 385.67041484 532.89208353 C379.94072387 532.88673094 374.21103925 532.88521468 368.48134598 532.88649862 C365.19288115 532.88712895 361.90445526 532.88570113 358.61599159 532.88079453 C335.76309348 532.8484144 312.8246697 533.01640182 290.0625 535.25 Z " fill="#FEFFFF" transform="translate(3874,906)"/>
<path d="M0 0 C0.85744812 0.04323395 1.71489624 0.0864679 2.59832764 0.13101196 C67.78509489 3.51639297 132.47724987 18.0281594 191.9375 45.25 C192.98147949 45.72791992 194.02545898 46.20583984 195.10107422 46.69824219 C234.76917083 65.01960086 271.48218469 88.11712122 304.9375 116.25 C305.49566406 116.71792969 306.05382813 117.18585938 306.62890625 117.66796875 C313.03520839 123.05036947 319.32021317 128.44279976 325.1484375 134.45703125 C327.00667036 136.31932138 328.94223825 138.03592379 330.9375 139.75 C337.0943265 145.06342561 342.66883484 150.83149112 347.96484375 156.99609375 C349.90186333 159.20928246 351.88776805 161.37143897 353.88867188 163.52685547 C359.49592561 169.57445938 364.80528004 175.79020263 369.9375 182.25 C370.41993164 182.84393555 370.90236328 183.43787109 371.39941406 184.04980469 C386.13060588 202.19243039 399.46284424 221.88273966 410.9375 242.25 C411.3715918 243.01425293 411.80568359 243.77850586 412.25292969 244.56591797 C449.27565337 310.0588881 469.99140134 381.5346715 476.9375 456.25 C477.0420752 457.34111084 477.14665039 458.43222168 477.25439453 459.55639648 C478.3773331 473.35407721 478.18345173 487.22894545 478.1875 501.0625 C478.18794186 501.75379879 478.18838371 502.44509758 478.18883896 503.15734482 C478.19604258 524.66607899 477.79066338 545.90094286 474.9375 567.25 C474.75873674 568.62515596 474.58002729 570.00031892 474.40136719 571.37548828 C463.28595085 655.7158436 432.7304694 736.49323252 347.46777344 845.60205078 C345.77556758 847.42438479 344.09475992 849.25689278 342.4140625 851.08984375 C331.5902291 862.85010492 331.5902291 862.85010492 325.6484375 867.7890625 C323.86291819 869.31368401 322.2539164 870.93490364 320.625 872.625 C316.97489156 876.33278509 312.99292805 879.55083948 308.94140625 882.80859375 C306.37257215 884.8963978 303.85187473 887.02843261 301.34570312 889.19067383 C281.03361379 906.65297952 258.27375698 922.10264924 234.9375 935.25 C234.17324707 935.6840918 233.40899414 936.11818359 232.62158203 936.56542969 C208.60598177 950.14128265 183.86542625 961.81015459 157.9375 971.25 C157.314198 971.47709656 156.690896 971.70419312 156.04870605 971.93817139 C121.60688368 984.43599686 86.17270475 992.95369543 49.9375 998.25 C48.8036084 998.41580566 47.6697168 998.58161133 46.50146484 998.75244141 C39.32904737 999.76865213 32.15041618 1000.58242633 24.9375 1001.25 C23.83277344 1001.35296387 22.72804687 1001.45592773 21.58984375 1001.56201172 C-64.73096603 1009.19344644 -152.835732 997.2711684 -271.0625 947.25 C-272.04734375 946.75886719 -273.0321875 946.26773438 -274.046875 945.76171875 C-309.90192417 927.78676685 -344.11815111 904.66885887 -373.65625 877.4453125 C-374.96878844 876.24783425 -376.28907969 875.05790211 -377.64428711 873.90893555 C-384.0250721 868.47538376 -389.90566374 862.55810448 -395.81713867 856.62573242 C-397.62112085 854.81639067 -399.43038665 853.01245681 -401.24023438 851.20898438 C-407.06050723 845.39231695 -412.76164095 839.55109116 -418.0625 833.25 C-418.908125 832.28578125 -419.75375 831.3215625 -420.625 830.328125 C-428.94142485 820.67893975 -436.53309251 810.51978534 -444.0625 800.25 C-444.59520508 799.52796387 -445.12791016 798.80592773 -445.67675781 798.06201172 C-458.62259544 780.44984483 -469.85296162 761.56544538 -480.0625 742.25 C-480.55041016 741.33009277 -481.03832031 740.41018555 -481.54101562 739.46240234 C-508.66568168 687.89006873 -525.43922125 631.52614632 -533.3125 573.875 C-533.46364258 572.77341553 -533.61478516 571.67183105 -533.77050781 570.53686523 C-534.25248481 566.77923983 -534.67638254 563.01844252 -535.0625 559.25 C-535.1933046 557.97677383 -535.1933046 557.97677383 -535.32675171 556.67782593 C-537.03681008 539.42209014 -537.42754812 522.22541016 -537.38055801 504.89595413 C-537.3749085 502.77820001 -537.37209375 500.66045393 -537.36947632 498.54269409 C-537.33194211 477.64229092 -536.85060246 456.99348228 -534.0625 436.25 C-533.88873566 434.90467716 -533.71540707 433.55929797 -533.54248047 432.21386719 C-525.87915036 373.3746521 -508.51400998 317.38951901 -482.0625 264.25 C-481.4447168 263.00041504 -481.4447168 263.00041504 -480.81445312 261.72558594 C-463.77771787 227.49620521 -441.20515629 195.06121982 -415.3984375 166.83203125 C-414.15928946 165.46233752 -412.92502073 164.08741209 -411.73242188 162.67700195 C-406.08281418 156.0351597 -399.91046828 149.91188496 -393.74853516 143.75073242 C-391.82553818 141.82555298 -389.91069426 139.89250969 -387.99609375 137.95898438 C-380.98690804 130.9181518 -373.85991725 124.41629156 -366.0625 118.25 C-364.89801647 117.25565603 -363.74056853 116.25294822 -362.59375 115.23828125 C-332.9750012 89.05108975 -298.28758476 68.84263478 -263.0625 51.25 C-262.21026855 50.81993652 -261.35803711 50.38987305 -260.47998047 49.94677734 C-197.85973128 18.48758778 -126.68172745 3.49668002 -57.0625 0 C-56.2459494 -0.04129028 -55.4293988 -0.08258057 -54.58810425 -0.12512207 C-36.36457828 -1.01676205 -18.22002342 -0.92083929 0 0 Z M-77.0625 203.25 C-78.08037598 203.42160645 -79.09825195 203.59321289 -80.14697266 203.77001953 C-110.93247206 209.10350364 -140.50222717 218.41728617 -168.0625 233.25 C-168.77422363 233.62592285 -169.48594727 234.0018457 -170.21923828 234.38916016 C-190.39803194 245.07102211 -208.75461345 258.15279888 -225.40234375 273.77734375 C-227.55601994 275.77921897 -229.74230983 277.68187709 -232 279.5625 C-242.64374011 288.83712831 -251.63468177 299.97902409 -260.0625 311.25 C-260.48096191 311.80623047 -260.89942383 312.36246094 -261.33056641 312.93554688 C-278.79665593 336.29635643 -291.93458219 361.9535153 -302.0625 389.25 C-302.36526855 390.0656543 -302.66803711 390.88130859 -302.97998047 391.72167969 C-312.41108066 417.56411686 -317.58107697 444.90701704 -320.0625 472.25 C-320.17464844 473.36890625 -320.28679687 474.4878125 -320.40234375 475.640625 C-327.09769501 554.51736584 -304.62503231 635.33307631 -255.0625 697.25 C-254.25167969 698.28640625 -253.44085938 699.3228125 -252.60546875 700.390625 C-239.47410633 716.59799315 -223.98869123 732.05740462 -207.0625 744.25 C-205.90116111 745.13607574 -204.74238273 746.02551558 -203.5859375 746.91796875 C-188.86539982 758.16876488 -172.81163649 767.38091813 -156.0625 775.25 C-155.4020166 775.56888184 -154.7415332 775.88776367 -154.06103516 776.21630859 C-117.5288236 793.8052447 -76.49058264 802.37571633 -36.0625 803.25 C-34.91910156 803.28996094 -33.77570313 803.32992187 -32.59765625 803.37109375 C33.99614787 804.66788031 99.54169314 783.27919911 151.9375 742.25 C152.5365918 741.78223145 153.13568359 741.31446289 153.75292969 740.83251953 C170.83631454 727.29615081 187.19965814 710.93312164 199.9375 693.25 C200.82357574 692.08866111 201.71301558 690.92988273 202.60546875 689.7734375 C210.24297553 679.78104406 216.71623428 669.16917356 222.9375 658.25 C223.37449219 657.4873584 223.81148437 656.7247168 224.26171875 655.93896484 C257.08452295 598.03196375 267.33428861 527.83211183 259.9375 462.25 C259.76009277 460.6726709 259.76009277 460.6726709 259.57910156 459.06347656 C252.25106283 397.13875229 227.32971151 336.64033187 184.41015625 290.91015625 C182.40828103 288.75648006 180.50562291 286.57019017 178.625 284.3125 C169.35158683 273.67015441 158.21071531 264.67258968 146.9375 256.25 C146.36531738 255.82090332 145.79313477 255.39180664 145.20361328 254.94970703 C103.94287599 224.21074873 55.64585259 207.57058786 4.9375 201.25 C4.11548096 201.14397461 3.29346191 201.03794922 2.4465332 200.92871094 C-7.52527365 199.82698473 -17.60568202 200.00604067 -27.625 200 C-28.6293811 199.99932526 -29.63376221 199.99865051 -30.6685791 199.99795532 C-46.33460805 200.01465718 -61.59077684 200.5806655 -77.0625 203.25 Z " fill="#FEFFFF" transform="translate(6013.0625,887.75)"/>
<path d="M0 0 C0.92441895 0.01788574 1.84883789 0.03577148 2.80126953 0.05419922 C44.11068192 0.98029797 85.08811855 6.18446799 125 17 C126.1358252 17.30663574 127.27165039 17.61327148 128.44189453 17.92919922 C183.6484328 33.05825339 238.18978833 59.63347722 280.5234375 98.734375 C282.54343822 100.58232519 284.59271481 102.37174467 286.66796875 104.15625 C298.75508571 114.70921119 310.1813094 126.30843326 320 139 C320.9695694 140.16252871 321.94391925 141.32107976 322.921875 142.4765625 C331.84326221 153.07892831 339.55535167 164.32253733 347 176 C347.42764648 176.66854004 347.85529297 177.33708008 348.29589844 178.02587891 C355.62713467 189.58809262 361.82237343 201.79472137 368 214 C368.38043457 214.74475586 368.76086914 215.48951172 369.15283203 216.25683594 C391.7024015 260.71987982 402.8351339 311.644103 407.75 360.9375 C407.86569336 362.09499756 407.98138672 363.25249512 408.10058594 364.44506836 C409.93230106 384.51181369 410.14802482 404.65570983 410.12025452 424.79125977 C410.12069183 427.19198302 410.12156968 429.59270623 410.12284368 431.99342918 C410.12482662 437.83834284 410.12223609 443.68324129 410.11760301 449.52815314 C410.11231306 456.54314416 410.11295159 463.55813173 410.11374746 470.57312427 C410.11505426 483.51394134 410.11174717 496.45475327 410.10573006 509.39556885 C410.09979526 522.19240342 410.09596054 534.98923584 410.09487724 547.78607178 C410.0948085 548.58434412 410.09473976 549.38261646 410.09466894 550.20507887 C410.09433057 554.25976978 410.0940292 558.31446068 410.09374207 562.36915159 C410.09164653 591.02328351 410.08492286 619.67741263 410.07543945 648.33154297 C410.06624216 676.15348292 410.05916486 703.97542211 410.05493164 731.79736328 C410.05473435 733.08573373 410.05473435 733.08573373 410.05453308 734.40013187 C410.05321446 743.02638274 410.05193866 751.65263362 410.05069422 760.27888451 C410.0481586 777.84860208 410.04533735 795.41831961 410.04234314 812.98803711 C410.04220585 813.79570926 410.04206856 814.60338141 410.04192711 815.43552847 C410.03770744 840.1712934 410.03227814 864.90705786 410.02565002 889.64282227 C410.02536869 890.69539801 410.02536869 890.69539801 410.02508167 891.76923792 C410.01746967 920.17949216 410.00857351 948.58974603 410 977 C338.39 977 266.78 977 193 977 C192.97812622 952.02461548 192.97812622 952.02461548 192.95581055 926.54467773 C192.94563311 915.42199167 192.93540542 904.29930582 192.92448425 893.17662048 C192.92379172 892.46982305 192.92309919 891.76302561 192.92238568 891.03481008 C192.89899398 867.21542699 192.87152613 843.39605041 192.84101868 819.57667542 C192.84002311 818.79855085 192.83902754 818.02042628 192.83800181 817.21872218 C192.81633723 800.30310229 192.7940141 783.38748333 192.77101372 766.4718652 C192.75973638 758.17500991 192.74860439 749.87815442 192.73754883 741.58129883 C192.73644626 740.75571466 192.7353437 739.9301305 192.73420772 739.07952863 C192.69861551 712.37771222 192.67259831 685.67589703 192.65161031 658.97406548 C192.62996976 631.50696884 192.59854201 604.03990005 192.55500887 576.57282898 C192.54884771 572.68262224 192.54279704 568.79241534 192.53681374 564.90220833 C192.53563285 564.13664992 192.53445197 563.37109152 192.53323531 562.58233438 C192.51460103 550.31837832 192.50611478 538.05443578 192.50153876 525.7904673 C192.49670413 513.42505498 192.48090434 501.05969357 192.45433434 488.69430857 C192.44026328 482.00908908 192.43111234 475.32396419 192.43499184 468.63872337 C192.47005368 392.23588567 183.17734785 317.93256153 127.3125 260.9375 C116.18352033 249.81911936 103.65743301 240.78616111 90 233 C89.39172363 232.64873047 88.78344727 232.29746094 88.15673828 231.93554688 C48.69689491 209.34152396 3.18145608 201.77711421 -41.75 201.75 C-43.25666229 201.74898788 -43.25666229 201.74898788 -44.79376221 201.74795532 C-59.74359837 201.7639073 -74.27607666 202.17541062 -89 205 C-89.94842773 205.17692383 -90.89685547 205.35384766 -91.87402344 205.53613281 C-152.10270776 217.03379461 -209.99560308 248.02073598 -248 297 C-249.01789143 298.2776129 -250.03614582 299.55493668 -251.0546875 300.83203125 C-292.77373795 353.65588474 -311.12769818 420.40166162 -311.15821838 486.96284485 C-311.16279063 489.08183849 -311.16779161 491.20083125 -311.17318195 493.31982297 C-311.18669704 499.11665367 -311.1941621 504.91347854 -311.20060861 510.71032083 C-311.20864184 516.97123478 -311.22232948 523.23213672 -311.23532104 529.49304199 C-311.25704245 540.33189381 -311.27523689 551.17074546 -311.29092598 562.00960732 C-311.30738855 573.3725461 -311.32588028 584.73547864 -311.34705925 596.09840965 C-311.34837686 596.80593924 -311.34969446 597.51346883 -311.351052 598.24243871 C-311.35775444 601.83588525 -311.36449292 605.42933173 -311.37124526 609.02277818 C-311.41895946 634.4496683 -311.46215845 659.87656428 -311.50268555 685.3034668 C-311.54205801 709.99943467 -311.58348598 734.6953977 -311.62768555 759.39135742 C-311.62904808 760.15311015 -311.63041061 760.91486288 -311.63181442 761.69969903 C-311.64550025 769.3498014 -311.65922775 776.9999037 -311.67298577 784.65000594 C-311.70100941 800.23299405 -311.72875502 815.81598265 -311.7563324 831.39897156 C-311.7576006 832.11539163 -311.7588688 832.8318117 -311.76017542 833.56994147 C-311.79901849 855.52109775 -311.83668352 877.47225583 -311.8731842 899.42341614 C-311.87522893 900.65280746 -311.87727365 901.88219878 -311.87938034 903.14884438 C-311.92025195 927.76589517 -311.95997771 952.38294782 -312 977 C-383.61 977 -455.22 977 -529 977 C-529 663.5 -529 350 -529 27 C-457.39 27 -385.78 27 -312 27 C-311.67 54.72 -311.34 82.44 -311 111 C-306.10590325 106.15814318 -306.10590325 106.15814318 -301.5625 101 C-299.0324538 98.03799469 -296.42538377 95.60772812 -293.46484375 93.09375 C-291.62355969 91.52967986 -289.80887668 89.9486719 -288.00390625 88.34375 C-272.30118631 74.47553611 -255.25081753 63.23595994 -237 53 C-235.73446289 52.28481201 -235.73446289 52.28481201 -234.44335938 51.55517578 C-164.3444907 12.28606445 -79.4953604 -1.58898159 0 0 Z " fill="#FEFFFF" transform="translate(7117,887)"/>
<path d="M0 0 C71.28 0 142.56 0 216 0 C216 78.54 216 157.08 216 238 C314.01 238 412.02 238 513 238 C513 300.7 513 363.4 513 428 C414.99 428 316.98 428 216 428 C216.14880127 504.31739277 216.14880127 504.31739277 216.30664062 580.63476562 C216.32860527 590.93204737 216.35050998 601.22932924 216.37231445 611.52661133 C216.37504964 612.81714001 216.37778483 614.1076687 216.3806029 615.43730432 C216.42462568 636.24954241 216.46526747 657.0617858 216.50465261 677.87403313 C216.54517263 699.24605748 216.5893442 720.61807205 216.63687855 741.99008197 C216.66607602 755.16898979 216.69245319 768.34789698 216.71517897 781.52681758 C216.73105358 790.57416134 216.75048729 799.62149317 216.77266841 808.66882364 C216.78534639 813.88218771 216.79650444 819.09554282 216.80341911 824.308918 C216.80980128 829.09450532 216.82071515 833.88006142 216.8350333 838.66563138 C216.83941229 840.38466253 216.84221584 842.1036987 216.84316199 843.82273517 C216.85764115 866.42339276 216.85764115 866.42339276 219.1875 888.875 C219.31350586 889.68614258 219.43951172 890.49728516 219.56933594 891.33300781 C223.87023278 917.03012831 233.67680086 940.36069549 251 960 C251.53882812 960.62261719 252.07765625 961.24523438 252.6328125 961.88671875 C273.83555807 984.74093445 308.94634414 994.76021051 339 997 C344.66440484 997.16742942 350.32783441 997.18514095 355.99438477 997.20532227 C357.73762458 997.21505005 359.48086209 997.22519618 361.22409725 997.23572445 C365.87282064 997.26265445 370.52155338 997.28389372 375.17031097 997.30391693 C379.53995198 997.32361089 383.90955765 997.34848679 388.2791748 997.3729248 C401.0402565 997.4412976 413.80138142 997.5013983 426.5625 997.5625 C469.3490625 997.7790625 469.3490625 997.7790625 513 998 C513 1060.7 513 1123.4 513 1188 C482.0625 1188.061875 451.125 1188.12375 419.25 1188.1875 C404.70599121 1188.22846802 404.70599121 1188.22846802 389.86816406 1188.27026367 C377.84326172 1188.28381348 377.84326172 1188.28381348 372.17816162 1188.28633118 C368.29968908 1188.28907761 364.42134519 1188.30011964 360.54290771 1188.31672668 C273.65323921 1188.67195541 179.77723346 1176.00624937 108 1123 C107.43522949 1122.58540527 106.87045898 1122.17081055 106.28857422 1121.74365234 C77.01990934 1100.11997987 52.88217471 1073.78777706 35 1042 C34.63986816 1041.37399902 34.27973633 1040.74799805 33.90869141 1040.10302734 C8.77027275 996.19665752 -0.20118208 944.8602684 -0.12025452 894.82803345 C-0.12069126 892.80717276 -0.12156805 890.78631212 -0.12284368 888.76545179 C-0.12506845 883.24450894 -0.12109512 877.72358566 -0.11606562 872.2026453 C-0.1117322 866.2369188 -0.11320959 860.27119333 -0.1139679 854.3054657 C-0.1144913 843.98009621 -0.11139877 833.65473262 -0.10573006 823.32936478 C-0.0998032 812.50593663 -0.09596213 801.68251102 -0.09487724 790.85908127 C-0.0948085 790.18489274 -0.09473976 789.51070421 -0.09466894 788.81608573 C-0.09433059 785.39190928 -0.09402921 781.96773283 -0.09374207 778.54355638 C-0.09164436 754.32070253 -0.08491458 730.09785199 -0.07543945 705.875 C-0.06624793 682.34993507 -0.05916779 658.82487105 -0.05493164 635.29980469 C-0.05480011 634.57404082 -0.05466859 633.84827696 -0.05453308 633.10052026 C-0.0532145 625.81177918 -0.0519387 618.52303809 -0.05069422 611.234297 C-0.04815833 596.38767378 -0.04533708 581.54105062 -0.04234314 566.69442749 C-0.0421372 565.67060092 -0.0421372 565.67060092 -0.04192711 564.62609099 C-0.03273398 519.08405899 -0.01624698 473.54203015 0 428 C-57.75 428 -115.5 428 -175 428 C-175 365.3 -175 302.6 -175 238 C-117.25 238 -59.5 238 0 238 C0 159.46 0 80.92 0 0 Z " fill="#FEFFFF" transform="translate(4902,676)"/>
<path d="M0 0 C2.30798315 0.00147332 4.61596664 0.00249162 6.9239502 0.00305176 C15.4089407 0.00825943 23.89392401 0.0222206 32.37890625 0.03515625 C60.87234375 0.06609375 60.87234375 0.06609375 89.94140625 0.09765625 C89.94140625 68.07765625 89.94140625 136.05765625 89.94140625 206.09765625 C38.56640625 206.47265625 38.56640625 206.47265625 22.51416016 206.57568359 C17.6473745 206.615718 17.6473745 206.615718 12.78060913 206.65811157 C10.66010936 206.67547142 8.53957949 206.68941265 6.41903687 206.7003479 C-15.21503971 206.81676716 -36.80640565 207.85047302 -58.18359375 211.34765625 C-58.84560791 211.45403412 -59.50762207 211.56041199 -60.18969727 211.67001343 C-124.15988149 222.00892604 -186.800409 251.94936636 -227.05859375 304.09765625 C-227.57437988 304.75878418 -228.09016602 305.41991211 -228.62158203 306.10107422 C-275.90496482 367.06564371 -287.54105159 440.58256762 -287.4913336 515.63599527 C-287.49070208 521.59125454 -287.50740058 527.54647068 -287.52185059 533.50170898 C-287.54596634 544.45182161 -287.55713145 555.40189878 -287.56183864 566.35203565 C-287.56632307 576.45528397 -287.57764389 586.55849991 -287.59540749 596.66173363 C-287.59658761 597.33489106 -287.59776774 598.00804849 -287.59898363 598.70160463 C-287.60501023 602.12114686 -287.61114575 605.54068889 -287.61732314 608.96023085 C-287.66072124 633.0915607 -287.69052689 657.22288968 -287.7121582 681.35424805 C-287.73318569 704.77678689 -287.76053235 728.19930478 -287.79614258 751.62182617 C-287.79837863 753.09834339 -287.8006145 754.57486061 -287.80285019 756.05137783 C-287.82019521 767.48553815 -287.83793836 778.91969784 -287.85577738 790.3538574 C-287.94292029 846.26844394 -287.99856175 902.18302132 -288.05859375 958.09765625 C-359.66859375 958.09765625 -431.27859375 958.09765625 -505.05859375 958.09765625 C-505.05859375 644.59765625 -505.05859375 331.09765625 -505.05859375 8.09765625 C-433.44859375 8.09765625 -361.83859375 8.09765625 -288.05859375 8.09765625 C-287.72859375 45.05765625 -287.39859375 82.01765625 -287.05859375 120.09765625 C-284.41859375 116.46765625 -281.77859375 112.83765625 -279.05859375 109.09765625 C-275.23598826 104.59559171 -271.15671282 100.34781943 -267.05859375 96.09765625 C-266.47126465 95.4830957 -265.88393555 94.86853516 -265.27880859 94.23535156 C-256.76320012 85.35916207 -247.96335965 77.38745124 -238.05859375 70.09765625 C-237.50381348 69.68209473 -236.9490332 69.2665332 -236.37744141 68.83837891 C-180.52366247 27.05799309 -110.83077709 7.0383312 -42.05859375 1.09765625 C-41.08954605 1.0091037 -40.12049835 0.92055115 -39.12208557 0.82931519 C-26.09700287 -0.20729807 -13.05763598 -0.02798908 0 0 Z " fill="#FEFFFF" transform="translate(3668.05859375,905.90234375)"/>
</svg>
