<?xml version="1.0" encoding="UTF-8"?>
<svg version="1.1" xmlns="http://www.w3.org/2000/svg" width="2881" height="1130">
<path d="M0 0 C429.2833212 0 429.2833212 0 461.9375 5.6875 C462.67282959 5.81316345 463.40815918 5.9388269 464.16577148 6.06829834 C502.09240885 12.59630762 538.98268987 24.02790127 574 40 C575.46518066 40.66249756 575.46518066 40.66249756 576.95996094 41.33837891 C621.82546107 61.75822019 662.34762038 89.95866928 698.36816406 123.48583984 C700.18421747 125.17093308 702.00996436 126.84519445 703.8359375 128.51953125 C705.16171616 129.74190792 706.48724008 130.96456095 707.8125 132.1875 C708.42279053 132.74550293 709.03308105 133.30350586 709.66186523 133.87841797 C714.15913144 138.0484657 717.90672624 142.32197285 722 147 C722.33 98.49 722.66 49.98 723 0 C837.51 0 952.02 0 1070 0 C1070.02578125 36.0525 1070.0515625 72.105 1070.078125 109.25 C1070.10252545 131.36745066 1070.12756242 153.48489385 1070.15737817 175.60233682 C1070.17341713 187.50548411 1070.18924445 199.40863166 1070.20457371 211.31177989 C1070.20653332 212.83303036 1070.20849876 214.35428083 1070.21047013 215.87553129 C1070.24182481 240.1085128 1070.26033161 264.34148307 1070.27209247 288.57448137 C1070.28425259 313.48930754 1070.30948901 338.4040873 1070.35107614 363.31888255 C1070.35694985 366.84145372 1070.36267476 370.36402512 1070.36830902 373.88659668 C1070.36942248 374.57985945 1070.37053594 375.27312223 1070.37168314 375.98739296 C1070.38919308 387.12736128 1070.39300138 398.26729376 1070.39162921 409.40727399 C1070.3905427 420.61862662 1070.40434615 431.82988853 1070.43216428 443.04121315 C1070.4467938 449.11094639 1070.45502708 455.18050776 1070.44580269 461.25025558 C1070.43748935 466.81482962 1070.44774332 472.37905901 1070.47233662 477.94358206 C1070.47799998 479.94922944 1070.47703646 481.95490971 1070.46851245 483.96054697 C1070.38334485 505.89095899 1074.77633529 525.62136346 1089 543 C1089.99966797 544.26263672 1089.99966797 544.26263672 1091.01953125 545.55078125 C1103.74405885 560.73050527 1122.40968199 570.34886506 1142 573 C1165.42870583 575.05221371 1187.62642599 569.54108579 1206.07421875 554.4921875 C1215.08004613 546.70866011 1221.69153943 537.8948917 1227.25 527.375 C1227.72614746 526.50838745 1227.72614746 526.50838745 1228.21191406 525.62426758 C1235.24074474 511.6164954 1235.58411613 496.19930153 1235.51898193 480.89781189 C1235.52486905 478.81248471 1235.53250225 476.72716186 1235.541713 474.64184672 C1235.5618442 468.95658826 1235.55745323 463.27158118 1235.54880548 457.58630359 C1235.54383875 451.43859588 1235.56197265 445.29094954 1235.57722473 439.14326477 C1235.60048696 428.50690166 1235.60942699 417.87061669 1235.60811615 407.23423576 C1235.60680309 396.08670736 1235.61378507 384.93923419 1235.63169098 373.79171944 C1235.63335806 372.74955317 1235.63335806 372.74955317 1235.63505882 371.68633304 C1235.64074641 368.1574826 1235.64658071 364.62863241 1235.65247145 361.0997823 C1235.69386279 336.14652366 1235.71688888 311.19327883 1235.72900391 286.23999023 C1235.7408111 262.00787796 1235.76100589 237.77579623 1235.79248047 213.54370117 C1235.79344842 212.79592105 1235.79441637 212.04814093 1235.79541365 211.2777008 C1235.805144 203.76774737 1235.81504406 196.25779417 1235.82506842 188.74784112 C1235.84548281 173.45108171 1235.86476498 158.15432093 1235.88336182 142.8575592 C1235.88421815 142.15433769 1235.88507447 141.45111618 1235.88595675 140.72658493 C1235.94294902 93.8177397 1235.97347058 46.90887132 1236 0 C1300.58222381 -0.05146357 1365.16445005 -0.09915576 1429.74668884 -0.12702942 C1430.70385008 -0.12744359 1431.66101131 -0.12785776 1432.64717743 -0.12828448 C1453.45321241 -0.13726502 1474.2592476 -0.14557531 1495.06528312 -0.15319599 C1505.26984049 -0.15693771 1515.4743978 -0.16082742 1525.67895508 -0.16479492 C1526.69438426 -0.1651872 1527.70981345 -0.16557948 1528.75601322 -0.16598364 C1561.61757239 -0.17874787 1594.47911601 -0.20126694 1627.34066577 -0.22889166 C1661.13466141 -0.25724837 1694.92864844 -0.27566996 1728.72265577 -0.28174497 C1733.50532947 -0.28260932 1738.28800314 -0.28358623 1743.0706768 -0.28463173 C1744.01189532 -0.284834 1744.95311383 -0.28503627 1745.92285412 -0.28524467 C1761.02095373 -0.28877785 1776.1190266 -0.30265954 1791.21711535 -0.3204961 C1806.42783397 -0.33824179 1821.63852632 -0.34488307 1836.84925491 -0.34050413 C1845.86544345 -0.33823743 1854.88153516 -0.34416955 1863.89770605 -0.36239263 C1869.94720564 -0.37377437 1875.996643 -0.37389998 1882.04614716 -0.36549544 C1885.47601611 -0.36103425 1888.90555964 -0.3626063 1892.33543075 -0.37464955 C1982.80369045 -0.67346839 2086.26751146 28.46517857 2155.03515625 90.015625 C2156.9987656 91.25864338 2156.9987656 91.25864338 2159.33203125 90.4765625 C2162.65701678 88.63638017 2165.62020647 86.43442609 2168.625 84.125 C2183.86356405 72.7140693 2200.36762297 63.21290723 2217 54 C2217.78310547 53.56445801 2218.56621094 53.12891602 2219.37304688 52.68017578 C2279.23381761 19.60926145 2351.11029651 0.07549701 2419.6484375 -0.203125 C2420.81168045 -0.21013931 2421.9749234 -0.21715363 2423.17341614 -0.22438049 C2426.9073173 -0.24178437 2430.64105976 -0.24823301 2434.375 -0.25 C2435.65210846 -0.25067474 2436.92921692 -0.25134949 2438.24502563 -0.25204468 C2457.35448151 -0.23599954 2476.06589585 0.22353981 2495 3 C2496.21397461 3.17160645 2497.42794922 3.34321289 2498.67871094 3.52001953 C2579.15445499 15.14567892 2654.63596362 47.69827431 2717 100 C2717.960271 100.8036499 2717.960271 100.8036499 2718.93994141 101.62353516 C2724.97341383 106.68895616 2730.96088334 111.75123609 2736.43359375 117.4296875 C2738.19480859 119.19529439 2740.04622906 120.81224597 2741.9375 122.4375 C2748.13744409 127.79961381 2753.76606124 133.6075148 2759.1015625 139.82421875 C2761.26745005 142.30652198 2763.50876957 144.71055145 2765.75 147.125 C2770.98786608 152.87638236 2775.78340762 158.90886893 2780.51855469 165.07714844 C2782.05628759 167.07305884 2783.60921349 169.05646441 2785.1640625 171.0390625 C2841.57820286 243.34057592 2872.35429458 332.1375793 2880 423 C2880.07202637 423.83370117 2880.14405273 424.66740234 2880.21826172 425.52636719 C2888.23915063 523.43652841 2861.96165671 623.64489448 2773.32763672 750.98876953 C2764.87816528 760.85841644 2755.91858349 770.17117532 2746.75 779.375 C2745.91025635 780.2194165 2745.0705127 781.06383301 2744.20532227 781.93383789 C2737.77633598 788.34630865 2731.15880083 794.40718685 2724 800 C2724.9115686 800.02187378 2724.9115686 800.02187378 2725.84155273 800.04418945 C2752.37400812 800.75142171 2776.56471864 804.97824724 2800 818 C2801.09054688 818.58910156 2802.18109375 819.17820312 2803.3046875 819.78515625 C2814.04602576 825.78445332 2823.01878566 833.65921181 2832 842 C2832.60457031 842.55042969 2833.20914063 843.10085938 2833.83203125 843.66796875 C2866.09776166 874.27129619 2879.85951414 923.09939169 2881.24609375 966.15234375 C2882.01022225 1008.03892128 2868.78164423 1047.80883108 2840.04296875 1078.74609375 C2838.6244739 1080.31104887 2837.26401964 1081.92980725 2835.953125 1083.5859375 C2814.64787146 1109.91923087 2775.34477294 1125.78108662 2742.61379407 1129.7827619 C2736.77767334 1130.26781456 2730.91216557 1130.13910818 2725.05990887 1130.13142776 C2723.52656531 1130.13307883 2721.99322217 1130.13516576 2720.45987973 1130.13764787 C2716.23965638 1130.14320586 2712.01945336 1130.14254369 2707.79922752 1130.14087028 C2703.21024922 1130.14013867 2698.62127663 1130.14516334 2694.03230077 1130.1494453 C2684.92751599 1130.15702362 2675.82273708 1130.15921827 2666.71794947 1130.15977435 C2655.81325218 1130.16068816 2644.9085603 1130.16735624 2634.00386534 1130.17412117 C2607.64644597 1130.19018216 2581.28902718 1130.19608465 2554.93160379 1130.20086992 C2542.46211525 1130.20320586 2529.99262716 1130.20680852 2517.52313897 1130.2105653 C2475.50585067 1130.2232 2433.48856244 1130.23401322 2391.47127227 1130.23740576 C2389.46335607 1130.237568 2387.45543988 1130.23773356 2385.44752369 1130.23790014 C2381.42069734 1130.23823394 2377.39387098 1130.23856442 2373.36704463 1130.2388947 C2368.65273104 1130.2392816 2363.93841746 1130.2396712 2359.22410388 1130.24006577 C2357.87483515 1130.24017818 2356.52556641 1130.2402896 2355.17629768 1130.24040002 C2311.85502609 1130.24394841 2268.53377109 1130.25902253 2225.21250582 1130.28233776 C2178.73663049 1130.30734065 2132.26076237 1130.32172328 2085.78487951 1130.32293582 C2080.75605953 1130.32310727 2075.72723955 1130.3233227 2070.69841957 1130.32357025 C2069.46018663 1130.32362602 2068.22195369 1130.32368179 2066.94619854 1130.32373925 C2047.0259186 1130.32488953 2027.10565585 1130.33590966 2007.18538171 1130.35045731 C1987.15895434 1130.36482947 1967.13254898 1130.36805523 1947.10611787 1130.36001733 C1935.21238671 1130.35556441 1923.31872665 1130.3594082 1911.42500485 1130.37525584 C1903.47301132 1130.38502026 1895.5210675 1130.38381361 1887.56907441 1130.37381961 C1883.04294309 1130.36843815 1878.51694809 1130.36768324 1873.99082818 1130.38032833 C1833.36308499 1130.48679099 1833.36308499 1130.48679099 1813.9375 1124.3125 C1813.11934814 1124.05831299 1812.30119629 1123.80412598 1811.45825195 1123.54223633 C1771.25991275 1110.61484666 1738.08911158 1082.08057408 1718.38671875 1044.82421875 C1706.96223141 1022.29348776 1701.7737477 998.25844449 1701.75 973.125 C1701.74899292 972.38701172 1701.74798584 971.64902344 1701.74694824 970.88867188 C1701.75731732 959.65590976 1702.4021249 948.95249464 1705 938 C1705.36388642 936.38294856 1705.72714346 934.7657554 1706.08984375 933.1484375 C1707.01509224 929.08716979 1707.9921773 925.04152251 1709 921 C1708.51273438 921.52207031 1708.02546875 922.04414062 1707.5234375 922.58203125 C1701.41776923 928.92082504 1694.83331032 934.30892274 1687.83398438 939.60595703 C1686.07983042 940.93931953 1684.34410942 942.29387141 1682.609375 943.65234375 C1627.67269847 985.99773998 1555.17164908 1002.13138456 1487 994 C1434.70183326 987.19547177 1384.53394519 964.95184372 1345 930 C1344.18789062 929.29875 1343.37578125 928.5975 1342.5390625 927.875 C1326.16630422 913.51483992 1312.45172241 897.8067429 1300 880 C1298.81132324 880.39940796 1298.81132324 880.39940796 1297.59863281 880.80688477 C1208.44334358 910.59582847 1115.17269672 915.10409183 1025 886 C1023.99743164 885.67773438 1022.99486328 885.35546875 1021.96191406 885.0234375 C1002.31292692 878.63183309 983.34386447 870.5829755 965.01611328 861.04492188 C962.83940019 859.91676348 960.65242941 858.81004058 958.46484375 857.703125 C935.82150497 846.14126365 914.9125054 831.76297937 895 816 C894.06800781 815.26265625 893.13601563 814.5253125 892.17578125 813.765625 C886.147781 808.91570754 880.42310561 803.80087351 874.7578125 798.5390625 C872.60295403 796.55512764 870.42456898 794.63843486 868.1875 792.75 C858.79929449 784.6043511 849.99250325 775.50984383 842 766 C841.15824219 765.04738281 840.31648437 764.09476563 839.44921875 763.11328125 C817.66416789 738.38090641 799.6811332 710.68510744 784.375 681.5625 C783.84116699 680.54816895 783.30733398 679.53383789 782.75732422 678.48876953 C782.2676416 677.54501465 781.77795898 676.60125977 781.2734375 675.62890625 C780.83435059 674.78400635 780.39526367 673.93910645 779.94287109 673.06860352 C779 671 779 671 779 669 C778.34 669 777.68 669 777 669 C776.7525 669.66773438 776.505 670.33546875 776.25 671.0234375 C766.46725313 694.31860347 749.73120659 716.40944926 734 736 C733.21625 736.98355469 732.4325 737.96710937 731.625 738.98046875 C729.44472211 741.67856264 727.23187233 744.34445021 725 747 C724.54270508 747.5475293 724.08541016 748.09505859 723.61425781 748.65917969 C717.75460902 755.66217459 711.78436606 762.38267916 705.23828125 768.76171875 C703.17038244 770.82961756 701.26421564 772.95711676 699.375 775.1875 C696.48532378 778.5655722 693.34517993 781.42308373 689.95703125 784.29296875 C688.10019075 785.91260807 686.39602508 787.60123291 684.6875 789.375 C681.03532376 793.08488557 677.05157538 796.30490824 672.99609375 799.5625 C670.4572149 801.62802855 667.97603277 803.74411778 665.50683594 805.8918457 C626.25823432 839.85886045 577.77628699 865.14237044 529 882 C527.96020996 882.36077637 526.92041992 882.72155273 525.84912109 883.09326172 C456.61594694 906.84255078 389.48992067 906 316 906 C316 979.92 316 1053.84 316 1130 C211.72 1130 107.44 1130 0 1130 C0 757.1 0 384.2 0 0 Z " fill="#2A4254" transform="translate(0,0)"/>
<path d="M0 0 C44.55 0 89.1 0 135 0 C135.02187378 17.80549805 135.02187378 17.80549805 135.04418945 35.97070312 C135.09302305 74.02003073 135.15645317 112.06932161 135.22898628 150.11861113 C135.24025345 156.03610513 135.25139207 161.95359936 135.26245117 167.87109375 C135.2657567 169.63807575 135.2657567 169.63807575 135.269129 171.44075435 C135.30443051 190.47492089 135.3293349 209.5090874 135.35034702 228.54327446 C135.37216615 248.09715098 135.4052742 267.6509853 135.44870156 287.20482588 C135.47511331 299.25515872 135.49288568 311.30543905 135.49934604 323.35579938 C135.50463215 331.6369681 135.52095615 339.91807094 135.54566566 348.19920427 C135.5595711 352.96563671 135.56889305 357.73195151 135.56500816 362.49840546 C135.52569074 423.04257262 149.12098544 475.18251281 192 520 C194.55885372 522.47631005 197.24747852 524.74221278 200 527 C200.75313477 527.63760254 200.75313477 527.63760254 201.52148438 528.28808594 C241.7837959 562.35439714 291.92647195 576.65194875 344.20849609 572.76123047 C355.37663529 571.63082185 366.3011889 569.39903304 377 566 C377.74008301 565.76829102 378.48016602 565.53658203 379.24267578 565.29785156 C404.38623857 557.30253817 427.11210582 545.44552121 447 528 C448.28970703 526.87464844 448.28970703 526.87464844 449.60546875 525.7265625 C452.10033692 523.51477317 454.55799409 521.26991825 457 519 C457.66515625 518.38898437 458.3303125 517.77796875 459.015625 517.1484375 C491.13005632 486.47001734 510.97016938 439.92097854 512.23718693 395.79754432 C512.45915857 385.68688174 512.44083763 375.57283055 512.43273985 365.46027446 C512.43210924 360.5430704 512.44879854 355.62591887 512.46325684 350.70874023 C512.48592289 342.2142153 512.49790707 333.71973103 512.50238609 325.22517776 C512.50887762 312.94388131 512.53186735 300.66265801 512.55872939 288.38139121 C512.6018828 268.45007193 512.63191471 248.51875574 512.65356445 228.58740234 C512.67460859 209.23973061 512.70191351 189.89208419 512.73754883 170.54443359 C512.73974765 169.34944129 512.74194648 168.15444898 512.74421193 166.92324479 C512.75528244 160.92760191 512.76647509 154.93195927 512.77772844 148.93631673 C512.8707513 99.29089315 512.93998323 49.6454766 513 0 C557.88 0 602.76 0 649 0 C649.0093457 18.99667236 649.01869141 37.99334473 649.02832031 57.56567383 C649.0351464 70.25006642 649.04203971 82.93445873 649.04986572 95.61885071 C649.05036092 96.42465012 649.05085612 97.23044953 649.05136632 98.06066711 C649.06810695 125.18544384 649.09031907 152.31021322 649.11663818 179.4349823 C649.11749569 180.32018859 649.1183532 181.20539487 649.1192367 182.11742559 C649.13790225 201.35526113 649.15745475 220.59309568 649.17792095 239.83092939 C649.18795215 249.26513439 649.19778734 258.6993396 649.20751953 268.13354492 C649.20897724 269.54177148 649.20897724 269.54177148 649.2104644 270.97844706 C649.24187257 301.4091961 649.26033785 331.83993627 649.27209247 362.27069872 C649.28424003 393.54180048 649.30944268 424.81286519 649.35107614 456.08394225 C649.35695025 460.50058401 649.36267508 464.91722595 649.36830902 469.33386803 C649.36942248 470.20312803 649.37053594 471.07238803 649.37168314 471.96798924 C649.38922412 485.96167142 649.39299959 499.95532511 649.39162921 513.94901681 C649.39054527 528.01680596 649.40395906 542.08452209 649.43216428 556.15228353 C649.44848193 564.51059912 649.45369077 572.86874954 649.44297175 581.22707512 C649.436192 587.46862155 649.45022329 593.70995862 649.47233662 599.95146593 C649.4780357 602.47653788 649.47698105 605.00163593 649.46851245 607.52670012 C649.45798629 610.95918105 649.47205776 614.3907292 649.49219131 617.82314777 C649.48328761 618.80338391 649.4743839 619.78362004 649.46521038 620.7935603 C649.59900528 632.68499194 654.26283148 642.12710032 662 651 C670.56398247 659.28377036 681.82983218 663.30278537 693.53393555 663.31469727 C705.70141465 663.08532705 717.53882689 658.68978072 726.09765625 649.828125 C734.4718046 639.51601026 737.31036111 629.35176825 737.26171303 616.223526 C737.26570909 615.15568495 737.26970515 614.08784389 737.27382231 612.98764402 C737.28480627 609.4032555 737.28159386 605.8190211 737.2784729 602.23461914 C737.28347519 599.64146309 737.28935079 597.04830861 737.29602563 594.45515633 C737.30913831 588.81409007 737.31488285 583.17305376 737.31578636 577.53197289 C737.31716332 569.14392091 737.32995242 560.75591338 737.3450741 552.3678763 C737.37018914 538.25736084 737.38605764 524.14684914 737.39665604 510.03631592 C737.40717997 496.06515698 737.42181381 482.09401231 737.44193649 468.12286377 C737.44380979 466.8198295 737.44380979 466.8198295 737.44572094 465.4904713 C737.45208469 461.07883473 737.45852187 456.66719826 737.46498732 452.25556183 C737.51064977 421.00810985 737.54709752 389.76065324 737.578125 358.51318359 C737.60828882 328.15673138 737.6426273 297.80028858 737.68261719 267.44384766 C737.68446369 266.04026639 737.68446369 266.04026639 737.6863475 264.60832994 C737.69871436 255.21143504 737.71116608 245.81454026 737.72367998 236.41764555 C737.7491703 217.27509442 737.77409418 198.13254256 737.79867554 178.98999023 C737.79980645 178.109847 737.80093736 177.22970376 737.80210253 176.32288952 C737.83673631 149.345552 737.86896922 122.36821236 737.89883423 95.39086914 C737.89968306 94.6249536 737.90053189 93.85903806 737.90140645 93.06991296 C737.93575193 62.04661022 737.96755657 31.02330477 738 0 C782.88 0 827.76 0 874 0 C874.33 19.47 874.66 38.94 875 59 C880.94 55.04 886.88 51.08 893 47 C896.42563715 44.89741686 899.81567507 42.84134645 903.3125 40.875 C904.18092529 40.38475342 905.04935059 39.89450684 905.9440918 39.3894043 C938.77120889 21.10680699 974.10176263 9.63068396 1011 3 C1011.96373535 2.81920898 1012.9274707 2.63841797 1013.92041016 2.45214844 C1045.4508481 -3.23339029 1081.49476273 -2.40285565 1113 3 C1114.02625488 3.17160645 1115.05250977 3.34321289 1116.10986328 3.52001953 C1176.20675391 13.86115756 1232.53971174 40.22171491 1278 81 C1278.5161084 81.45971191 1279.0322168 81.91942383 1279.56396484 82.39306641 C1289.93197088 91.65103568 1300.12918055 101.27818279 1309 112 C1309.49177734 112.59393555 1309.98355469 113.18787109 1310.49023438 113.79980469 C1312.22798956 115.90388108 1313.95902474 118.01329463 1315.6875 120.125 C1316.24687256 120.8065918 1316.80624512 121.48818359 1317.38256836 122.19042969 C1320.48348025 126.00650769 1323.34853486 129.85829533 1326 134 C1329.76565039 132.49542094 1331.54295677 130.36583433 1334 127.1875 C1346.46162927 111.59023349 1360.6945467 96.33299338 1376.421875 84.01953125 C1379.20576461 81.83881772 1381.87686351 79.55040175 1384.5625 77.25 C1430.41886952 39.19273169 1487.18917693 14.61720977 1545.625 4.25 C1546.73061279 4.05124268 1547.83622559 3.85248535 1548.9753418 3.64770508 C1567.8909511 0.45657654 1586.84594121 -0.38104686 1606 -0.3125 C1607.59775269 -0.30976578 1607.59775269 -0.30976578 1609.2277832 -0.30697632 C1634.44204112 -0.23465424 1658.69797209 1.8767044 1683.35644531 7.41210938 C1685.65759907 7.92385469 1687.96136088 8.40028641 1690.2734375 8.859375 C1718.07917204 14.59248069 1745.09601689 25.97807627 1770.17333984 39.04980469 C1771.99128925 39.99546882 1773.81729872 40.92398855 1775.64453125 41.8515625 C1798.21931302 53.44629825 1818.95116491 68.28423549 1838 85 C1839.06347656 85.91458984 1839.06347656 85.91458984 1840.1484375 86.84765625 C1850.95653397 96.17791095 1861.67837017 105.78858324 1870.98046875 116.64453125 C1872.50853506 118.42678267 1874.05634156 120.19213435 1875.61328125 121.94921875 C1936.25871714 190.7847135 1966.06917633 282.81146081 1962 374 C1961.39667158 383.05108203 1960.27412935 392.02206707 1959 401 C1958.86126465 402.01513672 1958.7225293 403.03027344 1958.57958984 404.07617188 C1956.30019439 420.69980561 1956.30019439 420.69980561 1955 422 C1952.05171605 422.0990807 1949.12682756 422.13174195 1946.17807674 422.12304783 C1945.23649876 422.12420167 1944.29492077 422.12535552 1943.32481012 422.12654433 C1940.12781339 422.12921909 1936.9308657 422.12468181 1933.73387146 422.12025452 C1931.43549448 422.12069004 1929.13711755 422.12156461 1926.83874089 422.12284368 C1920.49031735 422.12509229 1914.14191051 422.12106239 1907.7934891 422.11606562 C1901.66054343 422.11172057 1895.52759768 422.1130248 1889.39465094 422.11374746 C1876.84314534 422.11506351 1864.29164499 422.11171183 1851.74014091 422.10573006 C1839.30667533 422.09981968 1826.87321193 422.09596546 1814.43974495 422.09487724 C1813.66761853 422.0948085 1812.89549212 422.09473976 1812.09996793 422.09466894 C1808.17897187 422.09433062 1804.25797581 422.09402923 1800.33697975 422.09374207 C1772.54081379 422.09163982 1744.74465068 422.08489734 1716.94848633 422.07543945 C1689.9393719 422.06625995 1662.93025825 422.05917392 1635.92114258 422.05493164 C1635.08908496 422.05480011 1634.25702734 422.05466859 1633.39975586 422.05453308 C1625.04414173 422.05321459 1616.68852759 422.05193877 1608.33291345 422.05069422 C1591.31048901 422.04815778 1574.28806462 422.04533653 1557.26564026 422.04234314 C1556.0915602 422.0421372 1556.0915602 422.0421372 1554.89376135 422.04192711 C1502.59583969 422.03272134 1450.29791968 422.0168548 1398 422 C1399.47844979 425.67770131 1400.961691 429.35343206 1402.44908142 433.02752686 C1403.19811199 434.88048387 1403.94351929 436.73490423 1404.68884277 438.58935547 C1414.22407222 462.11836164 1427.76038649 483.1253139 1444.98046875 501.79296875 C1446.73904907 503.71482152 1448.40819775 505.67647489 1450.0625 507.6875 C1452.69176655 510.76688555 1455.55701604 513.40079912 1458.6484375 516.01171875 C1460.34387894 517.44523984 1462.01280184 518.91033362 1463.6640625 520.39453125 C1490.41887476 544.21767549 1523.32715014 559.83125703 1558 568 C1559.77890625 568.44472656 1559.77890625 568.44472656 1561.59375 568.8984375 C1614.46365892 581.37474778 1674.09813509 570.42804007 1720.09082031 542.20361328 C1736.66017027 531.9298832 1736.66017027 531.9298832 1750.88728905 518.82684422 C1755.74852521 513.64127259 1759.33758261 511.3936689 1766.50454712 510.91770935 C1769.46424501 510.85949426 1772.41434806 510.91354517 1775.37353516 510.97827148 C1777.01045592 510.98081419 1778.64738693 510.97937725 1780.28430176 510.97428894 C1784.7018373 510.97171954 1789.1171478 511.02441403 1793.53416872 511.08745456 C1798.15981875 511.143937 1802.78552683 511.14902032 1807.41146851 511.15968323 C1816.15936836 511.18759232 1824.90624899 511.26135892 1833.65370119 511.35182863 C1843.61732335 511.45262683 1853.58099568 511.50195976 1863.54500127 511.54708755 C1884.03056846 511.64101532 1904.51521988 511.79919153 1925 512 C1923.7608718 514.51066554 1922.51816579 517.01945599 1921.2734375 519.52734375 C1920.92853271 520.22710327 1920.58362793 520.92686279 1920.22827148 521.64782715 C1906.78174 548.68925487 1887.90389784 573.45589472 1867.40283203 595.47949219 C1866.01254219 596.98640572 1864.64236717 598.50925246 1863.27734375 600.0390625 C1856.90903421 607.15307573 1850.15963707 613.6877489 1843 620 C1842.47599609 620.46873535 1841.95199219 620.9374707 1841.41210938 621.42041016 C1802.51140602 656.16998041 1754.98738614 681.49483022 1705 696 C1703.98905273 696.30268799 1702.97810547 696.60537598 1701.93652344 696.91723633 C1646.18665002 713.33420954 1583.08557879 714.63426543 1526.69189453 700.66650391 C1523.95439525 699.98870842 1521.21032545 699.34382685 1518.46484375 698.69921875 C1494.30736259 692.86998186 1471.27963477 683.93762873 1449 673 C1448.10764648 672.56606934 1447.21529297 672.13213867 1446.29589844 671.68505859 C1419.36256984 658.47669992 1394.33112215 640.99885361 1372 621 C1371.03320312 620.1440625 1370.06640625 619.288125 1369.0703125 618.40625 C1357.39121358 607.89822604 1345.72181304 596.97439999 1336.0234375 584.58203125 C1333.82285753 581.77395527 1331.51037361 579.08257665 1329.1875 576.375 C1287.70682427 526.55972173 1262.37688405 462.9503125 1254 399 C1253.85905914 397.94111572 1253.85905914 397.94111572 1253.715271 396.86083984 C1252.215055 385.09469089 1251.81778112 373.3628372 1251.7265625 361.515625 C1251.72073654 360.78038227 1251.71491058 360.04513954 1251.70890808 359.28761673 C1251.65791009 352.4050264 1251.6266219 345.52242331 1251.61914062 338.63964844 C1251.52751599 280.33175734 1234.88834379 230.56135295 1194 188 C1191.44091792 185.51909761 1188.76736416 183.24495358 1186 181 C1184.99453125 180.16855469 1183.9890625 179.33710938 1182.953125 178.48046875 C1165.48893639 164.2469277 1146.07099434 153.83465997 1125 146 C1123.845 145.55785156 1122.69 145.11570313 1121.5 144.66015625 C1078.95508789 129.31226581 1026.60358362 132.50888334 985.90332031 151.59667969 C983.59267805 152.71290923 981.29478844 153.85158723 979 155 C978.32291992 155.33112793 977.64583984 155.66225586 976.94824219 156.00341797 C939.49303102 174.41313109 909.40809494 206.24390482 892 244 C891.46632813 245.15113281 890.93265625 246.30226563 890.3828125 247.48828125 C875.84152193 280.14967742 873.67436832 313.09469185 873.756621 348.44133282 C873.76332322 352.31329388 873.75817513 356.1852427 873.75439453 360.0572052 C873.74921513 366.74333044 873.75062566 373.42942653 873.75617027 380.11555099 C873.76446229 390.70983952 873.75307763 401.30406705 873.7389679 411.89834595 C873.73436889 415.53947244 873.72991819 419.1805991 873.72552967 422.82172585 C873.72443153 423.73122704 873.72333339 424.64072824 873.72220197 425.57779007 C873.71007298 435.88779515 873.70248891 446.19780217 873.6965332 456.5078125 C873.69598514 457.44823555 873.69543708 458.38865859 873.69487242 459.35757931 C873.68641289 474.59700298 873.68975401 489.83640899 873.69568755 505.07583277 C873.70132631 520.79180246 873.68767191 536.50768398 873.65813476 552.22362673 C873.64071273 561.87945569 873.63881932 571.53502786 873.65777991 581.19085516 C873.66948278 587.81789206 873.66278133 594.44475726 873.6423107 601.07177208 C873.63111798 604.87863498 873.62752164 608.68505351 873.64648628 612.49189568 C873.75006849 634.83165442 871.7214414 656.3090704 864.1875 677.5 C863.67775635 678.97339844 863.67775635 678.97339844 863.15771484 680.4765625 C847.49589348 724.68459628 814.24041912 761.58916488 772 782 C765.44748576 784.9702154 758.76094371 787.54805758 752 790 C751.32291992 790.25120605 750.64583984 790.50241211 749.94824219 790.76123047 C731.32417017 797.56926897 712.25240817 799.37275748 692.5625 799.4375 C691.36968414 799.4467601 691.36968414 799.4467601 690.152771 799.45620728 C678.78568864 799.51299133 668.12143771 798.31755218 657 796 C656.12013428 795.82702393 655.24026855 795.65404785 654.33374023 795.47583008 C643.81030592 793.35728244 633.87151838 790.18674407 624 786 C623.25492188 785.68434082 622.50984375 785.36868164 621.7421875 785.04345703 C601.0734097 776.12183785 583.42105893 763.31224145 567 748 C566.26007812 747.31421875 565.52015625 746.6284375 564.7578125 745.921875 C539.67754691 721.82339917 517.70745304 683.28736285 516 648 C511.85461377 650.30708916 507.87200201 652.70743408 503.96704102 655.39892578 C494.99270629 661.58209343 485.62617054 666.90479783 476 672 C475.32324219 672.35835937 474.64648438 672.71671875 473.94921875 673.0859375 C443.96829926 688.81557179 411.69525019 699.17217545 378.4375 705.1875 C377.58873291 705.3426709 376.73996582 705.4978418 375.86547852 705.65771484 C359.80358927 708.40331135 343.74789807 709.33332039 327.47363281 709.26074219 C324.63324528 709.25003109 321.79349354 709.26071359 318.953125 709.2734375 C300.24912222 709.29015504 281.91413413 707.74520097 263.5625 704.125 C262.24820001 703.87808969 260.93374578 703.63199909 259.61914062 703.38671875 C203.832208 692.67873467 151.22546289 665.86451527 109 628 C108.48920898 627.54560547 107.97841797 627.09121094 107.45214844 626.62304688 C96.66644068 617.00654028 86.14493333 607.0712112 77.1640625 595.72265625 C74.90409437 592.87933895 72.5511054 590.13253964 70.1875 587.375 C37.62896827 548.22424624 16.3708985 499.60481966 6 450 C5.81453613 449.12311523 5.62907227 448.24623047 5.43798828 447.34277344 C-0.09042138 420.70018434 -0.29243307 394.14184094 -0.23213124 367.05905724 C-0.2233847 362.11873799 -0.22642471 357.17842296 -0.22793579 352.23809814 C-0.22897766 343.70649447 -0.22277478 335.17492171 -0.21146011 326.64332581 C-0.19511237 314.30851574 -0.18998769 301.97372042 -0.18748413 289.6389007 C-0.18312147 269.61993577 -0.16985142 249.60098727 -0.15087891 229.58203125 C-0.13248292 210.15104249 -0.11834468 190.72005822 -0.10986328 171.2890625 C-0.10933783 170.08862165 -0.10881239 168.8881808 -0.10827102 167.65136296 C-0.10566069 161.62829342 -0.10313333 155.60522386 -0.10064721 149.58215427 C-0.07995928 99.72142159 -0.04311375 49.86071933 0 0 Z " fill="#FEFEFE" transform="translate(829,106)"/>
<path d="M0 0 C334.57942643 0 334.57942643 0 365.125 6.1875 C365.87416687 6.33617523 366.62333374 6.48485046 367.39520264 6.63803101 C381.58238305 9.47096062 395.3466091 13.18587376 409 18 C410.56306885 18.54648193 410.56306885 18.54648193 412.15771484 19.10400391 C436.03123331 27.57219499 459.65105717 38.29354109 481 52 C481.74282227 52.47679199 482.48564453 52.95358398 483.25097656 53.44482422 C514.47395629 73.63533853 545.1958728 98.39314067 568 128 C568.90932755 129.11219057 569.82235236 130.22136453 570.73828125 131.328125 C610.9723998 180.17675142 636.8477344 240.51563599 646 303 C646.22647217 304.47243164 646.22647217 304.47243164 646.45751953 305.97460938 C651.26627934 338.28200536 651.04712413 372.74580655 646 405 C645.70670189 407.03641092 645.41373606 409.07286973 645.12109375 411.109375 C640.42608667 442.45205851 630.72050284 472.04697191 618 501 C617.66532715 501.76860352 617.3306543 502.53720703 616.98583984 503.32910156 C597.09549535 548.63088047 563.78835288 594.28144303 524.578125 624.98046875 C521.79423539 627.16118228 519.12313649 629.44959825 516.4375 631.75 C486.88635109 656.27518624 452.72833508 674.30790703 417 688 C416.13375 688.33870117 415.2675 688.67740234 414.375 689.02636719 C388.03594646 699.25626744 359.98004562 704.69341558 332 708 C331.29701027 708.08522919 330.59402054 708.17045837 329.86972809 708.25827026 C320.81603569 709.22422656 311.76826078 709.13318609 302.67700195 709.11352539 C300.81337327 709.11321859 298.94974447 709.11335333 297.08611584 709.11389065 C292.12256317 709.11411521 287.15903491 709.1083447 282.19548798 709.10128021 C277.52758207 709.09555984 272.85968193 709.09531571 268.19177246 709.09460449 C254.56534511 709.08936971 240.93892224 709.07540846 227.3125 709.0625 C196.849375 709.041875 166.38625 709.02125 135 709 C135 783.25 135 857.5 135 934 C90.45 934 45.9 934 0 934 C0 625.78 0 317.56 0 0 Z " fill="#FEFEFE" transform="translate(90,106)"/>
<path d="M0 0 C239.5174954 0 239.5174954 0 297 49 C298.13128841 49.94687989 299.26281729 50.89347252 300.39453125 51.83984375 C310.42323593 60.27622091 319.57848913 69.00609948 327.69433594 79.34375 C328.61813587 80.51560093 329.54921314 81.68173203 330.48535156 82.84375 C356.4063374 115.04135163 371.70466105 152.85091614 376.71777344 193.74169922 C376.97209401 195.77670379 377.26494874 197.80680324 377.5625 199.8359375 C379.89104279 218.7659534 377.70203748 238.24194396 375 257 C374.90380371 257.74185547 374.80760742 258.48371094 374.70849609 259.24804688 C369.58121522 298.52823257 348.08187505 336.84069697 322 366 C321.49936035 366.56235352 320.9987207 367.12470703 320.48291016 367.70410156 C314.66409531 374.21081017 308.79362676 380.49322063 302 386 C300.92435272 386.89958842 299.8488451 387.79934383 298.7734375 388.69921875 C213.18429947 459.55191903 106.70763476 439 0 439 C0 294.13 0 149.26 0 0 Z " fill="#2B4354" transform="translate(226,241)"/>
<path d="M0 0 C52.08607393 -0.06859214 104.17214208 -0.12160842 156.25825242 -0.15319599 C162.42208697 -0.15694764 168.58592144 -0.16083065 174.74975586 -0.16479492 C176.59024428 -0.16597532 176.59024428 -0.16597532 178.46791428 -0.16717956 C198.27658913 -0.18019635 218.08523758 -0.20382942 237.89389683 -0.23145839 C258.25347829 -0.25961673 278.61304604 -0.27619819 298.97264618 -0.28226548 C311.51279887 -0.28636041 324.05287692 -0.29924403 336.5930066 -0.3237494 C345.21853953 -0.33973568 353.84403445 -0.34437156 362.46958108 -0.34050413 C367.42930013 -0.3386024 372.38888973 -0.34129781 377.34858513 -0.35761642 C405.84298519 -0.44670136 433.7985768 0.78643889 461.9375 5.6875 C462.67282959 5.81316345 463.40815918 5.9388269 464.16577148 6.06829834 C502.09240885 12.59630762 538.98268987 24.02790127 574 40 C575.46518066 40.66249756 575.46518066 40.66249756 576.95996094 41.33837891 C621.82546107 61.75822019 662.34762038 89.95866928 698.36816406 123.48583984 C700.18421747 125.17093308 702.00996436 126.84519445 703.8359375 128.51953125 C705.16171616 129.74190792 706.48724008 130.96456095 707.8125 132.1875 C708.42279053 132.74550293 709.03308105 133.30350586 709.66186523 133.87841797 C714.15913144 138.0484657 717.90672624 142.32197285 722 147 C722.33 98.49 722.66 49.98 723 0 C837.51 0 952.02 0 1070 0 C1070.02578125 36.0525 1070.0515625 72.105 1070.078125 109.25 C1070.10252545 131.36745066 1070.12756242 153.48489385 1070.15737817 175.60233682 C1070.17341713 187.50548411 1070.18924445 199.40863166 1070.20457371 211.31177989 C1070.20653332 212.83303036 1070.20849876 214.35428083 1070.21047013 215.87553129 C1070.24182481 240.1085128 1070.26033161 264.34148307 1070.27209247 288.57448137 C1070.28425259 313.48930754 1070.30948901 338.4040873 1070.35107614 363.31888255 C1070.35694985 366.84145372 1070.36267476 370.36402512 1070.36830902 373.88659668 C1070.36942248 374.57985945 1070.37053594 375.27312223 1070.37168314 375.98739296 C1070.38919308 387.12736128 1070.39300138 398.26729376 1070.39162921 409.40727399 C1070.3905427 420.61862662 1070.40434615 431.82988853 1070.43216428 443.04121315 C1070.4467938 449.11094639 1070.45502708 455.18050776 1070.44580269 461.25025558 C1070.43748935 466.81482962 1070.44774332 472.37905901 1070.47233662 477.94358206 C1070.47799998 479.94922944 1070.47703646 481.95490971 1070.46851245 483.96054697 C1070.38334485 505.89095899 1074.77633529 525.62136346 1089 543 C1089.99966797 544.26263672 1089.99966797 544.26263672 1091.01953125 545.55078125 C1103.74405885 560.73050527 1122.40968199 570.34886506 1142 573 C1165.42870583 575.05221371 1187.62642599 569.54108579 1206.07421875 554.4921875 C1215.08004613 546.70866011 1221.69153943 537.8948917 1227.25 527.375 C1227.72614746 526.50838745 1227.72614746 526.50838745 1228.21191406 525.62426758 C1235.24074474 511.6164954 1235.58411613 496.19930153 1235.51898193 480.89781189 C1235.52486905 478.81248471 1235.53250225 476.72716186 1235.541713 474.64184672 C1235.5618442 468.95658826 1235.55745323 463.27158118 1235.54880548 457.58630359 C1235.54383875 451.43859588 1235.56197265 445.29094954 1235.57722473 439.14326477 C1235.60048696 428.50690166 1235.60942699 417.87061669 1235.60811615 407.23423576 C1235.60680309 396.08670736 1235.61378507 384.93923419 1235.63169098 373.79171944 C1235.63335806 372.74955317 1235.63335806 372.74955317 1235.63505882 371.68633304 C1235.64074641 368.1574826 1235.64658071 364.62863241 1235.65247145 361.0997823 C1235.69386279 336.14652366 1235.71688888 311.19327883 1235.72900391 286.23999023 C1235.7408111 262.00787796 1235.76100589 237.77579623 1235.79248047 213.54370117 C1235.79344842 212.79592105 1235.79441637 212.04814093 1235.79541365 211.2777008 C1235.805144 203.76774737 1235.81504406 196.25779417 1235.82506842 188.74784112 C1235.84548281 173.45108171 1235.86476498 158.15432093 1235.88336182 142.8575592 C1235.88421815 142.15433769 1235.88507447 141.45111618 1235.88595675 140.72658493 C1235.94294902 93.8177397 1235.97347058 46.90887132 1236 0 C1300.58222381 -0.05146357 1365.16445005 -0.09915576 1429.74668884 -0.12702942 C1430.70385008 -0.12744359 1431.66101131 -0.12785776 1432.64717743 -0.12828448 C1453.45321241 -0.13726502 1474.2592476 -0.14557531 1495.06528312 -0.15319599 C1505.26984049 -0.15693771 1515.4743978 -0.16082742 1525.67895508 -0.16479492 C1526.69438426 -0.1651872 1527.70981345 -0.16557948 1528.75601322 -0.16598364 C1561.61757239 -0.17874787 1594.47911601 -0.20126694 1627.34066577 -0.22889166 C1661.13466141 -0.25724837 1694.92864844 -0.27566996 1728.72265577 -0.28174497 C1733.50532947 -0.28260932 1738.28800314 -0.28358623 1743.0706768 -0.28463173 C1744.01189532 -0.284834 1744.95311383 -0.28503627 1745.92285412 -0.28524467 C1761.02095373 -0.28877785 1776.1190266 -0.30265954 1791.21711535 -0.3204961 C1806.42783397 -0.33824179 1821.63852632 -0.34488307 1836.84925491 -0.34050413 C1845.86544345 -0.33823743 1854.88153516 -0.34416955 1863.89770605 -0.36239263 C1869.94720564 -0.37377437 1875.996643 -0.37389998 1882.04614716 -0.36549544 C1885.47601611 -0.36103425 1888.90555964 -0.3626063 1892.33543075 -0.37464955 C1982.80369045 -0.67346839 2086.26751146 28.46517857 2155.03515625 90.015625 C2156.9987656 91.25864338 2156.9987656 91.25864338 2159.33203125 90.4765625 C2162.65701678 88.63638017 2165.62020647 86.43442609 2168.625 84.125 C2183.86356405 72.7140693 2200.36762297 63.21290723 2217 54 C2217.78310547 53.56445801 2218.56621094 53.12891602 2219.37304688 52.68017578 C2279.23381761 19.60926145 2351.11029651 0.07549701 2419.6484375 -0.203125 C2420.81168045 -0.21013931 2421.9749234 -0.21715363 2423.17341614 -0.22438049 C2426.9073173 -0.24178437 2430.64105976 -0.24823301 2434.375 -0.25 C2435.65210846 -0.25067474 2436.92921692 -0.25134949 2438.24502563 -0.25204468 C2457.35448151 -0.23599954 2476.06589585 0.22353981 2495 3 C2496.21397461 3.17160645 2497.42794922 3.34321289 2498.67871094 3.52001953 C2579.15445499 15.14567892 2654.63596362 47.69827431 2717 100 C2717.960271 100.8036499 2717.960271 100.8036499 2718.93994141 101.62353516 C2724.97341383 106.68895616 2730.96088334 111.75123609 2736.43359375 117.4296875 C2738.19480859 119.19529439 2740.04622906 120.81224597 2741.9375 122.4375 C2748.13744409 127.79961381 2753.76606124 133.6075148 2759.1015625 139.82421875 C2761.26745005 142.30652198 2763.50876957 144.71055145 2765.75 147.125 C2770.98786608 152.87638236 2775.78340762 158.90886893 2780.51855469 165.07714844 C2782.05628759 167.07305884 2783.60921349 169.05646441 2785.1640625 171.0390625 C2826.17129344 223.59476643 2877.75167774 311.59396181 2874 381 C2872.20640126 377.80116144 2871.41735989 374.81114719 2870.703125 371.22265625 C2870.47004639 370.08038574 2870.23696777 368.93811523 2869.99682617 367.76123047 C2869.75037354 366.54064941 2869.5039209 365.32006836 2869.25 364.0625 C2862.86409494 333.52324959 2852.67063814 304.49232637 2840 276 C2839.61875977 275.13826172 2839.23751953 274.27652344 2838.84472656 273.38867188 C2819.76754105 230.64069283 2792.29717454 191.78083677 2760.48291016 157.60058594 C2758.87916316 155.8695742 2757.28869009 154.1269376 2755.69921875 152.3828125 C2748.29883383 144.27771217 2748.29883383 144.27771217 2740.19921875 136.88671875 C2737.78156744 134.81260581 2735.48164007 132.63862903 2733.17041016 130.44750977 C2726.36766094 124.01570186 2719.32430756 118.0973632 2711.87451172 112.43310547 C2709.89504628 110.91976057 2707.9331559 109.38547722 2705.97265625 107.84765625 C2691.37193826 96.45047851 2676.0493 86.24124462 2660 77 C2659.33629395 76.61666504 2658.67258789 76.23333008 2657.98876953 75.83837891 C2597.38779701 41.03232351 2530.76991321 20.90503857 2461.0625 16.8125 C2460.33759369 16.76943726 2459.61268738 16.72637451 2458.86581421 16.68200684 C2378.96013577 12.05532106 2300.36855695 30.23093506 2166.75463867 106.47265625 C2160.22388679 111.57309262 2160.22388679 111.57309262 2157 112 C2154.129241 110.53311015 2151.77427071 108.50125987 2149.3125 106.4375 C2147.78419767 105.21538719 2146.25419675 103.99539605 2144.72265625 102.77734375 C2143.54727295 101.83157471 2143.54727295 101.83157471 2142.34814453 100.86669922 C2116.79019889 80.5489562 2087.80316594 64.2044752 2058 51 C2057.19014648 50.63986816 2056.38029297 50.27973633 2055.54589844 49.90869141 C2039.11188769 42.69057867 2022.13249234 37.2685117 2005 32 C2004.12923828 31.72671875 2003.25847656 31.4534375 2002.36132812 31.171875 C1951.02097384 15.14192917 1896.84636454 15.69280623 1843.66607106 15.68383212 C1835.79570882 15.68208431 1827.92537598 15.66862022 1820.05502699 15.6549259 C1805.53800581 15.62998026 1791.02098827 15.61400263 1776.50395012 15.60334396 C1762.15432906 15.59277816 1747.80472164 15.5780988 1733.45511055 15.55806351 C1732.11098409 15.55619021 1732.11098409 15.55619021 1730.73970356 15.55427906 C1726.18795001 15.54791429 1721.63619657 15.54147736 1717.08444316 15.53501268 C1684.94131232 15.48949035 1652.79817705 15.45298299 1620.6550293 15.421875 C1589.45092113 15.39165493 1558.24682196 15.35729058 1527.04272461 15.31738281 C1526.07891674 15.31615181 1525.11510887 15.31492081 1524.12209471 15.3136525 C1514.44211891 15.30128441 1504.76214322 15.2888328 1495.08216761 15.27632002 C1475.36732479 15.25083761 1455.65248128 15.22591229 1435.93763733 15.20132446 C1435.03141108 15.20019355 1434.12518482 15.19906264 1433.19149717 15.19789747 C1372.79434192 15.1225897 1312.3971719 15.06026346 1252 15 C1252.0018986 16.02711476 1252.0037972 17.05422951 1252.00575334 18.11246896 C1252.08915886 63.41242214 1252.16628919 108.71238168 1252.2117157 154.01239014 C1252.21240598 154.69899065 1252.21309627 155.38559117 1252.21380747 156.09299776 C1252.22877453 171.01727206 1252.24262508 185.94154719 1252.25532665 200.86582358 C1252.26156294 208.18545158 1252.26804576 215.50507936 1252.2746582 222.82470703 C1252.275312 223.55306993 1252.27596579 224.28143282 1252.2766394 225.03186732 C1252.29791864 248.60948874 1252.33545455 272.18704996 1252.3814861 295.76463496 C1252.42873174 320.00830374 1252.45944634 344.25193925 1252.46957495 368.49565329 C1252.47101557 371.92558688 1252.47264375 375.35552035 1252.47438622 378.7854538 C1252.47472333 379.46046592 1252.47506045 380.13547805 1252.47540778 380.83094508 C1252.48129976 391.66517864 1252.50444494 402.49930885 1252.53416017 413.33350039 C1252.5637141 424.24468986 1252.57440794 435.15577282 1252.56750689 446.06700036 C1252.56431441 451.97122343 1252.5690991 457.87514501 1252.59602737 463.77931404 C1252.62055637 469.19732427 1252.62146131 474.61483343 1252.60449447 480.03286788 C1252.60240094 481.9807311 1252.60857579 483.92862702 1252.62441591 485.87642696 C1252.84480632 514.67954274 1243.3751649 540.35609524 1223.55371094 561.45507812 C1208.16349477 576.75823462 1189.80057303 584.17256326 1169 589 C1168.37246826 589.176521 1167.74493652 589.35304199 1167.09838867 589.53491211 C1145.78564309 594.25867945 1121.32985551 587.63447709 1102.7265625 577.15625 C1099.7062295 575.2219685 1096.85010738 573.1770051 1094 571 C1093.21181885 570.40493652 1093.21181885 570.40493652 1092.40771484 569.79785156 C1071.89036812 554.10704176 1058.16810504 531.0426917 1054.48182684 505.39471197 C1053.95009554 501.05770441 1053.86183771 496.79071418 1053.87695217 492.42557526 C1053.87579833 491.59579489 1053.87464448 490.76601453 1053.87345567 489.9110893 C1053.87081329 487.13654725 1053.87529152 484.36206347 1053.87974548 481.58752441 C1053.8793093 479.57596686 1053.87843351 477.56440935 1053.87715632 475.55285215 C1053.87492071 470.02975482 1053.8789199 464.50667688 1053.88393438 458.98358202 C1053.88825207 453.0259301 1053.88679152 447.06827927 1053.8860321 441.11062622 C1053.88550771 430.79006199 1053.8886108 420.46950363 1053.89426994 410.14894104 C1053.90018926 399.32613597 1053.90403635 388.50333341 1053.90512276 377.68052673 C1053.90522587 376.67070481 1053.90522587 376.67070481 1053.90533106 375.64048244 C1053.9056694 372.22149228 1053.90597078 368.80250212 1053.90625793 365.38351196 C1053.90835771 341.1739672 1053.9150933 316.96442572 1053.92456055 292.75488281 C1053.93374657 269.23730486 1053.9408125 245.71972782 1053.94506836 222.20214844 C1053.945339 220.72299441 1053.94560971 219.24384038 1053.94588047 217.76468635 C1053.94796607 206.31244153 1053.94991682 194.86019668 1053.95183504 183.40795183 C1053.96126903 127.2719648 1053.98138727 71.13598619 1054 15 C950.05 15 846.1 15 739 15 C739 73.41 739 131.82 739 192 C735.81656025 188.81656025 733.13695922 186.04703685 730.4375 182.5625 C715.67538572 163.9098098 699.44217922 145.32522507 681.2578125 129.91796875 C679.39752058 128.33768617 677.56663753 126.7343822 675.7421875 125.11328125 C667.43092781 117.76062901 658.86661279 110.90978317 649.89501953 104.38037109 C648.14059923 103.10241536 646.39577718 101.81240862 644.65234375 100.51953125 C624.14644757 85.45266163 602.04039297 71.83417978 579 61 C578.0001709 60.52691406 577.0003418 60.05382813 575.97021484 59.56640625 C529.94579805 37.93958201 480.60215178 23.50143698 429.9375 18.3125 C428.78056641 18.19310059 427.62363281 18.07370117 426.43164062 17.95068359 C403.41015784 15.74981965 380.32279061 15.83325398 357.22116137 15.79939139 C352.41440505 15.79128467 347.60766386 15.77762339 342.80091858 15.76467896 C334.49793097 15.74305973 326.19494173 15.72486313 317.89194107 15.70907402 C305.88759028 15.68624129 293.88325633 15.65811806 281.87891994 15.62875474 C262.39682651 15.58124176 242.91472613 15.53793412 223.43261719 15.49731445 C204.52147889 15.45787614 185.61034673 15.41643033 166.69921875 15.37231445 C165.5311094 15.36959018 164.36300006 15.36686591 163.15949346 15.36405908 C157.29870734 15.35037823 151.43792131 15.33665823 145.57713532 15.32291877 C97.05143637 15.20921036 48.525724 15.10241589 0 15 C0 10.05 0 5.1 0 0 Z " fill="#FEFEFE" transform="translate(0,0)"/>
<path d="M0 0 C44.88 0 89.76 0 136 0 C136.0093457 18.99667236 136.01869141 37.99334473 136.02832031 57.56567383 C136.0351464 70.25006642 136.04203971 82.93445873 136.04986572 95.61885071 C136.05036092 96.42465012 136.05085612 97.23044953 136.05136632 98.06066711 C136.06810695 125.18544384 136.09031907 152.31021322 136.11663818 179.4349823 C136.11749569 180.32018859 136.1183532 181.20539487 136.1192367 182.11742559 C136.13790225 201.35526113 136.15745475 220.59309568 136.17792095 239.83092939 C136.18795215 249.26513439 136.19778734 258.6993396 136.20751953 268.13354492 C136.20897724 269.54177148 136.20897724 269.54177148 136.2104644 270.97844706 C136.24187257 301.4091961 136.26033785 331.83993627 136.27209247 362.27069872 C136.28424003 393.54180048 136.30944268 424.81286519 136.35107614 456.08394225 C136.35695025 460.50058401 136.36267508 464.91722595 136.36830902 469.33386803 C136.36942248 470.20312803 136.37053594 471.07238803 136.37168314 471.96798924 C136.38922412 485.96167142 136.39299959 499.95532511 136.39162921 513.94901681 C136.39054527 528.01680596 136.40395906 542.08452209 136.43216428 556.15228353 C136.44848193 564.51059912 136.45369077 572.86874954 136.44297175 581.22707512 C136.436192 587.46862155 136.45022329 593.70995862 136.47233662 599.95146593 C136.4780357 602.47653788 136.47698105 605.00163593 136.46851245 607.52670012 C136.45798629 610.95918105 136.47205776 614.3907292 136.49219131 617.82314777 C136.48328761 618.80338391 136.4743839 619.78362004 136.46521038 620.7935603 C136.59900528 632.68499194 141.26283148 642.12710032 149 651 C157.56398247 659.28377036 168.82983218 663.30278537 180.53393555 663.31469727 C192.70141465 663.08532705 204.53882689 658.68978072 213.09765625 649.828125 C221.4718046 639.51601026 224.31036111 629.35176825 224.26171303 616.223526 C224.26570909 615.15568495 224.26970515 614.08784389 224.27382231 612.98764402 C224.28480627 609.4032555 224.28159386 605.8190211 224.2784729 602.23461914 C224.28347519 599.64146309 224.28935079 597.04830861 224.29602563 594.45515633 C224.30913831 588.81409007 224.31488285 583.17305376 224.31578636 577.53197289 C224.31716332 569.14392091 224.32995242 560.75591338 224.3450741 552.3678763 C224.37018914 538.25736084 224.38605764 524.14684914 224.39665604 510.03631592 C224.40717997 496.06515698 224.42181381 482.09401231 224.44193649 468.12286377 C224.44380979 466.8198295 224.44380979 466.8198295 224.44572094 465.4904713 C224.45208469 461.07883473 224.45852187 456.66719826 224.46498732 452.25556183 C224.51064977 421.00810985 224.54709752 389.76065324 224.578125 358.51318359 C224.60828882 328.15673138 224.6426273 297.80028858 224.68261719 267.44384766 C224.68446369 266.04026639 224.68446369 266.04026639 224.6863475 264.60832994 C224.69871436 255.21143504 224.71116608 245.81454026 224.72367998 236.41764555 C224.7491703 217.27509442 224.77409418 198.13254256 224.79867554 178.98999023 C224.79980645 178.109847 224.80093736 177.22970376 224.80210253 176.32288952 C224.83673631 149.345552 224.86896922 122.36821236 224.89883423 95.39086914 C224.89968306 94.6249536 224.90053189 93.85903806 224.90140645 93.06991296 C224.93575193 62.04661022 224.96755657 31.02330477 225 0 C269.88 0 314.76 0 361 0 C361.33 19.47 361.66 38.94 362 59 C367.94 55.04 373.88 51.08 380 47 C383.42563715 44.89741686 386.81567507 42.84134645 390.3125 40.875 C391.18092529 40.38475342 392.04935059 39.89450684 392.9440918 39.3894043 C425.77120889 21.10680699 461.10176263 9.63068396 498 3 C498.96373535 2.81920898 499.9274707 2.63841797 500.92041016 2.45214844 C532.4508481 -3.23339029 568.49476273 -2.40285565 600 3 C601.02625488 3.17160645 602.05250977 3.34321289 603.10986328 3.52001953 C663.20675391 13.86115756 719.53971174 40.22171491 765 81 C765.5161084 81.45971191 766.0322168 81.91942383 766.56396484 82.39306641 C776.93197088 91.65103568 787.12918055 101.27818279 796 112 C796.49177734 112.59393555 796.98355469 113.18787109 797.49023438 113.79980469 C799.22798956 115.90388108 800.95902474 118.01329463 802.6875 120.125 C803.24687256 120.8065918 803.80624512 121.48818359 804.38256836 122.19042969 C807.48348025 126.00650769 810.34853486 129.85829533 813 134 C816.76565039 132.49542094 818.54295677 130.36583433 821 127.1875 C833.46162927 111.59023349 847.6945467 96.33299338 863.421875 84.01953125 C866.20576461 81.83881772 868.87686351 79.55040175 871.5625 77.25 C917.41886952 39.19273169 974.18917693 14.61720977 1032.625 4.25 C1033.73061279 4.05124268 1034.83622559 3.85248535 1035.9753418 3.64770508 C1054.8909511 0.45657654 1073.84594121 -0.38104686 1093 -0.3125 C1094.59775269 -0.30976578 1094.59775269 -0.30976578 1096.2277832 -0.30697632 C1121.44204112 -0.23465424 1145.69797209 1.8767044 1170.35644531 7.41210938 C1172.65759907 7.92385469 1174.96136088 8.40028641 1177.2734375 8.859375 C1205.07917204 14.59248069 1232.09601689 25.97807627 1257.17333984 39.04980469 C1258.99128925 39.99546882 1260.81729872 40.92398855 1262.64453125 41.8515625 C1285.21931302 53.44629825 1305.95116491 68.28423549 1325 85 C1326.06347656 85.91458984 1326.06347656 85.91458984 1327.1484375 86.84765625 C1337.95653397 96.17791095 1348.67837017 105.78858324 1357.98046875 116.64453125 C1359.50853506 118.42678267 1361.05634156 120.19213435 1362.61328125 121.94921875 C1424.6568126 192.37161929 1450.08248716 281.62221124 1449 374 C1448.67 374 1448.34 374 1448 374 C1447.95512451 373.36312256 1447.91024902 372.72624512 1447.86401367 372.07006836 C1441.74973881 286.91946334 1413.2387235 207.99192983 1354.5703125 144.7890625 C1352.41922571 142.4549045 1350.32074342 140.09253383 1348.25 137.6875 C1343.36594954 132.07258213 1338.10115351 126.96662127 1332.45703125 122.12109375 C1330.56148331 120.48471453 1328.689022 118.83097174 1326.82421875 117.16015625 C1290.75963513 85.06297513 1247.80731798 61.81084631 1202 47 C1200.51652881 46.50509847 1199.03340779 46.00914495 1197.55078125 45.51171875 C1186.87439852 41.98674667 1175.9702339 39.42562352 1165 37 C1164.32565918 36.84789062 1163.65131836 36.69578125 1162.95654297 36.5390625 C1149.16974111 33.48093852 1135.03914772 32.30710006 1121 31 C1119.94603027 30.90138672 1118.89206055 30.80277344 1117.80615234 30.70117188 C1109.20775597 29.96465849 1100.62539363 29.75944677 1092 29.75 C1091.267883 29.74866058 1090.53576599 29.74732117 1089.78146362 29.74594116 C1074.70886815 29.75184807 1059.95027547 31.04777161 1045 33 C1043.41414045 33.18426589 1041.82821163 33.36793739 1040.2421875 33.55078125 C1001.93063738 38.39729349 964.00827875 52.08080399 930 70 C929.24428711 70.39380859 928.48857422 70.78761719 927.70996094 71.19335938 C905.53393413 82.80808718 885.19250638 96.95850213 866 113 C864.96748235 113.84379213 863.93492901 114.6875406 862.90234375 115.53125 C849.14892728 126.90690173 835.79681417 139.54272086 824.83203125 153.65625 C821.74657905 157.60352361 818.36285725 161.288945 815 165 C811.24542273 163.51793002 809.73313126 161.56051915 807.5 158.25 C794.63279318 139.98763781 778.29146396 122.1505432 760.8515625 108.296875 C758.36594106 106.294758 755.96254403 104.22409932 753.56640625 102.11669922 C721.95899524 74.53903606 681.63469748 55.63705566 642 43 C640.79005371 42.61352295 640.79005371 42.61352295 639.55566406 42.21923828 C591.17710108 27.20409279 536.4281426 25.70880723 487 36 C485.59550875 36.25642026 484.19053762 36.51022274 482.78515625 36.76171875 C441.40396014 44.45222982 396.70470925 62.53358451 363.57177734 88.92260742 C362 90 362 90 360 90 C360 69.87 360 49.74 360 29 C315.78 29 271.56 29 226 29 C226.02618408 47.88484619 226.05236816 66.76969238 226.0793457 86.22680664 C226.09609426 98.83748839 226.11275825 111.44816985 226.12825012 124.05885315 C226.12923679 124.86000963 226.13022346 125.66116612 226.13124003 126.48660007 C226.16436987 153.46025451 226.19062142 180.43391107 226.2117157 207.40757751 C226.21240598 208.28800236 226.21309627 209.16842721 226.21380747 210.07553159 C226.22877266 229.21039405 226.24262348 248.34525717 226.25532665 267.48012126 C226.26156323 276.86410768 226.26804601 286.24809392 226.2746582 295.63208008 C226.2756389 297.03279529 226.2756389 297.03279529 226.2766394 298.46180778 C226.29793904 328.7191188 226.33549028 358.97638308 226.3814861 389.23366579 C226.4286742 420.33179875 226.45943305 451.42990584 226.46957495 482.52807399 C226.47101569 486.92235109 226.47264387 491.31662809 226.47438622 495.71090508 C226.47472333 496.57574593 226.47506045 497.44058679 226.47540778 498.33163494 C226.48131207 512.24273307 226.50449077 526.15375114 226.53416017 540.06481665 C226.56363171 554.05648374 226.57483107 568.04807161 226.56750689 582.03976864 C226.5637094 590.34842646 226.57379385 598.6567939 226.60398772 606.96539918 C226.62501488 613.17704648 226.61976872 619.38841546 226.60449447 625.60007375 C226.60238537 628.10773436 226.60869791 630.61541963 226.62441591 633.12303186 C226.73051305 651.09874497 226.08398927 667.18666674 213 681 C201.53266184 690.7895884 190.59424974 694.64781968 175.5859375 694.37109375 C163.99760868 693.17186582 153.41492654 687.00746901 145.6796875 678.42578125 C139.15154005 669.98254996 134.87364047 660.16584766 134.8758015 649.37148923 C134.87355421 648.46436701 134.87130692 647.55724479 134.86899152 646.62263402 C134.87293204 645.13826277 134.87293204 645.13826277 134.87695217 643.62390423 C134.87579833 642.56290145 134.87464448 641.50189868 134.87345567 640.40874431 C134.87079467 636.82958413 134.87530699 633.25046834 134.87974548 629.67131042 C134.87930968 627.08899481 134.8784346 624.50667924 134.87715632 621.92436391 C134.87508162 616.29768539 134.87672799 610.67101743 134.88079453 605.04434013 C134.88682455 596.6776508 134.88713079 588.31096815 134.88625254 579.94427704 C134.88493794 565.87081532 134.88828271 551.79735829 134.89426994 537.72389793 C134.9001841 523.78655156 134.90403531 509.84920713 134.90512276 495.91185951 C134.9051915 495.04573647 134.90526024 494.17961343 134.90533106 493.28724424 C134.90566939 488.88876097 134.90597077 484.49027769 134.90625793 480.09179441 C134.90835914 448.92585966 134.91509871 417.75992746 134.92456055 386.59399414 C134.93374281 356.31404636 134.94082748 326.03409928 134.94506836 295.75415039 C134.94526565 294.35445942 134.94526565 294.35445942 134.94546692 292.92649186 C134.94678543 283.55576501 134.94806124 274.18503816 134.94930578 264.8143113 C134.95184209 245.72454022 134.95466335 226.63476918 134.95765686 207.54499817 C134.95779415 206.66725404 134.95793144 205.78950991 134.95807289 204.88516748 C134.96229653 177.97774054 134.96772807 151.07031403 134.97434998 124.16288757 C134.97463131 123.0168421 134.97463131 123.0168421 134.97491833 121.84764419 C134.9825342 90.89842926 134.99142772 59.94921467 135 29 C90.78 29 46.56 29 1 29 C1.01047363 40.90698975 1.02094727 52.81397949 1.03173828 65.08178711 C1.06386252 103.21321086 1.08609534 141.34463466 1.10213066 179.47606843 C1.10463196 185.40258407 1.10722062 191.32909966 1.10986328 197.25561523 C1.11065021 199.02535149 1.11065021 199.02535149 1.11145304 200.83084 C1.12014714 219.91501443 1.13591163 238.99917677 1.15430559 258.08334403 C1.17303233 277.67671038 1.18412259 297.27007041 1.18817699 316.86344534 C1.19091629 328.94605001 1.19955703 341.0286205 1.21583293 353.11121465 C1.22643406 361.40538483 1.22959356 369.69953744 1.22700275 377.99371391 C1.22572633 382.77344729 1.22763341 387.55312109 1.23841095 392.33284378 C1.24823014 396.7198839 1.24857943 401.10682504 1.24179779 405.49386997 C1.24096113 407.07020707 1.24342424 408.64655066 1.24976636 410.22287523 C1.45356252 464.06336876 -19.31662349 512.88428707 -56.875 551.1875 C-92.69458607 586.77247276 -142.42899262 604.49133934 -192.35742188 604.36987305 C-202.37108215 604.29156828 -212.0741442 603.75812492 -221.84667969 601.49609375 C-224.22649357 600.94781917 -226.61540699 600.45903424 -229.0078125 599.96875 C-277.63550753 589.60842706 -319.61012021 560.09896881 -347.33935547 519.015625 C-360.03066562 499.33570794 -368.94126144 477.89084047 -374.125 455.0625 C-374.28363525 454.37196533 -374.44227051 453.68143066 -374.60571289 452.9699707 C-377.53733132 439.57818985 -378.26983965 426.76998818 -378.125 413.125 C-378.1149383 411.45443252 -378.10581815 409.78385909 -378.09765625 408.11328125 C-378.07592258 404.07537022 -378.04157357 400.03775348 -378 396 C-377.67 396 -377.34 396 -377 396 C-376.92483154 396.65895264 -376.84966309 397.31790527 -376.7722168 397.99682617 C-371.11314764 446.98648536 -352.15134571 494.88566087 -313 527 C-312.24686523 527.63760254 -312.24686523 527.63760254 -311.47851562 528.28808594 C-271.2162041 562.35439714 -221.07352805 576.65194875 -168.79150391 572.76123047 C-157.62336471 571.63082185 -146.6988111 569.39903304 -136 566 C-135.25991699 565.76829102 -134.51983398 565.53658203 -133.75732422 565.29785156 C-108.61376143 557.30253817 -85.88789418 545.44552121 -66 528 C-64.71029297 526.87464844 -64.71029297 526.87464844 -63.39453125 525.7265625 C-60.89966308 523.51477317 -58.44200591 521.26991825 -56 519 C-55.33484375 518.38898437 -54.6696875 517.77796875 -53.984375 517.1484375 C-21.86994368 486.47001734 -2.02983062 439.92097854 -0.76281307 395.79754432 C-0.54084143 385.68688174 -0.55916237 375.57283055 -0.56726015 365.46027446 C-0.56789076 360.5430704 -0.55120146 355.62591887 -0.53674316 350.70874023 C-0.51407711 342.2142153 -0.50209293 333.71973103 -0.49761391 325.22517776 C-0.49112238 312.94388131 -0.46813265 300.66265801 -0.44127061 288.38139121 C-0.3981172 268.45007193 -0.36808529 248.51875574 -0.34643555 228.58740234 C-0.32539141 209.23973061 -0.29808649 189.89208419 -0.26245117 170.54443359 C-0.26025235 169.34944129 -0.25805352 168.15444898 -0.25578807 166.92324479 C-0.24471756 160.92760191 -0.23352491 154.93195927 -0.22227156 148.93631673 C-0.1292487 99.29089315 -0.06001677 49.6454766 0 0 Z " fill="#6CCEF4" transform="translate(1342,106)"/>
<path d="M0 0 C1.19328415 -0.00101212 1.19328415 -0.00101212 2.41067505 -0.00204468 C15.02432925 0.01489575 27.18234124 0.66348112 39.5625 3.25 C40.3963623 3.41628906 41.23022461 3.58257812 42.08935547 3.75390625 C76.41331161 10.73110795 108.22706051 25.32073378 135.5625 47.25 C137.07457031 48.4565625 137.07457031 48.4565625 138.6171875 49.6875 C151.93775049 60.52943698 164.12942555 72.7034468 174.31103516 86.54980469 C175.55982441 88.24636504 176.83137103 89.92395975 178.10546875 91.6015625 C189.50593298 106.83812889 207.5625 132.64300744 207.5625 152.25 C69.9525 152.25 -67.6575 152.25 -209.4375 152.25 C-199.91470006 104.63600031 -159.21461277 60.97767979 -120.32421875 34.82910156 C-116.12826807 32.11939193 -111.82861825 29.62847306 -107.4375 27.25 C-106.83083496 26.91983887 -106.22416992 26.58967773 -105.59912109 26.24951172 C-72.3708889 8.4068106 -37.62875764 0.02886804 0 0 Z " fill="#314C5F" transform="translate(2436.4375,240.75)"/>
<path d="M0 0 C0.47585824 0.41179976 0.95171648 0.82359953 1.44199467 1.24787807 C2.0687733 1.78816678 2.69555193 2.32845549 3.34132385 2.88511658 C3.96155709 3.42066634 4.58179033 3.95621611 5.22081852 4.50799465 C7.34105375 6.28600456 9.57025773 7.86004059 11.83984375 9.44140625 C18.82403839 14.85905256 25.50642464 20.32687115 26.86914062 29.50488281 C27.87555425 40.40197322 26.7507563 51.05476345 26 62 C47.12 62 68.24 62 90 62 C88.02 64.31 86.04 66.62 84 69 C82.7794984 70.67741131 81.56993303 72.36287328 80.375 74.05859375 C74.6516251 81.38354945 68.93761863 88.46134545 59.34960938 89.91650391 C48.27349549 90.98713863 37.04247948 90.1052682 26 89 C26.03814359 97.85858579 26.09763028 106.71670251 26.18390274 115.57495117 C26.22330786 119.68881763 26.25553019 123.80247228 26.27099609 127.91650391 C26.28620901 131.89142474 26.32073543 135.865763 26.36830902 139.84042358 C26.38307534 141.35211099 26.39103828 142.86388159 26.39188385 144.37564087 C26.27272099 155.84273121 26.27272099 155.84273121 31 166 C35.67969618 168.97287275 39.79430017 169.44279974 45.20849609 169.43237305 C46.00916504 169.4425647 46.80983398 169.45275635 47.63476562 169.46325684 C50.26439493 169.49329687 52.89365942 169.50263888 55.5234375 169.51171875 C57.35333458 169.52857212 59.18322012 169.54672325 61.01309204 169.56611633 C65.81671546 169.61355097 70.62029212 169.64340259 75.42407227 169.66955566 C80.33098585 169.69939418 85.23773843 169.74591321 90.14453125 169.79101562 C99.7629365 169.87697437 109.38137495 169.94435269 119 170 C118.6749605 169.15329428 118.349921 168.30658855 118.01503181 167.43422508 C116.93531629 163.78115126 116.75366815 160.85470014 116.75949097 157.05239868 C116.75778212 156.37756955 116.75607327 155.70274041 116.75431263 155.00746191 C116.75103388 152.75958459 116.76199447 150.5120097 116.77294922 148.26416016 C116.77351368 146.64753222 116.77319608 145.03090376 116.77206421 143.41427612 C116.77149107 139.03456071 116.78323913 134.65495514 116.79721212 130.27526522 C116.80972591 125.6948582 116.8108905 121.11444858 116.81326294 116.5340271 C116.8194758 107.86437387 116.835884 99.19477116 116.85596192 90.52514017 C116.87832695 80.65337006 116.88931587 70.78159753 116.89935279 60.9098084 C116.92025039 40.60651075 116.95542261 20.30325856 117 0 C127.21463989 4.94473498 138.99925255 14.57269949 144 25 C147.34018047 36.84650674 144.99753546 50.15968783 144 62 C164.79 62 185.58 62 207 62 C205.02 64.31 203.04 66.62 201 69 C199.76885997 70.6781194 198.54770123 72.36363924 197.33984375 74.05859375 C191.64866228 81.28821815 185.94453257 88.44230308 176.44775391 89.91650391 C165.61326857 90.96490401 154.81123247 89.86010024 144 89 C144.0612483 98.17110418 144.13838104 107.34189785 144.23571491 116.51269054 C144.28041517 120.77121775 144.31967195 125.02964937 144.34643555 129.28833008 C144.37247213 133.39931576 144.41287676 137.50993352 144.46318626 141.6206913 C144.47985264 143.187894 144.49136836 144.75516033 144.49761391 146.32243919 C144.50725781 148.5202821 144.53531854 150.71718429 144.56762695 152.91479492 C144.57873001 154.16499924 144.58983307 155.41520355 144.60127258 156.70329285 C145.21224618 161.75486675 146.84121165 164.01914014 150.69168091 167.27838135 C154.55276656 169.2876546 157.68303505 169.57571061 161.93310547 169.54589844 C163.09021782 169.56140495 163.09021782 169.56140495 164.27070618 169.57722473 C166.803082 169.60656128 169.3346554 169.60814991 171.8671875 169.609375 C173.62982703 169.62436289 175.39245254 169.64109132 177.15505981 169.65948486 C181.78117532 169.70310247 186.4071014 169.72314503 191.03338623 169.73822021 C195.75935033 169.75781149 200.48511046 169.79977923 205.2109375 169.83984375 C214.47389533 169.91508526 223.73680737 169.96541339 233 170 C232.44425293 169.04733749 231.88850586 168.09467499 231.31591797 167.11314392 C230.58280956 165.84629594 229.84991045 164.57932682 229.1171875 163.31225586 C228.56840942 162.373447 228.56840942 162.373447 228.00854492 161.4156723 C225.24231824 156.61785072 223.26407918 151.97256799 222 146.5625 C221.80414307 145.76030029 221.60828613 144.95810059 221.40649414 144.1315918 C217.21738343 125.69328233 221.28447298 107.99413836 231 92 C241.50823386 76.8236102 257.46268455 65.87082911 275.7265625 62.3984375 C295.53906167 59.98689225 314.77270195 64.70763435 330.5703125 77 C343.91962394 88.43060307 352.84709004 103.46916178 355 121 C356.39481699 140.96475678 351.7982025 159.38479227 338.5625 174.84765625 C326.84157076 187.23299863 311.57708127 195.97777177 294.35907662 197.18519664 C291.5079492 197.26137548 288.66318029 197.27630829 285.81105042 197.26742554 C284.18666382 197.27422221 284.18666382 197.27422221 282.52946132 197.28115618 C278.92397497 197.29375172 275.3186406 197.29218295 271.71313477 197.29052734 C269.11870124 197.29651549 266.5242695 197.30332169 263.92984009 197.31088257 C257.62823251 197.32743644 251.32666237 197.3329895 245.02503485 197.33410732 C239.90045768 197.33506017 234.77589279 197.33918221 229.6513195 197.34550858 C215.10167202 197.36310319 200.55205395 197.37234987 186.00239576 197.37084763 C185.21938592 197.37076772 184.43637608 197.3706878 183.62963867 197.37060547 C182.84566619 197.37052371 182.0616937 197.37044195 181.25396448 197.37035771 C168.54555626 197.3695446 155.8372665 197.38869306 143.12889255 197.4168822 C130.059921 197.44564116 116.99100719 197.45942094 103.92200321 197.45769465 C96.59271702 197.45703194 89.26355514 197.46247221 81.93429756 197.48405075 C75.04199171 197.50421409 68.14995213 197.50355823 61.25763321 197.48901749 C58.73213886 197.48692836 56.20662809 197.49163639 53.68116188 197.5037384 C50.22577896 197.5192209 46.77129735 197.50986185 43.31593323 197.49447632 C42.32369438 197.50476344 41.33145554 197.51505057 40.30914885 197.52564943 C28.4591037 197.40955667 19.27154803 193.09893662 10.87109375 184.9296875 C3.40829326 177.04083394 -0.12848728 169.08925898 -0.12025452 158.25494385 C-0.12110894 157.57774001 -0.12196337 156.90053617 -0.12284368 156.202811 C-0.12449002 153.93498506 -0.11899097 151.66723318 -0.11352539 149.39941406 C-0.11324331 147.77322898 -0.11340166 146.14704377 -0.1139679 144.52085876 C-0.11425506 140.10593604 -0.10837141 135.69104042 -0.10139394 131.276124 C-0.09514691 126.6623352 -0.09455553 122.04854579 -0.09336853 117.43475342 C-0.0902592 108.69776149 -0.08205116 99.96078207 -0.07201904 91.22379565 C-0.06084556 81.2770982 -0.05534433 71.33040015 -0.05032361 61.38369799 C-0.03986823 40.92245835 -0.02227648 20.46122996 0 0 Z " fill="#FEFEFE" transform="translate(2116,843)"/>
<path d="M0 0 C8.91 0 17.82 0 27 0 C27.33 3.96 27.66 7.92 28 12 C29.505625 11.071875 31.01125 10.14375 32.5625 9.1875 C47.01516766 0.27832131 65.59699297 -2.58797299 82.1875 1.1875 C92.59656806 4.19145924 101.4287451 8.3651582 110 15 C110.60199219 15.42539062 111.20398437 15.85078125 111.82421875 16.2890625 C125.58336724 26.74473245 132.7032738 44.41733158 135 61 C135.23650171 64.79017809 135.23565858 68.55913926 135.1953125 72.35546875 C135.1924826 73.38311844 135.18965271 74.41076813 135.18673706 75.46955872 C135.175661 78.70899771 135.15058083 81.94814646 135.125 85.1875 C135.11495392 87.40168868 135.10583094 89.61588175 135.09765625 91.83007812 C135.07576309 97.22014888 135.04241364 102.6100537 135 108 C150.52529993 107.96279581 166.05039007 107.90287994 181.57548618 107.81609726 C188.78445866 107.77632697 195.9933223 107.74392436 203.20239258 107.72900391 C209.48752859 107.71597686 215.77242491 107.68898568 222.05742592 107.64538693 C225.38383445 107.62279519 228.70988373 107.60917096 232.03637886 107.60811615 C235.75451741 107.6057514 239.47171997 107.5787084 243.18969727 107.54589844 C244.28661896 107.5509288 245.38354065 107.55595917 246.51370239 107.56114197 C252.88113705 107.47423225 256.81856551 106.79435023 262 103 C264.98561119 98.90097028 264.6375576 93.85645728 264 89 C261.66243025 84.84432045 259.44937542 83.43998399 255 82 C251.94714537 81.70207019 251.94714537 81.70207019 248.64013672 81.74462891 C247.3746701 81.73766998 246.10920349 81.73071106 244.8053894 81.72354126 C244.13365566 81.7242223 243.46192192 81.72490334 242.76983261 81.72560501 C240.64910965 81.72657651 238.52888502 81.71355241 236.40823364 81.69662476 C230.38091954 81.6505609 224.3536561 81.62578757 218.32617188 81.61914062 C214.63081222 81.61408456 210.93597069 81.58962604 207.24078751 81.55381393 C205.8432033 81.54410572 204.44554698 81.5416342 203.0479393 81.54698563 C188.67141592 81.5994205 178.55806175 78.44344485 168.25 68.2734375 C159.81550907 59.03766994 157.37261597 48.331192 157.69140625 36.01171875 C158.29321195 25.41144831 163.46509422 17.10992215 171.13671875 10.02734375 C180.73380618 2.13863838 189.66208884 -0.16078087 201.83911133 -0.11352539 C202.82495209 -0.11367142 203.81079285 -0.11381744 204.82650757 -0.1139679 C208.07837134 -0.11327237 211.33017751 -0.10549681 214.58203125 -0.09765625 C216.83932972 -0.09579079 219.09662859 -0.09436749 221.35392761 -0.09336853 C227.29032512 -0.08955343 233.22669811 -0.07973172 239.16308594 -0.06866455 C245.22265287 -0.0584288 251.28222378 -0.05386627 257.34179688 -0.04882812 C269.22787535 -0.03810857 281.11393563 -0.02104421 293 0 C292.60938951 0.44723671 292.21877903 0.89447342 291.81633186 1.35526276 C288.82436146 4.80824125 286.01205271 8.29977124 283.33544922 12.00585938 C277.25447946 19.68740122 270.96191039 26.80373506 260.90733719 28.41030884 C251.50960897 29.45006349 242.02413575 29.0352593 232.59997559 28.60369873 C226.83834679 28.36229288 221.07163031 28.28506091 215.30612183 28.18737793 C212.24923678 28.13514706 209.19873622 28.03963732 206.14431763 27.90734863 C204.75393096 27.86192666 203.36354014 27.8166317 201.97314453 27.77148438 C200.76772003 27.72004272 199.56229553 27.66860107 198.32034302 27.61560059 C193.34390589 28.19172766 190.24164282 30.46864053 187.125 34.3125 C185.18201597 38.95407296 185.47803205 42.57145614 187.1875 47.25 C189.24665622 50.37423703 190.65947669 51.37433129 194 53 C196.9934844 53.44102566 196.9934844 53.44102566 200.23632812 53.36889648 C201.4753186 53.37577988 202.71430908 53.38266327 203.99084473 53.38975525 C204.64853348 53.38657728 205.30622223 53.38339931 205.98384094 53.38012505 C208.063229 53.37095269 210.14172677 53.38131119 212.22106934 53.39674377 C218.13076456 53.43664631 224.04038767 53.43806639 229.95019531 53.43579102 C233.57421206 53.43573935 237.19775406 53.45519227 240.82164001 53.48512459 C242.84693155 53.49578162 244.87230251 53.48387996 246.89758301 53.47129822 C260.46265436 53.57898067 271.90392617 56.66315092 282 66 C290.05668322 74.91186188 293.8456932 85.710954 293.45703125 97.6875 C291.77469727 109.88082664 285.36037534 120.21306683 276 128 C268.65968864 132.56041253 261.08729968 135.25490041 252.38771057 135.24050903 C251.09913651 135.24325836 249.81056244 135.24600769 248.48294067 135.24884033 C247.07269192 135.24176387 245.66244413 135.23449427 244.25219727 135.22705078 C242.75364693 135.22648608 241.25509604 135.22680437 239.75654602 135.22793579 C235.7033219 135.22850802 231.6502169 135.21677476 227.59702039 135.20278788 C223.35561561 135.19025886 219.1142079 135.18910831 214.87278748 135.18673706 C206.84773616 135.18052867 198.82273953 135.16412653 190.79771227 135.14403808 C181.65867468 135.12165913 172.51963443 135.11068063 163.38057625 135.10064721 C144.58701986 135.07975973 125.79351433 135.04459622 107 135 C106.99531204 133.9300177 106.99062408 132.8600354 106.98579407 131.75762939 C106.95042859 123.87734149 106.90922075 115.99726221 106.83984375 108.1171875 C106.79163375 102.62890382 106.74754232 97.14081833 106.72900391 91.65234375 C106.71377484 87.22357341 106.67921967 82.79532425 106.63169098 78.36678696 C106.61694128 76.6836998 106.60896269 75.0005382 106.60811615 73.31738663 C106.59424213 59.55450707 104.67209458 49.34874317 95 39 C87.83993242 32.06072746 77.95973603 27.81955337 68 27.4375 C56.47658138 28.02961242 46.37807126 32.01005025 38 40 C28.47629275 51.66915779 27.54447677 63.69910817 27.48828125 78.1640625 C27.47140729 79.8088818 27.45325346 81.45368842 27.43388367 83.09848022 C27.3866721 87.39569128 27.3566772 91.69285089 27.33044434 95.99023438 C27.30049207 100.38812412 27.25401268 104.7858371 27.20898438 109.18359375 C27.1232799 117.78898963 27.05732021 126.3943682 27 135 C18.09 135 9.18 135 0 135 C0 90.45 0 45.9 0 0 Z " fill="#FDFDFD" transform="translate(2498,905)"/>
<path d="M0 0 C334.57942643 0 334.57942643 0 365.125 6.1875 C365.87416687 6.33617523 366.62333374 6.48485046 367.39520264 6.63803101 C381.58238305 9.47096062 395.3466091 13.18587376 409 18 C410.56306885 18.54648193 410.56306885 18.54648193 412.15771484 19.10400391 C436.03123331 27.57219499 459.65105717 38.29354109 481 52 C481.74282227 52.47679199 482.48564453 52.95358398 483.25097656 53.44482422 C514.47395629 73.63533853 545.1958728 98.39314067 568 128 C568.90932755 129.11219057 569.82235236 130.22136453 570.73828125 131.328125 C610.90715041 180.09753152 637.01260791 240.55916668 646 303 C646.15098145 304.04542969 646.30196289 305.09085937 646.45751953 306.16796875 C649.22343208 326.14698752 649.34600538 345.87845648 649 366 C648.67 366 648.34 366 648 366 C647.89510254 364.77204712 647.89510254 364.77204712 647.78808594 363.51928711 C646.27962776 346.17565587 644.4135536 329.0911714 641 312 C640.85481934 311.24074219 640.70963867 310.48148437 640.56005859 309.69921875 C630.36468943 256.73504029 605.15557988 204.64484324 571 163 C570.56913086 162.47438477 570.13826172 161.94876953 569.69433594 161.40722656 C555.79530879 144.53055017 540.83404581 127.51741046 523.5703125 114.015625 C520.82436275 111.86226623 518.20351529 109.59304245 515.5625 107.3125 C486.64981595 83.29273171 452.75372145 65.30606434 417.73144531 52.03710938 C415.40379425 51.15331766 413.08786172 50.24573813 410.7734375 49.328125 C290.24728047 2.82182614 79.71172055 29.25147515 1 29 C1 327.65 1 626.3 1 934 C0.67 934 0.34 934 0 934 C0 625.78 0 317.56 0 0 Z " fill="#6DCCF1" transform="translate(90,106)"/>
<path d="M0 0 C2.31 1.98 4.62 3.96 7 6 C8.6781194 7.23114003 10.36363924 8.45229877 12.05859375 9.66015625 C19.28821815 15.35133772 26.44230308 21.05546743 27.91650391 30.55224609 C28.98346023 41.32792393 28.10712577 52.25917676 27 63 C27.55551041 62.99333817 28.11102081 62.98667633 28.68336487 62.97981262 C34.54104741 62.91269416 40.39861825 62.86788737 46.2565918 62.83520508 C48.43372037 62.82025249 50.61081954 62.79988303 52.7878418 62.77368164 C83.96067457 62.40829105 83.96067457 62.40829105 97.375 69.75 C98.04217041 70.10143066 98.70934082 70.45286133 99.39672852 70.81494141 C116.14822949 79.86462629 127.59077399 94.14877774 133.2734375 112.30859375 C137.97755853 129.73407435 135.2424875 147.78020716 127.375 163.8125 C117.81663649 179.95605996 102.21474757 191.44258316 84.25390625 196.45703125 C56.94577907 203.03559222 28.0893445 198 0 198 C0 132.66 0 67.32 0 0 Z " fill="#FDFDFD" transform="translate(1792,842)"/>
<path d="M0 0 C1.71593941 2.57390911 2.7434584 4.65973564 3.84765625 7.5078125 C14.19079061 33.74676094 27.79576178 56.99553685 46.98046875 77.79296875 C48.73904907 79.71482152 50.40819775 81.67647489 52.0625 83.6875 C54.69176655 86.76688555 57.55701604 89.40079912 60.6484375 92.01171875 C62.34387894 93.44523984 64.01280184 94.91033362 65.6640625 96.39453125 C92.41887476 120.21767549 125.32715014 135.83125703 160 144 C161.77890625 144.44472656 161.77890625 144.44472656 163.59375 144.8984375 C216.46365892 157.37474778 276.09813509 146.42804007 322.09082031 118.20361328 C338.66017027 107.9298832 338.66017027 107.9298832 352.88728905 94.82684422 C357.74852521 89.64127259 361.33758261 87.3936689 368.50454712 86.91770935 C371.46424501 86.85949426 374.41434806 86.91354517 377.37353516 86.97827148 C379.01045592 86.98081419 380.64738693 86.97937725 382.28430176 86.97428894 C386.7018373 86.97171954 391.1171478 87.02441403 395.53416872 87.08745456 C400.15981875 87.143937 404.78552683 87.14902032 409.41146851 87.15968323 C418.15936836 87.18759232 426.90624899 87.26135892 435.65370119 87.35182863 C445.61732335 87.45262683 455.58099568 87.50195976 465.54500127 87.54708755 C486.03056846 87.64101532 506.51521988 87.79919153 527 88 C522.01089963 98.21704066 516.75987848 108.19595152 511 118 C510.23854644 117.99354745 509.47709288 117.9870949 508.69256496 117.98044682 C490.15554372 117.82578421 471.61865143 117.70998535 453.0811224 117.6373148 C444.11642711 117.60123663 435.15216279 117.55205913 426.18774414 117.47192383 C418.3733364 117.40210214 410.55924079 117.3569804 402.74452978 117.34138054 C398.60739437 117.33226291 394.47115182 117.31087243 390.3343029 117.2598896 C386.43772682 117.21225846 382.54240841 117.19774191 378.64556885 117.20824623 C377.21810118 117.20632558 375.79059006 117.19246823 374.36337471 117.16556168 C366.65921611 116.84464007 366.65921611 116.84464007 359.66819954 119.51553154 C357.92325148 121.25454015 356.48393402 123.03939797 355 125 C352.89344151 126.87767981 350.67350202 128.59184939 348.4375 130.3125 C347.83599121 130.77833496 347.23448242 131.24416992 346.61474609 131.72412109 C344.75013511 133.15884779 342.87710386 134.58166685 341 136 C340.4229834 136.43779785 339.8459668 136.8755957 339.25146484 137.32666016 C312.06481606 157.80017245 280.37026815 170.91970307 247 177 C246.10587402 177.16516113 245.21174805 177.33032227 244.29052734 177.50048828 C199.44252801 185.47988393 152.76737756 177.7651226 112 158 C111.35901367 157.68981934 110.71802734 157.37963867 110.05761719 157.06005859 C92.16362375 148.26194585 76.0510855 136.57046291 61.3671875 123.14453125 C59.28105514 121.25461926 57.15350239 119.43688253 55 117.625 C34.70748129 99.80322708 20.05372182 75.51340626 8.25 51.51953125 C7.46580386 49.9388859 6.66368663 48.36687315 5.8359375 46.80859375 C-1.97615826 31.99933309 -0.70620955 16.27541404 0 0 Z " fill="#6CCEF5" transform="translate(2227,530)"/>
<path d="M0 0 C1.19328415 -0.00101212 1.19328415 -0.00101212 2.41067505 -0.00204468 C15.02432925 0.01489575 27.18234124 0.66348112 39.5625 3.25 C40.3963623 3.41628906 41.23022461 3.58257812 42.08935547 3.75390625 C76.41331161 10.73110795 108.22706051 25.32073378 135.5625 47.25 C137.07457031 48.4565625 137.07457031 48.4565625 138.6171875 49.6875 C151.93775049 60.52943698 164.12942555 72.7034468 174.31103516 86.54980469 C175.55982441 88.24636504 176.83137103 89.92395975 178.10546875 91.6015625 C189.50593298 106.83812889 207.5625 132.64300744 207.5625 152.25 C69.9525 152.25 -67.6575 152.25 -209.4375 152.25 C-199.91470006 104.63600031 -159.21461277 60.97767979 -120.32421875 34.82910156 C-116.12826807 32.11939193 -111.82861825 29.62847306 -107.4375 27.25 C-106.83083496 26.91983887 -106.22416992 26.58967773 -105.59912109 26.24951172 C-72.3708889 8.4068106 -37.62875764 0.02886804 0 0 Z M-99.4375 40.25 C-100.04287598 40.56936523 -100.64825195 40.88873047 -101.27197266 41.21777344 C-110.39369522 46.06530337 -118.42794338 51.78310033 -126.4375 58.25 C-127.30375 58.91128906 -128.17 59.57257813 -129.0625 60.25390625 C-152.0657821 78.17262142 -169.25061696 101.11841688 -183.0625 126.5625 C-183.40579346 127.1910791 -183.74908691 127.8196582 -184.1027832 128.46728516 C-185.58940317 131.27926461 -186.4375 133.01887142 -186.4375 136.25 C-63.6775 136.25 59.0825 136.25 185.5625 136.25 C171.06861895 92.76835686 129.99813418 55.93593691 90.24511719 35.89819336 C74.01342732 27.99083644 56.42726529 21.27109898 38.5625 18.25 C37.80340332 18.11754883 37.04430664 17.98509766 36.26220703 17.84863281 C-10.9013058 9.87607319 -57.40194643 17.7764225 -99.4375 40.25 Z " fill="#253B4B" transform="translate(2436.4375,240.75)"/>
<path d="M0 0 C0.33 0 0.66 0 1 0 C1 10.23 1 20.46 1 31 C-136.94 31 -274.88 31 -417 31 C-417 21.43 -417 11.86 -417 2 C-279.39 2 -141.78 2 0 2 C0 1.34 0 0.68 0 0 Z " fill="#6CCEF5" transform="translate(2644,391)"/>
<path d="M0 0 C0.33 0 0.66 0 1 0 C1 144.87 1 289.74 1 439 C167.22902829 448.47207107 167.22902829 448.47207107 306.62890625 381.1484375 C308.73763367 379.23772896 310.88780105 377.39699852 313.0625 375.5625 C352.87872116 340.58450492 374.20445831 284.65496843 377.88671875 232.88671875 C377.92410156 232.26410156 377.96148438 231.64148438 378 231 C378.33 231 378.66 231 379 231 C379.44666198 270.45743213 376.23143997 308.17697347 358 344 C357.45085937 345.10577393 357.45085937 345.10577393 356.890625 346.23388672 C351.12557832 357.82403264 344.69815073 368.59258187 337 379 C336.56606934 379.59087402 336.13213867 380.18174805 335.68505859 380.79052734 C324.54720632 395.82390523 311.6761223 409.39059107 297 421 C296.4234668 421.45681152 295.84693359 421.91362305 295.25292969 422.38427734 C275.41838949 437.90098225 252.97633266 450.25171623 229 458 C228.36497559 458.21108398 227.72995117 458.42216797 227.07568359 458.63964844 C155.24892083 482.50596971 70.01281979 469 0 469 C0 314.23 0 159.46 0 0 Z " fill="#6DCCF1" transform="translate(225,241)"/>
<path d="M0 0 C8.91 0 17.82 0 27 0 C27.01981934 2.16949219 27.03963867 4.33898437 27.06005859 6.57421875 C27.1271307 13.76276678 27.20476735 20.95117321 27.28752708 28.13955688 C27.33735562 32.49551238 27.38368627 36.8514452 27.421875 41.20751953 C27.45889835 45.41569991 27.50530333 49.6236841 27.55806351 53.83169556 C27.57651726 55.43271423 27.59165807 57.03377481 27.60334396 58.63485718 C27.62036203 60.88698176 27.64943192 63.1386658 27.68115234 65.390625 C27.69447601 66.66969727 27.70779968 67.94876953 27.7215271 69.26660156 C28.46111627 79.18204059 32.35533866 90.26977184 40 97 C50.63885411 104.88566822 59.71281714 108.16667947 73 107 C84.64737966 104.98022318 94.16028989 98.54709536 101 89 C107.24672656 78.23555156 107.32289306 66.6871776 107.4140625 54.58984375 C107.43280194 53.01085937 107.45237736 51.43188471 107.4727478 49.85292053 C107.52378215 45.72504442 107.56356019 41.59713595 107.60089111 37.46911621 C107.6411121 33.24560733 107.6921213 29.02222974 107.7421875 24.79882812 C107.83860643 16.53263575 107.92211974 8.26638784 108 0 C116.91 0 125.82 0 135 0 C135 44.55 135 89.1 135 135 C126.09 135 117.18 135 108 135 C108 130.71 108 126.42 108 122 C107.12859375 122.53109375 106.2571875 123.0621875 105.359375 123.609375 C88.51599178 133.67496178 70.89247595 137.81067115 51.375 134 C33.60283358 129.1591577 19.20834763 118.32441928 9 103 C1.10346917 89.0275862 -0.59257368 75.22949347 -0.390625 59.5703125 C-0.38314406 57.8415493 -0.37745992 56.11277748 -0.37347412 54.38400269 C-0.35836334 49.88270736 -0.3192115 45.38194667 -0.2746582 40.88085938 C-0.2333871 36.26830269 -0.21539584 31.65565773 -0.1953125 27.04296875 C-0.15269933 18.02837581 -0.08247316 9.01431646 0 0 Z " fill="#FDFDFD" transform="translate(1954,905)"/>
<path d="M0 0 C7.38375 -0.061875 14.7675 -0.12375 22.375 -0.1875 C25.8407251 -0.22846802 25.8407251 -0.22846802 29.37646484 -0.27026367 C31.23795044 -0.27903755 33.09944185 -0.28667935 34.9609375 -0.29296875 C36.37403198 -0.3159906 36.37403198 -0.3159906 37.81567383 -0.33947754 C48.78349716 -0.34374075 60.15962518 2.95567319 68.49609375 10.40625 C76.60494303 18.99952405 81.10104687 28.55937127 81.5625 40.375 C81.2151414 51.76836211 77.09122406 61.90877594 69 70 C55.1932981 82.24827347 39.56392991 81.52714973 22.1875 81.25 C14.865625 81.1675 7.54375 81.085 0 81 C0 54.27 0 27.54 0 0 Z " fill="#293F4F" transform="translate(1819,932)"/>
<path d="M0 0 C0.33 0 0.66 0 1 0 C1.0002442 0.54433463 1.0004884 1.08866925 1.00074001 1.64949887 C1.02746776 60.91133489 1.05913656 120.17316723 1.11663818 179.4349823 C1.11749569 180.32018859 1.1183532 181.20539487 1.1192367 182.11742559 C1.13790225 201.35526113 1.15745475 220.59309568 1.17792095 239.83092939 C1.18795215 249.26513439 1.19778734 258.6993396 1.20751953 268.13354492 C1.20849134 269.07236263 1.20946314 270.01118033 1.2104644 270.97844706 C1.24187257 301.4091961 1.26033785 331.83993627 1.27209247 362.27069872 C1.28424003 393.54180048 1.30944268 424.81286519 1.35107614 456.08394225 C1.35695025 460.50058401 1.36267508 464.91722595 1.36830902 469.33386803 C1.36942248 470.20312803 1.37053594 471.07238803 1.37168314 471.96798924 C1.38922412 485.96167142 1.39299959 499.95532511 1.39162921 513.94901681 C1.39054527 528.01680596 1.40395906 542.08452209 1.43216428 556.15228353 C1.44848193 564.51059912 1.45369077 572.86874954 1.44297175 581.22707512 C1.436192 587.46862155 1.45022329 593.70995862 1.47233662 599.95146593 C1.4780357 602.47653788 1.47698105 605.00163593 1.46851245 607.52670012 C1.45798629 610.95918105 1.47205776 614.3907292 1.49219131 617.82314777 C1.48328761 618.80338391 1.4743839 619.78362004 1.46521038 620.7935603 C1.59900528 632.68499194 6.26283148 642.12710032 14 651 C22.56398247 659.28377036 33.82983218 663.30278537 45.53393555 663.31469727 C57.70141465 663.08532705 69.53882689 658.68978072 78.09765625 649.828125 C86.33253721 639.68750725 89.31199867 629.60554607 89.26171303 616.67642975 C89.26570909 615.65755153 89.26970515 614.63867331 89.27382231 613.58892 C89.28480065 610.17108785 89.28159466 606.7534175 89.2784729 603.33557129 C89.28347551 600.86203437 89.28935121 598.38849908 89.29602563 595.91496611 C89.30853972 590.53525247 89.31488267 585.15558414 89.31578636 579.77585983 C89.31716359 571.7764433 89.32995431 563.77707335 89.3450741 555.77767243 C89.37018639 542.32078575 89.38605667 528.86390299 89.39665604 515.40699768 C89.40718064 502.08337049 89.42181523 488.75975826 89.44193649 475.43614197 C89.44318536 474.60765651 89.44443423 473.77917105 89.44572094 472.92557998 C89.45208471 468.7181047 89.45852189 464.51062953 89.46498732 460.30315441 C89.5106475 430.5032175 89.54709623 400.70327574 89.578125 370.90332031 C89.60828973 341.95344329 89.64262863 313.00357613 89.68261719 284.05371094 C89.68384819 283.16131771 89.68507919 282.26892449 89.6863475 281.34948904 C89.69871438 272.38769274 89.7111661 263.42589655 89.72367998 254.46410045 C89.74917018 236.20796054 89.77409408 217.95181987 89.79867554 199.69567871 C89.8003719 198.43660263 89.8003719 198.43660263 89.80210253 197.15209066 C89.87755517 141.10140522 89.93976576 85.05070361 90 29 C90.33 29 90.66 29 91 29 C91.08560783 88.46917539 91.16520884 147.93835718 91.2117157 207.40757751 C91.21240598 208.28800236 91.21309627 209.16842721 91.21380747 210.07553159 C91.22877266 229.21039405 91.24262348 248.34525717 91.25532665 267.48012126 C91.26156323 276.86410768 91.26804601 286.24809392 91.2746582 295.63208008 C91.275312 296.56589022 91.27596579 297.49970036 91.2766394 298.46180778 C91.29793904 328.7191188 91.33549028 358.97638308 91.3814861 389.23366579 C91.4286742 420.33179875 91.45943305 451.42990584 91.46957495 482.52807399 C91.47101569 486.92235109 91.47264387 491.31662809 91.47438622 495.71090508 C91.47472333 496.57574593 91.47506045 497.44058679 91.47540778 498.33163494 C91.48131207 512.24273307 91.50449077 526.15375114 91.53416017 540.06481665 C91.56363171 554.05648374 91.57483107 568.04807161 91.56750689 582.03976864 C91.5637094 590.34842646 91.57379385 598.6567939 91.60398772 606.96539918 C91.62501488 613.17704648 91.61976872 619.38841546 91.60449447 625.60007375 C91.60238537 628.10773436 91.60869791 630.61541963 91.62441591 633.12303186 C91.73051305 651.09874497 91.08398927 667.18666674 78 681 C66.53266184 690.7895884 55.59424974 694.64781968 40.5859375 694.37109375 C28.99760868 693.17186582 18.41492654 687.00746901 10.6796875 678.42578125 C4.09010993 669.90309882 -0.12628014 660.06628411 -0.1241985 649.18554038 C-0.12644579 648.23684906 -0.12869308 647.28815775 -0.13100848 646.31071821 C-0.12838146 645.27461136 -0.12575445 644.23850451 -0.12304783 643.17100048 C-0.12420167 642.06103487 -0.12535552 640.95106926 -0.12654433 639.80746832 C-0.12920611 636.06175013 -0.12469237 632.31607431 -0.12025452 628.57035828 C-0.12069031 625.86842245 -0.12152308 623.1664894 -0.12284368 620.46455413 C-0.12491865 614.57651673 -0.12327155 608.68848942 -0.11920547 602.80045319 C-0.11317612 594.04512753 -0.11286914 585.28980826 -0.11374746 576.53448091 C-0.11506215 561.80739073 -0.11171698 547.08030504 -0.10573006 532.35321617 C-0.09981612 517.76833766 -0.09596473 503.18346102 -0.09487724 488.59858131 C-0.0948085 487.69225422 -0.09473976 486.78592712 -0.09466894 485.85213557 C-0.09433062 481.24949099 -0.09402923 476.64684641 -0.09374207 472.04420183 C-0.0916408 439.43075242 -0.08490107 406.81730545 -0.07543945 374.20385742 C-0.06625735 342.51733412 -0.0591726 310.83081148 -0.05493164 279.14428711 C-0.05480011 278.16783217 -0.05466859 277.19137724 -0.05453308 276.18533276 C-0.05321457 266.37950731 -0.05193876 256.57368186 -0.05069422 246.76785641 C-0.0481579 226.79167413 -0.04533665 206.8154919 -0.04234314 186.83930969 C-0.04220585 185.92080639 -0.04206856 185.00230308 -0.04192711 184.05596634 C-0.03272408 122.70397654 -0.0168786 61.35198811 0 0 Z " fill="#80C6E3" transform="translate(1477,106)"/>
<path d="M0 0 C44.55 0 89.1 0 135 0 C135 9.57 135 19.14 135 29 C90.45 29 45.9 29 0 29 C0 19.43 0 9.86 0 0 Z " fill="#6CCFF6" transform="translate(829,106)"/>
<path d="M0 0 C1.18601807 0.29801514 1.18601807 0.29801514 2.39599609 0.60205078 C14.38498921 3.70085152 25.18905993 7.99292944 36 14 C37.09054688 14.58910156 38.18109375 15.17820312 39.3046875 15.78515625 C50.04602576 21.78445332 59.01878566 29.65921181 68 38 C68.60457031 38.55042969 69.20914063 39.10085938 69.83203125 39.66796875 C95.57429841 64.08393643 113.60206419 105.77236157 114.9921875 141.03515625 C114.99476563 141.68355469 114.99734375 142.33195313 115 143 C114.67 143 114.34 143 114 143 C113.89042969 142.43829102 113.78085938 141.87658203 113.66796875 141.29785156 C108.49366727 115.3737598 98.90619351 91.5838395 82 71 C81.31550781 70.15743652 81.31550781 70.15743652 80.6171875 69.29785156 C60.89294015 45.13037469 35.76262575 28.27831856 6 19 C4.8553125 18.62230469 3.710625 18.24460937 2.53125 17.85546875 C-17.5236859 11.60001561 -38.18811921 11.3637457 -59 11 C-58.21584717 10.22567627 -57.43169434 9.45135254 -56.6237793 8.65356445 C-54.02049769 6.11022051 -54.02049769 6.11022051 -52.01953125 3.54296875 C-39.9842708 -9.30174285 -15.53313838 -3.96977796 0 0 Z " fill="#FCFCFD" transform="translate(2764,804)"/>
</svg>
