<?xml version="1.0" encoding="UTF-8"?>
<svg version="1.1" xmlns="http://www.w3.org/2000/svg" width="512" height="206">
<path d="M0 0 C3.07546444 2.2819635 5.775909 4.74787869 8.4375 7.5 C6.77886495 11.82504836 3.566459 14.59418825 0.3125 17.75 C-0.53248047 18.58144531 -0.53248047 18.58144531 -1.39453125 19.4296875 C-2.77936028 20.79104485 -4.17033204 22.14614859 -5.5625 23.5 C-6.14257812 23.10167969 -6.72265625 22.70335938 -7.3203125 22.29296875 C-15.30807942 16.87552287 -21.67164211 12.84060947 -31.5625 13.5 C-34.4079982 14.27972726 -36.84906286 15.28363163 -39.5625 16.5 C-40.97691874 19.32883747 -40.88150332 21.37376745 -40.5625 24.5 C-37.36241743 27.72408319 -33.54230505 28.43810354 -29.25 29.375 C-0.87589133 36.0830891 -0.87589133 36.0830891 6.875 46.875 C11.87705425 55.23954628 12.17480191 62.9275815 10.4375 72.5 C7.98795418 80.40884748 3.49408488 85.30841088 -3.5625 89.5 C-16.09821273 95.60953013 -31.17863438 96.73742445 -44.625 92.875 C-52.99921842 89.84920098 -60.98936896 85.57938268 -66.5625 78.5 C-66.60156299 74.63276406 -65.51650184 73.45109808 -62.83984375 70.60546875 C-61.73675128 69.62127247 -60.62306467 68.64884336 -59.5 67.6875 C-58.93216797 67.18541016 -58.36433594 66.68332031 -57.77929688 66.16601562 C-56.38270396 64.93372776 -54.9737768 63.71544352 -53.5625 62.5 C-50.552727 64.28607636 -47.60541176 66.13135093 -44.6875 68.0625 C-37.03974901 72.77317408 -29.38889498 73.25401364 -20.5625 72.5 C-17.59528339 71.69433191 -14.78928264 70.72678264 -12.5625 68.5 C-12.05874166 64.43351976 -12.05874166 64.43351976 -12.5625 60.5 C-16.04335958 57.25559255 -19.08095203 55.75668009 -23.640625 54.5 C-24.80207031 54.17 -25.96351563 53.84 -27.16015625 53.5 C-28.96806641 53.005 -28.96806641 53.005 -30.8125 52.5 C-52.33498055 46.53060128 -52.33498055 46.53060128 -57.5 41.0625 C-58.04527344 40.50691406 -58.59054687 39.95132813 -59.15234375 39.37890625 C-63.94437852 32.99395133 -63.87022212 24.38252436 -63.38671875 16.7109375 C-62.27429454 9.45208861 -59.10377977 4.48605044 -53.51953125 -0.22265625 C-38.08486006 -11.34108311 -15.53586915 -10.51554462 0 0 Z " fill="#000000" transform="translate(366.5625,45.5)"/>
<path d="M0 0 C6.93 0 13.86 0 21 0 C21.01981934 1.70462402 21.03963867 3.40924805 21.06005859 5.16552734 C21.12816416 10.8333564 21.20496252 16.50102438 21.28752708 22.16866112 C21.33721459 25.60084464 21.38354388 29.03300141 21.421875 32.46533203 C21.46621958 36.42236811 21.52575273 40.37910949 21.5859375 44.3359375 C21.59748871 45.55300385 21.60903992 46.77007019 21.62094116 48.02401733 C21.78434435 57.56724359 22.04374919 67.16282788 28 75 C32.48217611 78.42515499 37.1616769 79.6956948 42.765625 79.3671875 C47.6331298 78.56728287 51.39812667 77.13155041 54.43510437 73.09036255 C58.58830611 65.46379699 58.73470084 58.33207748 58.70703125 49.8046875 C58.72017293 48.36164282 58.73548466 46.91861644 58.75285339 45.47561646 C58.79242886 41.71091863 58.80287584 37.94670496 58.80688477 34.18182373 C58.81626861 30.32679816 58.85371437 26.47205097 58.88867188 22.6171875 C58.95296769 15.07807268 58.98383735 7.53939983 59 0 C66.26 0 73.52 0 81 0 C81.06814042 8.26770445 81.12302426 16.53518565 81.15543652 24.80309677 C81.17100327 28.64341528 81.192074 32.48352949 81.22631836 36.32373047 C81.25923673 40.03905456 81.27692036 43.75418382 81.28463173 47.46964264 C81.29011765 48.87762768 81.30082777 50.28560369 81.31719017 51.69350433 C81.47485241 65.83946784 79.60183767 79.33507009 69.9609375 90.32421875 C64.89852837 95.16302323 59.67212178 97.96033583 53 100 C52.40832031 100.19078125 51.81664062 100.3815625 51.20703125 100.578125 C39.66032009 102.78528395 27.29417678 101.50309064 17.25390625 95.3046875 C8.20827229 88.66495024 2.64219977 79.1625286 0.43287659 68.18112183 C-0.01885971 64.86140381 -0.12004243 61.70180896 -0.11352539 58.35205078 C-0.11344986 57.05115509 -0.11337433 55.7502594 -0.11329651 54.40994263 C-0.10819101 53.00506552 -0.10297504 51.60018881 -0.09765625 50.1953125 C-0.09578923 48.74657236 -0.09436667 47.29783158 -0.09336853 45.84909058 C-0.08956573 42.05153637 -0.07975474 38.25402092 -0.06866455 34.45648193 C-0.05840215 30.57515995 -0.05386059 26.69383166 -0.04882812 22.8125 C-0.0381303 15.20831369 -0.0205518 7.60416723 0 0 Z " fill="#000000" transform="translate(213,39)"/>
<path d="M0 0 C12.313125 -0.0928125 12.313125 -0.0928125 24.875 -0.1875 C28.73227783 -0.22846802 28.73227783 -0.22846802 32.66748047 -0.27026367 C34.73404472 -0.2790357 36.80061421 -0.28667794 38.8671875 -0.29296875 C39.91720947 -0.30831665 40.96723145 -0.32366455 42.04907227 -0.33947754 C52.45545517 -0.34312549 62.14219809 1.80327511 70 9 C77.36706611 18.70181083 78.96805835 27.99117491 78 40 C76.42032959 47.60511983 73.09129431 54.07108112 67 59 C59.39834705 63.37340435 52.68671626 65.13483709 43.94921875 65.09765625 C42.14070435 65.09390991 42.14070435 65.09390991 40.2956543 65.09008789 C38.01461792 65.07643188 38.01461792 65.07643188 35.6875 65.0625 C28.4171875 65.0315625 28.4171875 65.0315625 21 65 C21 76.55 21 88.1 21 100 C14.07 100 7.14 100 0 100 C0 67 0 34 0 0 Z M21 21 C21 28.59 21 36.18 21 44 C25.54230412 44.10800723 30.08203539 44.18733842 34.625 44.25 C35.91019531 44.28351563 37.19539063 44.31703125 38.51953125 44.3515625 C45.99112476 44.664696 45.99112476 44.664696 52.8359375 42.171875 C55.84134694 39.1556157 55.98197714 37.37247243 56.1875 33.125 C56.11735399 29.64958428 55.89198672 27.00997888 54 24 C49.68445275 21.39408246 46.51878689 20.6354459 41.5078125 20.70703125 C40.30898437 20.71669922 39.11015625 20.72636719 37.875 20.73632812 C36.6375 20.76146484 35.4 20.78660156 34.125 20.8125 C32.86429688 20.82603516 31.60359375 20.83957031 30.3046875 20.85351562 C27.20294093 20.88876275 24.10141508 20.94256639 21 21 Z " fill="#000000" transform="translate(60,39)"/>
<path d="M0 0 C7.26 0 14.52 0 22 0 C22 25.74 22 51.48 22 78 C37.84 78 53.68 78 70 78 C70 85.26 70 92.52 70 100 C46.9 100 23.8 100 0 100 C0 67 0 34 0 0 Z " fill="#000000" transform="translate(142,39)"/>
<path d="M0 0 C5.94 0 11.88 0 18 0 C18 33 18 66 18 100 C11.07 100 4.14 100 -3 100 C-3 76.57 -3 53.14 -3 29 C-8.61 29 -14.22 29 -20 29 C-20 23.72 -20 18.44 -20 13 C-18.47375 12.7525 -16.9475 12.505 -15.375 12.25 C-9.82349035 11.13498675 -5.97900898 9.25197573 -2.1875 4.9375 C-0.84435463 2.90994674 -0.84435463 2.90994674 0 0 Z " fill="#000000" transform="translate(427,39)"/>
</svg>
