<?xml version="1.0" encoding="UTF-8"?><svg xmlns="http://www.w3.org/2000/svg" viewBox="0 0 421.08 282.62"><defs><style>.cls-1{fill:#231f20;}.cls-2,.cls-3,.cls-4,.cls-5,.cls-6,.cls-7,.cls-8,.cls-9{fill:none;}.cls-2,.cls-3,.cls-4,.cls-5,.cls-6,.cls-7,.cls-9{stroke-width:4px;}.cls-2,.cls-3,.cls-4,.cls-6,.cls-8,.cls-9{stroke-linecap:round;}.cls-2,.cls-4,.cls-7{stroke:#231f20;}.cls-2,.cls-6{stroke-linejoin:round;}.cls-10,.cls-3,.cls-4,.cls-5,.cls-7,.cls-8,.cls-9{stroke-miterlimit:10;}.cls-10,.cls-11{fill:#e03a3e;}.cls-10,.cls-8,.cls-9{stroke:#e03a3e;}.cls-3,.cls-5,.cls-6{stroke:#010101;}.cls-8{stroke-width:3px;}</style></defs><g id="text"><path class="cls-10" d="M44.26,192.01v35.74c0,13.44,7.05,16.84,14.82,16.84,8.27,0,13.8-3.56,13.8-16.84v-35.74h15.34v36.24c0,19.18-10.78,28.32-29.57,28.32s-29.73-8.36-29.73-27.98v-36.58h15.34Z"/><path class="cls-10" d="M154.98,231.01c0-10.9.08-22.24.44-29.24h-.09c-3.14,11.68-9.08,30.22-16.53,53.45h-13.51c-5.79-20.38-12.44-41.47-15.79-53.44h-.09c.47,7.35,1.04,19.63,1.04,30.4v23.04h-13.82v-63.21h22.17c6.35,19.58,12.18,36.75,14.07,45.4h.09c2.68-9.97,8.38-26.58,14.54-45.4h22.27v63.21h-14.79v-24.21Z"/><path class="cls-1" d="M193.59,192.01v63.21h-15.34v-63.21h15.34Z"/><path class="cls-1" d="M219.55,240.87l-5.52,14.35h-15.78l25.46-63.21h19.67l26.76,63.21h-16.59l-5.88-14.35h-28.13ZM243.4,228.58c-5.88-14.49-8.75-21.87-10.26-26.7h-.09c-1.42,4.73-4.77,14.34-9.52,26.7h19.88Z"/><path class="cls-1" d="M331.61,235.15c-2.93,11.1-11.74,21.42-31.58,21.42-22.59,0-33.48-15.62-33.48-32.89s12.01-33.01,34.31-33.01c19.36,0,29.02,10.77,30.86,21.34h-15.53c-1.3-3.62-4.71-9.44-15.5-9.44-11.82,0-17.97,9-17.97,20.54s5.61,21.65,18.06,21.65c8.99,0,12.94-3.5,15.4-9.6h15.43Z"/><path class="cls-1" d="M350.29,236.28c1.81,5.46,6.18,9.04,16.67,9.04,9.83,0,12.67-3,12.67-7.08,0-4.36-2.91-6.81-16.23-9.07-21.94-3.75-25.92-10.88-25.92-19.36,0-12.62,12.15-19.08,27.1-19.08,21.7,0,27.58,11.16,28.3,18.5h-15.36c-.89-3.13-3-7.32-13.42-7.32-7.31,0-11.01,2.33-11.01,6.41,0,3.65,2.6,5.49,14.47,7.62,24.02,4.31,27.78,11.56,27.78,20.73,0,10.96-8.6,19.81-29.8,19.81-19.78,0-28.68-8.83-30.6-20.21h15.37Z"/><path class="cls-1" d="M1.49,270.61v5.12c0,2.26,1.3,2.87,2.61,2.87,1.54,0,2.49-.72,2.49-2.87v-5.12h1.49v5.13c0,2.89-1.53,4.09-4.03,4.09s-4.05-1.19-4.05-4v-5.21h1.49Z"/><path class="cls-1" d="M10.06,274.79c0-.55,0-1.15-.01-1.63h1.38c.03.21.04.71.05,1.11.28-.58.94-1.29,2.3-1.29,1.54,0,2.51.95,2.51,2.7v3.95h-1.43v-3.71c0-.99-.38-1.78-1.51-1.78-1.25,0-1.86.94-1.86,2.36v3.13h-1.42v-4.84Z"/><path class="cls-1" d="M18.42,270.09h1.42v1.5h-1.42v-1.5ZM18.42,273.16h1.42v6.47h-1.42v-6.47Z"/><path class="cls-1" d="M22.68,273.16c.66,1.73,1.86,4.47,2.1,5.19h.02c.19-.61.63-1.75,2.06-5.19h1.45l-2.8,6.47h-1.56l-2.81-6.47h1.54Z"/><path class="cls-1" d="M30.39,276.73c.06,1.13.84,1.97,2.06,1.97.95,0,1.46-.37,1.79-.94h1.42c-.36,1.01-1.29,2.05-3.26,2.05-2.4,0-3.43-1.71-3.43-3.4,0-1.92,1.28-3.43,3.4-3.43,2.47,0,3.37,1.78,3.37,3.39,0,.12,0,.22,0,.36h-5.35ZM34.29,275.77c-.05-.7-.43-1.73-1.92-1.73-1.27,0-1.85.77-1.95,1.73h3.87Z"/><path class="cls-1" d="M37.38,274.92c0-.58,0-1.18-.01-1.76h1.38c.02.2.05.89.05,1.42.41-.96,1.31-1.61,2.59-1.59v1.33c-1.48-.02-2.59.8-2.59,2.69v2.62h-1.42v-4.71Z"/><path class="cls-1" d="M43.72,277.67c.21.69.82,1.1,1.92,1.1,1.15,0,1.55-.39,1.55-.91s-.31-.82-1.87-1.01c-2.32-.3-2.73-1.12-2.73-1.92,0-.87.69-1.95,2.8-1.95,2.25,0,2.92,1.14,3,1.95h-1.42c-.1-.37-.35-.93-1.65-.93-1.1,0-1.32.46-1.32.8,0,.43.28.69,1.69.88,2.48.34,2.91,1.13,2.91,2.07,0,1.17-.89,2.06-3.04,2.06-1.86,0-3.03-.79-3.25-2.14h1.42Z"/><path class="cls-1" d="M50.21,270.09h1.42v1.5h-1.42v-1.5ZM50.21,273.16h1.42v6.47h-1.42v-6.47Z"/><path class="cls-1" d="M53.06,273.16h1.26v-2.04h1.42v2.04h1.64v1.09h-1.64v3.34c0,.7.17,1.01.86,1.01.19,0,.43,0,.62-.05v1.02c-.31.1-.68.12-1.07.12-1.4,0-1.82-.62-1.82-1.89v-3.55h-1.26v-1.09Z"/><path class="cls-1" d="M59.75,273.16c1.31,3.08,1.99,4.84,2.17,5.37h.02c.21-.64.84-2.46,1.98-5.37h1.46l-2.44,6c-1.14,2.81-1.54,3.46-3.31,3.46-.25,0-.65-.03-.88-.07v-1.21c.26.03.52.05.7.05.88,0,1.18-.34,1.71-1.47l-2.97-6.76h1.56Z"/><path class="cls-1" d="M77.05,276.39c0,1.84-1.21,3.42-3.56,3.42s-3.47-1.62-3.47-3.41,1.29-3.42,3.54-3.42,3.49,1.73,3.49,3.41ZM71.47,276.4c0,1.17.73,2.28,2.07,2.28s2.05-1.04,2.05-2.26-.71-2.31-2.08-2.31-2.04,1.06-2.04,2.29Z"/><path class="cls-1" d="M79.08,279.63v-5.39h-1.18v-1.09h1.18v-.79c0-1.5.69-2.37,2.23-2.37.32,0,.6.02.78.07v1.12c-.16-.03-.38-.05-.54-.05-.82,0-1.05.34-1.05,1.28v.75h1.47v1.09h-1.47v5.39h-1.42Z"/><path class="cls-1" d="M95.73,275.85c0-1.65,0-3.28.06-4.23h-.01c-.45,1.43-1.84,4.86-3.08,8.01h-1.3c-.94-2.62-2.47-6.51-2.96-8.01h-.01c.08,1.04.13,2.91.13,4.44v3.57h-1.37v-9.02h2.15c1.16,2.92,2.53,6.32,2.8,7.24h.01c.42-1.19,1.8-4.5,2.87-7.24h2.17v9.02h-1.45v-3.79Z"/><path class="cls-1" d="M105.29,277.98c0,.68.04,1.51.06,1.65h-1.35c-.05-.22-.07-.69-.08-.89-.34.64-1.08,1.07-2.41,1.07-1.82,0-2.5-1.1-2.5-2.09,0-1.67,1.5-2.13,3.36-2.13h1.52v-.31c0-.66-.29-1.27-1.56-1.27-1.15,0-1.42.49-1.54,1.03h-1.42c.07-.84.64-2.07,2.95-2.07,2.47,0,2.96,1.19,2.96,2.27v2.73ZM103.9,276.56c-.19,0-.63,0-1.49,0-1.38,0-2,.32-2,1.09,0,.59.44,1.08,1.44,1.08,1.57,0,2.06-.89,2.06-1.93v-.24Z"/><path class="cls-1" d="M107.43,274.92c0-.58,0-1.18-.01-1.76h1.38c.02.2.05.89.05,1.42.41-.96,1.31-1.61,2.59-1.59v1.33c-1.48-.02-2.59.8-2.59,2.69v2.62h-1.42v-4.71Z"/><path class="cls-1" d="M113.97,273.16c1.31,3.08,1.99,4.84,2.17,5.37h.02c.21-.64.84-2.46,1.98-5.37h1.46l-2.44,6c-1.14,2.81-1.54,3.46-3.31,3.46-.25,0-.65-.03-.88-.07v-1.21c.26.03.52.05.7.05.88,0,1.18-.34,1.71-1.47l-2.97-6.76h1.56Z"/><path class="cls-1" d="M120.99,279.63v-9.55h1.42v9.55h-1.42Z"/><path class="cls-1" d="M130.36,277.98c0,.68.04,1.51.06,1.65h-1.35c-.05-.22-.07-.69-.08-.89-.34.64-1.08,1.07-2.41,1.07-1.82,0-2.5-1.1-2.5-2.09,0-1.67,1.5-2.13,3.36-2.13h1.52v-.31c0-.66-.29-1.27-1.56-1.27-1.15,0-1.42.49-1.54,1.03h-1.42c.07-.84.64-2.07,2.95-2.07,2.47,0,2.96,1.19,2.96,2.27v2.73ZM128.97,276.56c-.19,0-.63,0-1.49,0-1.38,0-2,.32-2,1.09,0,.59.44,1.08,1.44,1.08,1.57,0,2.06-.89,2.06-1.93v-.24Z"/><path class="cls-1" d="M132.5,274.79c0-.55,0-1.15-.01-1.63h1.38c.03.21.04.71.05,1.11.28-.58.94-1.29,2.3-1.29,1.54,0,2.51.95,2.51,2.7v3.95h-1.43v-3.71c0-.99-.38-1.78-1.51-1.78-1.25,0-1.86.94-1.86,2.36v3.13h-1.42v-4.84Z"/><path class="cls-1" d="M147.24,270.09v7.68c0,.62,0,1.25.01,1.87h-1.39c-.03-.25-.04-.62-.05-.93-.33.54-.86,1.11-2.32,1.11-1.85,0-3.14-1.38-3.14-3.36,0-2.14,1.63-3.47,3.3-3.47,1.46,0,1.98.62,2.16.92v-3.81h1.42ZM141.81,276.42c0,1.15.69,2.23,2.02,2.23,1.42,0,2.04-.92,2.04-2.27s-.49-2.24-2-2.24c-1.38,0-2.05,1.13-2.05,2.29Z"/><path class="cls-1" d="M154.88,270.61v9.02h-1.49v-9.02h1.49Z"/><path class="cls-1" d="M157.06,274.79c0-.55,0-1.15-.01-1.63h1.38c.03.21.04.71.05,1.11.28-.58.94-1.29,2.3-1.29,1.54,0,2.51.95,2.51,2.7v3.95h-1.43v-3.71c0-.99-.38-1.78-1.51-1.78-1.25,0-1.86.94-1.86,2.36v3.13h-1.42v-4.84Z"/><path class="cls-1" d="M166.12,277.67c.21.69.82,1.1,1.92,1.1,1.15,0,1.55-.39,1.55-.91s-.31-.82-1.87-1.01c-2.32-.3-2.73-1.12-2.73-1.92,0-.87.69-1.95,2.8-1.95,2.25,0,2.92,1.14,3,1.95h-1.42c-.1-.37-.35-.93-1.65-.93-1.1,0-1.32.46-1.32.8,0,.43.28.69,1.69.88,2.48.34,2.91,1.13,2.91,2.07,0,1.17-.89,2.06-3.04,2.06-1.86,0-3.03-.79-3.25-2.14h1.42Z"/><path class="cls-1" d="M171.73,273.16h1.25v-2.04h1.42v2.04h1.64v1.09h-1.64v3.34c0,.7.17,1.01.86,1.01.18,0,.43,0,.62-.05v1.02c-.31.1-.68.12-1.07.12-1.4,0-1.82-.62-1.82-1.89v-3.55h-1.25v-1.09Z"/><path class="cls-1" d="M177.53,270.09h1.42v1.5h-1.42v-1.5ZM177.53,273.16h1.42v6.47h-1.42v-6.47Z"/><path class="cls-1" d="M180.39,273.16h1.25v-2.04h1.42v2.04h1.64v1.09h-1.64v3.34c0,.7.17,1.01.86,1.01.18,0,.43,0,.62-.05v1.02c-.31.1-.68.12-1.07.12-1.4,0-1.82-.62-1.82-1.89v-3.55h-1.25v-1.09Z"/><path class="cls-1" d="M192.12,277.75c0,.63,0,1.26,0,1.89h-1.37c-.03-.18-.04-.6-.04-1.01-.32.68-.88,1.19-2.29,1.19s-2.43-.76-2.43-2.65v-4h1.42v3.75c0,.95.37,1.73,1.45,1.73,1.3,0,1.84-.75,1.84-2.54v-2.94h1.42v4.59Z"/><path class="cls-1" d="M193.58,273.16h1.26v-2.04h1.42v2.04h1.64v1.09h-1.64v3.34c0,.7.17,1.01.86,1.01.18,0,.43,0,.62-.05v1.02c-.31.1-.68.12-1.07.12-1.4,0-1.82-.62-1.82-1.89v-3.55h-1.26v-1.09Z"/><path class="cls-1" d="M200.19,276.73c.06,1.13.84,1.97,2.06,1.97.95,0,1.46-.37,1.79-.94h1.42c-.36,1.01-1.29,2.05-3.26,2.05-2.4,0-3.43-1.71-3.43-3.4,0-1.92,1.28-3.43,3.4-3.43,2.47,0,3.38,1.78,3.38,3.39,0,.12,0,.22,0,.36h-5.35ZM204.09,275.77c-.05-.7-.43-1.73-1.92-1.73-1.27,0-1.85.77-1.95,1.73h3.87Z"/><path class="cls-1" d="M211.35,279.63v-5.39h-1.18v-1.09h1.18v-.79c0-1.5.68-2.37,2.23-2.37.32,0,.6.02.78.07v1.12c-.16-.03-.38-.05-.54-.05-.82,0-1.05.34-1.05,1.28v.75h1.47v1.09h-1.47v5.39h-1.42Z"/><path class="cls-1" d="M221.97,276.39c0,1.84-1.21,3.42-3.56,3.42s-3.47-1.62-3.47-3.41,1.29-3.42,3.54-3.42,3.49,1.73,3.49,3.41ZM216.39,276.4c0,1.17.73,2.28,2.07,2.28s2.05-1.04,2.05-2.26-.71-2.31-2.08-2.31-2.04,1.06-2.04,2.29Z"/><path class="cls-1" d="M223.6,274.92c0-.58,0-1.18-.01-1.76h1.38c.02.2.05.89.05,1.42.4-.96,1.31-1.61,2.59-1.59v1.33c-1.48-.02-2.59.8-2.59,2.69v2.62h-1.42v-4.71Z"/><path class="cls-1" d="M234.49,277.06l-1.07,2.57h-1.55l3.82-9.02h1.85l3.98,9.02h-1.62l-1.12-2.57h-4.28ZM238.31,275.82c-1.04-2.39-1.53-3.54-1.74-4.17h-.01c-.19.61-.77,2.12-1.63,4.17h3.38Z"/><path class="cls-1" d="M249.25,270.09v7.68c0,.62,0,1.25.01,1.87h-1.39c-.03-.25-.04-.62-.05-.93-.33.54-.86,1.11-2.32,1.11-1.85,0-3.14-1.38-3.14-3.36,0-2.14,1.63-3.47,3.3-3.47,1.46,0,1.98.62,2.16.92v-3.81h1.42ZM243.82,276.42c0,1.15.69,2.23,2.02,2.23,1.42,0,2.04-.92,2.04-2.27s-.49-2.24-2-2.24c-1.38,0-2.05,1.13-2.05,2.29Z"/><path class="cls-1" d="M252.08,273.16c.66,1.73,1.86,4.47,2.1,5.19h.02c.19-.61.63-1.75,2.07-5.19h1.45l-2.79,6.47h-1.56l-2.81-6.47h1.54Z"/><path class="cls-1" d="M264.6,277.98c0,.68.04,1.51.06,1.65h-1.35c-.05-.22-.07-.69-.08-.89-.34.64-1.08,1.07-2.41,1.07-1.82,0-2.5-1.1-2.5-2.09,0-1.67,1.5-2.13,3.36-2.13h1.52v-.31c0-.66-.29-1.27-1.56-1.27-1.15,0-1.42.49-1.54,1.03h-1.42c.07-.84.64-2.07,2.95-2.07,2.47,0,2.96,1.19,2.96,2.27v2.73ZM263.21,276.56c-.19,0-.63,0-1.49,0-1.38,0-2,.32-2,1.09,0,.59.44,1.08,1.44,1.08,1.57,0,2.06-.89,2.06-1.93v-.24Z"/><path class="cls-1" d="M266.74,274.79c0-.55,0-1.15-.01-1.63h1.38c.03.21.04.71.05,1.11.28-.58.94-1.29,2.3-1.29,1.54,0,2.51.95,2.51,2.7v3.95h-1.43v-3.71c0-.99-.38-1.78-1.51-1.78-1.25,0-1.86.94-1.86,2.36v3.13h-1.42v-4.84Z"/><path class="cls-1" d="M281.29,277.57c-.3,1.18-1.33,2.24-3.24,2.24-2.35,0-3.45-1.55-3.45-3.4s1.25-3.43,3.47-3.43,3.07,1.46,3.2,2.28h-1.42c-.2-.54-.66-1.16-1.79-1.16-1.29,0-2.01.96-2.01,2.29s.69,2.3,2.01,2.3c.97,0,1.5-.43,1.81-1.12h1.42Z"/><path class="cls-1" d="M283.85,276.73c.06,1.13.84,1.97,2.06,1.97.95,0,1.46-.37,1.79-.94h1.42c-.36,1.01-1.29,2.05-3.26,2.05-2.4,0-3.43-1.71-3.43-3.4,0-1.92,1.28-3.43,3.4-3.43,2.47,0,3.38,1.78,3.38,3.39,0,.12,0,.22,0,.36h-5.35ZM287.74,275.77c-.05-.7-.43-1.73-1.92-1.73-1.27,0-1.85.77-1.95,1.73h3.87Z"/><path class="cls-1" d="M297.34,270.09v7.68c0,.62,0,1.25.01,1.87h-1.39c-.03-.25-.04-.62-.05-.93-.33.54-.86,1.11-2.32,1.11-1.85,0-3.14-1.38-3.14-3.36,0-2.14,1.63-3.47,3.3-3.47,1.46,0,1.98.62,2.16.92v-3.81h1.42ZM291.92,276.42c0,1.15.69,2.23,2.02,2.23,1.42,0,2.04-.92,2.04-2.27s-.49-2.24-2-2.24c-1.38,0-2.05,1.13-2.05,2.29Z"/><path class="cls-1" d="M311.88,276.94c-.49,1.56-1.65,2.88-4.29,2.88-3.05,0-4.66-2.13-4.66-4.68s1.78-4.72,4.74-4.72c2.64,0,3.9,1.43,4.24,2.92h-1.52c-.34-.84-1.01-1.71-2.73-1.71-1.98,0-3.14,1.47-3.14,3.45s1.14,3.53,3.16,3.53c1.6,0,2.25-.67,2.71-1.67h1.5Z"/><path class="cls-1" d="M320.23,276.39c0,1.84-1.21,3.42-3.56,3.42s-3.47-1.62-3.47-3.41,1.29-3.42,3.54-3.42,3.49,1.73,3.49,3.41ZM314.65,276.4c0,1.17.73,2.28,2.07,2.28s2.05-1.04,2.05-2.26-.71-2.31-2.08-2.31-2.04,1.06-2.04,2.29Z"/><path class="cls-1" d="M321.86,274.83c0-.56,0-1.11-.01-1.67h1.37c.03.26.04.6.04.92.33-.54.95-1.1,2.06-1.1s1.7.51,1.98,1.2c.34-.54.95-1.2,2.21-1.2s2.34.76,2.34,2.67v3.98h-1.4v-3.93c0-.71-.23-1.58-1.31-1.58-.96,0-1.57.64-1.57,1.96v3.55h-1.41v-3.98c0-.74-.26-1.54-1.32-1.54-1.12,0-1.57.87-1.57,2.03v3.48h-1.41v-4.8Z"/><path class="cls-1" d="M335.4,278.76v3.69h-1.42v-7.67c0-.54,0-1.08-.01-1.61h1.39c.03.17.04.61.04,1.05.38-.64,1.11-1.22,2.43-1.22,1.73,0,3.02,1.42,3.02,3.3,0,2.15-1.5,3.53-3.24,3.53-1.27,0-1.88-.54-2.21-1.06ZM339.4,276.35c0-1.1-.63-2.2-1.99-2.2-1.43,0-2.04.99-2.04,2.28s.67,2.22,2.01,2.22,2.02-1.05,2.02-2.29Z"/><path class="cls-1" d="M348.6,277.75c0,.63,0,1.26,0,1.89h-1.37c-.03-.18-.04-.6-.04-1.01-.32.68-.88,1.19-2.29,1.19s-2.43-.76-2.43-2.65v-4h1.42v3.75c0,.95.37,1.73,1.45,1.73,1.3,0,1.84-.75,1.84-2.54v-2.94h1.42v4.59Z"/><path class="cls-1" d="M350.06,273.16h1.26v-2.04h1.42v2.04h1.64v1.09h-1.64v3.34c0,.7.17,1.01.86,1.01.18,0,.43,0,.62-.05v1.02c-.31.1-.68.12-1.07.12-1.4,0-1.82-.62-1.82-1.89v-3.55h-1.26v-1.09Z"/><path class="cls-1" d="M356.67,276.73c.06,1.13.84,1.97,2.06,1.97.95,0,1.46-.37,1.79-.94h1.42c-.36,1.01-1.29,2.05-3.26,2.05-2.4,0-3.43-1.71-3.43-3.4,0-1.92,1.28-3.43,3.4-3.43,2.47,0,3.38,1.78,3.38,3.39,0,.12,0,.22,0,.36h-5.35ZM360.57,275.77c-.05-.7-.43-1.73-1.92-1.73-1.27,0-1.85.77-1.95,1.73h3.87Z"/><path class="cls-1" d="M363.66,274.92c0-.58,0-1.18-.01-1.76h1.38c.02.2.05.89.05,1.42.4-.96,1.31-1.61,2.59-1.59v1.33c-1.48-.02-2.59.8-2.59,2.69v2.62h-1.42v-4.71Z"/><path class="cls-1" d="M373.81,276.99c.31.99,1.05,1.68,2.76,1.68s2.3-.63,2.3-1.4c0-.82-.48-1.32-2.7-1.7-2.81-.48-3.44-1.37-3.44-2.59,0-1.64,1.56-2.55,3.57-2.55,2.97,0,3.7,1.55,3.8,2.49h-1.51c-.17-.57-.53-1.34-2.34-1.34-1.24,0-2,.42-2,1.25,0,.69.37,1.1,2.33,1.44,3.3.57,3.83,1.58,3.83,2.85,0,1.47-1.17,2.71-3.95,2.71-2.59,0-3.87-1.18-4.16-2.83h1.51Z"/><path class="cls-1" d="M381.46,273.16h1.26v-2.04h1.42v2.04h1.64v1.09h-1.64v3.34c0,.7.17,1.01.86,1.01.18,0,.43,0,.62-.05v1.02c-.31.1-.68.12-1.07.12-1.4,0-1.82-.62-1.82-1.89v-3.55h-1.26v-1.09Z"/><path class="cls-1" d="M393.19,277.75c0,.63,0,1.26,0,1.89h-1.37c-.03-.18-.04-.6-.04-1.01-.32.68-.88,1.19-2.29,1.19s-2.43-.76-2.43-2.65v-4h1.42v3.75c0,.95.37,1.73,1.45,1.73,1.3,0,1.84-.75,1.84-2.54v-2.94h1.42v4.59Z"/><path class="cls-1" d="M401.71,270.09v7.68c0,.62,0,1.25.01,1.87h-1.39c-.03-.25-.04-.62-.05-.93-.33.54-.86,1.11-2.32,1.11-1.85,0-3.14-1.38-3.14-3.36,0-2.14,1.63-3.47,3.3-3.47,1.46,0,1.98.62,2.16.92v-3.81h1.42ZM396.28,276.42c0,1.15.69,2.23,2.02,2.23,1.42,0,2.04-.92,2.04-2.27s-.49-2.24-2-2.24c-1.38,0-2.05,1.13-2.05,2.29Z"/><path class="cls-1" d="M403.83,270.09h1.42v1.5h-1.42v-1.5ZM403.83,273.16h1.42v6.47h-1.42v-6.47Z"/><path class="cls-1" d="M408.3,276.73c.06,1.13.84,1.97,2.06,1.97.95,0,1.46-.37,1.79-.94h1.42c-.36,1.01-1.29,2.05-3.26,2.05-2.4,0-3.43-1.71-3.43-3.4,0-1.92,1.28-3.43,3.4-3.43,2.47,0,3.38,1.78,3.38,3.39,0,.12,0,.22,0,.36h-5.35ZM412.2,275.77c-.05-.7-.43-1.73-1.92-1.73-1.27,0-1.85.77-1.95,1.73h3.87Z"/><path class="cls-1" d="M416.21,277.67c.22.69.82,1.1,1.92,1.1,1.16,0,1.55-.39,1.55-.91s-.31-.82-1.87-1.01c-2.32-.3-2.73-1.12-2.73-1.92,0-.87.69-1.95,2.8-1.95,2.25,0,2.92,1.14,3,1.95h-1.41c-.1-.37-.35-.93-1.65-.93-1.1,0-1.32.46-1.32.8,0,.43.28.69,1.7.88,2.48.34,2.91,1.13,2.91,2.07,0,1.17-.89,2.06-3.04,2.06-1.86,0-3.03-.79-3.25-2.14h1.42Z"/></g><g id="Layer_1_copy_2"><path class="cls-11" d="M38.28,22.04c.64,9.29,1.06,18.58,1.6,27.88l.66,13.94.54,13.94c.17,4.65.49,9.29.76,13.94.25,4.65.28,9.29.04,13.94-.23,4.65-.62,9.29-1.17,13.94-.57,4.65-1.28,9.29-2.43,13.94-.05.22-.28.36-.5.3-.15-.04-.27-.16-.3-.3-1.15-4.65-1.85-9.29-2.43-13.94-.56-4.65-.94-9.29-1.17-13.94-.24-4.65-.21-9.29.04-13.94.27-4.65.59-9.29.76-13.94l.54-13.94.66-13.94c.54-9.29.96-18.58,1.6-27.88.02-.22.21-.39.43-.37.2.01.36.18.37.37Z"/><line class="cls-2" x1="326.61" y1="57.09" x2="326.61" y2="88.66"/><path class="cls-7" d="M221.48,119.94v-11.32c14.69-1.4,28.37-2.6,40.89-3.62,12.53-1.02,23.9-1.86,33.97-2.56,23.02-1.6,40.74-2.6,53.27-1.79,12.53.81,19.87,4.31,22.16,9.97.57,1.4.5,5.97.57,7.58"/><line class="cls-2" x1="372.33" y1="116.01" x2="372.33" y2="176.25"/><line class="cls-3" x1="34.52" y1="22.74" x2="45.36" y2="24.15"/><line class="cls-3" x1="100.98" y1="2" x2="45.36" y2="24.15"/><line class="cls-3" x1="34.52" y1="22.74" x2="34.52" y2="138.22"/><line class="cls-3" x1="102.94" y1="169.54" x2="79.93" y2="133.73"/><line class="cls-3" x1="79.88" y1="166.29" x2="98.53" y2="126.12"/><line class="cls-5" x1="100.98" y1="2" x2="100.98" y2="123.75"/><line class="cls-5" x1="34.52" y1="138.22" x2="100.98" y2="123.75"/><line class="cls-9" x1="129.74" y1="65.63" x2="129.74" y2="80.72"/><line class="cls-9" x1="150.48" y1="95.33" x2="150.48" y2="106.64"/><line class="cls-9" x1="173.1" y1="77.89" x2="173.1" y2="88.73"/><line class="cls-9" x1="214.19" y1="59.95" x2="214.19" y2="70.32"/><line class="cls-9" x1="113.71" y1="24.46" x2="113.71" y2="40.48"/><line class="cls-9" x1="67.75" y1="40.25" x2="67.75" y2="56.27"/><line class="cls-9" x1="185.83" y1="101.46" x2="185.83" y2="110.88"/><line class="cls-9" x1="199.87" y1="75.3" x2="199.87" y2="85.66"/><line class="cls-3" x1="73.17" y1="167.94" x2="51.75" y2="134.6"/><line class="cls-6" x1="50.26" y1="166.52" x2="64.59" y2="135.67"/><path class="cls-7" d="M231.23,106.48c-.24-8.82,29.41-16.77,66.21-17.76,36.81-.99,59.52,2.83,59.76,11.64"/><path class="cls-7" d="M326.61,57.09C206.02,50.75,127.38,37,100.98,2"/><path class="cls-4" d="M319.86,48.26c-84.96-4.46-140.49-11.59-159.56-27.28"/><line class="cls-7" x1="319.86" y1="48.26" x2="319.86" y2="57.64"/><line class="cls-7" x1="160.3" y1="20.95" x2="160.3" y2="37.03"/><line class="cls-3" x1="313.09" y1="124.13" x2="312.89" y2="170.82"/><line class="cls-5" x1="249.84" y1="121.7" x2="249.84" y2="166.29"/><line class="cls-3" x1="197.14" y1="121.7" x2="197.14" y2="164.55"/><line class="cls-5" x1="122.44" y1="129.89" x2="122.44" y2="169.54"/><path class="cls-3" d="M100.98,123.75c5.22-3.71,63.81-5.13,133.92-4.02,47.93.76,67.83,2.61,78.19,4.4"/><path class="cls-3" d="M122.44,169.54c5.68-4,66.8-5.62,157.99-.29,62.34,3.64,88.15,6.81,101.54,9.36"/><line class="cls-5" x1="157.67" y1="120.25" x2="157.67" y2="165.86"/><line class="cls-8" x1="343.62" y1="132.7" x2="343.62" y2="156.33"/><path class="cls-3" d="M34.09,137.7c43.31-4.2,75.45-7.52,88.3-8.26"/><line class="cls-9" x1="52.83" y1="85.91" x2="52.83" y2="97.22"/><line class="cls-9" x1="82.41" y1="102.13" x2="82.41" y2="112.31"/></g></svg>