<svg width="229" height="107" viewBox="0 0 229 107" fill="none" xmlns="http://www.w3.org/2000/svg">
<g filter="url(#filter0_di_331_317)">
<path d="M65.712 11.536L62.768 25.488L49.328 26C49.328 25.36 49.968 25.232 48.048 25.232C45.36 25.232 44.592 24.464 44.592 24.464C44.592 24.464 46.256 24.08 43.696 24.464C41.008 24.848 42.032 24.976 40.624 24.976C39.216 24.976 38.32 24.592 37.936 24.976C37.68 25.232 37.04 26 36.656 26.64L31.664 26.896L31.408 34.448H52.784L54.832 43.152L47.152 54.416L30.896 55.952L30.768 61.584C30.768 61.968 28.976 63.632 27.44 65.68C25.776 67.6 27.952 66.576 28.72 67.856C29.616 69.264 28.72 67.856 28.72 69.136C28.72 70.416 28.848 70.16 29.744 72.976C30 73.616 30.128 74.128 30.384 74.384L30.256 77.456L26.416 90.128H7.984L0.0480001 81.552L2.224 41.488H11.824L2.48 36.24L4.016 8.20799L29.232 2.31999L37.552 0.399994L51.632 6.032L45.232 10.64L55.6 7.56799L65.712 11.536ZM133.913 62.224L138.521 75.792L127.129 89.232L109.465 86.416L105.369 73.36L84.249 74.384L83.097 77.84L77.465 78.736L82.201 80.784L80.153 87.44L60.313 90.128L57.625 65.296L72.345 29.2L80.153 28.048L75.033 22.8L84.249 0.399994L106.393 5.392L108.953 11.536L110.489 6.41599L115.609 7.56799L125.209 36.368L125.465 36.88L127.129 42L128.921 47.248L132.121 56.848L127.897 56.336L133.913 62.224ZM85.401 51.472L102.297 50.064L93.337 25.744L85.401 51.472ZM215.17 69.392L224.386 91.408L217.986 100.88L208.002 95.888C207.234 95.504 208.002 95.888 208.002 94.992C208.002 93.968 206.338 94.096 205.826 93.712C205.442 93.456 205.058 93.2 203.65 92.56C202.114 91.92 203.65 91.152 203.65 91.152C203.65 91.152 203.138 90.768 199.17 90.768C195.33 90.768 199.17 90.768 197.25 90.768L190.594 87.44L162.178 87.312L143.746 75.664L141.57 65.168C141.314 64.016 143.362 63.632 143.362 62.48C143.362 61.328 143.362 60.688 141.954 59.024C140.674 57.488 142.466 57.744 141.954 56.592C141.57 55.44 139.778 56.208 139.906 54.032C140.162 51.856 140.162 52.112 138.114 48.528L133.25 24.208L142.978 14.352L162.05 12.816C162.05 12.816 152.194 11.536 146.306 10.896L152.578 4.62399L194.434 0.783997L203.01 9.488C203.266 9.744 203.522 10.128 204.034 10.512C206.21 12.816 205.058 13.2 205.058 14.608C205.058 16.016 205.698 17.552 205.442 18.064C205.058 18.704 206.21 17.424 206.978 18.448C207.618 19.6 209.026 19.088 209.666 19.984C210.306 21.008 210.562 21.008 211.714 21.392C212.866 21.904 214.274 21.008 214.786 21.392L219.522 26.256L216.834 53.136L207.106 55.696L216.45 57.232L215.17 69.392ZM186.626 56.208L193.666 39.184L187.01 27.408L170.882 30.352L161.026 39.184L165.122 49.936L161.026 52.24H166.146L169.474 61.072L186.626 56.208Z" fill="#FFF8E8"/>
</g>
<defs>
<filter id="filter0_di_331_317" x="0.0478516" y="0.399902" width="228.338" height="106.48" filterUnits="userSpaceOnUse" color-interpolation-filters="sRGB">
<feFlood flood-opacity="0" result="BackgroundImageFix"/>
<feColorMatrix in="SourceAlpha" type="matrix" values="0 0 0 0 0 0 0 0 0 0 0 0 0 0 0 0 0 0 127 0" result="hardAlpha"/>
<feOffset dx="2" dy="4"/>
<feGaussianBlur stdDeviation="1"/>
<feComposite in2="hardAlpha" operator="out"/>
<feColorMatrix type="matrix" values="0 0 0 0 0.258824 0 0 0 0 0.0784314 0 0 0 0 0.0705882 0 0 0 1 0"/>
<feBlend mode="normal" in2="BackgroundImageFix" result="effect1_dropShadow_331_317"/>
<feBlend mode="normal" in="SourceGraphic" in2="effect1_dropShadow_331_317" result="shape"/>
<feColorMatrix in="SourceAlpha" type="matrix" values="0 0 0 0 0 0 0 0 0 0 0 0 0 0 0 0 0 0 127 0" result="hardAlpha"/>
<feOffset dx="2" dy="4"/>
<feGaussianBlur stdDeviation="0.75"/>
<feComposite in2="hardAlpha" operator="arithmetic" k2="-1" k3="1"/>
<feColorMatrix type="matrix" values="0 0 0 0 0.545098 0 0 0 0 0.12549 0 0 0 0 0 0 0 0 1 0"/>
<feBlend mode="normal" in2="shape" result="effect2_innerShadow_331_317"/>
</filter>
</defs>
</svg>
